<?xml version="1.0" encoding="UTF-8" standalone="no"?>
<svg
   xmlns:dc="http://purl.org/dc/elements/1.1/"
   xmlns:cc="http://creativecommons.org/ns#"
   xmlns:rdf="http://www.w3.org/1999/02/22-rdf-syntax-ns#"
   xmlns:svg="http://www.w3.org/2000/svg"
   xmlns="http://www.w3.org/2000/svg"
   xmlns:sodipodi="http://sodipodi.sourceforge.net/DTD/sodipodi-0.dtd"
   xmlns:inkscape="http://www.inkscape.org/namespaces/inkscape"
   width="173.97844mm"
   height="100.45483mm"
   viewBox="0 0 173.97845 100.45483"
   version="1.1"
   id="svg8"
   sodipodi:docname="creation.svg"
   inkscape:version="1.0beta2 (235953b, 2020-02-06)">
  <defs
     id="defs2">
    <filter
       id="filter6118"
       inkscape:label="Lightness-Contrast"
       style="color-interpolation-filters:sRGB">
      <feColorMatrix
         id="feColorMatrix6116"
         values="0.0797547 0 0 -0.132485 0.460123 0 0.0797547 0 -0.132485 0.460123 0 0 0.0797547 -0.132485 0.460123 0 0 0 1 0" />
    </filter>
    <filter
       id="filter6122"
       inkscape:label="Lightness-Contrast"
       style="color-interpolation-filters:sRGB">
      <feColorMatrix
         id="feColorMatrix6120"
         values="0.0797547 0 0 -0.132485 0.460123 0 0.0797547 0 -0.132485 0.460123 0 0 0.0797547 -0.132485 0.460123 0 0 0 1 0" />
    </filter>
    <filter
       id="filter6126"
       inkscape:label="Lightness-Contrast"
       style="color-interpolation-filters:sRGB">
      <feColorMatrix
         id="feColorMatrix6124"
         values="0.0797547 0 0 -0.132485 0.460123 0 0.0797547 0 -0.132485 0.460123 0 0 0.0797547 -0.132485 0.460123 0 0 0 1 0" />
    </filter>
    <filter
       id="filter6130"
       inkscape:label="Lightness-Contrast"
       style="color-interpolation-filters:sRGB">
      <feColorMatrix
         id="feColorMatrix6128"
         values="0.0797547 0 0 -0.132485 0.460123 0 0.0797547 0 -0.132485 0.460123 0 0 0.0797547 -0.132485 0.460123 0 0 0 1 0" />
    </filter>
    <filter
       id="filter6134"
       inkscape:label="Lightness-Contrast"
       style="color-interpolation-filters:sRGB">
      <feColorMatrix
         id="feColorMatrix6132"
         values="0.0797547 0 0 -0.132485 0.460123 0 0.0797547 0 -0.132485 0.460123 0 0 0.0797547 -0.132485 0.460123 0 0 0 1 0" />
    </filter>
    <filter
       id="filter6138"
       inkscape:label="Lightness-Contrast"
       style="color-interpolation-filters:sRGB">
      <feColorMatrix
         id="feColorMatrix6136"
         values="0.0797547 0 0 -0.132485 0.460123 0 0.0797547 0 -0.132485 0.460123 0 0 0.0797547 -0.132485 0.460123 0 0 0 1 0" />
    </filter>
    <filter
       id="filter6142"
       inkscape:label="Lightness-Contrast"
       style="color-interpolation-filters:sRGB">
      <feColorMatrix
         id="feColorMatrix6140"
         values="0.0797547 0 0 -0.132485 0.460123 0 0.0797547 0 -0.132485 0.460123 0 0 0.0797547 -0.132485 0.460123 0 0 0 1 0" />
    </filter>
    <filter
       id="filter6146"
       inkscape:label="Lightness-Contrast"
       style="color-interpolation-filters:sRGB">
      <feColorMatrix
         id="feColorMatrix6144"
         values="0.0797547 0 0 -0.132485 0.460123 0 0.0797547 0 -0.132485 0.460123 0 0 0.0797547 -0.132485 0.460123 0 0 0 1 0" />
    </filter>
    <filter
       id="filter6150"
       inkscape:label="Lightness-Contrast"
       style="color-interpolation-filters:sRGB">
      <feColorMatrix
         id="feColorMatrix6148"
         values="0.0797547 0 0 -0.132485 0.460123 0 0.0797547 0 -0.132485 0.460123 0 0 0.0797547 -0.132485 0.460123 0 0 0 1 0" />
    </filter>
    <filter
       id="filter6154"
       inkscape:label="Lightness-Contrast"
       style="color-interpolation-filters:sRGB">
      <feColorMatrix
         id="feColorMatrix6152"
         values="0.0797547 0 0 -0.132485 0.460123 0 0.0797547 0 -0.132485 0.460123 0 0 0.0797547 -0.132485 0.460123 0 0 0 1 0" />
    </filter>
    <filter
       id="filter6158"
       inkscape:label="Lightness-Contrast"
       style="color-interpolation-filters:sRGB">
      <feColorMatrix
         id="feColorMatrix6156"
         values="0.0797547 0 0 -0.132485 0.460123 0 0.0797547 0 -0.132485 0.460123 0 0 0.0797547 -0.132485 0.460123 0 0 0 1 0" />
    </filter>
    <filter
       id="filter6162"
       inkscape:label="Lightness-Contrast"
       style="color-interpolation-filters:sRGB">
      <feColorMatrix
         id="feColorMatrix6160"
         values="0.0797547 0 0 -0.132485 0.460123 0 0.0797547 0 -0.132485 0.460123 0 0 0.0797547 -0.132485 0.460123 0 0 0 1 0" />
    </filter>
    <filter
       id="filter6166"
       inkscape:label="Lightness-Contrast"
       style="color-interpolation-filters:sRGB">
      <feColorMatrix
         id="feColorMatrix6164"
         values="0.0797547 0 0 -0.132485 0.460123 0 0.0797547 0 -0.132485 0.460123 0 0 0.0797547 -0.132485 0.460123 0 0 0 1 0" />
    </filter>
    <filter
       id="filter6170"
       inkscape:label="Lightness-Contrast"
       style="color-interpolation-filters:sRGB">
      <feColorMatrix
         id="feColorMatrix6168"
         values="0.0797547 0 0 -0.132485 0.460123 0 0.0797547 0 -0.132485 0.460123 0 0 0.0797547 -0.132485 0.460123 0 0 0 1 0" />
    </filter>
    <filter
       id="filter6174"
       inkscape:label="Lightness-Contrast"
       style="color-interpolation-filters:sRGB">
      <feColorMatrix
         id="feColorMatrix6172"
         values="0.0797547 0 0 -0.132485 0.460123 0 0.0797547 0 -0.132485 0.460123 0 0 0.0797547 -0.132485 0.460123 0 0 0 1 0" />
    </filter>
    <filter
       id="filter6178"
       inkscape:label="Lightness-Contrast"
       style="color-interpolation-filters:sRGB">
      <feColorMatrix
         id="feColorMatrix6176"
         values="0.0797547 0 0 -0.132485 0.460123 0 0.0797547 0 -0.132485 0.460123 0 0 0.0797547 -0.132485 0.460123 0 0 0 1 0" />
    </filter>
    <filter
       id="filter6182"
       inkscape:label="Lightness-Contrast"
       style="color-interpolation-filters:sRGB">
      <feColorMatrix
         id="feColorMatrix6180"
         values="0.0797547 0 0 -0.132485 0.460123 0 0.0797547 0 -0.132485 0.460123 0 0 0.0797547 -0.132485 0.460123 0 0 0 1 0" />
    </filter>
    <filter
       id="filter6186"
       inkscape:label="Lightness-Contrast"
       style="color-interpolation-filters:sRGB">
      <feColorMatrix
         id="feColorMatrix6184"
         values="0.0797547 0 0 -0.132485 0.460123 0 0.0797547 0 -0.132485 0.460123 0 0 0.0797547 -0.132485 0.460123 0 0 0 1 0" />
    </filter>
    <filter
       id="filter6190"
       inkscape:label="Lightness-Contrast"
       style="color-interpolation-filters:sRGB">
      <feColorMatrix
         id="feColorMatrix6188"
         values="0.0797547 0 0 -0.132485 0.460123 0 0.0797547 0 -0.132485 0.460123 0 0 0.0797547 -0.132485 0.460123 0 0 0 1 0" />
    </filter>
    <filter
       id="filter6194"
       inkscape:label="Lightness-Contrast"
       style="color-interpolation-filters:sRGB">
      <feColorMatrix
         id="feColorMatrix6192"
         values="0.0797547 0 0 -0.132485 0.460123 0 0.0797547 0 -0.132485 0.460123 0 0 0.0797547 -0.132485 0.460123 0 0 0 1 0" />
    </filter>
    <filter
       id="filter6198"
       inkscape:label="Lightness-Contrast"
       style="color-interpolation-filters:sRGB">
      <feColorMatrix
         id="feColorMatrix6196"
         values="0.0797547 0 0 -0.132485 0.460123 0 0.0797547 0 -0.132485 0.460123 0 0 0.0797547 -0.132485 0.460123 0 0 0 1 0" />
    </filter>
    <filter
       id="filter6202"
       inkscape:label="Lightness-Contrast"
       style="color-interpolation-filters:sRGB">
      <feColorMatrix
         id="feColorMatrix6200"
         values="0.0797547 0 0 -0.132485 0.460123 0 0.0797547 0 -0.132485 0.460123 0 0 0.0797547 -0.132485 0.460123 0 0 0 1 0" />
    </filter>
    <filter
       id="filter6206"
       inkscape:label="Lightness-Contrast"
       style="color-interpolation-filters:sRGB">
      <feColorMatrix
         id="feColorMatrix6204"
         values="0.0797547 0 0 -0.132485 0.460123 0 0.0797547 0 -0.132485 0.460123 0 0 0.0797547 -0.132485 0.460123 0 0 0 1 0" />
    </filter>
    <filter
       id="filter6210"
       inkscape:label="Lightness-Contrast"
       style="color-interpolation-filters:sRGB">
      <feColorMatrix
         id="feColorMatrix6208"
         values="0.0797547 0 0 -0.132485 0.460123 0 0.0797547 0 -0.132485 0.460123 0 0 0.0797547 -0.132485 0.460123 0 0 0 1 0" />
    </filter>
    <filter
       id="filter6214"
       inkscape:label="Lightness-Contrast"
       style="color-interpolation-filters:sRGB">
      <feColorMatrix
         id="feColorMatrix6212"
         values="0.0797547 0 0 -0.132485 0.460123 0 0.0797547 0 -0.132485 0.460123 0 0 0.0797547 -0.132485 0.460123 0 0 0 1 0" />
    </filter>
    <filter
       id="filter6218"
       inkscape:label="Lightness-Contrast"
       style="color-interpolation-filters:sRGB">
      <feColorMatrix
         id="feColorMatrix6216"
         values="0.0797547 0 0 -0.132485 0.460123 0 0.0797547 0 -0.132485 0.460123 0 0 0.0797547 -0.132485 0.460123 0 0 0 1 0" />
    </filter>
    <filter
       id="filter6222"
       inkscape:label="Lightness-Contrast"
       style="color-interpolation-filters:sRGB">
      <feColorMatrix
         id="feColorMatrix6220"
         values="0.0797547 0 0 -0.132485 0.460123 0 0.0797547 0 -0.132485 0.460123 0 0 0.0797547 -0.132485 0.460123 0 0 0 1 0" />
    </filter>
    <filter
       id="filter6226"
       inkscape:label="Lightness-Contrast"
       style="color-interpolation-filters:sRGB">
      <feColorMatrix
         id="feColorMatrix6224"
         values="0.0797547 0 0 -0.132485 0.460123 0 0.0797547 0 -0.132485 0.460123 0 0 0.0797547 -0.132485 0.460123 0 0 0 1 0" />
    </filter>
    <filter
       id="filter6230"
       inkscape:label="Lightness-Contrast"
       style="color-interpolation-filters:sRGB">
      <feColorMatrix
         id="feColorMatrix6228"
         values="0.0797547 0 0 -0.132485 0.460123 0 0.0797547 0 -0.132485 0.460123 0 0 0.0797547 -0.132485 0.460123 0 0 0 1 0" />
    </filter>
    <filter
       id="filter6234"
       inkscape:label="Lightness-Contrast"
       style="color-interpolation-filters:sRGB">
      <feColorMatrix
         id="feColorMatrix6232"
         values="0.0797547 0 0 -0.132485 0.460123 0 0.0797547 0 -0.132485 0.460123 0 0 0.0797547 -0.132485 0.460123 0 0 0 1 0" />
    </filter>
    <filter
       id="filter6238"
       inkscape:label="Lightness-Contrast"
       style="color-interpolation-filters:sRGB">
      <feColorMatrix
         id="feColorMatrix6236"
         values="0.0797547 0 0 -0.132485 0.460123 0 0.0797547 0 -0.132485 0.460123 0 0 0.0797547 -0.132485 0.460123 0 0 0 1 0" />
    </filter>
    <filter
       id="filter6242"
       inkscape:label="Lightness-Contrast"
       style="color-interpolation-filters:sRGB">
      <feColorMatrix
         id="feColorMatrix6240"
         values="0.0797547 0 0 -0.132485 0.460123 0 0.0797547 0 -0.132485 0.460123 0 0 0.0797547 -0.132485 0.460123 0 0 0 1 0" />
    </filter>
    <filter
       id="filter6246"
       inkscape:label="Lightness-Contrast"
       style="color-interpolation-filters:sRGB">
      <feColorMatrix
         id="feColorMatrix6244"
         values="0.0797547 0 0 -0.132485 0.460123 0 0.0797547 0 -0.132485 0.460123 0 0 0.0797547 -0.132485 0.460123 0 0 0 1 0" />
    </filter>
    <filter
       id="filter6250"
       inkscape:label="Lightness-Contrast"
       style="color-interpolation-filters:sRGB">
      <feColorMatrix
         id="feColorMatrix6248"
         values="0.0797547 0 0 -0.132485 0.460123 0 0.0797547 0 -0.132485 0.460123 0 0 0.0797547 -0.132485 0.460123 0 0 0 1 0" />
    </filter>
    <filter
       id="filter6254"
       inkscape:label="Lightness-Contrast"
       style="color-interpolation-filters:sRGB">
      <feColorMatrix
         id="feColorMatrix6252"
         values="0.0797547 0 0 -0.132485 0.460123 0 0.0797547 0 -0.132485 0.460123 0 0 0.0797547 -0.132485 0.460123 0 0 0 1 0" />
    </filter>
    <filter
       id="filter6258"
       inkscape:label="Lightness-Contrast"
       style="color-interpolation-filters:sRGB">
      <feColorMatrix
         id="feColorMatrix6256"
         values="0.0797547 0 0 -0.132485 0.460123 0 0.0797547 0 -0.132485 0.460123 0 0 0.0797547 -0.132485 0.460123 0 0 0 1 0" />
    </filter>
    <filter
       id="filter6262"
       inkscape:label="Lightness-Contrast"
       style="color-interpolation-filters:sRGB">
      <feColorMatrix
         id="feColorMatrix6260"
         values="0.0797547 0 0 -0.132485 0.460123 0 0.0797547 0 -0.132485 0.460123 0 0 0.0797547 -0.132485 0.460123 0 0 0 1 0" />
    </filter>
  </defs>
  <sodipodi:namedview
     fit-margin-bottom="0"
     fit-margin-right="0"
     fit-margin-left="0"
     fit-margin-top="0"
     inkscape:object-paths="false"
     inkscape:snap-others="true"
     inkscape:object-nodes="true"
     inkscape:snap-center="false"
     id="base"
     pagecolor="#ffffff"
     bordercolor="#666666"
     borderopacity="1.0"
     inkscape:pageopacity="0.0"
     inkscape:pageshadow="2"
     inkscape:zoom="2"
     inkscape:cx="486.42962"
     inkscape:cy="260.47971"
     inkscape:document-units="mm"
     inkscape:current-layer="layer1"
     inkscape:document-rotation="0"
     showgrid="false"
     inkscape:snap-midpoints="false"
     inkscape:snap-object-midpoints="false"
     inkscape:snap-intersection-paths="false"
     inkscape:window-width="1848"
     inkscape:window-height="1057"
     inkscape:window-x="-8"
     inkscape:window-y="-8"
     inkscape:window-maximized="1"
     inkscape:snap-global="true" />
  <metadata
     id="metadata5">
    <rdf:RDF>
      <cc:Work
         rdf:about="">
        <dc:format>image/svg+xml</dc:format>
        <dc:type
           rdf:resource="http://purl.org/dc/dcmitype/StillImage" />
        <dc:title />
      </cc:Work>
    </rdf:RDF>
  </metadata>
  <g
     transform="translate(-23.171096,-95.67311)"
     inkscape:label="Layer 1"
     inkscape:groupmode="layer"
     id="layer1">
    <path
       transform="matrix(0.26458333,0,0,0.26458333,23.171096,95.67311)"
       d="M 164.25391,-94.837891 C 95.099979,-94.788995 34.610318,-57.745574 1.484375,-2.4316406 1.0377255,-1.6322287 0.59258503,-0.83129826 0.13476562,-0.0390625 68.34807,0.00500957 128.13555,36.022412 161.57812,90.064453 147.11463,63.26673 138.90039,32.59799 138.90039,0.00976563 c 0,-34.54768963 9.23052,-66.93879563 25.35352,-94.84765663 z m 0.27734,0 c 16.11578,27.892437 25.34485,60.262598 25.35547,94.78906288 1e-5,0.01988409 0,0.03870964 0,0.05859375 0,0.02237101 1e-5,0.044039 0,0.06640624 C 189.87546,32.624925 181.66915,63.257361 167.22656,90.029297 200.6715,36.004515 260.44739,-7.3391038e-4 328.64648,-0.046875 328.23202,-0.76419674 327.83109,-1.4896826 327.42578,-2.2128906 294.32896,-57.646532 233.77428,-94.787521 164.53125,-94.837891 Z m 328.5,0 c -69.19584,0.05033 -129.71451,37.140968 -162.82617,92.5117191 -0.42589,0.7612117 -0.84914,1.52459792 -1.28516,2.2792969 68.20184,0.05024998 127.98273,36.061847 161.42578,90.09375 C 475.88691,63.25317 467.67578,32.591123 467.67578,0.00976563 c 0,-34.54769463 9.2314,-66.93879263 25.35547,-94.84765663 z m 0.27539,0 c 16.11497,27.893002 25.34485,60.263522 25.35547,94.78906288 V 0.00976563 0.06835937 C 518.6521,32.619125 510.445,63.252853 496.00195,90.025391 529.4513,36.004938 589.23064,0.0049945 657.42773,-0.0390625 c -0.44849,-0.77623506 -0.88449,-1.5606253 -1.32226,-2.34375 C 622.98548,-57.724032 562.48138,-94.789661 493.30664,-94.837891 Z M 654.7832,4.796875 c -32.74193,52.960279 -90.77822,88.626963 -157.2539,90.126953 66.44782,1.499351 124.45979,37.134812 157.20703,90.058592 -14.46168,-26.79643 -22.67384,-57.46281 -22.67383,-90.048826 0,-32.621538 8.22962,-63.318546 22.7207,-90.136719 z M 331.58984,4.8574219 C 346.04853,31.641001 354.26539,62.28974 354.27539,94.859375 v 0.06055 0.06641 c -0.0113,32.557352 -8.22217,63.195692 -22.67187,89.972652 32.75227,-52.9104 90.75907,-88.538323 157.19726,-90.037105 C 422.35018,93.422825 364.33661,57.784341 331.58984,4.8574219 Z M 325.94531,4.90625 C 293.30221,57.634167 235.57836,93.201016 169.42188,94.919922 235.60496,96.641559 293.34801,132.23539 325.98242,185 311.50919,158.19511 303.2871,127.51873 303.28711,94.919922 c 0,-32.571685 8.2074,-63.225621 22.6582,-90.013672 z M 2.9199219,5.0292969 C 17.317677,31.770437 25.49782,62.356363 25.507812,94.853516 c 4e-6,0.01988 0,0.03867 0,0.05859 0,0.01988 4e-6,0.03871 0,0.05859 -0.01,32.502667 -8.193395,63.092537 -22.5957026,89.837887 C 35.570606,132.14787 93.259721,96.635842 159.36523,94.917969 93.262373,93.198108 35.57747,57.68824 2.9199219,5.0292969 Z M 167.20508,99.775391 c 14.45701,26.783099 22.67164,57.431179 22.68164,89.999999 1e-5,0.0199 0,0.0406 0,0.0606 0,0.0224 1e-5,0.044 0,0.0664 -0.0112,32.52283 -8.20483,63.12997 -22.625,89.88672 32.7078,-52.79199 90.5652,-88.36198 156.84961,-89.96094 -66.32259,-1.59985 -124.20861,-37.21049 -156.90625,-90.052729 z m 328.78125,0.0078 c 14.45284,26.779457 22.66578,57.423737 22.67578,89.986327 v 0.0586 0.0586 c -0.01,32.56322 -8.22243,63.20943 -22.67578,89.99023 32.80227,-52.99468 90.94099,-88.6481 157.51172,-90.04297 C 586.92614,188.43654 528.7862,152.78157 495.98633,99.783203 Z m -334.4336,0.03906 C 128.79912,152.7212 70.799381,188.33769 4.3710938,189.83789 70.822755,191.336 128.84038,226.97675 161.58984,279.9043 c -14.47072,-26.80381 -22.68945,-57.47923 -22.68945,-90.07618 0,-32.56859 8.20507,-63.2196 22.65234,-90.005854 z m 328.76758,0.01172 c -32.70633,52.810976 -90.57793,88.395166 -156.87695,89.994136 66.26336,1.59816 124.10648,37.14612 156.82226,89.91016 -14.41369,-26.76277 -22.59765,-57.37552 -22.59765,-89.90234 0,-32.56734 8.20513,-63.21645 22.65234,-90.001956 z m -158.75,94.812496 c 14.46672,26.79094 22.68727,57.45071 22.69727,90.03125 v 0.0586 0.0605 c -0.01,32.60116 -8.24081,63.27806 -22.72461,90.08007 32.73101,-52.9477 90.74233,-88.61157 157.19726,-90.1289 -66.43708,-1.52223 -124.4362,-37.17318 -157.16992,-90.10157 z m -5.61914,0.0664 c -32.70291,52.83015 -90.58255,88.43182 -156.89453,90.03125 66.26433,1.59817 124.10867,37.1468 156.82422,89.91211 -14.41456,-26.7624 -22.59961,-57.37644 -22.59961,-89.9043 0,-32.58141 8.21106,-63.24434 22.66992,-90.03906 z m 328.73242,0.0723 c -32.74919,52.85544 -90.70766,88.44619 -157.09179,89.96289 66.43592,1.52322 124.43471,37.1737 157.16797,90.10156 -14.48005,-26.81038 -22.70507,-57.49727 -22.70508,-90.10547 10e-6,-32.54997 8.19704,-63.18364 22.6289,-89.95898 z m -651.7558556,0.0762 c 14.3930356,26.73779 22.5700786,57.31715 22.5800776,89.80859 4e-6,0.0199 0,0.0407 0,0.0606 0,0.0224 8e-6,0.044 0,0.0664 -0.01126,32.54644 -8.216539,63.17471 -22.6562495,89.94531 C 35.554986,321.93059 93.42378,286.34411 159.72266,284.74414 93.47448,283.14525 35.644606,247.60832 2.9277344,194.86133 Z M 167.20898,289.60352 c 14.4578,26.78269 22.67425,57.4309 22.68555,89.99804 1e-5,0.0223 0,0.044 0,0.0664 0,0.0199 1e-5,0.0387 0,0.0586 -0.0106,34.51732 -9.23393,66.88016 -25.3418,94.76758 69.26002,-0.0581 129.82497,-37.22508 162.91016,-92.6875 0.39247,-0.69952 0.78061,-1.4017 1.18164,-2.0957 -68.20934,-0.0468 -127.99405,-36.06641 -161.43555,-90.10742 z m 323.13282,0.0137 c -33.44441,54.0318 -93.22485,90.04485 -161.42578,90.09375 0.48979,0.84767 0.9644,1.70466 1.4414,2.56054 33.14721,55.2195 93.58406,92.18603 162.66602,92.23633 -16.12408,-27.90886 -25.35547,-60.29996 -25.35547,-94.84765 0,-32.58446 8.21245,-63.24745 22.67383,-90.04297 z m -328.81836,0.082 c -33.44922,53.98695 -93.19885,89.96461 -161.36328375,90.01758 0.51792512,0.89665 1.02177975,1.80315 1.52539065,2.70898 33.1695731,55.12732 93.5549701,92.01956 162.5683631,92.06836 -16.12348,-27.90917 -25.35352,-60.29942 -25.35352,-94.84766 0,-32.54526 8.19508,-63.17467 22.62305,-89.94726 z m 334.53515,0.0391 c 14.40727,26.7472 22.59352,57.34018 22.60352,89.84766 v 0.0605 0.0664 c -0.0119,34.52848 -9.2445,66.90077 -25.36328,94.79492 69.20916,-0.0482 129.7404,-37.15015 162.84961,-92.53711 0.42139,-0.75284 0.84018,-1.50743 1.27148,-2.2539 -68.15564,-0.0468 -127.90251,-36.00842 -161.36133,-89.97852 z"
       style="color:#000000;font-style:normal;font-variant:normal;font-weight:normal;font-stretch:normal;font-size:medium;line-height:normal;font-family:sans-serif;font-variant-ligatures:normal;font-variant-position:normal;font-variant-caps:normal;font-variant-numeric:normal;font-variant-alternates:normal;font-variant-east-asian:normal;font-feature-settings:normal;font-variation-settings:normal;text-indent:0;text-align:start;text-decoration:none;text-decoration-line:none;text-decoration-style:solid;text-decoration-color:#000000;letter-spacing:normal;word-spacing:normal;text-transform:none;writing-mode:lr-tb;direction:ltr;text-orientation:mixed;dominant-baseline:auto;baseline-shift:baseline;text-anchor:start;white-space:normal;shape-padding:0;shape-margin:0;inline-size:0;clip-rule:nonzero;display:inline;overflow:visible;visibility:visible;opacity:1;isolation:auto;mix-blend-mode:normal;color-interpolation:sRGB;color-interpolation-filters:linearRGB;solid-color:#000000;solid-opacity:1;vector-effect:none;fill:#ffffff;fill-opacity:1;fill-rule:nonzero;stroke:#babdb6;stroke-width:0.37795276;stroke-linecap:square;stroke-linejoin:miter;stroke-miterlimit:4;stroke-dasharray:none;stroke-dashoffset:0;stroke-opacity:1;color-rendering:auto;image-rendering:auto;shape-rendering:auto;text-rendering:auto;enable-background:accumulate;stop-color:#000000;stop-opacity:1"
       id="path10466"
       inkscape:connector-curvature="0" />
    <path
       d="m 164.39062,-94.833984 c -16.13389,27.90366 -25.37109,60.293439 -25.37109,94.84374963 0,33.58842737 8.73742,65.13190437 24.04688,92.50000037 0.44476,0.743551 0.88939,1.488183 1.32421,2.238281 0.42618,-0.735255 0.86116,-1.464394 1.29688,-2.193359 15.31534,-27.360694 24.0626,-58.896203 24.07422,-92.47851613 V 0.00976563 c 0,-0.01988789 1e-5,-0.03870589 0,-0.05859375 C 189.7511,-34.576385 180.51491,-66.946507 164.39062,-94.833984 Z m 328.77735,0.0059 c -16.13173,27.902287 -25.36719,60.29009 -25.36719,94.83789063 0,33.63651137 8.76304,65.22190437 24.11328,92.61718737 0.42054,0.704217 0.84032,1.40906 1.25196,2.119141 0.42978,-0.741314 0.86911,-1.476018 1.30859,-2.210938 15.30947,-27.358038 24.0522,-58.889961 24.0625,-92.46679663 V 0.00976563 -0.04882812 C 518.52649,-34.574199 509.29036,-66.941845 493.16797,-94.828125 Z M 328.64453,0.0703125 C 259.52049,0.11779622 199.05242,37.127273 165.91602,92.400391 c -0.4578,0.820302 -0.91132,1.642324 -1.38086,2.455078 0.0418,1e-4 0.0832,0.0019 0.125,0.002 69.08247,-0.09352 129.50527,-37.104194 162.61718,-92.3593751 0.45295,-0.8112136 0.90275,-1.62390668 1.36719,-2.4277344 z m 0.27344,0 c 0.43705,0.75642957 0.86024,1.5221834 1.28711,2.2851563 33.11469,55.3634832 93.63258,92.4498372 162.82422,92.4980472 -0.40957,-0.70891 -0.80641,-1.425967 -1.20703,-2.140625 C 458.72758,37.270228 398.16777,0.12067596 328.91797,0.0703125 Z M 0.16015625,0.078125 C 0.64910523,0.92459414 1.1234143,1.7801113 1.5996094,2.6347656 34.738573,57.82999 95.145121,94.782928 164.19531,94.855469 c 0.0189,-1.9e-5 0.0377,1.3e-5 0.0566,0 -0.44341,-0.767519 -0.87176,-1.544105 -1.30468,-2.31836 C 129.83016,37.198423 69.329608,0.13193344 0.16015625,0.078125 Z m 657.25976375,0 c -69.20249,0.0475376 -129.72798,37.14221 -162.83984,92.519531 -0.42141,0.752955 -0.84016,1.507326 -1.27149,2.253906 69.36331,-0.05183 130.00692,-37.325254 163.06446,-92.9199214 0.348,-0.6182343 0.69217,-1.23959675 1.04687,-1.8535156 z m 0.13477,0.09960938 c -0.39222,0.67660398 -0.79307,1.34824932 -1.19336,2.01953122 -15.39205,27.4230724 -24.18164,59.0505814 -24.18164,92.7363284 -1e-5,33.592656 8.74164,65.139276 24.05469,92.509766 0.44076,0.73711 0.88148,1.47521 1.3125,2.21875 0.4933,-0.85105 0.99586,-1.69645 1.50195,-2.53906 15.19671,-27.28228 23.87121,-58.69453 23.88281,-92.136722 v -0.06641 -0.06055 C 682.92132,61.315939 674.19523,29.815693 658.91406,2.4765625 658.45695,1.7128132 658.00133,0.94839399 657.55469,0.17773438 Z M 0.00585938,0.1796875 C -0.44883562,0.96408903 -0.91140348,1.7422906 -1.3769531,2.5195312 -16.652033,29.864661 -25.369141,61.37206 -25.369141,94.919922 c 3e-6,33.347478 8.613004,64.677918 23.7187504,91.910158 0.5614642,0.93121 1.11431666,1.86704 1.66015623,2.80859 C 0.54642198,188.71308 1.0888677,187.79061 1.640625,186.875 16.755833,159.64744 25.378416,128.31782 25.388672,94.970703 v -0.05859 c 0,-0.01992 4e-6,-0.03871 0,-0.05859 C 25.378411,61.509879 16.75878,30.182622 1.6464844,2.9570312 1.0918774,2.0366289 0.54520668,1.1101785 0.00585938,0.1796875 Z M 328.7832,0.18359375 C 328.35532,0.92180726 327.91797,1.652891 327.48047,2.3847656 312.15884,29.760985 303.41406,61.317136 303.41406,94.919922 c -1e-5,33.684598 8.78862,65.310918 24.17969,92.734378 0.39774,0.66723 0.79579,1.33336 1.18555,2.00586 0.42171,-0.72743 0.85215,-1.44865 1.2832,-2.16993 15.3238,-27.36736 24.07434,-58.91162 24.08594,-92.503902 v -0.06641 -0.06055 C 354.13809,61.230396 345.36934,29.655094 330.01562,2.2675781 329.60213,1.574776 329.18809,0.88206917 328.7832,0.18359375 Z M 164.08594,94.982422 C 95.086341,95.091145 34.728709,132.02629 1.6035156,187.18359 c -0.4811411,0.86365 -0.96091521,1.7287 -1.4550781,2.58399 69.2125305,-0.0517 129.7443225,-37.16244 162.8496125,-92.556642 0.41625,-0.743486 0.82798,-1.489294 1.2539,-2.226563 -0.0555,-1e-4 -0.11051,-0.0019 -0.16601,-0.002 z m 0.60547,0 c -0.0536,1e-4 -0.10656,0.0019 -0.16016,0.002 0.44627,0.772392 0.8788,1.552818 1.31445,2.332031 33.12046,55.339074 93.6236,92.402974 162.79688,92.451174 -0.42422,-0.73426 -0.83538,-1.47638 -1.25,-2.2168 C 294.31422,132.19012 233.84481,95.090039 164.69141,94.982422 Z m 328.33007,0.01172 c -69.21536,0.05106 -129.74856,37.163279 -162.85351,92.560549 -0.41378,0.73887 -0.82471,1.48015 -1.24805,2.21289 69.20421,-0.051 129.72942,-37.15252 162.83789,-92.535158 0.41859,-0.747761 0.8353,-1.496808 1.26367,-2.238281 z m 0.29102,0 c 0.41773,0.723126 0.82204,1.454486 1.23047,2.183593 33.10006,55.412406 93.6417,92.536746 162.86719,92.589846 -0.42162,-0.7299 -0.83201,-1.46714 -1.24414,-2.20313 C 623.06308,132.1639 562.52894,95.047261 493.3125,94.994141 Z m -0.14453,0.09375 c -0.43504,0.750487 -0.87729,1.496299 -1.32227,2.240234 -15.31238,27.370055 -24.05274,58.915925 -24.05273,92.507815 0,33.48041 8.6824,64.9275 23.90039,92.23437 0.49747,0.82873 0.98949,1.66117 1.47461,2.49805 0.40751,-0.70287 0.824,-1.40053 1.24023,-2.09766 15.35026,-27.38522 24.11851,-58.95905 24.12891,-92.58398 v -0.0586 -0.0586 c -0.0103,-33.61679 -8.77382,-65.18382 -24.11719,-92.564452 -0.4203,-0.703883 -0.84054,-1.407446 -1.25195,-2.117187 z m -328.77344,0.0059 c -0.46104,0.795345 -0.9321,1.585064 -1.4043,2.373047 -15.2616,27.336113 -23.9707,58.829393 -23.9707,92.361323 0,33.60063 8.74466,65.15431 24.06445,92.5293 0.43925,0.73449 0.87709,1.47006 1.30664,2.21094 0.50584,-0.8727 1.0198,-1.73968 1.53907,-2.60352 15.17055,-27.26467 23.82824,-58.65127 23.83984,-92.0625 v -0.0664 c 0,-0.0199 1e-5,-0.0406 0,-0.0606 -0.0103,-33.55063 -8.74009,-65.05719 -24.02734,-92.40039 -0.45349,-0.757728 -0.90448,-1.51672 -1.34766,-2.28125 z m 164.25,94.79492 c -69.05112,0.0474 -129.46595,36.97801 -162.625,92.1543 -0.4912,0.88252 -0.97957,1.76682 -1.48437,2.64062 69.20739,-0.0517 129.73488,-37.15923 162.84179,-92.54882 0.42007,-0.7503 0.83767,-1.50213 1.26758,-2.2461 z m 0.26953,0 c 0.3952,0.68409 0.7772,1.37696 1.16406,2.06641 33.08236,55.48728 93.66362,92.67461 162.94336,92.72851 -0.4837,-0.83722 -0.9526,-1.68406 -1.42382,-2.52929 -33.14443,-55.23534 -93.58901,-92.21673 -162.6836,-92.26563 z m 328.49024,0.0156 c -69.24073,0.0531 -129.7934,37.19431 -162.88868,92.62695 -0.40322,0.71935 -0.80255,1.44077 -1.21484,2.1543 69.06655,-0.046 129.49303,-36.99729 162.64844,-92.19532 0.48148,-0.86442 0.96055,-1.72988 1.45508,-2.58593 z m -657.232425,0.008 c 0.54155788,0.93778 1.0678538,1.88616 1.59375,2.83398 33.187613,55.05541 93.533787,91.8921 162.492185,91.93946 -0.39569,-0.68485 -0.77866,-1.37815 -1.16601,-2.06836 C 130.00892,227.14503 69.439205,189.97021 0.171875,189.91211 Z m 328.609375,0.0898 c -0.4114,0.70972 -0.83167,1.41333 -1.25195,2.11719 -15.35582,27.39899 -24.12305,58.98974 -24.12305,92.63281 0,33.48103 8.68188,64.92911 23.90039,92.23633 0.49688,0.82777 0.99005,1.65824 1.47461,2.49414 0.3924,-0.67686 0.79287,-1.34799 1.19336,-2.01953 15.37942,-27.40461 24.16343,-59.00677 24.17383,-92.66601 v -0.0605 -0.0586 c -0.0103,-33.60116 -8.76365,-65.15359 -24.09375,-92.52539 -0.42712,-0.71496 -0.8555,-1.42938 -1.27344,-2.15039 z m -328.7734375,0.004 c -0.49193983,0.84858 -0.9914562,1.69106 -1.4960937,2.53125 -15.2061398,27.29891 -23.8808628,58.73282 -23.8808598,92.19922 3e-6,33.38958 8.634116,64.75844 23.775391,92.01367 0.542529,0.90105 1.07951236,1.80608 1.60742188,2.7168 0.47326131,-0.8163 0.95443835,-1.62701 1.43945312,-2.43555 15.230493,-27.30496 23.923957,-58.75225 23.935547,-92.23437 v -0.0664 c 0,-0.0199 4e-6,-0.0407 0,-0.0606 -0.01025,-33.33085 -8.623108,-64.64499 -23.7246095,-91.86328 -0.559793,-0.92865 -1.11199342,-1.86186 -1.65625,-2.80078 z m 657.5449175,0.004 c -0.48781,0.84151 -0.98407,1.67649 -1.48437,2.50976 -15.21456,27.30457 -23.89452,58.74826 -23.89453,92.22461 1e-5,33.64776 8.76912,65.2429 24.1289,92.64453 0.41831,0.70065 0.8366,1.40097 1.2461,2.10742 0.42688,-0.73653 0.86237,-1.46704 1.29883,-2.19726 15.31716,-27.36317 24.06587,-58.90237 24.07617,-92.48828 v -0.0586 -0.0664 c -0.0116,-33.58699 -8.76078,-65.1269 -24.08008,-92.49024 -0.43401,-0.72622 -0.86647,-1.45308 -1.29102,-2.18554 z M 164.25195,284.80273 C 95.14361,284.85229 34.688428,321.84955 1.5488281,377.10352 1.083516,377.93755 0.62004081,378.77338 0.14257812,379.59961 69.211197,379.55216 129.63739,342.5984 162.79102,287.39648 c 0.48303,-0.86728 0.96477,-1.73489 1.46093,-2.59375 z m 0.27735,0 c 0.43387,0.75081 0.85349,1.51033 1.27734,2.26758 33.10964,55.37013 93.62704,92.45987 162.82031,92.51367 -0.47986,-0.83071 -0.94453,-1.67116 -1.41211,-2.50976 C 294.07132,321.83685 233.625,284.85233 164.5293,284.80273 Z m 328.49218,0.0156 c -69.29099,0.049 -129.88203,37.24219 -162.96484,92.73828 -0.38002,0.67682 -0.75648,1.35569 -1.14453,2.02734 69.26664,-0.0483 129.83861,-37.21244 162.92969,-92.67578 0.39141,-0.69772 0.77975,-1.3976 1.17968,-2.08984 z m 0.29688,0.002 c 0.47509,0.82252 0.93539,1.65413 1.39844,2.48438 33.1401,55.24618 93.59018,92.23551 162.6914,92.28711 -0.38761,-0.67095 -0.76297,-1.34929 -1.14258,-2.02539 -33.0777,-55.49569 -93.66178,-92.6887 -162.94726,-92.7461 z m -328.92188,0.0977 c -0.49411,0.85247 -0.99697,1.69896 -1.5039,2.54297 -15.20088,27.29537 -23.87305,58.72539 -23.87305,92.18554 0,34.55188 9.23779,66.94402 25.37305,94.84961 h 0.0156 c 16.11859,-27.88386 25.35073,-60.24856 25.36133,-94.76953 v -0.0586 c 0,-0.0223 1e-5,-0.0441 0,-0.0664 -0.0116,-33.63602 -8.78753,-65.21832 -24.14844,-92.60937 -0.41143,-0.68944 -0.8217,-1.37917 -1.22461,-2.07422 z m 328.76563,0 c -0.41356,0.71338 -0.83527,1.42145 -1.25781,2.12891 -15.3492,27.39457 -24.11133,58.97799 -24.11133,92.61328 0,34.54812 9.23714,66.93738 25.36914,94.83984 16.12589,-27.88831 25.363,-60.25915 25.375,-94.78711 v -0.0664 -0.0605 c -0.0103,-33.44666 -8.6855,-64.86226 -23.88477,-92.14649 -0.50233,-0.83655 -1.00049,-1.67661 -1.49023,-2.52148 z"
       style="color:#000000;font-style:normal;font-variant:normal;font-weight:normal;font-stretch:normal;font-size:medium;line-height:normal;font-family:sans-serif;font-variant-ligatures:normal;font-variant-position:normal;font-variant-caps:normal;font-variant-numeric:normal;font-variant-alternates:normal;font-variant-east-asian:normal;font-feature-settings:normal;font-variation-settings:normal;text-indent:0;text-align:start;text-decoration:none;text-decoration-line:none;text-decoration-style:solid;text-decoration-color:#000000;letter-spacing:normal;word-spacing:normal;text-transform:none;writing-mode:lr-tb;direction:ltr;text-orientation:mixed;dominant-baseline:auto;baseline-shift:baseline;text-anchor:start;white-space:normal;shape-padding:0;shape-margin:0;inline-size:0;clip-rule:nonzero;display:inline;overflow:visible;visibility:visible;opacity:1;isolation:auto;mix-blend-mode:normal;color-interpolation:sRGB;color-interpolation-filters:linearRGB;solid-color:#000000;solid-opacity:1;vector-effect:none;fill:#babdb6;fill-opacity:1;fill-rule:nonzero;stroke:#babdb6;stroke-width:0.37795276;stroke-linecap:square;stroke-linejoin:miter;stroke-miterlimit:4;stroke-dasharray:none;stroke-dashoffset:0;stroke-opacity:1;color-rendering:auto;image-rendering:auto;shape-rendering:auto;text-rendering:auto;enable-background:accumulate;stop-color:#000000;stop-opacity:1"
       id="path10458"
       inkscape:connector-curvature="0"
       transform="matrix(0.26458333,0,0,0.26458333,23.171096,95.67311)" />
  </g>
</svg>
