<?xml version="1.0" encoding="UTF-8" standalone="no"?>
<svg
   xmlns:dc="http://purl.org/dc/elements/1.1/"
   xmlns:cc="http://creativecommons.org/ns#"
   xmlns:rdf="http://www.w3.org/1999/02/22-rdf-syntax-ns#"
   xmlns:svg="http://www.w3.org/2000/svg"
   xmlns="http://www.w3.org/2000/svg"
   xmlns:sodipodi="http://sodipodi.sourceforge.net/DTD/sodipodi-0.dtd"
   xmlns:inkscape="http://www.inkscape.org/namespaces/inkscape"
   sodipodi:docname="7rings-black.svg"
   inkscape:version="1.0beta2 (235953b, 2020-02-06)"
   id="svg4464"
   version="1.1"
   viewBox="0 0 37.850494 21.860559"
   height="21.860559mm"
   width="37.850494mm">
  <defs
     id="defs4458" />
  <sodipodi:namedview
     inkscape:window-maximized="0"
     inkscape:window-y="0"
     inkscape:window-x="26"
     inkscape:window-height="1041"
     inkscape:window-width="1274"
     fit-margin-bottom="0"
     fit-margin-right="0"
     fit-margin-left="0"
     fit-margin-top="0"
     showgrid="false"
     inkscape:document-rotation="0"
     inkscape:current-layer="layer1"
     inkscape:document-units="mm"
     inkscape:cy="27.222348"
     inkscape:cx="71.99404"
     inkscape:zoom="5.2286856"
     inkscape:pageshadow="2"
     inkscape:pageopacity="0.0"
     borderopacity="1.0"
     bordercolor="#666666"
     pagecolor="#ffffff"
     id="base" />
  <metadata
     id="metadata4461">
    <rdf:RDF>
      <cc:Work
         rdf:about="">
        <dc:format>image/svg+xml</dc:format>
        <dc:type
           rdf:resource="http://purl.org/dc/dcmitype/StillImage" />
        <dc:title></dc:title>
      </cc:Work>
    </rdf:RDF>
  </metadata>
  <g
     transform="translate(-51.378323,-101.70662)"
     id="layer1"
     inkscape:groupmode="layer"
     inkscape:label="Layer 1">
    <path
       id="path3904"
       style="fill:#000000;stroke:none;stroke-width:0.264583px;stroke-linecap:butt;stroke-linejoin:miter;stroke-opacity:1"
       d="m 63.376189,123.56577 -2.000912,-1.15652 5.17e-4,-3.37913 2.92747,1.68982 -5.17e-4,2.30942 0.0016,-10e-4 1.99781,-1.15342 2.924886,1.6893 -5.849772,-5.1e-4 z"
       inkscape:connector-curvature="0" />
    <g
       style="fill:#000000"
       id="g4208"
       transform="matrix(0,-1,-1,0,200.35354,114.03097)">
      <path
         inkscape:connector-curvature="0"
         id="path4202"
         d="m 3.39387,113.12532 -3.99999,-8e-5 4e-5,-2.0001 3.999745,7e-5 z"
         style="fill:#000000;stroke:none;stroke-width:0.264583px;stroke-linecap:butt;stroke-linejoin:miter;stroke-opacity:1"
         sodipodi:nodetypes="ccccc" />
      <path
         inkscape:connector-curvature="0"
         d="m -0.60607961,111.12514 5.2917e-4,0.53795 0.92707512,-0.53537 -0.004651,-0.003 z"
         style="fill:#000000;stroke:none;stroke-width:0.264583px;stroke-linecap:butt;stroke-linejoin:miter;stroke-opacity:1"
         id="path4204" />
      <path
         id="path4206"
         style="fill:#000000;stroke:none;stroke-width:0.264583px;stroke-linecap:butt;stroke-linejoin:miter;stroke-opacity:1"
         d="m 3.3936646,111.12521 -5.292e-4,0.53795 -0.9270751,-0.53537 0.00465,-0.003 z"
         inkscape:connector-curvature="0" />
    </g>
    <g
       style="fill:#000000;stroke:none"
       transform="translate(29.3991,-9.636157)"
       id="g4224">
      <path
         style="fill:#000000;stroke:none;stroke-width:0.264583px;stroke-linecap:butt;stroke-linejoin:miter;stroke-opacity:1"
         d="m 27.980541,122.81105 2.92763,-1.69245 -5.03e-4,-3.37942 -2.927644,1.69003 z"
         id="path4210"
         inkscape:connector-curvature="0" />
      <path
         style="fill:#000000;stroke:none;stroke-width:0.264583px;stroke-linecap:butt;stroke-linejoin:miter;stroke-opacity:1"
         d="m 30.907671,118.80988 -2e-5,-1.0707 -0.92757,0.53521 z"
         id="path4212"
         inkscape:connector-curvature="0" />
      <path
         inkscape:connector-curvature="0"
         id="path4214"
         d="m 28.910151,122.27285 -2.92952,-1.68918 -2.9264,1.69016 2.92743,1.69039 z"
         style="fill:#000000;stroke:none;stroke-width:0.264583px;stroke-linecap:butt;stroke-linejoin:miter;stroke-opacity:1" />
      <path
         style="fill:#000000;stroke:none;stroke-width:0.264583px;stroke-linecap:butt;stroke-linejoin:miter;stroke-opacity:1"
         d="m 30.910871,126.80919 -0.002,-3.38163 -2.926915,-1.68926 -2.09e-4,3.38043 z"
         id="path4216"
         inkscape:connector-curvature="0" />
      <path
         inkscape:connector-curvature="0"
         id="path4218"
         d="m 30.908771,125.73818 -2e-5,1.0707 -0.92757,-0.53521 z"
         style="fill:#000000;stroke:none;stroke-width:0.264583px;stroke-linecap:butt;stroke-linejoin:miter;stroke-opacity:1" />
      <path
         inkscape:connector-curvature="0"
         id="path4220"
         d="m 23.982121,121.73911 -0.92724,0.53537 0.92729,0.53569 z"
         style="fill:#000000;stroke:none;stroke-width:0.264583px;stroke-linecap:butt;stroke-linejoin:miter;stroke-opacity:1" />
      <path
         style="fill:#000000;stroke:none;stroke-width:0.264583px;stroke-linecap:butt;stroke-linejoin:miter;stroke-opacity:1"
         d="m 27.982231,121.73981 0.92724,0.53537 -0.92729,0.53569 z"
         id="path4222"
         inkscape:connector-curvature="0" />
    </g>
    <path
       style="fill:#000000;stroke:none;stroke-width:0.264583px;stroke-linecap:butt;stroke-linejoin:miter;stroke-opacity:1"
       d="m 83.2275,113.17376 -2.92763,-1.69245 5.03e-4,-3.37942 2.927644,1.69003 z"
       id="path4226"
       inkscape:connector-curvature="0" />
    <path
       style="fill:#000000;stroke:none;stroke-width:0.264583px;stroke-linecap:butt;stroke-linejoin:miter;stroke-opacity:1"
       d="m 80.30037,109.17259 2e-5,-1.0707 0.92757,0.53521 z"
       id="path4228"
       inkscape:connector-curvature="0" />
    <path
       inkscape:connector-curvature="0"
       id="path4230"
       d="m 82.29789,112.63556 2.92952,-1.68918 2.9264,1.69016 -2.92743,1.69039 z"
       style="fill:#000000;stroke:none;stroke-width:0.264583px;stroke-linecap:butt;stroke-linejoin:miter;stroke-opacity:1" />
    <path
       style="fill:#000000;stroke:none;stroke-width:0.264583px;stroke-linecap:butt;stroke-linejoin:miter;stroke-opacity:1"
       d="m 80.29717,117.1719 0.002,-3.38163 2.926915,-1.68926 2.09e-4,3.38043 z"
       id="path4232"
       inkscape:connector-curvature="0" />
    <path
       inkscape:connector-curvature="0"
       id="path4234"
       d="m 80.29927,116.10089 2e-5,1.0707 0.92757,-0.53521 z"
       style="fill:#000000;stroke:none;stroke-width:0.264583px;stroke-linecap:butt;stroke-linejoin:miter;stroke-opacity:1" />
    <path
       style="fill:#000000;stroke:none;stroke-width:0.264583px;stroke-linecap:butt;stroke-linejoin:miter;stroke-opacity:1"
       d="m 83.22581,112.10252 -0.92724,0.53537 0.92729,0.53569 z"
       id="path4236"
       inkscape:connector-curvature="0" />
    <g
       style="fill:#000000"
       transform="rotate(-90,27.142856,86.889253)"
       id="g4244">
      <path
         sodipodi:nodetypes="ccccc"
         style="fill:#000000;stroke:none;stroke-width:0.264583px;stroke-linecap:butt;stroke-linejoin:miter;stroke-opacity:1"
         d="m 3.39387,113.12532 -3.99999,-8e-5 4e-5,-2.0001 3.999745,7e-5 z"
         id="path4238"
         inkscape:connector-curvature="0" />
      <path
         id="path4240"
         style="fill:#000000;stroke:none;stroke-width:0.264583px;stroke-linecap:butt;stroke-linejoin:miter;stroke-opacity:1"
         d="m -0.60607961,111.12514 5.2917e-4,0.53795 0.92707512,-0.53537 -0.004651,-0.003 z"
         inkscape:connector-curvature="0" />
      <path
         inkscape:connector-curvature="0"
         d="m 3.3936646,111.12521 -5.292e-4,0.53795 -0.9270751,-0.53537 0.00465,-0.003 z"
         style="fill:#000000;stroke:none;stroke-width:0.264583px;stroke-linecap:butt;stroke-linejoin:miter;stroke-opacity:1"
         id="path4242" />
    </g>
    <g
       style="fill:#000000"
       transform="translate(69.834141,-9.953257)"
       id="g4256">
      <path
         inkscape:connector-curvature="0"
         id="path4246"
         d="m -6.26121,116.39534 -2.00006,3.46406 -3.46424,-2.00017 1.99981,-3.46364 z"
         style="fill:#000000;stroke:none;stroke-width:0.264583px;stroke-linecap:butt;stroke-linejoin:miter;stroke-opacity:1" />
      <path
         inkscape:connector-curvature="0"
         id="path4248"
         d="m -7.52747,118.58986 -0.53533,-0.92725 1.0709,-2.9e-4 z"
         style="fill:#000000;stroke:none;stroke-width:0.264583px;stroke-linecap:butt;stroke-linejoin:miter;stroke-opacity:1" />
      <path
         style="fill:#000000;stroke:none;stroke-width:0.264583px;stroke-linecap:butt;stroke-linejoin:miter;stroke-opacity:1"
         d="m -9.52737,119.12698 -2e-5,-1.0707 -0.92757,0.53521 z"
         id="path4250"
         inkscape:connector-curvature="0" />
      <path
         style="fill:#000000;stroke:none;stroke-width:0.264583px;stroke-linecap:butt;stroke-linejoin:miter;stroke-opacity:1"
         d="m -10.45767,115.66336 0.53533,0.92725 -1.070898,2.9e-4 z"
         id="path4252"
         inkscape:connector-curvature="0" />
      <path
         inkscape:connector-curvature="0"
         id="path4254"
         d="m -7.52969,115.66178 -0.92726,0.53532 -2.91e-4,-1.0709 z"
         style="fill:#000000;stroke:none;stroke-width:0.264583px;stroke-linecap:butt;stroke-linejoin:miter;stroke-opacity:1" />
    </g>
    <path
       sodipodi:nodetypes="ccccc"
       style="fill:#000000;stroke:none;stroke-width:0.264583px;stroke-linecap:butt;stroke-linejoin:miter;stroke-opacity:1"
       d="m 72.302569,103.70722 -3.99999,-8e-5 4e-5,-2.0001 3.999745,7e-5 z"
       id="path4258"
       inkscape:connector-curvature="0" />
    <path
       id="path4260"
       style="fill:#000000;stroke:none;stroke-width:0.264583px;stroke-linecap:butt;stroke-linejoin:miter;stroke-opacity:1"
       d="m 63.379404,101.70803 -2.000912,1.15652 5.17e-4,3.37913 2.92747,-1.68982 -5.17e-4,-2.30942 0.0016,0.001 1.99781,1.15342 2.924886,-1.6893 -5.849772,5.1e-4 z"
       inkscape:connector-curvature="0" />
    <path
       style="fill:#000000;stroke:none;stroke-width:0.264583px;stroke-linecap:butt;stroke-linejoin:miter;stroke-opacity:1"
       d="m 62.304451,105.70852 -0.92726,0.53532 -2.91e-4,-1.0709 z"
       id="path4262"
       inkscape:connector-curvature="0" />
    <path
       id="path4264"
       style="fill:#000000;stroke:none;stroke-width:0.264583px;stroke-linecap:butt;stroke-linejoin:miter;stroke-opacity:1"
       d="m 68.302619,101.70704 5.3e-4,0.53795 0.927075,-0.53537 -0.0047,-0.003 z"
       inkscape:connector-curvature="0" />
    <path
       inkscape:connector-curvature="0"
       d="m 77.225579,101.7081 2.000912,1.15652 -5.17e-4,3.37913 -2.92747,-1.68982 5.17e-4,-2.30942 -0.0016,10e-4 -1.99781,1.15342 -2.924886,-1.6893 5.849772,5.1e-4 z"
       style="fill:#000000;stroke:none;stroke-width:0.264583px;stroke-linecap:butt;stroke-linejoin:miter;stroke-opacity:1"
       id="path4266" />
    <path
       inkscape:connector-curvature="0"
       id="path4268"
       d="m 78.300532,105.70859 0.92726,0.53532 2.91e-4,-1.0709 z"
       style="fill:#000000;stroke:none;stroke-width:0.264583px;stroke-linecap:butt;stroke-linejoin:miter;stroke-opacity:1" />
    <path
       inkscape:connector-curvature="0"
       d="m 72.302364,101.70711 -5.3e-4,0.53795 -0.927075,-0.53537 0.0046,-0.003 z"
       style="fill:#000000;stroke:none;stroke-width:0.264583px;stroke-linecap:butt;stroke-linejoin:miter;stroke-opacity:1"
       id="path4270" />
    <path
       style="fill:#000000;stroke:none;stroke-width:0.264583px;stroke-linecap:butt;stroke-linejoin:miter;stroke-opacity:1"
       d="m 53.380571,112.1023 -0.92724,0.53537 0.92729,0.53569 z"
       id="path4272"
       inkscape:connector-curvature="0" />
    <path
       inkscape:connector-curvature="0"
       id="path4274"
       d="m 82.494245,107.90521 -3.464133,1.99994 -2.000034,-3.46432 3.463706,-1.9997 z"
       style="fill:#000000;stroke:none;stroke-width:0.264583px;stroke-linecap:butt;stroke-linejoin:miter;stroke-opacity:1" />
    <path
       inkscape:connector-curvature="0"
       id="path4276"
       d="m 80.300372,109.17259 1.6e-5,-1.07069 0.927571,0.5352 z"
       style="fill:#000000;stroke:none;stroke-width:0.264583px;stroke-linecap:butt;stroke-linejoin:miter;stroke-opacity:1" />
    <path
       style="fill:#000000;stroke:none;stroke-width:0.264583px;stroke-linecap:butt;stroke-linejoin:miter;stroke-opacity:1"
       d="m 78.299848,108.6378 0.535332,-0.92726 -1.070904,-2.8e-4 z"
       id="path4278"
       inkscape:connector-curvature="0" />
    <path
       style="fill:#000000;stroke:none;stroke-width:0.264583px;stroke-linecap:butt;stroke-linejoin:miter;stroke-opacity:1"
       d="m 79.225994,105.17307 -1.5e-5,1.07069 -0.92757,-0.5352 z"
       id="path4280"
       inkscape:connector-curvature="0" />
    <path
       inkscape:connector-curvature="0"
       id="path4282"
       d="m 81.762489,106.63569 -1.07069,-3e-5 0.535198,-0.92757 z"
       style="fill:#000000;stroke:none;stroke-width:0.264583px;stroke-linecap:butt;stroke-linejoin:miter;stroke-opacity:1" />
    <g
       style="fill:#000000"
       transform="matrix(1,0,0,-1,68.905484,234.6919)"
       id="g4320">
      <g
         style="fill:#000000"
         transform="translate(0.925442,-0.5351618)"
         id="g4296">
        <path
           inkscape:connector-curvature="0"
           id="path4286"
           d="m -6.26121,116.39534 -2.00006,3.46406 -3.46424,-2.00017 1.99981,-3.46364 z"
           style="fill:#000000;stroke:none;stroke-width:0.264583px;stroke-linecap:butt;stroke-linejoin:miter;stroke-opacity:1" />
        <path
           inkscape:connector-curvature="0"
           id="path4288"
           d="m -7.52747,118.58986 -0.53533,-0.92725 1.0709,-2.9e-4 z"
           style="fill:#000000;stroke:none;stroke-width:0.264583px;stroke-linecap:butt;stroke-linejoin:miter;stroke-opacity:1" />
        <path
           style="fill:#000000;stroke:none;stroke-width:0.264583px;stroke-linecap:butt;stroke-linejoin:miter;stroke-opacity:1"
           d="m -9.52737,119.12698 -2e-5,-1.0707 -0.92757,0.53521 z"
           id="path4290"
           inkscape:connector-curvature="0" />
        <path
           style="fill:#000000;stroke:none;stroke-width:0.264583px;stroke-linecap:butt;stroke-linejoin:miter;stroke-opacity:1"
           d="m -10.45767,115.66336 0.53533,0.92725 -1.070898,2.9e-4 z"
           id="path4292"
           inkscape:connector-curvature="0" />
        <path
           inkscape:connector-curvature="0"
           id="path4294"
           d="m -7.52969,115.66178 -0.92726,0.53532 -2.91e-4,-1.0709 z"
           style="fill:#000000;stroke:none;stroke-width:0.264583px;stroke-linecap:butt;stroke-linejoin:miter;stroke-opacity:1" />
      </g>
      <path
         sodipodi:nodetypes="ccccc"
         style="fill:#000000;stroke:none;stroke-width:0.264583px;stroke-linecap:butt;stroke-linejoin:miter;stroke-opacity:1"
         d="m 3.39387,113.12532 -3.99999,-8e-5 4e-5,-2.0001 3.999745,7e-5 z"
         id="path4298"
         inkscape:connector-curvature="0" />
      <path
         id="path4300"
         style="fill:#000000;stroke:none;stroke-width:0.264583px;stroke-linecap:butt;stroke-linejoin:miter;stroke-opacity:1"
         d="m -5.529295,111.12613 -2.000912,1.15652 5.17e-4,3.37913 2.92747,-1.68982 -5.17e-4,-2.30942 0.0016,10e-4 1.99781,1.15342 2.924886,-1.6893 -5.849772,5.1e-4 z"
         inkscape:connector-curvature="0" />
      <path
         id="path4302"
         style="fill:#000000;stroke:none;stroke-width:0.264583px;stroke-linecap:butt;stroke-linejoin:miter;stroke-opacity:1"
         d="m -0.60607961,111.12514 5.2917e-4,0.53795 0.92707512,-0.53537 -0.004651,-0.003 z"
         inkscape:connector-curvature="0" />
      <path
         inkscape:connector-curvature="0"
         d="m 8.31688,111.1262 2.000912,1.15652 -5.17e-4,3.37913 -2.92747,-1.68982 5.17e-4,-2.30942 -0.0016,0.001 -1.99781,1.15342 -2.924886,-1.6893 5.849772,5.1e-4 z"
         style="fill:#000000;stroke:none;stroke-width:0.264583px;stroke-linecap:butt;stroke-linejoin:miter;stroke-opacity:1"
         id="path4304" />
      <path
         inkscape:connector-curvature="0"
         d="m 3.3936646,111.12521 -5.292e-4,0.53795 -0.9270751,-0.53537 0.00465,-0.003 z"
         style="fill:#000000;stroke:none;stroke-width:0.264583px;stroke-linecap:butt;stroke-linejoin:miter;stroke-opacity:1"
         id="path4306" />
      <g
         style="fill:#000000"
         id="g4318"
         transform="rotate(30,1.9305584,153.89387)">
        <path
           style="fill:#000000;stroke:none;stroke-width:0.264583px;stroke-linecap:butt;stroke-linejoin:miter;stroke-opacity:1"
           d="m -6.26121,116.39534 -2.00006,3.46406 -3.46424,-2.00017 1.99981,-3.46364 z"
           id="path4308"
           inkscape:connector-curvature="0" />
        <path
           style="fill:#000000;stroke:none;stroke-width:0.264583px;stroke-linecap:butt;stroke-linejoin:miter;stroke-opacity:1"
           d="m -7.52747,118.58986 -0.53533,-0.92725 1.0709,-2.9e-4 z"
           id="path4310"
           inkscape:connector-curvature="0" />
        <path
           inkscape:connector-curvature="0"
           id="path4312"
           d="m -9.52737,119.12698 -2e-5,-1.0707 -0.92757,0.53521 z"
           style="fill:#000000;stroke:none;stroke-width:0.264583px;stroke-linecap:butt;stroke-linejoin:miter;stroke-opacity:1" />
        <path
           inkscape:connector-curvature="0"
           id="path4314"
           d="m -10.45767,115.66336 0.53533,0.92725 -1.070898,2.9e-4 z"
           style="fill:#000000;stroke:none;stroke-width:0.264583px;stroke-linecap:butt;stroke-linejoin:miter;stroke-opacity:1" />
        <path
           style="fill:#000000;stroke:none;stroke-width:0.264583px;stroke-linecap:butt;stroke-linejoin:miter;stroke-opacity:1"
           d="m -7.52969,115.66178 -0.92726,0.53532 -2.91e-4,-1.0709 z"
           id="path4316"
           inkscape:connector-curvature="0" />
      </g>
    </g>
    <path
       inkscape:connector-curvature="0"
       id="path4322"
       d="m 87.22592,112.10182 0.92724,0.53537 -0.92729,0.53569 z"
       style="fill:#000000;stroke:none;stroke-width:0.264583px;stroke-linecap:butt;stroke-linejoin:miter;stroke-opacity:1" />
    <path
       inkscape:connector-curvature="0"
       d="m 89.2284,114.63705 -0.53795,-5.3e-4 0.53537,-0.92707 0.003,0.005 z"
       style="fill:#000000;stroke:none;stroke-width:0.264583px;stroke-linecap:butt;stroke-linejoin:miter;stroke-opacity:1"
       id="path3975" />
    <path
       id="path3977"
       style="fill:#000000;stroke:none;stroke-width:0.264583px;stroke-linecap:butt;stroke-linejoin:miter;stroke-opacity:1"
       d="m 89.22833,110.63731 -0.53795,5.2e-4 0.53537,0.92708 0.003,-0.005 z"
       inkscape:connector-curvature="0" />
    <path
       style="fill:#000000;stroke:none;stroke-width:0.264583px;stroke-linecap:butt;stroke-linejoin:miter;stroke-opacity:1"
       d="m 57.379641,113.17489 2.92763,-1.69245 -5.03e-4,-3.37942 -2.927644,1.69003 z"
       id="path3803"
       inkscape:connector-curvature="0" />
    <path
       style="fill:#000000;stroke:none;stroke-width:0.264583px;stroke-linecap:butt;stroke-linejoin:miter;stroke-opacity:1"
       d="m 60.306771,109.17372 -2e-5,-1.0707 -0.92757,0.53521 z"
       id="path3805"
       inkscape:connector-curvature="0" />
    <path
       inkscape:connector-curvature="0"
       id="path3807"
       d="m 58.309251,112.63669 -2.92952,-1.68918 -2.9264,1.69016 2.92743,1.69039 z"
       style="fill:#000000;stroke:none;stroke-width:0.264583px;stroke-linecap:butt;stroke-linejoin:miter;stroke-opacity:1" />
    <path
       style="fill:#000000;stroke:none;stroke-width:0.264583px;stroke-linecap:butt;stroke-linejoin:miter;stroke-opacity:1"
       d="m 60.309971,117.17303 -0.002,-3.38163 -2.926915,-1.68926 -2.09e-4,3.38043 z"
       id="path3809"
       inkscape:connector-curvature="0" />
    <path
       inkscape:connector-curvature="0"
       id="path3811"
       d="m 60.307871,116.10202 -2e-5,1.0707 -0.92757,-0.53521 z"
       style="fill:#000000;stroke:none;stroke-width:0.264583px;stroke-linecap:butt;stroke-linejoin:miter;stroke-opacity:1" />
    <path
       inkscape:connector-curvature="0"
       id="path3813"
       d="m 53.381221,112.10295 -0.92724,0.53537 0.92729,0.53569 z"
       style="fill:#000000;stroke:none;stroke-width:0.264583px;stroke-linecap:butt;stroke-linejoin:miter;stroke-opacity:1" />
    <path
       style="fill:#000000;stroke:none;stroke-width:0.264583px;stroke-linecap:butt;stroke-linejoin:miter;stroke-opacity:1"
       d="m 57.381331,112.10365 0.92724,0.53537 -0.92729,0.53569 z"
       id="path3815"
       inkscape:connector-curvature="0" />
    <path
       style="fill:#000000;stroke:none;stroke-width:0.264583px;stroke-linecap:butt;stroke-linejoin:miter;stroke-opacity:1"
       d="m 80.29927,116.10089 2e-5,1.0707 0.92757,-0.53521 z"
       id="path3856"
       inkscape:connector-curvature="0" />
    <path
       inkscape:connector-curvature="0"
       id="path3860"
       d="m 83.22581,112.10252 -0.92724,0.53537 0.92729,0.53569 z"
       style="fill:#000000;stroke:none;stroke-width:0.264583px;stroke-linecap:butt;stroke-linejoin:miter;stroke-opacity:1" />
    <path
       sodipodi:nodetypes="ccccc"
       style="fill:#000000;stroke:none;stroke-width:0.264583px;stroke-linecap:butt;stroke-linejoin:miter;stroke-opacity:1"
       d="m 53.378923,110.63824 -8e-5,3.99999 -2.0001,-4e-5 7e-5,-3.99975 z"
       id="path3878"
       inkscape:connector-curvature="0" />
    <path
       id="path3880"
       style="fill:#000000;stroke:none;stroke-width:0.264583px;stroke-linecap:butt;stroke-linejoin:miter;stroke-opacity:1"
       d="m 51.378743,114.63819 0.53795,-5.3e-4 -0.53537,-0.92708 -0.003,0.005 z"
       inkscape:connector-curvature="0" />
    <path
       inkscape:connector-curvature="0"
       d="m 51.378813,110.63844 0.53795,5.3e-4 -0.53537,0.92708 -0.003,-0.005 z"
       style="fill:#000000;stroke:none;stroke-width:0.264583px;stroke-linecap:butt;stroke-linejoin:miter;stroke-opacity:1"
       id="path3882" />
    <path
       inkscape:connector-curvature="0"
       id="path3774"
       d="m 63.572931,106.44208 -2.00006,3.46406 -3.46424,-2.00017 1.99981,-3.46364 z"
       style="fill:#000000;stroke:none;stroke-width:0.264583px;stroke-linecap:butt;stroke-linejoin:miter;stroke-opacity:1" />
    <path
       inkscape:connector-curvature="0"
       id="path3776"
       d="m 62.306671,108.6366 -0.53533,-0.92725 1.0709,-2.9e-4 z"
       style="fill:#000000;stroke:none;stroke-width:0.264583px;stroke-linecap:butt;stroke-linejoin:miter;stroke-opacity:1" />
    <path
       style="fill:#000000;stroke:none;stroke-width:0.264583px;stroke-linecap:butt;stroke-linejoin:miter;stroke-opacity:1"
       d="m 60.306771,109.17372 -2e-5,-1.0707 -0.92757,0.53521 z"
       id="path3778"
       inkscape:connector-curvature="0" />
    <path
       style="fill:#000000;stroke:none;stroke-width:0.264583px;stroke-linecap:butt;stroke-linejoin:miter;stroke-opacity:1"
       d="m 59.376471,105.7101 0.53533,0.92725 -1.070898,2.9e-4 z"
       id="path3780"
       inkscape:connector-curvature="0" />
    <path
       inkscape:connector-curvature="0"
       id="path3782"
       d="m 62.304451,105.70852 -0.92726,0.53532 -2.91e-4,-1.0709 z"
       style="fill:#000000;stroke:none;stroke-width:0.264583px;stroke-linecap:butt;stroke-linejoin:miter;stroke-opacity:1" />
    <path
       inkscape:connector-curvature="0"
       id="path3724"
       d="m 72.302569,103.70722 -3.99999,-8e-5 4e-5,-2.0001 3.999745,7e-5 z"
       style="fill:#000000;stroke:none;stroke-width:0.264583px;stroke-linecap:butt;stroke-linejoin:miter;stroke-opacity:1"
       sodipodi:nodetypes="ccccc" />
    <path
       inkscape:connector-curvature="0"
       d="m 63.379404,101.70803 -2.000912,1.15652 5.17e-4,3.37913 2.92747,-1.68982 -5.17e-4,-2.30942 0.0016,0.001 1.99781,1.15342 2.924886,-1.6893 -5.849772,5.1e-4 z"
       style="fill:#000000;stroke:none;stroke-width:0.264583px;stroke-linecap:butt;stroke-linejoin:miter;stroke-opacity:1"
       id="path3697" />
    <path
       inkscape:connector-curvature="0"
       id="path3701"
       d="m 62.304451,105.70852 -0.92726,0.53532 -2.91e-4,-1.0709 z"
       style="fill:#000000;stroke:none;stroke-width:0.264583px;stroke-linecap:butt;stroke-linejoin:miter;stroke-opacity:1" />
    <path
       inkscape:connector-curvature="0"
       d="m 68.302619,101.70704 5.3e-4,0.53795 0.927075,-0.53537 -0.0047,-0.003 z"
       style="fill:#000000;stroke:none;stroke-width:0.264583px;stroke-linecap:butt;stroke-linejoin:miter;stroke-opacity:1"
       id="path3720" />
    <path
       id="path3732"
       style="fill:#000000;stroke:none;stroke-width:0.264583px;stroke-linecap:butt;stroke-linejoin:miter;stroke-opacity:1"
       d="m 77.225579,101.7081 2.000912,1.15652 -5.17e-4,3.37913 -2.92747,-1.68982 5.17e-4,-2.30942 -0.0016,10e-4 -1.99781,1.15342 -2.924886,-1.6893 5.849772,5.1e-4 z"
       inkscape:connector-curvature="0" />
    <path
       style="fill:#000000;stroke:none;stroke-width:0.264583px;stroke-linecap:butt;stroke-linejoin:miter;stroke-opacity:1"
       d="m 78.300532,105.70859 0.92726,0.53532 2.91e-4,-1.0709 z"
       id="path3734"
       inkscape:connector-curvature="0" />
    <path
       id="path3736"
       style="fill:#000000;stroke:none;stroke-width:0.264583px;stroke-linecap:butt;stroke-linejoin:miter;stroke-opacity:1"
       d="m 72.302364,101.70711 -5.3e-4,0.53795 -0.927075,-0.53537 0.0046,-0.003 z"
       inkscape:connector-curvature="0" />
    <path
       inkscape:connector-curvature="0"
       id="path3828"
       d="m 53.380571,112.1023 -0.92724,0.53537 0.92729,0.53569 z"
       style="fill:#000000;stroke:none;stroke-width:0.264583px;stroke-linecap:butt;stroke-linejoin:miter;stroke-opacity:1" />
    <path
       style="fill:#000000;stroke:none;stroke-width:0.264583px;stroke-linecap:butt;stroke-linejoin:miter;stroke-opacity:1"
       d="m 63.569716,118.83172 -2.00006,-3.46406 -3.46424,2.00017 1.99981,3.46364 z"
       id="path3889"
       inkscape:connector-curvature="0" />
    <path
       style="fill:#000000;stroke:none;stroke-width:0.264583px;stroke-linecap:butt;stroke-linejoin:miter;stroke-opacity:1"
       d="m 62.303456,116.6372 -0.53533,0.92725 1.0709,2.9e-4 z"
       id="path3891"
       inkscape:connector-curvature="0" />
    <path
       inkscape:connector-curvature="0"
       id="path3893"
       d="m 60.303556,116.10008 -2e-5,1.0707 -0.92757,-0.53521 z"
       style="fill:#000000;stroke:none;stroke-width:0.264583px;stroke-linecap:butt;stroke-linejoin:miter;stroke-opacity:1" />
    <path
       inkscape:connector-curvature="0"
       id="path3895"
       d="m 59.373256,119.5637 0.53533,-0.92725 -1.070898,-2.9e-4 z"
       style="fill:#000000;stroke:none;stroke-width:0.264583px;stroke-linecap:butt;stroke-linejoin:miter;stroke-opacity:1" />
    <path
       style="fill:#000000;stroke:none;stroke-width:0.264583px;stroke-linecap:butt;stroke-linejoin:miter;stroke-opacity:1"
       d="m 62.301236,119.56528 -0.92726,-0.53532 -2.91e-4,1.0709 z"
       id="path3897"
       inkscape:connector-curvature="0" />
    <path
       sodipodi:nodetypes="ccccc"
       style="fill:#000000;stroke:none;stroke-width:0.264583px;stroke-linecap:butt;stroke-linejoin:miter;stroke-opacity:1"
       d="m 72.299354,121.56658 -3.99999,8e-5 4e-5,2.0001 3.999745,-7e-5 z"
       id="path3901"
       inkscape:connector-curvature="0" />
    <path
       id="path3906"
       style="fill:#000000;stroke:none;stroke-width:0.264583px;stroke-linecap:butt;stroke-linejoin:miter;stroke-opacity:1"
       d="m 68.299404,123.56676 5.3e-4,-0.53795 0.927075,0.53537 -0.0047,0.003 z"
       inkscape:connector-curvature="0" />
    <path
       inkscape:connector-curvature="0"
       d="m 77.222364,123.5657 2.000912,-1.15652 -5.17e-4,-3.37913 -2.92747,1.68982 5.17e-4,2.30942 -0.0016,-0.001 -1.99781,-1.15342 -2.924886,1.6893 5.849772,-5.1e-4 z"
       style="fill:#000000;stroke:none;stroke-width:0.264583px;stroke-linecap:butt;stroke-linejoin:miter;stroke-opacity:1"
       id="path3908" />
    <path
       inkscape:connector-curvature="0"
       d="m 72.299149,123.56669 -5.3e-4,-0.53795 -0.927075,0.53537 0.0046,0.003 z"
       style="fill:#000000;stroke:none;stroke-width:0.264583px;stroke-linecap:butt;stroke-linejoin:miter;stroke-opacity:1"
       id="path3910" />
    <path
       inkscape:connector-curvature="0"
       id="path3912"
       d="m 82.491023,117.36859 -3.464133,-1.99993 -2.000034,3.46432 3.463706,1.99969 z"
       style="fill:#000000;stroke:none;stroke-width:0.264583px;stroke-linecap:butt;stroke-linejoin:miter;stroke-opacity:1" />
    <path
       inkscape:connector-curvature="0"
       id="path3914"
       d="m 80.29715,116.10121 1.5e-5,1.07069 0.927572,-0.5352 z"
       style="fill:#000000;stroke:none;stroke-width:0.264583px;stroke-linecap:butt;stroke-linejoin:miter;stroke-opacity:1" />
    <path
       style="fill:#000000;stroke:none;stroke-width:0.264583px;stroke-linecap:butt;stroke-linejoin:miter;stroke-opacity:1"
       d="m 78.296626,116.636 0.535332,0.92727 -1.070904,2.8e-4 z"
       id="path3916"
       inkscape:connector-curvature="0" />
    <path
       style="fill:#000000;stroke:none;stroke-width:0.264583px;stroke-linecap:butt;stroke-linejoin:miter;stroke-opacity:1"
       d="m 79.222772,120.10074 -1.5e-5,-1.07069 -0.92757,0.5352 z"
       id="path3918"
       inkscape:connector-curvature="0" />
    <path
       inkscape:connector-curvature="0"
       id="path3920"
       d="m 81.759267,118.63812 -1.070691,2e-5 0.535198,0.92758 z"
       style="fill:#000000;stroke:none;stroke-width:0.264583px;stroke-linecap:butt;stroke-linejoin:miter;stroke-opacity:1" />
    <path
       style="fill:#000000;stroke:none;stroke-width:0.264583px;stroke-linecap:butt;stroke-linejoin:miter;stroke-opacity:1"
       d="m 87.22592,112.10182 0.92724,0.53537 -0.92729,0.53569 z"
       id="path3858"
       inkscape:connector-curvature="0" />
  </g>
</svg>
