<?xml version="1.0" encoding="UTF-8" standalone="no"?>
<svg
   xmlns:dc="http://purl.org/dc/elements/1.1/"
   xmlns:cc="http://creativecommons.org/ns#"
   xmlns:rdf="http://www.w3.org/1999/02/22-rdf-syntax-ns#"
   xmlns:svg="http://www.w3.org/2000/svg"
   xmlns="http://www.w3.org/2000/svg"
   xmlns:sodipodi="http://sodipodi.sourceforge.net/DTD/sodipodi-0.dtd"
   xmlns:inkscape="http://www.inkscape.org/namespaces/inkscape"
   sodipodi:docname="atom-A.svg"
   inkscape:version="1.0beta2 (235953b, 2020-02-06)"
   id="svg5216"
   version="1.1"
   viewBox="0 0 38.717014 38.686527"
   height="38.686527mm"
   width="38.717014mm">
  <defs
     id="defs5210" />
  <sodipodi:namedview
     fit-margin-bottom="0"
     fit-margin-right="0"
     fit-margin-left="0"
     fit-margin-top="0"
     inkscape:window-maximized="1"
     inkscape:window-y="-8"
     inkscape:window-x="-8"
     inkscape:window-height="1057"
     inkscape:window-width="1848"
     inkscape:snap-intersection-paths="false"
     showgrid="false"
     inkscape:document-rotation="0"
     inkscape:current-layer="layer1"
     inkscape:document-units="mm"
     inkscape:cy="68.029993"
     inkscape:cx="88.329072"
     inkscape:zoom="2.8"
     inkscape:pageshadow="2"
     inkscape:pageopacity="0.0"
     borderopacity="1.0"
     bordercolor="#666666"
     pagecolor="#ffffff"
     id="base" />
  <metadata
     id="metadata5213">
    <rdf:RDF>
      <cc:Work
         rdf:about="">
        <dc:format>image/svg+xml</dc:format>
        <dc:type
           rdf:resource="http://purl.org/dc/dcmitype/StillImage" />
        <dc:title></dc:title>
      </cc:Work>
    </rdf:RDF>
  </metadata>
  <g
     transform="translate(-56.709717,-98.159381)"
     id="layer1"
     inkscape:groupmode="layer"
     inkscape:label="Layer 1">
    <path
       inkscape:connector-curvature="0"
       transform="scale(0.26458333)"
       d="m 221.90625,370.99609 1.31836,2.28125 -2.29102,1.32422 0.002,2.64258 h -2.64453 l -1.32032,2.28711 -2.28906,-1.32031 -0.0332,0.0195 -0.006,1.02148 0.0391,-0.0234 1.84766,1.0664 -1.84766,3.20117 -0.0605,-0.10351 -0.01,1.99609 0.0703,-0.12109 1.02344,1.77148 h -1.10156 l -0.004,0.88672 h 1.61719 l 2.10937,3.65039 -3.63281,2.09571 -0.12305,-0.0703 -0.006,1.17188 0.12891,-0.0742 3.63281,2.09766 -2.10156,3.64062 h -1.6875 l -0.004,0.88672 h 1.17969 l -1.02344,1.77148 -0.16406,-0.2832 -0.008,1.75586 0.17187,0.29883 2.04688,-3.54297 h 4.20508 v 5.22461 l 4.52539,-2.61524 2.61328,4.52735 2.61328,-4.5293 4.52539,2.61133 v -5.2207 l 5.22656,-0.008 -2.60937,-4.52148 4.52148,-2.60938 -0.66601,-0.38476 -3.85938,-2.23242 2.10352,-3.64258 h 4.09765 l -0.38476,-0.66406 -1.66602,-2.88282 2.10156,-3.64062 4.5254,2.60937 v -5.2207 l 4.19921,-0.004 2.10352,3.64063 -4.52344,2.61133 4.5293,2.61914 -2.61133,4.52539 h 5.2207 v 5.22656 l 4.52344,-2.61523 2.61328,4.52734 0.38477,-0.66406 2.23047,-3.86524 3.63867,2.09961 v 4.10547 l 3.55469,-2.05469 3.64062,2.09961 -2.61133,4.52539 h 5.21875 v 4.20118 l -3.63867,2.10351 -2.60742,-4.51953 -2.61328,4.52344 -4.53125,-2.61914 v 5.23437 H 263.134 l -2.05079,-3.55078 -2.05273,3.55078 h -4.19922 v -5.22656 l -4.53125,2.61133 -2.61523,-4.52344 -2.61133,4.52539 -4.52539,-2.61328 v 5.22656 h -5.22656 l 2.61523,4.52539 -4.52734,2.61328 4.52734,2.61328 -2.10156,3.63868 h -4.10156 l 2.05078,3.55273 -2.09766,3.63281 -4.52344,-2.60937 -0.004,5.22656 h -4.20508 l -2.10156,-3.64062 4.52539,-2.61133 -4.52344,-2.61524 2.61133,-4.52343 h -5.22657 v -5.22657 l -0.66406,0.38477 -3.13867,1.81055 -0.006,1.02734 2.92188,-1.68555 v 3.68946 h -2.13282 l -0.79101,-1.3711 -0.01,1.75391 0.29102,0.5039 h 2.64258 v 2.64258 l 2.28906,1.32032 -1.32227,2.28906 1.32227,2.28906 -2.28906,1.32031 v 2.64258 h -2.64258 l -0.35938,0.62109 -0.008,1.78516 0.87695,-1.51953 h 2.13282 v 3.68945 l -3.01172,-1.73828 -0.006,1.02149 3.01758,1.74218 v 1.48243 1.48242 l -3.01758,1.74218 0.006,1.02149 3.01172,-1.73828 v 3.68945 h -2.13282 l -0.87695,-1.51953 0.008,1.78516 0.35938,0.62109 h 2.64258 v 2.64258 l 2.28906,1.32031 -1.32227,2.28906 1.32227,2.28907 -2.28906,1.32031 v 2.64258 h -2.64258 l -0.29102,0.5039 0.01,1.75391 0.79101,-1.3711 h 2.13282 v 3.68946 l -2.92188,-1.68555 0.006,1.02735 3.13867,1.81054 0.66406,0.38477 v -5.22657 h 5.22657 l -2.61133,-4.52343 4.52344,-2.61524 -4.52539,-2.61133 2.10156,-3.64062 h 4.20508 l 0.004,5.22656 4.52344,-2.60937 2.09766,3.63281 -2.05078,3.55273 h 4.10156 l 2.10156,3.63868 -4.52734,2.61328 4.52734,2.61328 -2.61523,4.52539 h 5.22656 v 5.22656 l 4.52539,-2.61328 2.61133,4.52539 2.61523,-4.52344 4.53125,2.61133 v -5.22656 h 4.19922 l 2.05273,3.55078 2.05079,-3.55078 h 4.19531 v 5.23437 l 4.53125,-2.61914 2.61328,4.52344 2.60742,-4.51953 3.63867,2.10352 v 4.20117 h -5.21875 l 2.61133,4.52539 -3.64062,2.09961 -3.55469,-2.05469 v 4.10547 l -3.63867,2.09961 -2.23047,-3.86524 -0.38477,-0.66406 -2.61328,4.52734 -4.52344,-2.61523 v 5.22656 h -5.2207 l 2.61133,4.52539 -4.5293,2.61914 4.52344,2.61133 -2.10352,3.64063 -4.19921,-0.004 v -5.2207 l -4.5254,2.60937 -2.10156,-3.64062 1.66602,-2.88281 0.38476,-0.66407 h -4.09765 l -2.10352,-3.64258 3.85938,-2.23242 0.66601,-0.38476 -4.52148,-2.60938 2.60937,-4.52148 -5.22656,-0.006 v -5.2207 l -4.52539,2.61132 -2.61328,-4.52929 -2.61328,4.52734 -4.52539,-2.61523 v 5.22461 h -4.20508 l -2.04688,-3.54297 -0.17187,0.29882 0.008,1.75586 0.16406,-0.2832 1.02344,1.77149 h -1.17969 l 0.004,0.88671 h 1.6875 l 2.10156,3.64063 -3.63281,2.09766 -0.12891,-0.0742 0.006,1.17187 0.12305,-0.0703 3.63281,2.0957 -2.10937,3.65039 h -1.61719 l 0.004,0.88672 h 1.10156 l -1.02344,1.77149 -0.0703,-0.1211 0.01,1.9961 0.0605,-0.10352 1.84766,3.20117 -1.84766,1.06641 -0.0391,-0.0234 0.006,1.02149 0.0332,0.0195 2.28906,-1.32032 1.32032,2.28711 h 2.64453 l -0.002,2.64258 2.29102,1.32422 -1.31836,2.28125 1.02539,-0.002 1.06055,-1.83594 3.17187,1.83203 1.81836,-0.002 3.18164,-1.83399 1.0586,1.83008 h 1.01953 l -1.3125,-2.27148 2.28906,-1.32227 v -2.64258 h 2.64258 l 1.32031,-2.28515 2.28125,1.31836 2.29492,-1.32227 1.32227,2.28906 2.64258,0.002 v 2.64843 l 2.28906,1.32032 -1.30078,2.25195 h 1.02734 l 1.04297,-1.80664 3.125,1.80273 1.90625,-0.002 1.71484,-0.99023 v 0.98828 h 0.88477 v -1.49805 l 3.64258,-2.10352 2.07422,3.59571 h 1.07812 l 2.07227,-3.58985 3.63867,2.10157 v 1.48242 h 0.88476 v -0.9707 l 1.67774,0.96875 1.96875,-0.002 3.09766,-1.78906 1.02929,1.78516 h 1.02539 l -1.28711,-2.22852 2.29102,-1.32422 v -2.63672 l 2.64258,0.002 1.32617,-2.29297 2.28516,1.31836 2.28515,-1.32032 1.32422,2.29493 h 2.64258 v 2.63476 l 2.28906,1.32227 -1.28125,2.21679 h 1.02734 l 1.02149,-1.77148 3.06055,1.76758 2.06054,-0.002 1.625,-0.93945 v 0.9375 h 0.88672 v -1.44922 l 3.64258,-2.10156 2.04687,3.54492 h 1.13086 l 2.04688,-3.54492 3.63672,2.09961 v 1.43945 l 0.88672,-0.002 v -0.92773 l 1.60547,0.92773 2.11132,-0.002 3.02539,-1.74805 1.00586,1.74414 1.02735,-0.002 -1.26368,-2.18555 2.29102,-1.32422 v -2.63476 h 2.64258 l 1.32031,-2.28711 2.28906,1.32031 2.28907,-1.32227 1.32031,2.28907 H 340.5 l -0.002,2.64257 2.28906,1.32032 -1.25195,2.16992 1.02734,-0.002 0.99414,-1.72266 2.98047,1.71875 2.20117,-0.002 2.98438,-1.72071 0.99218,1.71875 1.01758,-0.002 -1.24609,-2.1582 2.28906,-1.32032 0.002,-2.64257 h 2.64063 l 1.32031,-2.28907 1.92969,1.11524 v -1.02539 l -1.48438,-0.85742 1.48438,-2.57227 V 502.3253 L 360,501.16992 h 0.66797 v -0.88672 h -1.17774 l -2.09961,-3.63867 3.27735,-1.89062 v -1.44727 l -3.27344,-1.89062 2.10352,-3.63672 h 1.16992 v -0.88672 h -0.65625 l 0.65625,-1.13672 v -1.77148 l -1.68164,2.9082 h -4.20703 l 0.004,-4.45899 v -0.76757 l -4.52929,2.61328 -2.61719,-4.52539 -2.60938,4.52148 -3.63476,-2.09766 v -4.20117 h 5.22656 l -2.61328,-4.52734 3.64062,-2.10156 3.55664,2.05078 -0.002,-4.10156 3.63477,-2.09961 2.61133,4.52539 2.61132,-4.52539 0.60938,0.35156 v -1.02344 l -0.16602,-0.0957 0.16602,-0.28711 v -1.76953 l -0.93164,1.61328 -2.28906,-1.32031 -2.28907,1.32031 -1.32031,-2.28711 h -2.64062 l -0.002,-2.64258 -2.28711,-1.32031 1.32032,-2.28906 -1.31836,-2.28516 2.06445,-1.19141 0.2207,-0.13281 v -2.64453 h 2.64258 l 1.32227,-2.28711 2.28711,1.32031 2.28906,-1.32031 0.93164,1.61328 v -1.76758 l -0.16602,-0.28711 0.16602,-0.0957 v -1.01953 l -0.60742,0.35156 -2.07617,-3.59765 2.07617,-3.59766 0.60742,0.35156 v -1.01953 l -0.16602,-0.0957 0.16602,-0.28711 v -1.76758 l -0.93164,1.61328 -2.28906,-1.32031 -2.28711,1.32031 -1.32227,-2.28711 h -2.64258 v -2.64453 l -0.2207,-0.13281 -2.06445,-1.19141 1.31836,-2.28515 -1.32032,-2.28907 2.28711,-1.32031 0.002,-2.64258 h 2.64062 l 1.32031,-2.28711 2.28907,1.32032 2.28906,-1.32032 0.93164,1.61328 v -1.76953 l -0.16602,-0.28711 0.16602,-0.0957 v -1.02344 l -0.60938,0.35157 -2.61132,-4.52539 -2.61133,4.52539 -3.63477,-2.09961 0.002,-4.10157 -3.55664,2.05079 -3.64062,-2.10157 2.61328,-4.52734 h -5.22656 v -4.20117 l 3.63476,-2.09766 2.60938,4.52148 2.61719,-4.52539 4.52929,2.61329 v -0.76758 l -0.004,-4.45899 h 4.20703 l 1.68164,2.90821 v -1.77149 l -0.65625,-1.13672 h 0.65625 v -0.88672 h -1.16992 l -2.10352,-3.63671 3.27344,-1.89063 v -1.44727 l -3.27735,-1.89062 2.09961,-3.63867 h 1.17774 v -0.88672 H 360 l 0.66797,-1.15625 v -3.01758 l -1.48438,-2.57226 1.48438,-0.85743 v -1.02539 l -1.92969,1.11524 -1.32031,-2.28906 h -2.64063 l -0.002,-2.64258 -2.28906,-1.32032 1.24609,-2.1582 -1.01758,-0.002 -0.99218,1.71875 -2.98438,-1.7207 -2.20117,-0.002 -2.98047,1.71875 -0.99414,-1.72265 -1.02734,-0.002 1.25195,2.16992 -2.28906,1.32032 0.002,2.64258 h -2.64453 l -1.32031,2.28906 -2.28907,-1.32227 -2.28906,1.32031 -1.32031,-2.2871 h -2.64258 v -2.63477 l -2.29102,-1.32422 1.26368,-2.18555 -1.02735,-0.002 -1.00586,1.74414 -3.02539,-1.74805 -2.11132,-0.002 -1.60547,0.92774 v -0.92774 l -0.88672,-0.002 v 1.43945 l -3.63672,2.09961 -2.04688,-3.54492 h -1.13086 l -2.04687,3.54492 -3.64258,-2.10156 v -1.44922 h -0.88672 v 0.9375 l -1.625,-0.93945 -2.06054,-0.002 -3.06055,1.76758 -1.02149,-1.77148 h -1.02734 l 1.28125,2.21679 -2.28906,1.32227 v 2.63477 h -2.64258 l -1.32422,2.29492 -2.28515,-1.32032 -2.28516,1.31836 -1.32617,-2.29296 -2.64258,0.002 v -2.63672 l -2.29102,-1.32422 1.28711,-2.22851 h -1.02539 l -1.02929,1.78515 -3.09766,-1.78906 -1.96875,-0.002 -1.67774,0.96875 v -0.97071 h -0.88476 v 1.48242 l -3.63867,2.10157 -2.07227,-3.58985 h -1.07812 l -2.07422,3.59571 -3.64258,-2.10352 v -1.49609 h -0.88477 v 0.98828 l -1.71484,-0.99024 -1.90625,-0.002 -3.125,1.80273 -1.04297,-1.80664 h -1.02734 l 1.30078,2.25196 -2.28906,1.32031 v 2.64844 l -2.64258,0.002 -1.32227,2.28906 -2.29492,-1.32226 -2.28125,1.31836 -1.32031,-2.28516 h -2.64258 v -2.64258 l -2.28906,-1.32226 1.3125,-2.27149 h -1.01953 l -1.0586,1.83008 -3.18164,-1.83398 -1.81836,-0.002 -3.17187,1.83203 -1.06055,-1.83593 z m 125.73437,0.5 3.64063,2.10157 -2.10156,3.63867 h -3.07617 l -2.10157,-3.63867 z m -92.7832,0.002 2.66992,1.54101 v 4.20508 h -4.19726 l -2.10547,-3.64648 z m 65.99414,0 3.63867,2.10156 -2.09961,3.63672 h -4.19921 v -4.20313 z m -92.77539,0.002 3.64649,2.10352 -2.10352,3.64062 h -3.08203 l -2.10352,-3.64258 z m 46.38477,0 3.64258,2.10156 -2.09766,3.63867 -4.20313,0.002 v -4.20703 z m 26.79492,0 2.6582,1.53516 v 4.20117 h -4.20312 l -2.09961,-3.63477 z m 9.79883,0.36328 1.84765,3.19922 -1.84961,1.06641 -1.8457,-1.06446 z m -46.38867,0.01 1.84375,3.19726 -1.84571,1.06641 -1.84375,-1.06445 z m 6.25195,1.67187 v 3.69727 l -2.12695,0.002 -1.07032,-1.85352 z m 46.38672,0 v 3.69141 h -2.125 l -1.06836,-1.84766 z m -12.50391,0.002 3.19727,1.84374 -1.06446,1.84571 h -2.13281 z m -46.38867,0.002 3.20117,1.8457 -1.06836,1.84961 h -2.13281 z m 93.63281,0.49023 1.8457,1.06446 v 2.13281 h -3.6914 z m -128.37695,0.004 1.85156,3.20117 h -3.69726 l -0.002,-2.13476 z m 26.78711,0 1.8457,3.19336 -3.6914,0.004 v -2.13085 z m 74.80664,0 1.8457,1.06641 v 2.12695 h -3.68945 z m 17.9707,0 1.84375,3.19336 h -3.68945 l -0.002,-2.12695 z m -110.74414,0.002 1.84375,1.06446 v 2.13476 h -3.69141 z m 46.38477,0 1.84765,1.06446 v 2.1289 l -3.6914,0.002 z m 17.9707,0 1.84375,3.19141 h -3.69141 v -2.12695 z m 16.50195,1.78516 1.32422,2.29101 h 2.63477 v 2.64453 l 2.29101,1.32227 -1.3164,2.28711 1.3164,2.28711 -2.29101,1.32227 v 2.64257 h -2.63477 l -1.32422,2.29102 -2.29297,-1.32422 -2.28906,1.32031 -1.32031,-2.28711 h -2.64258 v -2.64257 l -2.28711,-1.32032 1.32031,-2.28906 -1.32226,-2.28906 2.28906,-1.32032 v -2.64453 h 2.64258 l 1.32031,-2.28711 2.28906,1.32032 z m -46.39453,0.004 1.32422,2.29493 2.64258,-0.002 v 2.63867 l 2.29297,1.32422 -1.31836,2.28516 1.32226,2.29102 -2.29687,1.32617 v 2.64258 h -2.64258 l -1.32227,2.28711 -2.28906,-1.32032 -2.28906,1.32032 -1.32031,-2.28711 h -2.64258 v -2.64258 l -2.28516,-1.32031 1.31836,-2.28907 -1.32422,-2.29492 2.29102,-1.32227 v -2.63671 h 2.64258 l 1.32422,-2.29297 2.28515,1.31836 z m 16.78906,2.28711 1.06836,1.84961 -3.20312,1.84961 v -3.69726 z m 8.23829,0 h 2.13281 v 3.69922 l -3.20117,-1.84765 z m 3.01757,0 h 4.20313 l 2.10156,3.63672 -3.64648,2.10547 -2.65821,-1.5332 z m 5.22657,0 h 3.6914 v 2.12696 l -1.84765,1.0664 z m 17.96875,0 h 3.68945 l -1.84375,3.20118 -1.8457,-1.06641 z m 4.71679,0 h 4.19922 v 5.22657 l 0.66602,-0.38282 3.86328,-2.23046 2.10156,3.63867 -2.05273,3.55859 4.10547,-0.002 2.0996,3.63672 -4.52343,2.61132 4.52343,2.61524 -2.61132,4.52344 h 5.22656 v 4.20312 l -3.64063,2.10156 -2.61132,-4.52539 -2.61133,4.52539 -4.52735,-2.61328 v 5.22461 h -5.22656 l 2.61328,4.5293 -3.63672,2.09961 -3.55273,-2.05078 v 4.10351 l -3.63672,2.09961 -2.61523,-4.52734 -2.61328,4.52734 -4.52539,-2.61523 v 5.22656 h -5.22657 l 2.61328,4.52539 -4.52539,2.61133 4.52149,2.61523 -2.09961,3.63867 h -4.20117 v -5.22656 l -4.52735,2.61524 -2.09961,-3.63477 2.05078,-3.55078 h -4.10351 l -2.10352,-3.64063 4.53125,-2.61132 -4.52929,-2.61524 2.60937,-4.52344 h -5.22656 v -4.20703 l 3.64453,-2.10351 2.61523,4.52344 2.60938,-4.51954 4.52148,2.60938 v -5.22656 h 5.22657 l -0.38282,-0.66602 -2.23046,-3.86133 3.64062,-2.09961 3.55078,2.04883 v -4.09765 l 3.64063,-2.10157 2.61132,4.52344 2.61524,-4.52148 4.52344,2.60937 v -5.22461 h 5.22656 l -2.61328,-4.52734 4.52539,-2.61133 -4.52539,-2.61133 z m 5.08594,0 h 2.13281 l 1.06446,1.84571 -3.19727,1.8457 z m 10.37109,0 H 340.5 l 0.002,3.69532 -3.20117,-1.84961 z m 3.02149,0 h 4.19922 l 1.54101,2.66993 -2.10156,3.63867 -3.63672,-2.09961 z m 5.22851,0 h 2.05469 l -1.02734,1.7793 z m 3.07422,0 h 4.20117 l 0.002,4.20313 -3.63672,2.10156 -2.10352,-3.64062 z m 5.08789,0 h 2.13086 l 1.06641,1.84571 -3.19531,1.8457 z m -74.05664,0.002 v 4.20703 l -2.66015,1.53515 -3.64258,-2.10156 2.09961,-3.63867 z m -5.22461,0.002 -1.84375,3.19727 -1.84961,-1.06641 v -2.12891 z m -27.77343,0.002 v 3.69336 l -3.19922,-1.84375 1.0664,-1.84765 z m -28.91407,0.002 h 2.12696 l 0.002,3.68945 -3.19531,-1.8418 z m 3.01368,0 h 4.20507 l 1.54102,2.66601 -2.10156,3.63672 -3.64258,-2.10156 z m 5.23242,0 h 2.05273 l -1.02539,1.77734 z m 3.07422,0 h 4.20312 v 4.19921 l -3.63867,2.10157 -2.10156,-3.63867 z m 5.08984,0 h 2.13281 l 1.06446,1.84179 -3.19727,1.84571 z m 18.61719,0 h 3.6914 v 2.12695 l -1.84765,1.06641 z m -12.37305,1.09961 1.85352,1.06836 -1.84571,3.19531 -1.84961,-3.19922 z m 46.39649,0 1.8457,1.0664 -1.84375,3.19531 -1.84766,-3.19726 z m 46.38671,0 1.84571,1.06445 -1.84375,3.19726 -1.84571,-3.19726 z m -95.39062,1.50586 2.10351,3.64257 -1.5371,2.66211 h -4.20313 v -4.20312 z m 46.39453,0 2.10156,3.63867 -2.09961,3.64257 -3.64648,-2.10351 v -3.07227 z m 73.16797,0 2.10156,3.64062 -1.53906,2.66406 h -4.19922 l -0.002,-4.20312 z m -67.94922,0.002 3.64258,2.10351 v 3.06836 l -3.63867,2.10157 -2.10157,-3.63672 z m 46.38867,0 3.64453,2.10351 0.002,4.20118 -4.20508,0.004 -1.53906,-2.66797 z m -119.55664,0.004 3.63672,2.09766 0.002,4.20117 h -4.20507 l -1.53516,-2.65625 z m 130.33789,0.93555 1.84571,3.19727 -1.84766,1.0664 -1.8418,-1.06445 z m -119.56055,0.002 1.84766,3.19532 -1.8457,1.0664 -1.84766,-1.06445 z m 27.2754,0.85157 1.07226,1.85351 -1.06445,1.84571 -3.20899,-1.85352 z m 18.62109,0 3.20117,1.84765 -3.19726,1.84766 -1.06836,-1.84961 z m 27.77344,0 1.0664,1.8457 -1.0664,1.84961 -3.20117,-1.84766 z m 18.61523,0.002 3.19336,1.84375 -3.19336,1.84375 -1.06445,-1.84375 z m 33.53125,0.81445 v 3.69336 h -2.13086 l -1.0664,-1.84765 z m -119.5625,0.002 v 3.6914 h -2.13281 l -1.06445,-1.84375 z m 46.38867,0 v 2.05273 l -1.77734,-1.02539 z m 14.27539,0 1.77539,1.02539 -1.77539,1.02539 z m -73.17187,0.002 3.20117,1.84766 -1.06445,1.84179 h -2.13477 z m 119.56445,0.002 3.19336,1.84375 -1.06445,1.84375 -2.12696,0.002 z m -63.33008,1.53516 2.66211,1.53711 v 4.21094 h -4.19726 l -2.10352,-3.64454 z m 19.60352,0 3.64453,2.10351 -2.09766,3.63672 h -4.21289 V 386.427 Z m -9.80078,0.36914 1.8457,3.19531 -1.84765,1.06836 -1.84376,-1.06445 z m 46.38867,0.008 1.03125,1.78321 -2.06055,0.002 z m -92.7793,0.002 1.02539,1.7754 h -2.04882 z m -15.67968,0.375 2.28906,1.32032 2.28711,-1.32032 1.32226,2.28711 h 2.64258 v 2.65039 l 2.28516,1.31836 -1.31836,2.28321 1.32617,2.29492 -2.29297,1.32227 v 2.64062 l -2.64258,0.002 -1.32031,2.28711 -2.28906,-1.32031 -2.28906,1.32031 -1.32032,-2.28711 h -2.64258 v -2.64257 l -2.28906,-1.32227 1.32227,-2.28711 -1.32227,-2.28711 2.28906,-1.32227 -0.002,-2.65039 h 2.64453 z m 124.13476,0 1.32031,2.28711 h 2.64844 l 0.002,2.64258 2.28321,1.31836 -1.32227,2.29102 1.32617,2.29297 -2.29297,1.32422 0.002,2.63476 h -2.64649 l -1.31836,2.28516 -2.2832,-1.31836 -2.29492,1.32422 -1.32227,-2.29102 h -2.63476 v -2.64258 l -2.29297,-1.32422 1.31836,-2.28515 -1.31836,-2.28516 2.29297,-1.32422 -0.002,-2.64062 2.64454,-0.002 1.31836,-2.28515 2.2832,1.31836 z m -68.32031,1.29493 3.20312,1.84961 -1.06836,1.85156 h -2.13476 z m 12.50586,0.002 v 3.69141 h -2.12695 l -1.06641,-1.84766 z m 25.92773,0.49219 1.8418,3.19922 h -3.68945 v -2.13477 z m -46.38281,0.002 1.84961,3.20508 h -3.70313 v -2.13281 z m 28.41406,0 1.84375,1.06445 v 2.13282 h -3.6875 z m -46.38476,0.006 1.84179,1.06445 v 2.13282 h -3.68359 z m -38.43946,0.48828 h 3.69336 l 0.002,2.14063 -1.84375,1.06445 z m 17.97266,0 h 3.69141 l -1.84766,3.19922 -1.84375,-1.06641 z m 119.5625,0 h 3.6875 l -1.8457,3.19531 -1.83985,-1.0625 z m -14.27734,0.002 0.002,2.13086 -1.84961,1.06836 -1.8457,-3.19726 z m -50.35157,1.29297 1.32422,2.29297 h 2.63477 v 2.64258 l 2.29687,1.32617 -1.32226,2.29102 1.3164,2.27929 -2.29101,1.32227 v 2.64258 h -2.63477 l -1.32422,2.29101 -2.29296,-1.32421 -2.28516,1.31835 -1.31836,-2.28515 h -2.65039 V 401.375 l -2.28711,-1.31836 1.32031,-2.29102 -1.32031,-2.2871 2.28711,-1.32227 v -2.63672 h 2.64258 l 1.32422,-2.29492 2.28711,1.32031 z m 4.84375,2.29297 h 3.70118 l -1.84766,3.20313 -1.85352,-1.07032 z m 4.71875,0 h 4.19922 v 4.20117 l -2.66406,1.53907 -3.63672,-2.09766 z m 5.08594,0 h 2.13281 l 1.06446,1.84375 -3.19727,1.8457 z m 10.37891,0 h 2.125 v 3.68945 l -3.19336,-1.84374 z m -56.76758,0.008 h 2.13281 l 1.06446,1.84571 -3.19727,1.8457 z m 10.37109,0 h 2.13477 v 3.68946 l -3.19922,-1.84571 z m 3.01953,0 h 4.21289 l 2.09766,3.63282 -3.64453,2.10547 -2.66602,-1.53907 z m 5.23047,0 h 3.6875 v 2.12696 l -1.84375,1.0664 z m 79.91602,0.81055 3.20312,1.84961 -3.19922,1.84766 -1.07031,-1.84961 z m -18.61524,0.004 1.06446,1.84375 -1.06446,1.84375 -3.19336,-1.84375 z m -100.94726,0.008 3.19922,1.8457 -3.19141,1.8418 -1.06836,-1.84961 z m -18.61719,0.004 1.06445,1.84179 -1.06445,1.8418 -3.18945,-1.8418 z m 45.89453,0.27539 1.84961,1.0664 -1.84961,3.20117 -1.84765,-3.19921 z m 46.38867,0 1.84766,1.0664 -1.84766,3.19336 -1.84375,-3.19531 z m -32.49804,3.30078 1.0664,1.8457 -1.0664,1.84961 -3.19922,-1.8457 z m 18.61719,0.002 3.1914,1.84375 -3.19726,1.8457 -1.0625,-1.83789 z m -25.36915,0.81641 1.78516,1.02929 -1.78516,1.03125 z m 32.11133,0 v 2.05273 l -1.77734,-1.02539 z m 34.74024,0.49609 1.85156,1.07031 v 2.125 h -3.69727 z m 17.97265,0.002 1.84571,3.19336 h -3.69532 l -0.002,-2.125 z m -119.56054,0.002 1.84375,3.1914 -3.69141,0.004 v -2.12891 z m -17.97071,0.002 1.84571,1.06445 v 2.13282 h -3.69336 z m 77.75,3.57813 1.84961,3.19921 h -3.69922 v -2.13281 z m -17.96679,0.004 1.84179,1.0625 v 2.13281 h -3.68359 z m 62.51367,0.49414 h 2.125 l 1.0664,1.84766 -3.1914,1.84375 z m 10.37109,0 h 2.12891 l 0.004,3.69141 -3.19921,-1.84766 z m -117.43164,0.008 v 3.68555 l -3.19531,-1.84179 1.0625,-1.8418 z m -12.50391,0.002 h 2.13282 l 1.06445,1.84375 -3.19727,1.8457 z m 6.25196,1.09961 1.84765,1.0664 -1.84765,3.19922 -1.8457,-3.19922 z m 119.56445,0 1.83789,1.06054 -1.8457,3.19727 -1.8418,-3.19141 z m -13.39062,2.44336 1.84375,3.19531 -1.84375,1.06445 -1.84375,-1.06445 z m -52.64844,0.0371 h 2.13476 l 1.06446,1.84179 -3.19922,1.84766 z m 10.37891,0 h 2.12695 v 3.68945 l -3.19336,-1.84375 z m -4.125,1.10742 1.8496,1.0664 -1.84375,3.19141 -1.8457,-3.19727 z m 40.14257,0.53125 3.19727,1.8457 -1.06445,1.84375 h -2.13282 z m 12.50391,0 v 3.68945 h -2.13281 l -1.06446,-1.84375 z m -92.82031,1.91797 1.8457,3.19531 -1.8457,1.06445 -1.8418,-1.0625 z m 26.78906,0 1.8418,3.1914 -1.84766,1.06836 -1.83984,-1.0625 z m 57.49023,0.37109 2.28907,1.32031 2.28906,-1.32031 1.32031,2.28711 h 2.64258 v 2.64258 l 2.28906,1.32031 -1.32226,2.28906 1.32226,2.28907 -2.28906,1.32031 v 2.64453 h -2.64258 l -1.32031,2.28711 -2.28906,-1.32031 -2.28711,1.32031 -1.32227,-2.28711 h -2.64258 v -2.64453 l -2.28906,-1.32031 1.32227,-2.28907 -1.32227,-2.28906 2.28906,-1.32031 v -2.6454 h 2.64258 z m -63.75,1.29883 3.20313,1.84766 -1.06836,1.8496 h -2.13477 z m 12.50586,0 v 3.69726 h -2.12695 l -1.06836,-1.85156 z m -39.28711,0.008 3.19727,1.8457 -1.06445,1.84571 h -2.13282 z m 12.51172,0 v 3.69141 h -2.13281 l -1.06641,-1.84571 z m 69.47852,0.98242 h 3.6914 v 2.13282 l -1.84375,1.06445 z m 17.96875,0 h 3.6914 l -1.84765,3.19727 -1.84375,-1.06445 z m -80.3086,0.92969 1.02735,1.7793 h -2.05664 z m 15.67579,0.36914 1.32617,2.29688 h 2.63476 v 2.63476 l 2.29492,1.32617 -1.32031,2.29102 1.32031,2.28516 -2.29492,1.32421 0.002,2.64258 h -2.63672 l -1.32032,2.28516 -2.29687,-1.32617 -2.28516,1.32226 -1.31836,-2.28125 h -2.64257 v -2.64258 l -2.28907,-1.32031 1.32227,-2.28906 -1.32617,-2.29688 2.28515,-1.32031 v -2.63476 h 2.65039 l 1.32227,-2.29102 2.28125,1.31641 z m -26.78516,0.008 1.32227,2.28907 h 2.64843 v 2.64257 l 2.28321,1.31641 -1.32227,2.28516 1.32422,2.29297 -2.29102,1.32421 0.002,2.64258 h -2.64453 l -1.32032,2.28711 -2.29101,-1.32031 -2.28711,1.32031 -1.32227,-2.28711 h -2.64062 l -0.002,-2.64258 -2.28711,-1.32031 1.32032,-2.28906 -1.32032,-2.28906 2.28711,-1.32032 v -2.64257 h 2.65039 l 1.31641,-2.28711 2.28516,1.31836 z m -13.11719,2.28907 h 3.69141 v 2.13281 l -1.84571,1.06445 z m 17.97461,0 h 3.68555 l -1.84766,3.19336 -1.83789,-1.06055 z m 4.71094,0 h 3.08008 l 2.0957,3.63281 -3.64063,2.10547 -3.63867,-2.10156 z m 4.10351,0 h 3.6836 v 2.125 l -1.8418,1.06445 z m 17.95899,0 h 3.69141 l -1.83985,3.19336 -1.85156,-1.06836 z m 43.33789,0.8125 1.06445,1.84375 -1.06445,1.84375 -3.19336,-1.84375 z m 18.62109,0 3.19532,1.8457 -3.19532,1.84375 -1.06445,-1.8457 z m -25.36718,0.81836 1.78125,1.02929 -1.78125,1.02735 z m 32.11914,0 -0.002,2.05664 -1.77929,-1.02735 z m -29.45508,1.53906 3.63672,2.10156 -2.09961,3.63867 h -4.20117 v -4.20312 z m 26.78711,0 2.66601,1.53906 -0.004,4.20117 h -4.20117 l -2.09961,-3.63867 z m -36.58789,0.37304 1.84765,3.19922 -1.84765,1.06641 -1.84571,-1.06641 z m 46.38672,0 1.84375,3.19532 -1.84375,1.06445 -1.84375,-1.06445 z m -92.28516,0.85547 1.06836,1.85352 -1.06445,1.8457 -3.20508,-1.84961 z m -8.16602,0.004 3.19727,1.8457 -3.19336,1.84571 -1.06836,-1.84961 z m 26.78321,0 3.20117,1.84961 -3.20117,1.8457 -1.06641,-1.8457 z m -45.39844,0.004 1.06641,1.8457 -1.06641,1.84766 -3.19922,-1.84766 z m 66.42578,0.8125 3.19922,1.8457 -1.06445,1.8457 h -2.13477 z m 12.50586,0 v 3.6914 h -2.12695 l -1.06836,-1.84765 z m 33.88672,0.002 3.19336,1.84375 -1.06446,1.8457 h -2.13085 z m -25.93164,0.49609 1.84765,1.06641 v 2.12695 h -3.6914 z m 17.97265,0 1.84375,3.19336 h -3.6914 v -2.12695 z m -82.16211,1.04102 3.64649,2.10547 -2.10156,3.64062 h -3.07813 l -2.10351,-3.64453 z m 47.69336,0.75 2.28907,1.32031 2.28906,-1.32031 1.32031,2.28711 h 2.64258 v 2.64258 l 2.28711,1.32031 -1.32031,2.28906 1.32226,2.28906 -2.28906,1.32032 v 2.64453 h -2.64258 l -1.32226,2.29297 -2.28711,-1.32032 -2.28516,1.32032 -1.32422,-2.29297 h -2.64453 v -2.64453 l -2.28711,-1.32032 1.32031,-2.28906 -1.32031,-2.28906 2.28711,-1.32031 v -2.64258 h 2.64453 z m -52.0996,1.79492 1.84765,3.20117 h -3.69336 l -0.002,-2.13281 z m 26.78515,0 1.84961,3.20117 h -3.69922 l -0.002,-2.13281 z m -17.96484,0.002 1.8457,1.06641 v 2.13281 h -3.69336 z m -26.78907,0.002 1.84571,1.06445 v 2.13281 h -3.69141 z m 61.52735,0.48828 h 3.69141 v 2.13281 l -1.84571,1.06445 z m 17.9668,0 h 3.68945 l -1.8457,3.19726 -1.84375,-1.06445 z m 4.71679,0 h 4.20117 v 4.20117 l -2.66992,1.54102 -3.63476,-2.09961 z m 5.08789,0 h 2.13282 l 1.0664,1.84375 -3.19922,1.8457 z m 10.3711,0 h 2.13281 v 3.68945 l -3.19727,-1.8457 z m 3.01953,0 h 4.20117 l 2.09961,3.63867 -3.63477,2.09961 -2.66601,-1.53906 z m 5.22851,0 h 3.68946 l -0.002,2.12695 -1.8457,1.06641 z m -128.38086,0.008 h 3.69141 l -1.84375,3.19336 -1.84766,-1.06836 z m 116.01368,1.09961 1.8457,1.06445 -1.84375,3.19336 -1.8457,-3.19336 z m -2.60938,1.50586 2.10156,3.63672 -2.10547,3.64648 -3.63867,-2.10156 v -3.07812 z m 5.2207,0 3.64063,2.10156 v 3.07227 l -3.63672,2.10351 -2.10352,-3.64062 z m -103.5957,0.98242 h 2.05469 l -1.02734,1.7793 z m 3.07617,0 h 4.20313 l 0.002,4.19922 -3.63867,2.10156 -2.10352,-3.63867 z m 5.08985,0 h 2.13086 l 1.0664,1.84375 -3.19531,1.84375 z m 10.37695,0 h 2.12891 v 3.68945 l -3.19532,-1.84375 z m 3.01367,0 h 4.20508 l 1.53711,2.66406 -2.09961,3.63672 -3.64063,-2.10156 z m 5.23047,0 h 2.05469 l -1.02735,1.7793 z m 3.07617,0 h 4.20508 v 4.19336 l -3.64453,2.10742 -2.09961,-3.63672 z m 5.08985,0 h 2.12695 l 1.0625,1.83789 -3.18945,1.84375 z m 10.37109,0 h 2.12891 l 0.002,3.68555 -3.19531,-1.84571 z m 3.01367,0 h 4.21094 l 1.53711,2.66016 -2.10156,3.64062 -3.64453,-2.10547 z m 5.22852,0 h 2.05664 l -1.02735,1.7793 z m 14.91406,0.8125 1.06445,1.84375 -1.06445,1.84375 -3.19531,-1.84375 z m 18.61914,0 3.19336,1.84375 -3.19336,1.84375 -1.06445,-1.84375 z m 27.76953,0 1.06445,1.84375 -1.0625,1.8418 -3.19335,-1.8418 z m -127.72656,0.008 3.19531,1.84375 -3.19531,1.84375 -1.06445,-1.84375 z m 27.27344,0.2793 1.84961,1.06641 -1.84766,3.19922 -1.84766,-3.19922 z m 26.7832,0 1.85156,1.06836 -1.84375,3.19531 -1.84961,-3.20117 z m 66.92383,0.53125 1.77734,1.02539 -1.77734,1.02735 z m -14.27735,0.002 v 2.05664 l -1.77929,-1.02929 z m -55.25781,0.97461 2.10547,3.64258 -1.53906,2.66602 h -4.20117 v -4.20899 z m -26.7832,0.002 2.10351,3.63867 -1.53906,2.66797 h -4.19922 l -0.002,-4.20508 z m 32.01172,0 3.63867,2.09961 0.002,4.20312 -4.19726,0.002 -1.54297,-2.66992 z m -26.78125,0.002 3.63867,2.09766 0.002,4.20703 h -4.20703 l -1.53711,-2.66211 z m 74.14843,0.55859 2.66211,1.53907 v 4.20117 h -4.19921 l -2.10157,-3.63867 z m 19.60547,0 3.63672,2.09766 -2.10351,3.64258 h -4.19922 v -4.20117 z m -9.80273,0.36719 1.84961,3.20117 -1.85156,1.07032 -1.84766,-1.06641 z m -46.38867,0.008 1.8457,3.19532 -1.84766,1.06836 -1.8457,-1.06641 z m -53.57031,0.008 1.84374,3.19531 -1.83789,1.0625 -1.84961,-1.06641 z m 26.7871,0 1.84375,3.19336 -1.84375,1.06445 -1.84375,-1.06445 z m 6.25391,1.66601 v 3.69922 h -2.13477 l -1.06835,-1.84961 z m -39.29492,0.002 3.19922,1.84961 -1.06641,1.84766 h -2.13281 z m 53.56641,0 3.20117,1.84766 -1.06446,1.84375 -2.13476,0.002 z m 12.50976,0 v 3.69141 h -2.13476 l -1.06641,-1.84375 z m 33.88281,0 3.19727,1.84571 -1.06445,1.8457 h -2.13282 z m 12.50391,0 v 3.69141 h -2.125 l -1.06836,-1.84766 z m -85.67774,0.002 3.19922,1.8457 -1.06836,1.84961 h -2.1289 z m -14.27539,0.002 0.002,3.69336 h -2.13281 l -1.06641,-1.8457 z m 107.91211,0.48828 1.84375,1.06445 v 2.13477 h -3.68945 z m -46.39062,0.002 1.84766,1.06836 v 2.12696 h -3.69141 z m 17.97266,0 1.8457,3.19532 h -3.69531 v -2.12696 z m -99.9629,0.004 1.84766,3.19727 h -3.69141 v -2.13282 z m 54.38868,1.41211 1.03125,1.7832 -2.0625,0.002 z m -26.78125,0.008 1.02929,1.7793 h -2.05664 z m 88.85547,0.35547 1.32421,2.29102 h 2.63477 v 2.64258 l 2.28711,1.32031 -1.29297,2.24219 1.29297,2.24218 -2.28711,1.32032 v 2.64257 h -2.63477 l -1.32421,2.29102 -2.29297,-1.32422 -2.28907,1.32227 -1.32031,-2.28907 h -2.64258 v -2.64257 l -2.28906,-1.32032 1.29492,-2.24218 -1.29492,-2.24219 2.28906,-1.32031 v -2.64258 h 2.64258 l 1.32031,-2.28906 2.28907,1.32226 z m -46.39258,0.002 1.32226,2.28906 h 2.64258 v 2.64258 l 2.28711,1.32031 -1.29297,2.24219 1.29297,2.24218 -2.28711,1.32032 v 2.64257 h -2.64258 l -1.32226,2.28907 -2.28907,-1.32227 -2.28711,1.32031 -1.32226,-2.28711 -2.64453,-0.002 0.002,-2.64844 -2.2832,-1.31836 1.1914,-2.0625 0.0977,-0.17382 -0.0977,-0.17383 -1.1914,-2.0625 2.2832,-1.31836 -0.002,-2.64844 2.64453,-0.002 1.32226,-2.28711 2.28711,1.32031 z m -26.78516,0.002 1.32422,2.29492 h 2.64453 v 2.64258 l 2.28516,1.31836 -1.29102,2.23633 1.29102,2.23632 -2.28516,1.31836 v 2.64258 h -2.64453 l -1.32422,2.29492 -2.28516,-1.32031 -2.28515,1.31836 -1.32422,-2.29297 h -2.64453 l 0.002,-2.64258 -2.28906,-1.32031 1.29101,-2.23437 -1.29101,-2.23438 2.28906,-1.32031 -0.002,-2.64258 h 2.64453 l 1.32422,-2.29297 2.28515,1.31836 z m -31.35937,0.002 2.29296,1.32617 2.28321,-1.32031 1.32031,2.28711 h 2.64844 v 2.64258 l 2.2832,1.31836 -1.29101,2.23633 1.29101,2.23632 -2.2832,1.31836 v 2.64258 h -2.64844 l -1.32031,2.28711 -2.28321,-1.32031 -2.29296,1.32617 -1.32422,-2.29297 h -2.64258 v -2.64258 l -2.28711,-1.32226 1.28906,-2.23242 -1.28906,-2.23243 2.28711,-1.32226 v -2.64258 h 2.64258 z m 62.99414,2.29688 h 3.6914 l -1.8457,3.19726 -1.8457,-1.06445 z m 4.71484,0 h 4.20313 v 4.20898 l -2.65821,1.53516 -3.64648,-2.10352 z m 5.08789,0 h 2.13477 l 1.06836,1.84961 -3.20313,1.84961 z m 10.37891,0 h 2.12695 v 3.69531 l -3.19531,-1.84375 z m 3.01172,0 h 4.20703 l 2.10156,3.63867 -3.64258,2.10547 -2.66601,-1.53907 z m 5.22851,0 h 3.68945 v 2.13281 l -1.84375,1.06445 z m 17.9668,0 h 3.68945 l -1.8457,3.19726 -1.84375,-1.06445 z m 4.71484,0 h 4.20117 v 4.20507 l -2.66406,1.53907 -3.63867,-2.10157 z m 5.08789,0 h 2.13281 l 1.06641,1.8457 -3.19922,1.84766 z m -70.46875,0.002 0.002,2.13086 -1.84375,1.06445 -1.84375,-3.1914 z m -4.71094,0.004 2.10157,3.63476 -3.64453,2.10352 -3.64258,-2.09961 2.10156,-3.63672 z m -57.77539,0.002 h 4.20313 l 2.10352,3.64062 -3.63868,2.10157 -2.66797,-1.53907 z m 5.22657,0 h 3.69336 l -0.002,2.13281 -1.8457,1.06641 z m 17.97265,0 h 3.6875 l -1.8457,3.19531 -1.83984,-1.0625 z m 4.71289,0 h 3.07618 l 2.0996,3.63672 -3.63867,2.10156 -3.63867,-2.09961 z m 4.10352,0 h 3.68945 v 2.125 l -1.84765,1.06641 z m 17.9668,0 h 3.6914 l -1.84765,3.19531 -1.84375,-1.0625 z m 89.22461,1.0918 1.84765,1.0664 -1.8457,3.19922 -1.84766,-3.19922 z m -46.38672,0.008 1.8457,1.06445 -1.84375,3.19531 -1.8457,-3.19531 z m 43.77539,1.49023 2.07812,3.59571 -2.07812,3.5957 -3.64063,-2.10352 v -1.49218 -1.49219 z m -46.38477,0.006 2.07227,3.58985 -2.07227,3.58984 -3.64453,-2.10547 v -1.48437 -1.48438 z m 5.22461,0 3.63672,2.09961 v 1.49024 1.49023 l -3.63672,2.09961 -2.07422,-3.58984 z m 11.27344,1.78906 1.03906,1.80079 -1.03906,1.80078 -3.11914,-1.80078 z m -27.77344,0.004 3.11328,1.79688 -3.11328,1.79687 -1.03711,-1.79687 z m 46.38867,0 3.11133,1.79688 -3.11133,1.79687 -1.03711,-1.79687 z m -73.17773,0.002 3.11133,1.79493 -3.11133,1.79492 -1.03711,-1.79492 z m 8.17578,0 1.03711,1.79493 -1.03711,1.79492 -3.10938,-1.79492 z m -34.95508,0.002 3.10547,1.79297 -3.10547,1.79296 -1.03515,-1.79296 z m -18.61719,0.002 1.03516,1.79102 -1.03516,1.79101 -3.09765,-1.79101 z m 26.78321,0.002 1.03515,1.78907 -1.03515,1.78906 -3.09961,-1.78906 z m 66.42383,0.8086 1.69726,0.98047 -1.69726,0.98046 v -0.98046 z m 32.11132,0 v 0.98047 0.98046 l -1.69531,-0.98046 z m -132.06836,0.008 1.68555,0.97266 -1.68555,0.97265 v -0.97265 z m 85.68165,0 v 0.97266 0.97265 l -1.68555,-0.97265 z m -83.01368,1.41602 3.63868,2.10156 -2.10352,3.64062 h -4.20313 v -4.20312 z m 26.78125,0.004 3.63867,2.10156 -2.0996,3.63672 h -3.07618 l -2.10156,-3.63867 z m 26.78321,0.002 3.64453,2.10352 -2.10157,3.63477 -3.08398,-0.002 -2.10156,-3.63672 z m 26.79101,0 2.65821,1.53516 v 4.20899 h -4.20313 l -2.10156,-3.64063 z m 19.59961,0 3.64258,2.10547 -2.10156,3.63868 h -4.20703 v -4.20508 z m 26.78125,0 2.66406,1.53907 v 4.20508 h -4.20117 l -2.10156,-3.64258 z m -36.58203,0.37696 1.84375,3.19531 -1.8457,1.06445 -1.84375,-1.06445 z m 46.38672,0.002 1.8457,3.19922 -1.84765,1.06641 -1.84571,-1.06641 z m -52.64258,1.66602 3.20313,1.84961 -1.06836,1.84961 h -2.13477 z m 12.50586,0.004 v 3.69532 h -2.12695 l -1.06836,-1.85157 z m 33.88281,0.002 3.19922,1.84765 -1.06641,1.84571 h -2.13281 z m -125.88281,0.48632 1.8457,1.06641 0.002,2.13281 h -3.69336 z m 17.96875,0.004 1.8457,3.19531 h -3.6875 l 0.002,-2.13281 z m 26.78516,0 1.84765,3.19531 h -3.6914 v -2.13281 z m -17.96875,0.004 1.84765,1.0664 v 2.125 h -3.68945 z m 26.78711,0.002 1.84375,1.06445 -0.002,2.13086 -3.68554,-0.004 z m 17.96484,0 1.8457,3.19727 h -3.6914 v -2.13282 z m 28.42187,0 1.84375,1.06445 v 2.13282 h -3.68945 z m 17.96485,0 1.8457,3.19727 h -3.68945 v -2.13282 z m -34.46094,1.79101 2.28516,1.32032 2.28711,-1.32032 1.32226,2.29297 h 2.64258 v 2.64453 l 2.28906,1.32032 -1.32226,2.28906 1.32031,2.28906 -2.28711,1.32032 v 2.64257 h -2.64258 l -1.32031,2.28711 -2.28906,-1.32031 -2.28907,1.32031 -1.32031,-2.28711 h -2.64453 v -2.64257 l -2.28711,-1.32032 1.32031,-2.28906 -1.32031,-2.28906 2.28711,-1.32032 v -2.64453 h 2.64453 z m -80.73242,2.28516 h 2.13281 l 1.06641,1.84766 -3.19922,1.84961 z m 10.37891,0 h 2.13281 l -0.002,3.69336 -3.19726,-1.84766 z m 8.24218,0 h 2.05664 l -1.02929,1.7793 z m 8.16602,0 h 2.1289 l 1.06836,1.84961 -3.19922,1.8457 z m 10.37304,0 h 2.13477 v 3.69922 l -3.20312,-1.84961 z m -46.96289,0.002 h 3.69141 l -1.84766,3.19727 -1.84375,-1.06445 z m 23.19922,0 h 4.19922 l 1.53906,2.66797 -2.10351,3.63868 -3.63672,-2.10157 z m 8.29883,0 h 4.20703 l -0.002,4.20704 -3.63867,2.09765 -2.10352,-3.64258 z m 18.48438,0 h 4.20117 l 1.53906,2.66602 -2.10547,3.64258 -3.63476,-2.09961 z m 5.21875,0 2.0625,0.002 -1.03125,1.7832 z m 3.08789,0.002 4.19726,0.002 -0.002,4.20313 -3.63867,2.09961 -2.09961,-3.63477 z m 5.08203,0 2.13476,0.002 1.06446,1.84375 -3.20117,1.84766 z m 10.37305,0.002 h 2.13476 v 3.69141 l -3.20117,-1.84766 z m 8.24609,0 h 3.69141 v 2.12695 l -1.84766,1.06836 z m 17.9668,0 h 3.69531 l -1.8457,3.19531 -1.84961,-1.06836 z m 9.80468,0 h 2.13282 l 1.06445,1.8457 -3.19727,1.84571 z m 10.37891,0 h 2.125 v 3.69141 l -3.19336,-1.84375 z m 8.23828,0 h 3.68945 v 2.13477 l -1.84375,1.06445 z m -23.70312,0.002 h 4.19921 v 4.20118 l -2.66211,1.53906 -3.63867,-2.10156 z m 18.47656,0 h 4.19922 l 2.10351,3.64258 -3.63672,2.09766 -2.66601,-1.53906 z m -46.38867,0.008 h 4.20117 l 2.09961,3.63867 -4.52149,2.61523 4.52539,2.61133 -2.61328,4.52539 h 5.22657 v 5.22656 l 4.52539,-2.61523 2.61328,4.52734 2.61523,-4.52734 3.63672,2.09961 v 4.10351 l 3.55273,-2.05078 3.63672,2.09961 -2.61328,4.5293 h 5.22656 v 5.22461 l 4.52735,-2.61328 2.61133,4.52539 2.61132,-4.52539 3.64063,2.10156 v 4.20312 h -5.22656 l 2.61132,4.52344 -4.52343,2.61524 4.52343,2.61132 -2.0996,3.63672 -4.10547,-0.002 2.05273,3.55859 -2.10156,3.63868 -3.86328,-2.23047 -0.66602,-0.38281 v 5.22656 h -4.19922 l -2.10351,-3.64258 4.52539,-2.61133 -4.52539,-2.61133 2.61328,-4.52734 h -5.22656 v -5.22461 l -4.52344,2.60937 -2.61524,-4.52148 -2.61132,4.52344 -3.64063,-2.10156 v -4.09766 l -3.55078,2.04883 -3.64062,-2.09961 2.23046,-3.86133 0.38282,-0.66602 h -5.22657 v -5.22656 l -4.52148,2.60938 -2.60938,-4.51953 -2.61523,4.52343 -3.64453,-2.10351 v -4.20703 h 5.22656 l -2.60937,-4.52344 4.52929,-2.61524 -4.53125,-2.61132 2.10352,-3.64063 h 4.10351 l -2.05078,-3.55078 2.09961,-3.63477 4.52735,2.61524 z m -60.70118,1.09179 1.83789,1.0625 -1.84374,3.19532 -1.84376,-3.19141 z m 26.78125,0 1.84375,1.06446 -1.84375,3.19336 -1.84375,-3.19336 z m 26.78125,0.002 1.84766,1.06836 -1.8457,3.19531 -1.84766,-3.19727 z m 46.38868,0 1.85156,1.07031 -1.84961,3.20117 -1.84961,-3.20508 z m -97.3418,1.50781 3.63867,2.10156 -0.002,4.19922 h -4.20313 l -1.53711,-2.66211 z m 21.55664,0 2.09961,3.63672 -1.53711,2.66406 h -4.20508 l 0.002,-4.19922 z m 5.22461,0 3.64453,2.10742 v 4.19336 h -4.20508 l -1.53906,-2.66406 z m 21.56055,0 2.10156,3.64062 -1.53711,2.66016 h -4.21094 l 0.002,-4.19531 z m 46.38671,0 2.10547,3.64648 -2.10156,3.63672 -3.64258,-2.10351 v -3.07813 z m 5.22852,0.006 3.63672,2.10351 v 3.07227 l -3.64063,2.10156 -2.09961,-3.63672 z m -89.18164,0.92969 1.84766,3.19921 -1.84961,1.06641 -1.84571,-1.06641 z m 26.78906,0.002 1.84375,3.19531 -1.85156,1.06836 -1.8418,-1.0625 z m -54.06445,0.85547 3.19531,1.84375 -3.19531,1.84375 -1.06445,-1.84375 z m 81.33789,0.008 1.06445,1.84375 -1.06445,1.84375 -3.19531,-1.84375 z m 18.61914,0 3.19336,1.84375 -3.19336,1.84375 -1.06445,-1.84375 z m 27.77148,0.002 1.0625,1.8418 -1.06445,1.84375 -3.1914,-1.84375 z m -94.19921,0.8086 v 3.68945 h -2.12891 l -1.06641,-1.8457 z m 73.17382,0 v 2.05664 l -1.77929,-1.02735 z m -85.67773,0.002 3.19531,1.84375 -1.0664,1.84375 h -2.13086 z m 39.28711,0.002 -0.002,3.68555 h -2.12891 l -1.06445,-1.83984 z m 60.66797,0.002 1.77734,1.02734 -1.77734,1.02539 z m -73.16992,0.002 3.18945,1.84375 -1.0625,1.83789 h -2.12695 z m 56.22265,1.53516 2.66992,1.54101 v 4.20117 h -4.20117 l -2.10351,-3.64257 z m 19.61328,0.004 3.63477,2.09961 -2.09961,3.63867 h -4.20117 v -4.19922 z m -109.76171,0.36328 1.02734,1.7793 h -2.05469 z m 26.7871,0 1.02735,1.7793 h -2.05469 z m 26.78125,0 1.02735,1.7793 h -2.05664 z m 46.39063,0.01 1.84375,3.19336 -1.8457,1.06445 -1.84375,-1.06445 z m -88.85742,0.36914 2.28711,1.32031 2.29101,-1.32031 1.32032,2.28711 h 2.64453 l -0.002,2.64258 2.29102,1.32422 -1.32422,2.29296 1.32227,2.28516 -2.28321,1.31641 v 2.64258 h -2.64843 l -1.32227,2.28906 -2.28906,-1.32032 -2.28516,1.31836 -1.31641,-2.2871 h -2.65039 v -2.64258 l -2.28711,-1.32032 1.32032,-2.28906 -1.32032,-2.28906 2.28711,-1.32031 0.002,-2.64258 h 2.64062 z m 31.36718,0.002 1.32032,2.28516 h 2.63672 l -0.002,2.64258 2.29492,1.32422 -1.32031,2.28515 1.32031,2.29102 -2.29492,1.32617 v 2.63477 h -2.63476 l -1.32617,2.29687 -2.29102,-1.32227 -2.28125,1.31641 -1.32227,-2.29101 h -2.65039 v -2.63477 l -2.28515,-1.32031 1.32617,-2.29688 -1.32227,-2.28906 2.28907,-1.32031 v -2.64258 h 2.64257 l 1.31836,-2.28125 2.28516,1.32226 z m 51.23633,1.2967 3.19922,1.8457 -1.0664,1.84375 h -2.13282 z m 12.50391,0 v 3.68945 h -2.13281 l -1.06446,-1.84375 z m -120.41797,0.48828 1.84375,3.19336 h -3.69141 v -2.125 z m 81.98828,0.004 1.84571,1.06445 v 2.13281 h -3.69141 z m 17.96485,0 1.8457,3.19726 h -3.68945 v -2.13281 z m 28.42187,0.004 1.8457,1.06641 0.002,2.12695 h -3.68946 z m -111.60547,0.48438 h 3.69141 v 2.13281 l -1.84571,1.06445 z m 17.96875,0 h 3.69336 l -1.84765,3.20117 -1.84766,-1.06836 z m 4.71875,0 h 3.07813 l 2.10156,3.64062 -3.64649,2.10547 -3.63671,-2.10156 z m 4.09961,0 h 3.69336 v 2.13281 l -1.8457,1.06641 z m 17.96289,0 h 3.69922 l -1.84961,3.20117 -1.85156,-1.06836 z m 50.35938,1.30859 2.28711,1.32032 2.28906,-1.32032 1.32031,2.28711 h 2.64258 v 2.64453 l 2.28906,1.32032 -1.32226,2.28906 1.32226,2.28906 -2.28906,1.32031 v 2.64258 h -2.64258 l -1.32031,2.28711 -2.28906,-1.32031 -2.28907,1.32031 -1.32031,-2.28711 h -2.64258 v -2.64258 l -2.28906,-1.32031 1.32227,-2.28906 -1.32227,-2.28906 2.28906,-1.32032 v -2.64453 h 2.64258 z m -27.16016,2.28516 h 2.13477 l 1.06445,1.8457 -3.19922,1.8457 z m 10.37891,0 h 2.12695 v 3.6914 l -3.19531,-1.84374 z m 3.01172,0 h 4.20117 l 2.09961,3.63867 -3.63672,2.10156 -2.66406,-1.53711 z m 5.22656,0 h 3.6914 v 2.12695 l -1.84765,1.06641 z m 17.96875,0 h 3.6914 l -1.84375,3.19336 -1.84765,-1.06641 z m 4.7168,0 h 4.20117 l 0.004,4.20117 -2.66601,1.53906 -3.63867,-2.10156 z m 5.08789,0 h 2.13085 l 1.06446,1.8457 -3.19336,1.84375 z m -112.81641,0.81055 1.06641,1.84765 -1.06641,1.8457 -3.19922,-1.8457 z m 26.78516,0.002 1.06445,1.8457 -1.06836,1.85352 -3.20117,-1.84961 z m 18.61328,0 3.20117,1.8457 -3.20117,1.84961 -1.06641,-1.84961 z m -26.7793,0.004 3.19336,1.84571 -3.19727,1.8457 -1.06445,-1.8418 z m 54.06055,0.28516 1.84765,1.06641 -1.84765,3.19922 -1.84571,-3.19922 z m 46.38672,0.006 1.84375,1.06445 -1.84375,3.19532 -1.84375,-3.19532 z m -96.36915,2.06445 3.64063,2.10547 -2.0957,3.63282 h -3.08008 l -2.10352,-3.63672 z m 82.48633,1.23633 3.19532,1.84375 -3.19532,1.84571 L 342.5,470.8286 Z m -18.62109,0.002 1.06445,1.84374 -1.06445,1.84376 -3.19336,-1.84376 z m -6.74609,0.8125 1.78125,1.02734 -1.78125,1.0293 z m 32.11718,0 0.002,2.05664 -1.78125,-1.0293 z m -111.61133,0.49023 1.84571,1.06445 v 2.13282 h -3.69141 z m 17.9668,0.004 1.84766,3.19336 h -3.68555 v -2.13282 z m 26.78711,0 1.83985,3.19336 h -3.69141 v -2.125 z m -17.96875,0.004 1.8418,1.06446 v 2.125 h -3.6836 z m 59.7832,3.58789 1.84375,1.06446 v 2.13281 h -3.6914 z m 17.96485,0 1.84765,3.19727 h -3.6914 v -2.13281 z m -101.80274,0.48828 h 2.13282 l 1.06445,1.84571 -3.19727,1.8457 z m 10.37891,0 h 2.13281 v 3.69141 l -3.19922,-1.8457 z m 8.24219,0 h 2.05664 l -1.02735,1.7793 z m 8.16015,0.002 h 2.13477 l 1.06836,1.84961 -3.20313,1.84765 z m 10.37891,0 h 2.12695 v 3.69726 l -3.19531,-1.8457 z m -30.9082,1.10742 1.8457,1.06445 -1.8457,3.19531 -1.8418,-3.19726 z m 26.7832,0 1.84766,1.06836 -1.8418,3.1914 -1.8457,-3.19726 z m 13.39648,2.45117 1.84375,3.19141 -1.8496,1.0664 -1.83985,-1.06054 z m 40.13672,0.0371 h 2.13282 l 1.06445,1.84375 -3.19727,1.8457 z m 10.3711,0 h 2.13281 v 3.68945 l -3.19727,-1.8457 z m -4.11914,1.10547 1.84375,1.06445 -1.84375,3.19531 -1.84375,-3.19531 z m -52.64844,0.5332 3.19922,1.84766 -1.06446,1.8418 h -2.13476 z m 12.50586,0 v 3.68946 h -2.12695 l -1.06641,-1.84571 z m -66.03125,1.9043 1.84765,3.19922 -1.84765,1.0664 -1.8457,-1.0664 z m 119.55664,0.008 1.8457,3.19727 -1.83789,1.06054 -1.84961,-1.0664 z m -57.48438,0.37891 1.32422,2.29101 h 2.63477 v 2.64258 l 2.29101,1.32227 -1.3164,2.27929 1.32226,2.29102 -2.29687,1.32617 v 2.64258 h -2.63477 l -1.32422,2.29297 -2.29296,-1.32422 -2.28711,1.32031 -1.32422,-2.29492 h -2.64258 v -2.63672 l -2.28711,-1.32226 1.32031,-2.28711 -1.32031,-2.29102 2.28711,-1.31836 v -2.64258 h 2.65039 l 1.31836,-2.28515 2.28516,1.31836 z m -68.32422,1.28906 3.19727,1.8457 -1.06445,1.84375 h -2.13282 z m 12.50391,0.006 v 3.68555 l -2.13281,-0.002 -1.0625,-1.84179 z m 107.06055,0.002 3.1914,1.84375 -1.0664,1.84766 h -2.125 z m 12.5039,0 -0.004,3.69141 h -2.12891 l -1.0664,-1.84375 z m -76.85937,0.99024 h 3.68359 v 2.13281 l -1.84179,1.0625 z m 17.95898,0 h 3.69922 l -1.84961,3.19922 -1.84961,-1.06641 z m -69.20507,1.29492 2.28906,1.32031 2.28906,-1.32031 1.32031,2.28711 2.64258,0.002 v 2.64063 l 2.29297,1.32226 -1.32617,2.29492 1.31836,2.28321 -2.28516,1.31836 v 2.65039 h -2.64258 l -1.32226,2.28711 -2.28711,-1.32032 -2.28906,1.32032 -1.32032,-2.28711 h -2.64453 l 0.002,-2.65039 -2.28906,-1.32227 1.32227,-2.28711 -1.32227,-2.28711 2.28906,-1.32226 v -2.64258 h 2.64258 z m 119.55859,0.004 2.29492,1.32421 2.2832,-1.31836 1.31836,2.28516 h 2.64649 l -0.002,2.63477 2.29297,1.32422 -1.32617,2.29296 1.32227,2.29102 -2.28321,1.31836 -0.002,2.64258 H 351.246 l -1.32031,2.28711 -2.28906,-1.32032 -2.2832,1.31836 -1.31836,-2.28515 -2.64454,-0.002 0.002,-2.64062 -2.29297,-1.32422 1.31836,-2.28516 -1.31836,-2.28515 2.29297,-1.32422 v -2.64258 h 2.63476 z m -128.10156,2.28124 h 3.69336 v 2.13282 l -1.84571,1.06445 z m 17.9707,0.004 3.69141,0.004 -1.84375,3.1914 -1.84766,-1.0664 z m 101.58984,0.004 h 3.69727 v 2.125 l -1.85156,1.07031 z m 17.96875,0 h 3.69532 l -1.84571,3.19336 -1.85156,-1.06836 z m -76.22265,0.81445 1.0664,1.84961 -1.0664,1.8457 -3.19922,-1.84961 z m 18.61133,0.004 3.19726,1.8457 -3.1914,1.84375 -1.06836,-1.85156 z m -25.36329,0.8125 1.78516,1.03125 -1.78516,1.02929 z m 32.11133,0.008 v 2.05273 l -1.77734,-1.02734 z m -29.44531,1.53516 3.64453,2.10546 -2.09766,3.63282 h -4.21289 V 492.488 Z m 26.78125,0.006 2.66406,1.53907 v 4.20117 h -4.19922 l -2.10156,-3.64258 z m -36.58594,0.36329 1.84961,3.20117 -1.84961,1.0664 -1.84765,-1.06836 z m 46.38867,0.008 1.84766,3.19336 -1.84766,1.0664 -1.84375,-1.06445 z m -92.2832,0.85156 1.06445,1.8418 -1.06445,1.8418 -3.18945,-1.8418 z m 18.625,0 3.19141,1.8418 -3.19922,1.8457 -1.06055,-1.83789 z m 119.55859,0.002 3.19922,1.84766 -3.20312,1.84961 -1.06641,-1.84766 z m -18.61914,0.006 1.06446,1.84375 -1.06446,1.84375 -3.19336,-1.84375 z m -79.92187,0.81055 3.19727,1.8457 -1.06446,1.84571 h -2.13281 z m 12.50586,0.002 v 3.68946 h -2.13477 l -1.06445,-1.84375 z m 33.88281,0.008 3.19727,1.8457 -1.06446,1.84375 h -2.13281 z m 12.50391,0 v 3.68945 h -2.125 l -1.06836,-1.8457 z m -20.45508,0.48632 1.84766,3.20313 h -3.70118 v -2.13281 z m -17.97266,0.002 1.84375,1.0664 v 2.12696 h -3.6875 z m -16.50195,1.79297 2.28906,1.32031 2.28906,-1.32031 1.32227,2.28711 h 2.64258 v 2.64257 l 2.29687,1.32618 -1.32226,2.29101 1.31836,2.28516 -2.29297,1.32422 v 2.63867 l -2.64258,-0.002 -1.32422,2.29493 -2.28711,-1.32032 -2.28515,1.31836 -1.32422,-2.29297 h -2.64258 v -2.63671 l -2.29102,-1.32227 1.32422,-2.29492 -1.31836,-2.28906 2.28516,-1.32032 v -2.64257 h 2.64258 z m 50.9707,0.004 1.32422,2.29102 h 2.63477 v 2.64258 l 2.29101,1.32226 -1.3164,2.28711 1.3164,2.28711 -2.29101,1.32227 v 2.64453 h -2.63477 l -1.32422,2.29101 -2.29297,-1.32422 -2.28906,1.32032 -1.32031,-2.28711 h -2.64258 v -2.64453 l -2.28906,-1.32032 1.32226,-2.28906 -1.32031,-2.28906 2.28711,-1.32031 v -2.64258 h 2.64258 l 1.32031,-2.28711 2.28906,1.32031 z m -94.24804,1.78711 1.84375,1.06445 -0.002,2.14063 h -3.69336 z m 119.55859,0.004 1.84961,1.06836 -0.002,2.13086 -3.69336,-0.002 z m -101.59375,0.002 1.84766,3.19922 h -3.69141 v -2.13281 z m 119.56055,0.004 1.8457,3.19531 h -3.6875 l 0.002,-2.13281 z m -84.82032,0.48437 h 3.70313 l -1.84961,3.20508 -1.85352,-1.07227 z m 9.80274,0 h 2.13476 l 1.06836,1.85157 -3.20312,1.8496 z m -27.76172,0.002 h 3.68359 v 2.13281 l -1.84179,1.06445 z m 22.67969,0 h 4.19726 v 4.21093 l -2.66211,1.53711 -3.63867,-2.10351 z m 15.46094,0.006 h 2.12695 v 3.69141 l -3.19336,-1.84375 z m 8.24218,0 h 3.6875 v 2.13282 l -1.84375,1.06445 z m 17.96485,0 h 3.68945 l -1.8418,3.19922 -1.84765,-1.06445 z m -23.19532,0.002 h 4.21289 l 2.09766,3.63672 -3.64453,2.10351 -2.66602,-1.53906 z m -7.13671,1.10742 1.84765,1.06836 -1.8457,3.19531 -1.84571,-3.19922 z m -2.60743,1.50391 2.09961,3.64257 -2.10156,3.63868 -3.64453,-2.10547 v -3.07227 z m 5.22071,0.006 3.63867,2.10156 v 3.06836 l -3.64258,2.10351 -2.09766,-3.63672 z m 42.74804,0.96093 2.06055,0.002 -1.03125,1.7832 z m 3.07813,0.004 4.20508,0.004 -0.002,4.20117 -3.64453,2.10351 -2.09765,-3.64062 z m -95.85156,0.004 h 2.04882 l -1.02539,1.77539 z m 100.94335,0 2.12696,0.002 1.06445,1.84375 -3.19336,1.84375 z m -124.65624,0.002 h 4.20507 l -0.002,4.20117 -3.63672,2.09766 -2.10156,-3.64258 z m 5.09179,0 h 2.13477 l 1.06445,1.8418 -3.20117,1.84765 z m 10.37305,0 h 2.13281 v 3.69141 l -3.19726,-1.84766 z m 3.01953,0 h 4.20313 l 1.5371,2.66211 -2.10351,3.64258 -3.63672,-2.10157 z m 116.54492,0 h 2.13086 v 3.69336 l -3.19726,-1.84571 z m 3.01758,0 h 4.19922 l 1.53906,2.66406 -2.10156,3.64063 -3.63867,-2.10157 z m -99.41992,0.81055 1.06445,1.8457 -1.07226,1.85351 -3.20118,-1.8457 z m 18.61719,0.004 3.19726,1.84766 -3.20117,1.84765 -1.06445,-1.8457 z m 27.76953,0 1.0664,1.84961 -1.0664,1.8457 -3.20117,-1.84765 z m 18.61523,0.006 3.19336,1.84375 -3.19336,1.84375 -1.06445,-1.84375 z m -92.2832,0.2793 1.8457,1.0664 -1.84766,3.19532 -1.8457,-3.19727 z m 119.55664,0 1.84766,1.0664 -1.84571,3.19727 -1.84375,-3.19922 z m -66.91602,0.53906 v 2.05274 l -1.77734,-1.02735 z m 14.27539,0.002 1.77539,1.02539 -1.77539,1.0254 z m -69.52929,0.9668 2.10156,3.63672 -1.54102,2.66601 h -4.20507 l 0.002,-4.20117 z m 5.22656,0.002 3.63867,2.10157 v 4.19921 h -4.20312 l -1.53711,-2.6621 z m 114.33203,0 2.10156,3.63868 -1.54101,2.66992 h -4.19922 l 0.002,-4.20899 z m 5.23047,0.004 3.63672,2.10156 -0.002,4.20313 h -4.20117 l -1.53711,-2.66406 z m -72.19531,0.56055 2.66015,1.53515 v 4.20703 l -4.20312,-0.002 -2.09961,-3.63867 z m 19.59375,0.002 3.64648,2.10547 -2.10156,3.63672 h -4.20313 v -4.20899 z m -56.1836,0.37109 1.84571,3.19532 -1.85352,1.06836 -1.8418,-1.06446 z m 46.39063,0.002 1.84375,3.19531 -1.8457,1.06641 -1.84571,-1.06446 z m 46.38672,0 1.84375,3.19726 -1.84571,1.06446 -1.84375,-1.06446 z m -86.52539,1.66992 v 3.69336 l -2.13282,-0.002 -1.0664,-1.84765 z m 33.88281,0 3.20312,1.84961 -1.06836,1.84961 -2.13476,-0.002 z m 12.50586,0 v 3.69922 h -2.13281 l -1.06836,-1.85156 z m -73.17383,0.002 -0.002,3.68945 h -2.12696 l -1.0664,-1.84765 z m 14.28125,0.002 3.19727,1.84571 -1.06446,1.84179 h -2.13281 z m 105.2832,0 -0.002,3.69532 h -2.13477 l -1.06445,-1.84571 z m -12.50781,0.004 3.19727,1.8457 -1.06446,1.84571 h -2.13281 z m 26.78516,0 3.19531,1.8457 -1.06641,1.84571 h -2.13086 z m -99.09961,0.49024 1.84765,1.0664 v 2.12695 h -3.6914 z m 17.97265,0 1.84375,3.19726 -3.69336,-0.002 v -2.12891 z m 46.38477,0 1.84375,3.20117 h -3.68945 v -2.13477 z m -17.9707,0.008 1.84765,1.0664 v 2.12696 h -3.6914 z m -73.98438,1.4082 1.02539,1.77734 h -2.05273 z m 119.56055,0.008 1.02734,1.77735 h -2.05469 z m -125.82031,2.6543 h 3.69726 l -1.85156,3.20117 -1.84766,-1.0664 z m 8.81835,0 h 3.69141 v 2.13477 l -1.84375,1.06445 z m 27.77149,0 h 2.13281 l 1.06836,1.84961 -3.20117,1.8457 z m 10.37891,0 2.12695,0.002 v 3.69727 l -3.19727,-1.8457 z m -42.25391,0.002 h 3.08203 l 2.10352,3.64063 -3.64649,2.10351 -3.64258,-2.10156 z m 26.79297,0 h 4.19726 v 4.20508 l -2.66992,1.54102 -3.63281,-2.09961 z m -4.7207,0.002 3.6914,0.004 -1.8457,3.19336 -1.8457,-1.0664 z m 23.19335,0 4.20313,0.002 2.09766,3.63867 -3.64258,2.10156 -2.65821,-1.53515 z m 5.22657,0 3.6914,0.002 v 2.12891 l -1.84765,1.06445 z m 17.96679,0.004 h 3.69141 l -1.84375,3.19141 -1.84766,-1.06445 z m 9.80469,0 h 2.13281 l 1.06446,1.84571 -3.19727,1.84375 z m 10.37891,0 h 2.125 v 3.69141 l -3.19336,-1.84375 z m 8.23828,0 h 3.68945 v 2.12696 l -1.8457,1.0664 z m 17.96875,0 h 3.68945 l -1.84375,3.19336 -1.84765,-1.0664 z m 8.8125,0 h 3.6914 v 2.13282 l -1.8457,1.06445 z m -50.48828,0.002 h 4.20312 v 4.20117 l -2.6582,1.53515 -3.64453,-2.10156 z m 18.48047,0 h 4.19921 l 2.09961,3.63672 -3.63867,2.10156 -2.66015,-1.53516 z m 27.91211,0 h 3.07617 l 2.10156,3.63867 -3.64063,2.10156 -3.63867,-2.10156 z m -81.43946,1.09765 1.84571,1.06641 -1.84375,3.19726 -1.84571,-3.19921 z m 46.38867,0.01 1.84961,1.0664 -1.84765,3.19922 -1.84766,-3.20117 z"
       style="color:#000000;font-style:normal;font-variant:normal;font-weight:normal;font-stretch:normal;font-size:medium;line-height:normal;font-family:sans-serif;font-variant-ligatures:normal;font-variant-position:normal;font-variant-caps:normal;font-variant-numeric:normal;font-variant-alternates:normal;font-variant-east-asian:normal;font-feature-settings:normal;font-variation-settings:normal;text-indent:0;text-align:start;text-decoration:none;text-decoration-line:none;text-decoration-style:solid;text-decoration-color:#000000;letter-spacing:normal;word-spacing:normal;text-transform:none;writing-mode:lr-tb;direction:ltr;text-orientation:mixed;dominant-baseline:auto;baseline-shift:baseline;text-anchor:start;white-space:normal;shape-padding:0;shape-margin:0;inline-size:0;clip-rule:nonzero;display:inline;overflow:visible;visibility:visible;opacity:0.31;isolation:auto;mix-blend-mode:normal;color-interpolation:sRGB;color-interpolation-filters:linearRGB;solid-color:#000000;solid-opacity:1;vector-effect:none;fill:#000000;fill-opacity:1;fill-rule:nonzero;stroke:none;stroke-width:0.885781px;stroke-linecap:butt;stroke-linejoin:miter;stroke-miterlimit:4;stroke-dasharray:none;stroke-dashoffset:0;stroke-opacity:1;color-rendering:auto;image-rendering:auto;shape-rendering:auto;text-rendering:auto;enable-background:accumulate;stop-color:#000000;stop-opacity:1"
       id="path5932" />
  </g>
</svg>
