<svg xmlns="http://www.w3.org/2000/svg" viewbox="-118.3, -118.3, 236.6, 236.6" width="236.6" height="236.6" id="test">
  <defs>
    <g id="atomgeometry">
      <polygon points="0.000, 25.00 59.15, 59.15 93.30, 0.000 59.15, -59.15 0.000, -25.00 0.000, 25.00"/><polygon points="0.000, -25.00 -59.15, -59.15 -93.30, 0.000 -59.15, 59.15 0.000, 25.00 0.000, -25.00"/><polygon points="-25.00, -118.3 -59.15, -59.15 0.000, -25.00 59.15, -59.15 25.00, -118.3 -25.00, -118.3"/><polygon points="25.00, 118.3 59.15, 59.15 0.000, 25.00 -59.15, 59.15 -25.00, 118.3 25.00, 118.3"/><polygon points="-143.3, 0.000 -177.4, 59.15 -118.3, 93.30 -59.15, 59.15 -93.30, 0.000 -143.3, 0.000"/><polygon points="93.30, 0.000 59.15, 59.15 118.3, 93.30 177.4, 59.15 143.3, 0.000 93.30, 0.000"/><polygon points="-93.30, 0.000 -59.15, -59.15 -118.3, -93.30 -177.4, -59.15 -143.3, 0.000 -93.30, 0.000"/><polygon points="143.3, 0.000 177.4, -59.15 118.3, -93.30 59.15, -59.15 93.30, 0.000 143.3, 0.000"/><polygon points="-118.3, -93.30 -59.15, -59.15 -25.00, -118.3 -59.15, -177.4 -118.3, -143.3 -118.3, -93.30"/><polygon points="-118.3, 143.3 -59.15, 177.4 -25.00, 118.3 -59.15, 59.15 -118.3, 93.30 -118.3, 143.3"/><polygon points="118.3, -143.3 59.15, -177.4 25.00, -118.3 59.15, -59.15 118.3, -93.30 118.3, -143.3"/><polygon points="118.3, 93.30 59.15, 59.15 25.00, 118.3 59.15, 177.4 118.3, 143.3 118.3, 93.30"/></g><g id="uniongeometry"><polygon points="0.000, 25.00 59.15, 59.15 93.30, 0.000 59.15, -59.15 0.000, -25.00 0.000, 25.00"/><polygon points="0.000, -25.00 -59.15, -59.15 -93.30, 0.000 -59.15, 59.15 0.000, 25.00 0.000, -25.00"/><polygon points="-25.00, -118.3 -59.15, -59.15 0.000, -25.00 59.15, -59.15 25.00, -118.3 -25.00, -118.3"/><polygon points="25.00, 118.3 59.15, 59.15 0.000, 25.00 -59.15, 59.15 -25.00, 118.3 25.00, 118.3"/><polygon points="-143.3, 0.000 -177.4, 59.15 -118.3, 93.30 -59.15, 59.15 -93.30, 0.000 -143.3, 0.000"/><polygon points="93.30, 0.000 59.15, 59.15 118.3, 93.30 177.4, 59.15 143.3, 0.000 93.30, 0.000"/><polygon points="-93.30, 0.000 -59.15, -59.15 -118.3, -93.30 -177.4, -59.15 -143.3, 0.000 -93.30, 0.000"/><polygon points="143.3, 0.000 177.4, -59.15 118.3, -93.30 59.15, -59.15 93.30, 0.000 143.3, 0.000"/><polygon points="-118.3, -93.30 -59.15, -59.15 -25.00, -118.3 -59.15, -177.4 -118.3, -143.3 -118.3, -93.30"/><polygon points="-118.3, 143.3 -59.15, 177.4 -25.00, 118.3 -59.15, 59.15 -118.3, 93.30 -118.3, 143.3"/><polygon points="118.3, -143.3 59.15, -177.4 25.00, -118.3 59.15, -59.15 118.3, -93.30 118.3, -143.3"/><polygon points="118.3, 93.30 59.15, 59.15 25.00, 118.3 59.15, 177.4 118.3, 143.3 118.3, 93.30"/>
    </g>
    <mask id="strapworkmask">
      <use href="#uniongeometry" x="118.3" y="118.3" stroke-width="3" stroke="white" fill="transparent"/>
    </mask>
  </defs>
  <rect id="strapwork" width="100%" height="100%" fill="black" mask="url(#strapworkmask)"/>
</svg>
