<?xml version="1.0" encoding="UTF-8" standalone="no"?>
<svg
   xmlns:dc="http://purl.org/dc/elements/1.1/"
   xmlns:cc="http://creativecommons.org/ns#"
   xmlns:rdf="http://www.w3.org/1999/02/22-rdf-syntax-ns#"
   xmlns:svg="http://www.w3.org/2000/svg"
   xmlns="http://www.w3.org/2000/svg"
   xmlns:sodipodi="http://sodipodi.sourceforge.net/DTD/sodipodi-0.dtd"
   xmlns:inkscape="http://www.inkscape.org/namespaces/inkscape"
   sodipodi:docname="greenbrownrigging.svg"
   inkscape:version="1.0beta2 (235953b, 2020-02-06)"
   id="svg30302"
   version="1.1"
   viewBox="0 0 37.856128 21.855102"
   height="21.855103mm"
   width="37.856129mm">
  <defs
     id="defs30296" />
  <sodipodi:namedview
     inkscape:window-maximized="0"
     inkscape:window-y="0"
     inkscape:window-x="78"
     inkscape:window-height="1041"
     inkscape:window-width="1274"
     fit-margin-bottom="0"
     fit-margin-right="0"
     fit-margin-left="0"
     fit-margin-top="0"
     showgrid="false"
     inkscape:document-rotation="0"
     inkscape:current-layer="layer1"
     inkscape:document-units="mm"
     inkscape:cy="61.966059"
     inkscape:cx="71.955445"
     inkscape:zoom="2.6814384"
     inkscape:pageshadow="2"
     inkscape:pageopacity="0.0"
     borderopacity="1.0"
     bordercolor="#666666"
     pagecolor="#ffffff"
     id="base" />
  <metadata
     id="metadata30299">
    <rdf:RDF>
      <cc:Work
         rdf:about="">
        <dc:format>image/svg+xml</dc:format>
        <dc:type
           rdf:resource="http://purl.org/dc/dcmitype/StillImage" />
        <dc:title></dc:title>
      </cc:Work>
    </rdf:RDF>
  </metadata>
  <g
     transform="translate(93.039954,88.139457)"
     id="layer1"
     inkscape:groupmode="layer"
     inkscape:label="Layer 1">
    <path
       inkscape:connector-curvature="0"
       id="path30030"
       d="m -22.79888,-54.427781 -0.004,3.38125 -4.92498,2.84176 -2.92829,-1.69035 2.92671,-1.68872 4.92987,2.84508 -0.002,3.381647 -2.92763,-1.692447 -0.001,-5.68814 z"
       style="fill:#00ff00;stroke:#000000;stroke-width:0.264583px;stroke-linecap:butt;stroke-linejoin:miter;stroke-opacity:1" />
    <path
       style="fill:#00ff00;stroke:#000000;stroke-width:0.264583px;stroke-linecap:butt;stroke-linejoin:miter;stroke-opacity:1"
       d="m -22.7954,-76.282771 -0.004,3.38125 -4.92498,2.84176 -2.92829,-1.69035 2.92671,-1.68872 4.92987,2.84508 -0.002,3.38165 -2.92763,-1.69245 -0.001,-5.68814 z"
       id="path30032"
       inkscape:connector-curvature="0" />
    <path
       style="fill:#00ff00;stroke:#000000;stroke-width:0.264583px;stroke-linecap:butt;stroke-linejoin:miter;stroke-opacity:1"
       d="m -60.65651,-32.57659 -0.004,3.38125 -4.92498,2.84176 -2.92829,-1.69035 2.92671,-1.68872 4.92987,2.84508 -0.002,3.38165 -2.92763,-1.69245 -10e-4,-5.68814 z"
       id="path30040"
       inkscape:connector-curvature="0" />
    <path
       inkscape:connector-curvature="0"
       id="path30042"
       d="m -41.72875,-21.6437 -0.004,3.38125 -4.92498,2.84176 -2.92829,-1.69035 2.92671,-1.68872 4.92987,2.84508 -0.002,3.38165 -2.92763,-1.69245 -10e-4,-5.68814 z"
       style="fill:#00ff00;stroke:#000000;stroke-width:0.264583px;stroke-linecap:butt;stroke-linejoin:miter;stroke-opacity:1" />
    <path
       style="fill:#00ff00;stroke:#000000;stroke-width:0.264583px;stroke-linecap:butt;stroke-linejoin:miter;stroke-opacity:1"
       d="m -22.7988,-32.57231 -0.004,3.38125 -4.92498,2.84176 -2.92829,-1.69035 2.92671,-1.68872 4.92987,2.84508 -0.002,3.38165 -2.92763,-1.69245 -10e-4,-5.68814 z"
       id="path30044"
       inkscape:connector-curvature="0" />
    <path
       inkscape:connector-curvature="0"
       id="path30046"
       d="m -41.72327,-87.211711 -0.004,3.38125 -4.92498,2.84176 -2.92829,-1.69035 2.92671,-1.68872 4.92987,2.84508 -0.002,3.38165 -2.92763,-1.69245 -10e-4,-5.68814 z"
       style="fill:#00ff00;stroke:#000000;stroke-width:0.264583px;stroke-linecap:butt;stroke-linejoin:miter;stroke-opacity:1" />
    <path
       style="fill:#e9b96e;stroke:#000000;stroke-width:0.264583px;stroke-linecap:butt;stroke-linejoin:miter;stroke-opacity:1"
       d="m -49.71692,-76.283628 0.004,3.38125 4.92498,2.84176 2.92829,-1.69035 -2.92671,-1.68872 -4.92987,2.84508 0.002,3.38165 2.92763,-1.69245 10e-4,-5.68814 z"
       id="path30125"
       inkscape:connector-curvature="0" />
    <path
       inkscape:connector-curvature="0"
       id="path30127"
       d="m -30.78785,-65.358305 0.004,3.38125 4.92498,2.84176 2.92829,-1.69035 -2.92671,-1.68872 -4.92987,2.84508 0.002,3.38165 2.92763,-1.69245 0.001,-5.68814 z"
       style="fill:#e9b96e;stroke:#000000;stroke-width:0.264583px;stroke-linecap:butt;stroke-linejoin:miter;stroke-opacity:1" />
    <path
       style="fill:#e9b96e;stroke:#000000;stroke-width:0.264583px;stroke-linecap:butt;stroke-linejoin:miter;stroke-opacity:1"
       d="m -30.78477,-43.50534 0.004,3.38125 4.92498,2.84176 2.92829,-1.69035 -2.92671,-1.68872 -4.92987,2.84508 0.002,3.38165 2.92763,-1.69245 0.001,-5.68814 z"
       id="path30129"
       inkscape:connector-curvature="0" />
    <path
       inkscape:connector-curvature="0"
       id="path30131"
       d="m -49.71114,-32.57659 0.004,3.38125 4.92498,2.84176 2.92829,-1.69035 -2.92671,-1.68872 -4.92987,2.84508 0.002,3.38165 2.92763,-1.69245 10e-4,-5.68814 z"
       style="fill:#e9b96e;stroke:#000000;stroke-width:0.264583px;stroke-linecap:butt;stroke-linejoin:miter;stroke-opacity:1" />
    <path
       style="fill:#e9b96e;stroke:#000000;stroke-width:0.264583px;stroke-linecap:butt;stroke-linejoin:miter;stroke-opacity:1"
       d="m -68.6389,-21.6437 0.004,3.38125 4.92498,2.84176 2.92829,-1.69035 -2.92671,-1.68872 -4.92987,2.84508 0.002,3.38165 2.92763,-1.69245 0.001,-5.68814 z"
       id="path30133"
       inkscape:connector-curvature="0" />
    <path
       inkscape:connector-curvature="0"
       id="path30135"
       d="m -87.56885,-32.57231 0.004,3.38125 4.92498,2.84176 2.92829,-1.69035 -2.92671,-1.68872 -4.92987,2.84508 0.002,3.38165 2.92763,-1.69245 0.001,-5.68814 z"
       style="fill:#e9b96e;stroke:#000000;stroke-width:0.264583px;stroke-linecap:butt;stroke-linejoin:miter;stroke-opacity:1" />
    <g
       id="g30842">
      <path
         style="fill:#00ff00;stroke:#000000;stroke-width:0.264583px;stroke-linecap:butt;stroke-linejoin:miter;stroke-opacity:1"
         d="m -60.65073,-76.283628 -0.004,3.38125 -4.92498,2.84176 -2.92829,-1.69035 2.92671,-1.68872 4.92987,2.84508 -0.002,3.38165 -2.92763,-1.69245 -0.001,-5.68814 z"
         id="path30034"
         inkscape:connector-curvature="0" />
      <path
         style="fill:#e9b96e;stroke:#000000;stroke-width:0.264583px;stroke-linecap:butt;stroke-linejoin:miter;stroke-opacity:1"
         d="m -87.57225,-76.282771 0.004,3.38125 4.92498,2.84176 2.92829,-1.69035 -2.92671,-1.68872 -4.92987,2.84508 0.002,3.38165 2.92763,-1.69245 0.001,-5.68814 z"
         id="path30123"
         inkscape:connector-curvature="0" />
      <path
         inkscape:connector-curvature="0"
         id="path30137"
         d="m -68.64438,-87.211711 0.004,3.38125 4.92498,2.84176 2.92829,-1.69035 -2.92671,-1.68872 -4.92987,2.84508 0.002,3.38165 2.92763,-1.69245 0.001,-5.68814 z"
         style="fill:#e9b96e;stroke:#000000;stroke-width:0.264583px;stroke-linecap:butt;stroke-linejoin:miter;stroke-opacity:1" />
      <path
         inkscape:connector-curvature="0"
         id="path30157"
         d="m -79.5794,-87.212751 -0.004,3.38125 -4.92498,2.84176 -2.92829,-1.69035 2.92671,-1.68872 4.92987,2.84508 -0.002,3.38165 -2.92763,-1.69245 -0.001,-5.68814 z"
         style="fill:#00ff00;stroke:#000000;stroke-width:0.264583px;stroke-linecap:butt;stroke-linejoin:miter;stroke-opacity:1" />
    </g>
    <path
       inkscape:connector-curvature="0"
       id="path30171"
       d="m -79.58789,-21.65319 -0.004,3.38125 -4.92498,2.84176 -2.92829,-1.69035 2.92671,-1.68872 4.92987,2.84508 -0.002,3.38165 -2.92763,-1.69245 -0.001,-5.68814 z"
       style="fill:#00ff00;stroke:#000000;stroke-width:0.264583px;stroke-linecap:butt;stroke-linejoin:miter;stroke-opacity:1" />
    <path
       inkscape:connector-curvature="0"
       id="path30205"
       d="m -30.78115,-21.64906 0.004,3.38125 4.92498,2.84176 2.92829,-1.69035 -2.92671,-1.68872 -4.92987,2.84508 0.002,3.38165 2.92763,-1.69245 10e-4,-5.68814 z"
       style="fill:#e9b96e;stroke:#000000;stroke-width:0.264583px;stroke-linecap:butt;stroke-linejoin:miter;stroke-opacity:1" />
    <path
       inkscape:connector-curvature="0"
       id="path30219"
       d="m -30.79001,-87.209064 0.004,3.38125 4.92498,2.84176 2.92829,-1.69035 -2.92671,-1.68872 -4.92987,2.84508 0.002,3.38165 2.92763,-1.69245 0.001,-5.68814 z"
       style="fill:#e9b96e;stroke:#000000;stroke-width:0.264583px;stroke-linecap:butt;stroke-linejoin:miter;stroke-opacity:1" />
    <path
       inkscape:connector-curvature="0"
       id="path30374"
       d="m -22.80088,-10.71476 -0.004,3.38125 -4.92498,2.84176 -2.92829,-1.69035 2.92671,-1.68872 4.92987,2.84508 -0.002,3.38165 -2.92763,-1.69245 -10e-4,-5.68814 z"
       style="fill:#00ff00;stroke:#000000;stroke-width:0.264583px;stroke-linecap:butt;stroke-linejoin:miter;stroke-opacity:1" />
    <path
       style="fill:#00ff00;stroke:#000000;stroke-width:0.264583px;stroke-linecap:butt;stroke-linejoin:miter;stroke-opacity:1"
       d="m -60.65621,-10.715617 -0.004,3.38125 -4.92498,2.84176 -2.92829,-1.69035 2.92671,-1.68872 4.92987,2.84508 -0.002,3.38165 -2.92763,-1.69245 -10e-4,-5.68814 z"
       id="path30376"
       inkscape:connector-curvature="0" />
    <path
       style="fill:#00ff00;stroke:#000000;stroke-width:0.264583px;stroke-linecap:butt;stroke-linejoin:miter;stroke-opacity:1"
       d="m -41.72875,-21.6437 -0.004,3.38125 -4.92498,2.84176 -2.92829,-1.69035 2.92671,-1.68872 4.92987,2.84508 -0.002,3.38165 -2.92763,-1.69245 -10e-4,-5.68814 z"
       id="path30388"
       inkscape:connector-curvature="0" />
    <path
       style="fill:#e9b96e;stroke:#000000;stroke-width:0.264583px;stroke-linecap:butt;stroke-linejoin:miter;stroke-opacity:1"
       d="m -87.57773,-10.71476 0.004,3.38125 4.92498,2.84176 2.92829,-1.69035 -2.92671,-1.68872 -4.92987,2.84508 0.002,3.38165 2.92763,-1.69245 10e-4,-5.68814 z"
       id="path30398"
       inkscape:connector-curvature="0" />
    <path
       inkscape:connector-curvature="0"
       id="path30400"
       d="m -49.7224,-10.715617 0.004,3.38125 4.92498,2.84176 2.92829,-1.69035 -2.92671,-1.68872 -4.92987,2.84508 0.002,3.38165 2.92763,-1.69245 10e-4,-5.68814 z"
       style="fill:#e9b96e;stroke:#000000;stroke-width:0.264583px;stroke-linecap:butt;stroke-linejoin:miter;stroke-opacity:1" />
    <path
       inkscape:connector-curvature="0"
       id="path30412"
       d="m -68.64986,-21.6437 0.004,3.38125 4.92498,2.84176 2.92829,-1.69035 -2.92671,-1.68872 -4.92987,2.84508 0.002,3.38165 2.92763,-1.69245 10e-4,-5.68814 z"
       style="fill:#e9b96e;stroke:#000000;stroke-width:0.264583px;stroke-linecap:butt;stroke-linejoin:miter;stroke-opacity:1" />
    <path
       inkscape:connector-curvature="0"
       id="path30414"
       d="m -79.58488,-21.64474 -0.004,3.38125 -4.92498,2.84176 -2.92829,-1.69035 2.92671,-1.68872 4.92987,2.84508 -0.002,3.38165 -2.92763,-1.69245 -0.001,-5.68814 z"
       style="fill:#00ff00;stroke:#000000;stroke-width:0.264583px;stroke-linecap:butt;stroke-linejoin:miter;stroke-opacity:1" />
    <path
       style="fill:#e9b96e;stroke:#000000;stroke-width:0.264583px;stroke-linecap:butt;stroke-linejoin:miter;stroke-opacity:1"
       d="m -30.79549,-21.641053 0.004,3.38125 4.92498,2.84176 2.92829,-1.69035 -2.92671,-1.68872 -4.92987,2.84508 0.002,3.38165 2.92763,-1.69245 10e-4,-5.68814 z"
       id="path30420"
       inkscape:connector-curvature="0" />
    <g
       style="fill:#204a87"
       transform="translate(37.85533,-8.57e-4)"
       id="g30724">
      <path
         style="fill:#204a87;stroke:#000000;stroke-width:0.264583px;stroke-linecap:butt;stroke-linejoin:miter;stroke-opacity:1"
         d="m -41.72367,-65.357261 -0.004,3.381243 -4.92498,2.841763 -2.92829,-1.690349 2.92671,-1.688722 4.92987,2.845078 -0.002,3.38165 -2.92763,-1.692447 -10e-4,-5.688142 z"
         id="path30652"
         inkscape:connector-curvature="0" />
      <path
         inkscape:connector-curvature="0"
         id="path30654"
         d="m -60.65289,-54.432869 -0.004,3.381243 -4.92498,2.841763 -2.92829,-1.690349 2.92671,-1.688722 4.92987,2.845078 -0.002,3.381652 -2.92763,-1.692449 -10e-4,-5.688142 z"
         style="fill:#204a87;stroke:#000000;stroke-width:0.264583px;stroke-linecap:butt;stroke-linejoin:miter;stroke-opacity:1" />
      <path
         style="fill:#204a87;stroke:#000000;stroke-width:0.264583px;stroke-linecap:butt;stroke-linejoin:miter;stroke-opacity:1"
         d="m -41.72513,-43.49999 -0.004,3.38125 -4.92498,2.84176 -2.92829,-1.69035 2.92671,-1.68872 4.92987,2.84508 -0.002,3.38165 -2.92763,-1.69245 -10e-4,-5.68814 z"
         id="path30656"
         inkscape:connector-curvature="0" />
      <path
         inkscape:connector-curvature="0"
         id="path30658"
         d="m -22.79888,-54.427781 -0.004,3.38125 -4.92498,2.84176 -2.92829,-1.69035 2.92671,-1.68872 4.92987,2.84508 -0.002,3.381647 -2.92763,-1.692447 -0.001,-5.68814 z"
         style="fill:#204a87;stroke:#000000;stroke-width:0.264583px;stroke-linecap:butt;stroke-linejoin:miter;stroke-opacity:1" />
      <path
         style="fill:#204a87;stroke:#000000;stroke-width:0.264583px;stroke-linecap:butt;stroke-linejoin:miter;stroke-opacity:1"
         d="m -22.7954,-76.282771 -0.004,3.38125 -4.92498,2.84176 -2.92829,-1.69035 2.92671,-1.68872 4.92987,2.84508 -0.002,3.38165 -2.92763,-1.69245 -0.001,-5.68814 z"
         id="path30660"
         inkscape:connector-curvature="0" />
      <path
         inkscape:connector-curvature="0"
         id="path30662"
         d="m -60.65073,-76.283628 -0.004,3.38125 -4.92498,2.84176 -2.92829,-1.69035 2.92671,-1.68872 4.92987,2.84508 -0.002,3.38165 -2.92763,-1.69245 -0.001,-5.68814 z"
         style="fill:#204a87;stroke:#000000;stroke-width:0.264583px;stroke-linecap:butt;stroke-linejoin:miter;stroke-opacity:1" />
      <path
         style="fill:#204a87;stroke:#000000;stroke-width:0.264583px;stroke-linecap:butt;stroke-linejoin:miter;stroke-opacity:1"
         d="m -79.5798,-65.358305 -0.004,3.38125 -4.92498,2.84176 -2.92829,-1.69035 2.92671,-1.68872 4.92987,2.84508 -0.002,3.38165 -2.92763,-1.69245 -0.001,-5.68814 z"
         id="path30664"
         inkscape:connector-curvature="0" />
      <path
         inkscape:connector-curvature="0"
         id="path30666"
         d="m -79.58288,-43.50534 -0.004,3.38125 -4.92498,2.84176 -2.92829,-1.69035 2.92671,-1.68872 4.92987,2.84508 -0.002,3.38165 -2.92763,-1.69245 -0.001,-5.68814 z"
         style="fill:#204a87;stroke:#000000;stroke-width:0.264583px;stroke-linecap:butt;stroke-linejoin:miter;stroke-opacity:1" />
      <path
         style="fill:#204a87;stroke:#000000;stroke-width:0.264583px;stroke-linecap:butt;stroke-linejoin:miter;stroke-opacity:1"
         d="m -60.65651,-32.57659 -0.004,3.38125 -4.92498,2.84176 -2.92829,-1.69035 2.92671,-1.68872 4.92987,2.84508 -0.002,3.38165 -2.92763,-1.69245 -10e-4,-5.68814 z"
         id="path30668"
         inkscape:connector-curvature="0" />
      <path
         inkscape:connector-curvature="0"
         id="path30670"
         d="m -41.72875,-21.6437 -0.004,3.38125 -4.92498,2.84176 -2.92829,-1.69035 2.92671,-1.68872 4.92987,2.84508 -0.002,3.38165 -2.92763,-1.69245 -10e-4,-5.68814 z"
         style="fill:#204a87;stroke:#000000;stroke-width:0.264583px;stroke-linecap:butt;stroke-linejoin:miter;stroke-opacity:1" />
      <path
         style="fill:#204a87;stroke:#000000;stroke-width:0.264583px;stroke-linecap:butt;stroke-linejoin:miter;stroke-opacity:1"
         d="m -22.7988,-32.57231 -0.004,3.38125 -4.92498,2.84176 -2.92829,-1.69035 2.92671,-1.68872 4.92987,2.84508 -0.002,3.38165 -2.92763,-1.69245 -10e-4,-5.68814 z"
         id="path30672"
         inkscape:connector-curvature="0" />
      <path
         inkscape:connector-curvature="0"
         id="path30674"
         d="m -41.72327,-87.211711 -0.004,3.38125 -4.92498,2.84176 -2.92829,-1.69035 2.92671,-1.68872 4.92987,2.84508 -0.002,3.38165 -2.92763,-1.69245 -10e-4,-5.68814 z"
         style="fill:#204a87;stroke:#000000;stroke-width:0.264583px;stroke-linecap:butt;stroke-linejoin:miter;stroke-opacity:1" />
      <path
         inkscape:connector-curvature="0"
         id="path30676"
         d="m -68.64398,-65.357261 0.004,3.381243 4.92498,2.841763 2.92829,-1.690349 -2.92671,-1.688722 -4.92987,2.845078 0.002,3.38165 2.92763,-1.692447 0.001,-5.688142 z"
         style="fill:#204a87;stroke:#000000;stroke-width:0.264583px;stroke-linecap:butt;stroke-linejoin:miter;stroke-opacity:1" />
      <path
         style="fill:#204a87;stroke:#000000;stroke-width:0.264583px;stroke-linecap:butt;stroke-linejoin:miter;stroke-opacity:1"
         d="m -49.71476,-54.432869 0.004,3.381243 4.92498,2.841763 2.92829,-1.690349 -2.92671,-1.688722 -4.92987,2.845078 0.002,3.381652 2.92763,-1.692449 10e-4,-5.688142 z"
         id="path30678"
         inkscape:connector-curvature="0" />
      <path
         inkscape:connector-curvature="0"
         id="path30680"
         d="m -68.64252,-43.49999 0.004,3.38125 4.92498,2.84176 2.92829,-1.69035 -2.92671,-1.68872 -4.92987,2.84508 0.002,3.38165 2.92763,-1.69245 10e-4,-5.68814 z"
         style="fill:#204a87;stroke:#000000;stroke-width:0.264583px;stroke-linecap:butt;stroke-linejoin:miter;stroke-opacity:1" />
      <path
         style="fill:#204a87;stroke:#000000;stroke-width:0.264583px;stroke-linecap:butt;stroke-linejoin:miter;stroke-opacity:1"
         d="m -87.56877,-54.427781 0.004,3.38125 4.92498,2.84176 2.92829,-1.69035 -2.92671,-1.68872 -4.92987,2.84508 0.002,3.381647 2.92763,-1.692447 0.001,-5.68814 z"
         id="path30682"
         inkscape:connector-curvature="0" />
      <path
         inkscape:connector-curvature="0"
         id="path30684"
         d="m -87.57225,-76.282771 0.004,3.38125 4.92498,2.84176 2.92829,-1.69035 -2.92671,-1.68872 -4.92987,2.84508 0.002,3.38165 2.92763,-1.69245 0.001,-5.68814 z"
         style="fill:#204a87;stroke:#000000;stroke-width:0.264583px;stroke-linecap:butt;stroke-linejoin:miter;stroke-opacity:1" />
      <path
         style="fill:#204a87;stroke:#000000;stroke-width:0.264583px;stroke-linecap:butt;stroke-linejoin:miter;stroke-opacity:1"
         d="m -49.71692,-76.283628 0.004,3.38125 4.92498,2.84176 2.92829,-1.69035 -2.92671,-1.68872 -4.92987,2.84508 0.002,3.38165 2.92763,-1.69245 10e-4,-5.68814 z"
         id="path30686"
         inkscape:connector-curvature="0" />
      <path
         inkscape:connector-curvature="0"
         id="path30688"
         d="m -30.78785,-65.358305 0.004,3.38125 4.92498,2.84176 2.92829,-1.69035 -2.92671,-1.68872 -4.92987,2.84508 0.002,3.38165 2.92763,-1.69245 0.001,-5.68814 z"
         style="fill:#204a87;stroke:#000000;stroke-width:0.264583px;stroke-linecap:butt;stroke-linejoin:miter;stroke-opacity:1" />
      <path
         style="fill:#204a87;stroke:#000000;stroke-width:0.264583px;stroke-linecap:butt;stroke-linejoin:miter;stroke-opacity:1"
         d="m -30.78477,-43.50534 0.004,3.38125 4.92498,2.84176 2.92829,-1.69035 -2.92671,-1.68872 -4.92987,2.84508 0.002,3.38165 2.92763,-1.69245 0.001,-5.68814 z"
         id="path30690"
         inkscape:connector-curvature="0" />
      <path
         inkscape:connector-curvature="0"
         id="path30692"
         d="m -49.71114,-32.57659 0.004,3.38125 4.92498,2.84176 2.92829,-1.69035 -2.92671,-1.68872 -4.92987,2.84508 0.002,3.38165 2.92763,-1.69245 10e-4,-5.68814 z"
         style="fill:#204a87;stroke:#000000;stroke-width:0.264583px;stroke-linecap:butt;stroke-linejoin:miter;stroke-opacity:1" />
      <path
         style="fill:#204a87;stroke:#000000;stroke-width:0.264583px;stroke-linecap:butt;stroke-linejoin:miter;stroke-opacity:1"
         d="m -68.6389,-21.6437 0.004,3.38125 4.92498,2.84176 2.92829,-1.69035 -2.92671,-1.68872 -4.92987,2.84508 0.002,3.38165 2.92763,-1.69245 0.001,-5.68814 z"
         id="path30694"
         inkscape:connector-curvature="0" />
      <path
         inkscape:connector-curvature="0"
         id="path30696"
         d="m -87.56885,-32.57231 0.004,3.38125 4.92498,2.84176 2.92829,-1.69035 -2.92671,-1.68872 -4.92987,2.84508 0.002,3.38165 2.92763,-1.69245 0.001,-5.68814 z"
         style="fill:#204a87;stroke:#000000;stroke-width:0.264583px;stroke-linecap:butt;stroke-linejoin:miter;stroke-opacity:1" />
      <path
         style="fill:#204a87;stroke:#000000;stroke-width:0.264583px;stroke-linecap:butt;stroke-linejoin:miter;stroke-opacity:1"
         d="m -68.64438,-87.211711 0.004,3.38125 4.92498,2.84176 2.92829,-1.69035 -2.92671,-1.68872 -4.92987,2.84508 0.002,3.38165 2.92763,-1.69245 0.001,-5.68814 z"
         id="path30698"
         inkscape:connector-curvature="0" />
      <path
         style="fill:#204a87;stroke:#000000;stroke-width:0.264583px;stroke-linecap:butt;stroke-linejoin:miter;stroke-opacity:1"
         d="m -79.5794,-87.212751 -0.004,3.38125 -4.92498,2.84176 -2.92829,-1.69035 2.92671,-1.68872 4.92987,2.84508 -0.002,3.38165 -2.92763,-1.69245 -0.001,-5.68814 z"
         id="path30700"
         inkscape:connector-curvature="0" />
      <path
         inkscape:connector-curvature="0"
         id="path30702"
         d="m -79.58789,-21.65319 -0.004,3.38125 -4.92498,2.84176 -2.92829,-1.69035 2.92671,-1.68872 4.92987,2.84508 -0.002,3.38165 -2.92763,-1.69245 -0.001,-5.68814 z"
         style="fill:#204a87;stroke:#000000;stroke-width:0.264583px;stroke-linecap:butt;stroke-linejoin:miter;stroke-opacity:1" />
      <path
         inkscape:connector-curvature="0"
         id="path30704"
         d="m -30.78115,-21.64906 0.004,3.38125 4.92498,2.84176 2.92829,-1.69035 -2.92671,-1.68872 -4.92987,2.84508 0.002,3.38165 2.92763,-1.69245 10e-4,-5.68814 z"
         style="fill:#204a87;stroke:#000000;stroke-width:0.264583px;stroke-linecap:butt;stroke-linejoin:miter;stroke-opacity:1" />
      <path
         inkscape:connector-curvature="0"
         id="path30706"
         d="m -30.79001,-87.209064 0.004,3.38125 4.92498,2.84176 2.92829,-1.69035 -2.92671,-1.68872 -4.92987,2.84508 0.002,3.38165 2.92763,-1.69245 0.001,-5.68814 z"
         style="fill:#204a87;stroke:#000000;stroke-width:0.264583px;stroke-linecap:butt;stroke-linejoin:miter;stroke-opacity:1" />
      <path
         inkscape:connector-curvature="0"
         id="path30708"
         d="m -22.80088,-10.71476 -0.004,3.38125 -4.92498,2.84176 -2.92829,-1.69035 2.92671,-1.68872 4.92987,2.84508 -0.002,3.38165 -2.92763,-1.69245 -10e-4,-5.68814 z"
         style="fill:#204a87;stroke:#000000;stroke-width:0.264583px;stroke-linecap:butt;stroke-linejoin:miter;stroke-opacity:1" />
      <path
         style="fill:#204a87;stroke:#000000;stroke-width:0.264583px;stroke-linecap:butt;stroke-linejoin:miter;stroke-opacity:1"
         d="m -60.65621,-10.715617 -0.004,3.38125 -4.92498,2.84176 -2.92829,-1.69035 2.92671,-1.68872 4.92987,2.84508 -0.002,3.38165 -2.92763,-1.69245 -10e-4,-5.68814 z"
         id="path30710"
         inkscape:connector-curvature="0" />
      <path
         style="fill:#204a87;stroke:#000000;stroke-width:0.264583px;stroke-linecap:butt;stroke-linejoin:miter;stroke-opacity:1"
         d="m -41.72875,-21.6437 -0.004,3.38125 -4.92498,2.84176 -2.92829,-1.69035 2.92671,-1.68872 4.92987,2.84508 -0.002,3.38165 -2.92763,-1.69245 -10e-4,-5.68814 z"
         id="path30712"
         inkscape:connector-curvature="0" />
      <path
         style="fill:#204a87;stroke:#000000;stroke-width:0.264583px;stroke-linecap:butt;stroke-linejoin:miter;stroke-opacity:1"
         d="m -87.57773,-10.71476 0.004,3.38125 4.92498,2.84176 2.92829,-1.69035 -2.92671,-1.68872 -4.92987,2.84508 0.002,3.38165 2.92763,-1.69245 10e-4,-5.68814 z"
         id="path30714"
         inkscape:connector-curvature="0" />
      <path
         inkscape:connector-curvature="0"
         id="path30716"
         d="m -49.7224,-10.715617 0.004,3.38125 4.92498,2.84176 2.92829,-1.69035 -2.92671,-1.68872 -4.92987,2.84508 0.002,3.38165 2.92763,-1.69245 10e-4,-5.68814 z"
         style="fill:#204a87;stroke:#000000;stroke-width:0.264583px;stroke-linecap:butt;stroke-linejoin:miter;stroke-opacity:1" />
      <path
         inkscape:connector-curvature="0"
         id="path30718"
         d="m -68.64986,-21.6437 0.004,3.38125 4.92498,2.84176 2.92829,-1.69035 -2.92671,-1.68872 -4.92987,2.84508 0.002,3.38165 2.92763,-1.69245 10e-4,-5.68814 z"
         style="fill:#204a87;stroke:#000000;stroke-width:0.264583px;stroke-linecap:butt;stroke-linejoin:miter;stroke-opacity:1" />
      <path
         inkscape:connector-curvature="0"
         id="path30720"
         d="m -79.58488,-21.64474 -0.004,3.38125 -4.92498,2.84176 -2.92829,-1.69035 2.92671,-1.68872 4.92987,2.84508 -0.002,3.38165 -2.92763,-1.69245 -0.001,-5.68814 z"
         style="fill:#204a87;stroke:#000000;stroke-width:0.264583px;stroke-linecap:butt;stroke-linejoin:miter;stroke-opacity:1" />
      <path
         style="fill:#204a87;stroke:#000000;stroke-width:0.264583px;stroke-linecap:butt;stroke-linejoin:miter;stroke-opacity:1"
         d="m -30.79549,-21.641053 0.004,3.38125 4.92498,2.84176 2.92829,-1.69035 -2.92671,-1.68872 -4.92987,2.84508 0.002,3.38165 2.92763,-1.69245 10e-4,-5.68814 z"
         id="path30722"
         inkscape:connector-curvature="0" />
    </g>
    <path
       inkscape:connector-curvature="0"
       id="path30730"
       d="m -60.64941,-32.577879 -0.004,3.381243 -4.92498,2.841763 -2.92829,-1.690349 2.92671,-1.688722 4.92987,2.845078 -0.002,3.381652 -2.92763,-1.692449 -0.001,-5.688142 z"
       style="fill:#204a87;stroke:#000000;stroke-width:0.264583px;stroke-linecap:butt;stroke-linejoin:miter;stroke-opacity:1" />
    <path
       style="fill:#204a87;stroke:#000000;stroke-width:0.264583px;stroke-linecap:butt;stroke-linejoin:miter;stroke-opacity:1"
       d="m -41.72165,-21.645 -0.004,3.38125 -4.92498,2.84176 -2.92829,-1.69035 2.92671,-1.68872 4.92987,2.84508 -0.002,3.38165 -2.92763,-1.69245 -0.001,-5.68814 z"
       id="path30732"
       inkscape:connector-curvature="0" />
    <path
       inkscape:connector-curvature="0"
       id="path30734"
       d="m -22.7954,-32.572791 -0.004,3.38125 -4.92498,2.84176 -2.92829,-1.69035 2.92671,-1.68872 4.92987,2.84508 -0.002,3.381647 -2.92763,-1.692447 -0.001,-5.68814 z"
       style="fill:#204a87;stroke:#000000;stroke-width:0.264583px;stroke-linecap:butt;stroke-linejoin:miter;stroke-opacity:1" />
    <path
       style="fill:#204a87;stroke:#000000;stroke-width:0.264583px;stroke-linecap:butt;stroke-linejoin:miter;stroke-opacity:1"
       d="m -22.79192,-54.427781 -0.004,3.38125 -4.92498,2.84176 -2.92829,-1.69035 2.92671,-1.68872 4.92987,2.84508 -0.002,3.38165 -2.92763,-1.69245 -0.001,-5.68814 z"
       id="path30736"
       inkscape:connector-curvature="0" />
    <path
       inkscape:connector-curvature="0"
       id="path30742"
       d="m -79.5794,-21.65035 -0.004,3.38125 -4.92498,2.84176 -2.92829,-1.69035 2.92671,-1.68872 4.92987,2.84508 -0.002,3.38165 -2.92763,-1.69245 -0.001,-5.68814 z"
       style="fill:#204a87;stroke:#000000;stroke-width:0.264583px;stroke-linecap:butt;stroke-linejoin:miter;stroke-opacity:1" />
    <path
       style="fill:#204a87;stroke:#000000;stroke-width:0.264583px;stroke-linecap:butt;stroke-linejoin:miter;stroke-opacity:1"
       d="m -60.65303,-10.7216 -0.004,3.38125 -4.92498,2.84176 -2.92829,-1.69035 2.92671,-1.68872 4.92987,2.84508 -0.002,3.38165 -2.92763,-1.69245 -10e-4,-5.68814 z"
       id="path30744"
       inkscape:connector-curvature="0" />
    <path
       inkscape:connector-curvature="0"
       id="path30746"
       d="m -41.72527,0.21129 -0.004,3.38125 -4.92498,2.84176 -2.92829,-1.69035 2.92671,-1.68872 4.92987,2.84508 -0.002,3.38165 -2.92763,-1.69245 -0.001,-5.68814 z"
       style="fill:#204a87;stroke:#000000;stroke-width:0.264583px;stroke-linecap:butt;stroke-linejoin:miter;stroke-opacity:1" />
    <path
       style="fill:#204a87;stroke:#000000;stroke-width:0.264583px;stroke-linecap:butt;stroke-linejoin:miter;stroke-opacity:1"
       d="m -22.79532,-10.71732 -0.004,3.38125 -4.92498,2.84176 -2.92829,-1.69035 2.92671,-1.68872 4.92987,2.84508 -0.002,3.38165 -2.92763,-1.69245 -0.001,-5.68814 z"
       id="path30748"
       inkscape:connector-curvature="0" />
    <path
       style="fill:#204a87;stroke:#000000;stroke-width:0.264583px;stroke-linecap:butt;stroke-linejoin:miter;stroke-opacity:1"
       d="m -49.71128,-32.577879 0.004,3.381243 4.92498,2.841763 2.92829,-1.690349 -2.92671,-1.688722 -4.92987,2.845078 0.002,3.381652 2.92763,-1.692449 10e-4,-5.688142 z"
       id="path30754"
       inkscape:connector-curvature="0" />
    <path
       inkscape:connector-curvature="0"
       id="path30756"
       d="m -68.63904,-21.645 0.004,3.38125 4.92498,2.84176 2.92829,-1.69035 -2.92671,-1.68872 -4.92987,2.84508 0.002,3.38165 2.92763,-1.69245 0.001,-5.68814 z"
       style="fill:#204a87;stroke:#000000;stroke-width:0.264583px;stroke-linecap:butt;stroke-linejoin:miter;stroke-opacity:1" />
    <path
       style="fill:#204a87;stroke:#000000;stroke-width:0.264583px;stroke-linecap:butt;stroke-linejoin:miter;stroke-opacity:1"
       d="m -87.56529,-32.572791 0.004,3.38125 4.92498,2.84176 2.92829,-1.69035 -2.92671,-1.68872 -4.92987,2.84508 0.002,3.381647 2.92763,-1.692447 10e-4,-5.68814 z"
       id="path30758"
       inkscape:connector-curvature="0" />
    <path
       inkscape:connector-curvature="0"
       id="path30764"
       d="m -30.78437,-43.503315 0.004,3.38125 4.92498,2.84176 2.92829,-1.69035 -2.92671,-1.68872 -4.92987,2.84508 0.002,3.38165 2.92763,-1.69245 0.001,-5.68814 z"
       style="fill:#204a87;stroke:#000000;stroke-width:0.264583px;stroke-linecap:butt;stroke-linejoin:miter;stroke-opacity:1" />
    <path
       style="fill:#204a87;stroke:#000000;stroke-width:0.264583px;stroke-linecap:butt;stroke-linejoin:miter;stroke-opacity:1"
       d="m -30.78129,-21.65035 0.004,3.38125 4.92498,2.84176 2.92829,-1.69035 -2.92671,-1.68872 -4.92987,2.84508 0.002,3.38165 2.92763,-1.69245 0.001,-5.68814 z"
       id="path30766"
       inkscape:connector-curvature="0" />
    <path
       inkscape:connector-curvature="0"
       id="path30768"
       d="m -49.70766,-10.7216 0.004,3.38125 4.92498,2.84176 2.92829,-1.69035 -2.92671,-1.68872 -4.92987,2.84508 0.002,3.38165 2.92763,-1.69245 0.001,-5.68814 z"
       style="fill:#204a87;stroke:#000000;stroke-width:0.264583px;stroke-linecap:butt;stroke-linejoin:miter;stroke-opacity:1" />
    <path
       style="fill:#204a87;stroke:#000000;stroke-width:0.264583px;stroke-linecap:butt;stroke-linejoin:miter;stroke-opacity:1"
       d="m -68.63542,0.21129 0.004,3.38125 4.92498,2.84176 2.92829,-1.69035 -2.92671,-1.68872 -4.92987,2.84508 0.002,3.38165 2.92763,-1.69245 0.001,-5.68814 z"
       id="path30770"
       inkscape:connector-curvature="0" />
    <path
       inkscape:connector-curvature="0"
       id="path30772"
       d="m -87.56537,-10.71732 0.004,3.38125 4.92498,2.84176 2.92829,-1.69035 -2.92671,-1.68872 -4.92987,2.84508 0.002,3.38165 2.92763,-1.69245 0.001,-5.68814 z"
       style="fill:#204a87;stroke:#000000;stroke-width:0.264583px;stroke-linecap:butt;stroke-linejoin:miter;stroke-opacity:1" />
    <g
       transform="matrix(-1,0,0,1,-129.28856,0)"
       id="g31023">
      <path
         inkscape:connector-curvature="0"
         id="path30728"
         d="m -41.72019,-43.502271 -0.004,3.381243 -4.92498,2.841763 -2.92829,-1.690349 2.92671,-1.688722 4.92987,2.845078 -0.002,3.38165 -2.92763,-1.692447 -0.001,-5.688142 z"
         style="fill:#204a87;stroke:#000000;stroke-width:0.264583px;stroke-linecap:butt;stroke-linejoin:miter;stroke-opacity:1" />
      <path
         style="fill:#204a87;stroke:#000000;stroke-width:0.264583px;stroke-linecap:butt;stroke-linejoin:miter;stroke-opacity:1"
         d="m -60.64725,-54.428638 -0.004,3.38125 -4.92498,2.84176 -2.92829,-1.69035 2.92671,-1.68872 4.92987,2.84508 -0.002,3.38165 -2.92763,-1.69245 -10e-4,-5.68814 z"
         id="path30738"
         inkscape:connector-curvature="0" />
      <path
         inkscape:connector-curvature="0"
         id="path30740"
         d="m -79.57632,-43.503315 -0.004,3.38125 -4.92498,2.84176 -2.92829,-1.69035 2.92671,-1.68872 4.92987,2.84508 -0.002,3.38165 -2.92763,-1.69245 -10e-4,-5.68814 z"
         style="fill:#204a87;stroke:#000000;stroke-width:0.264583px;stroke-linecap:butt;stroke-linejoin:miter;stroke-opacity:1" />
      <path
         style="fill:#204a87;stroke:#000000;stroke-width:0.264583px;stroke-linecap:butt;stroke-linejoin:miter;stroke-opacity:1"
         d="m -41.71979,-65.356721 -0.004,3.38125 -4.92498,2.84176 -2.92829,-1.69035 2.92671,-1.68872 4.92987,2.84508 -0.002,3.38165 -2.92763,-1.69245 -0.001,-5.68814 z"
         id="path30750"
         inkscape:connector-curvature="0" />
      <path
         style="fill:#204a87;stroke:#000000;stroke-width:0.264583px;stroke-linecap:butt;stroke-linejoin:miter;stroke-opacity:1"
         d="m -68.6405,-43.502271 0.004,3.381243 4.92498,2.841763 2.92829,-1.690349 -2.92671,-1.688722 -4.92987,2.845078 0.002,3.38165 2.92763,-1.692447 10e-4,-5.688142 z"
         id="path30752"
         inkscape:connector-curvature="0" />
      <path
         style="fill:#204a87;stroke:#000000;stroke-width:0.264583px;stroke-linecap:butt;stroke-linejoin:miter;stroke-opacity:1"
         d="m -87.56877,-54.427781 0.004,3.38125 4.92498,2.84176 2.92829,-1.69035 -2.92671,-1.68872 -4.92987,2.84508 0.002,3.38165 2.92763,-1.69245 0.001,-5.68814 z"
         id="path30760"
         inkscape:connector-curvature="0" />
      <path
         inkscape:connector-curvature="0"
         id="path30762"
         d="m -49.71344,-54.428638 0.004,3.38125 4.92498,2.84176 2.92829,-1.69035 -2.92671,-1.68872 -4.92987,2.84508 0.002,3.38165 2.92763,-1.69245 10e-4,-5.68814 z"
         style="fill:#204a87;stroke:#000000;stroke-width:0.264583px;stroke-linecap:butt;stroke-linejoin:miter;stroke-opacity:1" />
      <path
         inkscape:connector-curvature="0"
         id="path30774"
         d="m -68.6409,-65.356721 0.004,3.38125 4.92498,2.84176 2.92829,-1.69035 -2.92671,-1.68872 -4.92987,2.84508 0.002,3.38165 2.92763,-1.69245 10e-4,-5.68814 z"
         style="fill:#204a87;stroke:#000000;stroke-width:0.264583px;stroke-linecap:butt;stroke-linejoin:miter;stroke-opacity:1" />
      <path
         inkscape:connector-curvature="0"
         id="path30776"
         d="m -79.57592,-65.357761 -0.004,3.38125 -4.92498,2.84176 -2.92829,-1.69035 2.92671,-1.68872 4.92987,2.84508 -0.002,3.38165 -2.92763,-1.69245 -10e-4,-5.68814 z"
         style="fill:#204a87;stroke:#000000;stroke-width:0.264583px;stroke-linecap:butt;stroke-linejoin:miter;stroke-opacity:1" />
    </g>
    <path
       inkscape:connector-curvature="0"
       id="path30778"
       d="m -79.58441,0.2018 -0.004,3.38125 -4.92498,2.84176 -2.92829,-1.69035 2.92671,-1.68872 4.92987,2.84508 -0.002,3.38165 -2.92763,-1.69245 -0.001,-5.68814 z"
       style="fill:#204a87;stroke:#000000;stroke-width:0.264583px;stroke-linecap:butt;stroke-linejoin:miter;stroke-opacity:1" />
    <path
       inkscape:connector-curvature="0"
       id="path30780"
       d="m -30.77767,0.20593 0.004,3.38125 4.92498,2.84176 2.92829,-1.69035 -2.92671,-1.68872 -4.92987,2.84508 0.002,3.38165 2.92763,-1.69245 10e-4,-5.68814 z"
       style="fill:#204a87;stroke:#000000;stroke-width:0.264583px;stroke-linecap:butt;stroke-linejoin:miter;stroke-opacity:1" />
    <path
       inkscape:connector-curvature="0"
       id="path30782"
       d="m -30.78653,-65.354074 0.004,3.38125 4.92498,2.84176 2.92829,-1.69035 -2.92671,-1.68872 -4.92987,2.84508 0.002,3.38165 2.92763,-1.69245 0.001,-5.68814 z"
       style="fill:#204a87;stroke:#000000;stroke-width:0.264583px;stroke-linecap:butt;stroke-linejoin:miter;stroke-opacity:1" />
    <path
       inkscape:connector-curvature="0"
       id="path30784"
       d="m -22.7974,11.14023 -0.004,3.38125 -4.92498,2.84176 -2.92829,-1.69035 2.92671,-1.68872 4.92987,2.84508 -0.002,3.38165 -2.92763,-1.69245 -10e-4,-5.68814 z"
       style="fill:#204a87;stroke:#000000;stroke-width:0.264583px;stroke-linecap:butt;stroke-linejoin:miter;stroke-opacity:1" />
    <path
       style="fill:#204a87;stroke:#000000;stroke-width:0.264583px;stroke-linecap:butt;stroke-linejoin:miter;stroke-opacity:1"
       d="m -60.65273,11.139373 -0.004,3.38125 -4.92498,2.84176 -2.92829,-1.69035 2.92671,-1.68872 4.92987,2.84508 -0.002,3.38165 -2.92763,-1.69245 -10e-4,-5.68814 z"
       id="path30786"
       inkscape:connector-curvature="0" />
    <path
       style="fill:#204a87;stroke:#000000;stroke-width:0.264583px;stroke-linecap:butt;stroke-linejoin:miter;stroke-opacity:1"
       d="m -41.72527,0.21129 -0.004,3.38125 -4.92498,2.84176 -2.92829,-1.69035 2.92671,-1.68872 4.92987,2.84508 -0.002,3.38165 -2.92763,-1.69245 -0.001,-5.68814 z"
       id="path30788"
       inkscape:connector-curvature="0" />
    <path
       style="fill:#204a87;stroke:#000000;stroke-width:0.264583px;stroke-linecap:butt;stroke-linejoin:miter;stroke-opacity:1"
       d="m -87.57425,11.14023 0.004,3.38125 4.92498,2.84176 2.92829,-1.69035 -2.92671,-1.68872 -4.92987,2.84508 0.002,3.38165 2.92763,-1.69245 10e-4,-5.68814 z"
       id="path30790"
       inkscape:connector-curvature="0" />
    <path
       inkscape:connector-curvature="0"
       id="path30792"
       d="m -49.71892,11.139373 0.004,3.38125 4.92498,2.84176 2.92829,-1.69035 -2.92671,-1.68872 -4.92987,2.84508 0.002,3.38165 2.92763,-1.69245 0.001,-5.68814 z"
       style="fill:#204a87;stroke:#000000;stroke-width:0.264583px;stroke-linecap:butt;stroke-linejoin:miter;stroke-opacity:1" />
    <path
       inkscape:connector-curvature="0"
       id="path30794"
       d="m -68.64638,0.21129 0.004,3.38125 4.92498,2.84176 2.92829,-1.69035 -2.92671,-1.68872 -4.92987,2.84508 0.002,3.38165 2.92763,-1.69245 0.001,-5.68814 z"
       style="fill:#204a87;stroke:#000000;stroke-width:0.264583px;stroke-linecap:butt;stroke-linejoin:miter;stroke-opacity:1" />
    <path
       inkscape:connector-curvature="0"
       id="path30796"
       d="m -79.5814,0.21025 -0.004,3.38125 -4.92498,2.84176 -2.92829,-1.69035 2.92671,-1.68872 4.92987,2.84508 -0.002,3.38165 -2.92763,-1.69245 -0.001,-5.68814 z"
       style="fill:#204a87;stroke:#000000;stroke-width:0.264583px;stroke-linecap:butt;stroke-linejoin:miter;stroke-opacity:1" />
    <path
       style="fill:#204a87;stroke:#000000;stroke-width:0.264583px;stroke-linecap:butt;stroke-linejoin:miter;stroke-opacity:1"
       d="m -30.79201,0.213937 0.004,3.38125 4.92498,2.84176 2.92829,-1.69035 -2.92671,-1.68872 -4.92987,2.84508 0.002,3.38165 2.92763,-1.69245 10e-4,-5.68814 z"
       id="path30798"
       inkscape:connector-curvature="0" />
    <path
       sodipodi:nodetypes="cc"
       inkscape:connector-curvature="0"
       id="path30844"
       d="m -60.78711,-82.679051 h 5.603284"
       style="fill:none;stroke:#000000;stroke-width:0.264583px;stroke-linecap:butt;stroke-linejoin:miter;stroke-opacity:1" />
    <path
       style="fill:none;stroke:#000000;stroke-width:0.264583px;stroke-linecap:butt;stroke-linejoin:miter;stroke-opacity:1"
       d="m -93.039954,-82.680091 h 5.603284"
       id="path30846"
       inkscape:connector-curvature="0"
       sodipodi:nodetypes="cc" />
    <path
       style="fill:#204a87;stroke:#000000;stroke-width:0.264583px;stroke-linecap:butt;stroke-linejoin:miter;stroke-opacity:1"
       d="m -60.649408,-32.577879 -0.004,3.381243 -4.92498,2.841763 -2.92829,-1.690349 2.92671,-1.688722 4.92987,2.845078 -0.002,3.381652 -2.92763,-1.692449 -10e-4,-5.688142 z"
       id="path30850"
       inkscape:connector-curvature="0" />
    <path
       inkscape:connector-curvature="0"
       id="path30852"
       d="m -41.721648,-21.645 -0.004,3.38125 -4.92498,2.84176 -2.92829,-1.69035 2.92671,-1.68872 4.92987,2.84508 -0.002,3.38165 -2.92763,-1.69245 -0.001,-5.68814 z"
       style="fill:#204a87;stroke:#000000;stroke-width:0.264583px;stroke-linecap:butt;stroke-linejoin:miter;stroke-opacity:1" />
    <path
       style="fill:#204a87;stroke:#000000;stroke-width:0.264583px;stroke-linecap:butt;stroke-linejoin:miter;stroke-opacity:1"
       d="m -22.795398,-32.572791 -0.004,3.38125 -4.92498,2.84176 -2.92829,-1.69035 2.92671,-1.68872 4.92987,2.84508 -0.002,3.381647 -2.92763,-1.692447 -0.001,-5.68814 z"
       id="path30854"
       inkscape:connector-curvature="0" />
    <path
       inkscape:connector-curvature="0"
       id="path30856"
       d="m -22.791918,-54.427781 -0.004,3.38125 -4.92498,2.84176 -2.92829,-1.69035 2.92671,-1.68872 4.92987,2.84508 -0.002,3.38165 -2.92763,-1.69245 -10e-4,-5.68814 z"
       style="fill:#204a87;stroke:#000000;stroke-width:0.264583px;stroke-linecap:butt;stroke-linejoin:miter;stroke-opacity:1" />
    <path
       style="fill:#204a87;stroke:#000000;stroke-width:0.264583px;stroke-linecap:butt;stroke-linejoin:miter;stroke-opacity:1"
       d="m -79.579398,-21.65035 -0.004,3.38125 -4.92498,2.84176 -2.92829,-1.69035 2.92671,-1.68872 4.92987,2.84508 -0.002,3.38165 -2.92763,-1.69245 -10e-4,-5.68814 z"
       id="path30862"
       inkscape:connector-curvature="0" />
    <path
       inkscape:connector-curvature="0"
       id="path30864"
       d="m -60.653028,-10.7216 -0.004,3.38125 -4.92498,2.84176 -2.92829,-1.69035 2.92671,-1.68872 4.92987,2.84508 -0.002,3.38165 -2.92763,-1.69245 -10e-4,-5.68814 z"
       style="fill:#204a87;stroke:#000000;stroke-width:0.264583px;stroke-linecap:butt;stroke-linejoin:miter;stroke-opacity:1" />
    <path
       style="fill:#204a87;stroke:#000000;stroke-width:0.264583px;stroke-linecap:butt;stroke-linejoin:miter;stroke-opacity:1"
       d="m -41.725268,0.21129 -0.004,3.38125 -4.92498,2.84176 -2.92829,-1.69035 2.92671,-1.68872 4.92987,2.84508 -0.002,3.38165 -2.92763,-1.69245 -10e-4,-5.68814 z"
       id="path30866"
       inkscape:connector-curvature="0" />
    <path
       inkscape:connector-curvature="0"
       id="path30868"
       d="m -22.795318,-10.71732 -0.004,3.38125 -4.92498,2.84176 -2.92829,-1.69035 2.92671,-1.68872 4.92987,2.84508 -0.002,3.38165 -2.92763,-1.69245 -0.001,-5.68814 z"
       style="fill:#204a87;stroke:#000000;stroke-width:0.264583px;stroke-linecap:butt;stroke-linejoin:miter;stroke-opacity:1" />
    <path
       inkscape:connector-curvature="0"
       id="path30874"
       d="m -49.711278,-32.577879 0.004,3.381243 4.92498,2.841763 2.92829,-1.690349 -2.92671,-1.688722 -4.92987,2.845078 0.002,3.381652 2.92763,-1.692449 10e-4,-5.688142 z"
       style="fill:#204a87;stroke:#000000;stroke-width:0.264583px;stroke-linecap:butt;stroke-linejoin:miter;stroke-opacity:1" />
    <path
       style="fill:#204a87;stroke:#000000;stroke-width:0.264583px;stroke-linecap:butt;stroke-linejoin:miter;stroke-opacity:1"
       d="m -68.639038,-21.645 0.004,3.38125 4.92498,2.84176 2.92829,-1.69035 -2.92671,-1.68872 -4.92987,2.84508 0.002,3.38165 2.92763,-1.69245 0.001,-5.68814 z"
       id="path30876"
       inkscape:connector-curvature="0" />
    <path
       inkscape:connector-curvature="0"
       id="path30878"
       d="m -87.565288,-32.572791 0.004,3.38125 4.92498,2.84176 2.92829,-1.69035 -2.92671,-1.68872 -4.92987,2.84508 0.002,3.381647 2.92763,-1.692447 0.001,-5.68814 z"
       style="fill:#204a87;stroke:#000000;stroke-width:0.264583px;stroke-linecap:butt;stroke-linejoin:miter;stroke-opacity:1" />
    <path
       style="fill:#204a87;stroke:#000000;stroke-width:0.264583px;stroke-linecap:butt;stroke-linejoin:miter;stroke-opacity:1"
       d="m -30.784368,-43.503315 0.004,3.38125 4.92498,2.84176 2.92829,-1.69035 -2.92671,-1.68872 -4.92987,2.84508 0.002,3.38165 2.92763,-1.69245 10e-4,-5.68814 z"
       id="path30884"
       inkscape:connector-curvature="0" />
    <path
       inkscape:connector-curvature="0"
       id="path30886"
       d="m -30.781288,-21.65035 0.004,3.38125 4.92498,2.84176 2.92829,-1.69035 -2.92671,-1.68872 -4.92987,2.84508 0.002,3.38165 2.92763,-1.69245 0.001,-5.68814 z"
       style="fill:#204a87;stroke:#000000;stroke-width:0.264583px;stroke-linecap:butt;stroke-linejoin:miter;stroke-opacity:1" />
    <path
       style="fill:#204a87;stroke:#000000;stroke-width:0.264583px;stroke-linecap:butt;stroke-linejoin:miter;stroke-opacity:1"
       d="m -49.707658,-10.7216 0.004,3.38125 4.92498,2.84176 2.92829,-1.69035 -2.92671,-1.68872 -4.92987,2.84508 0.002,3.38165 2.92763,-1.69245 10e-4,-5.68814 z"
       id="path30888"
       inkscape:connector-curvature="0" />
    <path
       inkscape:connector-curvature="0"
       id="path30890"
       d="m -68.635418,0.21129 0.004,3.38125 4.92498,2.84176 2.92829,-1.69035 -2.92671,-1.68872 -4.92987,2.84508 0.002,3.38165 2.92763,-1.69245 0.001,-5.68814 z"
       style="fill:#204a87;stroke:#000000;stroke-width:0.264583px;stroke-linecap:butt;stroke-linejoin:miter;stroke-opacity:1" />
    <path
       style="fill:#204a87;stroke:#000000;stroke-width:0.264583px;stroke-linecap:butt;stroke-linejoin:miter;stroke-opacity:1"
       d="m -87.565368,-10.71732 0.004,3.38125 4.92498,2.84176 2.92829,-1.69035 -2.92671,-1.68872 -4.92987,2.84508 0.002,3.38165 2.92763,-1.69245 10e-4,-5.68814 z"
       id="path30892"
       inkscape:connector-curvature="0" />
    <path
       style="fill:#204a87;stroke:#000000;stroke-width:0.264583px;stroke-linecap:butt;stroke-linejoin:miter;stroke-opacity:1"
       d="m -79.584408,0.2018 -0.004,3.38125 -4.92498,2.84176 -2.92829,-1.69035 2.92671,-1.68872 4.92987,2.84508 -0.002,3.38165 -2.92763,-1.69245 -10e-4,-5.68814 z"
       id="path30898"
       inkscape:connector-curvature="0" />
    <path
       style="fill:#204a87;stroke:#000000;stroke-width:0.264583px;stroke-linecap:butt;stroke-linejoin:miter;stroke-opacity:1"
       d="m -30.777668,0.20593 0.004,3.38125 4.92498,2.84176 2.92829,-1.69035 -2.92671,-1.68872 -4.92987,2.84508 0.002,3.38165 2.92763,-1.69245 0.001,-5.68814 z"
       id="path30900"
       inkscape:connector-curvature="0" />
    <path
       style="fill:#204a87;stroke:#000000;stroke-width:0.264583px;stroke-linecap:butt;stroke-linejoin:miter;stroke-opacity:1"
       d="m -30.786528,-65.354074 0.004,3.38125 4.92498,2.84176 2.92829,-1.69035 -2.92671,-1.68872 -4.92987,2.84508 0.002,3.38165 2.92763,-1.69245 10e-4,-5.68814 z"
       id="path30902"
       inkscape:connector-curvature="0" />
    <path
       style="fill:#204a87;stroke:#000000;stroke-width:0.264583px;stroke-linecap:butt;stroke-linejoin:miter;stroke-opacity:1"
       d="m -22.797398,11.14023 -0.004,3.38125 -4.92498,2.84176 -2.92829,-1.69035 2.92671,-1.68872 4.92987,2.84508 -0.002,3.38165 -2.92763,-1.69245 -0.001,-5.68814 z"
       id="path30904"
       inkscape:connector-curvature="0" />
    <path
       inkscape:connector-curvature="0"
       id="path30906"
       d="m -60.652728,11.139373 -0.004,3.38125 -4.92498,2.84176 -2.92829,-1.69035 2.92671,-1.68872 4.92987,2.84508 -0.002,3.38165 -2.92763,-1.69245 -0.001,-5.68814 z"
       style="fill:#204a87;stroke:#000000;stroke-width:0.264583px;stroke-linecap:butt;stroke-linejoin:miter;stroke-opacity:1" />
    <path
       inkscape:connector-curvature="0"
       id="path30908"
       d="m -41.725268,0.21129 -0.004,3.38125 -4.92498,2.84176 -2.92829,-1.69035 2.92671,-1.68872 4.92987,2.84508 -0.002,3.38165 -2.92763,-1.69245 -10e-4,-5.68814 z"
       style="fill:#204a87;stroke:#000000;stroke-width:0.264583px;stroke-linecap:butt;stroke-linejoin:miter;stroke-opacity:1" />
    <path
       inkscape:connector-curvature="0"
       id="path30910"
       d="m -87.574248,11.14023 0.004,3.38125 4.92498,2.84176 2.92829,-1.69035 -2.92671,-1.68872 -4.92987,2.84508 0.002,3.38165 2.92763,-1.69245 0.001,-5.68814 z"
       style="fill:#204a87;stroke:#000000;stroke-width:0.264583px;stroke-linecap:butt;stroke-linejoin:miter;stroke-opacity:1" />
    <path
       style="fill:#204a87;stroke:#000000;stroke-width:0.264583px;stroke-linecap:butt;stroke-linejoin:miter;stroke-opacity:1"
       d="m -49.718918,11.139373 0.004,3.38125 4.92498,2.84176 2.92829,-1.69035 -2.92671,-1.68872 -4.92987,2.84508 0.002,3.38165 2.92763,-1.69245 10e-4,-5.68814 z"
       id="path30912"
       inkscape:connector-curvature="0" />
    <path
       style="fill:#204a87;stroke:#000000;stroke-width:0.264583px;stroke-linecap:butt;stroke-linejoin:miter;stroke-opacity:1"
       d="m -68.646378,0.21129 0.004,3.38125 4.92498,2.84176 2.92829,-1.69035 -2.92671,-1.68872 -4.92987,2.84508 0.002,3.38165 2.92763,-1.69245 0.001,-5.68814 z"
       id="path30914"
       inkscape:connector-curvature="0" />
    <path
       style="fill:#204a87;stroke:#000000;stroke-width:0.264583px;stroke-linecap:butt;stroke-linejoin:miter;stroke-opacity:1"
       d="m -79.581398,0.21025 -0.004,3.38125 -4.92498,2.84176 -2.92829,-1.69035 2.92671,-1.68872 4.92987,2.84508 -0.002,3.38165 -2.92763,-1.69245 -0.001,-5.68814 z"
       id="path30916"
       inkscape:connector-curvature="0" />
    <path
       inkscape:connector-curvature="0"
       id="path30918"
       d="m -30.792008,0.213937 0.004,3.38125 4.92498,2.84176 2.92829,-1.69035 -2.92671,-1.68872 -4.92987,2.84508 0.002,3.38165 2.92763,-1.69245 0.001,-5.68814 z"
       style="fill:#204a87;stroke:#000000;stroke-width:0.264583px;stroke-linecap:butt;stroke-linejoin:miter;stroke-opacity:1" />
    <path
       sodipodi:nodetypes="cc"
       inkscape:connector-curvature="0"
       id="path31025"
       d="m -87.56956,-67.212101 3.95e-4,0.92769"
       style="fill:none;stroke:#000000;stroke-width:0.264583px;stroke-linecap:butt;stroke-linejoin:miter;stroke-opacity:1" />
    <path
       style="fill:none;stroke:#000000;stroke-width:0.264583px;stroke-linecap:butt;stroke-linejoin:miter;stroke-opacity:1"
       d="m -68.644775,-88.139401 3.95e-4,0.92769"
       id="path31027"
       inkscape:connector-curvature="0"
       sodipodi:nodetypes="cc" />
  </g>
</svg>
