<?xml version="1.0" encoding="UTF-8" standalone="no"?>
<svg
   xmlns:dc="http://purl.org/dc/elements/1.1/"
   xmlns:cc="http://creativecommons.org/ns#"
   xmlns:rdf="http://www.w3.org/1999/02/22-rdf-syntax-ns#"
   xmlns:svg="http://www.w3.org/2000/svg"
   xmlns="http://www.w3.org/2000/svg"
   xmlns:sodipodi="http://sodipodi.sourceforge.net/DTD/sodipodi-0.dtd"
   xmlns:inkscape="http://www.inkscape.org/namespaces/inkscape"
   sodipodi:docname="offset-atom-rig.svg"
   inkscape:version="1.0beta2 (235953b, 2020-02-06)"
   id="svg5216"
   version="1.1"
   viewBox="0 0 210 297"
   height="297mm"
   width="210mm">
  <defs
     id="defs5210" />
  <sodipodi:namedview
     inkscape:window-maximized="1"
     inkscape:window-y="-8"
     inkscape:window-x="-8"
     inkscape:window-height="1057"
     inkscape:window-width="1848"
     inkscape:snap-intersection-paths="false"
     showgrid="false"
     inkscape:document-rotation="0"
     inkscape:current-layer="layer1"
     inkscape:document-units="mm"
     inkscape:cy="423.0737"
     inkscape:cx="302.66501"
     inkscape:zoom="5.6"
     inkscape:pageshadow="2"
     inkscape:pageopacity="0.0"
     borderopacity="1.0"
     bordercolor="#666666"
     pagecolor="#ffffff"
     id="base" />
  <metadata
     id="metadata5213">
    <rdf:RDF>
      <cc:Work
         rdf:about="">
        <dc:format>image/svg+xml</dc:format>
        <dc:type
           rdf:resource="http://purl.org/dc/dcmitype/StillImage" />
        <dc:title></dc:title>
      </cc:Work>
    </rdf:RDF>
  </metadata>
  <g
     id="layer1"
     inkscape:groupmode="layer"
     inkscape:label="Layer 1">
    <path
       inkscape:connector-curvature="0"
       id="path5788"
       d="m 63.082548,106.44323 38.625192,0.0345 v 19.31023 H 62.986461 Z"
       style="fill:#8800aa;stroke:#000000;stroke-width:0.264583px;stroke-linecap:butt;stroke-linejoin:miter;stroke-opacity:1" />
    <path
       inkscape:connector-curvature="0"
       id="path16501"
       d="m 103.44877,125.79968 -2.59234,-1.49662 -4.365861,2.52118 8.8e-5,5.03922 2.594195,1.49683 3.5e-5,-2.99407 -4.36552,-2.5191 -4.36569,2.52025 1.07e-4,2.99591 2.594161,-1.49978 -8.3e-5,-5.03921 -4.36534,-2.52001 -2.594356,1.49811 2.59389,1.49645 4.365685,-2.52053 9.7e-5,-5.04012 -2.593496,-1.49775 -7.34e-4,2.99498 4.36534,2.52028 4.36586,-2.52145 2.3e-4,-2.99414 -2.594426,1.49814 -9.2e-5,5.04013 4.36552,2.51937 z"
       style="opacity:0.31;fill:none;stroke:#00ffff;stroke-width:0.234363px;stroke-linecap:butt;stroke-linejoin:miter;stroke-opacity:1" />
    <path
       inkscape:connector-curvature="0"
       id="path16503"
       d="m 102.62704,119.18899 -1.7711,1.02253 -4.365515,-2.51936 -4.8e-4,-2.04522 -1.771096,1.02253 -1.771325,-1.02254 1.18e-4,2.04515 -4.365685,2.52052 -1.771325,-1.02253 1.18e-4,2.04514 -1.771689,1.02303 1.77181,1.02295 -9.7e-5,5.04012 -1.771689,1.02303 1.77181,1.02295 1.28e-4,2.04598 1.771448,-1.02302 4.365524,2.51911 1.23e-4,2.04596 1.771453,-1.02301 1.771321,1.02281 -1.19e-4,-2.04569 4.365687,-2.52026 1.77132,1.02281 -1.2e-4,-2.04569 1.77151,-1.02305 -1.77163,-1.02293 1e-4,-5.04013 1.77151,-1.02305 -1.77163,-1.02292 z"
       style="opacity:0.31;fill:none;stroke:#800080;stroke-width:0.234363px;stroke-linecap:butt;stroke-linejoin:miter;stroke-opacity:1" />
    <path
       inkscape:connector-curvature="0"
       id="path16505"
       d="m 103.92469,127.57188 -1.02254,1.77132 1.02253,1.7711 -2.04522,4.8e-4 -1.02292,1.77163 -1.023049,-1.77152 -4.090838,2.4e-4 -2.046189,-3.54233 -4.090838,2.4e-4 -2.046178,-3.54315 -2.045694,1.2e-4 1.022814,-1.77132 -1.023014,-1.77145 2.045976,-1.3e-4 1.022952,-1.77181 1.023028,1.77169 4.090838,-2.4e-4 2.046178,3.54315 4.091017,-0.001 2.046177,3.54314 z"
       style="opacity:0.31;fill:none;stroke:#00ff00;stroke-width:0.234363px;stroke-linecap:butt;stroke-linejoin:miter;stroke-opacity:1" />
    <path
       style="opacity:0.31;fill:none;stroke:#008000;stroke-width:0.234363px;stroke-linecap:butt;stroke-linejoin:miter;stroke-opacity:1"
       d="m 97.788342,134.6586 -2.045278,1.1e-4 -1.022551,1.77109 -1.023025,-1.77097 -2.045737,-7e-5 1.022654,-1.77174 -2.045629,-3.54265 2.044654,-3.54322 -2.045624,-3.54264 2.045365,-3.54362 -1.02295,-1.77157 2.045415,1.2e-4 1.022619,-1.77167 1.023095,1.7718 2.045911,-10e-6 -1.022812,1.77182 2.045624,3.54265 -2.045364,3.54361 2.046277,3.54249 -2.045369,3.54361 z"
       id="path16507"
       inkscape:connector-curvature="0" />
    <path
       inkscape:connector-curvature="0"
       id="path16509"
       d="m 88.582767,132.88756 -1.022737,-1.7712 -2.045083,-10e-6 1.022195,-1.77146 -1.022814,-1.77169 2.045696,-2.2e-4 2.045217,-3.5429 4.090843,-8.8e-4 2.045209,-3.54289 4.091542,-4.7e-4 1.022745,-1.77169 1.02261,1.77145 2.04563,-2.3e-4 -1.02289,1.77193 1.02297,1.77181 -2.04586,1.3e-4 -2.045197,3.54288 -4.091542,4.7e-4 -2.044748,3.54337 -4.091539,4.6e-4 z"
       style="opacity:0.31;fill:none;stroke:#008080;stroke-width:0.234363px;stroke-linecap:butt;stroke-linejoin:miter;stroke-opacity:1" />
    <path
       inkscape:connector-curvature="0"
       id="path16511"
       d="m 99.084858,123.28011 -9.6e-5,5.04012 -4.365686,2.52053 -4.365519,-2.51937 9.2e-5,-5.04012 4.365685,-2.52027 z"
       style="opacity:0.31;fill:none;stroke:#800080;stroke-width:0.234363px;stroke-linecap:butt;stroke-linejoin:miter;stroke-opacity:1" />
    <path
       inkscape:connector-curvature="0"
       id="path16763"
       d="m 109.3639,110.80511 -1.49672,-2.59228 -5.04154,4.7e-4 -2.51953,4.36414 1.49822,2.59339 1.49707,-2.59292 -2.5211,-4.36437 -5.04093,-2.4e-4 -1.497861,2.59459 2.996502,-0.002 2.519533,-4.36413 -2.52049,-4.36506 -2.995837,2.3e-4 1.498153,2.5929 h 5.04106 l 2.52014,-4.36483 -1.49716,-2.593828 -1.49812,2.593368 2.52035,4.36529 5.04167,-7.1e-4 1.49727,-2.59288 -2.99591,2.1e-4 -2.52014,4.36483 2.52097,4.3646 z"
       style="fill:none;stroke:#00ffff;stroke-width:0.234363px;stroke-linecap:butt;stroke-linejoin:miter;stroke-opacity:1" />
    <path
       inkscape:connector-curvature="0"
       id="path16765"
       d="m 111.95761,104.66922 -2.04508,-10e-6 -2.52097,-4.3646 1.02219,-1.771448 -2.04508,-9e-6 -1.02274,-1.771205 -1.02247,1.771205 H 99.2824 l -1.022744,-1.771205 -1.022469,1.771205 -2.045842,1.24e-4 1.022956,1.771803 -2.520144,4.36483 -2.045842,1.2e-4 1.022956,1.77181 -1.022877,1.77193 2.04563,-2.4e-4 2.521101,4.36438 -1.022877,1.77192 2.04563,-2.3e-4 1.022602,1.77144 1.022744,-1.77168 5.040926,2.3e-4 1.0226,1.77144 1.02275,-1.77168 2.0457,-2.3e-4 -1.02282,-1.77169 2.52015,-4.36484 2.0457,-2.3e-4 -1.02282,-1.77169 z"
       style="fill:none;stroke:#800080;stroke-width:0.234363px;stroke-linecap:butt;stroke-linejoin:miter;stroke-opacity:1" />
    <path
       inkscape:connector-curvature="0"
       id="path16767"
       d="m 108.88996,112.57784 -1.77121,1.02274 v 2.04508 l -1.77146,-1.02219 -1.77169,1.02281 -2.3e-4,-2.0457 -3.54289,-2.04521 -8.8e-4,-4.09085 -3.542892,-2.04521 -4.69e-4,-4.09154 -1.771684,-1.02275 1.771445,-1.0226 -2.31e-4,-2.04563 1.771932,1.022877 1.771809,-1.022956 1.2e-4,2.045842 3.54289,2.045217 4.7e-4,4.09154 3.5435,2.04451 4.7e-4,4.09155 z"
       style="fill:none;stroke:#00ff00;stroke-width:0.234363px;stroke-linecap:butt;stroke-linejoin:miter;stroke-opacity:1" />
    <path
       style="fill:none;stroke:#008000;stroke-width:0.234363px;stroke-linecap:butt;stroke-linejoin:miter;stroke-opacity:1"
       d="m 100.03237,115.64694 -1.771323,-1.02254 -1.771099,1.02254 -4.78e-4,-2.04523 -1.77163,-1.02292 1.771515,-1.02304 -2.39e-4,-4.09085 3.542334,-2.04618 -2.4e-4,-4.09084 3.54314,-2.046177 -1.1e-4,-2.045701 1.77132,1.022815 1.77145,-1.02301 1.2e-4,2.045975 1.77182,1.022948 -1.77169,1.02304 2.4e-4,4.09083 -3.54315,2.04618 8.9e-4,4.09102 -3.54315,2.04617 z"
       id="path16769"
       inkscape:connector-curvature="0" />
    <path
       inkscape:connector-curvature="0"
       id="path16771"
       d="m 92.945625,109.51039 -1.15e-4,-2.04527 -1.77109,-1.02255 1.770975,-1.02303 6.2e-5,-2.04574 1.771736,1.02266 3.542658,-2.04563 3.543219,2.04465 3.54265,-2.04563 3.54361,2.04537 1.77157,-1.02295 -1.2e-4,2.04542 1.77168,1.02262 -1.77181,1.02309 10e-6,2.04591 -1.77183,-1.02281 -3.54264,2.04563 -3.54361,-2.04537 -3.54249,2.04628 -3.543605,-2.04537 z"
       style="fill:none;stroke:#008080;stroke-width:0.234363px;stroke-linecap:butt;stroke-linejoin:miter;stroke-opacity:1" />
    <path
       inkscape:connector-curvature="0"
       id="path16773"
       d="m 106.84443,106.44114 -2.52015,4.36483 h -5.041056 l -2.520968,-4.3646 2.520144,-4.36483 5.04093,2.3e-4 z"
       style="fill:none;stroke:#800080;stroke-width:0.234363px;stroke-linecap:butt;stroke-linejoin:miter;stroke-opacity:1" />
    <path
       style="opacity:0.31;fill:none;stroke:#00ffff;stroke-width:0.234363px;stroke-linecap:butt;stroke-linejoin:miter;stroke-opacity:1"
       d="m 91.173187,106.44062 -2.592333,-1.49662 -4.365865,2.52118 8.8e-5,5.03922 2.594195,1.49683 3.5e-5,-2.99407 -4.36552,-2.5191 -4.36569,2.52025 1.07e-4,2.99591 2.594161,-1.49978 -8.3e-5,-5.03921 -4.36534,-2.52001 -2.594356,1.49811 2.59389,1.49645 4.365685,-2.52053 9.7e-5,-5.04012 -2.593496,-1.497749 -7.34e-4,2.994979 4.36534,2.52028 4.36586,-2.52145 2.3e-4,-2.994136 -2.594426,1.498136 -9.2e-5,5.04013 4.365519,2.51937 z"
       id="path16777"
       inkscape:connector-curvature="0" />
    <path
       style="opacity:0.31;fill:none;stroke:#800080;stroke-width:0.234363px;stroke-linecap:butt;stroke-linejoin:miter;stroke-opacity:1"
       d="m 90.351461,99.82993 -1.771097,1.02253 -4.365519,-2.519363 -4.8e-4,-2.045221 -1.771096,1.022532 -1.771325,-1.022536 1.18e-4,2.045143 -4.365685,2.520525 -1.771325,-1.022532 1.18e-4,2.045142 -1.771689,1.02303 1.77181,1.02295 -9.7e-5,5.04012 -1.771689,1.02303 1.77181,1.02295 1.28e-4,2.04598 1.771448,-1.02302 4.365524,2.51911 1.23e-4,2.04596 1.771453,-1.02301 1.771321,1.02281 -1.19e-4,-2.04569 4.365685,-2.52026 1.771322,1.02281 -1.19e-4,-2.04569 1.771513,-1.02305 -1.77163,-1.02293 9.2e-5,-5.04013 1.771514,-1.02305 -1.77163,-1.02292 z"
       id="path16779"
       inkscape:connector-curvature="0" />
    <path
       style="opacity:0.31;fill:none;stroke:#00ff00;stroke-width:0.234363px;stroke-linecap:butt;stroke-linejoin:miter;stroke-opacity:1"
       d="m 91.649108,108.21282 -1.022536,1.77132 1.022532,1.7711 -2.04522,4.8e-4 -1.022923,1.77163 -1.02305,-1.77152 -4.090838,2.4e-4 -2.046189,-3.54233 -4.090838,2.4e-4 -2.046178,-3.54315 -2.045694,1.2e-4 1.022814,-1.77132 -1.023014,-1.77145 2.045976,-1.3e-4 1.022952,-1.771811 1.023028,1.771691 4.090838,-2.4e-4 2.046178,3.54315 4.091017,-0.001 2.046178,3.54314 z"
       id="path16781"
       inkscape:connector-curvature="0" />
    <path
       inkscape:connector-curvature="0"
       id="path16783"
       d="m 85.512762,115.29954 -2.045278,1.1e-4 -1.022551,1.77109 -1.023025,-1.77097 -2.045737,-7e-5 1.022654,-1.77174 -2.045629,-3.54265 2.044654,-3.54322 -2.045624,-3.54264 2.045365,-3.543618 -1.02295,-1.771571 2.045415,1.23e-4 1.022619,-1.771679 1.023095,1.771805 2.045911,-9e-6 -1.022812,1.771821 2.045624,3.542648 -2.045364,3.54361 2.046277,3.54249 -2.045369,3.54361 z"
       style="opacity:0.31;fill:none;stroke:#008000;stroke-width:0.234363px;stroke-linecap:butt;stroke-linejoin:miter;stroke-opacity:1" />
    <path
       style="opacity:0.31;fill:none;stroke:#008080;stroke-width:0.234363px;stroke-linecap:butt;stroke-linejoin:miter;stroke-opacity:1"
       d="m 76.307187,113.5285 -1.022737,-1.7712 -2.045083,-1e-5 1.022195,-1.77146 -1.022814,-1.77169 2.045696,-2.2e-4 2.045217,-3.5429 4.090843,-8.8e-4 2.045209,-3.54289 4.091542,-4.7e-4 1.02275,-1.771685 1.022601,1.771445 2.045633,-2.3e-4 -1.022886,1.77193 1.022964,1.77181 -2.045853,1.3e-4 -2.045201,3.54288 -4.091542,4.7e-4 -2.044748,3.54337 -4.091539,4.6e-4 z"
       id="path16785"
       inkscape:connector-curvature="0" />
    <path
       style="opacity:0.31;fill:none;stroke:#800080;stroke-width:0.234363px;stroke-linecap:butt;stroke-linejoin:miter;stroke-opacity:1"
       d="m 86.809278,103.92105 -9.6e-5,5.04012 -4.365686,2.52053 -4.365519,-2.51937 9.2e-5,-5.04012 4.365685,-2.52027 z"
       id="path16787"
       inkscape:connector-curvature="0" />
    <path
       inkscape:connector-curvature="0"
       id="path5314"
       d="m 82.919419,130.16557 -1.496719,-2.59228 -5.041537,4.7e-4 -2.519533,4.36414 1.498224,2.59339 1.497064,-2.59292 -2.521101,-4.36437 -5.040927,-2.4e-4 -1.497861,2.59459 2.996502,-0.002 2.519533,-4.36413 -2.52049,-4.36506 -2.995837,2.3e-4 1.498153,2.5929 h 5.04106 l 2.520144,-4.36483 -1.497161,-2.59383 -1.498127,2.59337 2.520357,4.36529 5.04167,-7.1e-4 1.497268,-2.59288 -2.995908,2.1e-4 -2.520144,4.36483 2.520968,4.3646 z"
       style="fill:none;stroke:#00ffff;stroke-width:0.234363px;stroke-linecap:butt;stroke-linejoin:miter;stroke-opacity:1" />
    <path
       inkscape:connector-curvature="0"
       id="path5316"
       d="m 85.513127,124.02968 -2.04508,-1e-5 -2.520968,-4.3646 1.022195,-1.77145 -2.045081,-1e-5 -1.022744,-1.7712 -1.022469,1.7712 h -5.04106 l -1.022744,-1.7712 -1.022469,1.7712 -2.045842,1.3e-4 1.022956,1.7718 -2.520144,4.36483 -2.045842,1.2e-4 1.022956,1.77181 -1.022877,1.77193 2.04563,-2.4e-4 2.521101,4.36438 -1.022877,1.77192 2.04563,-2.3e-4 1.022602,1.77144 1.022744,-1.77168 5.040926,2.3e-4 1.022603,1.77144 1.022744,-1.77168 2.0457,-2.3e-4 -1.022814,-1.77169 2.520144,-4.36484 2.0457,-2.3e-4 -1.022814,-1.77169 z"
       style="fill:none;stroke:#800080;stroke-width:0.234363px;stroke-linecap:butt;stroke-linejoin:miter;stroke-opacity:1" />
    <path
       inkscape:connector-curvature="0"
       id="path5318"
       d="m 82.44548,131.9383 -1.771205,1.02274 -9e-6,2.04508 -1.771453,-1.02219 -1.771692,1.02281 -2.3e-4,-2.0457 -3.542889,-2.04521 -8.85e-4,-4.09085 -3.542889,-2.04521 -4.69e-4,-4.09154 -1.771684,-1.02275 1.771445,-1.0226 -2.31e-4,-2.04563 1.771932,1.02288 1.771807,-1.02296 1.24e-4,2.04584 3.542888,2.04522 4.7e-4,4.09154 3.543499,2.04451 4.7e-4,4.09155 z"
       style="fill:none;stroke:#00ff00;stroke-width:0.234363px;stroke-linecap:butt;stroke-linejoin:miter;stroke-opacity:1" />
    <path
       style="fill:none;stroke:#008000;stroke-width:0.234363px;stroke-linecap:butt;stroke-linejoin:miter;stroke-opacity:1"
       d="m 73.587887,135.0074 -1.77132,-1.02254 -1.771099,1.02254 -4.78e-4,-2.04523 -1.77163,-1.02292 1.771515,-1.02304 -2.39e-4,-4.09085 3.54233,-2.04618 -2.39e-4,-4.09084 3.543145,-2.04618 -1.15e-4,-2.0457 1.77132,1.02282 1.771453,-1.02301 1.24e-4,2.04597 1.771816,1.02295 -1.771692,1.02304 2.39e-4,4.09083 -3.543145,2.04618 8.86e-4,4.09102 -3.543145,2.04617 z"
       id="path5320"
       inkscape:connector-curvature="0" />
    <path
       inkscape:connector-curvature="0"
       id="path5322"
       d="m 66.501145,128.87085 -1.15e-4,-2.04527 -1.77109,-1.02255 1.770975,-1.02303 6.2e-5,-2.04574 1.771736,1.02266 3.542658,-2.04563 3.543216,2.04465 3.542649,-2.04563 3.543615,2.04537 1.771568,-1.02295 -1.24e-4,2.04542 1.771683,1.02262 -1.771807,1.02309 9e-6,2.04591 -1.771825,-1.02281 -3.54264,2.04563 -3.543615,-2.04537 -3.54249,2.04628 -3.543605,-2.04537 z"
       style="fill:none;stroke:#008080;stroke-width:0.234363px;stroke-linecap:butt;stroke-linejoin:miter;stroke-opacity:1" />
    <path
       inkscape:connector-curvature="0"
       id="path5324"
       d="m 80.399948,125.8016 -2.520145,4.36483 h -5.041059 l -2.520968,-4.3646 2.520144,-4.36483 5.040927,2.3e-4 z"
       style="fill:none;stroke:#800080;stroke-width:0.234363px;stroke-linecap:butt;stroke-linejoin:miter;stroke-opacity:1" />
    <path
       style="fill:none;stroke:#00ffff;stroke-width:0.234363px;stroke-linecap:butt;stroke-linejoin:miter;stroke-opacity:1"
       d="m 70.643839,110.80651 -1.496719,-2.59228 -5.041537,4.7e-4 -2.519533,4.36414 1.498224,2.59339 1.497064,-2.59292 -2.521101,-4.36437 -5.040927,-2.4e-4 -1.497861,2.59459 2.996502,-0.002 2.519533,-4.36413 -2.52049,-4.36506 -2.995837,2.3e-4 1.498153,2.5929 h 5.04106 l 2.520144,-4.36483 -1.497161,-2.593828 -1.498127,2.593368 2.520357,4.36529 5.04167,-7.1e-4 1.497268,-2.59288 -2.995908,2.1e-4 -2.520144,4.36483 2.520968,4.3646 z"
       id="path5344"
       inkscape:connector-curvature="0" />
    <path
       style="fill:none;stroke:#800080;stroke-width:0.234363px;stroke-linecap:butt;stroke-linejoin:miter;stroke-opacity:1"
       d="m 73.237547,104.67062 -2.04508,-1e-5 -2.520968,-4.3646 1.022195,-1.771448 -2.045081,-9e-6 -1.022744,-1.771205 -1.022469,1.771205 h -5.04106 l -1.022744,-1.771205 -1.022469,1.771205 -2.045842,1.24e-4 1.022956,1.771803 -2.520144,4.36483 -2.045842,1.2e-4 1.022956,1.77181 -1.022877,1.77193 2.04563,-2.4e-4 2.521101,4.36438 -1.022877,1.77192 2.04563,-2.3e-4 1.022602,1.77144 1.022744,-1.77168 5.040926,2.3e-4 1.022603,1.77144 1.022744,-1.77168 2.0457,-2.3e-4 -1.022814,-1.77169 2.520144,-4.36484 2.0457,-2.3e-4 -1.022814,-1.77169 z"
       id="path5346"
       inkscape:connector-curvature="0" />
    <path
       style="fill:none;stroke:#00ff00;stroke-width:0.234363px;stroke-linecap:butt;stroke-linejoin:miter;stroke-opacity:1"
       d="m 70.1699,112.57924 -1.771205,1.02274 -9e-6,2.04508 -1.771453,-1.02219 -1.771692,1.02281 -2.3e-4,-2.0457 -3.542889,-2.04521 -8.85e-4,-4.09085 -3.542889,-2.04521 -4.69e-4,-4.09154 -1.771684,-1.02275 1.771445,-1.0226 -2.31e-4,-2.04563 1.771932,1.022877 1.771807,-1.022956 1.24e-4,2.045842 3.542888,2.045217 4.7e-4,4.09154 3.543499,2.04451 4.7e-4,4.09155 z"
       id="path5348"
       inkscape:connector-curvature="0" />
    <path
       inkscape:connector-curvature="0"
       id="path5350"
       d="m 61.312307,115.64834 -1.77132,-1.02254 -1.771099,1.02254 -4.78e-4,-2.04523 -1.77163,-1.02292 1.771515,-1.02304 -2.39e-4,-4.09085 3.54233,-2.04618 -2.39e-4,-4.09084 3.543145,-2.046177 -1.15e-4,-2.045701 1.77132,1.022815 1.771453,-1.02301 1.24e-4,2.045975 1.771816,1.022948 -1.771692,1.02304 2.39e-4,4.09083 -3.543145,2.04618 8.86e-4,4.09102 -3.543145,2.04617 z"
       style="fill:none;stroke:#008000;stroke-width:0.234363px;stroke-linecap:butt;stroke-linejoin:miter;stroke-opacity:1" />
    <path
       style="fill:none;stroke:#008080;stroke-width:0.234363px;stroke-linecap:butt;stroke-linejoin:miter;stroke-opacity:1"
       d="m 54.225565,109.51179 -1.15e-4,-2.04527 -1.77109,-1.02255 1.770975,-1.02303 6.2e-5,-2.04574 1.771736,1.02266 3.542658,-2.04563 3.543216,2.04465 3.542649,-2.04563 3.543615,2.04537 1.771568,-1.02295 -1.24e-4,2.04542 1.771683,1.02262 -1.771807,1.02309 9e-6,2.04591 -1.771825,-1.02281 -3.54264,2.04563 -3.543615,-2.04537 -3.54249,2.04628 -3.543605,-2.04537 z"
       id="path5352"
       inkscape:connector-curvature="0" />
    <path
       style="fill:none;stroke:#800080;stroke-width:0.234363px;stroke-linecap:butt;stroke-linejoin:miter;stroke-opacity:1"
       d="m 68.124368,106.44254 -2.520145,4.36483 h -5.041059 l -2.520968,-4.3646 2.520144,-4.36483 5.040927,2.3e-4 z"
       id="path5354"
       inkscape:connector-curvature="0" />
    <path
       style="opacity:0.31;fill:none;stroke:#00ffff;stroke-width:0.234363px;stroke-linecap:butt;stroke-linejoin:miter;stroke-opacity:1"
       d="m 64.727997,125.80204 -2.592333,-1.49662 -4.365865,2.52118 8.8e-5,5.03922 2.594195,1.49683 3.5e-5,-2.99407 -4.36552,-2.5191 -4.36569,2.52025 1.07e-4,2.99591 2.594161,-1.49978 -8.3e-5,-5.03921 -4.36534,-2.52001 -2.594356,1.49811 2.59389,1.49645 4.365685,-2.52053 9.7e-5,-5.04012 -2.593496,-1.49775 -7.34e-4,2.99498 4.36534,2.52028 4.36586,-2.52145 2.3e-4,-2.99414 -2.594426,1.49814 -9.2e-5,5.04013 4.365519,2.51937 z"
       id="path5730"
       inkscape:connector-curvature="0" />
    <path
       style="opacity:0.31;fill:none;stroke:#800080;stroke-width:0.234363px;stroke-linecap:butt;stroke-linejoin:miter;stroke-opacity:1"
       d="m 63.906271,119.19135 -1.771097,1.02253 -4.365519,-2.51936 -4.8e-4,-2.04522 -1.771096,1.02253 -1.771325,-1.02254 1.18e-4,2.04515 -4.365685,2.52052 -1.771325,-1.02253 1.18e-4,2.04514 -1.771689,1.02303 1.77181,1.02295 -9.7e-5,5.04012 -1.771689,1.02303 1.77181,1.02295 1.28e-4,2.04598 1.771448,-1.02302 4.365524,2.51911 1.23e-4,2.04596 1.771453,-1.02301 1.771321,1.02281 -1.19e-4,-2.04569 4.365685,-2.52026 1.771322,1.02281 -1.19e-4,-2.04569 1.771513,-1.02305 -1.77163,-1.02293 9.2e-5,-5.04013 1.771514,-1.02305 -1.77163,-1.02292 z"
       id="path5732"
       inkscape:connector-curvature="0" />
    <path
       style="opacity:0.31;fill:none;stroke:#00ff00;stroke-width:0.234363px;stroke-linecap:butt;stroke-linejoin:miter;stroke-opacity:1"
       d="m 65.203918,127.57424 -1.022536,1.77132 1.022532,1.7711 -2.04522,4.8e-4 -1.022923,1.77163 -1.02305,-1.77152 -4.090838,2.4e-4 -2.046189,-3.54233 -4.090838,2.4e-4 -2.046178,-3.54315 -2.045694,1.2e-4 1.022814,-1.77132 -1.023014,-1.77145 2.045976,-1.3e-4 1.022952,-1.77181 1.023028,1.77169 4.090838,-2.4e-4 2.046178,3.54315 4.091017,-10e-4 2.046178,3.54314 z"
       id="path5734"
       inkscape:connector-curvature="0" />
    <path
       inkscape:connector-curvature="0"
       id="path5736"
       d="m 59.067572,134.66096 -2.045278,1.1e-4 -1.022551,1.77109 -1.023025,-1.77097 -2.045737,-7e-5 1.022654,-1.77174 -2.045629,-3.54265 2.044654,-3.54322 -2.045624,-3.54264 2.045365,-3.54362 -1.02295,-1.77157 2.045415,1.2e-4 1.022619,-1.77167 1.023095,1.7718 2.045911,-1e-5 -1.022812,1.77182 2.045624,3.54265 -2.045364,3.54361 2.046277,3.54249 -2.045369,3.54361 z"
       style="opacity:0.31;fill:none;stroke:#008000;stroke-width:0.234363px;stroke-linecap:butt;stroke-linejoin:miter;stroke-opacity:1" />
    <path
       style="opacity:0.31;fill:none;stroke:#008080;stroke-width:0.234363px;stroke-linecap:butt;stroke-linejoin:miter;stroke-opacity:1"
       d="m 49.861997,132.88992 -1.022737,-1.7712 -2.045083,-1e-5 1.022195,-1.77146 -1.022814,-1.77169 2.045696,-2.2e-4 2.045217,-3.5429 4.090843,-8.8e-4 2.045209,-3.54289 4.091542,-4.7e-4 1.02275,-1.77169 1.022601,1.77145 2.045633,-2.3e-4 -1.022886,1.77193 1.022964,1.77181 -2.045853,1.3e-4 -2.045201,3.54288 -4.091542,4.7e-4 -2.044748,3.54337 -4.091539,4.6e-4 z"
       id="path5738"
       inkscape:connector-curvature="0" />
    <path
       style="opacity:0.31;fill:none;stroke:#800080;stroke-width:0.234363px;stroke-linecap:butt;stroke-linejoin:miter;stroke-opacity:1"
       d="m 60.364088,123.28247 -9.6e-5,5.04012 -4.365686,2.52053 -4.365519,-2.51937 9.2e-5,-5.04012 4.365685,-2.52027 z"
       id="path5740"
       inkscape:connector-curvature="0" />
  </g>
</svg>
