<svg xmlns="http://www.w3.org/2000/svg" viewBox="0 0 38.717 38.687" height="146.217" width="146.332"><g color="#000" font-weight="400" font-family="sans-serif"><path d="M2.003 0l.349.604-.606.35v.7h-.7l-.349.604-.605-.35-.01.006v.27l.01-.006.488.282-.488.847-.016-.027-.003.528.019-.032.27.469H.071l-.001.234h.428l.558.966L.095 6 .062 5.98l-.002.31.035-.02.96.556L.5 7.79H.053v.234h.311l-.27.47-.044-.076-.002.465.045.079.542-.938h1.113v1.383l1.197-.692.691 1.198.692-1.199 1.197.691V8.024l1.383-.002-.69-1.196 1.196-.69-.176-.103-1.021-.59.556-.964h1.084l-.101-.176-.441-.762.556-.964 1.197.69v-1.38l1.111-.002.557.964-1.197.69 1.198.694-.69 1.197h1.38v1.383l1.197-.692.692 1.198.102-.176.59-1.023.963.556v1.086l.94-.544.963.556-.69 1.197h1.38v1.112l-.963.556-.69-1.195-.69 1.196-1.2-.693v1.385h-1.11l-.542-.94-.543.94h-1.112V9.95l-1.198.691-.692-1.196-.691 1.197-1.198-.692v1.383H5.553l.691 1.198-1.197.691 1.197.692-.556.962H4.603l.543.94-.555.961-1.197-.69-.001 1.383H2.28l-.556-.963 1.198-.691-1.197-.692.69-1.197H1.034v-1.383l-.176.102-.83.479-.002.272.773-.446v.976H.234l-.21-.363-.002.464.077.134h.7v.699l.605.35-.35.605.35.605-.606.35v.699H.1l-.095.164-.002.473.232-.402h.564v.976l-.797-.46-.001.27.798.461v.784L0 20.196l.001.27.797-.46v.977H.234l-.232-.402.002.472.095.165h.7v.699l.605.35-.35.605.35.605-.606.35v.699H.1l-.077.133.003.464.209-.363h.564v.977l-.773-.446.002.272.83.479.176.101V24.76h1.383l-.691-1.196 1.197-.692-1.198-.691.556-.963h1.113l.001 1.382 1.197-.69.555.961-.543.94H5.69l.556.963-1.198.691 1.198.692-.692 1.197h1.382v1.383l1.198-.691.69 1.197.693-1.197 1.199.691v-1.383h1.11l.544.94.542-.94h1.11v1.385l1.2-.693.69 1.197.69-1.196.963.557v1.111h-1.38l.69 1.198-.963.555-.94-.544v1.087l-.963.555-.59-1.022-.102-.176-.691 1.198-1.197-.692v1.383h-1.382l.691 1.197-1.198.693 1.197.69-.557.964H9.07v-1.382l-1.198.69-.556-.963.44-.763.102-.176H6.773l-.556-.963 1.02-.59.177-.103-1.196-.69.69-1.196-1.383-.002V29.28l-1.197.691-.692-1.198-.691 1.198-1.197-.692v1.382H.635l-.541-.937-.046.079.002.464.044-.075.27.47H.052l.001.234H.5l.556.963-.961.555-.034-.02.001.31.033-.018.96.554-.557.966H.07l.001.235h.291l-.27.468-.019-.032.003.529.016-.028.489.847-.49.282-.01-.006.002.27.009.006.605-.35.35.605h.7l-.001.7.606.35-.349.604.272-.001.28-.486.84.485h.48l.842-.486.28.484h.27l-.347-.6.606-.35v-.7h.699l.349-.604.604.349.607-.35.35.605h.699v.702l.605.349-.344.596h.272l.276-.478.827.477h.504l.454-.263v.262h.234v-.397l.964-.556.549.951h.285l.548-.95.963.556v.393h.234v-.257l.444.256h.52l.82-.474.273.473h.271l-.34-.59.606-.35v-.698h.699l.35-.606.605.349.605-.35.35.607h.7v.698l.605.35-.339.586h.272l.27-.469.81.468h.545l.43-.25v.249h.235v-.384l.964-.556.541.938h.3l.54-.938.963.556v.38h.235v-.245l.424.245h.56l.8-.463.266.462h.272l-.335-.58.606-.35v-.697h.7l.349-.605.605.35.606-.35.35.605h.7l-.001.7.605.349-.331.574h.272l.263-.456.788.454h.583l.79-.455.262.454h.27l-.33-.571.605-.35v-.699h.7l.349-.605.51.295v-.272l-.392-.226.392-.681v-.798l-.176-.306h.176v-.235h-.311l-.556-.962.867-.5v-.384l-.866-.5.557-.962h.31v-.235h-.174l.173-.3v-.47l-.445.77H37.16l.001-1.18v-.202l-1.198.691-.693-1.197-.69 1.196-.962-.555v-1.112H35l-.691-1.197.963-.557.941.543V26.01l.961-.556.691 1.198.691-1.198.161.093v-.27l-.044-.026.044-.076v-.468l-.246.427-.606-.35-.605.35-.35-.605h-.698l-.001-.7-.605-.349.35-.605-.35-.605.547-.315.058-.035v-.7h.7l.349-.605.605.35.606-.35.246.427v-.468l-.044-.076.044-.025v-.27l-.16.093-.55-.952.55-.952.16.093v-.27l-.044-.025.044-.076v-.468l-.246.427-.606-.349-.605.35-.35-.606h-.699v-.7l-.058-.035-.547-.315.35-.604-.35-.606.605-.35v-.699h.7l.349-.605.605.35.606-.35.246.427v-.468l-.044-.076.044-.025v-.271l-.16.093-.692-1.197-.69 1.197-.962-.556v-1.085l-.94.543-.964-.556L35 10.38h-1.383V9.269l.962-.555.69 1.197.693-1.198 1.198.692V8.022h1.112l.445.77v-.47l-.173-.3h.173v-.235h-.31l-.556-.962.866-.5v-.383l-.867-.5.556-.963h.311v-.235h-.177l.177-.306V3.14l-.393-.68.393-.228v-.27l-.51.294-.35-.605h-.698v-.7l-.607-.349.33-.571h-.27l-.262.454-.79-.455h-.582l-.788.454-.263-.456h-.272l.331.574-.605.35v.698h-.7l-.349.606-.606-.35-.605.35-.35-.606h-.699V.953l-.606-.35.334-.578h-.271l-.267.46-.8-.462h-.559l-.424.245V.023h-.235v.38l-.962.556L25.74.02h-.299l-.542.938-.963-.557V.02H23.7v.248l-.43-.248-.545-.001-.81.468-.27-.469h-.272l.34.586-.607.35v.697h-.699l-.35.608-.605-.35-.604.35-.351-.608-.7.001V.953l-.606-.35.341-.59h-.271l-.273.473-.82-.474h-.52l-.444.256V.011h-.234v.392l-.963.557-.548-.95h-.285l-.55.951-.963-.556V.009h-.234V.27l-.454-.262h-.504l-.827.477-.276-.478h-.272l.344.595-.605.35v.7l-.7.001-.35.606-.606-.35-.604.349-.35-.605h-.699v-.7L4.92.605l.347-.601h-.27l-.28.484-.842-.485h-.48l-.84.484L2.275 0zM35.27.132l.964.556-.556.963h-.814l-.556-.963zm-24.549 0l.707.409v1.112h-1.11L9.76.688zm17.461 0l.963.557-.555.962h-1.111V.54zM3.636.134L4.6.69l-.556.963h-.816L2.672.69zm12.272 0l.964.556-.555.963h-1.112V.54zm7.09 0L23.7.54V1.65H22.59L22.033.69zM25.59.23l.49.847-.49.282-.489-.282zM13.317.232l.488.846-.489.282-.488-.281zm1.654.442v.979h-.563l-.283-.49zm12.273 0v.977h-.562l-.283-.489zm-3.308 0l.846.489-.282.488h-.564zM11.662.676l.847.489-.283.49h-.564zm24.774.13l.488.282v.564h-.977zM2.469.806l.49.847h-.978v-.565zm7.088 0l.488.845-.977.001v-.564zm19.792 0l.489.282v.563h-.977zm4.755 0l.488.845h-.976v-.563zm-29.301 0l.488.282v.565h-.977zm12.273 0l.488.282v.564h-.976zm4.754 0l.488.845h-.976v-.563zm4.367.473l.35.606h.697v.7l.606.35-.348.605.348.605-.606.35v.7h-.697l-.35.605-.607-.35-.606.35-.35-.606h-.698v-.7l-.605-.348.349-.606-.35-.606.606-.349v-.7h.699l.35-.605.605.35zM13.92 1.28l.35.607h.7v.698l.607.35-.35.605.35.606-.607.351v.7h-.7l-.35.604-.605-.349-.605.35-.35-.606h-.699v-.699l-.605-.35.35-.605-.351-.607.606-.35v-.698h.7l.35-.606.604.349zm4.442.605l.283.49-.847.49v-.98zm2.18 0h.564v.98l-.847-.49zm.799 0h1.112l.556.963-.965.557-.703-.406zm1.382 0h.977v.563l-.489.282zm4.755 0h.976l-.488.847-.488-.282zm1.248 0h1.11v1.383l.177-.101 1.022-.59.556.963-.543.941h1.086l.556.962-1.197.69 1.197.693L32 8.022h1.383v1.113l-.964.556-.69-1.198-.691 1.198-1.198-.692v1.382h-1.383l.691 1.199-.962.555-.94-.542v1.085l-.962.556-.692-1.198-.692 1.198-1.197-.692v1.383H22.32l.692 1.197-1.198.691 1.197.692-.556.963h-1.111v-1.383l-1.198.692-.556-.962.543-.94h-1.086l-.556-.962 1.198-.691-1.198-.692.69-1.197H17.8V10.22l.964-.557.692 1.197.69-1.196 1.197.69V8.973h1.382l-.1-.176-.591-1.022.963-.556.94.542V6.676l.963-.556.69 1.197.693-1.196 1.197.69V5.43h1.382L28.17 4.23l1.197-.691-1.197-.69zm1.345 0h.565l.281.489-.846.488zm2.744 0h.565v.978l-.846-.49zm.8 0h1.11l.408.707-.556.962L33.616 3zm1.383 0h.544l-.272.471zm.813 0h1.112v1.112l-.962.556-.556-.963zm1.347 0h.563l.283.489-.846.488zm-19.595 0V3l-.703.406-.964-.556.555-.963zm-1.382.001l-.488.846-.49-.282v-.563zm-7.348 0v.978l-.847-.488.282-.489zm-7.65.001h.562v.977l-.845-.488zm.797 0h1.113l.407.706-.556.962L1.981 3zm1.384 0h.543l-.27.47zm.814 0H5.29V3l-.963.556-.556-.963zm1.346 0h.565l.281.488-.846.488zm4.926 0h.977v.563l-.489.282zm-3.273.291l.49.283-.488.845-.49-.846zm12.275 0l.489.283-.488.845-.49-.846zm12.273 0l.489.282-.488.846-.488-.846zm-25.238.399l.556.964-.406.704H5.525V3.133zm12.275 0l.556.963-.556.963-.964-.556v-.813zm19.359 0l.556.963-.407.705H37.16V3.133zm-17.978 0l.963.557v.812l-.962.556-.556-.962zm12.273 0l.965.557v1.111l-1.112.001-.408-.705zM.785 2.578l.962.555v1.112H.635l-.406-.703zm34.485.248l.488.846-.489.282-.487-.282zm-31.634 0l.489.846-.488.282-.49-.282zm7.217.226l.283.49-.281.488-.85-.49zm4.927 0l.847.489-.846.488-.283-.489zm7.348 0l.282.488-.282.49-.847-.49zm4.925 0l.845.488-.845.488-.281-.488zm8.872.216v.977h-.564l-.282-.489zm-31.634 0v.977h-.564l-.282-.488zm12.273 0v.543l-.47-.27zm3.778 0l.47.272-.47.27zm-19.36 0l.846.49-.281.487h-.565zm31.634.001l.845.488-.282.488h-.562zm-16.756.407l.704.406v1.114h-1.11l-.557-.964zm5.187 0l.964.556-.555.962h-1.114V4.083zm-2.593.097l.488.846-.489.282-.488-.281zm12.273.002l.273.472h-.545zm-24.547 0l.27.47H6.91zm-4.149.1l.606.35.605-.35.35.605h.699v.701l.604.35-.348.603.35.607-.606.35v.699h-.7l-.349.606-.605-.35-.606.35-.35-.606h-.699v-.699l-.605-.35.35-.605-.35-.605.605-.35v-.7h.7zm32.844 0l.35.605h.7v.7l.605.348-.35.606.35.607-.606.35v.697h-.7l-.348.605-.605-.349-.607.35-.35-.606h-.697V7.09l-.606-.35.348-.605-.348-.604.606-.35v-.7h.7l.348-.605.604.35zm-18.076.343l.847.489-.283.49H17.8zm3.308 0v.977h-.562l-.282-.49zm6.86.13l.488.847h-.976V4.63zm-12.272 0l.49.849h-.98v-.564zm7.518 0l.488.282v.565h-.976zm-12.272.003l.487.281v.565h-.975zM.77 4.48h.976v.566l-.487.282zm4.754 0h.977l-.489.846-.488-.282zm31.635 0h.975l-.488.845-.487-.28zm-3.778 0v.564l-.489.283-.488-.846zm-13.322.343l.35.606h.697v.7l.608.35-.35.607.349.603-.607.35v.699h-.697l-.35.606-.607-.35-.604.348-.35-.604h-.7v-.7l-.606-.349.35-.606-.35-.605.606-.35V5.43h.699l.35-.607.605.35zm1.282.606h.979l-.49.848-.49-.283zm1.248 0h1.111v1.112l-.705.407-.962-.555zm1.346 0h.564l.282.488-.846.489zm2.746 0h.562v.977l-.845-.488zm-15.02.002h.564l.282.489-.846.488zm2.744 0h.565v.977l-.847-.489zm.799 0h1.115l.555.962-.965.557-.705-.408zm1.384 0h.975v.563l-.487.282zm21.144.215l.848.49-.847.488-.283-.49zm-4.925 0l.282.489-.282.487-.845-.487zM6.099 5.65l.846.488-.844.487-.283-.489zm-4.926 0l.282.488-.282.487-.844-.487zm12.143.074l.49.282-.49.847-.489-.847zm12.274 0l.489.282-.49.845-.487-.846zm-8.599.873l.283.488-.283.49-.846-.489zm4.926 0l.845.488-.846.489-.281-.487zm-6.712.217l.472.272-.472.273zm8.496 0v.543l-.47-.272zm9.192.13l.49.284v.562h-.979zm4.755.001l.488.845h-.977v-.562zm-31.634 0l.488.845-.977.001v-.563zm-4.754.001l.488.282v.564H.77zm20.57.947l.49.847h-.978v-.565zm-4.753.001l.487.281v.565h-.974zm16.54.13h.562l.283.49-.845.488zm2.744 0h.564v.978l-.846-.49zm-31.07.003V9l-.846-.487.282-.488zm-3.309 0h.565l.281.488-.846.489zm1.655.291l.489.282-.49.847-.488-.847zm31.634 0l.487.28-.489.847-.487-.845zm-3.543.647l.488.845-.488.282-.487-.282zm-13.93.01h.565l.282.487-.846.489zm2.747 0h.562v.976l-.844-.488zm-1.092.293l.49.282-.488.844-.489-.846zm10.621.14l.846.489-.281.488h-.565zm3.309 0v.977h-.565l-.281-.488zm-24.56.508l.49.845-.49.282-.486-.281zm7.089 0l.487.844-.489.283-.486-.281zm15.21.098l.606.35.606-.35.35.605h.699v.7l.605.349-.35.605.35.606-.605.35v.699h-.7l-.349.605-.606-.35-.605.35-.35-.605h-.699v-.7l-.605-.349.35-.606-.35-.605.605-.35v-.7h.7zm-16.866.344l.847.489-.283.489h-.564zm3.308 0v.978h-.562l-.283-.49zm-10.394.002l.846.488-.282.488H7.17zm3.31 0v.976h-.564l-.282-.488zm18.383.26h.977v.564l-.488.282zm4.754 0h.977l-.489.846-.488-.282zm-21.248.246l.272.47h-.544zm4.147.097l.351.608h.697v.697l.608.351-.35.606.35.605-.608.35.001.7h-.698l-.349.604-.608-.35-.604.349-.35-.604h-.698v-.699l-.606-.35.35-.605-.351-.608.605-.349v-.697h.7l.35-.606.604.348zm-7.086.002l.35.606h.7v.7l.604.347-.35.605.35.607-.605.35v.7h-.7l-.349.604-.606-.349-.605.35-.35-.606H7.17v-.699l-.605-.35.349-.605-.35-.606.606-.349v-.7h.701l.348-.604.605.349zm-3.471.606h.977v.564l-.489.282zm4.756 0h.975l-.489.845-.486-.28zm1.246 0h.815l.555.961-.964.557-.962-.556zm1.086 0h.975v.562l-.488.282zm4.752 0h.976l-.487.845-.49-.283zm11.466.215l.282.488-.282.488-.845-.488zm4.927 0l.845.488-.845.488-.282-.488zM27.48 12l.471.273-.47.272zm8.498 0v.545l-.47-.272zm-7.793.408l.962.556-.555.962H27.48v-1.112zm7.087 0l.706.407-.001 1.111h-1.112l-.555-.962zm-9.68.098l.489.847-.49.282-.487-.282zm12.273 0l.488.846-.488.281-.488-.281zm-24.417.227l.283.49-.282.488-.848-.489zm-2.16 0l.845.489-.845.488-.282-.489zm7.086 0l.847.49-.847.488-.282-.488zm-12.012.002l.282.488-.282.489-.846-.489zm17.575.215l.847.488-.282.488h-.565zm3.31 0v.976h-.564l-.282-.489zm8.965 0l.845.488-.282.488h-.564zm-6.861.131l.489.283v.562h-.977zm4.755 0l.488.845h-.977v-.562zm-21.739.276l.965.557-.556.963h-.814l-.557-.964zm12.62.198l.605.35.606-.35.349.605h.7v.7l.604.349-.35.606.35.605-.605.35v.7h-.7l-.349.606-.605-.35-.605.35-.35-.607h-.7v-.7l-.605-.349.35-.605-.35-.606.605-.35v-.699h.7zm-13.785.475l.488.847h-.977v-.564zm7.086 0l.49.847h-.979v-.564zm-4.753 0l.489.283v.564h-.978zm-7.088.001l.489.282v.564h-.977zm16.28.13h.976v.564l-.488.281zm4.753 0h.976l-.488.845-.488-.281zm1.248 0h1.112v1.111l-.707.408-.961-.556zm1.346 0h.565l.282.487-.847.489zm2.744 0h.565v.976l-.846-.489zm.8 0h1.11l.556.962-.961.556-.706-.407zm1.383 0h.976v.562l-.49.282zm-33.968.001h.977l-.488.845-.489-.282zm30.695.291l.489.282-.488.845-.488-.845zm-.69.399l.556.962-.557.965-.963-.556v-.815zm1.381 0l.964.556v.813l-.963.556-.556-.963zm-27.41.26h.544l-.271.47zm.815 0h1.112v1.11l-.963.557-.556-.963zm1.346 0h.564l.282.488-.845.487zm2.746 0h.563v.976l-.845-.488zm.797 0h1.113l.407.705-.556.962-.963-.556zm1.384 0h.544l-.272.47zm.814 0h1.113v1.11l-.965.557-.555-.962zm1.347 0h.562l.282.486-.844.488zm2.744 0h.563v.975l-.845-.488zm.797 0h1.114l.407.704-.556.963-.964-.557zm1.383 0h.545l-.272.47zm3.946.215l.282.488-.282.487-.845-.487zm4.927 0l.845.488-.845.487-.282-.487zm7.347 0l.282.488-.281.487-.845-.487zm-33.794.002l.845.488-.845.487-.282-.487zm7.216.074l.49.282-.49.846-.488-.846zm7.086 0l.49.282-.488.846-.489-.847zm17.707.14l.47.272-.47.271zm-3.777 0v.545l-.471-.272zm-14.62.259l.556.963-.407.706h-1.111v-1.114zm-7.087 0l.557.963-.408.706h-1.11l-.001-1.113zm8.47 0l.963.556v1.112h-1.11l-.409-.706zm-7.086 0l.963.556v1.113H9.367l-.407-.705zm19.618.148l.705.408v1.111h-1.111l-.556-.963zm5.188 0l.962.555-.557.964h-1.11V16.36zm-2.594.098l.49.847-.49.283-.49-.282zm-12.274.002l.489.845-.49.283-.488-.282zm-14.173.002l.487.845-.486.281-.49-.282zm7.087 0l.488.845-.488.281-.488-.281zm1.655.44v.98h-.565l-.283-.49zm-10.397.001l.846.49-.282.488h-.564zm14.173 0l.847.489-.282.488H17.8zm3.31 0v.977h-.565l-.282-.488zm8.964 0l.846.488-.281.489h-.565zm3.309 0v.977h-.563l-.282-.49zm-22.67 0l.847.489-.282.49h-.564zm-3.776.001v.977h-.564l-.282-.488zm28.551.13l.488.28v.566H35zm-12.274 0l.49.282v.563h-.978zm4.756 0l.488.845h-.978v-.563zm-26.449 0l.489.847h-.977v-.565zm14.39.374l.273.472h-.545zm-7.086.002l.273.471h-.544zm23.51.094l.35.607h.698v.699l.605.35-.342.592.342.594-.605.349v.7h-.697l-.35.605-.608-.35-.605.35-.35-.606h-.699v-.699l-.605-.35.342-.593-.342-.593.605-.35v-.698h.7l.349-.606.605.35zm-12.275.001l.35.606h.7v.699l.605.35-.342.592.342.594-.606.349v.7h-.699l-.35.605-.605-.35-.605.35-.35-.606h-.7v-.701l-.603-.349.315-.546.026-.046-.026-.046-.315-.545.604-.35v-.7h.699l.35-.606.605.35zm-7.086 0l.35.608h.7v.699l.604.349-.341.591.341.592-.604.349v.7h-.7l-.35.606-.605-.349-.605.349-.35-.607h-.7v-.7l-.605-.348.342-.592-.342-.59.606-.35v-.7h.699l.35-.606.605.349zm-8.298.001l.607.35.604-.348.35.605h.7v.699l.604.349-.341.591.341.592-.604.349v.7h-.7l-.35.604-.604-.35-.607.352-.35-.607h-.7v-.699l-.604-.35.34-.59-.34-.591.605-.35v-.7h.699zm16.668.608h.976l-.488.846-.488-.282zm1.247 0h1.112v1.113l-.703.407-.965-.557zm1.346 0h.565l.283.49-.848.489zm2.746 0h.563v.977l-.845-.487zm.797 0h1.113l.556.963-.963.557-.706-.408zm1.384 0h.976v.564l-.488.283zm4.753 0h.976l-.488.846-.488-.282zm1.248 0h1.111v1.112l-.705.408-.962-.556zm1.346 0h.564l.282.488-.846.489zm-18.645 0v.564l-.487.282-.488-.845zm-1.246.001l.556.962-.965.557-.963-.556.556-.962zm-15.287 0h1.112l.557.964-.963.556-.706-.407zm1.383 0h.977v.565l-.489.282zm4.755 0h.976l-.488.846-.487-.28zm1.247 0h.814l.556.963-.963.556-.963-.555zm1.086 0h.976v.563l-.489.282zm4.754 0h.976l-.488.846-.488-.28zm23.607.29l.489.282-.488.846-.49-.846zm-12.273.002l.488.281-.488.846-.488-.846zm11.582.394l.55.951-.55.952-.963-.557v-.789zm-12.272.002l.548.95-.548.95-.965-.557v-.786zm1.382 0l.962.556v.788l-.962.556-.549-.95zm2.983.473l.275.477-.275.476-.826-.476zm-7.349.001l.824.476-.824.475-.274-.475zm12.274 0l.823.476-.823.475-.275-.475zm-19.362 0l.823.476-.823.475-.274-.475zm2.163 0l.275.476-.275.475-.822-.475zm-9.248.001l.822.475-.822.474-.274-.474zm-4.926.001l.274.474-.274.474-.82-.474zm7.087 0l.273.474-.273.473-.82-.473zm17.574.214l.45.26-.45.26v-.26zm8.496 0v.52l-.448-.26zm-34.943.002l.446.258-.446.257v-.257zm22.67 0v.515l-.446-.257zm-21.964.375l.963.556-.557.963H1.033v-1.112zm7.086.001l.963.556-.556.962h-.814l-.556-.962zm7.086 0l.965.557-.556.962h-.816l-.556-.963zm7.089 0l.703.407v1.113h-1.112l-.556-.963zm5.186 0l.963.558-.556.962H27.48V19.87zm7.085 0l.705.408v1.112h-1.111l-.556-.963zm-9.679.1l.488.846-.488.281-.488-.281zm12.274 0l.488.847-.489.282-.488-.282zm-13.929.442l.848.489-.283.49h-.565zm3.31 0v.978h-.564l-.282-.49zm8.964.001l.846.489-.282.488h-.564zm-33.307.129l.489.282v.564h-.977zm4.755 0l.488.846h-.976v-.564zm7.087 0l.488.846h-.976v-.564zm-4.755.002l.49.282v.562h-.977zm7.088 0l.488.282-.001.564-.975-.001zm4.753 0l.488.846h-.976v-.564zm7.52 0l.488.282v.564h-.976zm4.753 0l.488.846h-.976v-.564zm-9.118.474l.605.35.605-.35.35.607h.7v.7l.605.349-.35.606.35.605-.606.35v.699h-.7l-.348.605-.606-.35-.606.35-.35-.605h-.699v-.7l-.605-.349.35-.605-.35-.606.605-.35v-.7h.7zm-21.36.605h.564l.282.489-.846.49zm2.746 0h.564v.977l-.846-.489zm2.18 0h.545l-.273.47zm2.161 0h.564l.282.49-.846.488zm2.745 0h.565v.979l-.848-.49zm-12.426 0h.977l-.489.846-.488-.281zm6.138 0h1.111l.408.706-.557.963-.962-.556zm2.196 0h1.113v1.113l-.963.555-.557-.963zm4.89 0h1.112l.407.706-.557.964-.961-.556zm1.382 0h.545l-.273.473zm.817 0l1.11.001v1.113l-.963.555-.556-.962zm1.344 0l.565.001.282.488-.847.49zm2.745.001h.564v.977l-.846-.489zm2.181 0h.977v.563l-.489.283zm4.754 0h.978l-.488.846-.49-.283zm2.594 0h.565l.281.489-.846.488zm2.746 0h.563v.977l-.845-.488zm2.18 0h.976v.565l-.488.282zm-6.271.001h1.11v1.112l-.704.407-.962-.556zm4.888 0h1.111l.557.964-.962.555-.706-.407zm-12.273.002h1.111l.556.963-1.197.692 1.198.69-.692 1.198h1.383v1.383l1.197-.692.692 1.198.692-1.198.962.555v1.086l.94-.543.962.556-.691 1.198h1.383v1.383l1.198-.692.69 1.198.691-1.198.964.556v1.112H32l.69 1.197-1.196.692 1.197.691-.556.962H31.05l.543.941-.556.963-1.022-.59-.176-.101V36.8h-1.111l-.557-.963 1.197-.691-1.197-.691.691-1.198H27.48v-1.382l-1.197.69-.692-1.196-.691 1.197-.963-.556v-1.085l-.94.542-.963-.555.59-1.022.101-.176h-1.382v-1.383l-1.197.69-.69-1.195-.692 1.197-.964-.557v-1.113h1.382l-.69-1.197 1.198-.692-1.198-.69.556-.964h1.086l-.543-.94.556-.961 1.198.692zm-16.06.289l.485.281-.487.845-.488-.844zm7.085 0l.488.281-.488.845-.488-.845zm7.086 0l.489.283-.489.845-.489-.845zm12.273 0l.49.284-.489.847-.49-.848zm-25.755.4l.963.555v1.111H5.824l-.407-.704zm5.704 0l.556.962-.407.704h-1.113v-1.11zm1.382 0l.965.557v1.11H12.91l-.407-.705zm5.705 0l.556.963-.407.703H17.8v-1.11zm12.273 0l.557.964-.556.962-.964-.556v-.815zm1.383.001l.963.557v.813l-.964.556-.555-.962zm-23.596.246l.49.847-.49.282-.488-.282zm7.088 0l.488.846-.49.283-.487-.281zm-14.304.227l.845.488-.845.488-.282-.488zm21.52.002l.282.488-.282.488-.845-.488zm4.927 0l.845.488-.845.488-.282-.488zm7.348 0l.28.488-.28.488-.845-.488zm-24.924.215v.976h-.563l-.282-.489zm19.36 0v.544l-.47-.272zm-22.668 0l.845.488-.282.488H7.17zm10.395 0l-.001.976h-.563l-.282-.487zm16.051.001l.47.272-.47.271zm-19.36 0l.845.489-.282.486h-.562zm14.876.407l.707.408v1.111h-1.112l-.556-.964zm5.19 0l.961.556-.555.963h-1.112v-1.11zm-29.041.097l.271.47H5.01zm7.087 0l.272.47h-.544zm7.086 0l.272.47h-.545zm12.274.003l.488.845-.489.282-.487-.282zm-23.51.098l.605.35.606-.35.35.605h.7l-.001.699.606.35-.35.607.35.605-.605.348v.7h-.7l-.35.605-.606-.35-.605.35-.348-.606H7.17v-.699l-.605-.35.349-.605-.35-.606.606-.349v-.7h.699zm8.299 0l.35.605h.697v.699l.607.35-.35.605.35.606-.608.351v.697h-.697l-.35.608-.607-.35-.603.348-.35-.606h-.701v-.697l-.605-.35.35-.607-.349-.606.606-.349v-.7h.699l.349-.603.604.35zm13.556.343l.847.489-.282.488h-.565zm3.309 0v.977h-.565l-.281-.488zm-31.86.13l.487.844h-.977v-.562zm21.692 0l.488.282v.564h-.977zm4.753 0l.488.846h-.976v-.564zm7.52.002l.488.282v.562h-.975zm-29.529.128h.977v.564l-.489.282zm4.754 0h.977l-.488.847-.49-.283zm1.249 0h.814l.556.963-.965.557-.962-.556zm1.084 0h.978v.564l-.489.282zm4.753 0h.979l-.49.847-.49-.283zm13.324.346l.605.35.606-.35.35.605h.699v.7l.605.35-.35.605.35.605-.605.35v.699h-.7l-.349.605-.606-.35-.605.35-.35-.605h-.699v-.7l-.605-.349.35-.605-.35-.606.605-.35v-.699h.7zm-7.186.605h.565l.282.488-.847.488zm2.746 0h.563v.976l-.845-.488zm.797 0h1.112l.555.962-.962.556-.705-.406zm1.383 0h.977v.562l-.49.282zm4.754 0h.977l-.488.844-.489-.282zm1.248 0h1.112v1.111l-.704.407-.963-.556zm1.346 0h.564l.282.488-.845.488zm-29.849.214l.282.489-.282.488-.846-.488zm7.087 0l.282.489-.283.49-.847-.49zm4.925 0l.847.489-.847.49-.282-.49zm-7.086.002l.845.488-.846.488-.281-.487zm14.304.075l.489.282-.49.847-.487-.847zm12.273.002l.488.282-.488.845-.488-.845zm-25.498.546l.964.557-.555.961h-.815l-.556-.962zm21.825.327l.845.488-.845.488-.282-.487zm-4.927 0l.282.489-.282.487-.845-.487zm-1.785.216l.471.272-.47.272zm8.498 0v.544l-.47-.272zm-29.53.13l.488.281v.564h-.977zm4.753 0l.489.845h-.975v-.564zm7.087 0l.487.845H17.8v-.561zm-4.754.001l.488.282v.562h-.975zm15.818.95l.488.281v.565h-.977zm4.753 0l.489.846h-.977v-.565zM7.17 27.35h.564l.282.488-.846.489zm2.746 0h.564v.977l-.846-.489zm2.18 0h.545l-.272.47zm2.16 0h.564l.283.49-.847.489zm2.746 0h.562v.979l-.845-.489zm-8.178.293l.488.282-.488.846-.487-.846zm7.086 0l.49.283-.488.845-.488-.846zm3.545.649l.488.844-.49.283-.487-.281zm10.62.01h.564l.281.488-.846.488zm2.743 0h.565v.976l-.846-.488zm-1.09.293l.488.281-.488.846-.487-.846zm-13.93.14l.847.49-.282.487H17.8zm3.31 0v.977h-.563l-.282-.489zm-17.471.504l.489.847-.49.282-.488-.282zm31.632.002l.489.846-.487.281-.489-.282zm-15.21.1l.351.607h.697v.699l.607.35-.349.603.35.606-.608.351v.7h-.697l-.35.606-.607-.35-.605.349-.35-.607h-.7v-.698l-.605-.35.35-.605-.35-.606.606-.349v-.7h.7l.35-.604.604.349zm-18.077.342l.846.488-.281.488h-.565zm3.309.002v.975h-.564l-.282-.488zm28.326 0l.845.488-.283.489h-.562zm3.309 0l-.002.977h-.563l-.282-.488zm-20.336.262h.974v.565l-.487.28zm4.752 0h.978l-.49.847-.488-.282zm-18.311.343l.606.35.605-.35.35.605h.699v.7l.606.35-.35.606.348.604-.604.35v.7h-.7l-.35.606-.604-.35-.606.35-.35-.606h-.699v-.7l-.605-.35.35-.606-.35-.605.606-.35v-.699h.699zm31.633 0l.607.351.605-.349.348.605h.7v.697l.607.35-.351.607.35.606-.604.35-.001.698h-.7l-.35.606-.606-.35-.604.349-.349-.605h-.7l.001-.699-.606-.35.348-.605-.348-.604.606-.35v-.7h.697zm-33.893.604h.977v.565l-.488.281zm4.754.001l.977.001-.488.845-.489-.282zm26.88.001h.978v.563l-.49.283zm4.754 0h.977l-.488.845-.49-.282zm-20.168.216l.283.49-.283.488-.846-.49zm4.925.001l.846.488-.845.488-.282-.49zm-6.711.215l.472.273-.472.272zm8.496.002v.543l-.47-.272zm-7.79.406l.964.557-.555.961h-1.115v-1.11zm7.085.002l.705.407v1.112H22.59l-.556-.964zm-9.68.096l.49.847-.49.282-.489-.282zm12.274.002l.489.845-.49.282-.487-.281zm-24.417.226l.282.487-.282.487-.844-.487zm4.928 0l.844.487-.846.488-.28-.486zm31.633 0l.847.489-.848.49-.282-.49zm-4.926.002l.282.488-.282.488-.845-.488zm-21.146.214l.846.489-.282.488h-.564zm3.309.001v.976h-.565l-.282-.488zm8.965.002l.846.488-.282.488h-.564zm3.308 0v.976h-.562l-.283-.488zm-5.412.129l.489.847h-.98v-.564zm-4.755 0l.487.282v.563h-.975zm-4.366.475l.605.349.606-.35.35.606h.699v.699l.608.35-.35.607.349.605-.607.35v.698h-.7l-.35.607-.605-.35-.604.35-.35-.607h-.7v-.698l-.606-.35.35-.607-.349-.606.605-.35v-.698h.7zm13.486 0l.35.607h.697v.699l.606.35-.348.605.348.605-.606.35v.7h-.697l-.35.606-.607-.35-.606.349-.35-.605h-.698v-.7l-.606-.35.35-.605-.35-.606.606-.349v-.7h.699l.35-.604.605.349zM1.26 33.36l.488.282v.566H.77zm31.633.001l.49.283v.564h-.978zm-26.88.001l.49.846h-.978v-.564zm31.634.001l.488.845h-.975v-.564zm-22.442.128h.98l-.49.848-.49-.284zm2.594 0h.564l.283.49-.847.49zm-7.346 0h.975v.565l-.487.282zm6.001 0h1.11v1.115l-.704.407-.963-.557zm4.09.003h.563v.976l-.844-.487zm2.181 0h.976v.564l-.488.282zm4.754 0h.976l-.488.846-.488-.282zm-6.137 0h1.114l.555.962-.964.557-.705-.407zm-1.889.293l.49.283-.49.845-.488-.846zm-.69.398l.556.964-.556.963-.964-.557v-.813zm1.382.002l.962.556v.812l-.963.557-.555-.963zm11.31.254H32l-.273.473zm.815.001l1.112.001v1.112l-.965.556-.555-.963zm-25.361.001h.542l-.271.47zm26.708 0h.562l.282.489-.845.488zm-32.982 0h1.112v1.112l-.962.555-.556-.963zm1.347 0h.565l.281.488-.847.49zm2.745 0h.564v.978l-.846-.49zm.798 0h1.113l.406.705-.556.964-.963-.556zm30.836 0h.564v.978l-.846-.488zm.799 0h1.11l.408.706-.556.963-.963-.556zm-26.305.215l.281.489-.283.49-.847-.488zm4.926.001l.846.49-.847.488-.282-.488zm7.347 0l.282.49-.282.488-.847-.489zm4.925.002l.845.488-.845.488-.281-.488zm-24.416.074l.488.282-.489.846-.488-.846zm31.632 0l.49.282-.49.846-.487-.846zm-17.705.143v.543l-.47-.272zm3.778 0l.47.272-.47.271zm-18.397.256l.556.962-.407.706H1.98v-1.112zm1.383 0l.963.557v1.11H4.179l-.407-.704zm30.25 0l.556.963-.407.707h-1.111v-1.114zm1.384.002l.963.556-.001 1.112h-1.112l-.406-.705zm-19.101.148l.703.406v1.113h-1.112l-.555-.963zm5.184 0l.965.558-.556.962h-1.112v-1.114zm-14.865.099l.488.845-.49.283-.488-.282zm12.274 0l.488.846-.489.282-.488-.282zm12.273 0l.488.846-.489.282-.487-.282zm-22.893.442v.977h-.565l-.282-.489zm8.965 0l.847.49-.283.489H17.8zm3.308 0v.979h-.564l-.283-.49zm-19.36 0v.977h-.563L.9 36.312zm3.778.001l.846.489-.281.487h-.565zm27.857 0v.978h-.566l-.281-.488zm-3.31.001l.846.489-.281.488h-.565zm7.087 0l.846.489-.283.488h-.563zm-26.22.13l.489.282v.563h-.977zm4.755 0l.488.846h-.977v-.564zm12.273 0l.488.847h-.976v-.565zm-4.755.002l.49.282v.563h-.978zm-19.575.373l.271.47h-.543zm31.634.002l.272.47h-.544zm-33.29.702h.978l-.49.847-.489-.282zm2.333 0h.977v.565l-.488.281zm7.348 0h.564l.283.49-.847.488zm2.746 0h.563v.979l-.846-.489zm-11.18 0h.816L4.6 38l-.964.556L2.672 38zm7.09 0h1.11v1.113l-.707.408-.96-.556zm-1.25 0l.977.002-.488.845-.489-.282zm6.137 0l1.112.001.555.963-.964.556-.703-.406zm1.383 0l.976.001v.564l-.488.281zm4.754.002h.976l-.488.844-.488-.281zm2.594 0h.564l.282.488-.846.488zm2.746 0h.562v.977l-.845-.488zm2.18 0h.976v.563l-.489.282zm4.754 0h.976l-.488.845-.489-.282zm2.331 0h.977v.564l-.488.282zm-13.358 0h1.112v1.112l-.703.406-.965-.556zm4.89 0h1.11l.556.963-.963.556-.703-.407zm7.385 0h.814l.556.963-.964.556-.962-.556zm-21.548.29l.489.283-.488.846-.489-.847zm12.274.004l.49.282-.49.846-.489-.847z" style="line-height:normal;font-variant-ligatures:normal;font-variant-position:normal;font-variant-caps:normal;font-variant-numeric:normal;font-variant-alternates:normal;font-variant-east-asian:normal;font-feature-settings:normal;font-variation-settings:normal;text-indent:0;text-align:start;text-decoration-line:none;text-decoration-style:solid;text-decoration-color:#000;text-transform:none;text-orientation:mixed;white-space:normal;shape-padding:0;shape-margin:0;inline-size:0;isolation:auto;mix-blend-mode:normal;solid-color:#000;solid-opacity:1" overflow="visible" opacity=".09"/><path d="M12.409 10.427l-1.635 2.828 1.498 2.594-.955 1.652H9.405L7.91 14.91l-3.266-.002 1.633 2.828h2.996l.955 1.654-.957 1.656H6.276l-1.633 2.827H7.91l1.496-2.592h1.912l.955 1.652-1.498 2.596 1.633 2.826 1.633-2.828-1.498-2.592.955-1.654h1.912l1.496 2.592 3.268.002-1.633-2.829h-2.996l-.955-1.654.955-1.656 2.996.002 1.63-2.828h-3.263l-1.498 2.592h-1.912l-.953-1.653 1.498-2.594zm0 .469l1.361 2.36-1.363 2.359-1.361-2.36zm-7.36 4.246l2.725.002 1.362 2.358H6.41zm11.993.002h2.722l-1.36 2.36-2.724-.003zm-4.635.94l.955 1.652h1.912l-.957 1.656.955 1.654h-1.91l-.955 1.655-.955-1.655H9.54l.957-1.656-.955-1.654h1.91zM6.411 21.28h2.725l-1.362 2.357H5.048zm9.268 0h2.724l1.363 2.36-2.726-.003zm-3.272 1.887l1.363 2.359-1.363 2.36-1.361-2.358z" style="line-height:normal;font-variant-ligatures:normal;font-variant-position:normal;font-variant-caps:normal;font-variant-numeric:normal;font-variant-alternates:normal;font-variant-east-asian:normal;font-feature-settings:normal;font-variation-settings:normal;text-indent:0;text-align:start;text-decoration-line:none;text-decoration-style:solid;text-decoration-color:#000;text-transform:none;text-orientation:mixed;white-space:normal;shape-padding:0;shape-margin:0;inline-size:0;isolation:auto;mix-blend-mode:normal;solid-color:#000;solid-opacity:1" overflow="visible" fill="#0f0" stroke="#000" stroke-width=".034"/><path d="M47.968 16l-1.09 1.89-2.181-.003 1.091 1.891-2.453 4.246h-2.181l1.09 1.889-1.09 1.89h2.181l2.451 4.247-1.09 1.89h2.182l1.09 1.887 1.09-1.887h4.906l1.09 1.887 1.09-1.887h2.181l-1.09-1.888 2.454-4.248h2.18l-.102-.176-.988-1.713 1.091-1.889H59.69l-2.453-4.248 1.09-1.889h-2.18l-1.09-1.888-1.092 1.888H49.06l-1.092-1.888zm7.088.468l.955 1.656h1.91l-.955 1.654 2.588 4.483h1.91l-.955 1.654.953 1.654h-1.908l-2.59 4.483.955 1.654h-1.91l-.955 1.652-.955-1.652h-5.176l-.955 1.652-.955-1.652h-1.91l.955-1.656-2.588-4.48h-1.91l.955-1.657-.955-1.654h1.91l2.588-4.48-.955-1.657 1.91.002.955-1.654.955 1.654h5.178l.955-1.656z" style="line-height:normal;font-variant-ligatures:normal;font-variant-position:normal;font-variant-caps:normal;font-variant-numeric:normal;font-variant-alternates:normal;font-variant-east-asian:normal;font-feature-settings:normal;font-variation-settings:normal;text-indent:0;text-align:start;text-decoration-line:none;text-decoration-style:solid;text-decoration-color:#000;text-transform:none;text-orientation:mixed;white-space:normal;shape-padding:0;shape-margin:0;inline-size:0;isolation:auto;mix-blend-mode:normal;solid-color:#000;solid-opacity:1" overflow="visible" fill="purple"/><path d="M73.157 16.976v2.18l-3.543 2.046-.002 4.09-3.543 2.045v4.092l-1.889 1.09 1.889 1.092v2.18l1.888-1.09 1.889 1.09v-2.18l3.543-2.047v-4.09l3.545-2.045v-4.092l1.889-1.09-.176-.101-1.713-.99v-2.18l-1.889 1.09zm.234.406l1.654.955 1.655-.955v1.91l1.654.955-1.654.955v4.09l-3.545 2.045v4.092l-3.543 2.045v1.91l-1.655-.955-1.654.955v-1.91l-1.654-.955 1.654-.955v-4.09l3.543-2.047.002-4.09 3.543-2.045z" style="line-height:normal;font-variant-ligatures:normal;font-variant-position:normal;font-variant-caps:normal;font-variant-numeric:normal;font-variant-alternates:normal;font-variant-east-asian:normal;font-feature-settings:normal;font-variation-settings:normal;text-indent:0;text-align:start;text-decoration-line:none;text-decoration-style:solid;text-decoration-color:#000;text-transform:none;text-orientation:mixed;white-space:normal;shape-padding:0;shape-margin:0;inline-size:0;isolation:auto;mix-blend-mode:normal;solid-color:#000;solid-opacity:1" overflow="visible" fill="none" stroke="#000" stroke-width=".034"/><path d="M46.081 16.505v2.181l-1.888 1.09 1.888 1.092-.002 4.09 3.543 2.047v4.09l3.543 2.046v2.182l1.889-1.092 1.889 1.092v-2.182l1.888-1.09-1.888-1.091v-4.09L53.4 24.823l.002-4.092-3.545-2.045.002-2.181-.176.101-1.713.99-1.889-1.091zm.235.406l1.654.955 1.654-.955-.002 1.91 3.545 2.047-.002 4.09 3.543 2.047v4.09l1.655.957-1.655.955v1.91l-1.654-.955-1.654.955v-1.91l-3.543-2.047v-4.09l-3.543-2.047.002-4.092-1.655-.955 1.655-.955v-1.91z" style="line-height:normal;font-variant-ligatures:normal;font-variant-position:normal;font-variant-caps:normal;font-variant-numeric:normal;font-variant-alternates:normal;font-variant-east-asian:normal;font-feature-settings:normal;font-variation-settings:normal;text-indent:0;text-align:start;text-decoration-line:none;text-decoration-style:solid;text-decoration-color:#000;text-transform:none;text-orientation:mixed;white-space:normal;shape-padding:0;shape-margin:0;inline-size:0;isolation:auto;mix-blend-mode:normal;solid-color:#000;solid-opacity:1" overflow="visible" fill="green"/><path d="M47.968 21.686l-3.543 2.047-1.889-1.092v2.182l-1.888 1.09 1.888 1.09v2.181l1.89-1.09 3.542 2.045 3.543-2.044 3.543 2.046 3.543-2.045 1.889 1.09v-2.181l1.888-1.09-1.888-1.09v-2.182l-1.89 1.09-3.542-2.045-3.543 2.045-3.543-2.047zm0 .272l3.543 2.047 3.543-2.047 3.543 2.047 1.654-.955v1.91l1.655.955-1.655.955v1.91l-1.654-.955-3.543 2.045-3.543-2.045-3.543 2.045-3.543-2.047-1.654.955v-1.91l-1.655-.955 1.655-.955v-1.91l1.654.955 3.543-2.045z" style="line-height:normal;font-variant-ligatures:normal;font-variant-position:normal;font-variant-caps:normal;font-variant-numeric:normal;font-variant-alternates:normal;font-variant-east-asian:normal;font-feature-settings:normal;font-variation-settings:normal;text-indent:0;text-align:start;text-decoration-line:none;text-decoration-style:solid;text-decoration-color:#000;text-transform:none;text-orientation:mixed;white-space:normal;shape-padding:0;shape-margin:0;inline-size:0;isolation:auto;mix-blend-mode:normal;solid-color:#000;solid-opacity:1" overflow="visible" fill="teal"/><path d="M48.923 21.432l-2.588 4.483 2.588 4.48H54.1l2.59-4.48-.035-.059-2.553-4.424h-5.178zm.137.235h4.904l2.453 4.248-2.453 4.246h-4.906l-2.451-4.246 2.453-4.248z" style="line-height:normal;font-variant-ligatures:normal;font-variant-position:normal;font-variant-caps:normal;font-variant-numeric:normal;font-variant-alternates:normal;font-variant-east-asian:normal;font-feature-settings:normal;font-variation-settings:normal;text-indent:0;text-align:start;text-decoration-line:none;text-decoration-style:solid;text-decoration-color:#000;text-transform:none;text-orientation:mixed;white-space:normal;shape-padding:0;shape-margin:0;inline-size:0;isolation:auto;mix-blend-mode:normal;solid-color:#000;solid-opacity:1" overflow="visible" fill="purple"/><path style="line-height:normal;font-variant-ligatures:normal;font-variant-position:normal;font-variant-caps:normal;font-variant-numeric:normal;font-variant-alternates:normal;font-variant-east-asian:normal;font-feature-settings:normal;font-variation-settings:normal;text-indent:0;text-align:start;text-decoration-line:none;text-decoration-style:solid;text-decoration-color:#000;text-transform:none;text-orientation:mixed;white-space:normal;shape-padding:0;shape-margin:0;inline-size:0;isolation:auto;mix-blend-mode:normal;solid-color:#000;solid-opacity:1" d="M36.348 11.677l-2.83 1.632v2.995l-1.653.954-1.656-.956v-2.993l-2.827-1.634v3.265l2.595 1.498v1.91l-1.657.956-2.593-1.497-2.827 1.631 2.828 1.633 2.591-1.496 1.656.956.001 1.908-2.595 1.5.001 3.263 2.828-1.633-.001-2.993 1.654-.955 1.656.956v2.992l2.829 1.636v-3.266l-2.595-1.498v-1.91l1.655-.957 2.594 1.5 2.826-1.634-.176-.101-2.65-1.53-2.593 1.495-1.656-.956V16.44l2.595-1.497zm-.235.406v2.724l-2.36 1.362v-2.724zm-8.496-.002l2.358 1.364v2.723l-2.359-1.363zM38 18.08l2.358 1.361-2.358 1.363-2.357-1.363zm-4.483-1.504v1.909l1.657.956-1.657.956v1.91l-1.655-.955-1.654.955v-1.91l-1.656-.956 1.657-.956v-1.91l1.655.955zm-7.792 1.503l2.36 1.363-2.358 1.36-2.36-1.363zm8.026 4.634l2.36 1.362V26.8l-2.36-1.365zm-3.776-.002v2.725l-2.36 1.362v-2.723zM23.935-7.763l-2.83 1.631.001 2.996-1.653.953-1.656-.956v-2.993L14.97-7.766v3.265l2.595 1.499v1.91l-1.657.956-2.593-1.497-2.827 1.63 2.828 1.633L15.907.134l1.656.956.001 1.908-2.595 1.5V7.76l2.829-1.632-.002-2.994 1.655-.955 1.656.956v2.992l2.828 1.636V4.498L21.341 3V1.09l1.655-.957 2.594 1.5L28.416 0l-.176-.101-2.65-1.53-2.594 1.495-1.656-.956.001-1.908 2.594-1.497zm-.234.405v2.724L21.34-3.272v-2.724zm-8.496-.002l2.358 1.364v2.723l-2.36-1.363zm10.384 5.998L27.947 0l-2.359 1.362L23.231 0zm-4.483-1.504v1.909l1.656.956-1.657.956v1.91l-1.654-.955-1.654.955V.955l-1.656-.956 1.657-.956v-1.91l1.654.955zm-7.792 1.503L15.674 0l-2.358 1.36-2.361-1.363zm8.026 4.634l2.36 1.362v2.725l-2.36-1.365zm-3.776-.002v2.725l-2.36 1.362V4.634zM23.937 30.925l-2.83 1.632v2.996l-1.653.953-1.656-.956v-2.993l-2.827-1.634v3.265l2.595 1.498v1.91l-1.657.956-2.593-1.497-2.827 1.632 2.828 1.632 2.592-1.496 1.655.956.001 1.908-2.595 1.5.001 3.263 2.828-1.633-.001-2.993 1.654-.955 1.656.956v2.992l2.829 1.636v-3.266l-2.595-1.498v-1.91l1.655-.957 2.594 1.5 2.826-1.634-.176-.101-2.65-1.53-2.593 1.495-1.656-.956v-1.908l2.595-1.497zm-.235.406v2.724l-2.36 1.362v-2.724zm-8.496-.002l2.358 1.364v2.723l-2.359-1.363zm10.384 5.998l2.358 1.361-2.358 1.363-2.357-1.363zm-4.483-1.504v1.909l1.657.956-1.657.956v1.91l-1.654-.955-1.655.955v-1.91l-1.656-.956 1.657-.956v-1.91l1.655.955zm-7.792 1.503l2.36 1.363-2.358 1.36-2.36-1.363zm8.026 4.634l2.36 1.362.001 2.725-2.36-1.365zm-3.776-.002v2.725l-2.36 1.362v-2.723zM38.814 29.727l-1.634 2.828 1.498 2.594-.955 1.652H35.81l-1.497-2.592-3.265-.002 1.633 2.828h2.996l.955 1.655-.957 1.656h-2.994l-1.633 2.826h3.265l1.497-2.592h1.912l.955 1.653-1.498 2.595 1.632 2.826 1.633-2.828-1.498-2.592.955-1.654h1.912l1.497 2.592 3.267.002-1.633-2.828H41.95l-.955-1.654.955-1.657 2.996.002 1.631-2.828h-3.263l-1.499 2.592h-1.912l-.953-1.652 1.498-2.594zm0 .468l1.362 2.36-1.364 2.36-1.36-2.36zm-7.359 4.247l2.725.002L35.54 36.8h-2.725zm11.992.002h2.723l-1.361 2.359-2.723-.002zm-4.635.939l.956 1.652h1.912l-.957 1.657.955 1.654h-1.91L38.812 42l-.955-1.654h-1.912l.957-1.656-.955-1.655h1.91zm-5.996 5.197h2.725l-1.361 2.358h-2.727zm9.268 0h2.725l1.363 2.36-2.727-.002zm-3.272 1.887l1.364 2.36-1.364 2.359-1.36-2.358zM38.854-8.967l-1.635 2.828 1.498 2.594-.955 1.652H35.85l-1.496-2.591-3.266-.002 1.633 2.828h2.996l.955 1.654-.957 1.656h-2.994l-1.633 2.826h3.266l1.496-2.591h1.912l.955 1.652-1.498 2.596 1.633 2.826 1.633-2.828-1.498-2.592.955-1.654h1.912l1.496 2.591 3.268.002-1.633-2.828h-2.996l-.955-1.654.955-1.656 2.996.002 1.63-2.828h-3.263l-1.498 2.591h-1.912l-.953-1.652 1.498-2.594zm0 .469l1.361 2.36-1.363 2.359-1.361-2.36zm-7.36 4.246l2.725.002 1.361 2.357h-2.724zm11.993.002h2.722l-1.36 2.36-2.724-.003zm-4.635.94l.955 1.652h1.912l-.957 1.656.955 1.654h-1.91l-.955 1.655-.955-1.655h-1.912l.957-1.656-.955-1.654h1.91zm-5.996 5.197h2.724l-1.36 2.357h-2.727zm9.267 0h2.725l1.363 2.36-2.726-.003zm-3.271 1.887l1.363 2.359-1.363 2.36-1.361-2.358zM.095-8.964L-1.54-6.136l1.498 2.593-.955 1.653h-1.912l-1.496-2.592-3.266-.002 1.633 2.828h2.996l.955 1.654-.957 1.657h-2.994L-7.671 4.48h3.266l1.496-2.592h1.912l.955 1.652-1.498 2.596L.093 8.963l1.633-2.828L.228 3.543l.955-1.654h1.912L4.59 4.481l3.267.002-1.632-2.828H3.23L2.274 0l.956-1.656 2.996.002 1.63-2.828H4.594L3.095-1.89H1.183L.23-3.543l1.498-2.593zm0 .468l1.361 2.36-1.363 2.36-1.361-2.36zm-7.36 4.246l2.725.002 1.361 2.358h-2.724zm11.993.002H7.45L6.09-1.888 3.366-1.89zm-4.635.94l.955 1.652H2.96L2.003 0l.955 1.655h-1.91L.093 3.309l-.955-1.654h-1.912l.957-1.657-.955-1.654h1.91zm-5.996 5.197h2.724L-4.54 4.247h-2.727zm9.267 0H6.09l1.363 2.36-2.726-.003zM.093 3.776l1.363 2.36L.093 8.494l-1.361-2.358zM.095 29.722L-1.54 32.55l1.498 2.594-.955 1.652h-1.912l-1.496-2.592-3.266-.002 1.633 2.828h2.996l.955 1.654-.957 1.657h-2.994l-1.633 2.826h3.266l1.496-2.592h1.912l.955 1.652-1.498 2.596L.093 47.65l1.633-2.828L.228 42.23l.955-1.654h1.912l1.496 2.592 3.268.002-1.633-2.828H3.23l-.955-1.655.955-1.656 2.996.002 1.63-2.828H4.595l-1.499 2.592H1.183L.23 35.144l1.498-2.594zm0 .468l1.361 2.36-1.363 2.36-1.361-2.36zm-7.36 4.246l2.725.002 1.362 2.358h-2.725zm11.993.002H7.45l-1.36 2.36-2.723-.002zm-4.635.94l.955 1.652H2.96l-.957 1.657.955 1.654h-1.91l-.955 1.654-.955-1.654h-1.912l.957-1.656-.955-1.655h1.91zm-5.996 5.197h2.725l-1.362 2.358h-2.726zm9.268 0h2.724l1.363 2.36-2.726-.002zM.093 42.462l1.363 2.36L.093 47.18l-1.361-2.358z" overflow="visible" fill="#0f0" stroke="#000" stroke-width=".034"/><path d="M36.348 11.677l-2.83 1.632v2.995l-1.653.954-1.656-.956v-2.993l-2.827-1.634v3.265l2.595 1.498v1.91l-1.657.956-2.593-1.497-2.827 1.631 2.828 1.633 2.591-1.496 1.656.956.001 1.908-2.595 1.5.001 3.263 2.828-1.633-.001-2.993 1.654-.955 1.656.956v2.992l2.829 1.636v-3.266l-2.595-1.498v-1.91l1.655-.957 2.594 1.5 2.826-1.634-.176-.101-2.65-1.53-2.593 1.495-1.656-.956V16.44l2.595-1.497zm-.235.406v2.724l-2.36 1.362v-2.724zm-8.496-.002l2.358 1.364v2.723l-2.359-1.363zM38 18.08l2.358 1.361-2.358 1.363-2.357-1.363zm-4.483-1.504v1.909l1.657.956-1.657.956v1.91l-1.655-.955-1.654.955v-1.91l-1.656-.956 1.657-.956v-1.91l1.655.955zm-7.792 1.503l2.36 1.363-2.358 1.36-2.36-1.363zm8.026 4.634l2.36 1.362V26.8l-2.36-1.365zm-3.776-.002v2.725l-2.36 1.362v-2.723zM-2.433 11.522l-2.83 1.631v2.996l-1.653.953-1.656-.956v-2.993l-2.827-1.634v3.266l2.595 1.498v1.91l-1.657.956-2.593-1.497-2.827 1.63 2.828 1.633 2.591-1.496 1.656.956.001 1.909-2.595 1.498.001 3.264 2.828-1.632-.001-2.994 1.654-.955 1.656.956v2.993l2.828 1.635v-3.266l-2.594-1.498v-1.91l1.655-.957 2.594 1.5 2.826-1.634-.176-.101-2.65-1.53-2.593 1.495-1.656-.956v-1.908l2.595-1.497zm-.235.405v2.724l-2.36 1.362V13.29zm-8.496-.002l2.358 1.365v2.722l-2.359-1.363zM-.78 17.923l2.358 1.362-2.358 1.362-2.357-1.363zm-4.483-1.504v1.909l1.657.956-1.657.956v1.91l-1.655-.955-1.654.955v-1.91l-1.656-.956 1.657-.956v-1.91l1.654.955zm-7.792 1.503l2.36 1.363-2.358 1.36-2.361-1.363zm8.026 4.634l2.36 1.363v2.724l-2.36-1.365zm-3.776-.002v2.725l-2.36 1.362v-2.722z" style="line-height:normal;font-variant-ligatures:normal;font-variant-position:normal;font-variant-caps:normal;font-variant-numeric:normal;font-variant-alternates:normal;font-variant-east-asian:normal;font-feature-settings:normal;font-variation-settings:normal;text-indent:0;text-align:start;text-decoration-line:none;text-decoration-style:solid;text-decoration-color:#000;text-transform:none;text-orientation:mixed;white-space:normal;shape-padding:0;shape-margin:0;inline-size:0;isolation:auto;mix-blend-mode:normal;solid-color:#000;solid-opacity:1" overflow="visible" fill="#0f0" stroke="#000" stroke-width=".034"/></g></svg>