<?xml version="1.0" encoding="UTF-8" standalone="no"?>
<svg
   xmlns:dc="http://purl.org/dc/elements/1.1/"
   xmlns:cc="http://creativecommons.org/ns#"
   xmlns:rdf="http://www.w3.org/1999/02/22-rdf-syntax-ns#"
   xmlns:svg="http://www.w3.org/2000/svg"
   xmlns="http://www.w3.org/2000/svg"
   xmlns:sodipodi="http://sodipodi.sourceforge.net/DTD/sodipodi-0.dtd"
   xmlns:inkscape="http://www.inkscape.org/namespaces/inkscape"
   sodipodi:docname="snowflakes.svg"
   inkscape:version="1.0beta2 (235953b, 2020-02-06)"
   id="svg5216"
   version="1.1"
   viewBox="0 0 38.717014 38.686527"
   height="38.686527mm"
   width="38.717014mm">
  <defs
     id="defs5210" />
  <sodipodi:namedview
     inkscape:snap-midpoints="true"
     inkscape:snap-smooth-nodes="true"
     inkscape:object-paths="true"
     inkscape:object-nodes="true"
     inkscape:snap-nodes="true"
     fit-margin-bottom="0"
     fit-margin-right="0"
     fit-margin-left="0"
     fit-margin-top="0"
     inkscape:window-maximized="1"
     inkscape:window-y="-8"
     inkscape:window-x="-8"
     inkscape:window-height="1057"
     inkscape:window-width="1848"
     inkscape:snap-intersection-paths="true"
     showgrid="false"
     inkscape:document-rotation="0"
     inkscape:current-layer="layer1"
     inkscape:document-units="mm"
     inkscape:cy="71.693339"
     inkscape:cx="41.16216"
     inkscape:zoom="4.5068038"
     inkscape:pageshadow="2"
     inkscape:pageopacity="0.0"
     borderopacity="1.0"
     bordercolor="#666666"
     pagecolor="#ffffff"
     id="base" />
  <metadata
     id="metadata5213">
    <rdf:RDF>
      <cc:Work
         rdf:about="">
        <dc:format>image/svg+xml</dc:format>
        <dc:type
           rdf:resource="http://purl.org/dc/dcmitype/StillImage" />
        <dc:title></dc:title>
      </cc:Work>
    </rdf:RDF>
  </metadata>
  <g
     transform="translate(-56.709717,-98.159381)"
     id="layer1"
     inkscape:groupmode="layer"
     inkscape:label="Layer 1">
    <path
       inkscape:connector-curvature="0"
       d="m 58.712881,98.159365 0.348816,0.603581 -0.606166,0.350366 5.29e-4,0.699183 h -0.699698 l -0.349335,0.605125 -0.605647,-0.34933 -0.0088,0.005 -0.0016,0.27027 0.01034,-0.006 0.488861,0.28216 -0.488861,0.84697 -0.01601,-0.0274 -0.0026,0.52813 0.0186,-0.032 0.270785,0.4687 H 56.78064 l -0.0011,0.23461 h 0.427881 l 0.558105,0.96584 -0.961181,0.55449 -0.03256,-0.0186 -0.0016,0.31006 0.03411,-0.0196 0.961181,0.55501 -0.556038,0.96325 h -0.446485 l -0.0011,0.23461 h 0.312126 l -0.270785,0.4687 -0.04341,-0.0749 -0.0021,0.46457 0.04547,0.0791 0.54157,-0.93741 h 1.112594 v 1.38234 l 1.197343,-0.69195 0.69143,1.19787 0.691431,-1.19838 1.197343,0.69091 v -1.38131 l 1.38286,-0.002 -0.690396,-1.19631 1.196309,-0.6904 -0.176215,-0.1018 -1.021128,-0.59066 0.556556,-0.96377 h 1.08417 l -0.101801,-0.1757 -0.440801,-0.76274 0.556038,-0.96325 1.197345,0.69039 v -1.38131 l 1.111041,-10e-4 0.556556,0.96325 -1.196826,0.69091 1.198377,0.69298 -0.690915,1.19734 h 1.381311 v 1.38286 l 1.196826,-0.69194 0.691431,1.19786 0.101803,-0.1757 0.590146,-1.02268 0.962731,0.55552 v 1.08624 l 0.940512,-0.54364 0.963247,0.55553 -0.690914,1.19734 h 1.380794 v 1.11156 l -0.962731,0.55655 -0.68988,-1.19579 -0.691431,1.19683 -1.198893,-0.69298 v 1.38493 h -1.110009 l -0.542605,-0.93948 -0.543118,0.93948 h -1.111043 v -1.38287 l -1.198894,0.69092 -0.691946,-1.19683 -0.690914,1.19734 -1.197343,-0.69143 v 1.38287 h -1.382861 l 0.691947,1.19734 -1.197859,0.69143 1.197859,0.69143 -0.556038,0.96273 h -1.085205 l 0.542603,0.94 -0.555006,0.96118 -1.196827,-0.6904 -0.0011,1.38286 h -1.112595 l -0.556037,-0.96325 1.197342,-0.69091 -1.196826,-0.69195 0.690914,-1.19682 h -1.382863 v -1.38287 l -0.175699,0.10181 -0.83044,0.47904 -0.0016,0.27182 0.773081,-0.44597 v 0.97617 h -0.564309 l -0.209288,-0.36277 -0.0026,0.46405 0.077,0.13333 h 0.699182 v 0.69918 l 0.605647,0.34933 -0.34985,0.60565 0.34985,0.60565 -0.605647,0.34933 v 0.69918 h -0.699182 l -0.09509,0.16433 -0.0021,0.47233 0.232026,-0.40205 h 0.564309 v 0.97617 l -0.796851,-0.45992 -0.0016,0.27027 0.798402,0.46095 v 0.39223 0.39222 l -0.798402,0.46095 0.0016,0.27027 0.796851,-0.45992 v 0.97617 h -0.564236 l -0.232026,-0.40204 0.0021,0.47232 0.09509,0.16433 h 0.699182 v 0.69918 l 0.605647,0.34933 -0.34985,0.60565 0.34985,0.60565 -0.605647,0.34933 v 0.69919 h -0.699182 l -0.077,0.13332 0.0026,0.46406 0.209288,-0.36277 h 0.564309 v 0.97616 l -0.773081,-0.44596 0.0016,0.27182 0.83044,0.47903 0.175699,0.10181 v -1.38286 h 1.382863 l -0.690914,-1.19683 1.196826,-0.69195 -1.197342,-0.69091 0.556037,-0.96325 h 1.112595 l 0.0011,1.38286 1.196827,-0.69039 0.555006,0.96118 -0.542603,0.93999 h 1.085205 l 0.556038,0.96273 -1.197859,0.69143 1.197859,0.69143 -0.691947,1.19735 h 1.382861 v 1.38286 l 1.197343,-0.69143 0.690914,1.19734 0.691946,-1.19683 1.198894,0.69092 v -1.38286 h 1.111043 l 0.543118,0.93947 0.542605,-0.93947 h 1.110009 v 1.38492 l 1.198893,-0.69298 0.691431,1.19683 0.68988,-1.19579 0.962731,0.55655 v 1.11156 h -1.380794 l 0.690914,1.19735 -0.963247,0.55552 -0.940512,-0.54364 v 1.08624 l -0.962731,0.55552 -0.590146,-1.02268 -0.101803,-0.1757 -0.691431,1.19786 -1.196826,-0.69194 v 1.38286 h -1.381311 l 0.690915,1.19734 -1.198377,0.69298 1.196826,0.69092 -0.556556,0.96325 -1.111041,-10e-4 v -1.38131 l -1.197345,0.69039 -0.556038,-0.96324 0.440801,-0.76275 0.101801,-0.1757 h -1.08417 l -0.556556,-0.96377 1.021128,-0.59066 0.176215,-0.1018 -1.196309,-0.6904 0.690396,-1.1963 -1.38286,-0.002 v -1.38131 l -1.197343,0.69091 -0.691431,-1.19838 -0.69143,1.19786 -1.197343,-0.69194 v 1.38234 h -1.112594 l -0.54157,-0.93741 -0.04547,0.0791 0.0021,0.46458 0.04341,-0.0749 0.270785,0.4687 h -0.312126 l 0.0011,0.23461 h 0.446485 l 0.556038,0.96325 -0.961181,0.55501 -0.03411,-0.0196 0.0016,0.31006 0.03256,-0.0186 0.961181,0.55449 -0.558105,0.96583 h -0.427881 l 0.0011,0.23461 h 0.291455 l -0.270785,0.46871 -0.0186,-0.032 0.0026,0.52813 0.01601,-0.0274 0.488861,0.84698 -0.488861,0.28215 -0.01034,-0.006 0.0016,0.27027 0.0088,0.005 0.605647,-0.34933 0.349335,0.60513 h 0.699698 l -5.29e-4,0.69918 0.606166,0.35037 -0.348816,0.60358 0.271301,-5.3e-4 0.280604,-0.48576 0.839224,0.48472 0.481107,-5.3e-4 0.841809,-0.48524 0.280088,0.48421 h 0.269751 l -0.347266,-0.601 0.605647,-0.34985 v -0.69918 h 0.699183 l 0.349332,-0.60461 0.603581,0.34881 0.607197,-0.34985 0.349851,0.60565 0.699182,5.3e-4 v 0.70073 l 0.605648,0.34934 -0.344165,0.59582 h 0.271817 l 0.275952,-0.478 0.826823,0.47697 0.504362,-5.3e-4 0.453718,-0.262 v 0.26148 h 0.234096 v -0.39635 l 0.963766,-0.55656 0.548804,0.95136 h 0.285252 l 0.548288,-0.94981 0.962732,0.55604 v 0.39222 h 0.234093 v -0.25683 l 0.443902,0.25632 0.520898,-5.3e-4 0.819589,-0.47336 0.272333,0.47233 h 0.271301 l -0.340548,-0.58963 0.606166,-0.35037 v -0.69763 l 0.699183,5.3e-4 0.350882,-0.60668 0.604615,0.34881 0.604613,-0.34933 0.350367,0.6072 h 0.699182 v 0.69711 l 0.605647,0.34985 -0.338997,0.58653 h 0.271817 l 0.270269,-0.46871 0.809771,0.46768 0.545184,-5.3e-4 0.429948,-0.24857 v 0.24805 h 0.234612 v -0.38344 l 0.963765,-0.55604 0.541568,0.93793 h 0.299207 l 0.54157,-0.93793 0.962216,0.55553 v 0.38085 l 0.234611,-5.3e-4 v -0.24546 l 0.424781,0.24546 0.55862,-5.3e-4 0.800467,-0.4625 0.266134,0.46147 0.27182,-5.3e-4 -0.334349,-0.57826 0.606166,-0.35037 v -0.69711 h 0.699183 l 0.349332,-0.60513 0.605647,0.34933 0.605649,-0.34985 0.349332,0.60565 h 0.699699 l -5.29e-4,0.69918 0.605647,0.34933 -0.331245,0.57413 0.271817,-5.3e-4 0.263033,-0.45579 0.788582,0.45475 0.582393,-5.3e-4 0.789618,-0.45527 0.262514,0.45476 0.269235,-5.3e-4 -0.329695,-0.57103 0.605647,-0.34933 5.29e-4,-0.69918 h 0.698667 l 0.349332,-0.60565 0.510564,0.29507 v -0.2713 l -0.392743,-0.22686 0.392743,-0.68058 v -0.7984 l -0.176734,-0.30569 h 0.176734 v -0.23462 h -0.311611 l -0.555521,-0.96273 0.867132,-0.50022 v -0.38293 l -0.866098,-0.50022 0.556556,-0.96222 h 0.309542 v -0.23461 h -0.173633 l 0.173633,-0.30076 v -0.4687 l -0.444934,0.76946 h -1.11311 l 0.0011,-1.17977 v -0.20309 l -1.198375,0.69143 -0.692464,-1.19734 -0.690399,1.19631 -0.961697,-0.55501 v -1.11156 h 1.382861 l -0.69143,-1.19786 0.963247,-0.55604 0.941028,0.54261 -5.3e-4,-1.08521 0.9617,-0.55552 0.690914,1.19734 0.690912,-1.19734 0.161232,0.093 v -0.27079 l -0.04393,-0.0253 0.04393,-0.076 v -0.46819 l -0.246497,0.42684 -0.605647,-0.34933 -0.605649,0.34933 -0.349332,-0.60513 h -0.698664 l -5.3e-4,-0.69918 -0.605131,-0.34933 0.349335,-0.60565 -0.348816,-0.60461 0.546219,-0.31523 0.05839,-0.0351 v -0.6997 h 0.699183 l 0.349851,-0.60513 0.605131,0.34933 0.605647,-0.34933 0.246496,0.42685 v -0.46767 l -0.04393,-0.076 0.04393,-0.0253 v -0.26975 l -0.160713,0.093 -0.54932,-0.95188 0.54932,-0.95188 0.160713,0.093 v -0.26975 l -0.04393,-0.0253 0.04393,-0.076 v -0.46767 l -0.246496,0.42684 -0.605647,-0.34933 -0.605131,0.34933 -0.349851,-0.60513 h -0.699183 v -0.6997 l -0.05839,-0.0351 -0.546219,-0.31522 0.348816,-0.60462 -0.349335,-0.60565 0.605131,-0.34933 5.3e-4,-0.69918 h 0.698664 l 0.349332,-0.60513 0.605649,0.34933 0.605647,-0.34933 0.246497,0.42685 v -0.46819 l -0.04393,-0.076 0.04393,-0.0253 v -0.27078 l -0.161232,0.093 -0.690912,-1.19735 -0.690914,1.19735 -0.9617,-0.55552 5.3e-4,-1.08521 -0.941028,0.5426 -0.963247,-0.55604 0.69143,-1.19786 h -1.382861 v -1.11156 l 0.961697,-0.555 0.690399,1.19631 0.692464,-1.19735 1.198375,0.69144 v -0.20309 l -0.0011,-1.17978 h 1.11311 l 0.444934,0.76947 v -0.46871 l -0.173633,-0.30076 h 0.173633 v -0.2347 h -0.309615 l -0.556556,-0.96221 0.866098,-0.50023 v -0.38292 l -0.867132,-0.50023 0.555521,-0.96273 h 0.311611 v -0.23461 h -0.176734 l 0.176734,-0.30593 v -0.7984 l -0.392743,-0.68058 0.392743,-0.22686 v -0.2713 l -0.510564,0.29508 -0.349332,-0.605648 h -0.698667 l -5.29e-4,-0.699182 -0.605647,-0.349335 0.329695,-0.571024 -0.269235,-5.29e-4 -0.262514,0.454753 -0.789618,-0.455269 -0.582393,-5.29e-4 -0.788582,0.454753 -0.263033,-0.455785 -0.271817,-5.29e-4 0.331245,0.574125 -0.605647,0.349334 5.29e-4,0.699183 h -0.699699 l -0.349332,0.605642 -0.605649,-0.34985 -0.605647,0.34933 -0.349332,-0.605122 h -0.699183 v -0.697116 l -0.606166,-0.350367 0.334349,-0.57826 -0.27182,-5.29e-4 -0.266134,0.46147 -0.800467,-0.462504 -0.55862,-5.3e-4 -0.424781,0.245465 v -0.245465 l -0.234611,-5.29e-4 v 0.380855 l -0.962216,0.555521 -0.54157,-0.937926 h -0.299207 l -0.541568,0.937926 -0.963765,-0.556037 v -0.38344 H 80.41078 v 0.248047 l -0.429948,-0.248563 -0.545184,-5.29e-4 -0.809771,0.467672 -0.270269,-0.468704 h -0.271817 l 0.338997,0.586526 -0.605647,0.349851 v 0.697116 h -0.699182 l -0.350367,0.607192 -0.604613,-0.34933 -0.604615,0.34881 -0.350882,-0.606672 -0.699183,5.29e-4 v -0.697632 l -0.606166,-0.350367 0.340548,-0.589626 H 73.97138 l -0.272333,0.472321 -0.819589,-0.473356 -0.520898,-5.29e-4 -0.443902,0.256315 v -0.256834 h -0.234093 v 0.392224 l -0.962732,0.55604 -0.548288,-0.949814 h -0.285252 l -0.548804,0.951365 -0.963766,-0.556556 v -0.395841 h -0.234096 v 0.261482 l -0.453718,-0.262001 -0.504362,-5.29e-4 -0.826823,0.476973 -0.275952,-0.478007 h -0.271817 l 0.344165,0.595831 -0.605648,0.349332 v 0.700733 l -0.699182,5.29e-4 -0.349851,0.60564 -0.607197,-0.34984 -0.603581,0.34881 -0.349332,-0.60461 h -0.699183 v -0.699182 l -0.605647,-0.349848 0.347266,-0.600999 h -0.269751 l -0.280088,0.484209 -0.841809,-0.485241 -0.481107,-5.29e-4 -0.839224,0.484725 -0.280604,-0.485757 z m 33.267218,0.132292 0.96325,0.55604 -0.556038,0.962731 h -0.813903 l -0.55604,-0.962731 z m -24.548888,5.29e-4 0.706416,0.407725 v 1.112594 H 67.027102 L 66.47003,98.847708 Z m 17.460949,0 0.962732,0.556037 -0.555522,0.962216 h -1.111041 v -1.112078 z m -24.546821,5.29e-4 0.9648,0.556556 -0.556556,0.963248 h -0.815454 l -0.556556,-0.963766 z m 12.272637,0 0.963766,0.556038 -0.555006,0.962731 -1.112078,5.29e-4 v -1.11311 z m 7.089489,0 0.703315,0.406178 v 1.111559 h -1.112075 l -0.555522,-0.961699 z m 2.592607,0.09612 0.488857,0.84646 -0.489376,0.282154 -0.488341,-0.281638 z m -12.273669,0.0026 0.487826,0.845941 -0.488345,0.282155 -0.487825,-0.281636 z m 1.654162,0.442349 v 0.978236 l -0.562756,5.29e-4 -0.283189,-0.490411 z m 12.273153,0 v 0.976685 h -0.56224 l -0.28267,-0.48886 z m -3.308326,5.29e-4 0.845944,0.487823 -0.281639,0.488344 h -0.564305 z m -12.273669,5.29e-4 0.846976,0.488341 -0.28267,0.489376 h -0.564306 z m 24.77368,0.129707 0.488342,0.281638 v 0.564306 h -0.976683 z m -33.966401,0.0011 0.489892,0.846976 h -0.978233 l -5.29e-4,-0.564822 z m 7.087423,0 0.488342,0.84491 -0.976683,0.0011 v -0.563787 z m 19.79259,0 0.488342,0.282154 v 0.562756 H 85.57119 Z m 4.754748,0 0.487825,0.84491 h -0.976167 l -5.29e-4,-0.562756 z m -29.301054,5.29e-4 0.487826,0.281638 v 0.564822 h -0.976686 z m 12.272637,0 0.488858,0.281638 v 0.563272 l -0.976683,5.29e-4 z m 4.754748,0 0.487826,0.844394 h -0.976686 v -0.562756 z m 4.366141,0.472324 0.350366,0.606158 h 0.697117 v 0.6997 l 0.606163,0.34985 -0.348298,0.60513 0.348298,0.60513 -0.606163,0.34985 v 0.69918 h -0.697117 l -0.350366,0.60617 -0.606682,-0.35037 -0.605647,0.34934 -0.349332,-0.60514 h -0.699182 v -0.69918 l -0.605132,-0.34933 0.349332,-0.60565 -0.349848,-0.60564 0.605648,-0.34934 v -0.6997 h 0.699182 l 0.349332,-0.605127 0.605647,0.349335 z m -12.275219,0.0011 0.350366,0.607198 0.699183,-5.3e-4 v 0.69815 l 0.606681,0.35036 -0.348816,0.60462 0.349848,0.60616 -0.607713,0.35089 v 0.69918 h -0.699183 l -0.34985,0.60513 -0.605648,-0.34933 -0.605647,0.34933 -0.349332,-0.60513 h -0.699182 v -0.69918 l -0.604616,-0.34933 0.348817,-0.60565 -0.350367,-0.6072 0.606166,-0.34985 v -0.69763 h 0.699182 l 0.350367,-0.60668 0.604612,0.348816 z m 4.442105,0.605128 0.28267,0.48938 -0.847492,0.48937 v -0.97823 z m 2.179714,0 h 0.564306 v 0.97875 l -0.846976,-0.48886 z m 0.798399,0 h 1.112078 l 0.556038,0.96221 -0.964798,0.55708 -0.703318,-0.40566 z m 1.382863,0 h 0.976683 v 0.56276 l -0.488857,0.28215 z m 4.754232,0 h 0.976167 l -0.487826,0.84698 -0.488341,-0.28216 z m 1.247984,0 h 1.111044 v 1.38286 l 0.176217,-0.10129 1.02216,-0.59014 0.556038,0.96273 -0.543119,0.94155 1.086239,-5.3e-4 0.55552,0.96221 -1.196825,0.69092 1.196825,0.69194 -0.690912,1.19683 h 1.38286 v 1.11208 l -0.96325,0.55603 -0.690911,-1.19734 -0.690915,1.19734 -1.197861,-0.69143 v 1.38235 h -1.382861 l 0.691431,1.19838 -0.962216,0.55552 -0.939993,-0.5426 v 1.08572 l -0.962215,0.55552 -0.691947,-1.19786 -0.69143,1.19786 -1.197343,-0.69195 v 1.38286 h -1.382863 l 0.69143,1.19734 -1.197343,0.69092 1.196311,0.69195 -0.555521,0.96273 h -1.11156 v -1.38286 l -1.197861,0.69195 -0.555522,-0.9617 0.542602,-0.93948 h -1.08572 l -0.556557,-0.96325 1.198894,-0.69091 -1.198375,-0.69195 0.690396,-1.19683 h -1.382861 v -1.11311 l 0.964282,-0.55655 0.691946,1.19682 0.690399,-1.19579 1.196308,0.6904 v -1.38286 h 1.382863 l -0.101288,-0.17622 -0.590142,-1.02164 0.963247,-0.55553 0.939478,0.54209 v -1.08417 l 0.96325,-0.55604 0.690911,1.19683 0.691949,-1.19631 1.196827,0.69039 v -1.38234 h 1.382861 l -0.691431,-1.19786 1.197343,-0.69091 -1.197343,-0.69092 z m 1.345655,0 h 0.564306 l 0.281638,0.48834 -0.845944,0.48834 z m 2.744017,0 h 0.564825 l 5.29e-4,0.97772 -0.846976,-0.48938 z m 0.799436,0 h 1.111044 l 0.407726,0.70642 -0.556038,0.96273 -0.962216,-0.55552 z m 1.383377,0 h 0.543637 l -0.271817,0.47077 z m 0.813387,0 h 1.11156 l 5.29e-4,1.11208 -0.962215,0.55603 -0.556557,-0.96324 z m 1.346171,0 h 0.56379 l 0.282155,0.48834 -0.845426,0.48834 z m -19.594152,5.3e-4 v 1.11311 l -0.703832,0.40617 -0.963766,-0.55603 0.555522,-0.96274 z m -1.382345,5.3e-4 -0.487825,0.84594 -0.489376,-0.28215 v -0.56328 z m -7.348387,5.3e-4 v 0.9772 l -0.84646,-0.48783 0.282152,-0.48885 z m -7.65018,5.3e-4 h 0.562758 l 5.29e-4,0.97616 -0.845426,-0.48731 z m 0.797369,0 h 1.112591 l 0.407729,0.70538 -0.556038,0.96221 -0.963766,-0.55603 z m 1.384411,0 h 0.543118 l -0.271301,0.47025 z m 0.813387,0 h 1.112076 v 1.11104 l -0.962731,0.55604 -0.556038,-0.96273 z m 1.346687,0 h 0.564306 l 0.281639,0.4873 -0.845945,0.48835 z m 4.925798,0 h 0.976683 v 0.56275 l -0.488857,0.28216 z m -3.273702,0.29093 0.49041,0.28267 -0.488344,0.84543 -0.489376,-0.84646 z m 12.275737,0 0.488342,0.28216 -0.487826,0.84542 -0.48886,-0.84594 z m 12.273151,0 0.488344,0.28164 -0.487826,0.84594 -0.488344,-0.84594 z m -25.238768,0.39843 0.556553,0.96376 -0.406691,0.70435 h -1.112078 v -1.11207 z m 12.275219,0 0.556038,0.96273 -0.555522,0.96376 -0.964798,-0.55655 v -0.81287 z m 19.359025,0 0.556038,0.96325 -0.40721,0.70486 h -1.111043 l -5.29e-4,-1.11207 z m -17.978231,5.3e-4 0.963766,0.55655 v 0.81184 l -0.962731,0.55604 -0.556041,-0.96222 z m 12.273669,0 0.964282,0.55655 5.29e-4,1.11156 -1.112594,0.001 -0.40721,-0.7059 z m -31.632694,0.001 0.962216,0.555 5.29e-4,1.11156 h -1.112592 l -0.406177,-0.7028 z m 34.485233,0.24753 0.488344,0.84594 -0.48886,0.28215 -0.487309,-0.28163 z m -31.633728,5.3e-4 0.48886,0.84543 -0.488342,0.28215 -0.48886,-0.28164 z m 7.216616,0.22531 0.283702,0.49041 -0.281636,0.48834 -0.849045,-0.49041 z m 4.92683,0 0.846976,0.48886 -0.845942,0.48886 -0.28267,-0.48938 z m 7.348389,0 0.282152,0.48834 -0.282152,0.48938 -0.846976,-0.48886 z m 4.92528,5.3e-4 0.844909,0.48782 -0.844909,0.48783 -0.281636,-0.48783 z m 8.871809,0.21549 v 0.9772 h -0.56379 l -0.282151,-0.48886 z m -31.634244,5.3e-4 v 0.97668 h -0.564306 l -0.281636,-0.48783 z m 12.273669,0 v 0.54311 l -0.470255,-0.2713 z m 3.77703,0 0.469739,0.2713 -0.469739,0.2713 z m -19.360057,5.3e-4 0.846976,0.48886 -0.281636,0.4873 h -0.564824 z m 31.63476,5.3e-4 0.84491,0.48782 -0.281636,0.48783 -0.562758,5.3e-4 z m -16.756083,0.40617 0.70435,0.4067 v 1.11414 h -1.110525 l -0.556557,-0.96428 z m 5.186764,0 0.964282,0.55656 -0.555006,0.96221 h -1.11466 v -1.11156 z m -2.593123,0.0977 0.488342,0.84543 -0.488858,0.28267 -0.487828,-0.28164 z m 12.273669,0.002 0.272852,0.47181 -0.545187,5.2e-4 z m -24.547856,5.3e-4 0.271301,0.46974 h -0.542083 z m -4.148582,0.0992 0.605647,0.34933 0.605131,-0.34933 0.349848,0.60513 h 0.699183 v 0.70125 l 0.604615,0.34881 -0.348816,0.6041 0.350883,0.6072 -0.606682,0.34985 v 0.69866 l -0.699183,5.3e-4 -0.349332,0.60513 -0.605647,-0.34933 -0.605647,0.34933 -0.349335,-0.60513 h -0.699182 v -0.69918 l -0.605647,-0.34985 0.34985,-0.60513 -0.34985,-0.60513 0.605647,-0.34985 -5.29e-4,-0.70125 h 0.699698 z m 32.843988,0 0.349332,0.60513 h 0.700733 l 5.3e-4,0.69918 0.604099,0.34882 -0.349851,0.60616 0.350883,0.60668 -0.606682,0.35037 5.29e-4,0.69711 H 92.93407 l -0.348816,0.60462 -0.604097,-0.34882 -0.607197,0.35037 -0.349851,-0.60617 h -0.697113 v -0.69918 l -0.606682,-0.35037 0.348816,-0.60461 -0.348816,-0.60461 0.606682,-0.35037 -5.3e-4,-0.69866 0.699702,-5.3e-4 0.348816,-0.60462 0.604096,0.34882 z m -18.076415,0.34261 0.847492,0.48938 -0.28267,0.48989 h -0.564822 z m 3.308842,5.3e-4 v 0.97669 h -0.562755 l -0.282155,-0.48886 z m 6.860045,0.13023 0.48731,0.84646 h -0.976167 v -0.56483 z m -12.272118,5.3e-4 0.489376,0.84801 h -0.979786 v -0.56431 z m 7.517887,0 0.487825,0.28163 v 0.56431 h -0.975651 z m -12.272635,0.002 0.487307,0.28164 v 0.56431 h -0.974616 z m -10.17044,0.12919 h 0.977202 l 5.29e-4,0.56638 -0.487826,0.28164 z m 4.755266,0 h 0.976686 l -0.48886,0.84646 -0.487826,-0.28215 z m 31.634245,0 h 0.975651 l -0.488342,0.84543 -0.486793,-0.28112 z m -3.777546,5.3e-4 5.29e-4,0.56379 -0.489376,0.28267 -0.488342,-0.84594 z m -13.322187,0.3421 0.350367,0.60668 h 0.697116 v 0.69919 l 0.607714,0.35088 -0.349848,0.60616 0.348297,0.60307 -0.606163,0.34985 v 0.69918 h -0.697116 l -0.350367,0.60616 -0.606679,-0.35036 -0.604615,0.34881 -0.348816,-0.60461 h -0.701249 v -0.69965 l -0.605131,-0.34881 0.349332,-0.60617 -0.349332,-0.60513 0.605131,-0.34985 v -0.69763 h 0.699183 l 0.350366,-0.6072 0.605131,0.34934 z m 1.281576,0.60668 h 0.979271 l -0.488861,0.8475 -0.49041,-0.28319 z m 1.248503,0 h 1.111043 v 1.11156 l -0.704866,0.40722 -0.962215,-0.55501 z m 1.345655,0 h 0.564305 l 0.281639,0.48783 -0.845944,0.48834 z m 2.746086,0 h 0.56224 v 0.97617 l -0.84491,-0.48782 z m -15.019755,0.002 h 0.564306 l 0.281638,0.48834 -0.845944,0.48835 z m 2.744017,0 h 0.564825 v 0.97617 l -0.84646,-0.48834 z m 0.798918,0 h 1.11466 l 0.555006,0.96118 -0.964282,0.55708 -0.705384,-0.40722 z m 1.383895,0 h 0.975651 v 0.56276 l -0.487826,0.28215 z m 21.144446,0.21446 0.847493,0.48937 -0.846461,0.48886 -0.283186,-0.48937 z m -4.925282,0.001 0.281639,0.48782 -0.281639,0.48783 -0.84491,-0.48783 z m -26.708962,0.002 0.84646,0.48834 -0.844394,0.48731 -0.28267,-0.48937 z m -4.925798,0.001 0.281636,0.48731 -0.281636,0.48731 -0.843875,-0.48731 z m 12.142927,0.0729 0.489376,0.28215 -0.489376,0.84697 -0.488857,-0.84645 z m 12.273669,0 0.48886,0.28215 -0.48886,0.84491 -0.487825,-0.84543 z m -8.598439,0.87333 0.282151,0.48834 -0.282151,0.48937 -0.846461,-0.48834 z m 4.925798,5.3e-4 0.844391,0.48782 -0.845942,0.48834 -0.28112,-0.48627 z m -6.712254,0.216 0.472323,0.27234 -0.472323,0.27285 z m 8.496122,0 v 0.54312 l -0.470254,-0.2713 z m 9.191689,0.13126 0.489891,0.28319 v 0.56224 h -0.978236 z m 4.755263,5.3e-4 0.488344,0.84491 h -0.97772 l -5.29e-4,-0.56224 z m -31.633726,5.3e-4 0.487826,0.84439 -0.976686,0.001 v -0.56327 z m -4.75475,5.3e-4 0.488344,0.28163 v 0.56431 h -0.977201 z m 20.571354,0.94671 0.489376,0.84646 h -0.978752 v -0.56431 z m -4.753713,10e-4 0.487307,0.28112 v 0.56431 h -0.974617 z m 16.540075,0.13074 h 0.562239 l 0.282152,0.48886 -0.844391,0.48783 z m 2.744017,0 h 0.563274 l 0.0011,0.97669 -0.846458,-0.48886 z m -31.070454,0.002 v 0.97513 l -0.845426,-0.4873 0.28112,-0.48731 z m -3.308326,5.3e-4 h 0.564308 l 0.281636,0.48782 -0.845944,0.48834 z m 1.654164,0.29094 0.488858,0.28215 -0.488858,0.84646 -0.488341,-0.84646 z m 31.634761,0 0.486275,0.2806 -0.488342,0.84594 -0.487309,-0.84439 z m -3.542935,0.64647 0.487825,0.84542 -0.487825,0.28164 -0.487826,-0.28164 z m -13.9299,0.01 h 0.564822 l 0.281638,0.48731 -0.84646,0.48886 z m 2.746087,0 h 0.562755 v 0.97617 l -0.84491,-0.48782 z m -1.091407,0.29301 0.489374,0.28215 -0.487826,0.8444 -0.488341,-0.84595 z m 10.621055,0.14056 0.845945,0.48834 -0.281636,0.48783 h -0.564309 z m 3.308326,0 v 0.97617 h -0.564305 l -0.281639,-0.48783 z m -24.558706,0.50746 0.488341,0.84543 -0.488341,0.28163 -0.48731,-0.28112 z m 7.087938,0 0.48731,0.84439 -0.48886,0.28267 -0.486791,-0.28112 z m 15.210957,0.0982 0.60565,0.34933 0.605647,-0.34933 0.349332,0.60513 h 0.699182 v 0.69918 l 0.605648,0.34933 -0.349848,0.60565 0.349848,0.60565 -0.605648,0.34933 v 0.6997 h -0.699182 l -0.349332,0.60513 -0.605647,-0.34933 -0.605131,0.34933 -0.349851,-0.60513 h -0.699183 v -0.6997 l -0.605647,-0.34933 0.349851,-0.60565 -0.349851,-0.60565 0.605647,-0.34933 v -0.69993 h 0.699183 z m -16.867187,0.34365 0.847494,0.48886 -0.28267,0.48937 h -0.564824 z m 3.308842,0 v 0.97823 h -0.562756 l -0.28267,-0.48989 z m -10.394715,0.002 0.845945,0.48834 -0.281636,0.48835 h -0.564309 z m 3.310393,0 v 0.97669 h -0.564306 l -0.282154,-0.48835 z m 18.382858,0.25993 h 0.976683 v 0.56431 l -0.487826,0.28164 z m 4.754232,0 h 0.976683 l -0.488858,0.84595 -0.487825,-0.28164 z m -21.248317,0.24598 0.27182,0.47078 h -0.544153 z m 4.147553,0.0977 0.350882,0.60772 h 0.697114 v 0.69711 l 0.607197,0.35088 -0.349332,0.60617 0.349332,0.60462 -0.607197,0.35036 5.29e-4,0.69918 h -0.697632 l -0.349335,0.60462 -0.607713,-0.35088 -0.604616,0.34984 -0.348816,-0.60358 h -0.69918 v -0.69918 l -0.605649,-0.34933 0.34985,-0.60565 -0.350882,-0.60772 0.604612,-0.34933 v -0.69711 h 0.701249 l 0.349851,-0.60617 0.603581,0.3483 z m -7.086907,0.002 0.34985,0.60565 h 0.700731 v 0.69918 l 0.604099,0.3483 -0.34985,0.60461 0.350366,0.60669 -0.606166,0.35036 5.3e-4,0.69918 h -0.699699 l -0.349335,0.60513 -0.606163,-0.34933 -0.605131,0.34933 -0.34985,-0.60513 h -0.698664 l -5.3e-4,-0.69918 -0.605131,-0.34933 0.349335,-0.60565 -0.349335,-0.60565 0.605131,-0.34933 v -0.69918 h 0.701249 l 0.348301,-0.60513 0.604615,0.34881 z m -3.47059,0.60565 h 0.976686 v 0.56431 l -0.488344,0.28163 z m 4.755782,0 h 0.975135 l -0.48886,0.84491 -0.486275,-0.2806 z m 1.246436,0 h 0.814938 l 0.554488,0.96118 -0.96325,0.55707 -0.962732,-0.55604 z m 1.085721,0 h 0.974619 v 0.56224 l -0.48731,0.28163 z m 4.751649,0 h 0.976686 l -0.486794,0.84491 -0.489892,-0.28267 z m 11.466483,0.21497 0.281636,0.48783 -0.281636,0.48782 -0.844909,-0.48782 z m 4.92683,0 0.845429,0.48834 -0.845429,0.48783 -0.281635,-0.48834 z m -6.711733,0.21653 0.471289,0.27233 -0.471289,0.27182 z m 8.498189,0 -5.29e-4,0.54415 -0.47077,-0.27182 z m -7.793323,0.40721 0.962216,0.55603 -0.555522,0.96274 h -1.11156 v -1.11208 z m 7.087423,0 0.705382,0.40721 -0.0011,1.11156 h -1.11156 l -0.555522,-0.96274 z m -9.680546,0.0987 0.488858,0.84646 -0.488858,0.28215 -0.488344,-0.28215 z m 12.273153,0 0.487826,0.84543 -0.487826,0.28163 -0.487825,-0.28163 z m -24.417115,0.22634 0.28267,0.49041 -0.281635,0.48834 -0.848011,-0.48937 z m -2.160593,0.001 0.845945,0.48834 -0.84491,0.48834 -0.28267,-0.48937 z m 7.086391,0 0.846977,0.48937 -0.846977,0.48835 -0.282154,-0.48835 z m -12.01167,0.001 0.282154,0.48834 -0.282154,0.48886 -0.84646,-0.48886 z m 17.575154,0.21497 0.84646,0.48834 -0.281635,0.48834 h -0.564825 z m 3.308842,0 v 0.97668 h -0.562755 l -0.282671,-0.48885 z m 8.965861,5.3e-4 0.84491,0.48783 -0.281638,0.48834 h -0.563788 z m -6.861079,0.13126 0.488857,0.28215 v 0.56276 H 85.57274 Z m 4.755263,0 0.487826,0.84491 h -0.976683 v -0.56276 z m -21.738724,0.27543 0.9648,0.55708 -0.556038,0.96324 h -0.814422 l -0.556553,-0.96428 z m 12.618868,0.19844 0.605649,0.34933 0.605647,-0.34933 0.349332,0.60513 h 0.699183 v 0.69919 l 0.605131,0.34933 -0.349332,0.60564 0.349848,0.60565 -0.605647,0.34934 v 0.69969 h -0.699183 l -0.349848,0.60669 -0.605131,-0.34934 -0.604615,0.34934 -0.350366,-0.60669 h -0.699699 v -0.69969 l -0.605131,-0.34934 0.349332,-0.60565 -0.349332,-0.60564 0.605131,-0.34933 v -0.69919 h 0.699699 z m -13.784686,0.47491 0.488857,0.84697 h -0.977201 l -5.29e-4,-0.5643 z m 7.086904,0 0.489376,0.84697 h -0.978752 l -5.29e-4,-0.5643 z m -4.753197,5.3e-4 0.488341,0.28215 v 0.56431 h -0.977201 z m -7.087941,5.3e-4 0.488344,0.28163 v 0.56431 h -0.976686 z m 16.279111,0.12919 h 0.976685 v 0.5643 l -0.488344,0.28164 z m 4.753715,0 h 0.976167 l -0.488341,0.84594 -0.487826,-0.28164 z m 1.247984,0 h 1.11156 v 1.11156 l -0.706416,0.40772 -0.961697,-0.55552 z m 1.346171,0 h 0.564309 l 0.282152,0.48782 -0.846461,0.48834 z m 2.744021,0 h 0.564305 v 0.97616 l -0.845944,-0.48834 z m 0.798917,0 h 1.111559 l 0.555522,0.96273 -0.961699,0.55552 -0.705382,-0.40721 z m 1.383376,0 h 0.97617 l -5.29e-4,0.56275 -0.488342,0.28216 z m -33.967435,0.002 h 0.976685 l -0.487825,0.84491 -0.48886,-0.28267 z m 30.695286,0.29094 0.488341,0.28164 -0.487825,0.84491 -0.488342,-0.84491 z m -0.690399,0.39843 0.556038,0.96221 -0.557072,0.9648 -0.962732,-0.55604 v -0.81442 z m 1.38131,0 0.96325,0.55603 v 0.81288 l -0.962215,0.55655 -0.556556,-0.96325 z m -27.409695,0.25993 h 0.543637 l -0.271817,0.47077 z m 0.813903,0 h 1.112079 l 5.29e-4,1.11104 -0.962732,0.55604 -0.556556,-0.96273 z m 1.34669,0 h 0.56379 l 0.282152,0.48782 -0.845426,0.48783 z m 2.745568,0 h 0.563274 v 0.97617 l -0.845428,-0.48783 z m 0.797367,0 h 1.112594 l 0.406694,0.70486 -0.555522,0.96222 -0.96325,-0.55604 z m 1.383895,0 h 0.543637 l -0.27182,0.47077 z m 0.813903,0 h 1.112594 v 1.10949 l -0.964282,0.55759 -0.555521,-0.96222 z m 1.34669,0 h 0.562755 l 0.28112,0.48627 -0.843875,0.48783 z m 2.744017,0 h 0.563274 l 5.3e-4,0.97513 -0.845426,-0.48834 z m 0.797367,0 h 1.114145 l 0.406693,0.70383 -0.556037,0.96325 -0.964282,-0.55707 z m 1.383379,0 h 0.544153 l -0.27182,0.47077 z m 3.946012,0.21497 0.281636,0.48783 -0.281636,0.48782 -0.845426,-0.48782 z m 4.926314,0 0.84491,0.48783 -0.84491,0.48782 -0.281636,-0.48782 z m 7.347355,0 0.281635,0.48783 -0.281119,0.48731 -0.844907,-0.48731 z m -33.794319,0.002 0.845426,0.48782 -0.845426,0.48783 -0.281636,-0.48783 z m 7.216098,0.0739 0.489376,0.28215 -0.48886,0.84646 -0.48886,-0.84646 z m 7.086388,0 0.489892,0.28267 -0.487826,0.84542 -0.489376,-0.84697 z m 17.70693,0.14056 0.470254,0.2713 -0.470254,0.27182 z m -3.777549,5.3e-4 v 0.54415 l -0.47077,-0.27233 z m -14.620295,0.25786 0.557072,0.96377 -0.40721,0.70538 h -1.111559 v -1.11363 z m -7.086389,5.3e-4 0.556554,0.96273 -0.40721,0.7059 H 63.88104 l -5.29e-4,-1.11259 z m 8.469768,0 0.962731,0.55552 5.29e-4,1.11208 -1.110525,5.3e-4 -0.408244,-0.70642 z m -7.085872,5.3e-4 0.962731,0.55501 5.29e-4,1.11311 h -1.11311 l -0.406694,-0.70435 z m 19.618438,0.14779 0.70435,0.40722 v 1.11156 h -1.111041 l -0.55604,-0.96274 z m 5.187281,0 0.962215,0.55501 -0.556554,0.96377 h -1.111043 v -1.11156 z m -2.593639,0.0972 0.489376,0.84697 -0.489892,0.28319 -0.48886,-0.28215 z m -12.273669,0.002 0.488341,0.84543 -0.48886,0.28267 -0.488341,-0.28215 z m -14.173811,0.002 0.487823,0.84543 -0.486275,0.28112 -0.489376,-0.28216 z m 7.08742,0 0.487826,0.84491 -0.487826,0.28164 -0.487826,-0.28164 z m 1.65468,0.4408 v 0.97875 h -0.564824 l -0.282668,-0.48938 z m -10.39678,5.3e-4 0.84646,0.48937 -0.282154,0.48886 h -0.564306 z m 14.172779,0 0.846976,0.48886 -0.281638,0.48782 -0.564822,5.3e-4 z m 3.309874,0 v 0.97668 h -0.564822 l -0.282155,-0.48782 z m 8.964826,0 0.845945,0.48834 -0.281636,0.48834 h -0.564309 z m 3.308326,0 v 0.97668 h -0.562239 l -0.28267,-0.48886 z m -22.668901,5.3e-4 0.84646,0.48834 -0.28267,0.48937 h -0.563272 z m -3.777031,5.3e-4 5.3e-4,0.9772 h -0.564306 l -0.282155,-0.48834 z m 28.551746,0.12919 0.487825,0.28163 v 0.56483 h -0.976167 z m -12.274185,5.3e-4 0.48886,0.28267 v 0.56275 h -0.976685 z m 4.755266,0 0.488342,0.84542 h -0.977718 v -0.56275 z m -26.448517,0.001 0.48886,0.84595 h -0.976685 v -0.56431 z m 14.390339,0.37362 0.272851,0.47181 -0.545703,5.3e-4 z m -7.085873,0.002 0.272333,0.47077 h -0.544152 z m 23.509676,0.0941 0.350364,0.60617 h 0.697116 v 0.69918 l 0.605132,0.34933 -0.342099,0.59325 0.342099,0.59324 -0.605132,0.34934 v 0.69918 h -0.697116 l -0.350364,0.60616 -0.606681,-0.35036 -0.60565,0.34985 -0.349332,-0.60565 h -0.699183 v -0.69918 l -0.605647,-0.34934 0.342614,-0.59324 -0.342614,-0.59325 0.605647,-0.34933 v -0.69918 h 0.699183 l 0.349332,-0.60565 0.60565,0.34985 z m -12.274703,5.3e-4 0.349848,0.60565 h 0.699183 v 0.69918 l 0.605131,0.34933 -0.342099,0.59325 0.342099,0.59324 -0.605131,0.34934 v 0.69918 h -0.699183 l -0.349848,0.60565 -0.60565,-0.34985 -0.605131,0.34933 -0.349848,-0.60513 -0.699698,-5.3e-4 5.29e-4,-0.70073 -0.604097,-0.34882 0.315225,-0.5457 0.02585,-0.046 -0.02585,-0.046 -0.315225,-0.5457 0.604097,-0.34882 -5.29e-4,-0.70073 0.699698,-5.3e-4 0.349848,-0.60513 0.605131,0.34933 z m -7.086907,5.3e-4 0.350367,0.6072 h 0.699698 v 0.69918 l 0.604616,0.34882 -0.341583,0.59169 0.341583,0.5917 -0.604616,0.34881 v 0.69918 h -0.699698 l -0.350367,0.6072 -0.604615,-0.34933 -0.604613,0.34882 -0.350366,-0.60669 h -0.699699 l 5.29e-4,-0.69918 -0.605647,-0.34933 0.34158,-0.59118 -0.34158,-0.59118 0.605647,-0.34933 -5.29e-4,-0.69918 h 0.699699 l 0.350366,-0.60668 0.604613,0.34881 z m -8.297166,5.3e-4 0.606679,0.35088 0.604099,-0.34933 0.349332,0.60513 h 0.700733 v 0.69918 l 0.604097,0.34882 -0.34158,0.5917 0.34158,0.59169 -0.604097,0.34882 v 0.69918 h -0.700733 l -0.349332,0.60513 -0.604099,-0.34933 -0.606679,0.35088 -0.350367,-0.60668 h -0.699182 v -0.69918 l -0.605132,-0.34985 0.341064,-0.59066 -0.341064,-0.59067 0.605132,-0.34985 v -0.69918 h 0.699182 z m 16.667199,0.60772 h 0.976683 l -0.488342,0.84594 -0.488341,-0.28164 z m 1.247468,0 h 1.112078 v 1.11362 l -0.703318,0.40618 -0.964798,-0.55656 z m 1.346171,0 h 0.564825 l 0.28267,0.48937 -0.847495,0.48938 z m 2.746087,0 h 0.562755 v 0.97771 l -0.845426,-0.48782 z m 0.79685,0 h 1.11311 l 0.556038,0.96273 -0.963766,0.55707 -0.705382,-0.40721 z m 1.383377,0 h 0.976167 v 0.5643 l -0.487826,0.28251 z m 4.753716,0 h 0.976167 l -0.488342,0.84594 -0.487825,-0.28164 z m 1.247468,0 h 1.111559 v 1.11259 l -0.704865,0.40721 -0.962732,-0.55604 z m 1.346171,0 h 0.564306 l 0.282154,0.48834 -0.84646,0.48886 z m -18.644857,5.3e-4 5.29e-4,0.56379 -0.487825,0.28163 -0.487826,-0.84439 z m -1.246436,0.001 0.55604,0.9617 -0.964281,0.55656 -0.963766,-0.55552 0.556037,-0.96222 z m -15.286405,5.3e-4 h 1.112078 l 0.556556,0.96325 -0.962734,0.55604 -0.7059,-0.40721 z m 1.382863,0 h 0.977202 l -5.29e-4,0.56431 -0.488342,0.28215 z m 4.755264,0 h 0.975651 l -0.488342,0.84543 -0.486791,-0.28112 z m 1.246952,0 h 0.813906 l 0.555519,0.96222 -0.962731,0.55604 -0.962732,-0.55553 z m 1.085723,0 h 0.976167 v 0.56224 l -0.488857,0.28216 z m 4.753716,0 h 0.976683 l -0.488858,0.84543 -0.487825,-0.28112 z m 23.607344,0.28888 0.488858,0.28215 -0.488342,0.84646 -0.48886,-0.84646 z m -12.273153,0.002 0.488342,0.28164 -0.487826,0.84542 -0.488341,-0.84542 z m 11.582239,0.39429 0.549836,0.95137 -0.549836,0.95136 -0.96325,-0.55656 v -0.3948 -0.39481 z m -12.272637,0.002 0.548288,0.94981 -0.548288,0.94982 -0.964282,-0.55708 v -0.39274 -0.39274 z m 1.382345,0 0.962215,0.55552 v 0.39429 0.39429 l -0.962215,0.55553 -0.548804,-0.94982 z m 2.982764,0.47335 0.274918,0.47646 -0.274918,0.47646 -0.825273,-0.47646 z m -7.348389,10e-4 0.823722,0.47543 -0.823722,0.47542 -0.274402,-0.47542 z m 12.273668,0 0.823206,0.47543 -0.823206,0.47542 -0.274402,-0.47542 z m -19.361607,5.3e-4 0.823206,0.47491 -0.823206,0.47491 -0.274402,-0.47491 z m 2.163175,0 0.274402,0.47491 -0.274402,0.47491 -0.82269,-0.47491 z m -9.248531,5.3e-4 0.821655,0.47439 -0.821655,0.47439 -0.273884,-0.47439 z m -4.925799,5.3e-4 0.273887,0.47387 -0.273887,0.47388 -0.819586,-0.47388 z m 7.086391,5.3e-4 0.273884,0.47336 -0.273884,0.47335 -0.820105,-0.47335 z m 17.574638,0.21394 0.449067,0.25942 -0.449067,0.25941 v -0.25941 z m 8.49612,0 v 0.25942 0.25941 l -0.44855,-0.25941 z m -34.943086,0.002 0.445968,0.25735 -0.445968,0.25735 v -0.25735 z m 22.669936,0 v 0.25735 0.25735 l -0.445968,-0.25735 z m -21.964036,0.37465 0.962734,0.55604 -0.556556,0.96325 h -1.112078 v -1.11208 z m 7.085873,0.001 0.962731,0.55604 -0.555519,0.96222 h -0.813906 l -0.556038,-0.96274 z m 7.086391,5.3e-4 0.964281,0.55656 -0.55604,0.9617 -0.81597,-5.3e-4 -0.556037,-0.96222 z m 7.088454,0 0.703318,0.40618 v 1.11363 h -1.112078 l -0.556038,-0.96325 z m 5.18573,0 0.963766,0.55707 -0.556038,0.96274 h -1.11311 v -1.1126 z m 7.085873,0 0.704865,0.40721 v 1.1126 H 91.57444 l -0.556038,-0.96377 z m -9.678996,0.0997 0.487826,0.84542 -0.488342,0.28164 -0.487825,-0.28164 z m 12.273153,5.3e-4 0.488342,0.84646 -0.488858,0.28215 -0.488344,-0.28215 z m -13.928349,0.4408 0.847495,0.48938 -0.28267,0.48937 h -0.564825 z m 3.308842,10e-4 v 0.97772 h -0.562755 l -0.282671,-0.4899 z m 8.964827,5.3e-4 0.84646,0.48885 -0.282154,0.48835 h -0.564306 z m -33.306493,0.12867 0.488341,0.28215 5.29e-4,0.56431 h -0.977201 z m 4.754231,10e-4 0.488342,0.84542 H 63.88104 l 5.29e-4,-0.5643 z m 7.086907,0 0.488858,0.84542 h -0.976683 v -0.5643 z m -4.754231,0.001 0.488857,0.28215 v 0.56224 h -0.976167 z m 7.087422,5.2e-4 0.487826,0.28164 -5.29e-4,0.56379 -0.975133,-0.001 z m 4.753197,0 0.488342,0.84595 h -0.976683 v -0.56431 z m 7.519953,0 0.487826,0.28164 v 0.56431 h -0.976167 z m 4.7532,0 0.488342,0.84595 h -0.976167 v -0.56431 z m -9.11779,0.47388 0.604615,0.34933 0.605131,-0.34933 0.349848,0.60668 h 0.699183 v 0.6997 l 0.605647,0.34933 -0.349848,0.60565 0.349332,0.60565 -0.605131,0.34933 v 0.69918 h -0.699183 l -0.349332,0.60513 -0.605647,-0.34933 -0.605649,0.34933 -0.349332,-0.60513 h -0.699699 v -0.69918 l -0.605131,-0.34933 0.349332,-0.60565 -0.349332,-0.60565 0.605131,-0.34933 v -0.6997 h 0.699699 z m -21.360452,0.60461 h 0.564306 l 0.282154,0.48886 -0.84646,0.48938 z m 2.746086,0 h 0.564306 l -5.29e-4,0.9772 -0.845942,-0.48886 z m 2.180744,0 h 0.544152 l -0.272333,0.47077 z m 2.160592,0 h 0.563272 l 0.28267,0.48938 -0.84646,0.48834 z m 2.744534,0 h 0.564824 v 0.97875 l -0.847492,-0.48937 z m -12.425598,5.3e-4 h 0.976685 l -0.48886,0.84594 -0.487825,-0.28163 z m 6.138127,0 h 1.111043 l 0.40721,0.7059 -0.556554,0.96273 -0.962215,-0.55604 z m 2.195732,0 h 1.11311 l -5.29e-4,1.11311 -0.962732,0.55501 -0.556556,-0.96377 z m 4.890659,0 h 1.111559 l 0.40721,0.70538 -0.557072,0.96377 -0.961697,-0.55552 z m 1.380794,0 0.545703,5.3e-4 -0.272851,0.4718 z m 0.817004,5.3e-4 1.110525,5.3e-4 -5.29e-4,1.11208 -0.962731,0.55552 -0.555522,-0.9617 z m 1.344621,0 0.564822,5.3e-4 0.281638,0.48782 -0.846976,0.48886 z m 2.744536,5.3e-4 h 0.564822 v 0.97668 l -0.846977,-0.48886 z m 2.181778,0 h 0.976685 v 0.56275 l -0.48886,0.28267 z m 4.753715,0 h 0.977718 l -0.488342,0.84542 -0.489376,-0.28267 z m 2.594155,0 h 0.564309 l 0.281636,0.48834 -0.845945,0.48834 z m 2.746087,0 h 0.562239 v 0.97668 l -0.844909,-0.48782 z m 2.179711,0 h 0.976167 v 0.56482 l -0.487825,0.28164 z m -6.27145,5.3e-4 h 1.111041 v 1.11156 l -0.70435,0.40721 -0.962731,-0.55604 z m 4.88859,0 h 1.111043 l 0.556554,0.96376 -0.962215,0.55501 -0.705382,-0.40721 z m -12.273669,0.002 h 1.11156 l 0.555521,0.96274 -1.196311,0.69194 1.197343,0.69092 -0.69143,1.19734 h 1.382863 v 1.38286 l 1.197343,-0.69195 0.69143,1.19786 0.691947,-1.19786 0.962215,0.55553 v 1.08572 l 0.939993,-0.54261 0.962216,0.55553 -0.691431,1.19837 h 1.382861 v 1.38235 l 1.197861,-0.69143 0.690915,1.19734 0.690911,-1.19734 0.96325,0.55603 v 1.11208 H 88.7095 l 0.690912,1.19683 -1.196825,0.69195 1.196825,0.69091 -0.55552,0.96221 -1.086239,-5.3e-4 0.543119,0.94155 -0.556038,0.96273 -1.02216,-0.59014 -0.176217,-0.10129 v 1.38286 h -1.111044 l -0.556554,-0.96376 1.197343,-0.69092 -1.197343,-0.69091 0.691431,-1.19786 h -1.382861 v -1.38235 l -1.196827,0.6904 -0.691949,-1.19631 -0.690911,1.19683 -0.96325,-0.55604 v -1.08417 l -0.939478,0.54208 -0.963247,-0.55552 0.590142,-1.02164 0.101288,-0.17622 h -1.382863 v -1.38286 l -1.196308,0.6904 -0.690399,-1.19579 -0.691946,1.19682 -0.964282,-0.55655 v -1.11311 h 1.382861 l -0.690396,-1.19683 1.198375,-0.69195 -1.198894,-0.69091 0.556557,-0.96325 h 1.08572 l -0.542602,-0.93948 0.555522,-0.9617 1.197861,0.69195 z m -16.06052,0.28887 0.486275,0.28112 -0.487823,0.84543 -0.487828,-0.84439 z m 7.085872,0 0.487826,0.28164 -0.487826,0.84491 -0.487826,-0.84491 z m 7.085872,5.3e-4 0.48886,0.28267 -0.488341,0.84543 -0.48886,-0.84595 z m 12.273672,0 0.489892,0.28319 -0.489376,0.84698 -0.489376,-0.84802 z m -25.755018,0.39894 0.962732,0.55604 -5.3e-4,1.11105 h -1.112078 l -0.406693,-0.70435 z m 5.703528,0 0.555522,0.96222 -0.406694,0.70487 h -1.112594 l 5.29e-4,-1.11105 z m 1.382344,0 0.964282,0.55759 v 1.1095 h -1.112594 l -0.407209,-0.70487 z m 5.704563,0 0.556037,0.96325 -0.406693,0.70384 h -1.114145 l 5.29e-4,-1.11001 z m 12.27315,0 0.557072,0.9648 -0.556038,0.96222 -0.963766,-0.55656 v -0.81442 z m 1.383379,0.002 0.962215,0.55656 v 0.81287 l -0.96325,0.55603 -0.555521,-0.96221 z m -23.595975,0.24598 0.48886,0.84646 -0.489376,0.28215 -0.488344,-0.28215 z m 7.087938,5.3e-4 0.487826,0.84543 -0.489892,0.28267 -0.48731,-0.28112 z m -14.304552,0.22634 0.845426,0.48783 -0.845426,0.48783 -0.281636,-0.48783 z m 21.52065,0.002 0.281636,0.48783 -0.281636,0.48782 -0.845426,-0.48782 z m 4.926314,0 0.84491,0.48783 -0.84491,0.48782 -0.281636,-0.48782 z m 7.347871,5.3e-4 0.281119,0.48731 -0.281635,0.48783 -0.844391,-0.48783 z m -24.923541,0.21394 v 0.97617 h -0.563274 l -0.282154,-0.48834 z m 19.360573,0 v 0.54416 l -0.47077,-0.27182 z m -22.668899,5.3e-4 0.845426,0.48783 -0.282152,0.48782 h -0.56379 z m 10.394714,5.3e-4 -5.29e-4,0.97514 h -0.563274 l -0.281636,-0.48679 z m 16.051734,5.3e-4 0.470254,0.27182 -0.470254,0.2713 z m -19.359541,5.3e-4 0.843875,0.48782 -0.28112,0.48628 h -0.562755 z m 14.875576,0.40618 0.706416,0.40772 v 1.11156 h -1.11156 l -0.556553,-0.96376 z m 5.189347,0.001 0.961699,0.55552 -0.555522,0.96273 h -1.111559 v -1.11104 z m -29.041119,0.0961 0.271817,0.47078 h -0.543637 z m 7.08742,0 0.27182,0.47078 h -0.543637 z m 7.085872,0 0.27182,0.47078 h -0.544153 z m 12.274188,0.003 0.487825,0.84491 -0.488341,0.28163 -0.487826,-0.28163 z m -23.510192,0.0977 0.605131,0.34933 0.606163,-0.34933 0.349334,0.60513 h 0.699699 l -5.29e-4,0.69918 0.606166,0.35037 -0.350367,0.60668 0.349851,0.60461 -0.6041,0.3483 v 0.69918 h -0.70073 l -0.349851,0.60565 -0.605647,-0.34933 -0.604615,0.34881 -0.3483,-0.60513 h -0.701249 v -0.69918 l -0.605131,-0.34933 0.349334,-0.60565 -0.349334,-0.60565 0.605131,-0.34933 5.29e-4,-0.69918 h 0.698664 z m 8.299233,5.3e-4 0.349334,0.60461 h 0.697632 l -5.29e-4,0.69918 0.607198,0.35037 -0.349332,0.60461 0.349332,0.60617 -0.607198,0.35088 v 0.69712 H 73.57708 l -0.350883,0.60771 -0.606166,-0.34985 -0.60358,0.3483 -0.349851,-0.60616 h -0.701249 v -0.69712 l -0.604613,-0.34933 0.350883,-0.60772 -0.349851,-0.60564 0.60565,-0.34934 v -0.69918 h 0.69918 l 0.348816,-0.60358 0.604615,0.34985 z m 13.556278,0.34308 0.846461,0.48834 -0.282152,0.48783 h -0.564309 z m 3.308326,0 v 0.97617 h -0.564305 l -0.281639,-0.48783 z m -31.860587,0.12919 0.487825,0.84491 h -0.976685 v -0.56224 z m 21.692732,10e-4 0.488344,0.28164 v 0.5643 h -0.976685 z m 4.7532,0 0.488341,0.84594 h -0.976167 v -0.5643 z m 7.519953,0.001 0.488341,0.28215 5.3e-4,0.56276 h -0.97617 z m -29.528947,0.12816 h 0.976686 v 0.5643 l -0.488344,0.28164 z m 4.754232,0 h 0.977201 l -0.488857,0.84697 -0.48886,-0.28267 z m 1.248502,0 h 0.814422 l 0.556038,0.96325 -0.9648,0.55707 -0.962213,-0.55604 z m 1.084689,0 h 0.977201 v 0.5643 l -0.488341,0.28216 z m 4.752681,0 h 0.978752 l -0.489376,0.84697 -0.489892,-0.28267 z m 13.324253,0.34623 0.605131,0.34933 0.605647,-0.34933 0.349332,0.60513 h 0.699182 v 0.6997 l 0.605648,0.34933 -0.349848,0.60565 0.349848,0.60565 -0.605648,0.34933 v 0.69918 h -0.699182 l -0.349332,0.60513 -0.605647,-0.34933 -0.60565,0.34933 -0.349332,-0.60513 h -0.699183 v -0.69918 l -0.605647,-0.34933 0.349851,-0.60565 -0.349851,-0.60565 0.605647,-0.34933 v -0.6997 h 0.699183 z m -7.186126,0.60461 h 0.564825 l 0.281635,0.48835 -0.84646,0.48834 z m 2.746087,0 h 0.562755 v 0.97669 l -0.845426,-0.48783 z m 0.79685,0 h 1.11156 l 0.555522,0.96274 -0.962216,0.55603 -0.704866,-0.40669 z m 1.382861,0 h 0.976683 v 0.56276 l -0.488857,0.28215 z m 4.754232,0 h 0.976683 l -0.487826,0.84491 -0.488857,-0.28215 z m 1.247986,0 h 1.11156 l 0.0011,1.11156 -0.705381,0.40721 -0.962732,-0.55603 z m 1.346171,0 h 0.563788 l 0.281638,0.48835 -0.84491,0.48782 z m -29.849341,0.21446 0.282154,0.48886 -0.282154,0.48834 -0.84646,-0.48834 z m 7.086907,5.3e-4 0.281635,0.48834 -0.28267,0.49041 -0.846976,-0.48937 z m 4.924763,0 0.846977,0.48834 -0.846977,0.48938 -0.282154,-0.48938 z m -7.085356,10e-4 0.84491,0.48834 -0.845945,0.48835 -0.281635,-0.48731 z m 14.30352,0.0754 0.488858,0.28215 -0.488858,0.84646 -0.488344,-0.84646 z m 12.273153,0.002 0.487826,0.28163 -0.487826,0.84543 -0.487825,-0.84543 z m -25.49767,0.54622 0.96325,0.55707 -0.554488,0.96118 h -0.814938 l -0.556556,-0.96221 z m 21.824507,0.32711 0.845429,0.48782 -0.845429,0.48835 -0.281635,-0.48783 z m -4.92683,5.3e-4 0.281636,0.48782 -0.281636,0.48783 -0.844909,-0.48783 z m -1.784903,0.21497 0.471289,0.27182 -0.471289,0.27233 z m 8.497671,0 5.29e-4,0.54415 -0.471289,-0.27233 z m -29.530497,0.12971 0.488344,0.28163 v 0.56431 h -0.976686 z m 4.753715,0.001 0.48886,0.84491 h -0.975135 v -0.56431 z m 7.087423,0 0.486794,0.84491 h -0.976686 v -0.56177 z m -4.754232,10e-4 0.48731,0.28164 v 0.56224 H 69.75665 Z m 15.817638,0.9493 0.487826,0.28164 v 0.5643 H 85.57274 Z m 4.7532,0 0.488858,0.84594 h -0.976683 v -0.5643 z m -26.935308,0.12919 h 0.564309 l 0.281636,0.48834 -0.845945,0.48835 z m 2.746087,0 h 0.564306 v 0.97669 l -0.84646,-0.48835 z m 2.180746,0 h 0.544153 l -0.27182,0.47077 z m 2.15904,5.3e-4 h 0.564824 l 0.28267,0.48938 -0.847494,0.48885 z m 2.746086,0 h 0.562756 v 0.97823 l -0.845426,-0.48834 z m -8.177794,0.293 0.488341,0.28164 -0.488341,0.84543 -0.48731,-0.84595 z m 7.086388,0 0.48886,0.28267 -0.48731,0.8444 -0.488341,-0.84595 z m 3.544485,0.64854 0.487826,0.8444 -0.489374,0.28215 -0.486793,-0.2806 z m 10.619507,0.01 h 0.564309 l 0.281636,0.48782 -0.845945,0.48835 z m 2.744021,0 h 0.564305 v 0.97617 l -0.845944,-0.48835 z m -1.089856,0.29249 0.487825,0.28163 -0.487825,0.84543 -0.487826,-0.84543 z m -13.9299,0.14107 0.84646,0.48886 -0.281638,0.48731 h -0.564822 z m 3.308842,0 v 0.97617 h -0.562755 l -0.282155,-0.48834 z m -17.470768,0.50385 0.488858,0.84646 -0.488858,0.28215 -0.488341,-0.28215 z m 31.632694,0.002 0.488342,0.84594 -0.486275,0.2806 -0.489376,-0.28215 z m -15.209409,0.10025 0.350367,0.60616 h 0.697116 v 0.69919 l 0.606163,0.34985 -0.348297,0.60306 0.349848,0.60616 -0.607714,0.35089 v 0.69918 h -0.697116 l -0.350367,0.60668 -0.606679,-0.35037 -0.605131,0.34934 -0.350366,-0.6072 h -0.699183 v -0.69763 l -0.605131,-0.34985 0.349332,-0.60513 -0.349332,-0.60617 0.605131,-0.34881 v -0.69919 h 0.701249 l 0.348816,-0.60461 0.604615,0.34882 z m -18.077449,0.34106 0.845944,0.48835 -0.281636,0.48782 h -0.564308 z m 3.308326,0.002 v 0.97514 l -0.564306,-5.3e-4 -0.28112,-0.48731 z m 28.326437,5.3e-4 0.844391,0.48783 -0.282152,0.48886 h -0.562239 z m 3.308323,0 -0.0011,0.97669 h -0.563274 l -0.282152,-0.48783 z m -20.335708,0.262 h 0.974617 v 0.56431 l -0.487307,0.28112 z m 4.751647,0 h 0.978752 l -0.489376,0.84646 -0.489376,-0.28215 z m -18.310508,0.34262 0.605647,0.34933 0.605647,-0.34933 0.349332,0.60513 0.699183,5.3e-4 v 0.69866 l 0.606682,0.34985 -0.350883,0.6072 0.348816,0.6041 -0.604615,0.34881 v 0.70125 h -0.699183 l -0.349848,0.60513 -0.605131,-0.34933 -0.605647,0.34933 -0.349335,-0.60513 h -0.699698 l 5.29e-4,-0.70125 -0.605647,-0.34985 0.349851,-0.60513 -0.349851,-0.60513 0.605647,-0.34985 v -0.69918 h 0.699183 z m 31.63321,0.001 0.607198,0.35037 0.604096,-0.34882 0.348816,0.60462 h 0.700217 l -5.29e-4,0.69711 0.606682,0.35037 -0.350883,0.60668 0.349851,0.60616 -0.604099,0.34882 -5.29e-4,0.69918 h -0.700734 l -0.349332,0.60513 -0.605647,-0.34933 -0.604096,0.34882 -0.348816,-0.60462 -0.699702,-5.3e-4 5.3e-4,-0.69866 -0.606682,-0.35037 0.348816,-0.60461 -0.348816,-0.60461 0.606682,-0.35037 v -0.69918 h 0.697113 z m -33.893537,0.60358 H 58.4576 v 0.56431 l -0.488344,0.28164 z m 4.754747,0.001 0.976686,0.001 -0.487826,0.84439 -0.48886,-0.28215 z m 26.878978,0.001 h 0.978236 v 0.56224 l -0.489891,0.28318 z m 4.754232,0 h 0.97772 l -0.488344,0.84491 -0.489892,-0.28267 z m -20.167242,0.21549 0.282151,0.48937 -0.282151,0.48835 -0.846461,-0.48938 z m 4.924247,10e-4 0.845942,0.48834 -0.844391,0.48782 -0.282671,-0.48989 z m -6.710703,0.21497 0.472323,0.27285 -0.472323,0.27234 z m 8.496122,0.002 v 0.54312 l -0.470254,-0.27182 z m -7.790738,0.40618 0.964282,0.55707 -0.555006,0.96118 h -1.11466 v -1.11104 z m 7.085872,0.002 0.704866,0.40722 v 1.11155 h -1.111043 l -0.556038,-0.96376 z m -9.68003,0.0961 0.489376,0.84698 -0.489376,0.28215 -0.488857,-0.28267 z m 12.273669,0.002 0.48886,0.84491 -0.48886,0.28215 -0.487825,-0.28163 z m -24.416596,0.22531 0.281636,0.48731 -0.281636,0.48731 -0.843875,-0.48731 z m 4.927864,0 0.844394,0.48731 -0.84646,0.48834 -0.280604,-0.48628 z m 31.63321,5.3e-4 0.846461,0.48886 -0.847493,0.48937 -0.282154,-0.48886 z m -4.926314,0.002 0.281639,0.48782 -0.281639,0.48783 -0.84491,-0.48783 z m -21.145994,0.21445 0.845944,0.48834 -0.281638,0.48835 h -0.564306 z m 3.308842,5.3e-4 v 0.97617 H 71.11574 l -0.281635,-0.48782 z m 8.964827,0.002 0.845944,0.48834 -0.281639,0.48783 h -0.564305 z m 3.308326,0 v 0.97617 h -0.56224 l -0.28267,-0.48835 z m -5.412074,0.12867 0.488861,0.8475 h -0.979271 v -0.56431 z m -4.755266,5.3e-4 0.487826,0.28215 v 0.56276 h -0.975651 z m -4.366141,0.47439 0.605647,0.34933 0.605648,-0.34933 0.34985,0.60513 h 0.699183 v 0.69918 l 0.607713,0.35089 -0.349848,0.60616 0.348816,0.60462 -0.606681,0.35036 v 0.69815 l -0.699183,-5.3e-4 -0.350366,0.6072 -0.605132,-0.34933 -0.604612,0.34881 -0.350367,-0.60668 h -0.699182 v -0.69763 l -0.606166,-0.34985 0.350367,-0.6072 -0.348817,-0.60564 0.604616,-0.34934 v -0.69918 h 0.699182 z m 13.485998,0.001 0.350366,0.60616 h 0.697117 v 0.69919 l 0.606163,0.34985 -0.348298,0.60513 0.348298,0.60513 -0.606163,0.34985 v 0.6997 h -0.697117 l -0.350366,0.60616 -0.606682,-0.35037 -0.605647,0.34934 -0.349332,-0.60513 h -0.699182 v -0.6997 l -0.605648,-0.34934 0.349848,-0.60564 -0.349332,-0.60565 0.605132,-0.34933 v -0.69919 h 0.699182 l 0.349332,-0.60513 0.605647,0.34934 z m -24.93646,0.47284 0.487825,0.28163 -5.29e-4,0.56638 h -0.977202 z m 31.63321,10e-4 0.489375,0.28267 -5.29e-4,0.56379 -0.977201,-5.3e-4 z m -26.880013,5.3e-4 0.48886,0.84646 h -0.976686 v -0.56431 z m 31.633728,10e-4 0.488342,0.84543 h -0.975651 l 5.29e-4,-0.56431 z m -22.442042,0.12816 h 0.979786 l -0.489376,0.84801 -0.49041,-0.2837 z m 2.593641,0 h 0.564822 l 0.28267,0.48989 -0.847492,0.48938 z m -7.345288,5.3e-4 h 0.974616 v 0.56431 L 67.65032,132.496 Z m 6.000668,0 h 1.110525 v 1.11414 l -0.70435,0.4067 -0.962732,-0.55656 z m 4.090707,0.002 h 0.562755 v 0.97668 l -0.84491,-0.48782 z m 2.180743,0 h 0.975651 v 0.56431 l -0.487825,0.28163 z m 4.7532,0 h 0.976167 l -0.48731,0.84646 -0.488857,-0.28164 z m -6.137095,5.3e-4 h 1.11466 l 0.555006,0.96221 -0.964282,0.55656 -0.705384,-0.40721 z m -1.888255,0.293 0.488858,0.28267 -0.488342,0.84543 -0.488344,-0.84646 z m -0.689882,0.39791 0.555522,0.96376 -0.556038,0.96274 -0.964282,-0.55707 v -0.81288 z m 1.381313,0.002 0.962731,0.55604 v 0.81183 l -0.963766,0.55656 -0.555006,-0.96222 z m 11.310419,0.25424 0.545187,5.3e-4 -0.272852,0.47181 z m 0.814421,0.001 1.112595,0.001 -5.3e-4,1.11156 -0.964282,0.55655 -0.555003,-0.96324 z m -25.360724,0.001 h 0.542083 l -0.271301,0.46974 z m 26.707927,0 0.562758,5.3e-4 0.281636,0.48783 -0.84491,0.48782 z m -32.981963,5.3e-4 h 1.112592 l -5.3e-4,1.11156 -0.962215,0.55501 -0.556038,-0.96377 z m 1.347203,0 h 0.564824 l 0.281636,0.48731 -0.846976,0.48886 z m 2.744536,0 h 0.564306 v 0.97669 l -0.845942,-0.48886 z m 0.798917,0 h 1.112078 l 0.406691,0.70435 -0.556553,0.96377 -0.962216,-0.55604 z m 30.835843,0 h 0.56379 v 0.9772 l -0.845941,-0.48834 z m 0.798402,0 h 1.111043 l 0.40721,0.70487 -0.556038,0.96325 -0.962731,-0.55604 z m -26.304854,0.21446 0.281636,0.48834 -0.283702,0.49041 -0.846979,-0.48834 z m 4.925798,0.001 0.845942,0.48886 -0.846976,0.48885 -0.281636,-0.48834 z m 7.347355,0 0.282152,0.48937 -0.282152,0.48834 -0.846976,-0.48885 z m 4.92528,0.002 0.844909,0.48783 -0.844909,0.48782 -0.281636,-0.48782 z m -24.416597,0.0739 0.488342,0.28215 -0.48886,0.84543 -0.488342,-0.84594 z m 31.632694,0 0.48886,0.28215 -0.488344,0.84595 -0.487825,-0.84646 z m -17.704863,0.14263 v 0.54312 l -0.470255,-0.27182 z m 3.77703,5.3e-4 0.469739,0.2713 -0.469739,0.2713 z m -18.396291,0.2558 0.556038,0.96221 -0.407729,0.70538 h -1.112591 l 5.29e-4,-1.11156 z m 1.382861,5.3e-4 0.962731,0.55604 v 1.11104 h -1.112076 l -0.406693,-0.70435 z m 30.250349,0 0.556038,0.96273 -0.407726,0.70642 h -1.111044 l 5.3e-4,-1.11363 z m 1.383895,0.001 0.962215,0.55604 -5.29e-4,1.11208 h -1.111559 l -0.406694,-0.70487 z m -19.101676,0.14832 0.703832,0.40617 v 1.11311 l -1.112076,-5.3e-4 -0.555522,-0.96273 z m 5.18418,5.3e-4 0.964798,0.55707 -0.556038,0.96221 h -1.112078 v -1.11363 z m -14.865244,0.0982 0.488344,0.84543 -0.49041,0.28267 -0.48731,-0.28164 z m 12.274187,5.3e-4 0.487826,0.84542 -0.488342,0.28216 -0.488344,-0.28164 z m 12.273153,0 0.487826,0.84594 -0.488344,0.28164 -0.487826,-0.28164 z m -22.893176,0.44183 v 0.9772 l -0.564308,-5.3e-4 -0.282152,-0.48885 z m 8.964827,0 0.847492,0.48938 -0.28267,0.48937 -0.564822,-5.3e-4 z m 3.308842,0 v 0.97875 h -0.564306 l -0.28267,-0.48989 z m -19.360575,5.3e-4 -5.3e-4,0.97617 h -0.562758 l -0.282151,-0.48886 z m 3.77858,5.3e-4 0.845945,0.48834 -0.281639,0.48731 h -0.564306 z m 27.85618,0 -5.29e-4,0.97772 h -0.564825 l -0.281635,-0.48834 z m -3.309358,0.001 0.845944,0.48834 -0.281638,0.48834 h -0.564306 z m 7.086907,0 0.845426,0.48834 -0.282155,0.48834 h -0.56379 z m -26.220105,0.12971 0.488857,0.28215 v 0.56275 h -0.976683 z m 4.755264,0 0.487825,0.84594 -0.977201,-5.3e-4 v -0.56327 z m 12.272636,0 0.487826,0.84697 h -0.976167 v -0.56482 z m -4.754747,0.002 0.488857,0.28216 v 0.56275 h -0.976683 z m -19.575034,0.37259 0.271301,0.47026 h -0.543118 z m 31.633729,0.002 0.271817,0.47025 h -0.543637 z m -33.289957,0.70228 h 0.978233 l -0.489892,0.84698 -0.48886,-0.28215 z m 2.333188,0 h 0.976686 v 0.56483 l -0.487826,0.28163 z m 7.347874,0 h 0.564306 l 0.28267,0.48938 -0.846976,0.48834 z m 2.746086,0 0.562756,5.3e-4 v 0.97824 l -0.845945,-0.48835 z m -11.17968,5.3e-4 h 0.815454 l 0.556556,0.96325 -0.9648,0.55655 -0.963766,-0.55603 z m 7.088973,0 h 1.110525 v 1.11259 l -0.706416,0.40773 -0.961181,-0.55552 z m -1.249018,5.3e-4 0.976683,0.001 -0.488342,0.84491 -0.488341,-0.28215 z m 6.136574,0 1.112078,5.3e-4 0.555006,0.96273 -0.963766,0.55604 -0.703318,-0.40618 z m 1.382863,0 0.976683,5.3e-4 v 0.56327 l -0.488858,0.28164 z m 4.753713,0.001 h 0.976686 l -0.487826,0.84439 -0.48886,-0.28163 z m 2.594158,0 h 0.564305 l 0.281639,0.48834 -0.845944,0.48783 z m 2.746086,0 h 0.56224 v 0.97668 l -0.84491,-0.48782 z m 2.179712,0 h 0.976167 v 0.56276 l -0.488342,0.28215 z m 4.754231,0 h 0.976167 l -0.487825,0.84491 -0.488858,-0.28215 z m 2.331641,0 h 0.976683 v 0.56431 l -0.488342,0.28163 z m -13.358357,5.3e-4 h 1.112075 v 1.11156 l -0.703315,0.40617 -0.964282,-0.55604 z m 4.889624,0 h 1.111041 l 0.555522,0.96221 -0.962732,0.55604 -0.703831,-0.40618 z m 7.385079,0 h 0.813903 l 0.556038,0.96273 -0.96325,0.55604 -0.962731,-0.55604 z m -21.547524,0.29042 0.488345,0.28215 -0.487826,0.84594 -0.488344,-0.84645 z m 12.273669,0.003 0.489376,0.28215 -0.488857,0.84646 -0.48886,-0.84697 z"
       style="color:#000000;font-style:normal;font-variant:normal;font-weight:normal;font-stretch:normal;font-size:medium;line-height:normal;font-family:sans-serif;font-variant-ligatures:normal;font-variant-position:normal;font-variant-caps:normal;font-variant-numeric:normal;font-variant-alternates:normal;font-variant-east-asian:normal;font-feature-settings:normal;font-variation-settings:normal;text-indent:0;text-align:start;text-decoration:none;text-decoration-line:none;text-decoration-style:solid;text-decoration-color:#000000;letter-spacing:normal;word-spacing:normal;text-transform:none;writing-mode:lr-tb;direction:ltr;text-orientation:mixed;dominant-baseline:auto;baseline-shift:baseline;text-anchor:start;white-space:normal;shape-padding:0;shape-margin:0;inline-size:0;clip-rule:nonzero;display:inline;overflow:visible;visibility:visible;opacity:0.09;isolation:auto;mix-blend-mode:normal;color-interpolation:sRGB;color-interpolation-filters:linearRGB;solid-color:#000000;solid-opacity:1;vector-effect:none;fill:#000000;fill-opacity:1;fill-rule:nonzero;stroke:none;stroke-width:0.234363px;stroke-linecap:butt;stroke-linejoin:miter;stroke-miterlimit:4;stroke-dasharray:none;stroke-dashoffset:0;stroke-opacity:1;color-rendering:auto;image-rendering:auto;shape-rendering:auto;text-rendering:auto;enable-background:accumulate;stop-color:#000000;stop-opacity:1"
       id="path5932" />
    <path
       inkscape:connector-curvature="0"
       id="path6619"
       d="m 69.118729,108.58663 -1.63477,2.82812 1.49804,2.59375 -0.95507,1.65234 h -1.91211 l -1.49609,-2.59179 -3.26563,-0.002 1.63281,2.82813 h 2.99609 l 0.95509,1.6543 -0.95705,1.65625 h -2.99413 l -1.63281,2.82617 h 3.26563 l 1.49609,-2.5918 h 1.91211 l 0.95507,1.65234 -1.49804,2.59571 1.6328,2.82617 1.63283,-2.82813 -1.49805,-2.59179 0.955081,-1.6543 h 1.91211 l 1.49609,2.5918 3.26758,0.002 -1.63281,-2.82812 h -2.9961 l -0.95508,-1.6543 0.95508,-1.65625 2.9961,0.002 1.63086,-2.82812 h -0.20313 -3.06056 l -1.49803,2.59179 h -1.91211 l -0.95313,-1.65234 1.49805,-2.59375 z m 0,0.46874 1.36131,2.35938 -1.36328,2.35938 -1.36131,-2.35938 z m -7.35938,4.2461 2.72461,0.002 1.36133,2.35742 h -2.72461 z m 11.99219,0.002 h 2.72265 l -1.36132,2.35938 -2.72266,-0.002 z m -4.63478,0.93945 0.95509,1.65235 h 1.912111 l -0.95703,1.65625 0.95507,1.6543 h -1.91015 l -0.95509,1.65429 -0.95507,-1.65429 h -1.912101 l 0.957031,-1.65625 -0.95508,-1.6543 h 1.91015 z m -5.99608,5.19727 h 2.72461 l -1.36133,2.35742 h -2.72656 z m 9.26757,0 h 2.72462 l 1.36328,2.35938 -2.72656,-0.002 z m -3.27149,1.88672 1.36328,2.35937 -1.36328,2.35938 -1.36131,-2.35742 z"
       style="color:#000000;font-style:normal;font-variant:normal;font-weight:normal;font-stretch:normal;font-size:medium;line-height:normal;font-family:sans-serif;font-variant-ligatures:normal;font-variant-position:normal;font-variant-caps:normal;font-variant-numeric:normal;font-variant-alternates:normal;font-variant-east-asian:normal;font-feature-settings:normal;font-variation-settings:normal;text-indent:0;text-align:start;text-decoration:none;text-decoration-line:none;text-decoration-style:solid;text-decoration-color:#000000;letter-spacing:normal;word-spacing:normal;text-transform:none;writing-mode:lr-tb;direction:ltr;text-orientation:mixed;dominant-baseline:auto;baseline-shift:baseline;text-anchor:start;white-space:normal;shape-padding:0;shape-margin:0;inline-size:0;clip-rule:nonzero;display:inline;overflow:visible;visibility:visible;opacity:1;isolation:auto;mix-blend-mode:normal;color-interpolation:sRGB;color-interpolation-filters:linearRGB;solid-color:#000000;solid-opacity:1;vector-effect:none;fill:#00ff00;fill-opacity:1;fill-rule:nonzero;stroke:#000000;stroke-width:0.034;stroke-linecap:butt;stroke-linejoin:miter;stroke-miterlimit:4;stroke-dasharray:none;stroke-dashoffset:0;stroke-opacity:1;color-rendering:auto;image-rendering:auto;shape-rendering:auto;text-rendering:auto;enable-background:accumulate;stop-color:#000000;stop-opacity:1" />
    <path
       id="path6623"
       d="M 104.67773 114.16016 L 103.58789 116.04883 L 101.40625 116.04688 L 102.49805 117.9375 L 100.04492 122.18359 L 97.863281 122.18359 L 98.953125 124.07227 L 97.863281 125.96289 L 100.04492 125.96289 L 102.49609 130.20898 L 101.40625 132.09961 L 103.58789 132.09961 L 104.67773 133.98633 L 105.76758 132.09961 L 110.67383 132.09961 L 111.76367 133.98633 L 112.85352 132.09961 L 115.03516 132.09961 L 113.94531 130.21094 L 116.39844 125.96289 L 118.57812 125.96289 L 118.47656 125.78711 L 117.48828 124.07422 L 118.58008 122.18555 L 116.39844 122.18555 L 113.94531 117.9375 L 115.03516 116.04883 L 112.85547 116.04883 L 111.76562 114.16016 L 110.67383 116.04883 L 105.76953 116.04883 L 104.67773 114.16016 z M 111.76562 114.62695 L 112.7207 116.2832 L 114.63086 116.2832 L 113.67578 117.9375 L 116.26367 122.41992 L 118.17383 122.41992 L 117.21875 124.07422 L 118.17188 125.72852 L 116.26367 125.72852 L 113.67383 130.21094 L 114.62891 131.86523 L 112.71875 131.86523 L 111.76367 133.51758 L 110.80859 131.86523 L 105.63281 131.86523 L 104.67773 133.51758 L 103.72266 131.86523 L 101.8125 131.86523 L 102.76758 130.20898 L 100.17969 125.72852 L 98.269531 125.72852 L 99.224609 124.07227 L 98.269531 122.41797 L 100.17969 122.41797 L 102.76758 117.9375 L 101.8125 116.28125 L 103.72266 116.2832 L 104.67773 114.62891 L 105.63281 116.2832 L 110.81055 116.2832 L 111.76562 114.62695 z "
       style="color:#000000;font-style:normal;font-variant:normal;font-weight:normal;font-stretch:normal;font-size:medium;line-height:normal;font-family:sans-serif;font-variant-ligatures:normal;font-variant-position:normal;font-variant-caps:normal;font-variant-numeric:normal;font-variant-alternates:normal;font-variant-east-asian:normal;font-feature-settings:normal;font-variation-settings:normal;text-indent:0;text-align:start;text-decoration:none;text-decoration-line:none;text-decoration-style:solid;text-decoration-color:#000000;letter-spacing:normal;word-spacing:normal;text-transform:none;writing-mode:lr-tb;direction:ltr;text-orientation:mixed;dominant-baseline:auto;baseline-shift:baseline;text-anchor:start;white-space:normal;shape-padding:0;shape-margin:0;inline-size:0;clip-rule:nonzero;display:inline;overflow:visible;visibility:visible;isolation:auto;mix-blend-mode:normal;color-interpolation:sRGB;color-interpolation-filters:linearRGB;solid-color:#000000;solid-opacity:1;vector-effect:none;fill:#800080;fill-opacity:1;fill-rule:nonzero;stroke:none;stroke-width:0.234363px;stroke-linecap:butt;stroke-linejoin:miter;stroke-miterlimit:4;stroke-dasharray:none;stroke-dashoffset:0;stroke-opacity:1;color-rendering:auto;image-rendering:auto;shape-rendering:auto;text-rendering:auto;enable-background:accumulate;stop-color:#000000;stop-opacity:1;opacity:1" />
    <path
       inkscape:connector-curvature="0"
       id="path6627"
       d="m 129.86634,115.13516 v 2.17968 l -3.54297,2.04688 -0.002,4.08984 -3.54297,2.04492 v 4.0918 l -1.88867,1.08984 1.88867,1.0918 v 2.17969 l 1.88867,-1.08985 1.88868,1.08985 v -2.17969 l 3.54297,-2.04687 v -4.08985 l 3.54492,-2.04492 v -4.0918 l 1.88867,-1.08984 -0.17578,-0.10156 -1.71289,-0.99024 v -2.17968 l -1.88868,1.08984 z m 0.23438,0.40625 1.65429,0.95507 1.6543,-0.95507 v 1.91015 l 1.6543,0.95508 -1.6543,0.95508 v 4.08984 l -3.54492,2.04492 v 4.0918 l -3.54297,2.04492 v 1.91016 l -1.6543,-0.95508 -1.65429,0.95508 v -1.91016 l -1.6543,-0.95508 1.6543,-0.95507 v -4.08985 l 3.54297,-2.04687 0.002,-4.08985 3.54297,-2.04492 z"
       style="color:#000000;font-style:normal;font-variant:normal;font-weight:normal;font-stretch:normal;font-size:medium;line-height:normal;font-family:sans-serif;font-variant-ligatures:normal;font-variant-position:normal;font-variant-caps:normal;font-variant-numeric:normal;font-variant-alternates:normal;font-variant-east-asian:normal;font-feature-settings:normal;font-variation-settings:normal;text-indent:0;text-align:start;text-decoration:none;text-decoration-line:none;text-decoration-style:solid;text-decoration-color:#000000;letter-spacing:normal;word-spacing:normal;text-transform:none;writing-mode:lr-tb;direction:ltr;text-orientation:mixed;dominant-baseline:auto;baseline-shift:baseline;text-anchor:start;white-space:normal;shape-padding:0;shape-margin:0;inline-size:0;clip-rule:nonzero;display:inline;overflow:visible;visibility:visible;opacity:1;isolation:auto;mix-blend-mode:normal;color-interpolation:sRGB;color-interpolation-filters:linearRGB;solid-color:#000000;solid-opacity:1;vector-effect:none;fill:none;fill-opacity:1;fill-rule:nonzero;stroke:#000000;stroke-width:0.034;stroke-linecap:butt;stroke-linejoin:miter;stroke-miterlimit:4;stroke-dasharray:none;stroke-dashoffset:0;stroke-opacity:1;color-rendering:auto;image-rendering:auto;shape-rendering:auto;text-rendering:auto;enable-background:accumulate;stop-color:#000000;stop-opacity:1" />
    <path
       id="path6615"
       d="M 102.79102 114.66406 L 102.79102 116.8457 L 100.90234 117.93555 L 102.79102 119.02734 L 102.78906 123.11719 L 106.33203 125.16406 L 106.33203 129.25391 L 109.875 131.30078 L 109.875 133.48242 L 111.76367 132.39062 L 113.65234 133.48242 L 113.65234 131.30078 L 115.54102 130.21094 L 113.65234 129.11914 L 113.65234 125.0293 L 110.10938 122.98242 L 110.11133 118.89062 L 106.56641 116.8457 L 106.56836 114.66406 L 106.39258 114.76562 L 104.67969 115.75586 L 102.79102 114.66406 z M 103.02539 115.07031 L 104.67969 116.02539 L 106.33398 115.07031 L 106.33203 116.98047 L 109.87695 119.02734 L 109.875 123.11719 L 113.41797 125.16406 L 113.41797 129.25391 L 115.07227 130.21094 L 113.41797 131.16602 L 113.41797 133.07617 L 111.76367 132.12109 L 110.10938 133.07617 L 110.10938 131.16602 L 106.56641 129.11914 L 106.56641 125.0293 L 103.02344 122.98242 L 103.02539 118.89062 L 101.37109 117.93555 L 103.02539 116.98047 L 103.02539 115.07031 z "
       style="color:#000000;font-style:normal;font-variant:normal;font-weight:normal;font-stretch:normal;font-size:medium;line-height:normal;font-family:sans-serif;font-variant-ligatures:normal;font-variant-position:normal;font-variant-caps:normal;font-variant-numeric:normal;font-variant-alternates:normal;font-variant-east-asian:normal;font-feature-settings:normal;font-variation-settings:normal;text-indent:0;text-align:start;text-decoration:none;text-decoration-line:none;text-decoration-style:solid;text-decoration-color:#000000;letter-spacing:normal;word-spacing:normal;text-transform:none;writing-mode:lr-tb;direction:ltr;text-orientation:mixed;dominant-baseline:auto;baseline-shift:baseline;text-anchor:start;white-space:normal;shape-padding:0;shape-margin:0;inline-size:0;clip-rule:nonzero;display:inline;overflow:visible;visibility:visible;isolation:auto;mix-blend-mode:normal;color-interpolation:sRGB;color-interpolation-filters:linearRGB;solid-color:#000000;solid-opacity:1;vector-effect:none;fill:#008000;fill-opacity:1;fill-rule:nonzero;stroke:none;stroke-width:0.234363px;stroke-linecap:butt;stroke-linejoin:miter;stroke-miterlimit:4;stroke-dasharray:none;stroke-dashoffset:0;stroke-opacity:1;color-rendering:auto;image-rendering:auto;shape-rendering:auto;text-rendering:auto;enable-background:accumulate;stop-color:#000000;stop-opacity:1;opacity:1" />
    <path
       id="path6631"
       d="M 104.67773 119.8457 L 101.13477 121.89258 L 99.246094 120.80078 L 99.246094 121.00391 L 99.246094 122.98242 L 97.357422 124.07227 L 99.246094 125.16211 L 99.246094 127.34375 L 101.13477 126.25391 L 104.67773 128.29883 L 108.2207 126.25391 L 111.76367 128.30078 L 115.30664 126.25586 L 117.19531 127.3457 L 117.19531 125.16406 L 119.08398 124.07422 L 117.19531 122.98438 L 117.19531 120.80273 L 115.30664 121.89258 L 111.76367 119.84766 L 108.2207 121.89258 L 104.67773 119.8457 z M 104.67773 120.11719 L 108.2207 122.16406 L 111.76367 120.11719 L 115.30664 122.16406 L 116.96094 121.20898 L 116.96094 123.11914 L 118.61523 124.07422 L 116.96094 125.0293 L 116.96094 126.93945 L 115.30664 125.98438 L 111.76367 128.0293 L 108.2207 125.98438 L 104.67773 128.0293 L 101.13477 125.98242 L 99.480469 126.9375 L 99.480469 125.02734 L 97.826172 124.07227 L 99.480469 123.11719 L 99.480469 121.20703 L 101.13477 122.16211 L 104.67773 120.11719 z "
       style="color:#000000;font-style:normal;font-variant:normal;font-weight:normal;font-stretch:normal;font-size:medium;line-height:normal;font-family:sans-serif;font-variant-ligatures:normal;font-variant-position:normal;font-variant-caps:normal;font-variant-numeric:normal;font-variant-alternates:normal;font-variant-east-asian:normal;font-feature-settings:normal;font-variation-settings:normal;text-indent:0;text-align:start;text-decoration:none;text-decoration-line:none;text-decoration-style:solid;text-decoration-color:#000000;letter-spacing:normal;word-spacing:normal;text-transform:none;writing-mode:lr-tb;direction:ltr;text-orientation:mixed;dominant-baseline:auto;baseline-shift:baseline;text-anchor:start;white-space:normal;shape-padding:0;shape-margin:0;inline-size:0;clip-rule:nonzero;display:inline;overflow:visible;visibility:visible;isolation:auto;mix-blend-mode:normal;color-interpolation:sRGB;color-interpolation-filters:linearRGB;solid-color:#000000;solid-opacity:1;vector-effect:none;fill:#008080;fill-opacity:1;fill-rule:nonzero;stroke:none;stroke-width:0.234363px;stroke-linecap:butt;stroke-linejoin:miter;stroke-miterlimit:4;stroke-dasharray:none;stroke-dashoffset:0;stroke-opacity:1;color-rendering:auto;image-rendering:auto;shape-rendering:auto;text-rendering:auto;enable-background:accumulate;stop-color:#000000;stop-opacity:1;opacity:1" />
    <path
       id="path6635"
       d="M 105.63281 119.5918 L 103.04492 124.07422 L 105.63281 128.55469 L 110.80859 128.55469 L 113.39844 124.07422 L 113.36328 124.01562 L 110.81055 119.5918 L 105.63281 119.5918 z M 105.76953 119.82617 L 110.67383 119.82617 L 113.12695 124.07422 L 110.67383 128.32031 L 105.76758 128.32031 L 103.31641 124.07422 L 105.76953 119.82617 z "
       style="color:#000000;font-style:normal;font-variant:normal;font-weight:normal;font-stretch:normal;font-size:medium;line-height:normal;font-family:sans-serif;font-variant-ligatures:normal;font-variant-position:normal;font-variant-caps:normal;font-variant-numeric:normal;font-variant-alternates:normal;font-variant-east-asian:normal;font-feature-settings:normal;font-variation-settings:normal;text-indent:0;text-align:start;text-decoration:none;text-decoration-line:none;text-decoration-style:solid;text-decoration-color:#000000;letter-spacing:normal;word-spacing:normal;text-transform:none;writing-mode:lr-tb;direction:ltr;text-orientation:mixed;dominant-baseline:auto;baseline-shift:baseline;text-anchor:start;white-space:normal;shape-padding:0;shape-margin:0;inline-size:0;clip-rule:nonzero;display:inline;overflow:visible;visibility:visible;isolation:auto;mix-blend-mode:normal;color-interpolation:sRGB;color-interpolation-filters:linearRGB;solid-color:#000000;solid-opacity:1;vector-effect:none;fill:#800080;fill-opacity:1;fill-rule:nonzero;stroke:none;stroke-width:0.234363px;stroke-linecap:butt;stroke-linejoin:miter;stroke-miterlimit:4;stroke-dasharray:none;stroke-dashoffset:0;stroke-opacity:1;color-rendering:auto;image-rendering:auto;shape-rendering:auto;text-rendering:auto;enable-background:accumulate;stop-color:#000000;stop-opacity:1;opacity:1" />
    <path
       style="color:#000000;font-style:normal;font-variant:normal;font-weight:normal;font-stretch:normal;font-size:medium;line-height:normal;font-family:sans-serif;font-variant-ligatures:normal;font-variant-position:normal;font-variant-caps:normal;font-variant-numeric:normal;font-variant-alternates:normal;font-variant-east-asian:normal;font-feature-settings:normal;font-variation-settings:normal;text-indent:0;text-align:start;text-decoration:none;text-decoration-line:none;text-decoration-style:solid;text-decoration-color:#000000;letter-spacing:normal;word-spacing:normal;text-transform:none;writing-mode:lr-tb;direction:ltr;text-orientation:mixed;dominant-baseline:auto;baseline-shift:baseline;text-anchor:start;white-space:normal;shape-padding:0;shape-margin:0;inline-size:0;clip-rule:nonzero;display:inline;overflow:visible;visibility:visible;opacity:1;isolation:auto;mix-blend-mode:normal;color-interpolation:sRGB;color-interpolation-filters:linearRGB;solid-color:#000000;solid-opacity:1;vector-effect:none;fill:#00ff00;fill-opacity:1;fill-rule:nonzero;stroke:#000000;stroke-width:0.034;stroke-linecap:butt;stroke-linejoin:miter;stroke-miterlimit:4;stroke-dasharray:none;stroke-dashoffset:0;stroke-opacity:1;color-rendering:auto;image-rendering:auto;shape-rendering:auto;text-rendering:auto;enable-background:accumulate;stop-color:#000000;stop-opacity:1"
       d="m 93.057366,109.83672 -2.829813,1.63184 4.66e-4,2.99527 -1.653285,0.95343 -1.655936,-0.95605 2.44e-4,-2.9926 -2.827119,-1.63455 -10e-6,3.26564 2.59469,1.49804 -1.8e-5,1.91021 -1.656954,0.95583 -2.592993,-1.49706 -2.82714,1.63113 2.828119,1.63281 2.591551,-1.49652 1.655936,0.95606 9.45e-4,1.9085 -2.595196,1.49893 9.62e-4,3.26394 2.828137,-1.63282 -0.0015,-2.99358 1.654274,-0.95513 1.655936,0.95606 -2.48e-4,2.99261 2.828807,1.63552 5e-6,-3.26563 -2.594699,-1.49805 2.7e-5,-1.9102 1.655248,-0.95682 2.593699,1.49978 2.826426,-1.63379 -0.175915,-0.10157 -2.650523,-1.53028 -2.593227,1.49555 -1.655936,-0.95606 7.35e-4,-1.90753 2.594225,-1.49723 z m -0.23437,0.40594 -7.61e-4,2.72394 -2.360325,1.36164 7.61e-4,-2.72394 z m -8.49646,-0.002 2.358581,1.36404 2.37e-4,2.72225 -2.359582,-1.36231 z m 10.384541,5.99783 2.357884,1.36132 -2.358628,1.36262 -2.356892,-1.36306 z m -4.483562,-1.50381 9.57e-4,1.90853 1.655937,0.95605 -1.656938,0.95584 -3.5e-5,1.9102 -1.654238,-0.95507 -1.654277,0.95511 3e-5,-1.91019 -1.655928,-0.95605 1.656938,-0.95584 2.6e-5,-1.91021 1.654239,0.95508 z m -7.791393,1.50293 2.359582,1.36231 -2.357657,1.36092 -2.36127,-1.36328 z m 8.025951,4.63379 2.35959,1.36231 9.45e-4,2.72492 -2.36027,-1.36501 z m -3.776553,-0.002 9.5e-4,2.72491 -2.360325,1.36165 -2.19e-4,-2.72224 z"
       id="path7460"
       inkscape:connector-curvature="0" />
    <path
       inkscape:connector-curvature="0"
       id="path7462"
       d="m 80.6451,90.395886 -2.829813,1.63184 4.66e-4,2.99527 -1.653285,0.95343 -1.655936,-0.95605 2.44e-4,-2.9926 -2.827119,-1.63455 -1e-5,3.26564 2.59469,1.49804 -1.8e-5,1.91021 -1.656954,0.95583 -2.592993,-1.49706 -2.82714,1.63113 2.828119,1.63281 2.591551,-1.49652 1.655936,0.95606 9.45e-4,1.908504 -2.595196,1.49893 9.62e-4,3.26394 2.828137,-1.63282 -0.0015,-2.99358 1.654274,-0.95513 1.655936,0.95606 -2.48e-4,2.99261 2.828807,1.63552 5e-6,-3.26563 -2.594699,-1.49805 2.7e-5,-1.910204 1.655248,-0.95682 2.593699,1.49978 2.826426,-1.63379 -0.175915,-0.10157 -2.650523,-1.53028 -2.593227,1.49555 -1.655936,-0.95606 7.35e-4,-1.90753 2.594225,-1.49723 z m -0.23437,0.40594 -7.61e-4,2.72394 -2.360325,1.36164 7.61e-4,-2.72394 z m -8.49646,-0.002 2.358581,1.36404 2.37e-4,2.72225 -2.359582,-1.36231 z m 10.384541,5.99783 2.357884,1.36132 -2.358628,1.36262 -2.356892,-1.36306 z m -4.483562,-1.50381 9.57e-4,1.90853 1.655937,0.95605 -1.656938,0.95584 -3.5e-5,1.910204 -1.654238,-0.95507 -1.654277,0.95511 3e-5,-1.910194 -1.655928,-0.95605 1.656938,-0.95584 2.6e-5,-1.91021 1.654239,0.95508 z m -7.791393,1.50293 2.359582,1.36231 -2.357657,1.36092 -2.36127,-1.36328 z m 8.025951,4.633794 2.35959,1.36231 9.45e-4,2.72492 -2.36027,-1.36501 z m -3.776553,-0.002 9.5e-4,2.72491 -2.360325,1.36165 -2.19e-4,-2.72224 z"
       style="color:#000000;font-style:normal;font-variant:normal;font-weight:normal;font-stretch:normal;font-size:medium;line-height:normal;font-family:sans-serif;font-variant-ligatures:normal;font-variant-position:normal;font-variant-caps:normal;font-variant-numeric:normal;font-variant-alternates:normal;font-variant-east-asian:normal;font-feature-settings:normal;font-variation-settings:normal;text-indent:0;text-align:start;text-decoration:none;text-decoration-line:none;text-decoration-style:solid;text-decoration-color:#000000;letter-spacing:normal;word-spacing:normal;text-transform:none;writing-mode:lr-tb;direction:ltr;text-orientation:mixed;dominant-baseline:auto;baseline-shift:baseline;text-anchor:start;white-space:normal;shape-padding:0;shape-margin:0;inline-size:0;clip-rule:nonzero;display:inline;overflow:visible;visibility:visible;opacity:1;isolation:auto;mix-blend-mode:normal;color-interpolation:sRGB;color-interpolation-filters:linearRGB;solid-color:#000000;solid-opacity:1;vector-effect:none;fill:#00ff00;fill-opacity:1;fill-rule:nonzero;stroke:#000000;stroke-width:0.034;stroke-linecap:butt;stroke-linejoin:miter;stroke-miterlimit:4;stroke-dasharray:none;stroke-dashoffset:0;stroke-opacity:1;color-rendering:auto;image-rendering:auto;shape-rendering:auto;text-rendering:auto;enable-background:accumulate;stop-color:#000000;stop-opacity:1" />
    <path
       style="color:#000000;font-style:normal;font-variant:normal;font-weight:normal;font-stretch:normal;font-size:medium;line-height:normal;font-family:sans-serif;font-variant-ligatures:normal;font-variant-position:normal;font-variant-caps:normal;font-variant-numeric:normal;font-variant-alternates:normal;font-variant-east-asian:normal;font-feature-settings:normal;font-variation-settings:normal;text-indent:0;text-align:start;text-decoration:none;text-decoration-line:none;text-decoration-style:solid;text-decoration-color:#000000;letter-spacing:normal;word-spacing:normal;text-transform:none;writing-mode:lr-tb;direction:ltr;text-orientation:mixed;dominant-baseline:auto;baseline-shift:baseline;text-anchor:start;white-space:normal;shape-padding:0;shape-margin:0;inline-size:0;clip-rule:nonzero;display:inline;overflow:visible;visibility:visible;opacity:1;isolation:auto;mix-blend-mode:normal;color-interpolation:sRGB;color-interpolation-filters:linearRGB;solid-color:#000000;solid-opacity:1;vector-effect:none;fill:#00ff00;fill-opacity:1;fill-rule:nonzero;stroke:#000000;stroke-width:0.034;stroke-linecap:butt;stroke-linejoin:miter;stroke-miterlimit:4;stroke-dasharray:none;stroke-dashoffset:0;stroke-opacity:1;color-rendering:auto;image-rendering:auto;shape-rendering:auto;text-rendering:auto;enable-background:accumulate;stop-color:#000000;stop-opacity:1"
       d="m 80.646453,129.08478 -2.829813,1.63184 4.66e-4,2.99527 -1.653285,0.95343 -1.655936,-0.95605 2.44e-4,-2.9926 -2.827119,-1.63455 -1e-5,3.26564 2.59469,1.49804 -1.8e-5,1.91021 -1.656954,0.95583 -2.592993,-1.49706 -2.82714,1.63113 2.828119,1.63281 2.591551,-1.49652 1.655936,0.95606 9.45e-4,1.9085 -2.595196,1.49893 9.62e-4,3.26394 2.828137,-1.63282 -0.0015,-2.99358 1.654274,-0.95513 1.655936,0.95606 -2.48e-4,2.99261 2.828807,1.63552 5e-6,-3.26563 -2.594699,-1.49805 2.7e-5,-1.9102 1.655248,-0.95682 2.593699,1.49978 2.826426,-1.63379 -0.175915,-0.10157 -2.650523,-1.53028 -2.593227,1.49555 -1.655936,-0.95606 7.35e-4,-1.90753 2.594225,-1.49723 z m -0.23437,0.40594 -7.61e-4,2.72394 -2.360325,1.36164 7.61e-4,-2.72394 z m -8.49646,-0.002 2.358581,1.36404 2.37e-4,2.72225 -2.359582,-1.36231 z m 10.384541,5.99783 2.357884,1.36132 -2.358628,1.36262 -2.356892,-1.36306 z m -4.483562,-1.50381 9.57e-4,1.90853 1.655937,0.95605 -1.656938,0.95584 -3.5e-5,1.9102 -1.654238,-0.95507 -1.654277,0.95511 3e-5,-1.91019 -1.655928,-0.95605 1.656938,-0.95584 2.6e-5,-1.91021 1.654239,0.95508 z m -7.791393,1.50293 2.359582,1.36231 -2.357657,1.36092 -2.36127,-1.36328 z m 8.025951,4.63379 2.35959,1.36231 9.45e-4,2.72492 -2.36027,-1.36501 z m -3.776553,-0.002 9.5e-4,2.72491 -2.360325,1.36165 -2.19e-4,-2.72224 z"
       id="path7464"
       inkscape:connector-curvature="0" />
    <path
       style="color:#000000;font-style:normal;font-variant:normal;font-weight:normal;font-stretch:normal;font-size:medium;line-height:normal;font-family:sans-serif;font-variant-ligatures:normal;font-variant-position:normal;font-variant-caps:normal;font-variant-numeric:normal;font-variant-alternates:normal;font-variant-east-asian:normal;font-feature-settings:normal;font-variation-settings:normal;text-indent:0;text-align:start;text-decoration:none;text-decoration-line:none;text-decoration-style:solid;text-decoration-color:#000000;letter-spacing:normal;word-spacing:normal;text-transform:none;writing-mode:lr-tb;direction:ltr;text-orientation:mixed;dominant-baseline:auto;baseline-shift:baseline;text-anchor:start;white-space:normal;shape-padding:0;shape-margin:0;inline-size:0;clip-rule:nonzero;display:inline;overflow:visible;visibility:visible;opacity:1;isolation:auto;mix-blend-mode:normal;color-interpolation:sRGB;color-interpolation-filters:linearRGB;solid-color:#000000;solid-opacity:1;vector-effect:none;fill:#00ff00;fill-opacity:1;fill-rule:nonzero;stroke:#000000;stroke-width:0.034;stroke-linecap:butt;stroke-linejoin:miter;stroke-miterlimit:4;stroke-dasharray:none;stroke-dashoffset:0;stroke-opacity:1;color-rendering:auto;image-rendering:auto;shape-rendering:auto;text-rendering:auto;enable-background:accumulate;stop-color:#000000;stop-opacity:1"
       d="m 95.524135,127.8861 -1.63477,2.82812 1.49804,2.59375 -0.95507,1.65234 h -1.91211 l -1.49609,-2.59179 -3.26563,-0.002 1.63281,2.82813 h 2.99609 l 0.95509,1.6543 -0.95705,1.65625 h -2.99413 l -1.63281,2.82617 h 3.26563 l 1.49609,-2.5918 h 1.91211 l 0.95507,1.65234 -1.49804,2.59571 1.6328,2.82617 1.63283,-2.82813 -1.49805,-2.59179 0.955081,-1.6543 h 1.91211 l 1.496094,2.5918 3.26758,0.002 -1.63281,-2.82812 h -2.996104 l -0.95508,-1.6543 0.95508,-1.65625 2.996104,0.002 1.63086,-2.82812 h -0.20313 -3.06056 l -1.498034,2.59179 h -1.91211 l -0.95313,-1.65234 1.49805,-2.59375 z m 0,0.46874 1.36131,2.35938 -1.36328,2.35938 -1.36131,-2.35938 z m -7.35938,4.2461 2.72461,0.002 1.36133,2.35742 h -2.72461 z m 11.992195,0.002 h 2.72265 l -1.36132,2.35938 -2.722665,-0.002 z m -4.634785,0.93945 0.95509,1.65235 h 1.912111 l -0.95703,1.65625 0.95507,1.6543 h -1.91015 l -0.95509,1.65429 -0.95507,-1.65429 h -1.912101 l 0.957031,-1.65625 -0.95508,-1.6543 h 1.91015 z m -5.99608,5.19727 h 2.72461 l -1.36133,2.35742 h -2.72656 z m 9.26757,0 h 2.724625 l 1.36328,2.35938 -2.72656,-0.002 z m -3.27149,1.88672 1.36328,2.35937 -1.36328,2.35938 -1.36131,-2.35742 z"
       id="path7466"
       inkscape:connector-curvature="0" />
    <path
       inkscape:connector-curvature="0"
       id="path7468"
       d="m 95.563649,89.19261 -1.63477,2.82812 1.49804,2.59375 -0.95507,1.65234 h -1.91211 l -1.49609,-2.59179 -3.26563,-0.002 1.63281,2.82813 h 2.99609 l 0.95509,1.6543 -0.95705,1.65625 h -2.99413 l -1.63281,2.82617 h 3.26563 l 1.49609,-2.5918 h 1.91211 l 0.95507,1.65234 -1.49804,2.59571 1.6328,2.82617 1.63283,-2.82813 -1.49805,-2.59179 0.955081,-1.6543 h 1.91211 l 1.49609,2.5918 3.26758,0.002 -1.63281,-2.82812 h -2.9961 l -0.95508,-1.6543 0.95508,-1.65625 2.9961,0.002 1.63086,-2.82812 h -0.20313 -3.06056 l -1.49803,2.59179 h -1.91211 l -0.95313,-1.65234 1.49805,-2.59375 z m 0,0.46874 1.36131,2.35938 -1.36328,2.35938 -1.36131,-2.35938 z m -7.35938,4.2461 2.72461,0.002 1.36133,2.35742 h -2.72461 z m 11.992191,0.002 h 2.72265 l -1.36132,2.35938 -2.722661,-0.002 z m -4.634781,0.93945 0.95509,1.65235 h 1.912111 l -0.95703,1.65625 0.95507,1.6543 h -1.91015 l -0.95509,1.65429 -0.95507,-1.65429 h -1.912101 l 0.957031,-1.65625 -0.95508,-1.6543 h 1.91015 z m -5.99608,5.19727 h 2.72461 l -1.36133,2.35742 h -2.72656 z m 9.26757,0 h 2.724621 l 1.36328,2.35938 -2.72656,-0.002 z m -3.27149,1.88672 1.36328,2.35937 -1.36328,2.35938 -1.36131,-2.35742 z"
       style="color:#000000;font-style:normal;font-variant:normal;font-weight:normal;font-stretch:normal;font-size:medium;line-height:normal;font-family:sans-serif;font-variant-ligatures:normal;font-variant-position:normal;font-variant-caps:normal;font-variant-numeric:normal;font-variant-alternates:normal;font-variant-east-asian:normal;font-feature-settings:normal;font-variation-settings:normal;text-indent:0;text-align:start;text-decoration:none;text-decoration-line:none;text-decoration-style:solid;text-decoration-color:#000000;letter-spacing:normal;word-spacing:normal;text-transform:none;writing-mode:lr-tb;direction:ltr;text-orientation:mixed;dominant-baseline:auto;baseline-shift:baseline;text-anchor:start;white-space:normal;shape-padding:0;shape-margin:0;inline-size:0;clip-rule:nonzero;display:inline;overflow:visible;visibility:visible;opacity:1;isolation:auto;mix-blend-mode:normal;color-interpolation:sRGB;color-interpolation-filters:linearRGB;solid-color:#000000;solid-opacity:1;vector-effect:none;fill:#00ff00;fill-opacity:1;fill-rule:nonzero;stroke:#000000;stroke-width:0.034;stroke-linecap:butt;stroke-linejoin:miter;stroke-miterlimit:4;stroke-dasharray:none;stroke-dashoffset:0;stroke-opacity:1;color-rendering:auto;image-rendering:auto;shape-rendering:auto;text-rendering:auto;enable-background:accumulate;stop-color:#000000;stop-opacity:1" />
    <path
       style="color:#000000;font-style:normal;font-variant:normal;font-weight:normal;font-stretch:normal;font-size:medium;line-height:normal;font-family:sans-serif;font-variant-ligatures:normal;font-variant-position:normal;font-variant-caps:normal;font-variant-numeric:normal;font-variant-alternates:normal;font-variant-east-asian:normal;font-feature-settings:normal;font-variation-settings:normal;text-indent:0;text-align:start;text-decoration:none;text-decoration-line:none;text-decoration-style:solid;text-decoration-color:#000000;letter-spacing:normal;word-spacing:normal;text-transform:none;writing-mode:lr-tb;direction:ltr;text-orientation:mixed;dominant-baseline:auto;baseline-shift:baseline;text-anchor:start;white-space:normal;shape-padding:0;shape-margin:0;inline-size:0;clip-rule:nonzero;display:inline;overflow:visible;visibility:visible;opacity:1;isolation:auto;mix-blend-mode:normal;color-interpolation:sRGB;color-interpolation-filters:linearRGB;solid-color:#000000;solid-opacity:1;vector-effect:none;fill:#00ff00;fill-opacity:1;fill-rule:nonzero;stroke:#000000;stroke-width:0.034;stroke-linecap:butt;stroke-linejoin:miter;stroke-miterlimit:4;stroke-dasharray:none;stroke-dashoffset:0;stroke-opacity:1;color-rendering:auto;image-rendering:auto;shape-rendering:auto;text-rendering:auto;enable-background:accumulate;stop-color:#000000;stop-opacity:1"
       d="m 56.804501,89.194938 -1.63477,2.82812 1.49804,2.59375 -0.95507,1.65234 h -1.91211 l -1.49609,-2.59179 -3.26563,-0.002 1.63281,2.82813 h 2.99609 l 0.95509,1.6543 -0.95705,1.656245 h -2.99413 l -1.63281,2.826167 h 3.26563 l 1.49609,-2.5918 h 1.91211 l 0.95507,1.65234 -1.49804,2.59571 1.6328,2.82617 1.63283,-2.82813 -1.49805,-2.59179 0.955081,-1.6543 h 1.91211 l 1.49609,2.5918 3.26758,0.002 -1.63281,-2.828117 h -2.9961 l -0.95508,-1.654295 0.95508,-1.65625 2.9961,0.002 1.63086,-2.82812 h -0.20313 -3.06056 l -1.49803,2.59179 h -1.91211 l -0.95313,-1.65234 1.49805,-2.59375 z m 0,0.46874 1.36131,2.35938 -1.36328,2.35938 -1.36131,-2.35938 z m -7.35938,4.2461 2.72461,0.002 1.36133,2.35742 h -2.72461 z m 11.992191,0.002 h 2.72265 l -1.36132,2.35938 -2.722661,-0.002 z m -4.634781,0.93945 0.95509,1.65235 h 1.912111 l -0.95703,1.65625 0.95507,1.654295 h -1.91015 l -0.95509,1.654287 -0.95507,-1.654287 h -1.912101 l 0.957031,-1.656245 -0.95508,-1.6543 h 1.91015 z m -5.99608,5.197262 h 2.72461 l -1.36133,2.35742 h -2.72656 z m 9.26757,0 h 2.724621 l 1.36328,2.35938 -2.72656,-0.002 z m -3.27149,1.88672 1.36328,2.35937 -1.36328,2.35938 -1.36131,-2.35742 z"
       id="path7470"
       inkscape:connector-curvature="0" />
    <path
       inkscape:connector-curvature="0"
       id="path7472"
       d="m 56.804753,127.88103 -1.63477,2.82812 1.49804,2.59375 -0.95507,1.65234 h -1.91211 l -1.49609,-2.59179 -3.26563,-0.002 1.63281,2.82813 h 2.99609 l 0.95509,1.6543 -0.95705,1.65624 h -2.99413 l -1.63281,2.82617 h 3.26563 l 1.49609,-2.5918 h 1.91211 l 0.95507,1.65234 -1.49804,2.59571 1.6328,2.82617 1.63283,-2.82813 -1.49805,-2.59179 0.955081,-1.6543 h 1.91211 l 1.49609,2.5918 3.26758,0.002 -1.63281,-2.82812 h -2.9961 l -0.95508,-1.65429 0.95508,-1.65625 2.9961,0.002 1.63086,-2.82812 h -0.20313 -3.06056 l -1.49803,2.59179 h -1.91211 l -0.95313,-1.65234 1.49805,-2.59375 z m 0,0.46874 1.36131,2.35938 -1.36328,2.35938 -1.36131,-2.35938 z m -7.35938,4.2461 2.72461,0.002 1.36133,2.35742 h -2.72461 z m 11.992191,0.002 h 2.72265 l -1.36132,2.35938 -2.722661,-0.002 z m -4.634781,0.93945 0.95509,1.65235 h 1.912111 l -0.95703,1.65625 0.95507,1.65429 h -1.91015 l -0.95509,1.65429 -0.95507,-1.65429 h -1.912101 l 0.957031,-1.65624 -0.95508,-1.6543 h 1.91015 z m -5.99608,5.19726 h 2.72461 l -1.36133,2.35742 h -2.72656 z m 9.26757,0 h 2.724621 l 1.36328,2.35938 -2.72656,-0.002 z m -3.27149,1.88672 1.36328,2.35937 -1.36328,2.35938 -1.36131,-2.35742 z"
       style="color:#000000;font-style:normal;font-variant:normal;font-weight:normal;font-stretch:normal;font-size:medium;line-height:normal;font-family:sans-serif;font-variant-ligatures:normal;font-variant-position:normal;font-variant-caps:normal;font-variant-numeric:normal;font-variant-alternates:normal;font-variant-east-asian:normal;font-feature-settings:normal;font-variation-settings:normal;text-indent:0;text-align:start;text-decoration:none;text-decoration-line:none;text-decoration-style:solid;text-decoration-color:#000000;letter-spacing:normal;word-spacing:normal;text-transform:none;writing-mode:lr-tb;direction:ltr;text-orientation:mixed;dominant-baseline:auto;baseline-shift:baseline;text-anchor:start;white-space:normal;shape-padding:0;shape-margin:0;inline-size:0;clip-rule:nonzero;display:inline;overflow:visible;visibility:visible;opacity:1;isolation:auto;mix-blend-mode:normal;color-interpolation:sRGB;color-interpolation-filters:linearRGB;solid-color:#000000;solid-opacity:1;vector-effect:none;fill:#00ff00;fill-opacity:1;fill-rule:nonzero;stroke:#000000;stroke-width:0.034;stroke-linecap:butt;stroke-linejoin:miter;stroke-miterlimit:4;stroke-dasharray:none;stroke-dashoffset:0;stroke-opacity:1;color-rendering:auto;image-rendering:auto;shape-rendering:auto;text-rendering:auto;enable-background:accumulate;stop-color:#000000;stop-opacity:1" />
    <path
       inkscape:connector-curvature="0"
       id="path7474"
       d="m 93.057366,109.83672 -2.829813,1.63184 4.66e-4,2.99527 -1.653285,0.95343 -1.655936,-0.95605 2.44e-4,-2.9926 -2.827119,-1.63455 -10e-6,3.26564 2.59469,1.49804 -1.8e-5,1.91021 -1.656954,0.95583 -2.592993,-1.49706 -2.82714,1.63113 2.828119,1.63281 2.591551,-1.49652 1.655936,0.95606 9.45e-4,1.9085 -2.595196,1.49893 9.62e-4,3.26394 2.828137,-1.63282 -0.0015,-2.99358 1.654274,-0.95513 1.655936,0.95606 -2.48e-4,2.99261 2.828807,1.63552 5e-6,-3.26563 -2.594699,-1.49805 2.7e-5,-1.9102 1.655248,-0.95682 2.593699,1.49978 2.826426,-1.63379 -0.175915,-0.10157 -2.650523,-1.53028 -2.593227,1.49555 -1.655936,-0.95606 7.35e-4,-1.90753 2.594225,-1.49723 z m -0.23437,0.40594 -7.61e-4,2.72394 -2.360325,1.36164 7.61e-4,-2.72394 z m -8.49646,-0.002 2.358581,1.36404 2.37e-4,2.72225 -2.359582,-1.36231 z m 10.384541,5.99783 2.357884,1.36132 -2.358628,1.36262 -2.356892,-1.36306 z m -4.483562,-1.50381 9.57e-4,1.90853 1.655937,0.95605 -1.656938,0.95584 -3.5e-5,1.9102 -1.654238,-0.95507 -1.654277,0.95511 3e-5,-1.91019 -1.655928,-0.95605 1.656938,-0.95584 2.6e-5,-1.91021 1.654239,0.95508 z m -7.791393,1.50293 2.359582,1.36231 -2.357657,1.36092 -2.36127,-1.36328 z m 8.025951,4.63379 2.35959,1.36231 9.45e-4,2.72492 -2.36027,-1.36501 z m -3.776553,-0.002 9.5e-4,2.72491 -2.360325,1.36165 -2.19e-4,-2.72224 z"
       style="color:#000000;font-style:normal;font-variant:normal;font-weight:normal;font-stretch:normal;font-size:medium;line-height:normal;font-family:sans-serif;font-variant-ligatures:normal;font-variant-position:normal;font-variant-caps:normal;font-variant-numeric:normal;font-variant-alternates:normal;font-variant-east-asian:normal;font-feature-settings:normal;font-variation-settings:normal;text-indent:0;text-align:start;text-decoration:none;text-decoration-line:none;text-decoration-style:solid;text-decoration-color:#000000;letter-spacing:normal;word-spacing:normal;text-transform:none;writing-mode:lr-tb;direction:ltr;text-orientation:mixed;dominant-baseline:auto;baseline-shift:baseline;text-anchor:start;white-space:normal;shape-padding:0;shape-margin:0;inline-size:0;clip-rule:nonzero;display:inline;overflow:visible;visibility:visible;opacity:1;isolation:auto;mix-blend-mode:normal;color-interpolation:sRGB;color-interpolation-filters:linearRGB;solid-color:#000000;solid-opacity:1;vector-effect:none;fill:#00ff00;fill-opacity:1;fill-rule:nonzero;stroke:#000000;stroke-width:0.034;stroke-linecap:butt;stroke-linejoin:miter;stroke-miterlimit:4;stroke-dasharray:none;stroke-dashoffset:0;stroke-opacity:1;color-rendering:auto;image-rendering:auto;shape-rendering:auto;text-rendering:auto;enable-background:accumulate;stop-color:#000000;stop-opacity:1" />
    <path
       style="color:#000000;font-style:normal;font-variant:normal;font-weight:normal;font-stretch:normal;font-size:medium;line-height:normal;font-family:sans-serif;font-variant-ligatures:normal;font-variant-position:normal;font-variant-caps:normal;font-variant-numeric:normal;font-variant-alternates:normal;font-variant-east-asian:normal;font-feature-settings:normal;font-variation-settings:normal;text-indent:0;text-align:start;text-decoration:none;text-decoration-line:none;text-decoration-style:solid;text-decoration-color:#000000;letter-spacing:normal;word-spacing:normal;text-transform:none;writing-mode:lr-tb;direction:ltr;text-orientation:mixed;dominant-baseline:auto;baseline-shift:baseline;text-anchor:start;white-space:normal;shape-padding:0;shape-margin:0;inline-size:0;clip-rule:nonzero;display:inline;overflow:visible;visibility:visible;opacity:1;isolation:auto;mix-blend-mode:normal;color-interpolation:sRGB;color-interpolation-filters:linearRGB;solid-color:#000000;solid-opacity:1;vector-effect:none;fill:#00ff00;fill-opacity:1;fill-rule:nonzero;stroke:#000000;stroke-width:0.034;stroke-linecap:butt;stroke-linejoin:miter;stroke-miterlimit:4;stroke-dasharray:none;stroke-dashoffset:0;stroke-opacity:1;color-rendering:auto;image-rendering:auto;shape-rendering:auto;text-rendering:auto;enable-background:accumulate;stop-color:#000000;stop-opacity:1"
       d="m 54.276322,109.68092 -2.829813,1.63184 4.66e-4,2.99527 -1.653285,0.95343 -1.655936,-0.95605 2.44e-4,-2.9926 -2.827119,-1.63455 -1e-5,3.26564 2.59469,1.49804 -1.8e-5,1.91021 -1.656954,0.95583 -2.592993,-1.49706 -2.82714,1.63113 2.828119,1.63281 2.591551,-1.49652 1.655936,0.95606 9.45e-4,1.9085 -2.595196,1.49893 9.62e-4,3.26394 2.828137,-1.63282 -0.0015,-2.99358 1.654274,-0.95513 1.655936,0.95606 -2.48e-4,2.99261 2.828807,1.63552 5e-6,-3.26563 -2.594699,-1.49805 2.7e-5,-1.9102 1.655248,-0.95682 2.593699,1.49978 2.826426,-1.63379 -0.175915,-0.10157 -2.650523,-1.53028 -2.593227,1.49555 -1.655936,-0.95606 7.35e-4,-1.90753 2.594225,-1.49723 z m -0.23437,0.40594 -7.61e-4,2.72394 -2.360325,1.36164 7.61e-4,-2.72394 z m -8.49646,-0.002 2.358581,1.36404 2.37e-4,2.72225 -2.359582,-1.36231 z m 10.384541,5.99783 2.357884,1.36132 -2.358628,1.36262 -2.356892,-1.36306 z m -4.483562,-1.50381 9.57e-4,1.90853 1.655937,0.95605 -1.656938,0.95584 -3.5e-5,1.9102 -1.654238,-0.95507 -1.654277,0.95511 3e-5,-1.91019 -1.655928,-0.95605 1.656938,-0.95584 2.6e-5,-1.91021 1.654239,0.95508 z m -7.791393,1.50293 2.359582,1.36231 -2.357657,1.36092 -2.36127,-1.36328 z m 8.025951,4.63379 2.35959,1.36231 9.45e-4,2.72492 -2.36027,-1.36501 z m -3.776553,-0.002 9.5e-4,2.72491 -2.360325,1.36165 -2.19e-4,-2.72224 z"
       id="path7476"
       inkscape:connector-curvature="0" />
  </g>
</svg>
