<svg xmlns="http://www.w3.org/2000/svg" viewBox="0 0 37.837 21.853" height="82.595" width="143.008"><g stroke="#3465a4" stroke-width=".265"><g fill="#729fcf"><path d="M11.984 21.856l-2.001-1.157v-3.38l2.928 1.69v2.31h0l1.999-1.154 2.924 1.689h-5.85zM5.987 11.465l2.928-1.693v-3.38l-2.929 1.69z"/><path d="M8.914 7.463v-1.07l-.927.535zM6.917 10.926l-2.93-1.689-2.926 1.69 2.927 1.69z"/><path d="M8.917 15.463l-.002-3.382-2.927-1.69v3.381z"/><path d="M8.915 14.392v1.07l-.927-.535zM1.989 10.393l-.928.535.928.536zM5.989 10.393l.927.536-.927.535zM31.835 11.463l-2.928-1.692v-3.38l2.928 1.69z"/><path d="M28.908 7.462v-1.07l.927.535zM30.905 10.925l2.93-1.689 2.926 1.69-2.927 1.69z"/><path d="M28.905 15.462l.002-3.382 2.927-1.69v3.381z"/><path d="M28.907 14.39v1.071l.927-.535zM31.833 10.392l-.927.536.927.535zM1.986 8.928v4h-2v-4z"/><path d="M-.014 12.928h.538L-.011 12l-.003.005zM-.014 8.928h.538l-.535.928-.003-.005zM12.18 4.732l-2 3.464-3.464-2 2-3.464z"/><path d="M10.914 6.926L10.379 6h1.07zM8.914 7.463v-1.07l-.927.535zM7.984 4l.535.927H7.45zM10.912 3.998l-.927.536V3.463zM20.91 1.997h-4v-2h4z"/><path d="M11.987-.002L9.986 1.154v3.38l2.928-1.69V.534v.001l1.999 1.154 2.925-1.69h-5.85z"/><path d="M10.912 3.998l-.927.536V3.463zM16.91-.003v.538l.928-.536-.005-.003zM25.833-.002l2 1.156v3.38l-2.927-1.69V.534l-.001.001-1.998 1.154-2.925-1.69h5.85z"/><path d="M26.908 3.998l.927.536V3.463zM20.91-.003v.538l-.928-.536.005-.003zM1.988 10.392l-.927.535.927.536z"/><path d="M31.102 6.195l-3.465 2-2-3.464 3.464-2z"/><path d="M27.833 3.463v1.07l-.927-.535zM12.177 17.121l-2-3.464-3.464 2 2 3.464z"/><path d="M10.91 14.927l-.535.927h1.071zM8.91 14.39v1.07l-.927-.535zM7.98 17.853l.536-.927H7.445zM10.909 17.855l-.928-.535v1.07zM20.907 19.856h-4v2h4z"/><path d="M11.984 21.856l-2.001-1.157v-3.38l2.928 1.69v2.31h0l1.999-1.154 2.924 1.689h-5.85z"/><path d="M16.907 21.856v-.537l.927.535-.004.003zM25.83 21.855l2-1.156v-3.38l-2.927 1.69v2.31l-.001-.001-1.998-1.153-2.925 1.689h5.85z"/><path d="M20.906 21.856v-.538l-.927.536.005.003zM31.098 15.658l-3.464-2-2 3.465 3.464 2z"/><path d="M28.905 14.39v1.072l.927-.536zM26.904 14.926l.535.927h-1.07zM27.83 18.39v-1.07l-.927.535zM30.367 16.928h-1.071l.535.927zM5.987 11.465l2.928-1.693v-3.38l-2.929 1.69z"/><path d="M8.914 7.463v-1.07l-.927.535zM8.917 15.463l-.002-3.382-2.927-1.69v3.381z"/><path d="M8.915 14.392v1.07l-.927-.535zM1.989 10.393l-.928.535.928.536zM5.989 10.393l.927.536-.927.535zM28.907 14.39v1.071l.927-.535zM31.833 10.392l-.927.536.927.535z"/><path d="M1.986 8.928v4h-2v-4zM12.18 4.732l-2 3.464-3.464-2 2-3.464z"/><path d="M10.912 3.998l-.927.536V3.463zM20.91 1.997h-4v-2h4z"/><path d="M11.987-.002L9.986 1.154v3.38l2.928-1.69V.534v.001l1.999 1.154 2.925-1.69h-5.85zM12.177 17.121l-2-3.464-3.464 2 2 3.464zM25.83 21.855l2-1.156v-3.38l-2.927 1.69v2.31l-.001-.001-1.998-1.153-2.925 1.689h5.85z"/><path d="M31.098 15.658l-3.464-2-2 3.465 3.464 2zM35.835 8.927v4h2v-4z"/><path d="M35.835 8.927v4h2v-4z"/><path d="M37.835 12.927h-.538l.536-.927.003.005zM37.835 8.928h-.538l.535.927.003-.005zM35.833 10.392l.928.535-.928.536z"/><path d="M35.833 10.392l.927.536-.927.535zM28.908 7.462v-1.07l.927.535zM26.907 6.928L27.443 6h-1.071zM30.37 4.925H29.3l.534-.927zM-.014 12.928h.538L-.011 12l-.003.005zM-.014 8.928h.538l-.535.928-.003-.005zM10.914 6.926L10.379 6h1.07zM8.914 7.463v-1.07l-.927.535zM7.984 4l.535.927H7.45zM10.912 3.998l-.927.536V3.463zM16.91-.003v.538l.928-.536-.005-.003zM26.908 3.998l.927.536V3.463zM20.91-.003v.538l-.928-.536.005-.003zM1.988 10.392l-.927.535.927.536zM10.91 14.927l-.535.927h1.071zM8.91 14.39v1.07l-.927-.535zM7.98 17.853l.536-.927H7.445zM10.909 17.855l-.928-.535v1.07zM16.907 21.856v-.537l.927.535-.004.003zM20.906 21.856v-.538l-.927.536.004.003zM28.904 14.39v1.072l.928-.536zM26.904 14.926l.535.927h-1.07zM27.83 18.39v-1.07l-.927.535zM30.367 16.928h-1.071l.535.927z"/><path d="M35.833 10.392l.928.535-.928.536zM37.836 12.927h-.538l.535-.928.003.005zM37.836 8.927h-.538l.535.928.003-.005z"/><path d="M35.833 10.392l.928.535-.928.536zM1.988 10.392l-.927.535.927.536zM5.989 10.393l.927.536-.927.535zM12.912 21.856v-.538l-.927.535.004.003zM24.903 21.857v-.538l.927.535-.004.003zM24.906-.004v.538L25.833 0l-.004-.003zM12.914-.004v.538L11.985 0l.005-.003zM31.833 10.392l-.927.536.927.535z"/></g><path d="M10.373 6l1.69 2.927h5.692L20.599 4l-1.691-2.928L17.218 4l2.846 4.927h5.69l1.692-2.928L24.063 6l-2.845 4.926 2.846 4.928h3.382l-1.691-2.927h-5.691l-2.846 4.927 1.69 2.929 1.692-2.928-2.845-4.928h-5.692l-1.69 2.928h3.382l2.845-4.928L13.754 6z" fill="none"/><path d="M7.445 12.928h2.309l2.846 4.927-1.154 2h2.309l1.154 2 1.155-2h5.69l1.155 2 1.155-2h2.31l-1.156-2 2.846-4.928h2.31l-1.156-2 1.155-2h-2.31l-2.845-4.928 1.154-2h-2.31l-1.154-2-1.154 2h-5.691l-1.155-2-1.154 2h-2.31L12.6 4 9.754 8.929h-2.31l1.155 2z" fill="none"/><path d="M10.908 4l2-1.155V.536l2 1.154 2-1.155v2.31l4 2.309.001 4.618 4 2.309v4.62l2 1.154-2 1.154v2.31l-2-1.155-2 1.155v-2.31l-4-2.309v-4.619l-4-2.308-.001-4.62z" fill="none"/><path d="M20.908.535l2 1.154 2-1.154v2.309l2 1.154-2 1.155v4.619l-3.999 2.31V16.7l-4 2.31v2.31l-2-1.155-2 1.155v-2.31l-2-1.155 2-1.155v-4.618l4-2.31V5.153l4-2.31z" fill="none"/><path d="M28.909 7.462v2.31l2 1.154-2 1.155v2.31l-2-1.155-4 2.31-4-2.31-4 2.31-4-2.309-2 1.155v-2.31l-2-1.154 2-1.155v-2.31l2 1.155 4-2.31 4 2.31 4-2.31 4 2.309z" fill="none"/><path d="M13.218 10.927L16.063 6h5.69l2.847 4.927-2.845 4.928h-5.691zM28.908 15.462V14.39l.928.536zM27.837 17.318v1.072l-.928-.536zM20.91 21.319l-.001 1.072-.929-.536zM16.909 21.319v1.072l.929-.536z" fill="none"/><path d="M20.91 21.319l-.001 1.072-.929-.536zM10.373 6l1.69 2.927h5.692L20.599 4l-1.691-2.928L17.218 4l2.846 4.927h5.69l1.692-2.928L24.063 6l-2.845 4.926 2.846 4.928h3.382l-1.691-2.927h-5.691l-2.846 4.927 1.69 2.929 1.692-2.928-2.845-4.928h-5.692l-1.69 2.928h3.382l2.845-4.928L13.754 6z" fill="none"/><path d="M7.445 12.928h2.309l2.846 4.927-1.154 2h2.309l1.154 2 1.155-2h5.69l1.155 2 1.155-2h2.31l-1.156-2 2.846-4.928h2.31l-1.156-2 1.155-2h-2.31l-2.845-4.928 1.154-2h-2.31l-1.154-2-1.154 2h-5.691l-1.155-2-1.154 2h-2.31L12.6 4 9.754 8.929h-2.31l1.155 2z" fill="none"/><path d="M10.908 4l2-1.155V.536l2 1.154 2-1.155v2.31l4 2.309.001 4.618 4 2.309v4.62l2 1.154-2 1.154v2.31l-2-1.155-2 1.155v-2.31l-4-2.309v-4.619l-4-2.308-.001-4.62z" fill="none"/><path d="M20.908.535l2 1.154 2-1.154v2.309l2 1.154-2 1.155v4.619l-3.999 2.31V16.7l-4 2.31v2.31l-2-1.155-2 1.155v-2.31l-2-1.155 2-1.155v-4.618l4-2.31V5.153l4-2.31z" fill="none"/><path d="M28.909 7.462v2.31l2 1.154-2 1.155v2.31l-2-1.155-4 2.31-4-2.31-4 2.31-4-2.309-2 1.155v-2.31l-2-1.154 2-1.155v-2.31l2 1.155 4-2.31 4 2.31 4-2.31 4 2.309z" fill="none"/><path d="M13.218 10.927L16.063 6h5.69l2.847 4.927-2.845 4.928h-5.691zM28.908 15.462V14.39l.928.536zM27.837 17.318v1.072l-.928-.536zM20.91 21.319l-.001 1.072-.929-.536zM16.909 21.319v1.072l.929-.536z" fill="none"/><path d="M20.91 21.319l-.001 1.072-.929-.536zM24.909 21.319v1.072l.928-.536zM12.928 21.287v1.072l-.929-.536zM27.838 25.317v1.072l-.93-.535zM29.838 28.781l-.929.537v-1.073zM29.301 16.927l1.69 2.927h5.692l2.844-4.928L37.836 12l-1.69 2.927 2.846 4.927h5.69l1.692-2.929-3.383.002-2.845 4.927 2.846 4.928h3.382l-1.691-2.928h-5.691l-2.845 4.928 1.69 2.928 1.691-2.928-2.845-4.928-5.692.001-1.69 2.927h3.382l2.845-4.928-2.846-4.927z" fill="none"/><path d="M26.373 23.854h2.309l2.846 4.928-1.154 2h2.309l1.154 2 1.155-2h5.69l1.155 2 1.155-2h2.31l-1.155-2 2.845-4.929h2.31l-1.156-2 1.155-2h-2.31l-2.845-4.927 1.154-2h-2.309l-1.154-2-1.155 2H34.99l-1.154-2-1.155 2h-2.31l1.155 2-2.845 4.928h-2.31l1.155 2z" fill="none"/><path d="M29.836 14.926l2-1.155v-2.309l2 1.154 2-1.154v2.31l4 2.308.001 4.618 4 2.31v4.619l2 1.154-2 1.155v2.309l-2-1.155-2 1.155v-2.31l-4-2.308v-4.62l-4-2.308-.001-4.619z" fill="none"/><path d="M39.836 11.461l2 1.154 2-1.154v2.309l2 1.155-2 1.155v4.618l-3.999 2.31v4.618l-4 2.31v2.31l-2-1.155-1.999 1.155v-2.31l-2-1.155 2-1.154v-4.619l4-2.31-.002-4.618 4-2.31z" fill="none"/><path d="M47.837 18.389v2.309l2 1.154-2 1.155v2.31l-2-1.155-4 2.31-4-2.309-4 2.31-4-2.31-2 1.155V23.01l-2-1.154 2-1.155v-2.31l2 1.155 4-2.31 4 2.31 4-2.31 4 2.308z" fill="none"/><path d="M32.146 21.854l2.845-4.928h5.69l2.847 4.928-2.845 4.927h-5.691z" fill="none"/><path d="M39.836 11.461l2 1.154 2-1.154v2.309l2 1.155-2 1.155v4.618l-3.999 2.31v4.618l-4 2.31v2.31l-2-1.155-1.999 1.155v-2.31l-2-1.155 2-1.154v-4.619l4-2.31-.002-4.618 4-2.31zM10.374 27.856l1.69 2.927 5.692-.001 2.844-4.927-1.691-2.928-1.69 2.928 2.846 4.927h5.69l1.692-2.93-3.383.003-2.845 4.927 2.846 4.928h3.382l-1.691-2.928h-5.692L17.22 39.71l1.69 2.928 1.692-2.928-2.845-4.928h-5.692l-1.69 2.928h3.382l2.845-4.928-2.846-4.927z" fill="none"/><path d="M7.446 34.783h2.309L12.6 39.71l-1.154 2h2.309l1.154 2 1.155-2h5.69l1.155 2 1.155-2h2.31l-1.156-2 2.845-4.928h2.31l-1.155-2 1.155-2h-2.31l-2.846-4.927 1.155-2h-2.31l-1.154-2-1.154 2h-5.691l-1.155-2-1.154 2h-2.31l1.155 2-2.845 4.928h-2.31l1.155 2z" fill="none"/><path d="M10.91 25.855l1.999-1.155v-2.309l2 1.154 2-1.154v2.31l4 2.308v4.618l4 2.31.001 4.618 2 1.155-2 1.154v2.31l-2-1.155-2 1.155v-2.31l-4-2.309v-4.619l-4-2.308-.001-4.619z" fill="none"/><path d="M20.909 22.39l2 1.154 2-1.154v2.309l2 1.155-2 1.155v4.618l-3.999 2.31v4.618l-4 2.31v2.31l-2-1.155-2 1.155v-2.31l-2-1.155 2-1.155v-4.618l4-2.31V27.01l4-2.31z" fill="none"/><path d="M28.91 29.318v2.309l2 1.154-2 1.155v2.31l-2-1.155-4 2.31-4-2.309-4 2.31-4-2.31-2 1.155v-2.309l-2-1.154 2-1.155v-2.31l2 1.155 4-2.31 4 2.31 4-2.31 4 2.308z" fill="none"/><path d="M13.219 32.783l2.845-4.928h5.69l2.847 4.927-2.845 4.928h-5.691zM28.909 37.317v-1.072l.928.536zM27.838 39.173v1.072l-.928-.535zM-8.536 16.898l1.69 2.927h5.692l2.844-4.928-1.691-2.927-1.69 2.927 2.846 4.927h5.69l1.692-2.929-3.383.002-2.845 4.927 2.846 4.928h3.382l-1.691-2.928H1.154l-2.845 4.928L0 31.68l1.692-2.927-2.845-4.929-5.692.001-1.69 2.927h3.382l2.845-4.927-2.846-4.928z" fill="none"/><path d="M-11.464 23.825h2.309l2.846 4.928-1.154 2h2.309l1.154 2 1.155-2h5.69l1.155 2 1.155-2h2.31l-1.156-2 2.845-4.928h2.31l-1.155-2 1.155-2.001h-2.31l-2.846-4.927 1.155-2h-2.31l-1.154-2-1.154 2h-5.691l-1.155-2-1.154 2h-2.31l1.155 2-2.845 4.928h-2.31l1.155 2z" fill="none"/><path d="M-8 14.897l1.999-1.155v-2.308l2 1.154 2-1.155v2.31l4 2.308v4.619l4 2.309L6 27.598l2 1.154-2 1.155v2.31L4 31.06l-2 1.155v-2.31l-4-2.308v-4.62l-4-2.308-.001-4.619z" fill="none"/><path d="M1.999 11.432l2 1.155 2-1.155v2.31l2 1.154-2 1.155v4.618L2 22.98v4.619l-4 2.31v2.31l-2-1.156-2 1.155v-2.31l-2-1.154 2-1.155v-4.619l4-2.31v-4.618l4-2.31z" fill="none"/><path d="M10 18.36v2.309l2 1.154-2 1.155v2.31l-2-1.155-4 2.31-4-2.309-4 2.31-4-2.31-2 1.156v-2.31l-2-1.154 2-1.155v-2.31l2 1.155 4-2.31 4 2.31 4-2.31 4 2.309z" fill="none"/><path d="M-5.691 21.825l2.845-4.928h5.69l2.847 4.928-2.845 4.927h-5.691zM9.999 26.36v-1.072l.928.535zM8.928 28.216v1.072L8 28.752zM9.98 18.391V17.32l.93.536zM8.91 14.392l-.001 1.072-.929-.536zM29.301 16.927l1.69 2.927h5.692l2.844-4.928L37.836 12l-1.69 2.927 2.846 4.927h5.69l1.692-2.929-3.383.002-2.845 4.927 2.846 4.928h3.382l-1.691-2.928h-5.691l-2.845 4.928 1.69 2.928 1.691-2.928-2.845-4.928-5.692.001-1.69 2.927h3.382l2.845-4.928-2.846-4.927z" fill="none"/><path d="M26.373 23.854h2.309l2.846 4.928-1.154 2h2.309l1.154 2 1.155-2h5.69l1.155 2 1.155-2h2.31l-1.155-2 2.845-4.929h2.31l-1.156-2 1.155-2h-2.31l-2.845-4.927 1.154-2h-2.309l-1.154-2-1.155 2H34.99l-1.154-2-1.155 2h-2.31l1.155 2-2.845 4.928h-2.31l1.155 2z" fill="none"/><path d="M29.836 14.926l2-1.155v-2.309l2 1.154 2-1.154v2.31l4 2.308.001 4.618 4 2.31v4.619l2 1.154-2 1.155v2.309l-2-1.155-2 1.155v-2.31l-4-2.308v-4.62l-4-2.308-.001-4.619z" fill="none"/><path d="M39.836 11.461l2 1.154 2-1.154v2.309l2 1.155-2 1.155v4.618l-3.999 2.31v4.618l-4 2.31v2.31l-2-1.155-1.999 1.155v-2.31l-2-1.155 2-1.154v-4.619l4-2.31-.002-4.618 4-2.31z" fill="none"/><path d="M47.837 18.389v2.309l2 1.154-2 1.155v2.31l-2-1.155-4 2.31-4-2.309-4 2.31-4-2.31-2 1.155V23.01l-2-1.154 2-1.155v-2.31l2 1.155 4-2.31 4 2.31 4-2.31 4 2.308z" fill="none"/><path d="M32.146 21.854l2.845-4.928h5.69l2.847 4.928-2.845 4.927h-5.691z" fill="none"/><path d="M39.836 11.461l2 1.154 2-1.154v2.309l2 1.155-2 1.155v4.618l-3.999 2.31v4.618l-4 2.31v2.31l-2-1.155-1.999 1.155v-2.31l-2-1.155 2-1.154v-4.619l4-2.31-.002-4.618 4-2.31zM10.374 27.856l1.69 2.927 5.692-.001 2.844-4.927-1.691-2.928-1.69 2.928 2.846 4.927h5.69l1.692-2.93-3.383.003-2.845 4.927 2.846 4.928h3.382l-1.691-2.928h-5.692L17.22 39.71l1.69 2.928 1.692-2.928-2.845-4.928h-5.692l-1.69 2.928h3.382l2.845-4.928-2.846-4.927z" fill="none"/><path d="M7.446 34.783h2.309L12.6 39.71l-1.154 2h2.309l1.154 2 1.155-2h5.69l1.155 2 1.155-2h2.31l-1.156-2 2.845-4.928h2.31l-1.155-2 1.155-2h-2.31l-2.846-4.927 1.155-2h-2.31l-1.154-2-1.154 2h-5.691l-1.155-2-1.154 2h-2.31l1.155 2-2.845 4.928h-2.31l1.155 2z" fill="none"/><path d="M10.91 25.855l1.999-1.155v-2.309l2 1.154 2-1.154v2.31l4 2.308v4.618l4 2.31.001 4.618 2 1.155-2 1.154v2.31l-2-1.155-2 1.155v-2.31l-4-2.309v-4.619l-4-2.308-.001-4.619z" fill="none"/><path d="M20.909 22.39l2 1.154 2-1.154v2.309l2 1.155-2 1.155v4.618l-3.999 2.31v4.618l-4 2.31v2.31l-2-1.155-2 1.155v-2.31l-2-1.155 2-1.155v-4.618l4-2.31V27.01l4-2.31z" fill="none"/><path d="M28.91 29.318v2.309l2 1.154-2 1.155v2.31l-2-1.155-4 2.31-4-2.309-4 2.31-4-2.31-2 1.155v-2.309l-2-1.154 2-1.155v-2.31l2 1.155 4-2.31 4 2.31 4-2.31 4 2.308z" fill="none"/><path d="M13.219 32.783l2.845-4.928h5.69l2.847 4.927-2.845 4.928h-5.691zM28.909 37.317v-1.072l.928.536zM27.838 39.173v1.072l-.928-.535zM-8.536 16.898l1.69 2.927h5.692l2.844-4.928-1.691-2.927-1.69 2.927 2.846 4.927h5.69l1.692-2.929-3.383.002-2.845 4.927 2.846 4.928h3.382l-1.691-2.928H1.154l-2.845 4.928L0 31.68l1.692-2.927-2.845-4.929-5.692.001-1.69 2.927h3.382l2.845-4.927-2.846-4.928z" fill="none"/><path d="M-11.464 23.825h2.309l2.846 4.928-1.154 2h2.309l1.154 2 1.155-2h5.69l1.155 2 1.155-2h2.31l-1.156-2 2.845-4.928h2.31l-1.155-2 1.155-2.001h-2.31l-2.846-4.927 1.155-2h-2.31l-1.154-2-1.154 2h-5.691l-1.155-2-1.154 2h-2.31l1.155 2-2.845 4.928h-2.31l1.155 2z" fill="none"/><path d="M-8 14.897l1.999-1.155v-2.308l2 1.154 2-1.155v2.31l4 2.308v4.619l4 2.309L6 27.598l2 1.154-2 1.155v2.31L4 31.06l-2 1.155v-2.31l-4-2.308v-4.62l-4-2.308-.001-4.619z" fill="none"/><path d="M1.999 11.432l2 1.155 2-1.155v2.31l2 1.154-2 1.155v4.618L2 22.98v4.619l-4 2.31v2.31l-2-1.156-2 1.155v-2.31l-2-1.154 2-1.155v-4.619l4-2.31v-4.618l4-2.31z" fill="none"/><path d="M10 18.36v2.309l2 1.154-2 1.155v2.31l-2-1.155-4 2.31-4-2.309-4 2.31-4-2.31-2 1.156v-2.31l-2-1.154 2-1.155v-2.31l2 1.155 4-2.31 4 2.31 4-2.31 4 2.309z" fill="none"/><path d="M-5.691 21.825l2.845-4.928h5.69l2.847 4.928-2.845 4.927h-5.691zM9.999 26.36v-1.072l.928.535zM8.928 28.216v1.072L8 28.752zM9.98 18.391V17.32l.93.536zM8.91 14.392l-.001 1.072-.929-.536zM27.837-3.464v-1.072L26.91-4zM29.837-6.928l-.928-.536v1.072zM29.301 4.926l1.69-2.927L36.682 2l2.845 4.927-1.692 2.928-1.69-2.928L38.992 2h5.69l1.691 2.93-3.382-.003L40.146 0l2.846-4.928h3.382L44.682-2h-5.69l-2.846-4.928 1.69-2.928 1.692 2.928L36.682-2h-5.691L29.3-4.929h3.382L35.528 0l-2.846 4.927z" fill="none"/><path d="M26.373-2.001h2.309l2.846-4.927-1.154-2h2.309l1.154-2 1.155 2h5.69l1.155-2 1.155 2h2.31l-1.156 2L46.991-2h2.31l-1.155 2 1.155 2h-2.31l-2.846 4.927 1.155 2h-2.31l-1.154 2-1.154-2H34.99l-1.155 2-1.154-2h-2.31l1.155-2-2.845-4.928h-2.31l1.155-2z" fill="none"/><path d="M29.836 6.927l2 1.155v2.309l2-1.154 2 1.154v-2.31l4-2.308V1.155l4-2.31.001-4.618 2-1.155-2-1.154v-2.31l-2 1.155-2-1.155v2.31l-4 2.309v4.619l-4 2.308-.001 4.619z" fill="none"/><path d="M39.836 10.392l2-1.154 2 1.154V8.083l2-1.155-2-1.155V1.155l-3.999-2.31v-4.618l-4-2.31v-2.31l-2 1.155-2-1.155v2.31l-2 1.155 2 1.155v4.618l4 2.31v4.618l4 2.31z" fill="none"/><path d="M47.836 3.464V1.155l2-1.154-2-1.155v-2.31l-2 1.155-3.999-2.31-4 2.309-4-2.31-4 2.31-2-1.155v2.309l-2 1.154 2 1.155v2.31l2-1.155 4 2.31 4-2.31 4 2.31 4-2.308z" fill="none"/><path d="M32.145 0l2.846 4.927h5.69L43.529 0l-2.845-4.928h-5.691z" fill="none"/><path d="M39.836 10.392l2-1.154 2 1.154V8.083l2-1.155-2-1.155V1.155l-3.999-2.31v-4.618l-4-2.31v-2.31l-2 1.155-2-1.155v2.31l-2 1.155 2 1.155v4.618l4 2.31v4.618l4 2.31zM10.374-6.003l1.69-2.926h5.691L20.6-4.002l-1.692 2.928-1.69-2.927 2.846-4.928h5.691l1.691 2.93-3.383-.003-2.844-4.927 2.846-4.928h3.382l-1.692 2.928h-5.69l-2.846-4.928 1.69-2.928 1.692 2.928-2.846 4.928h-5.691l-1.69-2.928h3.381l2.846 4.928-2.846 4.927z" fill="none"/><path d="M7.446-12.93h2.309l2.846-4.927-1.154-2h2.308l1.155-2 1.154 2h5.691l1.155-2 1.154 2h2.31l-1.155 2 2.845 4.928h2.31l-1.155 2 1.155 2h-2.31L25.218-4l1.155 2h-2.31l-1.154 2-1.154-2h-5.691l-1.155 2-1.154-2h-2.31L12.6-4.003 9.755-8.93h-2.31l1.155-2z" fill="none"/><path d="M10.91-4.002l1.999 1.155v2.309l2-1.154 2 1.155v-2.31l4-2.309v-4.618l4-2.31v-4.618l2.001-1.155-2-1.154v-2.31l-2 1.155-2-1.155v2.31l-4 2.309v4.619l-4.001 2.308v4.62z" fill="none"/><path d="M20.909-.537l2-1.154 1.999 1.154v-2.309l2-1.154-2-1.155v-4.619l-3.998-2.31v-4.618l-4-2.31v-2.31l-2 1.155-2-1.155v2.31l-2 1.155 2 1.155v4.618l4 2.31v4.619l4 2.31z" fill="none"/><path d="M28.91-7.465v-2.309l1.999-1.154-2-1.155v-2.31l-2 1.155-4-2.31-4 2.309-3.999-2.31-4 2.31-2-1.155v2.309l-2 1.155 2 1.155v2.31l2-1.155 4 2.309 4-2.31 4 2.311 4-2.31z" fill="none"/><path d="M13.218-10.93l2.845 4.928h5.692l2.846-4.927-2.846-4.928h-5.69zM28.908-15.464v1.072l.93-.536zM27.838-17.32v-1.072l-.929.536zM-8.536 4.955l1.69-2.927h5.691L1.69 6.957-.002 9.883l-1.69-2.927L1.154 2.03h5.691l1.691 2.929-3.383-.002L2.31.029l2.845-4.928h3.383L6.845-1.97h-5.69L-1.692-6.9 0-9.827 1.691-6.9l-2.846 4.928-5.691-.001-1.69-2.927h3.381L-2.309.029l-2.847 4.927z" fill="none"/><path d="M-11.464-1.972h2.309L-6.31-6.9l-1.154-2h2.308l1.155-2 1.154 2h5.691L4-10.9l1.154 2h2.31l-1.155 2L9.154-1.97h2.31l-1.155 2 1.155 2h-2.31L6.308 6.956l1.155 2h-2.31l-1.154 2-1.155-2h-5.69l-1.155 2-1.155-2h-2.309l1.155-2-2.845-4.928h-2.31l1.155-2z" fill="none"/><path d="M-8.001 6.956l2 1.155v2.309l2-1.154 2 1.154V8.11l4-2.308V1.184l4-2.31v-4.619L8-6.899 6-8.054v-2.309L4-9.208l-2-1.155v2.31l-4 2.308v4.62l-4.001 2.308v4.619z" fill="none"/><path d="M1.999 10.421l2-1.154 1.999 1.154V8.112l2-1.155-2-1.155V1.184L2-1.126v-4.618l-4-2.31v-2.31l-2 1.155-2-1.155v2.31L-8-6.9l2 1.155v4.619l4 2.31-.001 4.618 4 2.31z" fill="none"/><path d="M10 3.493V1.184L11.998.03l-2-1.155v-2.31L8-2.28 4-4.59 0-2.28-4-4.591l-4 2.31-2-1.155v2.309l-2 1.154 2 1.155v2.31l2-1.155 4 2.31 4-2.31 4 2.31L8 2.34z" fill="none"/><path d="M-5.692.028l2.845 4.928h5.691L5.691.028 2.845-4.899h-5.69zM9.998-4.507v1.072l.93-.535zM8.928-6.362v-1.073L8-6.899zM9.98 3.462v1.072l.93-.536zM8.909 7.461V6.39l-.929.536zM29.301 4.926l1.69-2.927L36.682 2l2.845 4.927-1.692 2.928-1.69-2.928L38.992 2h5.69l1.691 2.93-3.382-.003L40.146 0l2.846-4.928h3.382L44.682-2h-5.69l-2.846-4.928 1.69-2.928 1.692 2.928L36.682-2h-5.691L29.3-4.929h3.382L35.528 0l-2.846 4.927z" fill="none"/><path d="M26.373-2.001h2.309l2.846-4.927-1.154-2h2.309l1.154-2 1.155 2h5.69l1.155-2 1.155 2h2.31l-1.156 2L46.991-2h2.31l-1.155 2 1.155 2h-2.31l-2.846 4.927 1.155 2h-2.31l-1.154 2-1.154-2H34.99l-1.155 2-1.154-2h-2.31l1.155-2-2.845-4.928h-2.31l1.155-2z" fill="none"/><path d="M29.836 6.927l2 1.155v2.309l2-1.154 2 1.154v-2.31l4-2.308V1.155l4-2.31.001-4.618 2-1.155-2-1.154v-2.31l-2 1.155-2-1.155v2.31l-4 2.309v4.619l-4 2.308-.001 4.619z" fill="none"/><path d="M39.836 10.392l2-1.154 2 1.154V8.083l2-1.155-2-1.155V1.155l-3.999-2.31v-4.618l-4-2.31v-2.31l-2 1.155-2-1.155v2.31l-2 1.155 2 1.155v4.618l4 2.31v4.618l4 2.31z" fill="none"/><path d="M47.836 3.464V1.155l2-1.154-2-1.155v-2.31l-2 1.155-3.999-2.31-4 2.309-4-2.31-4 2.31-2-1.155v2.309l-2 1.154 2 1.155v2.31l2-1.155 4 2.31 4-2.31 4 2.31 4-2.308z" fill="none"/><path d="M32.145 0l2.846 4.927h5.69L43.529 0l-2.845-4.928h-5.691z" fill="none"/><path d="M39.836 10.392l2-1.154 2 1.154V8.083l2-1.155-2-1.155V1.155l-3.999-2.31v-4.618l-4-2.31v-2.31l-2 1.155-2-1.155v2.31l-2 1.155 2 1.155v4.618l4 2.31v4.618l4 2.31zM10.374-6.003l1.69-2.926h5.691L20.6-4.002l-1.692 2.928-1.69-2.927 2.846-4.928h5.691l1.691 2.93-3.383-.003-2.844-4.927 2.846-4.928h3.382l-1.692 2.928h-5.69l-2.846-4.928 1.69-2.928 1.692 2.928-2.846 4.928h-5.691l-1.69-2.928h3.381l2.846 4.928-2.846 4.927z" fill="none"/><path d="M7.446-12.93h2.309l2.846-4.927-1.154-2h2.308l1.155-2 1.154 2h5.691l1.155-2 1.154 2h2.31l-1.155 2 2.845 4.928h2.31l-1.155 2 1.155 2h-2.31L25.218-4l1.155 2h-2.31l-1.154 2-1.154-2h-5.691l-1.155 2-1.154-2h-2.31L12.6-4.003 9.755-8.93h-2.31l1.155-2z" fill="none"/><path d="M10.91-4.002l1.999 1.155v2.309l2-1.154 2 1.155v-2.31l4-2.309v-4.618l4-2.31v-4.618l2.001-1.155-2-1.154v-2.31l-2 1.155-2-1.155v2.31l-4 2.309v4.619l-4.001 2.308v4.62z" fill="none"/><path d="M20.909-.537l2-1.154 1.999 1.154v-2.309l2-1.154-2-1.155v-4.619l-3.998-2.31v-4.618l-4-2.31v-2.31l-2 1.155-2-1.155v2.31l-2 1.155 2 1.155v4.618l4 2.31v4.619l4 2.31z" fill="none"/><path d="M28.91-7.465v-2.309l1.999-1.154-2-1.155v-2.31l-2 1.155-4-2.31-4 2.309-3.999-2.31-4 2.31-2-1.155v2.309l-2 1.155 2 1.155v2.31l2-1.155 4 2.309 4-2.31 4 2.311 4-2.31z" fill="none"/><path d="M13.218-10.93l2.845 4.928h5.692l2.846-4.927-2.846-4.928h-5.69zM28.908-15.464v1.072l.93-.536zM27.838-17.32v-1.072l-.929.536zM-8.536 4.955l1.69-2.927h5.691L1.69 6.957-.002 9.883l-1.69-2.927L1.154 2.03h5.691l1.691 2.929-3.383-.002L2.31.029l2.845-4.928h3.383L6.845-1.97h-5.69L-1.692-6.9 0-9.827 1.691-6.9l-2.846 4.928-5.691-.001-1.69-2.927h3.381L-2.309.029l-2.847 4.927z" fill="none"/><path d="M-11.464-1.972h2.309L-6.31-6.9l-1.154-2h2.308l1.155-2 1.154 2h5.691L4-10.9l1.154 2h2.31l-1.155 2L9.154-1.97h2.31l-1.155 2 1.155 2h-2.31L6.308 6.956l1.155 2h-2.31l-1.154 2-1.155-2h-5.69l-1.155 2-1.155-2h-2.309l1.155-2-2.845-4.928h-2.31l1.155-2z" fill="none"/><path d="M-8.001 6.956l2 1.155v2.309l2-1.154 2 1.154V8.11l4-2.308V1.184l4-2.31v-4.619L8-6.899 6-8.054v-2.309L4-9.208l-2-1.155v2.31l-4 2.308v4.62l-4.001 2.308v4.619z" fill="none"/><path d="M1.999 10.421l2-1.154 1.999 1.154V8.112l2-1.155-2-1.155V1.184L2-1.126v-4.618l-4-2.31v-2.31l-2 1.155-2-1.155v2.31L-8-6.9l2 1.155v4.619l4 2.31-.001 4.618 4 2.31z" fill="none"/><path d="M10 3.493V1.184L11.998.03l-2-1.155v-2.31L8-2.28 4-4.59 0-2.28-4-4.591l-4 2.31-2-1.155v2.309l-2 1.154 2 1.155v2.31l2-1.155 4 2.31 4-2.31 4 2.31L8 2.34z" fill="none"/><path d="M-5.692.028l2.845 4.928h5.691L5.691.028 2.845-4.899h-5.69zM9.998-4.507v1.072l.93-.535zM8.928-6.362v-1.073L8-6.899zM9.98 3.462v1.072l.93-.536zM8.909 7.461V6.39l-.929.536z" fill="none"/></g></svg>