<?xml version="1.0" encoding="UTF-8" standalone="no"?>
<svg
   xmlns:dc="http://purl.org/dc/elements/1.1/"
   xmlns:cc="http://creativecommons.org/ns#"
   xmlns:rdf="http://www.w3.org/1999/02/22-rdf-syntax-ns#"
   xmlns:svg="http://www.w3.org/2000/svg"
   xmlns="http://www.w3.org/2000/svg"
   xmlns:sodipodi="http://sodipodi.sourceforge.net/DTD/sodipodi-0.dtd"
   xmlns:inkscape="http://www.inkscape.org/namespaces/inkscape"
   width="38.115116mm"
   height="22.224152mm"
   viewBox="0 0 38.115116 22.224152"
   version="1.1"
   id="svg15211"
   inkscape:version="1.0beta2 (235953b, 2020-02-06)"
   sodipodi:docname="starring.svg">
  <defs
     id="defs15205" />
  <sodipodi:namedview
     fit-margin-bottom="0"
     fit-margin-right="0"
     fit-margin-left="0"
     fit-margin-top="0"
     inkscape:snap-intersection-paths="true"
     id="base"
     pagecolor="#ffffff"
     bordercolor="#666666"
     borderopacity="1.0"
     inkscape:pageopacity="0.0"
     inkscape:pageshadow="2"
     inkscape:zoom="3.959798"
     inkscape:cx="78.410398"
     inkscape:cy="56.245031"
     inkscape:document-units="mm"
     inkscape:current-layer="layer1"
     inkscape:document-rotation="0"
     showgrid="false"
     inkscape:window-width="1848"
     inkscape:window-height="1057"
     inkscape:window-x="-8"
     inkscape:window-y="-8"
     inkscape:window-maximized="1" />
  <metadata
     id="metadata15208">
    <rdf:RDF>
      <cc:Work
         rdf:about="">
        <dc:format>image/svg+xml</dc:format>
        <dc:type
           rdf:resource="http://purl.org/dc/dcmitype/StillImage" />
        <dc:title></dc:title>
      </cc:Work>
    </rdf:RDF>
  </metadata>
  <g
     transform="translate(-82.858823,-84.576323)"
     inkscape:label="Layer 1"
     inkscape:groupmode="layer"
     id="layer1">
    <g
       style="fill:#729fcf;stroke:#3465a4"
       transform="translate(47.109832,-28.382308)"
       id="g1493">
      <path
         inkscape:connector-curvature="0"
         d="m 47.879165,134.99959 -2.000912,-1.15652 5.29e-4,-3.37913 2.92747,1.68982 -5.29e-4,2.30942 0.0016,-0.001 1.99781,-1.15342 2.924886,1.6893 -5.849772,-5e-4 z"
         style="fill:#729fcf;stroke:#3465a4;stroke-width:0.264583px;stroke-linecap:butt;stroke-linejoin:miter;stroke-opacity:1"
         id="path3904" />
      <g
         id="g4224"
         transform="translate(13.902076,1.7976596)"
         style="fill:#729fcf;stroke:#3465a4">
        <path
           inkscape:connector-curvature="0"
           id="path4210"
           d="m 27.980541,122.81105 2.92763,-1.69245 -5.03e-4,-3.37942 -2.927644,1.69003 z"
           style="fill:#729fcf;stroke:#3465a4;stroke-width:0.264583px;stroke-linecap:butt;stroke-linejoin:miter;stroke-opacity:1" />
        <path
           inkscape:connector-curvature="0"
           id="path4212"
           d="m 30.907671,118.80988 -2e-5,-1.0707 -0.92757,0.53521 z"
           style="fill:#729fcf;stroke:#3465a4;stroke-width:0.264583px;stroke-linecap:butt;stroke-linejoin:miter;stroke-opacity:1" />
        <path
           style="fill:#729fcf;stroke:#3465a4;stroke-width:0.264583px;stroke-linecap:butt;stroke-linejoin:miter;stroke-opacity:1"
           d="m 28.910151,122.27285 -2.92952,-1.68918 -2.9264,1.69016 2.92743,1.69039 z"
           id="path4214"
           inkscape:connector-curvature="0" />
        <path
           inkscape:connector-curvature="0"
           id="path4216"
           d="m 30.910871,126.80919 -0.002,-3.38163 -2.926915,-1.68926 -2.09e-4,3.38043 z"
           style="fill:#729fcf;stroke:#3465a4;stroke-width:0.264583px;stroke-linecap:butt;stroke-linejoin:miter;stroke-opacity:1" />
        <path
           style="fill:#729fcf;stroke:#3465a4;stroke-width:0.264583px;stroke-linecap:butt;stroke-linejoin:miter;stroke-opacity:1"
           d="m 30.908771,125.73818 -2e-5,1.0707 -0.92757,-0.53521 z"
           id="path4218"
           inkscape:connector-curvature="0" />
        <path
           style="fill:#729fcf;stroke:#3465a4;stroke-width:0.264583px;stroke-linecap:butt;stroke-linejoin:miter;stroke-opacity:1"
           d="m 23.982121,121.73911 -0.92724,0.53537 0.92729,0.53569 z"
           id="path4220"
           inkscape:connector-curvature="0" />
        <path
           inkscape:connector-curvature="0"
           id="path4222"
           d="m 27.982231,121.73981 0.92724,0.53537 -0.92729,0.53569 z"
           style="fill:#729fcf;stroke:#3465a4;stroke-width:0.264583px;stroke-linecap:butt;stroke-linejoin:miter;stroke-opacity:1" />
      </g>
      <path
         inkscape:connector-curvature="0"
         id="path4226"
         d="m 67.730475,124.60758 -2.927627,-1.69245 5.29e-4,-3.37942 2.927643,1.69003 z"
         style="fill:#729fcf;stroke:#3465a4;stroke-width:0.264583px;stroke-linecap:butt;stroke-linejoin:miter;stroke-opacity:1" />
      <path
         inkscape:connector-curvature="0"
         id="path4228"
         d="m 64.803345,120.60641 2.1e-5,-1.0707 0.927571,0.53521 z"
         style="fill:#729fcf;stroke:#3465a4;stroke-width:0.264583px;stroke-linecap:butt;stroke-linejoin:miter;stroke-opacity:1" />
      <path
         style="fill:#729fcf;stroke:#3465a4;stroke-width:0.264583px;stroke-linecap:butt;stroke-linejoin:miter;stroke-opacity:1"
         d="m 66.800867,124.06938 2.92952,-1.68918 2.9264,1.69016 -2.927429,1.69039 z"
         id="path4230"
         inkscape:connector-curvature="0" />
      <path
         inkscape:connector-curvature="0"
         id="path4232"
         d="m 64.800146,128.60572 0.0021,-3.38163 2.926916,-1.68926 2.09e-4,3.38043 z"
         style="fill:#729fcf;stroke:#3465a4;stroke-width:0.264583px;stroke-linecap:butt;stroke-linejoin:miter;stroke-opacity:1" />
      <path
         style="fill:#729fcf;stroke:#3465a4;stroke-width:0.264583px;stroke-linecap:butt;stroke-linejoin:miter;stroke-opacity:1"
         d="m 64.802247,127.53471 1.9e-5,1.0707 0.92757,-0.53521 z"
         id="path4234"
         inkscape:connector-curvature="0" />
      <path
         inkscape:connector-curvature="0"
         id="path4236"
         d="m 67.728787,123.53634 -0.92724,0.53537 0.927291,0.53569 z"
         style="fill:#729fcf;stroke:#3465a4;stroke-width:0.264583px;stroke-linecap:butt;stroke-linejoin:miter;stroke-opacity:1" />
      <g
         id="g4244"
         transform="rotate(-90,25.111253,100.35467)"
         style="fill:#729fcf;stroke:#3465a4">
        <path
           inkscape:connector-curvature="0"
           id="path4238"
           d="m 3.39387,113.12532 -3.99999,-8e-5 4e-5,-2.0001 3.999745,7e-5 z"
           style="fill:#729fcf;stroke:#3465a4;stroke-width:0.264583px;stroke-linecap:butt;stroke-linejoin:miter;stroke-opacity:1"
           sodipodi:nodetypes="ccccc" />
        <path
           inkscape:connector-curvature="0"
           d="m -0.60607961,111.12514 5.2917e-4,0.53795 0.92707512,-0.53537 -0.004651,-0.003 z"
           style="fill:#729fcf;stroke:#3465a4;stroke-width:0.264583px;stroke-linecap:butt;stroke-linejoin:miter;stroke-opacity:1"
           id="path4240" />
        <path
           id="path4242"
           style="fill:#729fcf;stroke:#3465a4;stroke-width:0.264583px;stroke-linecap:butt;stroke-linejoin:miter;stroke-opacity:1"
           d="m 3.3936646,111.12521 -5.292e-4,0.53795 -0.9270751,-0.53537 0.00465,-0.003 z"
           inkscape:connector-curvature="0" />
      </g>
      <g
         id="g4256"
         transform="translate(54.337117,1.4805596)"
         style="fill:#729fcf;stroke:#3465a4">
        <path
           style="fill:#729fcf;stroke:#3465a4;stroke-width:0.264583px;stroke-linecap:butt;stroke-linejoin:miter;stroke-opacity:1"
           d="m -6.26121,116.39534 -2.00006,3.46406 -3.46424,-2.00017 1.99981,-3.46364 z"
           id="path4246"
           inkscape:connector-curvature="0" />
        <path
           style="fill:#729fcf;stroke:#3465a4;stroke-width:0.264583px;stroke-linecap:butt;stroke-linejoin:miter;stroke-opacity:1"
           d="m -7.52747,118.58986 -0.53533,-0.92725 1.0709,-2.9e-4 z"
           id="path4248"
           inkscape:connector-curvature="0" />
        <path
           inkscape:connector-curvature="0"
           id="path4250"
           d="m -9.52737,119.12698 -2e-5,-1.0707 -0.92757,0.53521 z"
           style="fill:#729fcf;stroke:#3465a4;stroke-width:0.264583px;stroke-linecap:butt;stroke-linejoin:miter;stroke-opacity:1" />
        <path
           inkscape:connector-curvature="0"
           id="path4252"
           d="m -10.45767,115.66336 0.53533,0.92725 -1.070898,2.9e-4 z"
           style="fill:#729fcf;stroke:#3465a4;stroke-width:0.264583px;stroke-linecap:butt;stroke-linejoin:miter;stroke-opacity:1" />
        <path
           style="fill:#729fcf;stroke:#3465a4;stroke-width:0.264583px;stroke-linecap:butt;stroke-linejoin:miter;stroke-opacity:1"
           d="m -7.52969,115.66178 -0.92726,0.53532 -2.91e-4,-1.0709 z"
           id="path4254"
           inkscape:connector-curvature="0" />
      </g>
      <path
         inkscape:connector-curvature="0"
         id="path4258"
         d="m 56.805545,115.14104 -3.99999,-8e-5 4e-5,-2.0001 3.999745,7e-5 z"
         style="fill:#729fcf;stroke:#3465a4;stroke-width:0.264583px;stroke-linecap:butt;stroke-linejoin:miter;stroke-opacity:1"
         sodipodi:nodetypes="ccccc" />
      <path
         inkscape:connector-curvature="0"
         d="m 47.88238,113.14185 -2.000912,1.15652 5.29e-4,3.37913 2.92747,-1.68982 -5.29e-4,-2.30942 0.0016,0.001 1.99781,1.15342 2.924885,-1.6893 -5.849772,5.1e-4 z"
         style="fill:#729fcf;stroke:#3465a4;stroke-width:0.264583px;stroke-linecap:butt;stroke-linejoin:miter;stroke-opacity:1"
         id="path4260" />
      <path
         inkscape:connector-curvature="0"
         id="path4262"
         d="m 46.807427,117.14234 -0.92726,0.53532 -2.91e-4,-1.0709 z"
         style="fill:#729fcf;stroke:#3465a4;stroke-width:0.264583px;stroke-linecap:butt;stroke-linejoin:miter;stroke-opacity:1" />
      <path
         inkscape:connector-curvature="0"
         d="m 52.805595,113.14086 5.29e-4,0.53795 0.927076,-0.53537 -0.0047,-0.003 z"
         style="fill:#729fcf;stroke:#3465a4;stroke-width:0.264583px;stroke-linecap:butt;stroke-linejoin:miter;stroke-opacity:1"
         id="path4264" />
      <path
         id="path4266"
         style="fill:#729fcf;stroke:#3465a4;stroke-width:0.264583px;stroke-linecap:butt;stroke-linejoin:miter;stroke-opacity:1"
         d="m 61.728555,113.14192 2.000912,1.15652 -5.29e-4,3.37913 -2.927471,-1.68982 5.29e-4,-2.30942 -0.0016,10e-4 -1.99781,1.15342 -2.924886,-1.6893 5.849772,5.1e-4 z"
         inkscape:connector-curvature="0" />
      <path
         style="fill:#729fcf;stroke:#3465a4;stroke-width:0.264583px;stroke-linecap:butt;stroke-linejoin:miter;stroke-opacity:1"
         d="m 62.803508,117.14241 0.927261,0.53532 2.65e-4,-1.0709 z"
         id="path4268"
         inkscape:connector-curvature="0" />
      <path
         id="path4270"
         style="fill:#729fcf;stroke:#3465a4;stroke-width:0.264583px;stroke-linecap:butt;stroke-linejoin:miter;stroke-opacity:1"
         d="m 56.80534,113.14093 -5.29e-4,0.53795 -0.927075,-0.53537 0.0046,-0.003 z"
         inkscape:connector-curvature="0" />
      <path
         inkscape:connector-curvature="0"
         id="path4272"
         d="m 37.883547,123.53612 -0.92724,0.53537 0.92729,0.53569 z"
         style="fill:#729fcf;stroke:#3465a4;stroke-width:0.264583px;stroke-linecap:butt;stroke-linejoin:miter;stroke-opacity:1" />
      <path
         style="fill:#729fcf;stroke:#3465a4;stroke-width:0.264583px;stroke-linecap:butt;stroke-linejoin:miter;stroke-opacity:1"
         d="m 66.997222,119.33903 -3.464134,1.99994 -2.000034,-3.46432 3.463707,-1.9997 z"
         id="path4274"
         inkscape:connector-curvature="0" />
      <path
         inkscape:connector-curvature="0"
         id="path4280"
         d="m 63.72897,116.60689 -1.6e-5,1.07069 -0.927568,-0.5352 z"
         style="fill:#729fcf;stroke:#3465a4;stroke-width:0.264583px;stroke-linecap:butt;stroke-linejoin:miter;stroke-opacity:1" />
      <g
         id="g4320"
         transform="matrix(1,0,0,-1,53.40846,246.12572)"
         style="fill:#729fcf;stroke:#3465a4">
        <g
           id="g4296"
           transform="translate(0.925442,-0.5351618)"
           style="fill:#729fcf;stroke:#3465a4">
          <path
             style="fill:#729fcf;stroke:#3465a4;stroke-width:0.264583px;stroke-linecap:butt;stroke-linejoin:miter;stroke-opacity:1"
             d="m -6.26121,116.39534 -2.00006,3.46406 -3.46424,-2.00017 1.99981,-3.46364 z"
             id="path4286"
             inkscape:connector-curvature="0" />
          <path
             style="fill:#729fcf;stroke:#3465a4;stroke-width:0.264583px;stroke-linecap:butt;stroke-linejoin:miter;stroke-opacity:1"
             d="m -7.52747,118.58986 -0.53533,-0.92725 1.0709,-2.9e-4 z"
             id="path4288"
             inkscape:connector-curvature="0" />
          <path
             inkscape:connector-curvature="0"
             id="path4290"
             d="m -9.52737,119.12698 -2e-5,-1.0707 -0.92757,0.53521 z"
             style="fill:#729fcf;stroke:#3465a4;stroke-width:0.264583px;stroke-linecap:butt;stroke-linejoin:miter;stroke-opacity:1" />
          <path
             inkscape:connector-curvature="0"
             id="path4292"
             d="m -10.45767,115.66336 0.53533,0.92725 -1.070898,2.9e-4 z"
             style="fill:#729fcf;stroke:#3465a4;stroke-width:0.264583px;stroke-linecap:butt;stroke-linejoin:miter;stroke-opacity:1" />
          <path
             style="fill:#729fcf;stroke:#3465a4;stroke-width:0.264583px;stroke-linecap:butt;stroke-linejoin:miter;stroke-opacity:1"
             d="m -7.52969,115.66178 -0.92726,0.53532 -2.91e-4,-1.0709 z"
             id="path4294"
             inkscape:connector-curvature="0" />
        </g>
        <path
           inkscape:connector-curvature="0"
           id="path4298"
           d="m 3.39387,113.12532 -3.99999,-8e-5 4e-5,-2.0001 3.999745,7e-5 z"
           style="fill:#729fcf;stroke:#3465a4;stroke-width:0.264583px;stroke-linecap:butt;stroke-linejoin:miter;stroke-opacity:1"
           sodipodi:nodetypes="ccccc" />
        <path
           inkscape:connector-curvature="0"
           d="m -5.529295,111.12613 -2.000912,1.15652 5.17e-4,3.37913 2.92747,-1.68982 -5.17e-4,-2.30942 0.0016,10e-4 1.99781,1.15342 2.924886,-1.6893 -5.849772,5.1e-4 z"
           style="fill:#729fcf;stroke:#3465a4;stroke-width:0.264583px;stroke-linecap:butt;stroke-linejoin:miter;stroke-opacity:1"
           id="path4300" />
        <path
           inkscape:connector-curvature="0"
           d="m -0.60607961,111.12514 5.2917e-4,0.53795 0.92707512,-0.53537 -0.004651,-0.003 z"
           style="fill:#729fcf;stroke:#3465a4;stroke-width:0.264583px;stroke-linecap:butt;stroke-linejoin:miter;stroke-opacity:1"
           id="path4302" />
        <path
           id="path4304"
           style="fill:#729fcf;stroke:#3465a4;stroke-width:0.264583px;stroke-linecap:butt;stroke-linejoin:miter;stroke-opacity:1"
           d="m 8.31688,111.1262 2.000912,1.15652 -5.17e-4,3.37913 -2.92747,-1.68982 5.17e-4,-2.30942 -0.0016,0.001 -1.99781,1.15342 -2.924886,-1.6893 5.849772,5.1e-4 z"
           inkscape:connector-curvature="0" />
        <path
           id="path4306"
           style="fill:#729fcf;stroke:#3465a4;stroke-width:0.264583px;stroke-linecap:butt;stroke-linejoin:miter;stroke-opacity:1"
           d="m 3.3936646,111.12521 -5.292e-4,0.53795 -0.9270751,-0.53537 0.00465,-0.003 z"
           inkscape:connector-curvature="0" />
        <g
           transform="rotate(30,1.9305584,153.89387)"
           id="g4318"
           style="fill:#729fcf;stroke:#3465a4">
          <path
             inkscape:connector-curvature="0"
             id="path4308"
             d="m -6.26121,116.39534 -2.00006,3.46406 -3.46424,-2.00017 1.99981,-3.46364 z"
             style="fill:#729fcf;stroke:#3465a4;stroke-width:0.264583px;stroke-linecap:butt;stroke-linejoin:miter;stroke-opacity:1" />
          <path
             inkscape:connector-curvature="0"
             id="path4310"
             d="m -7.52747,118.58986 -0.53533,-0.92725 1.0709,-2.9e-4 z"
             style="fill:#729fcf;stroke:#3465a4;stroke-width:0.264583px;stroke-linecap:butt;stroke-linejoin:miter;stroke-opacity:1" />
          <path
             style="fill:#729fcf;stroke:#3465a4;stroke-width:0.264583px;stroke-linecap:butt;stroke-linejoin:miter;stroke-opacity:1"
             d="m -9.52737,119.12698 -2e-5,-1.0707 -0.92757,0.53521 z"
             id="path4312"
             inkscape:connector-curvature="0" />
          <path
             style="fill:#729fcf;stroke:#3465a4;stroke-width:0.264583px;stroke-linecap:butt;stroke-linejoin:miter;stroke-opacity:1"
             d="m -10.45767,115.66336 0.53533,0.92725 -1.070898,2.9e-4 z"
             id="path4314"
             inkscape:connector-curvature="0" />
          <path
             inkscape:connector-curvature="0"
             id="path4316"
             d="m -7.52969,115.66178 -0.92726,0.53532 -2.91e-4,-1.0709 z"
             style="fill:#729fcf;stroke:#3465a4;stroke-width:0.264583px;stroke-linecap:butt;stroke-linejoin:miter;stroke-opacity:1" />
        </g>
      </g>
      <path
         inkscape:connector-curvature="0"
         id="path3803"
         d="m 41.882617,124.60871 2.92763,-1.69245 -5.03e-4,-3.37942 -2.927644,1.69003 z"
         style="fill:#729fcf;stroke:#3465a4;stroke-width:0.264583px;stroke-linecap:butt;stroke-linejoin:miter;stroke-opacity:1" />
      <path
         inkscape:connector-curvature="0"
         id="path3805"
         d="m 44.809747,120.60754 -2e-5,-1.0707 -0.92757,0.53521 z"
         style="fill:#729fcf;stroke:#3465a4;stroke-width:0.264583px;stroke-linecap:butt;stroke-linejoin:miter;stroke-opacity:1" />
      <path
         inkscape:connector-curvature="0"
         id="path3809"
         d="m 44.812947,128.60685 -0.002,-3.38163 -2.926915,-1.68926 -2.09e-4,3.38043 z"
         style="fill:#729fcf;stroke:#3465a4;stroke-width:0.264583px;stroke-linecap:butt;stroke-linejoin:miter;stroke-opacity:1" />
      <path
         style="fill:#729fcf;stroke:#3465a4;stroke-width:0.264583px;stroke-linecap:butt;stroke-linejoin:miter;stroke-opacity:1"
         d="m 44.810847,127.53584 -2e-5,1.0707 -0.92757,-0.53521 z"
         id="path3811"
         inkscape:connector-curvature="0" />
      <path
         style="fill:#729fcf;stroke:#3465a4;stroke-width:0.264583px;stroke-linecap:butt;stroke-linejoin:miter;stroke-opacity:1"
         d="m 37.884197,123.53677 -0.92724,0.53537 0.92729,0.53569 z"
         id="path3813"
         inkscape:connector-curvature="0" />
      <path
         inkscape:connector-curvature="0"
         id="path3815"
         d="m 41.884307,123.53747 0.92724,0.53537 -0.92729,0.53569 z"
         style="fill:#729fcf;stroke:#3465a4;stroke-width:0.264583px;stroke-linecap:butt;stroke-linejoin:miter;stroke-opacity:1" />
      <path
         inkscape:connector-curvature="0"
         id="path3856"
         d="m 64.802247,127.53471 1.9e-5,1.0707 0.92757,-0.53521 z"
         style="fill:#729fcf;stroke:#3465a4;stroke-width:0.264583px;stroke-linecap:butt;stroke-linejoin:miter;stroke-opacity:1" />
      <path
         style="fill:#729fcf;stroke:#3465a4;stroke-width:0.264583px;stroke-linecap:butt;stroke-linejoin:miter;stroke-opacity:1"
         d="m 67.728787,123.53634 -0.92724,0.53537 0.927291,0.53569 z"
         id="path3860"
         inkscape:connector-curvature="0" />
      <path
         inkscape:connector-curvature="0"
         id="path3878"
         d="m 37.881899,122.07206 -8e-5,3.99999 -2.0001,-4e-5 7e-5,-3.99975 z"
         style="fill:#729fcf;stroke:#3465a4;stroke-width:0.264583px;stroke-linecap:butt;stroke-linejoin:miter;stroke-opacity:1"
         sodipodi:nodetypes="ccccc" />
      <path
         style="fill:#729fcf;stroke:#3465a4;stroke-width:0.264583px;stroke-linecap:butt;stroke-linejoin:miter;stroke-opacity:1"
         d="m 48.075907,117.8759 -2.00006,3.46406 -3.46424,-2.00017 1.99981,-3.46364 z"
         id="path3774"
         inkscape:connector-curvature="0" />
      <path
         style="fill:#729fcf;stroke:#3465a4;stroke-width:0.264583px;stroke-linecap:butt;stroke-linejoin:miter;stroke-opacity:1"
         d="m 46.807427,117.14234 -0.92726,0.53532 -2.91e-4,-1.0709 z"
         id="path3782"
         inkscape:connector-curvature="0" />
      <path
         sodipodi:nodetypes="ccccc"
         style="fill:#729fcf;stroke:#3465a4;stroke-width:0.264583px;stroke-linecap:butt;stroke-linejoin:miter;stroke-opacity:1"
         d="m 56.805545,115.14104 -3.99999,-8e-5 4e-5,-2.0001 3.999745,7e-5 z"
         id="path3724"
         inkscape:connector-curvature="0" />
      <path
         id="path3697"
         style="fill:#729fcf;stroke:#3465a4;stroke-width:0.264583px;stroke-linecap:butt;stroke-linejoin:miter;stroke-opacity:1"
         d="m 47.88238,113.14185 -2.000912,1.15652 5.29e-4,3.37913 2.92747,-1.68982 -5.29e-4,-2.30942 0.0016,0.001 1.99781,1.15342 2.924885,-1.6893 -5.849772,5.1e-4 z"
         inkscape:connector-curvature="0" />
      <path
         inkscape:connector-curvature="0"
         id="path3889"
         d="m 48.072692,130.26554 -2.00006,-3.46406 -3.46424,2.00017 1.99981,3.46364 z"
         style="fill:#729fcf;stroke:#3465a4;stroke-width:0.264583px;stroke-linecap:butt;stroke-linejoin:miter;stroke-opacity:1" />
      <path
         id="path3908"
         style="fill:#729fcf;stroke:#3465a4;stroke-width:0.264583px;stroke-linecap:butt;stroke-linejoin:miter;stroke-opacity:1"
         d="m 61.72534,134.99952 2.000913,-1.15652 -5.29e-4,-3.37913 -2.927469,1.68982 5.29e-4,2.30942 -0.0016,-0.001 -1.99781,-1.15342 -2.924886,1.6893 5.849773,-5e-4 z"
         inkscape:connector-curvature="0" />
      <path
         style="fill:#729fcf;stroke:#3465a4;stroke-width:0.264583px;stroke-linecap:butt;stroke-linejoin:miter;stroke-opacity:1"
         d="m 66.994,128.80241 -3.464134,-1.99993 -2.000034,3.46432 3.463706,1.99969 z"
         id="path3912"
         inkscape:connector-curvature="0" />
      <g
         id="g4975"
         transform="matrix(-1,0,0,1,145.71944,11.14709)"
         style="fill:#729fcf;stroke:#3465a4">
        <path
           inkscape:connector-curvature="0"
           id="path4948"
           d="m 73.988897,110.92449 -8e-5,3.99999 -2.0001,-4e-5 7e-5,-3.99975 z"
           style="fill:#729fcf;stroke:#3465a4;stroke-width:0.264583px;stroke-linecap:butt;stroke-linejoin:miter;stroke-opacity:1"
           sodipodi:nodetypes="ccccc" />
        <path
           sodipodi:nodetypes="ccccc"
           style="fill:#729fcf;stroke:#3465a4;stroke-width:0.264583px;stroke-linecap:butt;stroke-linejoin:miter;stroke-opacity:1"
           d="m 73.988897,110.92449 -8e-5,3.99999 -2.0001,-4e-5 7e-5,-3.99975 z"
           id="path4936"
           inkscape:connector-curvature="0" />
        <path
           id="path4938"
           style="fill:#729fcf;stroke:#3465a4;stroke-width:0.264583px;stroke-linecap:butt;stroke-linejoin:miter;stroke-opacity:1"
           d="m 71.988717,114.92444 0.53795,-5.3e-4 -0.53537,-0.92708 -0.003,0.005 z"
           inkscape:connector-curvature="0" />
        <path
           inkscape:connector-curvature="0"
           d="m 71.988787,110.92469 0.53795,5.3e-4 -0.53537,0.92708 -0.003,-0.005 z"
           style="fill:#729fcf;stroke:#3465a4;stroke-width:0.264583px;stroke-linecap:butt;stroke-linejoin:miter;stroke-opacity:1"
           id="path4940" />
        <path
           inkscape:connector-curvature="0"
           id="path4944"
           d="m 73.990545,112.38855 -0.92724,0.53537 0.92729,0.53569 z"
           style="fill:#729fcf;stroke:#3465a4;stroke-width:0.264583px;stroke-linecap:butt;stroke-linejoin:miter;stroke-opacity:1" />
        <path
           style="fill:#729fcf;stroke:#3465a4;stroke-width:0.264583px;stroke-linecap:butt;stroke-linejoin:miter;stroke-opacity:1"
           d="m 73.991195,112.3892 -0.92724,0.53537 0.92729,0.53569 z"
           id="path4946"
           inkscape:connector-curvature="0" />
      </g>
      <path
         style="fill:#729fcf;stroke:#3465a4;stroke-width:0.264583px;stroke-linecap:butt;stroke-linejoin:miter;stroke-opacity:1"
         d="m 64.803348,120.60641 1.6e-5,-1.07069 0.92757,0.5352 z"
         id="path4276"
         inkscape:connector-curvature="0" />
      <path
         inkscape:connector-curvature="0"
         id="path4278"
         d="m 62.802825,120.07162 0.535332,-0.92726 -1.070905,-2.9e-4 z"
         style="fill:#729fcf;stroke:#3465a4;stroke-width:0.264583px;stroke-linecap:butt;stroke-linejoin:miter;stroke-opacity:1" />
      <path
         style="fill:#729fcf;stroke:#3465a4;stroke-width:0.264583px;stroke-linecap:butt;stroke-linejoin:miter;stroke-opacity:1"
         d="m 66.265464,118.06951 -1.070689,-3e-5 0.535199,-0.92757 z"
         id="path4282"
         inkscape:connector-curvature="0" />
      <path
         inkscape:connector-curvature="0"
         d="m 35.881719,126.07201 0.53795,-5.3e-4 -0.53537,-0.92708 -0.003,0.005 z"
         style="fill:#729fcf;stroke:#3465a4;stroke-width:0.264583px;stroke-linecap:butt;stroke-linejoin:miter;stroke-opacity:1"
         id="path3880" />
      <path
         id="path3882"
         style="fill:#729fcf;stroke:#3465a4;stroke-width:0.264583px;stroke-linecap:butt;stroke-linejoin:miter;stroke-opacity:1"
         d="m 35.881789,122.07226 0.53795,5.3e-4 -0.53537,0.92708 -0.003,-0.005 z"
         inkscape:connector-curvature="0" />
      <path
         style="fill:#729fcf;stroke:#3465a4;stroke-width:0.264583px;stroke-linecap:butt;stroke-linejoin:miter;stroke-opacity:1"
         d="m 46.809647,120.07042 -0.53533,-0.92725 1.0709,-2.9e-4 z"
         id="path3776"
         inkscape:connector-curvature="0" />
      <path
         inkscape:connector-curvature="0"
         id="path3778"
         d="m 44.809747,120.60754 -2e-5,-1.0707 -0.92757,0.53521 z"
         style="fill:#729fcf;stroke:#3465a4;stroke-width:0.264583px;stroke-linecap:butt;stroke-linejoin:miter;stroke-opacity:1" />
      <path
         inkscape:connector-curvature="0"
         id="path3780"
         d="m 43.879447,117.14392 0.53533,0.92725 -1.070898,2.9e-4 z"
         style="fill:#729fcf;stroke:#3465a4;stroke-width:0.264583px;stroke-linecap:butt;stroke-linejoin:miter;stroke-opacity:1" />
      <path
         style="fill:#729fcf;stroke:#3465a4;stroke-width:0.264583px;stroke-linecap:butt;stroke-linejoin:miter;stroke-opacity:1"
         d="m 46.807427,117.14234 -0.92726,0.53532 -2.91e-4,-1.0709 z"
         id="path3701"
         inkscape:connector-curvature="0" />
      <path
         id="path3720"
         style="fill:#729fcf;stroke:#3465a4;stroke-width:0.264583px;stroke-linecap:butt;stroke-linejoin:miter;stroke-opacity:1"
         d="m 52.805595,113.14086 5.29e-4,0.53795 0.927076,-0.53537 -0.0047,-0.003 z"
         inkscape:connector-curvature="0" />
      <path
         inkscape:connector-curvature="0"
         id="path3734"
         d="m 62.803508,117.14241 0.927261,0.53532 2.65e-4,-1.0709 z"
         style="fill:#729fcf;stroke:#3465a4;stroke-width:0.264583px;stroke-linecap:butt;stroke-linejoin:miter;stroke-opacity:1" />
      <path
         inkscape:connector-curvature="0"
         d="m 56.80534,113.14093 -5.29e-4,0.53795 -0.927075,-0.53537 0.0046,-0.003 z"
         style="fill:#729fcf;stroke:#3465a4;stroke-width:0.264583px;stroke-linecap:butt;stroke-linejoin:miter;stroke-opacity:1"
         id="path3736" />
      <path
         style="fill:#729fcf;stroke:#3465a4;stroke-width:0.264583px;stroke-linecap:butt;stroke-linejoin:miter;stroke-opacity:1"
         d="m 37.883547,123.53612 -0.92724,0.53537 0.92729,0.53569 z"
         id="path3828"
         inkscape:connector-curvature="0" />
      <path
         inkscape:connector-curvature="0"
         id="path3891"
         d="m 46.806432,128.07102 -0.53533,0.92725 1.0709,2.9e-4 z"
         style="fill:#729fcf;stroke:#3465a4;stroke-width:0.264583px;stroke-linecap:butt;stroke-linejoin:miter;stroke-opacity:1" />
      <path
         style="fill:#729fcf;stroke:#3465a4;stroke-width:0.264583px;stroke-linecap:butt;stroke-linejoin:miter;stroke-opacity:1"
         d="m 44.806532,127.5339 -2e-5,1.0707 -0.92757,-0.53521 z"
         id="path3893"
         inkscape:connector-curvature="0" />
      <path
         style="fill:#729fcf;stroke:#3465a4;stroke-width:0.264583px;stroke-linecap:butt;stroke-linejoin:miter;stroke-opacity:1"
         d="m 43.876232,130.99752 0.53533,-0.92725 -1.070898,-2.9e-4 z"
         id="path3895"
         inkscape:connector-curvature="0" />
      <path
         inkscape:connector-curvature="0"
         id="path3897"
         d="m 46.804212,130.9991 -0.92726,-0.53532 -2.91e-4,1.0709 z"
         style="fill:#729fcf;stroke:#3465a4;stroke-width:0.264583px;stroke-linecap:butt;stroke-linejoin:miter;stroke-opacity:1" />
      <path
         inkscape:connector-curvature="0"
         d="m 52.80238,135.00058 5.29e-4,-0.53795 0.927075,0.53537 -0.0047,0.003 z"
         style="fill:#729fcf;stroke:#3465a4;stroke-width:0.264583px;stroke-linecap:butt;stroke-linejoin:miter;stroke-opacity:1"
         id="path3906" />
      <path
         id="path3910"
         style="fill:#729fcf;stroke:#3465a4;stroke-width:0.264583px;stroke-linecap:butt;stroke-linejoin:miter;stroke-opacity:1"
         d="m 56.802125,135.00051 -5.29e-4,-0.53795 -0.927075,0.53537 0.0046,0.003 z"
         inkscape:connector-curvature="0" />
      <path
         style="fill:#729fcf;stroke:#3465a4;stroke-width:0.264583px;stroke-linecap:butt;stroke-linejoin:miter;stroke-opacity:1"
         d="m 64.800125,127.53503 1.6e-5,1.07069 0.927574,-0.5352 z"
         id="path3914"
         inkscape:connector-curvature="0" />
      <path
         inkscape:connector-curvature="0"
         id="path3916"
         d="m 62.799603,128.06982 0.535331,0.92727 -1.070904,2.9e-4 z"
         style="fill:#729fcf;stroke:#3465a4;stroke-width:0.264583px;stroke-linecap:butt;stroke-linejoin:miter;stroke-opacity:1" />
      <path
         inkscape:connector-curvature="0"
         id="path3918"
         d="m 63.725747,131.53456 -1.3e-5,-1.07069 -0.927571,0.5352 z"
         style="fill:#729fcf;stroke:#3465a4;stroke-width:0.264583px;stroke-linecap:butt;stroke-linejoin:miter;stroke-opacity:1" />
      <path
         style="fill:#729fcf;stroke:#3465a4;stroke-width:0.264583px;stroke-linecap:butt;stroke-linejoin:miter;stroke-opacity:1"
         d="m 66.262244,130.07194 -1.070692,2e-5 0.535199,0.92758 z"
         id="path3920"
         inkscape:connector-curvature="0" />
      <path
         style="fill:#729fcf;stroke:#3465a4;stroke-width:0.264583px;stroke-linecap:butt;stroke-linejoin:miter;stroke-opacity:1"
         d="m 71.728896,123.53564 0.92724,0.53537 -0.92729,0.53569 z"
         id="path4322"
         inkscape:connector-curvature="0" />
      <path
         id="path3975"
         style="fill:#729fcf;stroke:#3465a4;stroke-width:0.264583px;stroke-linecap:butt;stroke-linejoin:miter;stroke-opacity:1"
         d="m 73.731376,126.07087 -0.537951,-5.3e-4 0.535372,-0.92707 0.003,0.005 z"
         inkscape:connector-curvature="0" />
      <path
         inkscape:connector-curvature="0"
         d="m 73.731307,122.07113 -0.53795,5.3e-4 0.535368,0.92708 0.003,-0.005 z"
         style="fill:#729fcf;stroke:#3465a4;stroke-width:0.264583px;stroke-linecap:butt;stroke-linejoin:miter;stroke-opacity:1"
         id="path3977" />
      <path
         inkscape:connector-curvature="0"
         id="path3858"
         d="m 71.728896,123.53564 0.92724,0.53537 -0.92729,0.53569 z"
         style="fill:#729fcf;stroke:#3465a4;stroke-width:0.264583px;stroke-linecap:butt;stroke-linejoin:miter;stroke-opacity:1" />
      <path
         inkscape:connector-curvature="0"
         id="path5058"
         d="m 37.883547,123.53612 -0.92724,0.53537 0.92729,0.53569 z"
         style="fill:#729fcf;stroke:#3465a4;stroke-width:0.264583px;stroke-linecap:butt;stroke-linejoin:miter;stroke-opacity:1" />
      <path
         style="fill:#729fcf;stroke:#3465a4;stroke-width:0.264583px;stroke-linecap:butt;stroke-linejoin:miter;stroke-opacity:1"
         d="m 41.884307,123.53747 0.92724,0.53537 -0.92729,0.53569 z"
         id="path5060"
         inkscape:connector-curvature="0" />
      <path
         inkscape:connector-curvature="0"
         d="m 48.807852,135.00013 -5.29e-4,-0.53795 -0.927075,0.53537 0.0046,0.003 z"
         style="fill:#729fcf;stroke:#3465a4;stroke-width:0.264583px;stroke-linecap:butt;stroke-linejoin:miter;stroke-opacity:1"
         id="path5066" />
      <path
         id="path5068"
         style="fill:#729fcf;stroke:#3465a4;stroke-width:0.264583px;stroke-linecap:butt;stroke-linejoin:miter;stroke-opacity:1"
         d="m 60.798252,135.00106 5.3e-4,-0.53795 0.927074,0.53537 -0.0047,0.003 z"
         inkscape:connector-curvature="0" />
      <path
         inkscape:connector-curvature="0"
         d="m 60.801467,113.14038 5.3e-4,0.53795 0.927074,-0.53537 -0.0047,-0.003 z"
         style="fill:#729fcf;stroke:#3465a4;stroke-width:0.264583px;stroke-linecap:butt;stroke-linejoin:miter;stroke-opacity:1"
         id="path5076" />
      <path
         id="path5078"
         style="fill:#729fcf;stroke:#3465a4;stroke-width:0.264583px;stroke-linecap:butt;stroke-linejoin:miter;stroke-opacity:1"
         d="m 48.809468,113.14031 -5.29e-4,0.53795 -0.927076,-0.53537 0.0046,-0.003 z"
         inkscape:connector-curvature="0" />
      <path
         style="fill:#729fcf;stroke:#3465a4;stroke-width:0.264583px;stroke-linecap:butt;stroke-linejoin:miter;stroke-opacity:1"
         d="m 67.728787,123.53634 -0.92724,0.53537 0.927291,0.53569 z"
         id="path5080"
         inkscape:connector-curvature="0" />
    </g>
    <path
       inkscape:connector-curvature="0"
       id="path1287"
       d="m 93.378772,90.762492 1.68971,2.92653 5.691608,-5.3e-4 2.84441,-4.92686 -1.69141,-2.92779 -1.6901,2.92726 2.84618,4.92712 5.69092,2.7e-4 1.691,-2.92914 -3.38288,0.002 -2.84441,4.92685 2.84549,4.927908 3.38213,-2.6e-4 -1.69133,-2.927238 h -5.69107 l -2.8451,4.927638 1.69021,2.92829 1.6913,-2.92776 -2.84534,-4.928168 -5.691758,8e-4 -1.69033,2.927218 3.38221,-2.4e-4 2.8451,-4.927648 -2.84603,-4.92738 z"
       style="fill:none;stroke:#3465a4;stroke-width:0.264583px;stroke-linecap:butt;stroke-linejoin:miter;stroke-opacity:1" />
    <path
       inkscape:connector-curvature="0"
       id="path1289"
       d="m 90.450622,97.689562 2.30878,1e-5 2.84603,4.927378 -1.154,1.99987 2.30878,10e-6 1.15462,1.99959 1.15431,-1.99959 h 5.691068 l 1.15462,1.99959 1.15431,-1.99959 2.30964,-1.4e-4 -1.15486,-2.00027 2.8451,-4.927638 2.30964,-1.4e-4 -1.15486,-2.00027 1.15477,-2.00041 -2.3094,2.7e-4 -2.84618,-4.92713 1.15477,-2.0004 -2.3094,2.6e-4 -1.15446,-1.99986 -1.15462,2.00013 -5.690918,-2.6e-4 -1.15446,-1.99986 -1.15462,2.00013 -2.30948,2.6e-4 1.1547,2.00014 -2.8451,4.92765 -2.30948,2.6e-4 1.1547,2.00014 z"
       style="fill:none;stroke:#3465a4;stroke-width:0.264583px;stroke-linecap:butt;stroke-linejoin:miter;stroke-opacity:1" />
    <path
       inkscape:connector-curvature="0"
       id="path1291"
       d="m 93.913822,88.761182 1.99959,-1.15462 1e-5,-2.30878 1.99987,1.154 2.00014,-1.1547 2.6e-4,2.30948 3.999718,2.30893 0.001,4.61833 3.99972,2.30893 5.3e-4,4.619118 2.00013,1.15462 -1.99986,1.15446 2.6e-4,2.3094 -2.00041,-1.15477 -2.00027,1.15486 -1.4e-4,-2.30964 -3.999718,-2.30893 -5.3e-4,-4.619118 -4.00041,-2.30814 -5.3e-4,-4.61912 z"
       style="fill:none;stroke:#3465a4;stroke-width:0.264583px;stroke-linecap:butt;stroke-linejoin:miter;stroke-opacity:1" />
    <path
       style="fill:none;stroke:#3465a4;stroke-width:0.264583px;stroke-linecap:butt;stroke-linejoin:miter;stroke-opacity:1"
       d="m 103.91354,85.296332 1.99972,1.15439 1.99947,-1.15438 5.4e-4,2.30894 2.00007,1.15482 -1.99994,1.15496 2.7e-4,4.61833 -3.99909,2.31003 2.7e-4,4.618318 -4.000008,2.31002 1.3e-4,2.30948 -1.99972,-1.1547 -1.99987,1.15492 -1.4e-4,-2.30979 -2.00028,-1.15485 2.00014,-1.15495 -2.7e-4,-4.618318 4.00001,-2.31002 -10e-4,-4.61853 4.000008,-2.31001 z"
       id="path1293"
       inkscape:connector-curvature="0" />
    <path
       inkscape:connector-curvature="0"
       id="path1295"
       d="m 111.91407,92.224152 1.3e-4,2.309 1.99946,1.1544 -1.99933,1.15494 -7e-5,2.30952 -2.00019,-1.15452 -3.99946,2.309398 -4.00009,-2.308298 -3.999448,2.309398 -4.00054,-2.309098 -2,1.15485 1.4e-4,-2.30916 -2.00013,-1.15448 2.00027,-1.15501 -1e-5,-2.30972 2.00029,1.1547 3.99944,-2.3094 4.000538,2.3091 3.99927,-2.31013 4.00053,2.30911 z"
       style="fill:none;stroke:#3465a4;stroke-width:0.264583px;stroke-linecap:butt;stroke-linejoin:miter;stroke-opacity:1" />
    <path
       inkscape:connector-curvature="0"
       id="path1297"
       d="m 96.223112,95.689162 2.8451,-4.92764 h 5.691068 l 2.84603,4.92738 -2.8451,4.927648 -5.690918,-2.6e-4 z"
       style="fill:none;stroke:#3465a4;stroke-width:0.264583px;stroke-linecap:butt;stroke-linejoin:miter;stroke-opacity:1" />
    <path
       inkscape:connector-curvature="0"
       id="path248"
       d="m 111.91314,100.22394 3e-5,-1.072078 0.92872,0.53578 z"
       style="fill:none;stroke:#3465a4;stroke-width:0.264583px;stroke-linecap:butt;stroke-linejoin:miter;stroke-opacity:1" />
    <path
       style="fill:none;stroke:#3465a4;stroke-width:0.264583px;stroke-linecap:butt;stroke-linejoin:miter;stroke-opacity:1"
       d="m 110.8429,102.07976 -3e-5,1.07207 -0.92872,-0.53578 z"
       id="path250"
       inkscape:connector-curvature="0" />
    <path
       inkscape:connector-curvature="0"
       id="path300"
       d="m 103.91451,106.08044 -3e-5,1.07207 -0.92872,-0.53578 z"
       style="fill:none;stroke:#3465a4;stroke-width:0.264583px;stroke-linecap:butt;stroke-linejoin:miter;stroke-opacity:1" />
    <path
       style="fill:none;stroke:#3465a4;stroke-width:0.264583px;stroke-linecap:butt;stroke-linejoin:miter;stroke-opacity:1"
       d="m 99.914332,106.08033 3e-5,1.07207 0.928718,-0.53578 z"
       id="path302"
       inkscape:connector-curvature="0" />
    <path
       style="fill:none;stroke:#3465a4;stroke-width:0.264583px;stroke-linecap:butt;stroke-linejoin:miter;stroke-opacity:1"
       d="m 103.91451,106.08044 -3e-5,1.07207 -0.92872,-0.53578 z"
       id="path304"
       inkscape:connector-curvature="0" />
    <path
       style="fill:none;stroke:#3465a4;stroke-width:0.264583px;stroke-linecap:butt;stroke-linejoin:miter;stroke-opacity:1"
       d="m 93.378772,90.762492 1.68971,2.92653 5.691608,-5.3e-4 2.84441,-4.92686 -1.69141,-2.92779 -1.6901,2.92726 2.84618,4.92712 5.69092,2.7e-4 1.691,-2.92914 -3.38288,0.002 -2.84441,4.92685 2.84549,4.927908 3.38213,-2.6e-4 -1.69133,-2.927238 h -5.69107 l -2.8451,4.927638 1.69021,2.92829 1.6913,-2.92776 -2.84534,-4.928168 -5.691758,8e-4 -1.69033,2.927218 3.38221,-2.4e-4 2.8451,-4.927648 -2.84603,-4.92738 z"
       id="path308"
       inkscape:connector-curvature="0" />
    <path
       style="fill:none;stroke:#3465a4;stroke-width:0.264583px;stroke-linecap:butt;stroke-linejoin:miter;stroke-opacity:1"
       d="m 90.450622,97.689562 2.30878,1e-5 2.84603,4.927378 -1.154,1.99987 2.30878,10e-6 1.15462,1.99959 1.15431,-1.99959 h 5.691068 l 1.15462,1.99959 1.15431,-1.99959 2.30964,-1.4e-4 -1.15486,-2.00027 2.8451,-4.927638 2.30964,-1.4e-4 -1.15486,-2.00027 1.15477,-2.00041 -2.3094,2.7e-4 -2.84618,-4.92713 1.15477,-2.0004 -2.3094,2.6e-4 -1.15446,-1.99986 -1.15462,2.00013 -5.690918,-2.6e-4 -1.15446,-1.99986 -1.15462,2.00013 -2.30948,2.6e-4 1.1547,2.00014 -2.8451,4.92765 -2.30948,2.6e-4 1.1547,2.00014 z"
       id="path310"
       inkscape:connector-curvature="0" />
    <path
       style="fill:none;stroke:#3465a4;stroke-width:0.264583px;stroke-linecap:butt;stroke-linejoin:miter;stroke-opacity:1"
       d="m 93.913822,88.761182 1.99959,-1.15462 1e-5,-2.30878 1.99987,1.154 2.00014,-1.1547 2.6e-4,2.30948 3.999718,2.30893 0.001,4.61833 3.99972,2.30893 5.3e-4,4.619118 2.00013,1.15462 -1.99986,1.15446 2.6e-4,2.3094 -2.00041,-1.15477 -2.00027,1.15486 -1.4e-4,-2.30964 -3.999718,-2.30893 -5.3e-4,-4.619118 -4.00041,-2.30814 -5.3e-4,-4.61912 z"
       id="path312"
       inkscape:connector-curvature="0" />
    <path
       inkscape:connector-curvature="0"
       id="path314"
       d="m 103.91354,85.296332 1.99972,1.15439 1.99947,-1.15438 5.4e-4,2.30894 2.00007,1.15482 -1.99994,1.15496 2.7e-4,4.61833 -3.99909,2.31003 2.7e-4,4.618318 -4.000008,2.31002 1.3e-4,2.30948 -1.99972,-1.1547 -1.99987,1.15492 -1.4e-4,-2.30979 -2.00028,-1.15485 2.00014,-1.15495 -2.7e-4,-4.618318 4.00001,-2.31002 -10e-4,-4.61853 4.000008,-2.31001 z"
       style="fill:none;stroke:#3465a4;stroke-width:0.264583px;stroke-linecap:butt;stroke-linejoin:miter;stroke-opacity:1" />
    <path
       style="fill:none;stroke:#3465a4;stroke-width:0.264583px;stroke-linecap:butt;stroke-linejoin:miter;stroke-opacity:1"
       d="m 111.91407,92.224152 1.3e-4,2.309 1.99946,1.1544 -1.99933,1.15494 -7e-5,2.30952 -2.00019,-1.15452 -3.99946,2.309398 -4.00009,-2.308298 -3.999448,2.309398 -4.00054,-2.309098 -2,1.15485 1.4e-4,-2.30916 -2.00013,-1.15448 2.00027,-1.15501 -1e-5,-2.30972 2.00029,1.1547 3.99944,-2.3094 4.000538,2.3091 3.99927,-2.31013 4.00053,2.30911 z"
       id="path316"
       inkscape:connector-curvature="0" />
    <path
       style="fill:none;stroke:#3465a4;stroke-width:0.264583px;stroke-linecap:butt;stroke-linejoin:miter;stroke-opacity:1"
       d="m 96.223112,95.689162 2.8451,-4.92764 h 5.691068 l 2.84603,4.92738 -2.8451,4.927648 -5.690918,-2.6e-4 z"
       id="path318"
       inkscape:connector-curvature="0" />
    <path
       style="fill:none;stroke:#3465a4;stroke-width:0.264583px;stroke-linecap:butt;stroke-linejoin:miter;stroke-opacity:1"
       d="m 111.91314,100.22394 3e-5,-1.072078 0.92872,0.53578 z"
       id="path320"
       inkscape:connector-curvature="0" />
    <path
       inkscape:connector-curvature="0"
       id="path322"
       d="m 110.8429,102.07976 -3e-5,1.07207 -0.92872,-0.53578 z"
       style="fill:none;stroke:#3465a4;stroke-width:0.264583px;stroke-linecap:butt;stroke-linejoin:miter;stroke-opacity:1" />
    <path
       style="fill:none;stroke:#3465a4;stroke-width:0.264583px;stroke-linecap:butt;stroke-linejoin:miter;stroke-opacity:1"
       d="m 103.91451,106.08044 -3e-5,1.07207 -0.92872,-0.53578 z"
       id="path324"
       inkscape:connector-curvature="0" />
    <path
       inkscape:connector-curvature="0"
       id="path326"
       d="m 99.914332,106.08033 3e-5,1.07207 0.928718,-0.53578 z"
       style="fill:none;stroke:#3465a4;stroke-width:0.264583px;stroke-linecap:butt;stroke-linejoin:miter;stroke-opacity:1" />
    <path
       inkscape:connector-curvature="0"
       id="path328"
       d="m 103.91451,106.08044 -3e-5,1.07207 -0.92872,-0.53578 z"
       style="fill:none;stroke:#3465a4;stroke-width:0.264583px;stroke-linecap:butt;stroke-linejoin:miter;stroke-opacity:1" />
    <path
       style="fill:none;stroke:#3465a4;stroke-width:0.264583px;stroke-linecap:butt;stroke-linejoin:miter;stroke-opacity:1"
       d="m 107.91397,106.08033 3e-5,1.07207 0.92871,-0.53578 z"
       id="path334"
       inkscape:connector-curvature="0" />
    <path
       style="fill:none;stroke:#3465a4;stroke-width:0.264583px;stroke-linecap:butt;stroke-linejoin:miter;stroke-opacity:1"
       d="m 95.933303,106.04887 -3e-5,1.07207 -0.92872,-0.53578 z"
       id="path354"
       inkscape:connector-curvature="0"
       inkscape:transform-center-x="-4.8381235"
       inkscape:transform-center-y="5.6330525e-05" />
    <path
       inkscape:connector-curvature="0"
       id="path306"
       d="m 110.84302,110.07913 -3e-5,1.07207 -0.92872,-0.53578 z"
       style="fill:none;stroke:#3465a4;stroke-width:0.264583px;stroke-linecap:butt;stroke-linejoin:miter;stroke-opacity:1" />
    <path
       style="fill:none;stroke:#3465a4;stroke-width:0.264583px;stroke-linecap:butt;stroke-linejoin:miter;stroke-opacity:1"
       d="m 112.84303,113.54328 -0.92846,0.53601 -3.6e-4,-1.07219 z"
       id="path330"
       inkscape:connector-curvature="0" />
    <path
       style="fill:none;stroke:#3465a4;stroke-width:0.264583px;stroke-linecap:butt;stroke-linejoin:miter;stroke-opacity:1"
       d="m 112.30684,101.68895 1.68971,2.92653 5.69161,-5.3e-4 2.84441,-4.926858 -1.69141,-2.92779 -1.6901,2.92726 2.84618,4.927118 5.69092,2.7e-4 1.691,-2.92914 -3.38288,0.002 -2.84441,4.92685 2.84549,4.92791 3.38213,-2.6e-4 -1.69133,-2.92724 h -5.69107 l -2.8451,4.92764 1.69021,2.92829 1.6913,-2.92776 -2.84534,-4.92817 -5.69176,8e-4 -1.69033,2.92722 3.38221,-2.4e-4 2.8451,-4.92765 -2.84603,-4.92738 z"
       id="path15259"
       inkscape:connector-curvature="0" />
    <path
       style="fill:none;stroke:#3465a4;stroke-width:0.264583px;stroke-linecap:butt;stroke-linejoin:miter;stroke-opacity:1"
       d="m 109.37869,108.61602 2.30878,10e-6 2.84603,4.92738 -1.154,1.99987 2.30878,1e-5 1.15462,1.99959 1.15431,-1.99959 h 5.69107 l 1.15462,1.99959 1.15431,-1.99959 2.30964,-1.4e-4 -1.15486,-2.00027 2.8451,-4.92764 2.30964,-1.4e-4 -1.15486,-2.00027 1.15477,-2.00041 -2.3094,2.7e-4 -2.84618,-4.927128 1.15477,-2.0004 -2.3094,2.6e-4 -1.15446,-1.99986 -1.15462,2.00013 -5.69092,-2.6e-4 -1.15446,-1.99986 -1.15462,2.00013 -2.30948,2.6e-4 1.1547,2.00014 -2.8451,4.927648 -2.30948,2.6e-4 1.1547,2.00014 z"
       id="path15261"
       inkscape:connector-curvature="0" />
    <path
       style="fill:none;stroke:#3465a4;stroke-width:0.264583px;stroke-linecap:butt;stroke-linejoin:miter;stroke-opacity:1"
       d="m 112.84189,99.687642 1.99959,-1.15462 10e-6,-2.30878 1.99987,1.154 2.00014,-1.1547 2.6e-4,2.30948 3.99972,2.308928 10e-4,4.61833 3.99972,2.30893 5.3e-4,4.61912 2.00013,1.15462 -1.99986,1.15446 2.6e-4,2.3094 -2.00041,-1.15477 -2.00027,1.15486 -1.4e-4,-2.30964 -3.99972,-2.30893 -5.3e-4,-4.61912 -4.00041,-2.30814 -5.3e-4,-4.61912 z"
       id="path15263"
       inkscape:connector-curvature="0" />
    <path
       inkscape:connector-curvature="0"
       id="path15265"
       d="m 122.84161,96.222792 1.99972,1.15439 1.99947,-1.15438 5.4e-4,2.30894 2.00007,1.15482 -1.99994,1.154958 2.7e-4,4.61833 -3.99909,2.31003 2.7e-4,4.61832 -4.00001,2.31002 1.3e-4,2.30948 -1.99972,-1.1547 -1.99987,1.15492 -1.4e-4,-2.30979 -2.00028,-1.15485 2.00014,-1.15495 -2.7e-4,-4.61832 4.00001,-2.31002 -0.001,-4.61853 4.00001,-2.310008 z"
       style="fill:none;stroke:#3465a4;stroke-width:0.264583px;stroke-linecap:butt;stroke-linejoin:miter;stroke-opacity:1" />
    <path
       style="fill:none;stroke:#3465a4;stroke-width:0.264583px;stroke-linecap:butt;stroke-linejoin:miter;stroke-opacity:1"
       d="m 130.84214,103.15061 1.3e-4,2.309 1.99946,1.1544 -1.99933,1.15494 -7e-5,2.30952 -2.00019,-1.15452 -3.99946,2.3094 -4.00009,-2.3083 -3.99945,2.3094 -4.00054,-2.3091 -2,1.15485 1.4e-4,-2.30916 -2.00013,-1.15448 2.00027,-1.15501 -10e-6,-2.30972 2.00029,1.1547 3.99944,-2.3094 4.00054,2.3091 3.99927,-2.31013 4.00053,2.30911 z"
       id="path15267"
       inkscape:connector-curvature="0" />
    <path
       style="fill:none;stroke:#3465a4;stroke-width:0.264583px;stroke-linecap:butt;stroke-linejoin:miter;stroke-opacity:1"
       d="m 115.15118,106.61562 2.8451,-4.92764 h 5.69107 l 2.84603,4.92738 -2.8451,4.92765 -5.69092,-2.6e-4 z"
       id="path15269"
       inkscape:connector-curvature="0" />
    <path
       style="fill:none;stroke:#3465a4;stroke-width:0.264583px;stroke-linecap:butt;stroke-linejoin:miter;stroke-opacity:1"
       d="m 122.84161,96.222792 1.99972,1.15439 1.99947,-1.15438 5.4e-4,2.30894 2.00007,1.15482 -1.99994,1.154958 2.7e-4,4.61833 -3.99909,2.31003 2.7e-4,4.61832 -4.00001,2.31002 1.3e-4,2.30948 -1.99972,-1.1547 -1.99987,1.15492 -1.4e-4,-2.30979 -2.00028,-1.15485 2.00014,-1.15495 -2.7e-4,-4.61832 4.00001,-2.31002 -0.001,-4.61853 4.00001,-2.310008 z"
       id="path252"
       inkscape:connector-curvature="0" />
    <path
       inkscape:connector-curvature="0"
       id="path282"
       d="m 93.379702,112.61781 1.68971,2.92653 5.691608,-5.3e-4 2.84441,-4.92686 -1.69141,-2.92779 -1.6901,2.92726 2.84618,4.92712 5.69092,2.7e-4 1.691,-2.92914 -3.38288,0.002 -2.84441,4.92685 2.84549,4.92791 3.38213,-2.6e-4 -1.69133,-2.92724 h -5.69107 l -2.8451,4.92764 1.69021,2.92829 1.6913,-2.92776 -2.84534,-4.92817 -5.691758,8e-4 -1.69033,2.92722 3.38221,-2.4e-4 2.8451,-4.92765 -2.84603,-4.92738 z"
       style="fill:none;stroke:#3465a4;stroke-width:0.264583px;stroke-linecap:butt;stroke-linejoin:miter;stroke-opacity:1" />
    <path
       inkscape:connector-curvature="0"
       id="path284"
       d="m 90.451552,119.54488 2.30878,10e-6 2.84603,4.92738 -1.154,1.99987 2.30878,1e-5 1.15462,1.99959 1.15431,-1.99959 h 5.691068 l 1.15462,1.99959 1.15431,-1.99959 2.30964,-1.4e-4 -1.15486,-2.00027 2.8451,-4.92764 2.30964,-1.4e-4 -1.15486,-2.00027 1.15477,-2.00041 -2.3094,2.7e-4 -2.84618,-4.92713 1.15477,-2.0004 -2.3094,2.6e-4 -1.15446,-1.99986 -1.15462,2.00013 -5.690918,-2.6e-4 -1.15446,-1.99986 -1.15462,2.00013 -2.30948,2.6e-4 1.1547,2.00014 -2.8451,4.92765 -2.30948,2.6e-4 1.1547,2.00014 z"
       style="fill:none;stroke:#3465a4;stroke-width:0.264583px;stroke-linecap:butt;stroke-linejoin:miter;stroke-opacity:1" />
    <path
       inkscape:connector-curvature="0"
       id="path286"
       d="m 93.914752,110.6165 1.99959,-1.15462 10e-6,-2.30878 1.99987,1.154 2.00014,-1.1547 2.6e-4,2.30948 3.999718,2.30893 0.001,4.61833 3.99972,2.30893 5.3e-4,4.61912 2.00013,1.15462 -1.99986,1.15446 2.6e-4,2.3094 -2.00041,-1.15477 -2.00027,1.15486 -1.4e-4,-2.30964 -3.999718,-2.30893 -5.3e-4,-4.61912 -4.00041,-2.30814 -5.3e-4,-4.61912 z"
       style="fill:none;stroke:#3465a4;stroke-width:0.264583px;stroke-linecap:butt;stroke-linejoin:miter;stroke-opacity:1" />
    <path
       style="fill:none;stroke:#3465a4;stroke-width:0.264583px;stroke-linecap:butt;stroke-linejoin:miter;stroke-opacity:1"
       d="m 103.91447,107.15165 1.99972,1.15439 1.99947,-1.15438 5.4e-4,2.30894 2.00007,1.15482 -1.99994,1.15496 2.7e-4,4.61833 -3.99909,2.31003 2.7e-4,4.61832 -4.000008,2.31002 1.3e-4,2.30948 -1.99972,-1.1547 -1.99987,1.15492 -1.4e-4,-2.30979 -2.00028,-1.15485 2.00014,-1.15495 -2.7e-4,-4.61832 4.00001,-2.31002 -0.001,-4.61853 4.000008,-2.31001 z"
       id="path288"
       inkscape:connector-curvature="0" />
    <path
       inkscape:connector-curvature="0"
       id="path290"
       d="m 111.915,114.07947 1.3e-4,2.309 1.99946,1.1544 -1.99933,1.15494 -7e-5,2.30952 -2.00019,-1.15452 -3.99946,2.3094 -4.00009,-2.3083 -3.999448,2.3094 -4.00054,-2.3091 -2,1.15485 1.4e-4,-2.30916 -2.00013,-1.15448 2.00027,-1.15501 -10e-6,-2.30972 2.00029,1.1547 3.99944,-2.3094 4.000538,2.3091 3.99927,-2.31013 4.00053,2.30911 z"
       style="fill:none;stroke:#3465a4;stroke-width:0.264583px;stroke-linecap:butt;stroke-linejoin:miter;stroke-opacity:1" />
    <path
       inkscape:connector-curvature="0"
       id="path292"
       d="m 96.224042,117.54448 2.8451,-4.92764 h 5.691068 l 2.84603,4.92738 -2.8451,4.92765 -5.690918,-2.6e-4 z"
       style="fill:none;stroke:#3465a4;stroke-width:0.264583px;stroke-linecap:butt;stroke-linejoin:miter;stroke-opacity:1" />
    <path
       inkscape:connector-curvature="0"
       id="path294"
       d="m 111.91407,122.07926 3e-5,-1.07208 0.92872,0.53578 z"
       style="fill:none;stroke:#3465a4;stroke-width:0.264583px;stroke-linecap:butt;stroke-linejoin:miter;stroke-opacity:1" />
    <path
       style="fill:none;stroke:#3465a4;stroke-width:0.264583px;stroke-linecap:butt;stroke-linejoin:miter;stroke-opacity:1"
       d="m 110.84383,123.93508 -3e-5,1.07207 -0.92872,-0.53578 z"
       id="path296"
       inkscape:connector-curvature="0" />
    <path
       inkscape:connector-curvature="0"
       id="path336"
       d="m 74.469665,101.6601 1.68971,2.92653 5.691608,-5.3e-4 2.84441,-4.926856 -1.69141,-2.92779 -1.6901,2.92726 2.84618,4.927116 5.69092,2.7e-4 1.691,-2.92914 -3.38288,0.002 -2.84441,4.92685 2.84549,4.92791 3.38213,-2.6e-4 -1.69133,-2.92724 h -5.69107 l -2.8451,4.92764 1.69021,2.92829 1.6913,-2.92776 -2.84534,-4.92817 -5.691758,8e-4 -1.69033,2.92722 3.38221,-2.4e-4 2.8451,-4.92765 -2.84603,-4.92738 z"
       style="fill:none;stroke:#3465a4;stroke-width:0.264583px;stroke-linecap:butt;stroke-linejoin:miter;stroke-opacity:1" />
    <path
       inkscape:connector-curvature="0"
       id="path338"
       d="m 71.541515,108.58717 2.30878,1e-5 2.84603,4.92738 -1.154,1.99987 2.30878,10e-6 1.15462,1.99959 1.15431,-1.99959 h 5.691068 l 1.15462,1.99959 1.15431,-1.99959 2.30964,-1.4e-4 -1.15486,-2.00027 2.8451,-4.92764 2.30964,-1.4e-4 -1.15486,-2.00027 1.15477,-2.00041 -2.3094,2.7e-4 -2.84618,-4.927126 1.15477,-2.0004 -2.3094,2.6e-4 -1.15446,-1.99986 -1.15462,2.00013 -5.690918,-2.6e-4 -1.15446,-1.99986 -1.15462,2.00013 -2.30948,2.6e-4 1.1547,2.00014 -2.8451,4.927646 -2.30948,2.6e-4 1.1547,2.00014 z"
       style="fill:none;stroke:#3465a4;stroke-width:0.264583px;stroke-linecap:butt;stroke-linejoin:miter;stroke-opacity:1" />
    <path
       inkscape:connector-curvature="0"
       id="path340"
       d="m 75.004715,99.658794 1.99959,-1.15462 1e-5,-2.30878 1.99987,1.154 2.00014,-1.1547 2.6e-4,2.30948 3.999718,2.308926 0.001,4.61833 3.99972,2.30893 5.3e-4,4.61912 2.00013,1.15462 -1.99986,1.15446 2.6e-4,2.3094 -2.00041,-1.15477 -2.00027,1.15486 -1.4e-4,-2.30964 -3.999718,-2.30893 -5.3e-4,-4.61912 -4.00041,-2.30814 -5.3e-4,-4.61912 z"
       style="fill:none;stroke:#3465a4;stroke-width:0.264583px;stroke-linecap:butt;stroke-linejoin:miter;stroke-opacity:1" />
    <path
       style="fill:none;stroke:#3465a4;stroke-width:0.264583px;stroke-linecap:butt;stroke-linejoin:miter;stroke-opacity:1"
       d="m 85.004433,96.193944 1.99972,1.15439 1.99947,-1.15438 5.4e-4,2.30894 2.00007,1.15482 -1.99994,1.154956 2.7e-4,4.61833 -3.99909,2.31003 2.7e-4,4.61832 -4.000008,2.31002 1.3e-4,2.30948 -1.99972,-1.1547 -1.99987,1.15492 -1.4e-4,-2.30979 -2.00028,-1.15485 2.00014,-1.15495 -2.7e-4,-4.61832 4.00001,-2.31002 -0.001,-4.61853 4.000008,-2.310006 z"
       id="path342"
       inkscape:connector-curvature="0" />
    <path
       inkscape:connector-curvature="0"
       id="path344"
       d="m 93.004963,103.12176 1.3e-4,2.309 1.99946,1.1544 -1.99933,1.15494 -7e-5,2.30952 -2.00019,-1.15452 -3.99946,2.3094 -4.00009,-2.3083 -3.999448,2.3094 -4.00054,-2.3091 -2,1.15485 1.4e-4,-2.30916 -2.00013,-1.15448 2.00027,-1.15501 -1e-5,-2.30972 2.00029,1.1547 3.99944,-2.3094 4.000538,2.3091 3.99927,-2.31013 4.00053,2.30911 z"
       style="fill:none;stroke:#3465a4;stroke-width:0.264583px;stroke-linecap:butt;stroke-linejoin:miter;stroke-opacity:1" />
    <path
       inkscape:connector-curvature="0"
       id="path346"
       d="m 77.314005,106.58677 2.8451,-4.92764 h 5.691068 l 2.84603,4.92738 -2.8451,4.92765 -5.690918,-2.6e-4 z"
       style="fill:none;stroke:#3465a4;stroke-width:0.264583px;stroke-linecap:butt;stroke-linejoin:miter;stroke-opacity:1" />
    <path
       inkscape:connector-curvature="0"
       id="path348"
       d="m 93.004033,111.12155 3e-5,-1.07208 0.92872,0.53578 z"
       style="fill:none;stroke:#3465a4;stroke-width:0.264583px;stroke-linecap:butt;stroke-linejoin:miter;stroke-opacity:1" />
    <path
       style="fill:none;stroke:#3465a4;stroke-width:0.264583px;stroke-linecap:butt;stroke-linejoin:miter;stroke-opacity:1"
       d="m 91.933793,112.97737 -3e-5,1.07207 -0.92872,-0.53578 z"
       id="path350"
       inkscape:connector-curvature="0" />
    <path
       style="fill:none;stroke:#3465a4;stroke-width:0.264583px;stroke-linecap:butt;stroke-linejoin:miter;stroke-opacity:1"
       d="m 92.986213,103.15312 3e-5,-1.07208 0.92872,0.53578 z"
       id="path358"
       inkscape:connector-curvature="0" />
    <path
       inkscape:connector-curvature="0"
       id="path360"
       d="m 91.914533,99.153742 -3e-5,1.072068 -0.92872,-0.535778 z"
       style="fill:none;stroke:#3465a4;stroke-width:0.264583px;stroke-linecap:butt;stroke-linejoin:miter;stroke-opacity:1" />
    <path
       inkscape:connector-curvature="0"
       id="path406"
       d="m 112.30684,101.68895 1.68971,2.92653 5.69161,-5.3e-4 2.84441,-4.926858 -1.69141,-2.92779 -1.6901,2.92726 2.84618,4.927118 5.69092,2.7e-4 1.691,-2.92914 -3.38288,0.002 -2.84441,4.92685 2.84549,4.92791 3.38213,-2.6e-4 -1.69133,-2.92724 h -5.69107 l -2.8451,4.92764 1.69021,2.92829 1.6913,-2.92776 -2.84534,-4.92817 -5.69176,8e-4 -1.69033,2.92722 3.38221,-2.4e-4 2.8451,-4.92765 -2.84603,-4.92738 z"
       style="fill:none;stroke:#3465a4;stroke-width:0.264583px;stroke-linecap:butt;stroke-linejoin:miter;stroke-opacity:1" />
    <path
       inkscape:connector-curvature="0"
       id="path408"
       d="m 109.37869,108.61602 2.30878,10e-6 2.84603,4.92738 -1.154,1.99987 2.30878,1e-5 1.15462,1.99959 1.15431,-1.99959 h 5.69107 l 1.15462,1.99959 1.15431,-1.99959 2.30964,-1.4e-4 -1.15486,-2.00027 2.8451,-4.92764 2.30964,-1.4e-4 -1.15486,-2.00027 1.15477,-2.00041 -2.3094,2.7e-4 -2.84618,-4.927128 1.15477,-2.0004 -2.3094,2.6e-4 -1.15446,-1.99986 -1.15462,2.00013 -5.69092,-2.6e-4 -1.15446,-1.99986 -1.15462,2.00013 -2.30948,2.6e-4 1.1547,2.00014 -2.8451,4.927648 -2.30948,2.6e-4 1.1547,2.00014 z"
       style="fill:none;stroke:#3465a4;stroke-width:0.264583px;stroke-linecap:butt;stroke-linejoin:miter;stroke-opacity:1" />
    <path
       inkscape:connector-curvature="0"
       id="path410"
       d="m 112.84189,99.687642 1.99959,-1.15462 10e-6,-2.30878 1.99987,1.154 2.00014,-1.1547 2.6e-4,2.30948 3.99972,2.308928 10e-4,4.61833 3.99972,2.30893 5.3e-4,4.61912 2.00013,1.15462 -1.99986,1.15446 2.6e-4,2.3094 -2.00041,-1.15477 -2.00027,1.15486 -1.4e-4,-2.30964 -3.99972,-2.30893 -5.3e-4,-4.61912 -4.00041,-2.30814 -5.3e-4,-4.61912 z"
       style="fill:none;stroke:#3465a4;stroke-width:0.264583px;stroke-linecap:butt;stroke-linejoin:miter;stroke-opacity:1" />
    <path
       style="fill:none;stroke:#3465a4;stroke-width:0.264583px;stroke-linecap:butt;stroke-linejoin:miter;stroke-opacity:1"
       d="m 122.84161,96.222792 1.99972,1.15439 1.99947,-1.15438 5.4e-4,2.30894 2.00007,1.15482 -1.99994,1.154958 2.7e-4,4.61833 -3.99909,2.31003 2.7e-4,4.61832 -4.00001,2.31002 1.3e-4,2.30948 -1.99972,-1.1547 -1.99987,1.15492 -1.4e-4,-2.30979 -2.00028,-1.15485 2.00014,-1.15495 -2.7e-4,-4.61832 4.00001,-2.31002 -0.001,-4.61853 4.00001,-2.310008 z"
       id="path412"
       inkscape:connector-curvature="0" />
    <path
       inkscape:connector-curvature="0"
       id="path414"
       d="m 130.84214,103.15061 1.3e-4,2.309 1.99946,1.1544 -1.99933,1.15494 -7e-5,2.30952 -2.00019,-1.15452 -3.99946,2.3094 -4.00009,-2.3083 -3.99945,2.3094 -4.00054,-2.3091 -2,1.15485 1.4e-4,-2.30916 -2.00013,-1.15448 2.00027,-1.15501 -10e-6,-2.30972 2.00029,1.1547 3.99944,-2.3094 4.00054,2.3091 3.99927,-2.31013 4.00053,2.30911 z"
       style="fill:none;stroke:#3465a4;stroke-width:0.264583px;stroke-linecap:butt;stroke-linejoin:miter;stroke-opacity:1" />
    <path
       inkscape:connector-curvature="0"
       id="path416"
       d="m 115.15118,106.61562 2.8451,-4.92764 h 5.69107 l 2.84603,4.92738 -2.8451,4.92765 -5.69092,-2.6e-4 z"
       style="fill:none;stroke:#3465a4;stroke-width:0.264583px;stroke-linecap:butt;stroke-linejoin:miter;stroke-opacity:1" />
    <path
       inkscape:connector-curvature="0"
       id="path418"
       d="m 122.84161,96.222792 1.99972,1.15439 1.99947,-1.15438 5.4e-4,2.30894 2.00007,1.15482 -1.99994,1.154958 2.7e-4,4.61833 -3.99909,2.31003 2.7e-4,4.61832 -4.00001,2.31002 1.3e-4,2.30948 -1.99972,-1.1547 -1.99987,1.15492 -1.4e-4,-2.30979 -2.00028,-1.15485 2.00014,-1.15495 -2.7e-4,-4.61832 4.00001,-2.31002 -0.001,-4.61853 4.00001,-2.310008 z"
       style="fill:none;stroke:#3465a4;stroke-width:0.264583px;stroke-linecap:butt;stroke-linejoin:miter;stroke-opacity:1" />
    <path
       style="fill:none;stroke:#3465a4;stroke-width:0.264583px;stroke-linecap:butt;stroke-linejoin:miter;stroke-opacity:1"
       d="m 93.379702,112.61781 1.68971,2.92653 5.691608,-5.3e-4 2.84441,-4.92686 -1.69141,-2.92779 -1.6901,2.92726 2.84618,4.92712 5.69092,2.7e-4 1.691,-2.92914 -3.38288,0.002 -2.84441,4.92685 2.84549,4.92791 3.38213,-2.6e-4 -1.69133,-2.92724 h -5.69107 l -2.8451,4.92764 1.69021,2.92829 1.6913,-2.92776 -2.84534,-4.92817 -5.691758,8e-4 -1.69033,2.92722 3.38221,-2.4e-4 2.8451,-4.92765 -2.84603,-4.92738 z"
       id="path420"
       inkscape:connector-curvature="0" />
    <path
       style="fill:none;stroke:#3465a4;stroke-width:0.264583px;stroke-linecap:butt;stroke-linejoin:miter;stroke-opacity:1"
       d="m 90.451552,119.54488 2.30878,10e-6 2.84603,4.92738 -1.154,1.99987 2.30878,1e-5 1.15462,1.99959 1.15431,-1.99959 h 5.691068 l 1.15462,1.99959 1.15431,-1.99959 2.30964,-1.4e-4 -1.15486,-2.00027 2.8451,-4.92764 2.30964,-1.4e-4 -1.15486,-2.00027 1.15477,-2.00041 -2.3094,2.7e-4 -2.84618,-4.92713 1.15477,-2.0004 -2.3094,2.6e-4 -1.15446,-1.99986 -1.15462,2.00013 -5.690918,-2.6e-4 -1.15446,-1.99986 -1.15462,2.00013 -2.30948,2.6e-4 1.1547,2.00014 -2.8451,4.92765 -2.30948,2.6e-4 1.1547,2.00014 z"
       id="path422"
       inkscape:connector-curvature="0" />
    <path
       style="fill:none;stroke:#3465a4;stroke-width:0.264583px;stroke-linecap:butt;stroke-linejoin:miter;stroke-opacity:1"
       d="m 93.914752,110.6165 1.99959,-1.15462 10e-6,-2.30878 1.99987,1.154 2.00014,-1.1547 2.6e-4,2.30948 3.999718,2.30893 0.001,4.61833 3.99972,2.30893 5.3e-4,4.61912 2.00013,1.15462 -1.99986,1.15446 2.6e-4,2.3094 -2.00041,-1.15477 -2.00027,1.15486 -1.4e-4,-2.30964 -3.999718,-2.30893 -5.3e-4,-4.61912 -4.00041,-2.30814 -5.3e-4,-4.61912 z"
       id="path424"
       inkscape:connector-curvature="0" />
    <path
       inkscape:connector-curvature="0"
       id="path426"
       d="m 103.91447,107.15165 1.99972,1.15439 1.99947,-1.15438 5.4e-4,2.30894 2.00007,1.15482 -1.99994,1.15496 2.7e-4,4.61833 -3.99909,2.31003 2.7e-4,4.61832 -4.000008,2.31002 1.3e-4,2.30948 -1.99972,-1.1547 -1.99987,1.15492 -1.4e-4,-2.30979 -2.00028,-1.15485 2.00014,-1.15495 -2.7e-4,-4.61832 4.00001,-2.31002 -0.001,-4.61853 4.000008,-2.31001 z"
       style="fill:none;stroke:#3465a4;stroke-width:0.264583px;stroke-linecap:butt;stroke-linejoin:miter;stroke-opacity:1" />
    <path
       style="fill:none;stroke:#3465a4;stroke-width:0.264583px;stroke-linecap:butt;stroke-linejoin:miter;stroke-opacity:1"
       d="m 111.915,114.07947 1.3e-4,2.309 1.99946,1.1544 -1.99933,1.15494 -7e-5,2.30952 -2.00019,-1.15452 -3.99946,2.3094 -4.00009,-2.3083 -3.999448,2.3094 -4.00054,-2.3091 -2,1.15485 1.4e-4,-2.30916 -2.00013,-1.15448 2.00027,-1.15501 -10e-6,-2.30972 2.00029,1.1547 3.99944,-2.3094 4.000538,2.3091 3.99927,-2.31013 4.00053,2.30911 z"
       id="path428"
       inkscape:connector-curvature="0" />
    <path
       style="fill:none;stroke:#3465a4;stroke-width:0.264583px;stroke-linecap:butt;stroke-linejoin:miter;stroke-opacity:1"
       d="m 96.224042,117.54448 2.8451,-4.92764 h 5.691068 l 2.84603,4.92738 -2.8451,4.92765 -5.690918,-2.6e-4 z"
       id="path430"
       inkscape:connector-curvature="0" />
    <path
       style="fill:none;stroke:#3465a4;stroke-width:0.264583px;stroke-linecap:butt;stroke-linejoin:miter;stroke-opacity:1"
       d="m 111.91407,122.07926 3e-5,-1.07208 0.92872,0.53578 z"
       id="path432"
       inkscape:connector-curvature="0" />
    <path
       inkscape:connector-curvature="0"
       id="path434"
       d="m 110.84383,123.93508 -3e-5,1.07207 -0.92872,-0.53578 z"
       style="fill:none;stroke:#3465a4;stroke-width:0.264583px;stroke-linecap:butt;stroke-linejoin:miter;stroke-opacity:1" />
    <path
       style="fill:none;stroke:#3465a4;stroke-width:0.264583px;stroke-linecap:butt;stroke-linejoin:miter;stroke-opacity:1"
       d="m 74.469665,101.6601 1.68971,2.92653 5.691608,-5.3e-4 2.84441,-4.926856 -1.69141,-2.92779 -1.6901,2.92726 2.84618,4.927116 5.69092,2.7e-4 1.691,-2.92914 -3.38288,0.002 -2.84441,4.92685 2.84549,4.92791 3.38213,-2.6e-4 -1.69133,-2.92724 h -5.69107 l -2.8451,4.92764 1.69021,2.92829 1.6913,-2.92776 -2.84534,-4.92817 -5.691758,8e-4 -1.69033,2.92722 3.38221,-2.4e-4 2.8451,-4.92765 -2.84603,-4.92738 z"
       id="path438"
       inkscape:connector-curvature="0" />
    <path
       style="fill:none;stroke:#3465a4;stroke-width:0.264583px;stroke-linecap:butt;stroke-linejoin:miter;stroke-opacity:1"
       d="m 71.541515,108.58717 2.30878,1e-5 2.84603,4.92738 -1.154,1.99987 2.30878,10e-6 1.15462,1.99959 1.15431,-1.99959 h 5.691068 l 1.15462,1.99959 1.15431,-1.99959 2.30964,-1.4e-4 -1.15486,-2.00027 2.8451,-4.92764 2.30964,-1.4e-4 -1.15486,-2.00027 1.15477,-2.00041 -2.3094,2.7e-4 -2.84618,-4.927126 1.15477,-2.0004 -2.3094,2.6e-4 -1.15446,-1.99986 -1.15462,2.00013 -5.690918,-2.6e-4 -1.15446,-1.99986 -1.15462,2.00013 -2.30948,2.6e-4 1.1547,2.00014 -2.8451,4.927646 -2.30948,2.6e-4 1.1547,2.00014 z"
       id="path440"
       inkscape:connector-curvature="0" />
    <path
       style="fill:none;stroke:#3465a4;stroke-width:0.264583px;stroke-linecap:butt;stroke-linejoin:miter;stroke-opacity:1"
       d="m 75.004715,99.658794 1.99959,-1.15462 1e-5,-2.30878 1.99987,1.154 2.00014,-1.1547 2.6e-4,2.30948 3.999718,2.308926 0.001,4.61833 3.99972,2.30893 5.3e-4,4.61912 2.00013,1.15462 -1.99986,1.15446 2.6e-4,2.3094 -2.00041,-1.15477 -2.00027,1.15486 -1.4e-4,-2.30964 -3.999718,-2.30893 -5.3e-4,-4.61912 -4.00041,-2.30814 -5.3e-4,-4.61912 z"
       id="path442"
       inkscape:connector-curvature="0" />
    <path
       inkscape:connector-curvature="0"
       id="path444"
       d="m 85.004433,96.193944 1.99972,1.15439 1.99947,-1.15438 5.4e-4,2.30894 2.00007,1.15482 -1.99994,1.154956 2.7e-4,4.61833 -3.99909,2.31003 2.7e-4,4.61832 -4.000008,2.31002 1.3e-4,2.30948 -1.99972,-1.1547 -1.99987,1.15492 -1.4e-4,-2.30979 -2.00028,-1.15485 2.00014,-1.15495 -2.7e-4,-4.61832 4.00001,-2.31002 -0.001,-4.61853 4.000008,-2.310006 z"
       style="fill:none;stroke:#3465a4;stroke-width:0.264583px;stroke-linecap:butt;stroke-linejoin:miter;stroke-opacity:1" />
    <path
       style="fill:none;stroke:#3465a4;stroke-width:0.264583px;stroke-linecap:butt;stroke-linejoin:miter;stroke-opacity:1"
       d="m 93.004963,103.12176 1.3e-4,2.309 1.99946,1.1544 -1.99933,1.15494 -7e-5,2.30952 -2.00019,-1.15452 -3.99946,2.3094 -4.00009,-2.3083 -3.999448,2.3094 -4.00054,-2.3091 -2,1.15485 1.4e-4,-2.30916 -2.00013,-1.15448 2.00027,-1.15501 -1e-5,-2.30972 2.00029,1.1547 3.99944,-2.3094 4.000538,2.3091 3.99927,-2.31013 4.00053,2.30911 z"
       id="path446"
       inkscape:connector-curvature="0" />
    <path
       style="fill:none;stroke:#3465a4;stroke-width:0.264583px;stroke-linecap:butt;stroke-linejoin:miter;stroke-opacity:1"
       d="m 77.314005,106.58677 2.8451,-4.92764 h 5.691068 l 2.84603,4.92738 -2.8451,4.92765 -5.690918,-2.6e-4 z"
       id="path448"
       inkscape:connector-curvature="0" />
    <path
       style="fill:none;stroke:#3465a4;stroke-width:0.264583px;stroke-linecap:butt;stroke-linejoin:miter;stroke-opacity:1"
       d="m 93.004033,111.12155 3e-5,-1.07208 0.92872,0.53578 z"
       id="path450"
       inkscape:connector-curvature="0" />
    <path
       inkscape:connector-curvature="0"
       id="path452"
       d="m 91.933793,112.97737 -3e-5,1.07207 -0.92872,-0.53578 z"
       style="fill:none;stroke:#3465a4;stroke-width:0.264583px;stroke-linecap:butt;stroke-linejoin:miter;stroke-opacity:1" />
    <path
       inkscape:connector-curvature="0"
       id="path454"
       d="m 92.986213,103.15312 3e-5,-1.07208 0.92872,0.53578 z"
       style="fill:none;stroke:#3465a4;stroke-width:0.264583px;stroke-linecap:butt;stroke-linejoin:miter;stroke-opacity:1" />
    <path
       style="fill:none;stroke:#3465a4;stroke-width:0.264583px;stroke-linecap:butt;stroke-linejoin:miter;stroke-opacity:1"
       d="m 91.914533,99.153742 -3e-5,1.072068 -0.92872,-0.535778 z"
       id="path456"
       inkscape:connector-curvature="0" />
    <path
       style="fill:none;stroke:#3465a4;stroke-width:0.264583px;stroke-linecap:butt;stroke-linejoin:miter;stroke-opacity:1"
       d="m 110.84279,81.29758 -3e-5,-1.07207 -0.92872,0.53578 z"
       id="path716"
       inkscape:connector-curvature="0" />
    <path
       inkscape:connector-curvature="0"
       id="path718"
       d="m 112.8428,77.83343 -0.92846,-0.53601 -3.6e-4,1.07219 z"
       style="fill:none;stroke:#3465a4;stroke-width:0.264583px;stroke-linecap:butt;stroke-linejoin:miter;stroke-opacity:1" />
    <path
       inkscape:connector-curvature="0"
       id="path720"
       d="m 112.30661,89.68776 1.68971,-2.92653 5.69161,5.3e-4 2.84441,4.926858 -1.69141,2.92779 -1.6901,-2.92726 2.84618,-4.927118 5.69092,-2.7e-4 1.691,2.92914 -3.38288,-0.002 -2.84441,-4.92685 2.84549,-4.92791 3.38213,2.6e-4 -1.69133,2.92724 h -5.69107 l -2.8451,-4.92764 1.69021,-2.92829 1.6913,2.92776 -2.84534,4.92817 -5.69176,-8e-4 -1.69033,-2.92722 3.38221,2.4e-4 2.8451,4.92765 -2.84603,4.92738 z"
       style="fill:none;stroke:#3465a4;stroke-width:0.264583px;stroke-linecap:butt;stroke-linejoin:miter;stroke-opacity:1" />
    <path
       inkscape:connector-curvature="0"
       id="path722"
       d="m 109.37846,82.76069 2.30878,-1e-5 2.84603,-4.92738 -1.154,-1.99987 2.30878,-1e-5 1.15462,-1.99959 1.15431,1.99959 h 5.69107 l 1.15462,-1.99959 1.15431,1.99959 2.30964,1.4e-4 -1.15486,2.00027 2.8451,4.92764 2.30964,1.4e-4 -1.15486,2.00027 1.15477,2.00041 -2.3094,-2.7e-4 -2.84618,4.927128 1.15477,2.0004 -2.3094,-2.6e-4 -1.15446,1.99986 -1.15462,-2.00013 -5.69092,2.6e-4 -1.15446,1.99986 -1.15462,-2.00013 -2.30948,-2.6e-4 1.1547,-2.00014 -2.8451,-4.927648 -2.30948,-2.6e-4 1.1547,-2.00014 z"
       style="fill:none;stroke:#3465a4;stroke-width:0.264583px;stroke-linecap:butt;stroke-linejoin:miter;stroke-opacity:1" />
    <path
       inkscape:connector-curvature="0"
       id="path724"
       d="m 112.84166,91.689068 1.99959,1.15462 1e-5,2.30878 1.99987,-1.154 2.00014,1.1547 2.6e-4,-2.30948 3.99972,-2.308928 0.001,-4.61833 3.99972,-2.30893 5.3e-4,-4.61912 2.00013,-1.15462 -1.99986,-1.15446 2.6e-4,-2.3094 -2.00041,1.15477 -2.00027,-1.15486 -1.4e-4,2.30964 -3.99972,2.30893 -5.3e-4,4.61912 -4.00041,2.30814 -5.3e-4,4.61912 z"
       style="fill:none;stroke:#3465a4;stroke-width:0.264583px;stroke-linecap:butt;stroke-linejoin:miter;stroke-opacity:1" />
    <path
       style="fill:none;stroke:#3465a4;stroke-width:0.264583px;stroke-linecap:butt;stroke-linejoin:miter;stroke-opacity:1"
       d="m 122.84138,95.153918 1.99972,-1.15439 1.99947,1.15438 5.4e-4,-2.30894 2.00007,-1.15482 -1.99994,-1.154958 2.7e-4,-4.61833 -3.99909,-2.31003 2.7e-4,-4.61832 -4.00001,-2.31002 1.3e-4,-2.30948 -1.99972,1.1547 -1.99987,-1.15492 -1.4e-4,2.30979 -2.00028,1.15485 2.00014,1.15495 -2.7e-4,4.61832 4.00001,2.31002 -0.001,4.61853 4.00001,2.310008 z"
       id="path726"
       inkscape:connector-curvature="0" />
    <path
       inkscape:connector-curvature="0"
       id="path728"
       d="m 130.84191,88.2261 1.3e-4,-2.309 1.99946,-1.1544 -1.99933,-1.15494 -7e-5,-2.30952 -2.00019,1.15452 -3.99946,-2.3094 -4.00009,2.3083 -3.99945,-2.3094 -4.00054,2.3091 -2,-1.15485 1.4e-4,2.30916 -2.00013,1.15448 2.00027,1.15501 -1e-5,2.30972 2.00029,-1.1547 3.99944,2.3094 4.00054,-2.3091 3.99927,2.31013 4.00053,-2.30911 z"
       style="fill:none;stroke:#3465a4;stroke-width:0.264583px;stroke-linecap:butt;stroke-linejoin:miter;stroke-opacity:1" />
    <path
       inkscape:connector-curvature="0"
       id="path730"
       d="m 115.15095,84.76109 2.8451,4.92764 h 5.69107 l 2.84603,-4.92738 -2.8451,-4.92765 -5.69092,2.6e-4 z"
       style="fill:none;stroke:#3465a4;stroke-width:0.264583px;stroke-linecap:butt;stroke-linejoin:miter;stroke-opacity:1" />
    <path
       inkscape:connector-curvature="0"
       id="path732"
       d="m 122.84138,95.153918 1.99972,-1.15439 1.99947,1.15438 5.4e-4,-2.30894 2.00007,-1.15482 -1.99994,-1.154958 2.7e-4,-4.61833 -3.99909,-2.31003 2.7e-4,-4.61832 -4.00001,-2.31002 1.3e-4,-2.30948 -1.99972,1.1547 -1.99987,-1.15492 -1.4e-4,2.30979 -2.00028,1.15485 2.00014,1.15495 -2.7e-4,4.61832 4.00001,2.31002 -0.001,4.61853 4.00001,2.310008 z"
       style="fill:none;stroke:#3465a4;stroke-width:0.264583px;stroke-linecap:butt;stroke-linejoin:miter;stroke-opacity:1" />
    <path
       style="fill:none;stroke:#3465a4;stroke-width:0.264583px;stroke-linecap:butt;stroke-linejoin:miter;stroke-opacity:1"
       d="m 93.379472,78.7589 1.68971,-2.92653 5.691608,5.3e-4 2.84441,4.92686 -1.69141,2.92779 -1.6901,-2.92726 2.84618,-4.92712 5.69092,-2.7e-4 1.691,2.92914 -3.38288,-0.002 -2.84441,-4.92685 2.84549,-4.92791 3.38213,2.6e-4 -1.69133,2.92724 h -5.69107 l -2.8451,-4.92764 1.69021,-2.92829 1.6913,2.92776 -2.84534,4.92817 -5.691758,-8e-4 -1.69033,-2.92722 3.38221,2.4e-4 2.8451,4.92765 -2.84603,4.92738 z"
       id="path734"
       inkscape:connector-curvature="0" />
    <path
       style="fill:none;stroke:#3465a4;stroke-width:0.264583px;stroke-linecap:butt;stroke-linejoin:miter;stroke-opacity:1"
       d="m 90.451322,71.83183 2.30878,-1e-5 2.84603,-4.92738 -1.154,-1.99987 2.30878,-1e-5 1.15462,-1.99959 1.15431,1.99959 h 5.691068 l 1.15462,-1.99959 1.15431,1.99959 2.30964,1.4e-4 -1.15486,2.00027 2.8451,4.92764 2.30964,1.4e-4 -1.15486,2.00027 1.15477,2.00041 -2.3094,-2.7e-4 -2.84618,4.92713 1.15477,2.0004 -2.3094,-2.6e-4 -1.15446,1.99986 -1.15462,-2.00013 -5.690918,2.6e-4 -1.15446,1.99986 -1.15462,-2.00013 -2.30948,-2.6e-4 1.1547,-2.00014 -2.8451,-4.92765 -2.30948,-2.6e-4 1.1547,-2.00014 z"
       id="path736"
       inkscape:connector-curvature="0" />
    <path
       style="fill:none;stroke:#3465a4;stroke-width:0.264583px;stroke-linecap:butt;stroke-linejoin:miter;stroke-opacity:1"
       d="m 93.914522,80.76021 1.99959,1.15462 1e-5,2.30878 1.99987,-1.154 2.00014,1.1547 2.6e-4,-2.30948 3.999718,-2.30893 0.001,-4.61833 3.99972,-2.30893 5.3e-4,-4.61912 2.00013,-1.15462 -1.99986,-1.15446 2.6e-4,-2.3094 -2.00041,1.15477 -2.00027,-1.15486 -1.4e-4,2.30964 -3.999718,2.30893 -5.3e-4,4.61912 -4.00041,2.30814 -5.3e-4,4.61912 z"
       id="path738"
       inkscape:connector-curvature="0" />
    <path
       inkscape:connector-curvature="0"
       id="path740"
       d="m 103.91424,84.22506 1.99972,-1.15439 1.99947,1.15438 5.4e-4,-2.30894 2.00007,-1.15482 -1.99994,-1.15496 2.7e-4,-4.61833 -3.99909,-2.31003 2.7e-4,-4.61832 -4.000008,-2.31002 1.3e-4,-2.30948 -1.99972,1.1547 -1.99987,-1.15492 -1.4e-4,2.30979 -2.00028,1.15485 2.00014,1.15495 -2.7e-4,4.61832 4.00001,2.31002 -0.001,4.61853 4.000008,2.31001 z"
       style="fill:none;stroke:#3465a4;stroke-width:0.264583px;stroke-linecap:butt;stroke-linejoin:miter;stroke-opacity:1" />
    <path
       style="fill:none;stroke:#3465a4;stroke-width:0.264583px;stroke-linecap:butt;stroke-linejoin:miter;stroke-opacity:1"
       d="m 111.91477,77.29724 1.3e-4,-2.309 1.99946,-1.1544 -1.99933,-1.15494 -7e-5,-2.30952 -2.00019,1.15452 -3.99946,-2.3094 -4.00009,2.3083 -3.999448,-2.3094 -4.00054,2.3091 -2,-1.15485 1.4e-4,2.30916 -2.00013,1.15448 2.00027,1.15501 -1e-5,2.30972 2.00029,-1.1547 3.99944,2.3094 4.000538,-2.3091 3.99927,2.31013 4.00053,-2.30911 z"
       id="path742"
       inkscape:connector-curvature="0" />
    <path
       style="fill:none;stroke:#3465a4;stroke-width:0.264583px;stroke-linecap:butt;stroke-linejoin:miter;stroke-opacity:1"
       d="m 96.223812,73.83223 2.8451,4.92764 h 5.691068 l 2.84603,-4.92738 -2.8451,-4.92765 -5.690918,2.6e-4 z"
       id="path744"
       inkscape:connector-curvature="0" />
    <path
       style="fill:none;stroke:#3465a4;stroke-width:0.264583px;stroke-linecap:butt;stroke-linejoin:miter;stroke-opacity:1"
       d="m 111.91384,69.29745 3e-5,1.07208 0.92872,-0.53578 z"
       id="path746"
       inkscape:connector-curvature="0" />
    <path
       inkscape:connector-curvature="0"
       id="path748"
       d="m 110.8436,67.44163 -3e-5,-1.07207 -0.92872,0.53578 z"
       style="fill:none;stroke:#3465a4;stroke-width:0.264583px;stroke-linecap:butt;stroke-linejoin:miter;stroke-opacity:1" />
    <path
       style="fill:none;stroke:#3465a4;stroke-width:0.264583px;stroke-linecap:butt;stroke-linejoin:miter;stroke-opacity:1"
       d="m 74.469435,89.71661 1.68971,-2.92653 5.691608,5.3e-4 2.84441,4.926856 -1.69141,2.92779 -1.6901,-2.92726 2.84618,-4.927116 5.69092,-2.7e-4 1.691,2.92914 -3.38288,-0.002 -2.84441,-4.92685 2.84549,-4.92791 3.38213,2.6e-4 -1.69133,2.92724 h -5.69107 l -2.8451,-4.92764 1.69021,-2.92829 1.6913,2.92776 -2.84534,4.92817 -5.691758,-8e-4 -1.69033,-2.92722 3.38221,2.4e-4 2.8451,4.92765 -2.84603,4.92738 z"
       id="path750"
       inkscape:connector-curvature="0" />
    <path
       style="fill:none;stroke:#3465a4;stroke-width:0.264583px;stroke-linecap:butt;stroke-linejoin:miter;stroke-opacity:1"
       d="m 71.541285,82.78954 2.30878,-1e-5 2.84603,-4.92738 -1.154,-1.99987 2.30878,-1e-5 1.15462,-1.99959 1.15431,1.99959 h 5.691068 l 1.15462,-1.99959 1.15431,1.99959 2.30964,1.4e-4 -1.15486,2.00027 2.8451,4.92764 2.30964,1.4e-4 -1.15486,2.00027 1.15477,2.00041 -2.3094,-2.7e-4 -2.84618,4.927126 1.15477,2.0004 -2.3094,-2.6e-4 -1.15446,1.99986 -1.15462,-2.00013 -5.690918,2.6e-4 -1.15446,1.99986 -1.15462,-2.00013 -2.30948,-2.6e-4 1.1547,-2.00014 -2.8451,-4.927646 -2.30948,-2.6e-4 1.1547,-2.00014 z"
       id="path752"
       inkscape:connector-curvature="0" />
    <path
       style="fill:none;stroke:#3465a4;stroke-width:0.264583px;stroke-linecap:butt;stroke-linejoin:miter;stroke-opacity:1"
       d="m 75.004485,91.717916 1.99959,1.15462 1e-5,2.30878 1.99987,-1.154 2.00014,1.1547 2.6e-4,-2.30948 3.999718,-2.308926 10e-4,-4.61833 3.99972,-2.30893 5.3e-4,-4.61912 2.00013,-1.15462 -1.99986,-1.15446 2.6e-4,-2.3094 -2.00041,1.15477 -2.00027,-1.15486 -1.4e-4,2.30964 -3.999718,2.30893 -5.3e-4,4.61912 -4.00041,2.30814 -5.3e-4,4.61912 z"
       id="path754"
       inkscape:connector-curvature="0" />
    <path
       inkscape:connector-curvature="0"
       id="path756"
       d="m 85.004203,95.182766 1.99972,-1.15439 1.99947,1.15438 5.4e-4,-2.30894 2.00007,-1.15482 -1.99994,-1.154956 2.7e-4,-4.61833 -3.99909,-2.31003 2.7e-4,-4.61832 -4.000008,-2.31002 1.3e-4,-2.30948 -1.99972,1.1547 -1.99987,-1.15492 -1.4e-4,2.30979 -2.00028,1.15485 2.00014,1.15495 -2.7e-4,4.61832 4.00001,2.31002 -0.001,4.61853 4.000008,2.310006 z"
       style="fill:none;stroke:#3465a4;stroke-width:0.264583px;stroke-linecap:butt;stroke-linejoin:miter;stroke-opacity:1" />
    <path
       style="fill:none;stroke:#3465a4;stroke-width:0.264583px;stroke-linecap:butt;stroke-linejoin:miter;stroke-opacity:1"
       d="m 93.004733,88.25495 1.3e-4,-2.309 1.99946,-1.1544 -1.99933,-1.15494 -7e-5,-2.30952 -2.00019,1.15452 -3.99946,-2.3094 -4.00009,2.3083 -3.999448,-2.3094 -4.00054,2.3091 -2,-1.15485 1.4e-4,2.30916 -2.00013,1.15448 2.00027,1.15501 -1e-5,2.30972 2.00029,-1.1547 3.99944,2.3094 4.000538,-2.3091 3.99927,2.31013 4.00053,-2.30911 z"
       id="path758"
       inkscape:connector-curvature="0" />
    <path
       style="fill:none;stroke:#3465a4;stroke-width:0.264583px;stroke-linecap:butt;stroke-linejoin:miter;stroke-opacity:1"
       d="m 77.313775,84.78994 2.8451,4.92764 h 5.691068 l 2.84603,-4.92738 -2.8451,-4.92765 -5.690918,2.6e-4 z"
       id="path760"
       inkscape:connector-curvature="0" />
    <path
       style="fill:none;stroke:#3465a4;stroke-width:0.264583px;stroke-linecap:butt;stroke-linejoin:miter;stroke-opacity:1"
       d="m 93.003803,80.25516 3e-5,1.07208 0.92872,-0.53578 z"
       id="path762"
       inkscape:connector-curvature="0" />
    <path
       inkscape:connector-curvature="0"
       id="path764"
       d="m 91.933563,78.39934 -3e-5,-1.07207 -0.92872,0.53578 z"
       style="fill:none;stroke:#3465a4;stroke-width:0.264583px;stroke-linecap:butt;stroke-linejoin:miter;stroke-opacity:1" />
    <path
       inkscape:connector-curvature="0"
       id="path766"
       d="m 92.985983,88.22359 3e-5,1.07208 0.92872,-0.53578 z"
       style="fill:none;stroke:#3465a4;stroke-width:0.264583px;stroke-linecap:butt;stroke-linejoin:miter;stroke-opacity:1" />
    <path
       style="fill:none;stroke:#3465a4;stroke-width:0.264583px;stroke-linecap:butt;stroke-linejoin:miter;stroke-opacity:1"
       d="m 91.914303,92.222968 -3e-5,-1.072068 -0.92872,0.535778 z"
       id="path768"
       inkscape:connector-curvature="0" />
    <path
       style="fill:none;stroke:#3465a4;stroke-width:0.264583px;stroke-linecap:butt;stroke-linejoin:miter;stroke-opacity:1"
       d="m 112.30661,89.68776 1.68971,-2.92653 5.69161,5.3e-4 2.84441,4.926858 -1.69141,2.92779 -1.6901,-2.92726 2.84618,-4.927118 5.69092,-2.7e-4 1.691,2.92914 -3.38288,-0.002 -2.84441,-4.92685 2.84549,-4.92791 3.38213,2.6e-4 -1.69133,2.92724 h -5.69107 l -2.8451,-4.92764 1.69021,-2.92829 1.6913,2.92776 -2.84534,4.92817 -5.69176,-8e-4 -1.69033,-2.92722 3.38221,2.4e-4 2.8451,4.92765 -2.84603,4.92738 z"
       id="path770"
       inkscape:connector-curvature="0" />
    <path
       style="fill:none;stroke:#3465a4;stroke-width:0.264583px;stroke-linecap:butt;stroke-linejoin:miter;stroke-opacity:1"
       d="m 109.37846,82.76069 2.30878,-1e-5 2.84603,-4.92738 -1.154,-1.99987 2.30878,-1e-5 1.15462,-1.99959 1.15431,1.99959 h 5.69107 l 1.15462,-1.99959 1.15431,1.99959 2.30964,1.4e-4 -1.15486,2.00027 2.8451,4.92764 2.30964,1.4e-4 -1.15486,2.00027 1.15477,2.00041 -2.3094,-2.7e-4 -2.84618,4.927128 1.15477,2.0004 -2.3094,-2.6e-4 -1.15446,1.99986 -1.15462,-2.00013 -5.69092,2.6e-4 -1.15446,1.99986 -1.15462,-2.00013 -2.30948,-2.6e-4 1.1547,-2.00014 -2.8451,-4.927648 -2.30948,-2.6e-4 1.1547,-2.00014 z"
       id="path772"
       inkscape:connector-curvature="0" />
    <path
       style="fill:none;stroke:#3465a4;stroke-width:0.264583px;stroke-linecap:butt;stroke-linejoin:miter;stroke-opacity:1"
       d="m 112.84166,91.689068 1.99959,1.15462 1e-5,2.30878 1.99987,-1.154 2.00014,1.1547 2.6e-4,-2.30948 3.99972,-2.308928 0.001,-4.61833 3.99972,-2.30893 5.3e-4,-4.61912 2.00013,-1.15462 -1.99986,-1.15446 2.6e-4,-2.3094 -2.00041,1.15477 -2.00027,-1.15486 -1.4e-4,2.30964 -3.99972,2.30893 -5.3e-4,4.61912 -4.00041,2.30814 -5.3e-4,4.61912 z"
       id="path774"
       inkscape:connector-curvature="0" />
    <path
       inkscape:connector-curvature="0"
       id="path776"
       d="m 122.84138,95.153918 1.99972,-1.15439 1.99947,1.15438 5.4e-4,-2.30894 2.00007,-1.15482 -1.99994,-1.154958 2.7e-4,-4.61833 -3.99909,-2.31003 2.7e-4,-4.61832 -4.00001,-2.31002 1.3e-4,-2.30948 -1.99972,1.1547 -1.99987,-1.15492 -1.4e-4,2.30979 -2.00028,1.15485 2.00014,1.15495 -2.7e-4,4.61832 4.00001,2.31002 -0.001,4.61853 4.00001,2.310008 z"
       style="fill:none;stroke:#3465a4;stroke-width:0.264583px;stroke-linecap:butt;stroke-linejoin:miter;stroke-opacity:1" />
    <path
       style="fill:none;stroke:#3465a4;stroke-width:0.264583px;stroke-linecap:butt;stroke-linejoin:miter;stroke-opacity:1"
       d="m 130.84191,88.2261 1.3e-4,-2.309 1.99946,-1.1544 -1.99933,-1.15494 -7e-5,-2.30952 -2.00019,1.15452 -3.99946,-2.3094 -4.00009,2.3083 -3.99945,-2.3094 -4.00054,2.3091 -2,-1.15485 1.4e-4,2.30916 -2.00013,1.15448 2.00027,1.15501 -1e-5,2.30972 2.00029,-1.1547 3.99944,2.3094 4.00054,-2.3091 3.99927,2.31013 4.00053,-2.30911 z"
       id="path778"
       inkscape:connector-curvature="0" />
    <path
       style="fill:none;stroke:#3465a4;stroke-width:0.264583px;stroke-linecap:butt;stroke-linejoin:miter;stroke-opacity:1"
       d="m 115.15095,84.76109 2.8451,4.92764 h 5.69107 l 2.84603,-4.92738 -2.8451,-4.92765 -5.69092,2.6e-4 z"
       id="path780"
       inkscape:connector-curvature="0" />
    <path
       style="fill:none;stroke:#3465a4;stroke-width:0.264583px;stroke-linecap:butt;stroke-linejoin:miter;stroke-opacity:1"
       d="m 122.84138,95.153918 1.99972,-1.15439 1.99947,1.15438 5.4e-4,-2.30894 2.00007,-1.15482 -1.99994,-1.154958 2.7e-4,-4.61833 -3.99909,-2.31003 2.7e-4,-4.61832 -4.00001,-2.31002 1.3e-4,-2.30948 -1.99972,1.1547 -1.99987,-1.15492 -1.4e-4,2.30979 -2.00028,1.15485 2.00014,1.15495 -2.7e-4,4.61832 4.00001,2.31002 -0.001,4.61853 4.00001,2.310008 z"
       id="path782"
       inkscape:connector-curvature="0" />
    <path
       inkscape:connector-curvature="0"
       id="path784"
       d="m 93.379472,78.7589 1.68971,-2.92653 5.691608,5.3e-4 2.84441,4.92686 -1.69141,2.92779 -1.6901,-2.92726 2.84618,-4.92712 5.69092,-2.7e-4 1.691,2.92914 -3.38288,-0.002 -2.84441,-4.92685 2.84549,-4.92791 3.38213,2.6e-4 -1.69133,2.92724 h -5.69107 l -2.8451,-4.92764 1.69021,-2.92829 1.6913,2.92776 -2.84534,4.92817 -5.691758,-8e-4 -1.69033,-2.92722 3.38221,2.4e-4 2.8451,4.92765 -2.84603,4.92738 z"
       style="fill:none;stroke:#3465a4;stroke-width:0.264583px;stroke-linecap:butt;stroke-linejoin:miter;stroke-opacity:1" />
    <path
       inkscape:connector-curvature="0"
       id="path786"
       d="m 90.451322,71.83183 2.30878,-1e-5 2.84603,-4.92738 -1.154,-1.99987 2.30878,-1e-5 1.15462,-1.99959 1.15431,1.99959 h 5.691068 l 1.15462,-1.99959 1.15431,1.99959 2.30964,1.4e-4 -1.15486,2.00027 2.8451,4.92764 2.30964,1.4e-4 -1.15486,2.00027 1.15477,2.00041 -2.3094,-2.7e-4 -2.84618,4.92713 1.15477,2.0004 -2.3094,-2.6e-4 -1.15446,1.99986 -1.15462,-2.00013 -5.690918,2.6e-4 -1.15446,1.99986 -1.15462,-2.00013 -2.30948,-2.6e-4 1.1547,-2.00014 -2.8451,-4.92765 -2.30948,-2.6e-4 1.1547,-2.00014 z"
       style="fill:none;stroke:#3465a4;stroke-width:0.264583px;stroke-linecap:butt;stroke-linejoin:miter;stroke-opacity:1" />
    <path
       inkscape:connector-curvature="0"
       id="path788"
       d="m 93.914522,80.76021 1.99959,1.15462 1e-5,2.30878 1.99987,-1.154 2.00014,1.1547 2.6e-4,-2.30948 3.999718,-2.30893 0.001,-4.61833 3.99972,-2.30893 5.3e-4,-4.61912 2.00013,-1.15462 -1.99986,-1.15446 2.6e-4,-2.3094 -2.00041,1.15477 -2.00027,-1.15486 -1.4e-4,2.30964 -3.999718,2.30893 -5.3e-4,4.61912 -4.00041,2.30814 -5.3e-4,4.61912 z"
       style="fill:none;stroke:#3465a4;stroke-width:0.264583px;stroke-linecap:butt;stroke-linejoin:miter;stroke-opacity:1" />
    <path
       style="fill:none;stroke:#3465a4;stroke-width:0.264583px;stroke-linecap:butt;stroke-linejoin:miter;stroke-opacity:1"
       d="m 103.91424,84.22506 1.99972,-1.15439 1.99947,1.15438 5.4e-4,-2.30894 2.00007,-1.15482 -1.99994,-1.15496 2.7e-4,-4.61833 -3.99909,-2.31003 2.7e-4,-4.61832 -4.000008,-2.31002 1.3e-4,-2.30948 -1.99972,1.1547 -1.99987,-1.15492 -1.4e-4,2.30979 -2.00028,1.15485 2.00014,1.15495 -2.7e-4,4.61832 4.00001,2.31002 -0.001,4.61853 4.000008,2.31001 z"
       id="path790"
       inkscape:connector-curvature="0" />
    <path
       inkscape:connector-curvature="0"
       id="path792"
       d="m 111.91477,77.29724 1.3e-4,-2.309 1.99946,-1.1544 -1.99933,-1.15494 -7e-5,-2.30952 -2.00019,1.15452 -3.99946,-2.3094 -4.00009,2.3083 -3.999448,-2.3094 -4.00054,2.3091 -2,-1.15485 1.4e-4,2.30916 -2.00013,1.15448 2.00027,1.15501 -1e-5,2.30972 2.00029,-1.1547 3.99944,2.3094 4.000538,-2.3091 3.99927,2.31013 4.00053,-2.30911 z"
       style="fill:none;stroke:#3465a4;stroke-width:0.264583px;stroke-linecap:butt;stroke-linejoin:miter;stroke-opacity:1" />
    <path
       inkscape:connector-curvature="0"
       id="path794"
       d="m 96.223812,73.83223 2.8451,4.92764 h 5.691068 l 2.84603,-4.92738 -2.8451,-4.92765 -5.690918,2.6e-4 z"
       style="fill:none;stroke:#3465a4;stroke-width:0.264583px;stroke-linecap:butt;stroke-linejoin:miter;stroke-opacity:1" />
    <path
       inkscape:connector-curvature="0"
       id="path796"
       d="m 111.91384,69.29745 3e-5,1.07208 0.92872,-0.53578 z"
       style="fill:none;stroke:#3465a4;stroke-width:0.264583px;stroke-linecap:butt;stroke-linejoin:miter;stroke-opacity:1" />
    <path
       style="fill:none;stroke:#3465a4;stroke-width:0.264583px;stroke-linecap:butt;stroke-linejoin:miter;stroke-opacity:1"
       d="m 110.8436,67.44163 -3e-5,-1.07207 -0.92872,0.53578 z"
       id="path798"
       inkscape:connector-curvature="0" />
    <path
       inkscape:connector-curvature="0"
       id="path800"
       d="m 74.469435,89.71661 1.68971,-2.92653 5.691608,5.3e-4 2.84441,4.926856 -1.69141,2.92779 -1.6901,-2.92726 2.84618,-4.927116 5.69092,-2.7e-4 1.691,2.92914 -3.38288,-0.002 -2.84441,-4.92685 2.84549,-4.92791 3.38213,2.6e-4 -1.69133,2.92724 h -5.69107 l -2.8451,-4.92764 1.69021,-2.92829 1.6913,2.92776 -2.84534,4.92817 -5.691758,-8e-4 -1.69033,-2.92722 3.38221,2.4e-4 2.8451,4.92765 -2.84603,4.92738 z"
       style="fill:none;stroke:#3465a4;stroke-width:0.264583px;stroke-linecap:butt;stroke-linejoin:miter;stroke-opacity:1" />
    <path
       inkscape:connector-curvature="0"
       id="path802"
       d="m 71.541285,82.78954 2.30878,-1e-5 2.84603,-4.92738 -1.154,-1.99987 2.30878,-1e-5 1.15462,-1.99959 1.15431,1.99959 h 5.691068 l 1.15462,-1.99959 1.15431,1.99959 2.30964,1.4e-4 -1.15486,2.00027 2.8451,4.92764 2.30964,1.4e-4 -1.15486,2.00027 1.15477,2.00041 -2.3094,-2.7e-4 -2.84618,4.927126 1.15477,2.0004 -2.3094,-2.6e-4 -1.15446,1.99986 -1.15462,-2.00013 -5.690918,2.6e-4 -1.15446,1.99986 -1.15462,-2.00013 -2.30948,-2.6e-4 1.1547,-2.00014 -2.8451,-4.927646 -2.30948,-2.6e-4 1.1547,-2.00014 z"
       style="fill:none;stroke:#3465a4;stroke-width:0.264583px;stroke-linecap:butt;stroke-linejoin:miter;stroke-opacity:1" />
    <path
       inkscape:connector-curvature="0"
       id="path804"
       d="m 75.004485,91.717916 1.99959,1.15462 1e-5,2.30878 1.99987,-1.154 2.00014,1.1547 2.6e-4,-2.30948 3.999718,-2.308926 10e-4,-4.61833 3.99972,-2.30893 5.3e-4,-4.61912 2.00013,-1.15462 -1.99986,-1.15446 2.6e-4,-2.3094 -2.00041,1.15477 -2.00027,-1.15486 -1.4e-4,2.30964 -3.999718,2.30893 -5.3e-4,4.61912 -4.00041,2.30814 -5.3e-4,4.61912 z"
       style="fill:none;stroke:#3465a4;stroke-width:0.264583px;stroke-linecap:butt;stroke-linejoin:miter;stroke-opacity:1" />
    <path
       style="fill:none;stroke:#3465a4;stroke-width:0.264583px;stroke-linecap:butt;stroke-linejoin:miter;stroke-opacity:1"
       d="m 85.004203,95.182766 1.99972,-1.15439 1.99947,1.15438 5.4e-4,-2.30894 2.00007,-1.15482 -1.99994,-1.154956 2.7e-4,-4.61833 -3.99909,-2.31003 2.7e-4,-4.61832 -4.000008,-2.31002 1.3e-4,-2.30948 -1.99972,1.1547 -1.99987,-1.15492 -1.4e-4,2.30979 -2.00028,1.15485 2.00014,1.15495 -2.7e-4,4.61832 4.00001,2.31002 -0.001,4.61853 4.000008,2.310006 z"
       id="path806"
       inkscape:connector-curvature="0" />
    <path
       inkscape:connector-curvature="0"
       id="path808"
       d="m 93.004733,88.25495 1.3e-4,-2.309 1.99946,-1.1544 -1.99933,-1.15494 -7e-5,-2.30952 -2.00019,1.15452 -3.99946,-2.3094 -4.00009,2.3083 -3.999448,-2.3094 -4.00054,2.3091 -2,-1.15485 1.4e-4,2.30916 -2.00013,1.15448 2.00027,1.15501 -1e-5,2.30972 2.00029,-1.1547 3.99944,2.3094 4.000538,-2.3091 3.99927,2.31013 4.00053,-2.30911 z"
       style="fill:none;stroke:#3465a4;stroke-width:0.264583px;stroke-linecap:butt;stroke-linejoin:miter;stroke-opacity:1" />
    <path
       inkscape:connector-curvature="0"
       id="path810"
       d="m 77.313775,84.78994 2.8451,4.92764 h 5.691068 l 2.84603,-4.92738 -2.8451,-4.92765 -5.690918,2.6e-4 z"
       style="fill:none;stroke:#3465a4;stroke-width:0.264583px;stroke-linecap:butt;stroke-linejoin:miter;stroke-opacity:1" />
    <path
       inkscape:connector-curvature="0"
       id="path812"
       d="m 93.003803,80.25516 3e-5,1.07208 0.92872,-0.53578 z"
       style="fill:none;stroke:#3465a4;stroke-width:0.264583px;stroke-linecap:butt;stroke-linejoin:miter;stroke-opacity:1" />
    <path
       style="fill:none;stroke:#3465a4;stroke-width:0.264583px;stroke-linecap:butt;stroke-linejoin:miter;stroke-opacity:1"
       d="m 91.933563,78.39934 -3e-5,-1.07207 -0.92872,0.53578 z"
       id="path814"
       inkscape:connector-curvature="0" />
    <path
       style="fill:none;stroke:#3465a4;stroke-width:0.264583px;stroke-linecap:butt;stroke-linejoin:miter;stroke-opacity:1"
       d="m 92.985983,88.22359 3e-5,1.07208 0.92872,-0.53578 z"
       id="path816"
       inkscape:connector-curvature="0" />
    <path
       inkscape:connector-curvature="0"
       id="path818"
       d="m 91.914303,92.222968 -3e-5,-1.072068 -0.92872,0.535778 z"
       style="fill:none;stroke:#3465a4;stroke-width:0.264583px;stroke-linecap:butt;stroke-linejoin:miter;stroke-opacity:1" />
  </g>
</svg>
