<svg xmlns="http://www.w3.org/2000/svg" viewBox="0 0 56.745 97.784" height="369.577" width="214.469"><path style="line-height:normal;font-variant-ligatures:normal;font-variant-position:normal;font-variant-caps:normal;font-variant-numeric:normal;font-variant-alternates:normal;font-variant-east-asian:normal;font-feature-settings:normal;font-variation-settings:normal;text-indent:0;text-align:start;text-decoration-line:none;text-decoration-style:solid;text-decoration-color:#000;text-transform:none;text-orientation:mixed;white-space:normal;shape-padding:0;shape-margin:0;inline-size:0;isolation:auto;mix-blend-mode:normal;solid-color:#000;solid-opacity:1" d="M1.252 95.613h.591v-.877l-.823.476zM.006 95.41l.555-.321-.564-.979-.56.97zM2.62 96.92l.56-.971h-1v.717zM-1.834 95.612h.573l.236-.408-.808-.468zM2.858 98.394l.823-.474-.938-.54-.236.408zM2.178 99.63h1.003l-.446-.773-.557.321zM-2.627 96.929l.455-.263v-.715l-1.02-.001zM-2.864 98.39l.345-.598-.233-.403-.923.533zM.902 100.565l.94.541-.001-1.14h-.593zM-3.19 99.629h1.018v-.45l-.569-.329zM-.007 101.469l.45-.78-.44-.253-.455.263zM-1.836 101.108l.924-.533-.352-.608h-.572z" color="#000" font-weight="400" font-family="sans-serif" overflow="visible" fill="#d3d7cf" stroke="#666" stroke-width=".014" stroke-linecap="square"/><path style="line-height:normal;font-variant-ligatures:normal;font-variant-position:normal;font-variant-caps:normal;font-variant-numeric:normal;font-variant-alternates:normal;font-variant-east-asian:normal;font-feature-settings:normal;font-variation-settings:normal;text-indent:0;text-align:start;text-decoration-line:none;text-decoration-style:solid;text-decoration-color:#000;text-transform:none;text-orientation:mixed;white-space:normal;shape-padding:0;shape-margin:0;inline-size:0;isolation:auto;mix-blend-mode:normal;solid-color:#000;solid-opacity:1" d="M2.64 93.194h1.248v-1.851L2.15 92.347zM.008 92.764l1.173-.678L-.01 90.02l-1.183 2.048zM5.529 95.953l1.184-2.05H4.6v1.513zM-3.878 93.192h1.212l.498-.862-1.708-.988zM6.03 99.067l1.738-1.001-1.98-1.143-.498.863zM4.595 101.674l2.117.001-.942-1.632-1.175.679zM-5.552 95.972l.962-.555v-1.51l-2.155-.003zM-6.052 99.057l.73-1.263-.493-.85-1.95 1.125zM1.9 103.65l1.983 1.144v-2.41H2.631zM-6.74 101.674h2.15v-.95l-1.202-.695zM-.02 105.56l.95-1.647-.926-.535-.963.555zM-3.881 104.797l1.95-1.125-.741-1.285h-1.21z" color="#000" font-weight="400" font-family="sans-serif" overflow="visible" fill="#888a85" stroke="#666" stroke-width=".03" stroke-linecap="square"/><path style="line-height:normal;font-variant-ligatures:normal;font-variant-position:normal;font-variant-caps:normal;font-variant-numeric:normal;font-variant-alternates:normal;font-variant-east-asian:normal;font-feature-settings:normal;font-variation-settings:normal;text-indent:0;text-align:start;text-decoration-line:none;text-decoration-style:solid;text-decoration-color:#000;text-transform:none;text-orientation:mixed;white-space:normal;shape-padding:0;shape-margin:0;inline-size:0;isolation:auto;mix-blend-mode:normal;solid-color:#000;solid-opacity:1" d="M4.927 89.205h2.332l.002-3.457-3.25 1.876zM.013 88.402l2.19-1.265-2.227-3.86-2.209 3.826zM10.324 94.36l2.211-3.83H8.59l-.001 2.826zM-7.246 89.203h2.263l.93-1.611-3.19-1.846zM11.26 100.176l3.246-1.87-3.697-2.135-.93 1.611zM8.58 105.046l3.955.002-1.76-3.049-2.196 1.267zM-10.374 94.394l1.797-1.037v-2.82l-4.026-.004zM-11.308 100.158l1.363-2.36-.92-1.59-3.64 2.103zM3.546 108.736l3.704 2.136v-4.5H4.912zM-12.591 105.045l4.013.002v-1.777l-2.244-1.297zM-.04 112.303l1.775-3.076-1.731-1-1.8 1.037zM-7.253 110.878l3.644-2.1-1.386-2.4-2.259-.004z" color="#000" font-weight="400" font-family="sans-serif" overflow="visible" fill="#2e3436" stroke="#666" stroke-width=".056" stroke-linecap="square"/><path style="line-height:normal;font-variant-ligatures:normal;font-variant-position:normal;font-variant-caps:normal;font-variant-numeric:normal;font-variant-alternates:normal;font-variant-east-asian:normal;font-feature-settings:normal;font-variation-settings:normal;text-indent:0;text-align:start;text-decoration-line:none;text-decoration-style:solid;text-decoration-color:#000;text-transform:none;text-orientation:mixed;white-space:normal;shape-padding:0;shape-margin:0;inline-size:0;isolation:auto;mix-blend-mode:normal;solid-color:#000;solid-opacity:1" d="M.589 96.77h.277v-.411l-.386.223zM.005 96.674l.26-.15L0 96.065l-.262.455zM1.23 97.382l.263-.455h-.47v.336zM-.858 96.77h.27l.11-.192-.38-.22zM1.341 98.073l.386-.222-.44-.254-.11.192zM1.023 98.652h.47l-.21-.362-.26.15zM-1.23 97.386l.214-.123v-.335h-.478zM-1.34 98.07l.162-.28-.11-.188-.432.25zM.425 99.09l.44.254v-.535H.587zM-1.493 98.651h.477v-.21l-.266-.155zM-.001 99.514l.21-.366-.205-.118-.214.123zM-.858 99.345l.433-.25-.165-.285h-.268z" color="#000" font-weight="400" font-family="sans-serif" overflow="visible" fill="#eeeeec" stroke="#666" stroke-width=".007" stroke-linecap="square"/><path style="line-height:normal;font-variant-ligatures:normal;font-variant-position:normal;font-variant-caps:normal;font-variant-numeric:normal;font-variant-alternates:normal;font-variant-east-asian:normal;font-feature-settings:normal;font-variation-settings:normal;text-indent:0;text-align:start;text-decoration-line:none;text-decoration-style:solid;text-decoration-color:#000;text-transform:none;text-orientation:mixed;white-space:normal;shape-padding:0;shape-margin:0;inline-size:0;isolation:auto;mix-blend-mode:normal;solid-color:#000;solid-opacity:1" d="M1.248-2.17h.591v-.877l-.823.476zM.002-2.374l.556-.32-.565-.98-.56.97zM2.617-.864l.56-.97h-1v.716zM-1.838-2.171h.574l.235-.408-.808-.468zM2.854.611l.823-.474-.938-.541-.235.408zM2.174 1.846h1.003l-.446-.773-.557.322zM-2.631-.855l.455-.263v-.715h-1.02zM-2.868.606l.346-.598-.234-.403-.923.533zM.898 2.781l.94.542V2.182h-.594zM-3.193 1.845h1.017v-.45l-.569-.328zM-.011 3.686l.45-.78L0 2.653l-.456.262zM-1.84 3.324l.924-.532-.351-.609h-.573z" color="#000" font-weight="400" font-family="sans-serif" overflow="visible" fill="#d3d7cf" stroke="#666" stroke-width=".014" stroke-linecap="square"/><path style="line-height:normal;font-variant-ligatures:normal;font-variant-position:normal;font-variant-caps:normal;font-variant-numeric:normal;font-variant-alternates:normal;font-variant-east-asian:normal;font-feature-settings:normal;font-variation-settings:normal;text-indent:0;text-align:start;text-decoration-line:none;text-decoration-style:solid;text-decoration-color:#000;text-transform:none;text-orientation:mixed;white-space:normal;shape-padding:0;shape-margin:0;inline-size:0;isolation:auto;mix-blend-mode:normal;solid-color:#000;solid-opacity:1" d="M2.636-4.59h1.248l.001-1.85-1.74 1.004zM.005-5.02l1.172-.677-1.192-2.066-1.183 2.048zM5.525-1.83L6.71-3.88H4.596v1.513zM-3.881-4.591h1.211l.498-.862-1.708-.988zM6.026 1.284L7.764.282 5.784-.86l-.497.862zM4.591 3.89l2.118.002-.943-1.632-1.175.678zM-5.556-1.812l.962-.555v-1.51l-2.155-.002zM-6.056 1.274l.73-1.264-.493-.85L-7.768.285zM1.897 5.867L3.88 7.01V4.6H2.626zM-6.743 3.89l2.149.001V2.94l-1.202-.695zM-.024 7.776l.95-1.647L0 5.594l-.963.555zM-3.885 7.013l1.95-1.125-.741-1.284-1.21-.002z" color="#000" font-weight="400" font-family="sans-serif" overflow="visible" fill="#888a85" stroke="#666" stroke-width=".03" stroke-linecap="square"/><path style="line-height:normal;font-variant-ligatures:normal;font-variant-position:normal;font-variant-caps:normal;font-variant-numeric:normal;font-variant-alternates:normal;font-variant-east-asian:normal;font-feature-settings:normal;font-variation-settings:normal;text-indent:0;text-align:start;text-decoration-line:none;text-decoration-style:solid;text-decoration-color:#000;text-transform:none;text-orientation:mixed;white-space:normal;shape-padding:0;shape-margin:0;inline-size:0;isolation:auto;mix-blend-mode:normal;solid-color:#000;solid-opacity:1" d="M4.923-8.578h2.332l.002-3.458-3.249 1.876zM.009-9.381l2.19-1.266-2.227-3.86-2.209 3.826zM10.32-3.424l2.211-3.83H8.586l-.002 2.827zM-7.25-8.58h2.263l.93-1.612-3.19-1.845zM11.256 2.392l3.246-1.87-3.697-2.134-.93 1.61zM8.576 7.262l3.955.002-1.76-3.048-2.195 1.267zM-10.378-3.39l1.797-1.036.001-2.821-4.026-.004zM-11.312 2.374l1.363-2.36-.92-1.589-3.64 2.103zM3.543 10.953l3.704 2.136v-4.5h-2.34zM-12.595 7.261l4.013.002V5.486l-2.243-1.297zM-.044 14.52l1.775-3.076-1.731-1-1.799 1.037zM-7.257 13.095l3.644-2.101L-5 8.594l-2.259-.003z" color="#000" font-weight="400" font-family="sans-serif" overflow="visible" fill="#2e3436" stroke="#666" stroke-width=".056" stroke-linecap="square"/><path style="line-height:normal;font-variant-ligatures:normal;font-variant-position:normal;font-variant-caps:normal;font-variant-numeric:normal;font-variant-alternates:normal;font-variant-east-asian:normal;font-feature-settings:normal;font-variation-settings:normal;text-indent:0;text-align:start;text-decoration-line:none;text-decoration-style:solid;text-decoration-color:#000;text-transform:none;text-orientation:mixed;white-space:normal;shape-padding:0;shape-margin:0;inline-size:0;isolation:auto;mix-blend-mode:normal;solid-color:#000;solid-opacity:1" d="M.585-1.014h.277v-.41l-.386.222zM.001-1.11l.26-.15-.264-.458-.263.454zM1.226-.402l.263-.454H1.02v.335zM-.861-1.014h.268l.111-.192-.379-.219zM1.337.29l.386-.223-.44-.253-.11.191zM1.019.868h.47l-.21-.362-.26.15zM-1.233-.397l.213-.124v-.335h-.478zM-1.344.287l.162-.28-.11-.189-.432.25zM.42 1.307l.441.253v-.534H.583zM-1.496.868h.476v-.21l-.266-.155zM-.005 1.73l.21-.365L0 1.246l-.214.123zM-.862 1.561l.433-.25-.165-.285h-.268z" color="#000" font-weight="400" font-family="sans-serif" overflow="visible" fill="#eeeeec" stroke="#666" stroke-width=".007" stroke-linecap="square"/><path style="line-height:normal;font-variant-ligatures:normal;font-variant-position:normal;font-variant-caps:normal;font-variant-numeric:normal;font-variant-alternates:normal;font-variant-east-asian:normal;font-feature-settings:normal;font-variation-settings:normal;text-indent:0;text-align:start;text-decoration-line:none;text-decoration-style:solid;text-decoration-color:#000;text-transform:none;text-orientation:mixed;white-space:normal;shape-padding:0;shape-margin:0;inline-size:0;isolation:auto;mix-blend-mode:normal;solid-color:#000;solid-opacity:1" d="M57.993-2.17h.591v-.877l-.823.476zM56.747-2.374l.555-.32-.564-.98-.56.97zM59.361-.864l.561-.97h-1v.716zM54.907-2.171h.573l.236-.408-.808-.468zM59.599.611l.823-.474-.938-.541-.236.408zM58.92 1.846h1.002l-.446-.773-.557.322zM54.114-.855l.455-.263v-.715h-1.02zM53.877.606l.345-.598-.233-.403-.923.533zM57.643 2.781l.94.542-.001-1.141h-.593zM53.552 1.845h1.017v-.45L54 1.067zM56.734 3.686l.45-.78-.44-.253-.455.262zM54.905 3.324l.924-.532-.352-.609h-.572z" color="#000" font-weight="400" font-family="sans-serif" overflow="visible" fill="#d3d7cf" stroke="#666" stroke-width=".014" stroke-linecap="square"/><path style="line-height:normal;font-variant-ligatures:normal;font-variant-position:normal;font-variant-caps:normal;font-variant-numeric:normal;font-variant-alternates:normal;font-variant-east-asian:normal;font-feature-settings:normal;font-variation-settings:normal;text-indent:0;text-align:start;text-decoration-line:none;text-decoration-style:solid;text-decoration-color:#000;text-transform:none;text-orientation:mixed;white-space:normal;shape-padding:0;shape-margin:0;inline-size:0;isolation:auto;mix-blend-mode:normal;solid-color:#000;solid-opacity:1" d="M59.38-4.59h1.249l.001-1.85-1.74 1.004zM56.75-5.02l1.172-.677-1.192-2.066-1.183 2.048zM62.27-1.83l1.184-2.05H61.34v1.513zM52.863-4.591h1.212l.498-.862-1.708-.988zM62.771 1.284L64.509.282 62.529-.86l-.498.862zM61.336 3.89l2.118.002-.943-1.632-1.175.678zM51.189-1.812l.962-.555v-1.51l-2.155-.002zM50.689 1.274l.73-1.264-.493-.85-1.95 1.125zM58.641 5.867l1.983 1.143V4.6h-1.252zM50.002 3.89l2.149.001V2.94l-1.202-.695zM56.721 7.776l.95-1.647-.926-.535-.963.555zM52.86 7.013l1.95-1.125-.741-1.284-1.21-.002z" color="#000" font-weight="400" font-family="sans-serif" overflow="visible" fill="#888a85" stroke="#666" stroke-width=".03" stroke-linecap="square"/><path style="line-height:normal;font-variant-ligatures:normal;font-variant-position:normal;font-variant-caps:normal;font-variant-numeric:normal;font-variant-alternates:normal;font-variant-east-asian:normal;font-feature-settings:normal;font-variation-settings:normal;text-indent:0;text-align:start;text-decoration-line:none;text-decoration-style:solid;text-decoration-color:#000;text-transform:none;text-orientation:mixed;white-space:normal;shape-padding:0;shape-margin:0;inline-size:0;isolation:auto;mix-blend-mode:normal;solid-color:#000;solid-opacity:1" d="M61.668-8.578H64l.002-3.458-3.25 1.876zM56.754-9.381l2.19-1.266-2.227-3.86-2.209 3.826zM67.065-3.424l2.211-3.83h-3.945l-.002 2.827zM49.495-8.58h2.263l.93-1.612-3.19-1.845zM68.001 2.392l3.246-1.87-3.697-2.134-.93 1.61zM65.32 7.262l3.956.002-1.76-3.048-2.195 1.267zM46.367-3.39l1.797-1.036v-2.821l-4.026-.004zM45.433 2.374l1.363-2.36-.92-1.589-3.64 2.103zM60.287 10.953l3.705 2.136-.001-4.5h-2.338zM44.15 7.261l4.013.002V5.486L45.92 4.189zM56.7 14.52l1.776-3.076-1.731-1-1.8 1.037zM49.488 13.095l3.644-2.101-1.386-2.4-2.259-.003z" color="#000" font-weight="400" font-family="sans-serif" overflow="visible" fill="#2e3436" stroke="#666" stroke-width=".056" stroke-linecap="square"/><path style="line-height:normal;font-variant-ligatures:normal;font-variant-position:normal;font-variant-caps:normal;font-variant-numeric:normal;font-variant-alternates:normal;font-variant-east-asian:normal;font-feature-settings:normal;font-variation-settings:normal;text-indent:0;text-align:start;text-decoration-line:none;text-decoration-style:solid;text-decoration-color:#000;text-transform:none;text-orientation:mixed;white-space:normal;shape-padding:0;shape-margin:0;inline-size:0;isolation:auto;mix-blend-mode:normal;solid-color:#000;solid-opacity:1" d="M57.33-1.014h.277v-.41l-.386.222zM56.746-1.11l.26-.15-.264-.458-.263.454zM57.971-.402l.263-.454h-.47v.335zM55.884-1.014h.268l.11-.192-.378-.219zM58.082.29l.386-.223-.44-.253-.11.191zM57.764.868h.47l-.21-.362-.26.15zM55.512-.397l.213-.124v-.335h-.478zM55.4.287l.163-.28-.11-.189-.432.25zM57.166 1.307l.44.253v-.534h-.278zM55.248.868h.477v-.21L55.46.502zM56.74 1.73l.21-.365-.205-.119-.214.123zM55.883 1.561l.433-.25-.165-.285h-.268z" color="#000" font-weight="400" font-family="sans-serif" overflow="visible" fill="#eeeeec" stroke="#666" stroke-width=".007" stroke-linecap="square"/><path style="line-height:normal;font-variant-ligatures:normal;font-variant-position:normal;font-variant-caps:normal;font-variant-numeric:normal;font-variant-alternates:normal;font-variant-east-asian:normal;font-feature-settings:normal;font-variation-settings:normal;text-indent:0;text-align:start;text-decoration-line:none;text-decoration-style:solid;text-decoration-color:#000;text-transform:none;text-orientation:mixed;white-space:normal;shape-padding:0;shape-margin:0;inline-size:0;isolation:auto;mix-blend-mode:normal;solid-color:#000;solid-opacity:1" d="M-8.908 113.199h-4.116l-.003 7.133 6.176-3.568zM-.033 115.576l-3.572 2.063 3.57 6.18 3.57-6.183zM-18.968 104.644l-3.562 6.175 7.127.003v-4.116zM12.964 113.213h-4.12l-2.051 3.553 6.174 3.564zM-19.847 94.252l-6.173 3.565 6.188 3.572 2.054-3.557zM-15.4 85.757h-6.609l3.03 5.25 3.578-2.061zM18.575 104.839l-3.228 1.864.002 4.121 6.677.003zM20.242 94.529l-2.438 4.223 1.633 2.837 6.518-3.762zM-6.362 79.14l-6.66-3.837.002 8.084h4.207zM.293 72.349l-3.42 5.923 3.105 1.793 3.578-2.064zM23.113 84.827l-7.758-.004-.002 4.128 4.034 2.329zM12.973 75.308l-6.174 3.564 2.062 3.573h4.111z" color="#000" font-weight="400" font-family="sans-serif" overflow="visible" fill="#3efcc5" stroke="#666" stroke-width=".1" stroke-linecap="square"/><path style="line-height:normal;font-variant-ligatures:normal;font-variant-position:normal;font-variant-caps:normal;font-variant-numeric:normal;font-variant-alternates:normal;font-variant-east-asian:normal;font-feature-settings:normal;font-variation-settings:normal;text-indent:0;text-align:start;text-decoration-line:none;text-decoration-style:solid;text-decoration-color:#000;text-transform:none;text-orientation:mixed;white-space:normal;shape-padding:0;shape-margin:0;inline-size:0;isolation:auto;mix-blend-mode:normal;solid-color:#000;solid-opacity:1" d="M-20.569 103.665l1.173.718-3.784 6.562a.25.25 0 00.217.375l7.808.003.011-.002 1.863-.008.01.002 5.449.004 2.6 4.502-1.196.691-2.13-3.687a.249.249 0 00-.217-.124l-4.503-.002v-.003l-1.854-.042h0-.005l-10.627-.004z" color="#000" font-weight="400" font-family="sans-serif" overflow="visible" fill="#666" stroke="#666" stroke-width=".1" stroke-linecap="square"/><path style="line-height:normal;font-variant-ligatures:normal;font-variant-position:normal;font-variant-caps:normal;font-variant-numeric:normal;font-variant-alternates:normal;font-variant-east-asian:normal;font-feature-settings:normal;font-variation-settings:normal;text-indent:0;text-align:start;text-decoration-line:none;text-decoration-style:solid;text-decoration-color:#000;text-transform:none;text-orientation:mixed;white-space:normal;shape-padding:0;shape-margin:0;inline-size:0;isolation:auto;mix-blend-mode:normal;solid-color:#000;solid-opacity:1" d="M-.026 113.396l4.507 2.601-.696 1.206-3.693-2.132a.25.25 0 00-.25 0l-3.908 2.256v-.002l-1.6.892h0c-.001 0-.003 0-.005.002l-9.207 5.316v-10.376l1.353.032-.002 7.574a.25.25 0 00.375.217l6.766-3.91c.003-.003.005-.006.009-.008l1.614-.933c.002 0 .004 0 .006-.002zM-20.761 92.587l.673 1.228-6.557 3.785a.25.25 0 000 .433l6.78 3.915c.006.004.013.003.02.007l1.596.917.008.007 4.721 2.726v5.21l-1.383.003v-4.256a.25.25 0 00-.125-.216l-3.902-2.257.002-.004-1.598-.982-.001.002-.005-.004-8.186-4.731-1.034-.597z" color="#000" font-weight="400" font-family="sans-serif" overflow="visible" fill="#666" stroke="#666" stroke-width=".1" stroke-linecap="square"/><path style="line-height:normal;font-variant-ligatures:normal;font-variant-position:normal;font-variant-caps:normal;font-variant-numeric:normal;font-variant-alternates:normal;font-variant-east-asian:normal;font-feature-settings:normal;font-variation-settings:normal;text-indent:0;text-align:start;text-decoration-line:none;text-decoration-style:solid;text-decoration-color:#000;text-transform:none;text-orientation:mixed;white-space:normal;shape-padding:0;shape-margin:0;inline-size:0;isolation:auto;mix-blend-mode:normal;solid-color:#000;solid-opacity:1" d="M12.97 111.32l-.003 1.393H8.7a.25.25 0 00-.217.124l-2.247 3.892-.915 1.584-.002.002-5.322 9.22-5.2-9.004 1.16-.647 3.79 6.56a.25.25 0 00.432.002l3.912-6.776.001-.004h.001l.944-1.635.001-.002 2.72-4.71zM-22.59 85.75l3.305 5.723c.003.005.008.008.01.012l.927 1.6.004.012 2.731 4.727-2.593 4.495-1.19-.684 2.123-3.679a.25.25 0 000-.25l-2.263-3.92h.003l-.912-1.664-.002.002c-.002-.002-.001-.004-.002-.006l-3.695-6.398z" color="#000" font-weight="400" font-family="sans-serif" overflow="visible" fill="#666" stroke="#666" stroke-width=".1" stroke-linecap="square"/><path style="line-height:normal;font-variant-ligatures:normal;font-variant-position:normal;font-variant-caps:normal;font-variant-numeric:normal;font-variant-alternates:normal;font-variant-east-asian:normal;font-feature-settings:normal;font-variation-settings:normal;text-indent:0;text-align:start;text-decoration-line:none;text-decoration-style:solid;text-decoration-color:#000;text-transform:none;text-orientation:mixed;white-space:normal;shape-padding:0;shape-margin:0;inline-size:0;isolation:auto;mix-blend-mode:normal;solid-color:#000;solid-opacity:1" d="M17.638 103.202l.69 1.2-3.356 1.94a.25.25 0 00-.125.216l.002 4.516c0 .006.002.01.003.015l.016 1.824v.003l.003 10.62-8.992-5.187.666-1.154 6.55 3.782a.25.25 0 00.374-.217l-.002-7.8.003-1.892h-.001l.001-5.458z" color="#000" font-weight="400" font-family="sans-serif" overflow="visible" fill="#666" stroke="#666" stroke-width=".1" stroke-linecap="square"/><path style="line-height:normal;font-variant-ligatures:normal;font-variant-position:normal;font-variant-caps:normal;font-variant-numeric:normal;font-variant-alternates:normal;font-variant-east-asian:normal;font-feature-settings:normal;font-variation-settings:normal;text-indent:0;text-align:start;text-decoration-line:none;text-decoration-style:solid;text-decoration-color:#000;text-transform:none;text-orientation:mixed;white-space:normal;shape-padding:0;shape-margin:0;inline-size:0;isolation:auto;mix-blend-mode:normal;solid-color:#000;solid-opacity:1" d="M31.783 111.33l-.795 1.38-5.236.002a.25.25 0 00-.04-.004l-2.138-.04a.25.25 0 00-.002 0h-8.207l-.012-1.343 7.106.003.024-.003H24.6c.007.001.013.004.02.004zM-15.399 83.886v1.37l-7.037.001v-.003l-2.14-.043v.003l-.006-.001h-8.698l4.126-7.155.781 1.413-2.33 4.038a.25.25 0 00.216.375h4.8c.01 0 .018-.002.027-.003l2.123.001.016.002z" color="#000" font-weight="400" font-family="sans-serif" overflow="visible" fill="#666" stroke="#666" stroke-width=".1" stroke-linecap="square"/><path style="line-height:normal;font-variant-ligatures:normal;font-variant-position:normal;font-variant-caps:normal;font-variant-numeric:normal;font-variant-alternates:normal;font-variant-east-asian:normal;font-feature-settings:normal;font-variation-settings:normal;text-indent:0;text-align:start;text-decoration-line:none;text-decoration-style:solid;text-decoration-color:#000;text-transform:none;text-orientation:mixed;white-space:normal;shape-padding:0;shape-margin:0;inline-size:0;isolation:auto;mix-blend-mode:normal;solid-color:#000;solid-opacity:1" d="M-32.407 68.745l4.1 7.096c.003.006.008.01.011.014l1.07 1.854.006.016 3.264 5.656h-1.588l-2.325-4.027h.002l-1.063-1.925h0l-.003-.004-4.633-8.03z" color="#000" font-weight="400" font-family="sans-serif" overflow="visible" fill="#666" stroke="#666" stroke-width=".1" stroke-linecap="square"/><path style="line-height:normal;font-variant-ligatures:normal;font-variant-position:normal;font-variant-caps:normal;font-variant-numeric:normal;font-variant-alternates:normal;font-variant-east-asian:normal;font-feature-settings:normal;font-variation-settings:normal;text-indent:0;text-align:start;text-decoration-line:none;text-decoration-style:solid;text-decoration-color:#000;text-transform:none;text-orientation:mixed;white-space:normal;shape-padding:0;shape-margin:0;inline-size:0;isolation:auto;mix-blend-mode:normal;solid-color:#000;solid-opacity:1" d="M47.839 113.211l-4.128-.002v7.129l6.182-3.571zM38.238 104.918l-3.413 5.912 6.512.003v-4.125zM56.717 115.583l-3.576 2.064 3.563 6.173 3.58-6.179zM36.544 94.453l-5.831 3.37 6.646 3.837 1.673-2.897zM69.7 113.204h-4.108l-2.065 3.564 6.178 3.567zM41.345 84.837l-7.604-.005 3.68 6.373 3.92-2.263zM75.656 104.64l-3.567 2.06v4.127l7.143.002zM82.704 97.82l-6.173-3.56-2.062 3.573 2.054 3.556zM43.726 75.315l-.003 7.142 4.116-.001 2.063-3.572zM78.697 85.763h-6.603v3.186l3.573 2.062zM56.495 72.222L53.155 78l3.58 2.067 3.21-1.855zM69.713 75.316l-6.526 3.767 2.478 4.297h4.045zM-37.274 64.061h-4.107l-.002 7.132 6.168-3.561zM-28.393 66.435l-3.579 2.063 3.88 6.72 3.725-6.458zM-47.33 55.494l-3.564 6.184 7.136.004-.004-4.127zM-15.4 64.998l-4.045.003-1.668 2.887 5.712 3.298zM-43.76 35.685l-7.147.003 3.565 6.177 3.58-2.065zM-9.438 55.496l-3.578 2.064v5.052l7.683-.005zM-8.573 45.102l-2.06 3.569 2.062 3.565 6.182-3.563zM-41.377 26.163v7.138l4.117-.003 2.06-3.568zM-6.41 36.607h-6.592v3.188l3.563 2.058zM-28.613 23.076l-3.337 5.78 3.569 2.06 3.221-1.861zM-15.374 26.152l-6.54 3.776 2.488 4.309 4.054.001z" color="#000" font-weight="400" font-family="sans-serif" overflow="visible" fill="#3efcc5" stroke="#666" stroke-width=".1" stroke-linecap="square"/><path style="line-height:normal;font-variant-ligatures:normal;font-variant-position:normal;font-variant-caps:normal;font-variant-numeric:normal;font-variant-alternates:normal;font-variant-east-asian:normal;font-feature-settings:normal;font-variation-settings:normal;text-indent:0;text-align:start;text-decoration-line:none;text-decoration-style:solid;text-decoration-color:#000;text-transform:none;text-orientation:mixed;white-space:normal;shape-padding:0;shape-margin:0;inline-size:0;isolation:auto;mix-blend-mode:normal;solid-color:#000;solid-opacity:1" d="M48.928 111.326l2.591 4.494-1.195.696-2.124-3.681a.249.249 0 00-.216-.125l-4.483-.002h0a.25.25 0 00-.034-.003l-1.852-.039a.25.25 0 00-.027.001l-7.823-.002.771-1.335 7.05.002c.005 0 .009-.002.013-.003l1.867-.006h.002zM36.602 103.97l1.205.695-3.632 6.29-.001.003-1.057 1.83-.002.003-4.668 8.085-4.44-7.7 1.55.029 2.643 4.585a.25.25 0 00.432 0l2.713-4.699a.25.25 0 00.007-.01l1.08-1.877.002-.002zM18.627 93.59l1.185.685-2.513 4.352a.25.25 0 000 .25l1.83 3.179c.002.004.006.006.009.01l.932 1.612.002.005 4.113 7.14h-1.583l-3.719-6.452-.001-.002.003-.002-.938-1.633-.002.001s0 0 0 0l-2.298-3.986zM-14.899 74.215l1.378.796.003 8.623h0l-.002 1.863-.002.005.002 4.52-4.514 2.607-.689-1.19 3.697-2.133a.25.25 0 00.125-.216v-3.584l-.001-.003h.002v-1.87h-.001zM-48.933 54.52l1.174.717-3.784 6.566a.25.25 0 00.216.375l7.819.004.01-.002 1.874-.007h0l5.438.003 2.601 4.51-1.198.693-2.13-3.693a.251.251 0 00-.217-.125h-4.493v-.002l-1.861-.042-.005-.001H-54.12z" color="#000" font-weight="400" font-family="sans-serif" overflow="visible" fill="#666" stroke="#666" stroke-width=".1" stroke-linecap="square"/><path style="line-height:normal;font-variant-ligatures:normal;font-variant-position:normal;font-variant-caps:normal;font-variant-numeric:normal;font-variant-alternates:normal;font-variant-east-asian:normal;font-feature-settings:normal;font-variation-settings:normal;text-indent:0;text-align:start;text-decoration-line:none;text-decoration-style:solid;text-decoration-color:#000;text-transform:none;text-orientation:mixed;white-space:normal;shape-padding:0;shape-margin:0;inline-size:0;isolation:auto;mix-blend-mode:normal;solid-color:#000;solid-opacity:1" d="M56.71 113.4l4.518 2.608-.694 1.2-3.691-2.131a.25.25 0 00-.25 0l-3.888 2.245-.003.001a.25.25 0 00-.023.01l-1.603.896h0l-.004.002-8.18 4.718-1.035.597.003-10.373 1.35.027v7.57a.25.25 0 00.376.217l6.773-3.91c.004-.004.006-.008.01-.01l1.615-.94h.002zM38.967 103.155l4.25 2.454v5.217l-1.38.004v-4.268a.25.25 0 00-.125-.216l-3.44-1.987.001-.002-1.637-.945-.001.002s0 0 0 0l-7.803-4.505 1.38-.798 7.113 4.107.013.004 1.629.934zM-15.261 71.841l1.852 1.07.013.01 7.969 4.6-.685 1.186-7.034-4.054.001-.002-1.877-1.085-.002.003-7.028-4.053.69-1.195 6.087 3.515.014.005zM-28.382 64.258l4.96 2.864-.695 1.204-4.15-2.396a.25.25 0 00-.251 0l-3.914 2.258-.002-.003-1.597.9h0-.004l-9.2 5.313-.004-10.376 1.357.031-.001 7.573a.25.25 0 00.375.217l6.76-3.903c.002-.002.003-.004.006-.005l1.62-.942h.003zM14.856 84.822l-.004 4.273c0 .09.048.172.126.217l4.375 2.526.012.004 1.595.92c.003.003.005.007.009.009l6.867 3.964-1.382.802-6.178-3.567.002-.002-1.618-.936-.001.001-5.193-2.998v-5.211zM35.61 92.827l.686 1.192-6.207 3.586h0l-1.88 1.086.001.002h-.002l-7.827 4.523-.691-1.195 6.89-3.978.01-.007 1.863-1.08.009-.004z" color="#000" font-weight="400" font-family="sans-serif" overflow="visible" fill="#666" stroke="#666" stroke-width=".1" stroke-linecap="square"/><path style="line-height:normal;font-variant-ligatures:normal;font-variant-position:normal;font-variant-caps:normal;font-variant-numeric:normal;font-variant-alternates:normal;font-variant-east-asian:normal;font-feature-settings:normal;font-variation-settings:normal;text-indent:0;text-align:start;text-decoration-line:none;text-decoration-style:solid;text-decoration-color:#000;text-transform:none;text-orientation:mixed;white-space:normal;shape-padding:0;shape-margin:0;inline-size:0;isolation:auto;mix-blend-mode:normal;solid-color:#000;solid-opacity:1" d="M-15.398 63.108v1.39l-4.192.002a.25.25 0 00-.216.125l-1.865 3.23v.002l-.938 1.623-.001.002-4.392 7.615-.8-1.382 3.993-6.923v-.002h.002l.944-1.635h0l2.336-4.045zM-49.13 43.45l.679 1.226-6.55 3.783a.25.25 0 00.001.433l6.773 3.91c.003.002.006.001.01.003l1.61.925.005.004 4.727 2.73-.001 5.209-1.383.006v-4.27a.25.25 0 00-.126-.217l-3.905-2.252.001-.002-1.603-.977h0c-.002 0-.003-.002-.005-.003l-9.211-5.323zM69.706 111.324l-.003 1.38h-4.256a.25.25 0 00-.216.125l-2.26 3.9a.25.25 0 000 .004l-.002.002-.915 1.585-4.727 8.177-.001.002-.593 1.033-5.193-8.988 1.166-.651 3.782 6.553a.25.25 0 00.433 0l3.92-6.771.002-.003.942-1.63h.001l2.73-4.717zM-.786 70.476l.791 1.37-3.69 6.39v.003l-.931 1.62-3.114 5.394h-5.29l.002-1.366h4.35a.25.25 0 00.215-.126l2.649-4.587v-.003h.002l.934-1.618h0zM24.196 82.951l-.794 1.375-8.295-.003s0 0 0 0v-.003l-1.89.003v.002l-5.44-.003-2.606-4.511 1.194-.69L8.5 82.819a.25.25 0 00.217.125l4.506.001 1.873.001.006.001zM-1.795 64.984l1.87 3.243.002.002 1.078 1.86.004.01 4.02 6.963-1.19.688-3.48-6.025-.001-.001.002-.002-1.08-1.87h-.002l-2.812-4.866zM33.164 84.828l3.948 6.842c.002.005.006.007.01.011l.925 1.597.003.009 3.164 5.478L39 102.599l-1.207-.692 1.744-3.02a.25.25 0 000-.25l-2.685-4.65v-.002h.002l-.935-1.623h0l-4.353-7.534z" color="#000" font-weight="400" font-family="sans-serif" overflow="visible" fill="#666" stroke="#666" stroke-width=".1" stroke-linecap="square"/><path style="line-height:normal;font-variant-ligatures:normal;font-variant-position:normal;font-variant-caps:normal;font-variant-numeric:normal;font-variant-alternates:normal;font-variant-east-asian:normal;font-feature-settings:normal;font-variation-settings:normal;text-indent:0;text-align:start;text-decoration-line:none;text-decoration-style:solid;text-decoration-color:#000;text-transform:none;text-orientation:mixed;white-space:normal;shape-padding:0;shape-margin:0;inline-size:0;isolation:auto;mix-blend-mode:normal;solid-color:#000;solid-opacity:1" d="M12.976 73.134l-.002 1.595-6.64 3.834v-.001l-1.628.94h0l-.001.001-4.72 2.725-4.044-2.335.682-1.188 3.23 1.865a.25.25 0 00.25 0l3.92-2.26.005-.005 1.612-.934.003-.001zM27.345 78.497l.782 1.366-1.566 2.713v.003l-1.08 1.868v.001l-.002.002-4.475 7.76-1.183-.682 3.941-6.827.001-.002h0l1.082-1.872v-.002zM2.893 63.104l-.801 1.38-3.74.002v-.002l-2.166.001v.003h-.002l-9.202.003.002-1.38 8.116-.003h.003l2.165-.004h.002zM74.717 103.004l.691 1.202-3.695 2.135a.25.25 0 00-.125.216v4.52l.002.009.02 1.828v.004l-.004 10.627-8.994-5.192.665-1.151 6.553 3.782a.25.25 0 00.375-.216l-.004-7.803a.25.25 0 00.001-.011l.005-1.88h0a.25.25 0 000-.003v-5.461z" color="#000" font-weight="400" font-family="sans-serif" overflow="visible" fill="#666" stroke="#666" stroke-width=".1" stroke-linecap="square"/><path style="line-height:normal;font-variant-ligatures:normal;font-variant-position:normal;font-variant-caps:normal;font-variant-numeric:normal;font-variant-alternates:normal;font-variant-east-asian:normal;font-feature-settings:normal;font-variation-settings:normal;text-indent:0;text-align:start;text-decoration-line:none;text-decoration-style:solid;text-decoration-color:#000;text-transform:none;text-orientation:mixed;white-space:normal;shape-padding:0;shape-margin:0;inline-size:0;isolation:auto;mix-blend-mode:normal;solid-color:#000;solid-opacity:1" d="M-10.38 53.86l.692 1.202-3.704 2.137a.25.25 0 00-.125.216V62.865l-.001 1.87-.001.005-.002 7.528-1.38-.797V64.75v-.002h.002l.002-1.89v-6.396zM41.349 82.954l-.002 1.382-8.037-.005v-.002h-2.175v.003h-.001l-5.005-.007.793-1.374 3.127.001.017-.002H32.225zM-43.74 33.767l-.015 1.42-7.584.004a.25.25 0 00-.216.373l3.907 6.766c.001.003.003.003.005.006l.935 1.616.002.004 2.728 4.726-2.59 4.493-1.191-.684 2.122-3.676a.25.25 0 000-.25l-2.26-3.917.003-.001-.922-1.662h0l-.002-.004-5.316-9.207zM14.865 64.985l-.006 6.63.001.006v2.157l-.001.006-.004 8.661h-1.381v-7.572l.003-2.172.004-7.718zM23.992 68.942l4.207 7.29v.002l1.086 1.871.005.012 2.502 4.333-1.6.002-1.561-2.709.003-.001-1.072-1.871-4.758-8.242z" color="#000" font-weight="400" font-family="sans-serif" overflow="visible" fill="#666" stroke="#666" stroke-width=".1" stroke-linecap="square"/><path style="line-height:normal;font-variant-ligatures:normal;font-variant-position:normal;font-variant-caps:normal;font-variant-numeric:normal;font-variant-alternates:normal;font-variant-east-asian:normal;font-feature-settings:normal;font-variation-settings:normal;text-indent:0;text-align:start;text-decoration-line:none;text-decoration-style:solid;text-decoration-color:#000;text-transform:none;text-orientation:mixed;white-space:normal;shape-padding:0;shape-margin:0;inline-size:0;isolation:auto;mix-blend-mode:normal;solid-color:#000;solid-opacity:1" d="M19.543 64.986l-4.18.001-.004 6.195 5.822-3.362zM28.349 66.426l-3.925 2.267 3.99 6.916 3.959-6.855zM9.87 55.75L5.91 62.614h7.07l.004-5.065zM41.356 64.99h-4.055l-1.667 2.887 5.716 3.308zM8.194 45.328l-5.816 3.351 6.625 3.825 1.667-2.887zM12.997 36.6l-7.088-.003 3.154 5.463 3.934-2.27zM46.961 55.689l-3.22 1.857-.002 5.055 7.215.007zM48.634 45.36l-2.441 4.23 1.647 2.846 6.525-3.767zM22.016 29.988L15.38 26.16v8.065h4.191zM50.934 36.603l-7.192-.003v3.184l4.02 2.324zM28.444 23.597l-3.182 5.51 3.102 1.792 3.224-1.858zM41.368 26.15l-6.53 3.765 2.484 4.3 4.048.005z" color="#000" font-weight="400" font-family="sans-serif" overflow="visible" fill="#3efcc5" stroke="#666" stroke-width=".1" stroke-linecap="square"/><path style="line-height:normal;font-variant-ligatures:normal;font-variant-position:normal;font-variant-caps:normal;font-variant-numeric:normal;font-variant-alternates:normal;font-variant-east-asian:normal;font-feature-settings:normal;font-variation-settings:normal;text-indent:0;text-align:start;text-decoration-line:none;text-decoration-style:solid;text-decoration-color:#000;text-transform:none;text-orientation:mixed;white-space:normal;shape-padding:0;shape-margin:0;inline-size:0;isolation:auto;mix-blend-mode:normal;solid-color:#000;solid-opacity:1" d="M20.633 63.1l2.18 3.777-1.199.694-1.71-2.96a.25.25 0 00-.216-.125l-4.572.003v-.003l-1.885-.004v.001s0 0 0 0l-8.403.003.792-1.373h7.61l.008-.001 1.889-.012h0zM74.911 93.321l1.189.688-2.135 3.697a.25.25 0 000 .25l2.25 3.9.006.005.955 1.586v.001l.002.004 5.32 9.218-10.391-.006-.014-1.339 7.57.002a.25.25 0 00.216-.374l-3.902-6.755a.25.25 0 00-.013-.026l-.938-1.635v-.001a.25.25 0 00-.003-.003l-2.716-4.703zM41.849 74.23l1.376.795-.001 7.68v.002l-.002 1.87v.002l-.002 5.436-4.86 2.806-.688-1.185 4.045-2.333a.25.25 0 00.125-.217l.003-4.5s0 0 0 0h.002l.002-1.883h0zM-10.193 44.166l1.188.686-2.133 3.694a.25.25 0 000 .249l2.259 3.909.002.003.938 1.63.002.005 4.772 8.261-1.591.002-4.374-7.576s0 0 0 0l.001-.001-.943-1.637-.001.001-2.723-4.718zM8.251 54.814l1.188.686-4.179 7.238h0l-1.08 1.87-.002.003-2.802 4.86-.796-1.37 1.872-3.243s0 0 0 0l1.091-1.878h.001zM43.358 72.91h.002l7.49 4.332-.699 1.21-6.55-3.787h0l-1.877-1.085v.001l-7.045-4.074.694-1.203 6.102 3.53.008.004zM28.363 64.24l4.96 2.864-.701 1.216-4.148-2.4a.25.25 0 00-.25 0l-4.05 2.34h0l-.214.124-1.623.938-6.977 4.028v-1.59l6.289-3.632 1.836-1.062-.003-.005z" color="#000" font-weight="400" font-family="sans-serif" overflow="visible" fill="#666" stroke="#666" stroke-width=".1" stroke-linecap="square"/><path style="line-height:normal;font-variant-ligatures:normal;font-variant-position:normal;font-variant-caps:normal;font-variant-numeric:normal;font-variant-alternates:normal;font-variant-east-asian:normal;font-feature-settings:normal;font-variation-settings:normal;text-indent:0;text-align:start;text-decoration-line:none;text-decoration-style:solid;text-decoration-color:#000;text-transform:none;text-orientation:mixed;white-space:normal;shape-padding:0;shape-margin:0;inline-size:0;isolation:auto;mix-blend-mode:normal;solid-color:#000;solid-opacity:1" d="M10.601 53.986h.002l4.274 2.468-.002 6.148-1.395.008.004-5.207a.25.25 0 00-.125-.217l-3.454-1.994h0l-1.62-.936h0l-7.797-4.5 1.37-.799 7.111 4.105.005.002zM-43.235 22.874l8.993 5.194-.708 1.228-6.552-3.783a.25.25 0 00-.375.216v7.823l-.004 1.878h0v.001l.003 5.449-4.52 2.609-.691-1.191 3.701-2.14a.25.25 0 00.127-.215l.002-4.505h0l.02-1.917h0v-.004zM71.594 85.763l.002 3.33c0 .09.047.172.124.216l3.914 2.26.003.001h.002l1.635.904.003.002 9.2 5.312-8.997 5.196-.701-1.165 6.55-3.783a.25.25 0 000-.433h0l-6.742-3.889a.25.25 0 000 0 .25.25 0 00-.02-.012l-1.622-.94a.25.25 0 00-.01-.004l-4.728-2.73.002-4.264zM-13.502 36.605v3.334c0 .09.047.172.124.217l3.906 2.255a.243.243 0 00.12.03.25.25 0 00.091.092l1.633.937a.25.25 0 00.01.005l7.113 4.108-1.377.802.002.003-6.44-3.717-.002-.002-.217-.125-1.414-.816a.25.25 0 00-.122-.034.243.243 0 00-.084-.086l-4.716-2.722-.004-4.277zM7.28 43.666l.696 1.211-6.102 3.517-.01-.017-1.875 1.09.028.048a.248.248 0 00-.141.032l-7.505 4.328-.692-1.205 6.558-3.78a.244.244 0 00.104-.122l.029.049 1.875-1.09v-.001zM41.376 63.1l-.018.009-.001 1.382h-4.2a.25.25 0 00-.216.124l-1.865 3.23-.004.012-.014-.007-.945 1.637.011.007-4.617 7.997-.803-1.383 4.227-7.321.001-.005.937-1.623h-.001c.005-.008.012-.012.016-.02l2.334-4.042zM55.414 70.338l.793 1.383-3.61 6.245-.001.003-.944 1.634s0 0 0 0l-2.529 4.38-.002.004-.194.348-5.205-.005.001-1.375 4.261.001a.25.25 0 00.217-.125l2.258-3.912v-.002h.001l.948-1.642h0z" color="#000" font-weight="400" font-family="sans-serif" overflow="visible" fill="#666" stroke="#666" stroke-width=".1" stroke-linecap="square"/><path style="line-height:normal;font-variant-ligatures:normal;font-variant-position:normal;font-variant-caps:normal;font-variant-numeric:normal;font-variant-alternates:normal;font-variant-east-asian:normal;font-feature-settings:normal;font-variation-settings:normal;text-indent:0;text-align:start;text-decoration-line:none;text-decoration-style:solid;text-decoration-color:#000;text-transform:none;text-orientation:mixed;white-space:normal;shape-padding:0;shape-margin:0;inline-size:0;isolation:auto;mix-blend-mode:normal;solid-color:#000;solid-opacity:1" d="M-29.685 21.173l.785 1.4-3.608 6.248h0l-.937 1.632h0l-2.728 4.724-5.207.004.002-1.38 4.263-.004a.25.25 0 00.216-.124l2.258-3.91s0 0 0 0l.956-1.661h0zM-5.326 34.729l-.795 1.377h-7.132v-.002l-1.876.006v.002s0 0 0 0l-5.384-.001-3.026-5.241 1.193-.694 2.56 4.435a.249.249 0 00.216.125l4.448.003.009-.002 1.865-.009.003.001zM79.792 83.867l-.806 1.395-7.126.002a.25.25 0 00-.017 0H69.96a.25.25 0 00-.02 0 .25.25 0 00-.002 0l-5.348.004-3.024-5.244 1.19-.69 2.547 4.421a.249.249 0 00.216.125h4.44c.003 0 .005-.003.007-.003l1.882-.01.004.002zM54.491 64.989l1.788 3.096h0a.25.25 0 00.002.003l1.084 1.877 4.206 7.303-1.192.69-3.663-6.355-.002-.004a.25.25 0 00-.002-.003l-1.08-1.885a.25.25 0 00-.006-.008l-2.725-4.723zM5.333 36.596l3.42 5.93a.243.243 0 00.087.085l.821 1.414a.25.25 0 00.008.012c0 .043.007.086.03.125l3.142 5.443-2.207 3.824-1.197-.677 1.738-3.01a.25.25 0 000-.25L8.502 44.86l-.005-.008a.25.25 0 00-.033-.13l-.94-1.634a.25.25 0 00-.088-.09.25.25 0 000 0L3.74 36.602z" color="#000" font-weight="400" font-family="sans-serif" overflow="visible" fill="#666" stroke="#666" stroke-width=".1" stroke-linecap="square"/><path style="line-height:normal;font-variant-ligatures:normal;font-variant-position:normal;font-variant-caps:normal;font-variant-numeric:normal;font-variant-alternates:normal;font-variant-east-asian:normal;font-feature-settings:normal;font-variation-settings:normal;text-indent:0;text-align:start;text-decoration-line:none;text-decoration-style:solid;text-decoration-color:#000;text-transform:none;text-orientation:mixed;white-space:normal;shape-padding:0;shape-margin:0;inline-size:0;isolation:auto;mix-blend-mode:normal;solid-color:#000;solid-opacity:1" d="M69.715 73.144l-.002 1.594-6.98 4.032a.25.25 0 00-.01.006h0l-1.623.94s0 0 0 0a.25.25 0 00-.008.004l-4.375 2.524-4.508-2.607.696-1.204 3.702 2.137a.25.25 0 00.25 0l3.552-2.05a.25.25 0 00.004-.002s0 0 0 0h0l1.62-.941c.001-.001.003 0 .005-.002zM-15.376 23.98l.001 1.595-7.005 4.044h0l-1.625.943v.001l-4.375 2.526-4.508-2.603.688-1.197 3.694 2.132a.25.25 0 00.25 0l3.563-2.056.005-.005 1.626-.942-.001-.001zM83.781 77.958l.789 1.372-2.398 4.16a.25.25 0 00-.001.003l-1.073 1.857v.002l-.002.001-3.791 6.568-1.202-.664 3.243-5.617a.25.25 0 00.001-.003s0 0 0 0l1.094-1.895zM-1.33 28.809l.794 1.38-2.41 4.167-1.08 1.87s0 0 0 0l-3.787 6.561-1.193-.685 3.245-5.62s0 0 0 0l1.085-1.878zM59.012 63.097l-.804 1.392H54.63l-2.162-.01-8.721.002-.002-1.37-.016-.009 7.659.007.006-.001 2.169-.011a.25.25 0 00.017-.001.25.25 0 00.004 0z" color="#000" font-weight="400" font-family="sans-serif" overflow="visible" fill="#666" stroke="#666" stroke-width=".1" stroke-linecap="square"/><path style="line-height:normal;font-variant-ligatures:normal;font-variant-position:normal;font-variant-caps:normal;font-variant-numeric:normal;font-variant-alternates:normal;font-variant-east-asian:normal;font-feature-settings:normal;font-variation-settings:normal;text-indent:0;text-align:start;text-decoration-line:none;text-decoration-style:solid;text-decoration-color:#000;text-transform:none;text-orientation:mixed;white-space:normal;shape-padding:0;shape-margin:0;inline-size:0;isolation:auto;mix-blend-mode:normal;solid-color:#000;solid-opacity:1" d="M-26.077 13.934l-.802 1.392-3.6-.002a.25.25 0 00-.22.375l1.87 3.242.007.009 1.078 1.858c0 .002.001.005.003.007l4.212 7.296-1.198.694-3.668-6.354-.002-.003-1.066-1.902s0 0 0 0l-.002-.004-3.815-6.611zM46.025 54.067l.686 1.19-3.342 1.928a.249.249 0 00-.125.216l-.005 5.45.004.26.002 1.582c-.002.013-.008.025-.008.039l-.003 7.53-1.383-.79.005-6.481v-.25l.002-1.632.006-.26.003-6.38zM13.003 34.726l-.005 1.376-7.522-.005-2.158.006-.01-.001h-6.684l.791-1.371 4.815.001.013-.002 2.156-.006zM71.596 64.988v6.631l.001 2.168.005 9.582-1.393.008.005-8.487v-.004a.25.25 0 000-.003l.002-2.173.003-7.723zM-13.492 15.832v8.795l-.002 9.603-1.38.006V25.72s0 0 0 0v-2.174h-.002l.002-7.713zM80.748 68.94l3.89 6.733a.25.25 0 00.014.026l1.089 1.856a.25.25 0 00.009.013.25.25 0 00.003.005l3.822 6.618.597 1.033-8.426.004.785-1.36h4.803a.25.25 0 00.216-.376l-2.463-4.262a.25.25 0 00-.002-.005.25.25 0 00-.01-.018l-1.071-1.863-.005-.013-4.45-7.702zM-4.366 19.792l3.906 6.763 1.082 1.88 3.344 5.789-1.592.006-2.404-4.166-1.084-1.881-4.447-7.703z" color="#000" font-weight="400" font-family="sans-serif" overflow="visible" fill="#666" stroke="#666" stroke-width=".1" stroke-linecap="square"/><path style="line-height:normal;font-variant-ligatures:normal;font-variant-position:normal;font-variant-caps:normal;font-variant-numeric:normal;font-variant-alternates:normal;font-variant-east-asian:normal;font-feature-settings:normal;font-variation-settings:normal;text-indent:0;text-align:start;text-decoration-line:none;text-decoration-style:solid;text-decoration-color:#000;text-transform:none;text-orientation:mixed;white-space:normal;shape-padding:0;shape-margin:0;inline-size:0;isolation:auto;mix-blend-mode:normal;solid-color:#000;solid-opacity:1" d="M76.294 64.988h-4.2l.004 6.197 5.831-3.365zM85.097 66.428l-3.915 2.261 3.688 6.383 3.8-6.582zM66.16 55.49l-4.109 7.109 7.669.007v-5.06zM65.286 45.11l-6.171 3.559 6.168 3.566 2.058-3.564zM98.092 64.044l-4.121.002-2.06 3.567 6.181 3.568zM69.742 36.613l-6.613-.002 3.028 5.242 3.585-2.069zM104.042 55.49l-3.563 2.054-.002 4.128 7.134-.001zM72.114 26.17l.005 8.058h4.18l2.444-4.231zM104.913 45.102l-2.061 3.57 2.057 3.566 6.181-3.57zM85.41 23.213l-3.406 5.901 3.11 1.796 3.556-2.053zM107.627 35.671l-7.149.003v4.116l3.575 2.063zM98.097 26.153l-6.181 3.57 2.059 3.563h4.124z" color="#000" font-weight="400" font-family="sans-serif" overflow="visible" fill="#3efcc5" stroke="#666" stroke-width=".1" stroke-linecap="square"/><path style="line-height:normal;font-variant-ligatures:normal;font-variant-position:normal;font-variant-caps:normal;font-variant-numeric:normal;font-variant-alternates:normal;font-variant-east-asian:normal;font-feature-settings:normal;font-variation-settings:normal;text-indent:0;text-align:start;text-decoration-line:none;text-decoration-style:solid;text-decoration-color:#000;text-transform:none;text-orientation:mixed;white-space:normal;shape-padding:0;shape-margin:0;inline-size:0;isolation:auto;mix-blend-mode:normal;solid-color:#000;solid-opacity:1" d="M77.387 63.1l2.177 3.77-1.204.7-1.705-2.958a.25.25 0 00-.216-.125h-6.47l-9.007-.002.8-1.385 8.207.006h.003s0 0 0 0l1.878-.01a.25.25 0 00.021-.001.25.25 0 00.002 0zM-7.727 13.95l2.178 3.772-1.201.7-1.71-2.96a.25.25 0 00-.217-.125l-4.564-.004-1.882-.001-9.015-.007.792-1.372 8.22.004 1.882-.01.006.001zM64.528 54.542l1.199.697-4.324 7.482a.25.25 0 00-.002.003l-1.088 1.884-2.731 4.732-.795-1.377 1.78-3.096a.25.25 0 00.002-.003v-.001l1.092-1.891h0zM47.004 44.419l1.197.691-2.513 4.353a.25.25 0 000 .25L47.53 52.9a.25.25 0 00.001.003l.936 1.623 4.661 8.072-1.597.01-4.26-7.381h0a.25.25 0 00-.003-.004l-.934-1.624-2.313-4.003zM13.5 25.076l1.38.796-.002 8.603c0 .01.005.018.006.027h-.016l.001 1.884h.008v4.5l-4.84 2.791-.697-1.2 4.032-2.326a.25.25 0 00.125-.217l.002-3.583-.002-.012.007-1.857h-.005l.001-.006zM-20.564 5.383l1.18.7-4.323 7.495-1.08 1.87-2.738 4.743-.799-1.374 1.805-3.116 1.09-1.89v-.002zM85.103 64.25l4.51 2.604-.694 1.203-3.697-2.134a.25.25 0 00-.25 0l-4.25 2.454a.25.25 0 00-.007.005l-1.632.938-6.986 4.034v-1.59l6.297-3.636c.002 0 .002-.002.004-.003l1.631-.945h.002z" color="#000" font-weight="400" font-family="sans-serif" overflow="visible" fill="#666" stroke="#666" stroke-width=".1" stroke-linecap="square"/><path style="line-height:normal;font-variant-ligatures:normal;font-variant-position:normal;font-variant-caps:normal;font-variant-numeric:normal;font-variant-alternates:normal;font-variant-east-asian:normal;font-feature-settings:normal;font-variation-settings:normal;text-indent:0;text-align:start;text-decoration-line:none;text-decoration-style:solid;text-decoration-color:#000;text-transform:none;text-orientation:mixed;white-space:normal;shape-padding:0;shape-margin:0;inline-size:0;isolation:auto;mix-blend-mode:normal;solid-color:#000;solid-opacity:1" d="M66.887 53.73s0 0 0 0l4.711 2.723v6.144l-1.378.008V57.4a.25.25 0 00-.125-.216l-3.899-2.251a.25.25 0 00-.003-.002l-1.63-.949-7.327-4.23 1.379-.796 6.634 3.835h0a.25.25 0 00.003.002zM6.565 18.89l6.563 3.79 1.877 1.084h0l7.954 4.592-.693 1.199-7.013-4.045-1.877-1.084s0 0 0 0l-7.507-4.33zM.004 15.091l4.503 2.6-.702 1.215-3.692-2.132a.25.25 0 00-.25 0l-4.263 2.46-1.627.939-6.965 4.02v-1.59l6.275-3.622c.002 0 .003-.003.004-.004l1.63-.947zM43.243 36.6l-.002 3.328c0 .09.048.172.125.217l4.362 2.52.002.001 1.632.938a.25.25 0 00.006.003l6.876 3.975-1.38.797-6.193-3.575a.25.25 0 00-.003-.002l-1.63-.94v-.001l-5.17-2.989v-4.274zM64.347 43.475l.69 1.2-6.54 3.775a.25.25 0 00-.006.003l-1.876 1.084-.003.001-7.838 4.522-.684-1.19 6.896-3.983a.25.25 0 00.003-.002l1.88-1.087a.25.25 0 00.007-.005zM-20.755-5.679l.683 1.215-6.54 3.774a.25.25 0 00.001.433l6.763 3.905h.002l1.622.924.002.001 4.736 2.735-.002 6.14-1.388.007v-5.2a.25.25 0 00-.126-.217l-3.914-2.26-.003-.001-1.608-.954h0-.002l-9.203-5.314z" color="#000" font-weight="400" font-family="sans-serif" overflow="visible" fill="#666" stroke="#666" stroke-width=".1" stroke-linecap="square"/><path style="line-height:normal;font-variant-ligatures:normal;font-variant-position:normal;font-variant-caps:normal;font-variant-numeric:normal;font-variant-alternates:normal;font-variant-east-asian:normal;font-feature-settings:normal;font-variation-settings:normal;text-indent:0;text-align:start;text-decoration-line:none;text-decoration-style:solid;text-decoration-color:#000;text-transform:none;text-orientation:mixed;white-space:normal;shape-padding:0;shape-margin:0;inline-size:0;isolation:auto;mix-blend-mode:normal;solid-color:#000;solid-opacity:1" d="M27.365 21.723l.79 1.374-3.45 5.978-.943 1.632s0 0 0 0l-3.115 5.394-5.276-.002-.002-1.373h4.345a.25.25 0 00.216-.126l2.644-4.578v-.001h0l.943-1.632h0zM98.095 62.169l-.001 1.375-4.267.001a.25.25 0 00-.216.125l-2.256 3.907a.25.25 0 00-.001.003l-.93 1.61-4.47 7.74-.796-1.358 4.064-7.04a.25.25 0 00.006-.008l.942-1.637 2.725-4.719zM13.005 13.018L13 14.408H8.72a.25.25 0 00-.216.124l-2.247 3.892-.946 1.64-4.472 7.745-.795-1.378 4.069-7.059.951-1.648 2.717-4.705zM52.025 34.722l-.8 1.38-7.733-.003h-1.871s0 0 0 0l-5.39-.003-3.02-5.237 1.196-.695 2.554 4.427a.25.25 0 00.217.125l4.435.005h.003a.25.25 0 00.004 0l1.874-.005zM62.55 36.612l3.298 5.708c0 .001.003.002.003.004l.941 1.621 2.728 4.725-2.6 4.502-1.203-.688 2.13-3.688a.25.25 0 000-.25l-2.24-3.88a.25.25 0 00-.002-.005.25.25 0 00-.01-.018l-.94-1.634a.25.25 0 000 0l-.002-.004-3.691-6.394zM25.595 14.905l2.631 4.561 1.082 1.864.001.002h0l3.907 6.77-1.194.69-3.362-5.819-1.076-1.875h-.001s0 0 0 0l-3.576-6.191z" color="#000" font-weight="400" font-family="sans-serif" overflow="visible" fill="#666" stroke="#666" stroke-width=".1" stroke-linecap="square"/><path style="line-height:normal;font-variant-ligatures:normal;font-variant-position:normal;font-variant-caps:normal;font-variant-numeric:normal;font-variant-alternates:normal;font-variant-east-asian:normal;font-feature-settings:normal;font-variation-settings:normal;text-indent:0;text-align:start;text-decoration-line:none;text-decoration-style:solid;text-decoration-color:#000;text-transform:none;text-orientation:mixed;white-space:normal;shape-padding:0;shape-margin:0;inline-size:0;isolation:auto;mix-blend-mode:normal;solid-color:#000;solid-opacity:1" d="M41.366 23.977l.001 1.595-6.993 4.034-.004.004-1.626.94-4.378 2.526-4.047-2.336.693-1.199 3.227 1.863a.25.25 0 00.25 0l3.566-2.055h0l1.628-.938h0zM55.948 28.927l.793 1.376-2.334 4.042v.002l-.001.002-1.074 1.883-.001.002-3.938 6.811-1.197-.687 3.387-5.878a.25.25 0 00.002-.003l1.089-1.878a.25.25 0 00.005-.01zM17.664 4.918l.687 1.196-3.343 1.93a.25.25 0 00-.125.216l-.003 4.514.002 1.884h0l-.002 8.456-1.377-.795-.005-7.66.007-1.89v-5.45z" color="#000" font-weight="400" font-family="sans-serif" overflow="visible" fill="#666" stroke="#666" stroke-width=".1" stroke-linecap="square"/><path style="line-height:normal;font-variant-ligatures:normal;font-variant-position:normal;font-variant-caps:normal;font-variant-numeric:normal;font-variant-alternates:normal;font-variant-east-asian:normal;font-feature-settings:normal;font-variation-settings:normal;text-indent:0;text-align:start;text-decoration-line:none;text-decoration-style:solid;text-decoration-color:#000;text-transform:none;text-orientation:mixed;white-space:normal;shape-padding:0;shape-margin:0;inline-size:0;isolation:auto;mix-blend-mode:normal;solid-color:#000;solid-opacity:1" d="M31.805 13.021l-.802 1.386-5.264-.001h-.003l-2.162.001h-8.19l-.003-1.383 7.107-.001 2.166.001zM69.742 34.723l-.001 1.389h-7.045v-.001H60.53h-.002l-6.55-.004.791-1.386 4.645.002h0a.25.25 0 00.025.001l2.168-.002zM103.1 53.859l.692 1.197-3.687 2.127a.25.25 0 00-.125.217l-.003 4.518v.004a.25.25 0 000 0l.004 1.844-.002.01-.002 9.448v1.197l-8.995-5.198.68-1.177 6.556 3.785a.25.25 0 00.374-.216l.001-7.817a.25.25 0 000-.004l.003-1.875v-5.46zM-15.362-15.366l-.006 1.395-7.59.003a.25.25 0 00-.216.376l3.911 6.773.946 1.624 2.72 4.717-2.594 4.494-1.19-.677 2.123-3.678a.25.25 0 000-.25l-2.26-3.908-.002-.004-.922-1.644-.002.002-.001-.004-5.32-9.214zM43.248 14.909v7.551l-.003 2.167-.001.008v9.583h-1.376v-8.502l-.002-2.17v-.002s0 0 0 0v-8.636zM52.73 19.595l4.086 7.075a.25.25 0 00.001.002l1.082 1.877 3.276 5.675-1.592.001-2.334-4.042h0a.25.25 0 00-.003-.004l-1.08-1.875a.25.25 0 00-.013-.021l-4.615-7.998z" color="#000" font-weight="400" font-family="sans-serif" overflow="visible" fill="#666" stroke="#666" stroke-width=".1" stroke-linecap="square"/><path style="line-height:normal;font-variant-ligatures:normal;font-variant-position:normal;font-variant-caps:normal;font-variant-numeric:normal;font-variant-alternates:normal;font-variant-east-asian:normal;font-feature-settings:normal;font-variation-settings:normal;text-indent:0;text-align:start;text-decoration-line:none;text-decoration-style:solid;text-decoration-color:#000;text-transform:none;text-orientation:mixed;white-space:normal;shape-padding:0;shape-margin:0;inline-size:0;isolation:auto;mix-blend-mode:normal;solid-color:#000;solid-opacity:1" d="M47.854 14.908l-4.108.001.002 7.118 6.164-3.554zM56.734 17.285l-3.57 2.06 3.869 6.704 3.72-6.444zM38.253 6.59l-3.424 5.931h6.536V8.388zM69.745 15.835l-4.066-.004-1.675 2.9 5.743 3.312zM36.576-3.832l-5.81 3.353 6.62 3.822L39.05.461zM75.677 6.342L72.12 8.39v5.052l7.66.005zM41.377-13.48l-7.607-.003 3.683 6.385 3.923-2.266zM76.55-4.051L74.49-.475l2.065 3.573 6.188-3.574zM43.753-22.987l.002 7.134 4.105.003 2.064-3.574zM79.24-13.482l-7.12.001v4.115l3.555 2.058zM56.745-26.488l-3.576 6.18 3.582 2.07 3.56-2.057zM69.75-22.991l-6.19 3.573 2.052 3.56 4.137-.003z" color="#000" font-weight="400" font-family="sans-serif" overflow="visible" fill="#3efcc5" stroke="#666" stroke-width=".1" stroke-linecap="square"/><path style="line-height:normal;font-variant-ligatures:normal;font-variant-position:normal;font-variant-caps:normal;font-variant-numeric:normal;font-variant-alternates:normal;font-variant-east-asian:normal;font-feature-settings:normal;font-variation-settings:normal;text-indent:0;text-align:start;text-decoration-line:none;text-decoration-style:solid;text-decoration-color:#000;text-transform:none;text-orientation:mixed;white-space:normal;shape-padding:0;shape-margin:0;inline-size:0;isolation:auto;mix-blend-mode:normal;solid-color:#000;solid-opacity:1" d="M48.938 13.012l2.607 4.513-1.2.697-2.131-3.688a.249.249 0 00-.085-.09.252.252 0 00-.132-.035h-4.506l-1.875-.002H33.74l.801-1.387 7.074.002 1.89-.01h0zM70.246 25.088l1.369.793.003 8.593a.25.25 0 000 .004l-.003 1.88a.25.25 0 00.002.028v4.485l-4.518 2.608-.692-1.193 3.71-2.141a.25.25 0 00.124-.217V36.366a.25.25 0 000-.003v-1.888zM103.295 44.165l1.185.687-2.134 3.696a.25.25 0 000 .25l2.255 3.907.004.004.94 1.605v.005l5.321 9.206H100.48l-.002-1.352 7.567-.002a.25.25 0 00.217-.376l-3.908-6.769h0a.25.25 0 00-.003-.004l-.941-1.63-2.723-4.718zM18.648-4.728l1.19.69L17.318.323a.25.25 0 000 .25l1.844 3.19.94 1.627 4.118 7.134h-1.588L18.91 6.083v-.001l-.936-1.632L15.661.446zM36.63 5.654l1.19.687-3.64 6.306-1.087 1.883-.002.002-3.566 6.175-.793-1.367 2.631-4.558 1.09-1.885.002-.001zM-5.185-18.492l-2.604 4.51-5.194.004-.002-1.375 4.254-.004a.25.25 0 00.217-.126l2.133-3.696zM56.739 15.108l4.958 2.862-.695 1.203-4.144-2.393a.25.25 0 00-.25 0l-3.91 2.257-1.625.938-.003.001-7.325 4.225.003-1.595 6.63-3.825 1.63-.948h.002l.002-.001z" color="#000" font-weight="400" font-family="sans-serif" overflow="visible" fill="#666" stroke="#666" stroke-width=".1" stroke-linecap="square"/><path style="line-height:normal;font-variant-ligatures:normal;font-variant-position:normal;font-variant-caps:normal;font-variant-numeric:normal;font-variant-alternates:normal;font-variant-east-asian:normal;font-feature-settings:normal;font-variation-settings:normal;text-indent:0;text-align:start;text-decoration-line:none;text-decoration-style:solid;text-decoration-color:#000;text-transform:none;text-orientation:mixed;white-space:normal;shape-padding:0;shape-margin:0;inline-size:0;isolation:auto;mix-blend-mode:normal;solid-color:#000;solid-opacity:1" d="M79.694 28.35l-.701 1.213-7.003-4.042-1.869-1.084a.25.25 0 000 0l-7.058-4.075.691-1.197 6.116 3.526a.25.25 0 00.002.001l1.872 1.074h0zM38.979 4.834L43.253 7.3v5.213l-1.388.007.001-4.277a.25.25 0 00-.125-.217l-3.454-1.994-1.624-.938L28.89.607l1.376-.797L37.353 3.9h.002v.001zM99.978 35.675v4.26c0 .089.048.171.126.216l3.914 2.26h0a.25.25 0 00.003.002l1.622.925h.002l9.205 5.322-8.997 5.192-.692-1.182 6.555-3.785a.25.25 0 000-.433l-6.766-3.907a.25.25 0 00-.003-.001l-1.618-.936h0l-4.73-2.732-.001-5.2zM14.883-13.484l-.003 4.262c0 .09.047.173.124.218l4.368 2.522h.002l1.623.934 6.89 3.977-1.384.805-6.2-3.58-1.62-.94v.001l-.002-.002-5.177-2.989.002-5.204zM35.64-5.471l.688 1.207L30.14-.696l-.006.005L28.265.39 20.41 4.923l-.69-1.193 6.908-3.99 1.884-1.095h0z" color="#000" font-weight="400" font-family="sans-serif" overflow="visible" fill="#666" stroke="#666" stroke-width=".1" stroke-linecap="square"/><path style="line-height:normal;font-variant-ligatures:normal;font-variant-position:normal;font-variant-caps:normal;font-variant-numeric:normal;font-variant-alternates:normal;font-variant-east-asian:normal;font-feature-settings:normal;font-variation-settings:normal;text-indent:0;text-align:start;text-decoration-line:none;text-decoration-style:solid;text-decoration-color:#000;text-transform:none;text-orientation:mixed;white-space:normal;shape-padding:0;shape-margin:0;inline-size:0;isolation:auto;mix-blend-mode:normal;solid-color:#000;solid-opacity:1" d="M69.747 13.946l-.002 1.389-4.21-.005a.25.25 0 00-.217.126l-1.87 3.24a.25.25 0 00-.002.002l-.941 1.63-4.39 7.596-.793-1.376 3.987-6.906a.25.25 0 00.002-.003l.944-1.635a.25.25 0 00.005-.01l2.34-4.052zM84.33 21.33l.792 1.383-3.674 6.365a.25.25 0 00-.002.003L80.5 30.72l-3.113 5.39-5.27-.002.001-1.38h4.326a.25.25 0 00.216-.124l2.64-4.57a.25.25 0 000-.004l.952-1.647a.25.25 0 00.005-.01zM24.208-15.36l-.795 1.377-8.282-.002-1.876.007-5.459-.001-2.601-4.506 1.195-.694 2.134 3.696a.25.25 0 00.216.125l4.517-.002h1.876zM110.87 33.791l-5.194 8.99-1.19-.679 3.79-6.556a.25.25 0 00-.08-.334h0a.249.249 0 00-.136-.041l-7.832.002-1.88.004h-5.456l-2.606-4.51 1.198-.695 2.13 3.69a.25.25 0 00.216.124H98.346a.25.25 0 00.003 0h1.884zM.01-30.239L5.2-21.242l-1.194.69-3.785-6.555a.25.25 0 00-.432-.002l-3.785 6.556-1.194-.695zM83.325 15.833l1.873 3.242h0a.25.25 0 000 .001l.001.001 1.084 1.875 4.02 6.958-1.2.696-3.462-5.996a.25.25 0 00-.003-.004.25.25 0 00-.008-.018l-1.083-1.883-2.813-4.872zM33.196-13.482l3.949 6.85h-.001l.942 1.638 3.137 5.44-2.21 3.83-1.194-.683L39.556.586a.25.25 0 000-.25l-2.67-4.634-.008-.01-.928-1.63s0 0 0 0l-4.352-7.547z" color="#000" font-weight="400" font-family="sans-serif" overflow="visible" fill="#666" stroke="#666" stroke-width=".1" stroke-linecap="square"/><path style="line-height:normal;font-variant-ligatures:normal;font-variant-position:normal;font-variant-caps:normal;font-variant-numeric:normal;font-variant-alternates:normal;font-variant-east-asian:normal;font-feature-settings:normal;font-variation-settings:normal;text-indent:0;text-align:start;text-decoration-line:none;text-decoration-style:solid;text-decoration-color:#000;text-transform:none;text-orientation:mixed;white-space:normal;shape-padding:0;shape-margin:0;inline-size:0;isolation:auto;mix-blend-mode:normal;solid-color:#000;solid-opacity:1" d="M99.982 22.896v10.392l-1.383-.002V25.72a.25.25 0 00-.377-.215l-6.772 3.908-.006.005-1.625.942-4.721 2.727-4.041-2.332.696-1.207 3.235 1.868a.25.25 0 00.25 0l3.895-2.248h0a.25.25 0 00.004-.002l1.627-.945.004-.001zM14.887-26.254l-.004 10.394h-1.376l.003-7.574a.25.25 0 00-.117-.212h0a.25.25 0 00-.26-.005L6.356-19.74l-.004.004-1.617.94-.005.002L.011-16.07l-4.73-2.73-.001-.001h0l-1.627-.936-6.763-3.904a.25.25 0 00-.375.216v7.821l.002 1.876-.002 5.452-4.525 2.615-.694-1.192 3.71-2.141a.25.25 0 00.125-.217v-4.51h.001l.007-1.89v-.006l.001-10.638 9.206 5.315 1.624.944h0l.001.001 3.91 2.257a.25.25 0 00.25 0l3.91-2.257 1.627-.94zM90.18 13.952l-3.68 6.375-.797-1.376 1.873-3.243a.25.25 0 00-.217-.375h-3.89 0H81.3l-9.178-.007-.001-1.383 8.092.006.01-.001h2.164zM28.452-21.709l3.375 5.853-1.592.003-1.57-2.72a.25.25 0 00-.433 0l-1.642 2.846-.002.003-1.075 1.863-.003.003-4.48 7.752-1.192-.684 3.937-6.819 1.083-1.875z" color="#000" font-weight="400" font-family="sans-serif" overflow="visible" fill="#666" stroke="#666" stroke-width=".1" stroke-linecap="square"/><path style="line-height:normal;font-variant-ligatures:normal;font-variant-position:normal;font-variant-caps:normal;font-variant-numeric:normal;font-variant-alternates:normal;font-variant-east-asian:normal;font-feature-settings:normal;font-variation-settings:normal;text-indent:0;text-align:start;text-decoration-line:none;text-decoration-style:solid;text-decoration-color:#000;text-transform:none;text-orientation:mixed;white-space:normal;shape-padding:0;shape-margin:0;inline-size:0;isolation:auto;mix-blend-mode:normal;solid-color:#000;solid-opacity:1" d="M74.743 4.722l.683 1.186-3.679 2.123a.249.249 0 00-.125.216v5.443a.25.25 0 000 .003v1.883l-.003 7.542-1.373-.788V15.59a.25.25 0 000-.004l.001-1.889a.25.25 0 000-.007l.001-6.375zM41.378-15.355v1.375l-8.04-.002-2.172-.003-5.006.003.792-1.371 3.139-.001s0 0 0 0l2.169-.002z" color="#000" font-weight="400" font-family="sans-serif" overflow="visible" fill="#666" stroke="#666" stroke-width=".1" stroke-linecap="square"/><path style="line-height:normal;font-variant-ligatures:normal;font-variant-position:normal;font-variant-caps:normal;font-variant-numeric:normal;font-variant-alternates:normal;font-variant-east-asian:normal;font-feature-settings:normal;font-variation-settings:normal;text-indent:0;text-align:start;text-decoration-line:none;text-decoration-style:solid;text-decoration-color:#000;text-transform:none;text-orientation:mixed;white-space:normal;shape-padding:0;shape-margin:0;inline-size:0;isolation:auto;mix-blend-mode:normal;solid-color:#000;solid-opacity:1" d="M74.917-4.995l1.2.694-2.132 3.7a.25.25 0 000 .25l2.26 3.915.004.005.933 1.612 4.773 8.268h-1.598l-4.373-7.575-.005-.006-.928-1.61a.25.25 0 000 0l-.002-.005-2.736-4.738zM50.868-21.058l-.694 1.2-6.546-3.779a.25.25 0 00-.374.218l.002 7.817v.003l-.002 1.866v.002l.004 5.462-4.862 2.809-.692-1.205 4.047-2.338a.25.25 0 00.125-.217v-4.51h.002v-1.876l.001-10.637z" color="#000" font-weight="400" font-family="sans-serif" overflow="visible" fill="#666" stroke="#666" stroke-width=".1" stroke-linecap="square"/><path style="line-height:normal;font-variant-ligatures:normal;font-variant-position:normal;font-variant-caps:normal;font-variant-numeric:normal;font-variant-alternates:normal;font-variant-east-asian:normal;font-feature-settings:normal;font-variation-settings:normal;text-indent:0;text-align:start;text-decoration-line:none;text-decoration-style:solid;text-decoration-color:#000;text-transform:none;text-orientation:mixed;white-space:normal;shape-padding:0;shape-margin:0;inline-size:0;isolation:auto;mix-blend-mode:normal;solid-color:#000;solid-opacity:1" d="M71.62-13.48v4.259c0 .09.048.172.125.217l3.894 2.252.003.001s0 0 0 0l1.636.94 9.22 5.328-9.008 5.197-.686-1.184 6.563-3.79a.25.25 0 00.002-.433l-6.781-3.915-.003-.001h0l-1.634-.944s0 0 0 0L70.244-8.27l.001-5.209z" color="#000" font-weight="400" font-family="sans-serif" overflow="visible" fill="#666" stroke="#666" stroke-width=".1" stroke-linecap="square"/><path style="line-height:normal;font-variant-ligatures:normal;font-variant-position:normal;font-variant-caps:normal;font-variant-numeric:normal;font-variant-alternates:normal;font-variant-east-asian:normal;font-feature-settings:normal;font-variation-settings:normal;text-indent:0;text-align:start;text-decoration-line:none;text-decoration-style:solid;text-decoration-color:#000;text-transform:none;text-orientation:mixed;white-space:normal;shape-padding:0;shape-margin:0;inline-size:0;isolation:auto;mix-blend-mode:normal;solid-color:#000;solid-opacity:1" d="M82.493-15.359L77.31-6.368l-1.203-.69 3.782-6.55a.25.25 0 00-.217-.375l-7.802.004h0-1.874s0 0 0 0h-.001l-5.475-.001-2.59-4.497 1.197-.692 2.123 3.686a.25.25 0 00.216.125l4.53-.003s0 0 0 0l1.877.004zM56.748-30.243l5.19 9.009-1.193.689-3.784-6.568a.252.252 0 00-.088-.09h0a.25.25 0 00-.345.09l-3.917 6.773v.002l-.942 1.63-.001.002-2.73 4.725h-5.183v-1.371l4.25.002a.25.25 0 00.216-.125l2.26-3.916h.001l.943-1.634z" color="#000" font-weight="400" font-family="sans-serif" overflow="visible" fill="#666" stroke="#666" stroke-width=".1" stroke-linecap="square"/><path style="line-height:normal;font-variant-ligatures:normal;font-variant-position:normal;font-variant-caps:normal;font-variant-numeric:normal;font-variant-alternates:normal;font-variant-east-asian:normal;font-feature-settings:normal;font-variation-settings:normal;text-indent:0;text-align:start;text-decoration-line:none;text-decoration-style:solid;text-decoration-color:#000;text-transform:none;text-orientation:mixed;white-space:normal;shape-padding:0;shape-margin:0;inline-size:0;isolation:auto;mix-blend-mode:normal;solid-color:#000;solid-opacity:1" d="M71.622-26.245l.002 10.387-1.376-.002v-7.563a.25.25 0 00-.374-.216l-6.78 3.914-1.629.94-4.715 2.724-4.524-2.612.693-1.2 3.708 2.14a.25.25 0 00.25 0l3.901-2.254h0l1.62-.937.005-.001z" color="#000" font-weight="400" font-family="sans-serif" overflow="visible" fill="#666" stroke="#666" stroke-width=".1" stroke-linecap="square"/><path style="line-height:normal;font-variant-ligatures:normal;font-variant-position:normal;font-variant-caps:normal;font-variant-numeric:normal;font-variant-alternates:normal;font-variant-east-asian:normal;font-feature-settings:normal;font-variation-settings:normal;text-indent:0;text-align:start;text-decoration-line:none;text-decoration-style:solid;text-decoration-color:#000;text-transform:none;text-orientation:mixed;white-space:normal;shape-padding:0;shape-margin:0;inline-size:0;isolation:auto;mix-blend-mode:normal;solid-color:#000;solid-opacity:1" d="M-8.821 15.837l-4.172-.004.001 6.194 5.81-3.356zM-.012 17.279l-3.92 2.263 3.688 6.39 3.8-6.594zM-18.952 6.334l-4.106 7.12 7.682.002V8.399zM-19.825-4.03l-6.16 3.557 6.17 3.563 2.052-3.554zM12.998 14.907H8.865l-2.05 3.55 6.187 3.573zM18.601 6.548l-3.22 1.856v4.12h6.676zM-15.37-13.473l-7.154.005 3.57 6.182 3.584-2.07zM20.27-3.788L17.824.448l1.646 2.849 6.532-3.775zM-12.984-22.991v7.138l4.11-.005 2.06-3.57zM.006-26.483l-3.568 6.18 3.567 2.06 3.57-2.06zM23.125-13.483l-7.743-.003-.003 4.122 4.026 2.324zM13.01-23.002L6.822-19.43l2.062 3.572 4.122-.002z" color="#000" font-weight="400" font-family="sans-serif" overflow="visible" fill="#3efcc5" stroke="#666" stroke-width=".1" stroke-linecap="square"/><path d="M.007.267L56.745 0l-.01 97.784L0 97.777z" fill="none"/><path style="line-height:normal;font-variant-ligatures:normal;font-variant-position:normal;font-variant-caps:normal;font-variant-numeric:normal;font-variant-alternates:normal;font-variant-east-asian:normal;font-feature-settings:normal;font-variation-settings:normal;text-indent:0;text-align:start;text-decoration-line:none;text-decoration-style:solid;text-decoration-color:#000;text-transform:none;text-orientation:mixed;white-space:normal;shape-padding:0;shape-margin:0;inline-size:0;isolation:auto;mix-blend-mode:normal;solid-color:#000;solid-opacity:1" d="M29.62 46.716h.592v-.877l-.823.476zM28.375 46.512l.555-.32-.565-.98-.56.97zM30.989 48.022l.56-.97h-1v.716zM26.534 46.715h.574l.236-.408-.809-.468zM31.226 49.497l.823-.474-.937-.541-.236.408zM30.547 50.732h1.002l-.446-.773-.556.322zM25.741 48.031l.456-.263v-.715l-1.02-.001zM25.505 49.492l.345-.598-.233-.403-.923.533zM29.27 51.667l.94.542v-1.141h-.593zM25.18 50.731h1.017v-.45l-.57-.329zM28.361 52.572l.45-.78-.439-.254-.456.263zM26.533 52.21l.923-.532-.351-.609h-.573z" color="#000" font-weight="400" font-family="sans-serif" overflow="visible" fill="#d3d7cf" stroke="#666" stroke-width=".014" stroke-linecap="square"/><path style="line-height:normal;font-variant-ligatures:normal;font-variant-position:normal;font-variant-caps:normal;font-variant-numeric:normal;font-variant-alternates:normal;font-variant-east-asian:normal;font-feature-settings:normal;font-variation-settings:normal;text-indent:0;text-align:start;text-decoration-line:none;text-decoration-style:solid;text-decoration-color:#000;text-transform:none;text-orientation:mixed;white-space:normal;shape-padding:0;shape-margin:0;inline-size:0;isolation:auto;mix-blend-mode:normal;solid-color:#000;solid-opacity:1" d="M31.008 44.296h1.249v-1.85l-1.739 1.004zM28.377 43.866l1.173-.677-1.193-2.066-1.182 2.048zM33.898 47.056l1.183-2.05H32.97l-.001 1.513zM24.491 44.295h1.211l.499-.862-1.708-.989zM34.399 50.17l1.737-1.002-1.98-1.143-.497.863zM32.963 52.777h2.118l-.942-1.631-1.175.678zM22.816 47.074l.962-.555.001-1.51-2.156-.002zM22.317 50.16l.729-1.264-.492-.85-1.95 1.125zM30.269 54.753l1.983 1.143v-2.41H31zM21.63 52.776l2.148.001v-.951l-1.201-.695zM28.349 56.662l.95-1.647-.927-.535-.963.555zM24.487 55.9l1.951-1.126-.742-1.284-1.21-.002z" color="#000" font-weight="400" font-family="sans-serif" overflow="visible" fill="#888a85" stroke="#666" stroke-width=".03" stroke-linecap="square"/><path style="line-height:normal;font-variant-ligatures:normal;font-variant-position:normal;font-variant-caps:normal;font-variant-numeric:normal;font-variant-alternates:normal;font-variant-east-asian:normal;font-feature-settings:normal;font-variation-settings:normal;text-indent:0;text-align:start;text-decoration-line:none;text-decoration-style:solid;text-decoration-color:#000;text-transform:none;text-orientation:mixed;white-space:normal;shape-padding:0;shape-margin:0;inline-size:0;isolation:auto;mix-blend-mode:normal;solid-color:#000;solid-opacity:1" d="M33.295 40.308h2.333l.001-3.458-3.249 1.876zM28.381 39.505l2.19-1.266-2.227-3.86-2.208 3.826zM38.693 45.462l2.21-3.83h-3.945l-.002 2.827zM21.122 40.305h2.263l.93-1.61-3.19-1.846zM39.629 51.278l3.245-1.87-3.697-2.135-.93 1.612zM36.948 56.148l3.955.002-1.76-3.048-2.195 1.267zM17.995 45.496l1.796-1.036.001-2.821-4.026-.004zM17.06 51.26l1.363-2.36-.919-1.589-3.641 2.103zM31.915 59.839l3.704 2.136v-4.5H33.28zM15.777 56.147l4.014.002v-1.777l-2.244-1.297zM28.328 63.405l1.776-3.075-1.732-1-1.798 1.037zM21.116 61.98l3.643-2.1-1.386-2.4-2.258-.003z" color="#000" font-weight="400" font-family="sans-serif" overflow="visible" fill="#2e3436" stroke="#666" stroke-width=".056" stroke-linecap="square"/><path style="line-height:normal;font-variant-ligatures:normal;font-variant-position:normal;font-variant-caps:normal;font-variant-numeric:normal;font-variant-alternates:normal;font-variant-east-asian:normal;font-feature-settings:normal;font-variation-settings:normal;text-indent:0;text-align:start;text-decoration-line:none;text-decoration-style:solid;text-decoration-color:#000;text-transform:none;text-orientation:mixed;white-space:normal;shape-padding:0;shape-margin:0;inline-size:0;isolation:auto;mix-blend-mode:normal;solid-color:#000;solid-opacity:1" d="M28.957 47.872h.277v-.41l-.385.222zM28.373 47.777l.26-.15-.264-.46-.262.455zM29.599 48.484l.262-.455h-.469v.336zM27.511 47.872h.269l.11-.192-.379-.219zM29.71 49.175l.385-.222-.439-.253-.11.191zM29.391 49.754h.47l-.209-.362-.26.15zM27.14 48.489l.213-.124v-.335h-.478zM27.029 49.173l.161-.28-.109-.189-.432.25zM28.793 50.193l.44.253v-.534h-.277zM26.876 49.754h.477v-.211l-.267-.154zM28.367 50.616l.211-.365-.206-.119-.213.123zM27.51 50.447l.433-.25-.164-.285h-.269z" color="#000" font-weight="400" font-family="sans-serif" overflow="visible" fill="#eeeeec" stroke="#666" stroke-width=".007" stroke-linecap="square"/><path style="line-height:normal;font-variant-ligatures:normal;font-variant-position:normal;font-variant-caps:normal;font-variant-numeric:normal;font-variant-alternates:normal;font-variant-east-asian:normal;font-feature-settings:normal;font-variation-settings:normal;text-indent:0;text-align:start;text-decoration-line:none;text-decoration-style:solid;text-decoration-color:#000;text-transform:none;text-orientation:mixed;white-space:normal;shape-padding:0;shape-margin:0;inline-size:0;isolation:auto;mix-blend-mode:normal;solid-color:#000;solid-opacity:1" d="M61.668 89.206H64l.002-3.458-3.25 1.876zM56.754 88.403l2.19-1.266-2.227-3.86-2.209 3.826zM67.065 94.36l2.211-3.83H65.33l-.001 2.827zM49.495 89.203h2.263l.93-1.61-3.19-1.846zM68.001 100.176l3.246-1.87-3.697-2.135-.93 1.612zM65.32 105.046l3.956.002-1.76-3.048-2.195 1.267zM46.367 94.394l1.797-1.036v-2.821l-4.026-.004zM45.433 100.158l1.363-2.36-.92-1.589-3.64 2.103zM60.287 108.737l3.704 2.136v-4.501h-2.338zM44.15 105.045l4.013.002v-1.777l-2.244-1.297zM56.7 112.303l1.776-3.075-1.731-1-1.8 1.037zM49.488 110.879l3.644-2.101-1.386-2.4-2.259-.003z" color="#000" font-weight="400" font-family="sans-serif" overflow="visible" fill="#74f882" stroke="#666" stroke-width=".056" stroke-linecap="square"/><path style="line-height:normal;font-variant-ligatures:normal;font-variant-position:normal;font-variant-caps:normal;font-variant-numeric:normal;font-variant-alternates:normal;font-variant-east-asian:normal;font-feature-settings:normal;font-variation-settings:normal;text-indent:0;text-align:start;text-decoration-line:none;text-decoration-style:solid;text-decoration-color:#000;text-transform:none;text-orientation:mixed;white-space:normal;shape-padding:0;shape-margin:0;inline-size:0;isolation:auto;mix-blend-mode:normal;solid-color:#000;solid-opacity:1" d="M57.993 95.614h.591v-.877l-.823.476zM56.747 95.41l.555-.32-.564-.98-.56.97zM59.361 96.92l.561-.97h-1v.716zM54.907 95.613h.573l.236-.409-.808-.467zM59.599 98.395l.823-.474-.938-.541-.236.408zM58.92 99.63h1.002l-.446-.773-.557.322zM54.114 96.929l.455-.263v-.715l-1.02-.001zM53.877 98.39l.345-.598-.233-.403-.923.533zM57.643 100.565l.94.542-.001-1.141h-.593zM53.552 99.63h1.017v-.45L54 98.85zM56.734 101.47l.45-.78-.44-.254-.455.263zM54.905 101.108l.924-.532-.352-.609h-.572z" color="#000" font-weight="400" font-family="sans-serif" overflow="visible" fill="#d3d7cf" stroke="#666" stroke-width=".014" stroke-linecap="square"/><path style="line-height:normal;font-variant-ligatures:normal;font-variant-position:normal;font-variant-caps:normal;font-variant-numeric:normal;font-variant-alternates:normal;font-variant-east-asian:normal;font-feature-settings:normal;font-variation-settings:normal;text-indent:0;text-align:start;text-decoration-line:none;text-decoration-style:solid;text-decoration-color:#000;text-transform:none;text-orientation:mixed;white-space:normal;shape-padding:0;shape-margin:0;inline-size:0;isolation:auto;mix-blend-mode:normal;solid-color:#000;solid-opacity:1" d="M59.38 93.194h1.249l.001-1.85-1.74 1.004zM56.75 92.764l1.172-.677-1.192-2.066-1.183 2.048zM62.27 95.953l1.184-2.05H61.34v1.514zM52.863 93.193h1.212l.498-.863-1.708-.988zM62.771 99.067l1.738-1-1.98-1.144-.498.863zM61.336 101.675h2.118l-.943-1.631-1.175.678zM51.189 95.972l.962-.555v-1.51l-2.155-.002zM50.689 99.058l.73-1.264-.493-.85-1.95 1.125zM58.641 103.65l1.983 1.144v-2.41h-1.252zM50.002 101.674l2.149.001v-.951l-1.202-.695zM56.721 105.56l.95-1.647-.926-.535-.963.555zM52.86 104.797l1.95-1.125-.741-1.284-1.21-.002z" color="#000" font-weight="400" font-family="sans-serif" overflow="visible" fill="#888a85" stroke="#666" stroke-width=".03" stroke-linecap="square"/><path style="line-height:normal;font-variant-ligatures:normal;font-variant-position:normal;font-variant-caps:normal;font-variant-numeric:normal;font-variant-alternates:normal;font-variant-east-asian:normal;font-feature-settings:normal;font-variation-settings:normal;text-indent:0;text-align:start;text-decoration-line:none;text-decoration-style:solid;text-decoration-color:#000;text-transform:none;text-orientation:mixed;white-space:normal;shape-padding:0;shape-margin:0;inline-size:0;isolation:auto;mix-blend-mode:normal;solid-color:#000;solid-opacity:1" d="M61.668 89.206H64l.002-3.458-3.25 1.876zM56.754 88.403l2.19-1.266-2.227-3.86-2.209 3.826zM67.065 94.36l2.211-3.83h-3.945l-.002 2.827zM49.495 89.203h2.263l.93-1.61-3.19-1.846zM68.001 100.176l3.246-1.87-3.697-2.135-.93 1.612zM65.32 105.046l3.956.002-1.76-3.048-2.195 1.267zM46.367 94.394l1.797-1.036v-2.821l-4.026-.004zM45.433 100.158l1.363-2.36-.92-1.589-3.64 2.103zM60.287 108.737l3.705 2.136-.001-4.501h-2.338zM44.15 105.045l4.013.002v-1.777l-2.244-1.297zM56.7 112.303l1.776-3.075-1.731-1-1.8 1.037zM49.488 110.879l3.644-2.101-1.386-2.4-2.259-.003z" color="#000" font-weight="400" font-family="sans-serif" overflow="visible" fill="#2e3436" stroke="#666" stroke-width=".056" stroke-linecap="square"/><path style="line-height:normal;font-variant-ligatures:normal;font-variant-position:normal;font-variant-caps:normal;font-variant-numeric:normal;font-variant-alternates:normal;font-variant-east-asian:normal;font-feature-settings:normal;font-variation-settings:normal;text-indent:0;text-align:start;text-decoration-line:none;text-decoration-style:solid;text-decoration-color:#000;text-transform:none;text-orientation:mixed;white-space:normal;shape-padding:0;shape-margin:0;inline-size:0;isolation:auto;mix-blend-mode:normal;solid-color:#000;solid-opacity:1" d="M57.33 96.77h.277v-.41l-.386.222zM56.746 96.675l.26-.15-.264-.46-.263.455zM57.971 97.382l.263-.455h-.47v.336zM55.884 96.77h.268l.11-.192-.378-.219zM58.082 98.073l.386-.222-.44-.253-.11.191zM57.764 98.652h.47l-.21-.362-.26.15zM55.512 97.386l.213-.123v-.335h-.478zM55.4 98.071l.163-.28-.11-.189-.432.25zM57.166 99.09l.44.254v-.534h-.278zM55.248 98.652h.477v-.211l-.266-.154zM56.74 99.514l.21-.365-.205-.119-.214.123zM55.883 99.345l.433-.25-.165-.285h-.268z" color="#000" font-weight="400" font-family="sans-serif" overflow="visible" fill="#eeeeec" stroke="#666" stroke-width=".007" stroke-linecap="square"/></svg>