<?xml version="1.0" encoding="UTF-8" standalone="no"?>
<svg
   xmlns:dc="http://purl.org/dc/elements/1.1/"
   xmlns:cc="http://creativecommons.org/ns#"
   xmlns:rdf="http://www.w3.org/1999/02/22-rdf-syntax-ns#"
   xmlns:svg="http://www.w3.org/2000/svg"
   xmlns="http://www.w3.org/2000/svg"
   xmlns:sodipodi="http://sodipodi.sourceforge.net/DTD/sodipodi-0.dtd"
   xmlns:inkscape="http://www.inkscape.org/namespaces/inkscape"
   width="210mm"
   height="297mm"
   viewBox="0 0 210 297"
   version="1.1"
   id="svg7646"
   inkscape:version="1.0beta2 (235953b, 2020-02-06)"
   sodipodi:docname="threaded-union.svg">
  <defs
     id="defs7640" />
  <sodipodi:namedview
     inkscape:object-nodes="true"
     id="base"
     pagecolor="#ffffff"
     bordercolor="#666666"
     borderopacity="1.0"
     inkscape:pageopacity="0.0"
     inkscape:pageshadow="2"
     inkscape:zoom="2.8284271"
     inkscape:cx="311.58661"
     inkscape:cy="438.3982"
     inkscape:document-units="mm"
     inkscape:current-layer="svg7646"
     inkscape:document-rotation="0"
     showgrid="false"
     inkscape:object-paths="true"
     inkscape:snap-midpoints="false"
     inkscape:snap-intersection-paths="true"
     inkscape:snap-smooth-nodes="true"
     inkscape:snap-bbox="true"
     inkscape:window-width="1848"
     inkscape:window-height="1057"
     inkscape:window-x="-8"
     inkscape:window-y="-8"
     inkscape:window-maximized="1" />
  <metadata
     id="metadata7643">
    <rdf:RDF>
      <cc:Work
         rdf:about="">
        <dc:format>image/svg+xml</dc:format>
        <dc:type
           rdf:resource="http://purl.org/dc/dcmitype/StillImage" />
        <dc:title></dc:title>
      </cc:Work>
    </rdf:RDF>
  </metadata>
  <g
     inkscape:label="Layer 1"
     inkscape:groupmode="layer"
     id="layer1"
     transform="translate(-2.1087109,5.9427307)"
     style="stroke-width:0.034;stroke-miterlimit:4;stroke-dasharray:none;fill:none;fill-opacity:1;stroke:#000000;stroke-opacity:1" />
  <path
     transform="scale(0.26458333)"
     d="M 394.20703 74.601562 C 393.85591 74.587578 393.52697 74.769816 393.35156 75.074219 L 372.88086 110.50781 L 337.45508 90.007812 C 336.82473 89.644033 336.03834 90.098397 336.03906 90.826172 L 336.03906 131.74414 L 295.17969 131.75977 C 294.4519 131.75904 293.99559 132.54544 294.35938 133.17578 L 314.81641 168.5957 L 285.43555 185.55078 L 260.96484 171.4082 C 260.3345 171.04442 259.54615 171.49879 259.54688 172.22656 L 259.54688 200.48438 L 229.7168 217.70703 L 209.26953 182.25977 C 208.90628 181.62743 207.99412 181.62743 207.63086 182.25977 L 187.16016 217.69141 L 151.75 197.24414 C 151.12249 196.88199 150.33696 197.33213 150.33203 198.05664 L 150.31055 238.94531 L 109.45117 238.94531 C 108.72339 238.94459 108.26903 239.73099 108.63281 240.36133 L 129.07227 275.7793 L 93.609375 296.2793 C 92.977037 296.64255 92.977037 297.5547 93.609375 297.91797 L 129.04297 318.36523 L 108.63281 353.74023 C 108.26903 354.37058 108.7234 355.15892 109.45117 355.1582 L 150.31055 355.1582 L 150.31055 391.40234 L 124.36914 406.35742 C 123.73678 406.72063 123.73678 407.63284 124.36914 407.99609 L 150.29492 422.9668 L 150.29492 453.38086 L 109.40625 453.37305 C 108.67846 453.37233 108.22411 454.16067 108.58789 454.79102 L 129.04297 490.23828 L 93.609375 510.71484 C 92.977011 511.07806 92.977011 511.99222 93.609375 512.35547 L 129.00586 532.79492 L 108.58789 568.16211 C 108.22411 568.79246 108.67848 569.57884 109.40625 569.57812 L 150.31055 569.59375 L 150.33203 610.50391 C 150.33694 611.2284 151.1225 611.67856 151.75 611.31641 L 187.14648 590.88281 L 207.60156 626.26562 C 207.96644 626.88947 208.86754 626.88947 209.23242 626.26562 L 229.6582 590.89844 L 259.5332 608.15039 L 259.54688 642.13672 C 259.54272 642.87021 260.3407 643.32747 260.97266 642.95508 L 290.38086 625.96289 L 314.71875 640.00977 L 294.27148 675.41406 C 293.9077 676.04441 294.36402 676.8308 295.0918 676.83008 L 301.23242 676.83008 L 336.02344 676.8457 L 336.03125 717.71875 C 336.03052 718.44654 336.81887 718.90284 337.44922 718.53906 L 372.83789 698.12109 L 393.26953 733.51758 C 393.63274 734.14993 394.54691 734.14993 394.91016 733.51758 L 415.34961 698.12109 L 450.8125 718.58984 C 451.44285 718.95343 452.23119 718.49938 452.23047 717.77148 L 452.23047 676.8457 L 493.0957 676.83008 C 493.82349 676.8308 494.2798 676.04441 493.91602 675.41406 L 473.49609 640.0625 L 499.87305 624.83984 L 531.34961 643.03711 C 531.97996 643.4007 532.76634 642.94473 532.76562 642.2168 L 532.76562 605.83984 L 558.57227 590.94336 L 578.99805 626.33203 C 579.36277 626.95588 580.26598 626.95588 580.63086 626.33203 L 583.7168 621.01562 L 601.09961 590.92773 L 636.51758 611.36914 C 637.15076 611.73462 637.94201 611.27217 637.93555 610.54102 L 637.91406 604.40039 L 637.93555 569.64648 L 678.82422 569.64648 C 679.552 569.6472 680.00636 568.85887 679.64258 568.22852 L 659.21875 532.82422 L 694.65039 512.39258 C 695.28271 512.02937 695.28271 511.11716 694.65039 510.75391 L 659.20312 490.2832 L 679.63672 454.87305 C 679.9988 454.24553 679.54853 453.46003 678.82422 453.45508 L 637.96484 453.45508 L 637.96484 425.35156 L 667.89062 408.04883 C 668.52294 407.68562 668.52294 406.77341 667.89062 406.41016 L 662.57617 403.3457 L 637.95117 389.13672 L 637.95117 355.22461 L 678.85352 355.23828 C 679.5813 355.23901 680.03761 354.45262 679.67383 353.82227 L 676.58789 348.48438 L 659.21875 318.37305 L 694.62109 297.91797 C 695.25345 297.55472 695.25345 296.64256 694.62109 296.2793 L 659.21875 275.86133 L 679.67383 240.45117 C 680.03742 239.82082 679.58145 239.03247 678.85352 239.0332 L 637.96484 239.01172 L 637.98047 198.13672 C 637.98119 197.40893 637.19285 196.95458 636.5625 197.31836 L 601.13672 217.75781 L 580.68164 182.32617 C 580.31843 181.69385 579.40622 181.69385 579.04297 182.32617 L 558.5957 217.75781 L 532.76562 202.84766 L 532.76562 172.30078 C 532.76185 171.57627 531.97712 171.12611 531.34961 171.48828 L 504.89258 186.74023 L 473.51172 168.625 L 493.99609 133.17578 C 494.35968 132.54545 493.90563 131.75907 493.17773 131.75977 L 452.24414 131.74414 L 452.21484 90.886719 C 452.21556 90.158933 451.42722 89.702623 450.79688 90.066406 L 415.44531 110.49219 L 394.99023 75.074219 C 394.82809 74.792682 394.53173 74.614035 394.20703 74.601562 z M 394.16992 77.435547 L 413.80469 111.42969 L 409.29688 114.02539 L 395.00391 89.269531 C 394.83987 88.990829 394.54393 88.815599 394.2207 88.804688 C 393.87374 88.791837 393.54914 88.970355 393.37305 89.269531 L 378.58008 114.89258 L 375.02148 121.04883 L 364.73828 138.875 L 344.99219 138.875 L 344.99219 133.63477 L 361.17188 133.63477 C 361.50984 133.63514 361.82319 133.4548 361.99219 133.16211 L 370.50195 118.41211 L 370.50391 118.41211 L 374.0332 112.28516 C 374.03671 112.27944 374.04348 112.2773 374.04688 112.27148 L 394.16992 77.435547 z M 394.19141 91.623047 L 407.66406 114.96484 L 394.125 122.79102 L 380.68164 115.01758 L 394.19141 91.623047 z M 337.92773 92.458984 L 371.93945 112.13867 L 369.33789 116.64844 L 344.54102 102.29883 C 344.40219 102.21906 344.24407 102.17442 344.08398 102.17188 L 344.08203 102.17188 C 343.55536 102.16467 343.12304 102.59021 343.12305 103.11719 L 343.10156 132.68945 C 343.10156 132.69292 343.10348 132.69576 343.10352 132.69922 L 343.10352 139.81055 C 343.10348 139.81401 343.10156 139.81684 343.10156 139.82031 L 343.09375 160.44531 L 326.13086 170.24023 L 323.54102 165.75195 L 337.45508 157.72852 C 337.74776 157.55953 337.92616 157.24812 337.92578 156.91016 L 337.92578 139.82031 L 337.92773 139.82031 L 337.92773 132.68945 L 337.92773 92.458984 z M 450.32422 92.525391 L 450.35352 131.74609 L 445.11133 131.75781 L 445.11133 103.17578 C 445.11205 102.67349 444.72029 102.25993 444.21875 102.23242 C 444.03544 102.2226 443.85432 102.26558 443.69531 102.35742 L 418.16211 117.11328 L 418.16016 117.11328 C 418.1585 117.11424 418.1579 117.11622 418.15625 117.11719 L 412.03125 120.6543 C 412.02998 120.65502 412.02861 120.65552 412.02734 120.65625 C 412.02681 120.65655 412.02592 120.65594 412.02539 120.65625 L 394.10352 131 L 377.13086 121.17578 L 379.73828 116.65039 L 393.65234 124.70312 C 393.9445 124.87188 394.30531 124.87188 394.59766 124.70312 L 409.41992 116.13281 C 409.42036 116.13256 409.42144 116.13307 409.42188 116.13281 L 415.57031 112.5957 L 450.32422 92.525391 z M 345.01367 104.75586 L 368.39258 118.28711 L 360.625 131.74414 L 344.99023 131.74414 L 345.01367 104.75586 z M 443.22266 104.81641 L 443.22266 131.75977 L 427.69727 131.74414 L 419.92383 118.27344 L 443.22266 104.81641 z M 418.28711 119.21875 L 426.33203 133.16211 C 426.50098 133.4548 426.81438 133.63514 427.15234 133.63477 L 444.15625 133.64844 L 444.16602 133.64844 C 444.16668 133.64844 444.16731 133.64844 444.16797 133.64844 L 451.29883 133.63477 L 491.54492 133.64844 L 471.88086 167.68164 L 467.39844 165.10156 L 481.71875 140.29297 C 482.08083 139.66545 481.6306 138.87992 480.90625 138.875 L 451.3125 138.875 L 451.29883 138.875 L 451.29688 138.875 L 444.16797 138.875 C 444.16731 138.875 444.16668 138.875 444.16602 138.875 L 423.63086 138.875 L 413.79102 121.82227 L 418.28711 119.21875 z M 412.15234 122.76758 L 422.27148 140.29297 C 422.4393 140.58339 422.74866 140.76338 423.08398 140.76562 L 443.22266 140.76562 L 443.22266 160.99219 C 443.22228 161.33015 443.40278 161.64155 443.69531 161.81055 L 461.27148 171.95312 L 451.1875 189.4043 C 451.01893 189.69664 451.01893 190.05726 451.1875 190.34961 L 463.03516 210.89258 L 445.7168 220.88086 C 445.42124 221.04795 445.23746 221.36168 445.23633 221.70117 L 445.23633 239.02539 L 423.05469 239.02539 C 422.71831 239.0235 422.40525 239.2004 422.23438 239.49023 L 412.10938 257.00781 L 394.58398 246.88672 C 394.29183 246.71796 393.93102 246.71796 393.63867 246.88672 L 376.18945 256.95703 L 366.07617 239.43164 C 365.90719 239.13895 365.59382 238.95861 365.25586 238.95898 L 347 238.95898 L 347 221.70117 C 347.00037 221.36321 346.82003 221.04986 346.52734 220.88086 L 326.32422 209.20312 L 337.20508 190.34961 C 337.37383 190.05726 337.37383 189.69665 337.20508 189.4043 L 327.07617 171.88086 L 344.51367 161.81055 C 344.80349 161.63967 344.98042 161.32863 344.97852 160.99219 L 344.99219 140.76562 L 365.28516 140.76562 C 365.62312 140.766 365.93647 140.58566 366.10547 140.29297 L 376.1875 122.8125 L 393.63281 132.91016 C 393.92497 133.07891 394.28383 133.07891 394.57617 132.91016 L 412.15234 122.76758 z M 336.03906 133.63477 L 336.03906 138.875 L 307.46875 138.875 C 306.74424 138.87991 306.29408 139.66546 306.65625 140.29297 L 321.43555 165.87891 C 321.43699 165.88139 321.43995 165.8823 321.44141 165.88477 L 324.96094 171.99805 C 324.96231 172.00046 324.9615 172.00345 324.96289 172.00586 L 335.29883 189.87695 L 324.69336 208.25586 L 320.15039 205.62305 L 328.98047 190.32031 C 329.14922 190.02797 329.14922 189.66735 328.98047 189.375 L 320.45703 174.61523 L 320.46289 174.61133 L 316.91992 168.46875 L 296.81836 133.64844 L 336.03906 133.63477 z M 309.10742 140.76562 L 336.03711 140.76562 L 336.03711 156.36328 L 322.59375 164.11328 L 309.10742 140.76562 z M 445.11133 140.76562 L 450.35352 140.76562 L 450.36719 156.91016 C 450.36681 157.24812 450.54731 157.55952 450.83984 157.72852 L 465.63281 166.26953 C 465.64023 166.27382 465.64877 166.27328 465.65625 166.27734 L 471.75391 169.79102 L 503.00195 187.83398 L 497.77344 190.85352 L 469.14648 174.32422 C 469.13728 174.31893 469.12655 174.31746 469.11719 174.3125 L 463.03711 170.79492 A 0.94488189 0.94488189 0 0 0 463.03516 170.79492 L 463.01953 170.78516 L 445.11133 160.44531 L 445.11133 140.76562 z M 452.24219 140.76562 L 479.26758 140.76562 L 465.76562 164.1582 L 452.25781 156.36328 L 452.24219 140.76562 z M 315.75391 170.23438 L 318.35156 174.73633 L 292.03516 189.92188 L 284.91797 194.01758 L 268.53906 203.48828 L 268.53906 197.50195 L 278.8125 191.56836 C 278.81296 191.56809 278.81399 191.56863 278.81445 191.56836 L 285.9082 187.46289 L 315.75391 170.23438 z M 462.9043 172.90039 L 467.38281 175.48828 L 459.35156 189.39062 C 459.18262 189.68297 459.18262 190.04163 459.35156 190.33398 L 469.63477 208.15039 A 0.94488189 0.94488189 0 0 0 469.64258 208.16211 L 473.19727 214.31836 C 473.19864 214.32079 473.19782 214.32375 473.19922 214.32617 L 487.44531 239.01562 L 481.46094 239.03125 L 468.7207 216.9668 A 0.94488189 0.94488189 0 0 0 468.71289 216.95312 L 465.14844 210.76758 A 0.94488189 0.94488189 0 0 0 465.13281 210.74414 L 453.0918 189.87695 L 462.9043 172.90039 z M 261.4375 173.86523 L 283.54688 186.64453 L 278.33984 189.66211 L 268.06445 183.72852 C 267.92722 183.64964 267.77153 183.605 267.61328 183.60156 C 267.08283 183.58909 266.64639 184.01628 266.64648 184.54688 L 266.64648 196.96289 C 266.64652 196.96769 266.64834 196.97178 266.64844 196.97656 L 266.64844 205.10742 C 266.64834 205.11207 266.64652 205.11644 266.64648 205.12109 L 266.63281 238.96094 L 261.4375 238.97266 L 261.4375 209.2168 L 261.4375 201.03125 L 261.4375 173.86523 z M 530.875 173.93945 L 530.875 201.75781 L 525.66992 198.75977 L 525.66992 184.60547 C 525.67064 184.10318 525.27889 183.68964 524.77734 183.66211 C 524.59404 183.65228 524.41062 183.69527 524.25195 183.78711 L 511.52148 191.13867 L 511.51953 191.13867 L 511.51367 191.14258 L 504.42383 195.23438 C 504.42202 195.2354 504.41977 195.23529 504.41797 195.23633 L 474.36523 212.56055 L 471.74805 208.03516 L 498.24609 192.76367 C 498.25872 192.75642 498.26718 192.74596 498.2793 192.73828 L 505.36328 188.65234 L 530.875 173.93945 z M 319.29492 176.375 L 327.06836 189.84766 L 318.51172 204.67773 L 294.38867 190.74023 L 319.29492 176.375 z M 469.02148 176.43555 L 495.88477 191.9375 L 470.80078 206.39844 L 461.25586 189.86133 L 469.02148 176.43555 z M 208.44922 184.62109 L 228.07812 218.65234 L 223.57422 221.25 L 209.26953 196.45508 C 209.10728 196.17354 208.81103 195.99489 208.48633 195.98242 L 208.48438 195.98242 C 208.13329 195.96844 207.80432 196.15064 207.62891 196.45508 L 192.83594 222.07031 C 192.83195 222.07721 192.83192 222.08484 192.82812 222.0918 L 189.3125 228.22656 C 189.30925 228.23188 189.30394 228.23483 189.30078 228.24023 L 179.00391 246.06836 L 158.36328 246.06836 C 158.36048 246.06836 158.35826 246.07029 158.35547 246.07031 L 158.35547 246.06836 L 151.26172 246.08203 L 121.75 246.08203 C 121.02221 246.08131 120.5659 246.86965 120.92969 247.5 L 135.70898 273.09961 L 139.25977 279.23438 L 149.55664 297.08398 L 139.68555 314.19336 L 135.16406 311.60352 L 143.25977 297.58594 C 143.42852 297.29359 143.42852 296.93298 143.25977 296.64062 L 134.73633 281.88086 L 134.74219 281.87695 L 131.18945 275.67383 C 131.18605 275.66763 131.18715 275.66045 131.18359 275.6543 L 111.08203 240.83398 L 151.25586 240.83398 L 158.35547 240.85547 L 158.35547 240.85352 C 158.35826 240.85354 158.36048 240.85547 158.36328 240.85547 L 175.42383 240.85547 C 175.76179 240.85584 176.07319 240.67745 176.24219 240.38477 L 184.77539 225.60547 L 188.32617 219.45703 L 208.44922 184.62109 z M 579.86133 184.6875 L 599.49805 218.70312 L 594.9707 221.31055 L 580.66602 196.54297 C 580.50198 196.26427 580.20604 196.08902 579.88281 196.07812 C 579.53169 196.06414 579.20275 196.24638 579.02734 196.55078 L 564.24805 222.14258 C 564.24301 222.15129 564.24301 222.16112 564.23828 222.16992 L 560.69922 228.32227 L 550.40039 246.17188 L 532.76562 246.17188 L 532.76562 240.9082 L 546.88086 240.9082 C 547.21875 240.90858 547.53024 240.72823 547.69922 240.43555 L 556.20312 225.7168 L 556.20312 225.71484 A 0.94488189 0.94488189 0 0 0 556.21094 225.70117 L 559.75 219.53711 C 559.75325 219.53179 559.75856 219.52884 559.76172 219.52344 L 579.86133 184.6875 z M 268.53711 186.17969 L 276.45703 190.74805 L 268.53711 195.32422 L 268.53711 186.17969 z M 523.78125 186.24609 L 523.78125 197.67188 L 513.88086 191.95898 L 523.78125 186.24609 z M 292.51367 191.82812 L 318.38281 206.78516 L 318.38086 206.78906 L 324.55859 210.36914 L 345.10938 222.24609 L 345.10938 238.96094 L 339.91406 238.97852 L 339.91406 225.85547 C 339.91443 225.5175 339.73409 225.20611 339.44141 225.03711 L 321.94727 214.91602 C 321.93309 214.90787 321.91688 214.90386 321.90234 214.89648 L 315.7832 211.31445 C 315.78276 211.3142 315.78169 211.31471 315.78125 211.31445 L 287.2793 194.83789 L 292.51367 191.82812 z M 511.99219 193.05078 L 524.25 200.12109 L 524.25195 200.12305 A 0.94488189 0.94488189 0 0 0 524.25391 200.12305 C 524.25522 200.1238 524.2565 200.12425 524.25781 200.125 L 531.34766 204.21289 L 557.65625 219.39258 L 555.04297 223.9375 L 532.37891 210.85547 A 0.94488189 0.94488189 0 0 0 532.36328 210.8457 A 0.94488189 0.94488189 0 0 0 532.30078 210.80469 L 525.19922 206.68555 L 506.7832 196.05664 L 511.99219 193.05078 z M 285.39062 195.92188 L 314.01758 212.47266 L 298.72852 238.95898 L 268.52148 238.95898 L 268.53711 205.66602 L 285.39062 195.92188 z M 504.89062 197.14844 L 523.77344 208.04297 L 523.75781 238.98828 L 489.625 239.01172 L 475.31055 214.20117 L 504.89062 197.14844 z M 208.44922 198.81641 L 221.93555 222.19531 L 208.44922 229.99023 L 194.94727 222.19531 L 208.44922 198.81641 z M 579.8457 198.91211 L 593.33203 222.25391 L 579.83203 230.04883 L 566.35938 222.27539 L 579.8457 198.91211 z M 152.22266 199.69531 L 186.2168 219.33008 L 183.61328 223.8457 L 158.83594 209.54297 C 158.69655 209.46288 158.53966 209.41825 158.37891 209.41602 C 157.85421 209.4077 157.42206 209.82877 157.41797 210.35352 L 157.41797 238.96484 L 152.19922 238.94727 L 152.22266 199.69531 z M 636.08984 199.77539 L 636.07422 239.01562 L 630.90039 239.04297 L 630.91602 210.41992 C 630.91673 209.91763 630.52498 209.50407 630.02344 209.47656 L 630.02148 209.47656 C 629.83818 209.46674 629.65667 209.50972 629.49805 209.60156 L 603.86719 224.41016 L 597.71875 227.97461 L 579.86328 238.28711 L 562.81055 228.44727 L 565.41602 223.91016 L 579.35938 231.96094 C 579.65153 232.12969 580.01039 232.12969 580.30273 231.96094 L 595.07227 223.43359 L 595.08594 223.42773 A 0.94488189 0.94488189 0 0 0 595.09766 223.41992 L 601.26172 219.86133 L 636.08984 199.77539 z M 259.54688 202.66797 L 259.54688 208.67578 L 232.43359 224.32031 L 226.30664 227.88672 L 208.43555 238.19922 L 191.40625 228.36914 L 194.00586 223.83594 L 207.97656 231.90234 C 208.26891 232.0711 208.62757 232.0711 208.91992 231.90234 L 223.70117 223.36133 L 229.8418 219.81836 L 259.54688 202.66797 z M 525.66797 209.14258 L 530.87695 212.16992 L 530.87695 239.94922 A 0.94488189 0.94488189 0 0 0 530.87695 239.96289 L 530.87695 247.11523 L 530.87695 270.64258 L 513.61914 280.59375 L 511.01758 276.07422 L 525.17773 267.89648 C 525.468 267.72882 525.64812 267.4193 525.65039 267.08398 L 525.65039 247.13672 A 0.94488189 0.94488189 0 0 0 525.65039 247.12305 L 525.65039 239.93359 A 0.94488189 0.94488189 0 0 0 525.64844 239.89258 L 525.66797 209.14258 z M 259.54688 210.85547 L 259.54688 238.97461 L 241.97852 238.97461 L 234.19727 225.48047 L 259.54688 210.85547 z M 159.30859 211.99219 L 182.67188 225.48047 L 174.87695 238.9668 L 159.30859 238.9668 L 159.30859 211.99219 z M 629.02539 212.05859 L 629.00977 239.04688 L 613.41211 239.04688 L 605.63281 225.57617 L 629.02539 212.05859 z M 463.98242 212.53125 L 466.60156 217.08008 L 452.8125 225.02148 C 452.51996 225.19047 452.33947 225.50384 452.33984 225.8418 L 452.33984 239.98047 A 0.94488189 0.94488189 0 0 0 452.33984 239.99219 L 452.33984 247.10938 L 452.32422 280.26758 L 447.12891 277.25977 L 447.12891 247.12109 A 0.94488189 0.94488189 0 0 0 447.12891 247.10938 L 447.12891 239.9707 A 0.94488189 0.94488189 0 0 0 447.12695 239.92969 L 447.12695 222.24609 L 463.98242 212.53125 z M 532.76562 213.26367 L 554.09961 225.57617 L 546.3418 239.01758 L 532.76562 239.01758 L 532.76562 213.26367 z M 315.6543 213.42773 L 320.18359 216.08008 L 306.67383 239.45312 C 306.66866 239.46208 306.66695 239.47146 306.66211 239.48047 L 302.5918 246.55469 L 285.44141 276.23438 L 280.92578 273.63281 L 295.99805 247.51562 L 300.0957 240.37695 L 300.09375 240.37695 L 315.6543 213.42773 z M 321.81445 217.02734 L 338.02344 226.40234 L 338.02344 238.98047 L 309.13086 238.98047 L 321.81445 217.02734 z M 467.54688 218.71875 L 479.2832 239.0332 L 454.23047 239.04688 L 454.23047 226.38867 L 467.54688 218.71875 z M 232.56836 226.42773 L 240.61328 240.38477 C 240.78037 240.68029 241.09215 240.86214 241.43164 240.86328 L 260.49219 240.86328 C 260.49499 240.86328 260.4972 240.86135 260.5 240.86133 L 260.5 240.86328 L 267.57812 240.84961 L 297.64453 240.84961 L 294.63477 246.09766 L 267.57812 246.09766 L 260.5 246.08203 L 260.5 246.08398 C 260.4972 246.08396 260.49499 246.08203 260.49219 246.08203 L 237.89648 246.08203 L 228.06836 229.04297 L 232.56836 226.42773 z M 603.99609 226.52539 L 612.04688 240.46484 C 612.21582 240.75753 612.52922 240.93788 612.86719 240.9375 L 629.94922 240.9375 L 629.95508 240.9375 A 0.94488189 0.94488189 0 0 0 629.96289 240.9375 L 637.01953 240.90039 L 637.02734 240.90039 L 677.21484 240.92383 L 657.57617 274.91992 L 653.07812 272.35938 L 667.38281 247.58203 C 667.7464 246.9517 667.2904 246.16336 666.5625 246.16406 L 637.0332 246.16406 A 0.94488189 0.94488189 0 0 0 637.01953 246.16406 L 629.95703 246.15625 L 629.95508 246.15625 L 609.30859 246.15625 L 599.48047 229.13477 L 603.99609 226.52539 z M 226.43164 229.99023 L 236.53125 247.5 C 236.70023 247.79269 237.01165 247.97303 237.34961 247.97266 L 259.54688 247.97266 L 259.54688 271.09961 C 259.55065 271.43644 259.73412 271.74631 260.02734 271.91211 L 274.8125 280.45312 L 265.46094 296.64844 C 265.29218 296.94078 265.29218 297.3014 265.46094 297.59375 L 275.56641 315.08789 L 257.99023 325.23047 C 257.69755 325.39945 257.5172 325.71282 257.51758 326.05078 L 257.51758 346.18945 L 237.32031 346.18945 C 236.98235 346.18908 236.67095 346.36747 236.50195 346.66016 L 225.60547 365.54297 L 210.87891 357.03906 C 210.58656 356.87031 210.22595 356.87031 209.93359 357.03906 L 192.23828 367.25 L 180.36914 346.67578 C 180.20016 346.38309 179.88679 346.20275 179.54883 346.20312 L 159.27148 346.20312 L 159.27148 326.05078 C 159.27186 325.71282 159.09151 325.39947 158.79883 325.23047 L 141.32617 315.13281 L 151.46875 297.56445 C 151.63751 297.27211 151.63751 296.91149 151.46875 296.61914 L 141.37109 279.10156 L 158.83594 269.00391 C 159.12636 268.83625 159.30634 268.52673 159.30859 268.19141 L 159.30859 247.95703 L 179.54883 247.95703 C 179.88679 247.95741 180.20014 247.77706 180.36914 247.48438 L 190.4668 230.00586 L 207.96289 240.10352 C 208.25524 240.27227 208.61585 240.27227 208.9082 240.10352 L 226.43164 229.99023 z M 561.86523 230.08594 L 579.39062 240.19922 C 579.68316 240.36797 580.04164 240.36797 580.33398 240.19922 L 597.84375 230.08594 L 607.94336 247.57422 C 608.1123 247.86691 608.42375 248.04725 608.76172 248.04688 L 629.01172 248.04688 L 628.98828 268.2793 C 628.9879 268.61726 629.1684 268.93061 629.46094 269.09961 L 646.94141 279.19727 L 636.84375 296.69336 C 636.67481 296.98571 636.67481 297.34632 636.84375 297.63867 L 646.95703 315.16211 L 629.46094 325.26172 C 629.1684 325.4307 628.9879 325.74212 628.98828 326.08008 L 628.98828 346.27734 L 608.76172 346.27734 C 608.42383 346.27697 608.11234 346.45731 607.94336 346.75 L 597.07617 365.57422 L 582.34961 357.07031 C 582.05745 356.90156 581.69664 356.90156 581.4043 357.07031 L 563.61523 367.32227 L 551.73047 346.75 C 551.56266 346.45958 551.25329 346.27959 550.91797 346.27734 L 530.75 346.26172 L 530.75 326.07227 C 530.74773 325.73695 530.56761 325.42939 530.27734 325.26172 L 512.76758 315.14062 L 522.89648 297.60156 C 523.06505 297.30922 523.06505 296.9486 522.89648 296.65625 L 514.5625 282.22461 L 532.29297 272 C 532.58324 271.83234 532.76336 271.52478 532.76562 271.18945 L 532.76562 248.06055 L 550.94727 248.06055 C 551.28516 248.06092 551.5986 247.88058 551.76758 247.58789 L 561.86523 230.08594 z M 346.05469 240.84961 L 364.70703 240.84961 L 374.55859 257.91016 L 370.0293 260.55664 L 361.94922 246.55469 C 361.78024 246.262 361.46687 246.08166 361.12891 246.08203 L 346.05469 246.08203 L 338.96875 246.08203 L 305.04492 246.08203 L 308.04102 240.87109 L 338.96875 240.87109 C 338.97155 240.87109 338.97377 240.86917 338.97656 240.86914 L 338.97656 240.87109 L 346.05469 240.84961 z M 523.75977 240.87891 L 523.75977 246.17773 L 493.19922 246.17773 L 485.03516 246.16406 A 0.94488189 0.94488189 0 0 0 485.0332 246.16406 L 454.23047 246.16406 L 454.23047 240.9375 L 480.91016 240.92188 A 0.94488189 0.94488189 0 0 0 480.92188 240.92188 L 489.07812 240.90039 L 489.08008 240.90039 L 523.75977 240.87891 z M 423.60156 240.91602 L 445.23828 240.91602 L 445.23828 246.16406 L 427.15234 246.16406 C 426.81445 246.16368 426.50297 246.34403 426.33398 246.63672 L 417.80078 261.41406 L 414.25586 267.55469 C 414.25371 267.5583 414.25015 267.5608 414.24805 267.56445 L 398.25391 295.23438 L 395.24805 290.00781 L 409.72461 264.95898 L 413.26953 258.77539 L 413.27344 258.77148 L 413.27539 258.76562 L 423.60156 240.91602 z M 157.41797 247.95898 L 157.41797 267.64453 L 140.42383 277.4707 L 137.82031 272.97266 L 151.73438 264.92188 C 152.02706 264.75289 152.20741 264.43952 152.20703 264.10156 L 152.20703 247.9707 L 157.41797 247.95898 z M 123.38867 247.97266 L 150.31836 247.97266 L 150.31836 263.55469 L 136.875 271.33594 L 123.38867 247.97266 z M 303.94922 247.97266 L 338.02344 247.97266 L 338.04688 279.02734 L 314.17383 292.81641 L 287.07422 277.17578 L 303.94922 247.97266 z M 339.91406 247.97266 L 345.11133 247.97266 L 345.11133 275.49219 L 345.11133 283.70898 C 345.11126 283.71367 345.10937 283.71796 345.10938 283.72266 L 345.10938 310.67188 L 339.92773 307.69531 L 339.92773 287.80469 L 339.93555 279.57422 C 339.93557 279.5716 339.93555 279.56903 339.93555 279.56641 L 339.91406 247.97266 z M 347 247.97266 L 360.58398 247.97266 L 368.39258 261.50391 L 347 273.85352 L 347 247.97266 z M 261.4375 247.97461 L 266.63477 247.98438 L 266.63477 267.01758 C 266.6344 267.35554 266.81278 267.66889 267.10547 267.83789 L 279.16797 274.79102 L 285.31836 278.3418 L 312.2832 293.91016 L 307.08594 296.91211 L 282.72461 282.86328 L 282.72656 282.85938 L 276.57812 279.28711 L 261.4375 270.55273 L 261.4375 247.97461 z M 268.52344 247.98633 L 293.54102 247.98633 L 279.29297 272.6875 L 268.52344 266.4707 L 268.52344 247.98633 z M 630.89844 248.04688 L 636.07617 248.05273 L 636.07617 264.18359 C 636.07579 264.52156 636.25434 264.83296 636.54688 265.00195 L 651.31055 273.5293 C 651.31667 273.53283 651.32391 273.53177 651.33008 273.53516 L 657.43945 277.01367 C 657.44516 277.01711 657.44732 277.024 657.45312 277.02734 L 692.26562 297.10547 L 658.26953 316.73633 L 655.70508 312.3125 L 680.46875 298.00586 C 681.1011 297.64261 681.1011 296.73045 680.46875 296.36719 L 654.88477 281.59766 L 654.88281 281.59766 A 0.94488189 0.94488189 0 0 0 654.86914 281.58984 L 648.70508 278.03125 L 630.87891 267.73438 L 630.89844 248.04688 z M 427.69922 248.05273 L 445.23828 248.05273 L 445.23828 276.17188 L 419.9043 261.54102 L 427.69922 248.05273 z M 454.23047 248.05273 L 484.48828 248.05273 L 502.29297 278.91797 L 476.13281 294.01367 L 454.21484 281.36133 L 454.23047 248.05273 z M 637.96484 248.05273 L 664.92383 248.05273 L 651.4375 271.41797 L 637.96484 263.63672 L 637.96484 248.05273 z M 486.67188 248.05664 L 492.65234 248.06641 L 508.90039 276.1875 A 0.94488189 0.94488189 0 0 0 508.9082 276.20117 L 512.45117 282.35742 A 0.94488189 0.94488189 0 0 0 512.50977 282.44531 L 520.98438 297.12891 L 511.12695 314.20117 L 506.60547 311.60352 L 514.70117 297.58594 C 514.86974 297.29359 514.86974 296.93298 514.70117 296.64062 L 507.97461 284.99219 L 507.9707 284.98242 A 0.94488189 0.94488189 0 0 0 507.96289 284.9707 L 504.39648 278.79102 L 486.67188 248.05664 z M 494.83008 248.06836 L 523.75977 248.06836 L 523.75977 266.53711 L 510.07422 274.43555 L 494.83008 248.06836 z M 394.10938 248.79883 L 411.16992 258.64258 L 408.55664 263.19336 L 394.61328 255.14844 C 394.47684 255.06695 394.32295 255.02133 394.16406 255.01562 C 393.9902 255.01355 393.81749 255.05947 393.66797 255.14844 L 378.93359 263.65234 C 378.92778 263.65574 378.92564 263.66251 378.91992 263.66602 L 372.77734 267.20312 L 347 282.08594 L 347 276.03125 L 370.1582 262.66992 L 376.32227 259.06836 L 376.32031 259.06445 L 394.10938 248.79883 z M 394.14062 257.05273 L 407.61328 264.83203 L 394.15625 288.11523 L 380.69922 264.81836 L 394.14062 257.05273 z M 418.96094 263.17773 L 445.70117 278.61523 A 0.94488189 0.94488189 0 0 0 445.71094 278.62109 L 452.79688 282.71875 L 474.24805 295.10352 L 469.03711 298.11719 L 453.75781 289.29688 L 453.75586 289.29688 A 0.94488189 0.94488189 0 0 0 453.74219 289.28906 L 446.66406 285.19141 A 0.94488189 0.94488189 0 0 0 446.58008 285.14844 L 416.36133 267.68945 L 418.96094 263.17773 z M 379.06641 265.75977 L 393.33594 290.47656 L 397.42188 297.57422 C 397.42661 297.58305 397.42856 297.59285 397.43359 297.60156 L 415.54492 328.9668 L 411.04297 331.57227 L 394.97461 303.74219 L 390.86523 296.64062 L 390.86328 296.63477 C 390.86298 296.63424 390.86359 296.63334 390.86328 296.63281 L 374.54297 268.36914 L 379.06641 265.75977 z M 372.90234 269.3125 L 388.95117 297.10547 L 372.10547 326.26562 L 347 311.75977 L 347 284.26953 L 372.90234 269.3125 z M 415.4082 269.32812 L 445.23828 286.55078 L 445.23828 311.83984 L 417.17969 328.02148 L 399.3457 297.12891 L 415.4082 269.32812 z M 130.01562 277.42188 L 132.63086 282 L 107.79688 296.35352 C 107.16454 296.71677 107.16454 297.62892 107.79688 297.99219 L 133.39844 312.77148 L 139.5625 316.29883 L 157.38281 326.59766 L 157.38281 346.20898 L 152.20703 346.24219 L 152.20703 330.19141 C 152.20741 329.85344 152.02706 329.54204 151.73438 329.37305 L 136.95508 320.85352 C 136.94947 320.85029 136.94316 320.8488 136.9375 320.8457 L 130.81445 317.20703 L 130.80859 317.2168 C 130.80452 317.21435 130.80295 317.20942 130.79883 317.20703 L 95.972656 297.09961 L 130.01562 277.42188 z M 648.58008 280.14258 L 653.10547 282.75586 L 645.05859 296.68555 C 644.89003 296.97789 644.89003 297.33851 645.05859 297.63086 L 653.58594 312.42578 L 653.5918 312.4375 A 0.94488189 0.94488189 0 0 0 653.5918 312.43945 L 657.09375 318.46484 C 657.09968 318.47612 657.09904 318.48887 657.10547 318.5 L 674.95508 349.42969 L 677.21484 353.34961 L 637.95117 353.33398 L 637.95117 348.19531 L 666.5625 348.19531 C 667.29029 348.19601 667.74464 347.40963 667.38086 346.7793 L 652.61133 321.19141 A 0.94488189 0.94488189 0 0 0 652.60352 321.17773 L 649.06836 315.03711 L 638.75586 297.16602 L 648.58008 280.14258 z M 503.23047 280.54883 L 505.85156 285.0957 L 482.79102 298.40625 L 482.78906 298.40625 C 482.78693 298.40747 482.78532 298.40892 482.7832 298.41016 L 475.70117 302.5 C 475.69938 302.50102 475.6971 302.50092 475.69531 302.50195 L 454.25 314.86719 L 454.21875 308.83594 L 469.42578 300.06445 L 469.42773 300.06445 A 0.94488189 0.94488189 0 0 0 469.50977 300.02148 L 476.60352 295.91797 L 503.23047 280.54883 z M 338.04492 281.20508 L 338.03906 287.25781 L 320.80859 297.20117 C 320.80485 297.20336 320.80253 297.20675 320.79883 297.20898 L 313.72266 301.29883 L 286.91406 316.77734 L 284.29297 312.25195 L 307.55078 298.81836 L 314.64648 294.72852 L 338.04492 281.20508 z M 276.44727 281.4043 L 280.95508 284.02344 L 273.66016 296.65625 C 273.4914 296.9486 273.4914 297.30921 273.66016 297.60156 L 282.17969 312.37891 L 285.74609 318.54297 L 285.74805 318.54102 L 301.7207 346.22461 L 295.71094 346.22461 L 281.2207 321.16406 L 277.66992 314.96289 L 267.37109 297.12109 L 276.44727 281.4043 z M 133.56836 283.63477 L 141.34766 297.11328 L 133.52344 310.66016 L 110.16016 297.17188 L 133.56836 283.63477 z M 654.74414 283.70117 L 678.10742 297.1875 L 654.75781 310.67383 L 646.96289 297.1582 L 654.74414 283.70117 z M 282.59375 284.9707 L 305.19727 298 L 283.3457 310.61523 L 275.56445 297.12891 L 282.59375 284.9707 z M 506.80273 286.73438 L 512.79688 297.11328 L 504.97266 310.66016 L 485.15234 299.22461 L 506.80273 286.73438 z M 447.12695 287.64258 L 452.32422 290.64648 L 452.32422 308.28906 C 452.32422 308.29184 452.32615 308.29411 452.32617 308.29688 C 452.32619 308.29955 452.32613 308.30202 452.32617 308.30469 L 452.36914 316.49805 L 452.36914 316.50586 L 452.35352 346.24219 L 447.13477 346.25391 L 447.11328 320.61523 A 0.94488189 0.94488189 0 0 0 447.11328 320.60352 L 447.12891 312.39453 A 0.94488189 0.94488189 0 0 0 447.12695 312.35352 L 447.12695 287.64258 z M 338.03906 289.44336 L 338.03906 306.60742 L 323.16406 298.02148 L 338.03906 289.44336 z M 454.21484 291.74023 L 467.14844 299.20312 L 454.21484 306.6582 L 454.21484 291.74023 z M 390.04492 298.99609 L 393.0625 304.21484 L 377.79688 330.63477 C 377.79331 330.64088 377.79443 330.64814 377.79102 330.6543 L 374.24609 336.80664 L 364.6875 353.34961 L 347.0293 353.34961 L 347.0293 348.11523 L 361.11328 348.11523 C 361.45125 348.11561 361.7646 347.93526 361.93359 347.64258 L 369.7207 334.17773 L 369.72266 334.17773 L 373.27344 328.0293 L 373.27148 328.0293 L 390.04492 298.99609 z M 321.28125 299.10742 L 338.51172 309.06445 L 345.57617 313.12109 C 345.57822 313.1223 345.57997 313.12381 345.58203 313.125 L 345.58398 313.125 L 371.16211 327.90234 L 368.55664 332.41406 L 346.55664 319.72461 L 339.49219 315.61914 L 339.49023 315.62305 C 339.48818 315.62184 339.48644 315.62033 339.48438 315.61914 L 316.08398 302.11523 L 321.28125 299.10742 z M 483.26172 300.31836 L 504.83984 312.77148 C 504.84599 312.77504 504.85318 312.77394 504.85938 312.77734 L 511.00391 316.30664 L 528.86133 326.61914 L 528.86133 346.26562 L 523.61914 346.28711 L 523.61914 330.19141 C 523.61952 329.85344 523.43902 329.54204 523.14648 329.37305 L 508.48438 320.9043 A 0.94488189 0.94488189 0 0 0 508.4707 320.89453 A 0.94488189 0.94488189 0 0 0 508.40625 320.85352 L 502.24219 317.28125 A 0.94488189 0.94488189 0 0 0 502.24023 317.28125 L 502.22461 317.27148 L 478.06055 303.32031 L 483.26172 300.31836 z M 314.19531 303.20312 L 338.06836 316.98633 L 338.06836 346.22461 L 303.9043 346.22461 L 287.85547 318.41016 L 314.19531 303.20312 z M 476.16797 304.41406 L 500.47656 318.44727 L 484.44336 346.25391 L 454.24414 346.24023 L 454.25977 317.04492 L 476.16797 304.41406 z M 394.15625 306.10547 L 409.41406 332.51758 L 396.15625 340.15039 L 379.90039 330.76758 L 394.15625 306.10547 z M 445.23633 314.02539 L 445.22461 320.05469 L 419.91211 334.6582 L 419.91016 334.6582 C 419.9085 334.65917 419.9079 334.66113 419.90625 334.66211 L 413.78711 338.19141 C 413.7858 338.19214 413.78451 338.19261 413.7832 338.19336 L 396.14062 348.36719 L 376.35742 336.93359 L 378.95898 332.40039 L 395.68359 342.0625 C 395.97613 342.23126 396.33656 342.23126 396.62891 342.0625 L 411.15625 333.69727 L 411.16602 333.69141 A 0.94488189 0.94488189 0 0 0 411.17773 333.68359 L 417.30469 330.125 L 445.23633 314.02539 z M 276.50195 316.72266 L 279.11523 321.28516 L 265.10547 329.37305 C 264.81505 329.54071 264.63507 329.84827 264.63281 330.18359 L 264.63281 347.16992 L 264.63281 354.32422 L 264.63281 388.12695 L 259.42773 385.11914 L 259.40625 354.32422 L 259.40625 347.13281 L 259.40625 326.59766 L 276.50195 316.72266 z M 647.90039 316.80273 L 650.49414 321.30469 L 636.5332 329.37305 C 636.24067 329.54203 636.06017 329.85344 636.06055 330.19141 L 636.06055 347.23828 A 0.94488189 0.94488189 0 0 0 636.06055 347.25195 L 636.06055 354.2793 L 636.06055 388.0625 L 630.88477 385.11914 L 630.88477 354.40039 A 0.94488189 0.94488189 0 0 0 630.88672 354.35938 L 630.87891 347.22266 L 630.87891 326.62695 L 647.90039 316.80273 z M 339.95703 318.08008 L 345.14062 321.08203 L 345.14062 347.16992 L 345.14062 354.29297 C 345.14062 354.29363 345.14063 354.29426 345.14062 354.29492 L 345.14062 377.83594 L 327.86523 387.79883 L 325.26367 383.30859 L 339.48438 375.0957 C 339.77706 374.92672 339.95741 374.61531 339.95703 374.27734 L 339.95703 354.29492 C 339.95703 354.29426 339.95703 354.29363 339.95703 354.29297 L 339.95898 354.29297 L 339.95898 347.16992 L 339.95703 347.16992 L 339.95703 318.08008 z M 130.66797 319.32422 L 135.19922 322.00781 L 120.92969 346.7207 C 120.56591 347.35105 121.02027 348.13744 121.74805 348.13672 L 151.26172 348.13672 C 151.26452 348.13672 151.26674 348.13479 151.26953 348.13477 L 151.26953 348.13672 L 158.32617 348.09375 L 158.33398 348.09375 L 179.00391 348.09375 L 190.59961 368.19531 L 186.07227 370.8418 L 176.24219 353.82227 C 176.0732 353.52958 175.75984 353.34924 175.42188 353.34961 L 158.3418 353.34961 L 158.32617 353.34961 L 151.26172 353.26758 L 151.26172 353.26953 C 151.25892 353.26951 151.25671 353.26758 151.25391 353.26758 L 111.08984 353.26758 L 130.66797 319.32422 z M 502.10938 319.38867 L 506.63672 322.01172 L 492.36328 346.72852 A 0.94488189 0.94488189 0 0 0 492.34961 346.75 L 488.25977 353.8418 C 488.25761 353.84542 488.25407 353.8479 488.25195 353.85156 L 471.14258 383.46484 L 466.65234 380.86328 L 481.69727 354.79297 A 0.94488189 0.94488189 0 0 0 481.70508 354.78125 L 485.80273 347.67188 A 0.94488189 0.94488189 0 0 0 485.81836 347.64062 L 502.10938 319.38867 z M 347.0293 322.17578 L 367.60938 334.05273 L 360.56836 346.22461 L 347.0293 346.22461 L 347.0293 322.17578 z M 445.22266 322.24219 L 445.24609 346.25586 L 427.69141 346.24805 L 421.67578 335.82422 L 445.22266 322.24219 z M 280.05273 322.91992 L 293.52539 346.22461 L 266.52344 346.22461 L 266.52344 330.73047 L 280.05273 322.91992 z M 651.43555 322.94336 L 664.92383 346.30664 L 637.94922 346.30664 L 637.94922 330.73828 L 651.43555 322.94336 z M 136.83008 322.96484 L 150.31641 330.73828 L 150.31641 346.24805 L 123.38867 346.24805 L 136.83008 322.96484 z M 508.27148 322.96484 L 521.72852 330.73828 L 521.72852 346.29297 L 494.80078 346.27734 L 508.27148 322.96484 z M 420.04297 336.76562 L 426.32617 347.66406 C 426.49512 347.95671 426.80657 348.13708 427.14453 348.13672 L 446.18555 348.14453 L 446.19141 348.14453 L 453.30664 348.13086 A 0.94488189 0.94488189 0 0 0 453.33398 348.12891 L 483.35156 348.14453 L 480.33984 353.36328 L 453.3125 353.36328 A 0.94488189 0.94488189 0 0 0 453.29883 353.36328 L 446.18945 353.36328 L 446.18359 353.36328 L 423.61523 353.34961 L 415.54102 339.35938 L 420.04297 336.76562 z M 375.40625 338.57031 L 395.66797 350.2793 C 395.96013 350.44805 396.32093 350.44805 396.61328 350.2793 L 413.91016 340.30469 L 422.25 354.76562 C 422.41894 355.05831 422.73235 355.23866 423.07031 355.23828 L 445.24609 355.25391 L 445.25977 378.38086 C 445.25939 378.71875 445.43989 379.03219 445.73242 379.20117 L 460.51953 387.73438 L 451.17383 403.92969 C 451.00526 404.22184 451.00526 404.58265 451.17383 404.875 L 463.02148 425.41797 L 445.70312 435.40625 C 445.41059 435.57519 445.23009 435.8886 445.23047 436.22656 L 445.23047 453.4707 L 423.02734 453.4707 C 422.6921 453.47297 422.3825 453.65114 422.21484 453.94141 L 411.31055 472.82422 L 396.58398 464.32031 C 396.29183 464.15137 395.93102 464.15137 395.63867 464.32031 L 377.96094 474.53125 L 366.08203 453.94141 C 365.91305 453.64887 365.60163 453.47033 365.26367 453.4707 L 347 453.4707 L 347 436.24023 C 347.00038 435.90234 346.82003 435.59086 346.52734 435.42188 L 326.29492 423.74219 L 337.21289 404.875 C 337.38165 404.58246 337.38165 404.22203 337.21289 403.92969 L 328.83398 389.42383 L 346.55664 379.20117 C 346.84933 379.03223 347.02967 378.71882 347.0293 378.38086 L 347.0293 355.23828 L 365.22656 355.23828 C 365.56453 355.23866 365.87592 355.05831 366.04492 354.76562 L 375.40625 338.57031 z M 237.86719 348.07812 L 257.51758 348.07812 L 257.51758 353.37891 L 241.40234 353.37891 C 241.06438 353.37853 240.75103 353.55888 240.58203 353.85156 L 231.28125 369.95898 L 227.73047 376.10742 L 212.53125 402.42969 L 209.52734 397.22656 L 223.2207 373.50977 C 223.22424 373.50365 223.22318 373.4964 223.22656 373.49023 L 226.77148 367.30859 L 237.86719 348.07812 z M 266.52344 348.11523 L 295.16406 348.11523 L 303.35742 348.11523 L 303.35938 348.11523 L 338.06836 348.11523 L 338.06836 353.34961 L 307.4707 353.36328 L 299.27734 353.36328 C 299.27669 353.36328 299.27604 353.36328 299.27539 353.36328 L 266.52344 353.37891 L 266.52344 348.11523 z M 529.80469 348.15234 C 529.80535 348.15235 529.80598 348.15234 529.80664 348.15234 L 550.37109 348.16602 L 561.98242 368.27734 L 557.48438 370.90625 L 547.6543 353.87305 C 547.48535 353.58036 547.17195 353.40001 546.83398 353.40039 L 529.81836 353.40039 A 0.94488189 0.94488189 0 0 0 529.80469 353.40039 L 522.67383 353.37891 L 490.70117 353.37891 L 493.70898 348.16602 L 522.66992 348.18164 L 522.67383 348.18164 A 0.94488189 0.94488189 0 0 0 522.68164 348.18164 L 529.80469 348.15234 z M 609.30859 348.16602 L 628.99023 348.16602 L 628.99414 353.41602 L 612.85938 353.41602 C 612.52149 353.41565 612.20805 353.59602 612.03906 353.88867 L 602.76953 369.95117 A 0.94488189 0.94488189 0 0 0 602.75391 369.98047 L 599.1875 376.13672 L 583.94336 402.54102 L 580.93945 397.33789 L 594.67773 373.53906 C 594.68127 373.53294 594.68021 373.5257 594.68359 373.51953 L 598.23828 367.34375 C 598.23974 367.34127 598.2427 367.34039 598.24414 367.33789 L 609.30859 348.16602 z M 152.19922 355.16992 L 157.38086 355.22852 L 157.39648 387.93359 L 157.39648 396.09766 L 157.39648 416.79297 L 152.18555 413.80469 L 152.20703 400.19531 L 152.19922 391.94922 L 152.19922 391.94141 L 152.19922 355.16992 z M 159.27148 355.23828 L 174.87695 355.23828 L 184.43555 371.78906 L 159.28711 386.30078 L 159.27148 355.23828 z M 338.06836 355.23828 L 338.06836 373.73047 L 324.35352 381.65039 L 309.10938 355.25391 L 338.06836 355.23828 z M 298.73047 355.25391 L 316.56445 386.14648 L 288.88281 402.12109 L 266.52344 389.2168 L 266.52344 355.26758 L 298.73047 355.25391 z M 300.91406 355.25391 L 306.93164 355.25391 L 323.18555 383.41602 C 323.20358 383.44736 323.23297 383.46568 323.25391 383.49414 L 323.20117 383.52344 L 326.76758 389.6875 L 326.79297 389.67188 L 335.29883 404.40234 L 324.72852 422.68359 L 320.17773 420.07031 L 328.98047 404.83789 C 329.14922 404.54573 329.14922 404.18492 328.98047 403.89258 L 322.21289 392.16211 C 322.20521 392.14907 322.19379 392.13953 322.18555 392.12695 L 318.69727 386.03516 L 318.68359 386.04297 C 318.6798 386.03602 318.67977 386.02838 318.67578 386.02148 L 300.91406 355.25391 z M 447.12695 355.25391 L 452.35352 355.25391 L 452.35352 374.24805 C 452.35314 374.58601 452.53364 374.89741 452.82617 375.06641 L 464.87695 382.01953 A 0.94488189 0.94488189 0 0 0 464.88867 382.02734 L 471.01562 385.57031 L 501.5293 403.18359 L 496.31836 406.23242 L 468.42578 390.125 L 468.42383 390.125 A 0.94488189 0.94488189 0 0 0 468.41016 390.11719 L 462.2832 386.56836 L 447.15039 377.83594 L 447.12695 355.25391 z M 454.24414 355.25391 L 479.25391 355.25391 L 465.01562 379.91602 L 454.24414 373.70898 L 454.24414 355.25391 z M 241.94922 355.26758 L 257.51758 355.26758 L 257.53906 384.02734 L 233.39258 370.08398 L 241.94922 355.26758 z M 489.61133 355.26758 L 521.73047 355.26758 L 521.73047 391.51367 L 503.4082 402.08398 L 472.78125 384.41211 L 489.61133 355.26758 z M 523.61914 355.27148 L 528.85938 355.28711 L 528.8457 387.94922 A 0.94488189 0.94488189 0 0 0 528.8457 387.96289 L 528.8457 396.18555 L 528.8457 416.83398 L 523.64258 413.82812 L 523.61914 400.33203 A 0.94488189 0.94488189 0 0 0 523.61914 400.32031 L 523.61914 400.3125 L 523.61914 392.06055 L 523.61914 392.05859 L 523.61914 355.27148 z M 530.75 355.29102 L 546.28906 355.29102 L 555.84961 371.85547 L 530.73633 386.32422 L 530.75 355.29102 z M 613.40625 355.30469 L 628.99609 355.30469 L 628.99609 384.02734 L 604.86523 370.10547 L 613.40625 355.30469 z M 210.40625 358.95117 L 224.66406 367.18359 L 222.05273 371.74219 L 210.86328 365.28516 C 210.72389 365.20507 210.56701 365.16239 210.40625 365.16016 C 210.23549 365.15719 210.06604 365.20008 209.91797 365.28516 L 194.9707 373.90039 L 188.80664 377.45117 L 159.28711 394.46484 L 159.28711 388.47852 L 186.20117 372.95508 L 192.3418 369.36719 C 192.34927 369.36313 192.35783 369.36365 192.36523 369.35938 L 210.40625 358.95117 z M 581.87695 358.98047 L 596.13281 367.21094 L 593.51172 371.77344 L 582.3418 365.31445 C 582.20233 365.23436 582.04536 365.19168 581.88477 365.18945 C 581.71393 365.18648 581.54663 365.22938 581.39844 365.31445 L 566.36719 373.99609 L 560.21875 377.53906 L 530.73633 394.55664 L 530.73633 388.50977 L 557.61133 373.02148 C 557.61426 373.0198 557.61624 373.01734 557.61914 373.01562 C 557.61996 373.01514 557.62027 373.01416 557.62109 373.01367 L 563.74805 369.43359 A 0.94488189 0.94488189 0 0 0 563.81641 369.39062 A 0.94488189 0.94488189 0 0 0 563.82031 369.38672 L 581.87695 358.98047 z M 210.39062 367.19727 L 221.10938 373.375 L 208.43555 395.33789 L 196.72656 375.06641 L 210.39062 367.19727 z M 581.86914 367.22656 L 592.57422 373.40625 L 579.84766 395.43945 L 568.125 375.16211 L 581.86914 367.22656 z M 232.44531 371.72266 L 258.01172 386.47852 L 265.10547 390.58398 L 286.99219 403.21484 L 281.79297 406.24414 L 266.05078 397.15234 L 258.94922 393.04102 L 229.83594 376.23438 L 232.44531 371.72266 z M 603.91797 371.74609 L 629.37695 386.43359 A 0.94488189 0.94488189 0 0 0 629.46875 386.49414 L 636.54102 390.50977 A 0.94488189 0.94488189 0 0 0 636.59375 390.53711 A 0.94488189 0.94488189 0 0 0 636.61328 390.54688 L 661.63086 404.98633 L 665.53516 407.23633 L 637.96484 423.17383 L 637.96484 417.23828 L 653.68164 408.16016 C 654.31399 407.79694 654.31399 406.88473 653.68164 406.52148 L 637.56445 397.22656 A 0.94488189 0.94488189 0 0 0 637.54883 397.2168 A 0.94488189 0.94488189 0 0 0 637.48438 397.17578 L 630.45508 393.10156 C 630.44056 393.09207 630.42919 393.07905 630.41406 393.07031 L 601.29688 376.26758 L 603.91797 371.74609 z M 195.09375 376.00781 L 207.61523 397.69922 L 211.71289 404.79297 L 229.85352 436.23047 L 225.35156 438.85742 L 209.25391 410.98047 C 209.25364 410.98001 209.25417 410.97897 209.25391 410.97852 L 205.14258 403.86328 L 205.13867 403.86523 L 190.57031 378.61719 L 195.09375 376.00781 z M 566.49414 376.10547 L 579.02734 397.81055 L 583.125 404.9043 L 601.25 436.25977 L 596.70508 438.91602 L 580.68164 411.13086 L 580.67383 411.11719 A 0.94488189 0.94488189 0 0 0 580.66602 411.10547 L 576.57031 403.98828 L 561.98438 378.70508 L 566.49414 376.10547 z M 228.89062 377.87109 L 257.53125 394.40625 L 257.53125 420.24414 L 231.48828 435.28125 L 213.625 404.32031 L 228.89062 377.87109 z M 600.35352 377.90039 L 628.99609 394.43555 L 628.99609 420.22852 L 602.88672 435.31055 L 585.03711 404.43164 L 600.35352 377.90039 z M 188.93164 379.5625 L 203.23047 404.34375 L 186.38477 433.53125 L 159.28711 417.88086 L 159.28711 396.64453 L 188.93164 379.5625 z M 560.34375 379.65039 L 574.6582 404.46094 L 557.82812 433.60547 L 530.73633 417.92578 L 530.73633 396.73242 L 560.34375 379.65039 z M 317.51953 387.7793 L 320.10547 392.29297 L 295.47461 406.49023 L 288.42188 410.58984 C 288.41117 410.59547 288.39918 410.59746 288.38867 410.60352 L 266.50781 423.23438 L 266.50781 417.25391 L 282.26953 408.16016 C 282.2851 408.15121 282.29574 408.1385 282.31055 408.12891 L 289.35547 404.0332 L 317.51953 387.7793 z M 462.15625 388.68164 L 466.64844 391.2793 L 459.35352 403.9082 C 459.18457 404.20036 459.18457 404.55922 459.35352 404.85156 L 469.63672 422.70117 L 470.14258 423.54102 L 473.13867 428.71875 C 473.15643 428.76528 473.15983 428.81487 473.18555 428.85938 L 487.4043 453.51367 L 481.38477 453.54102 L 469.15625 432.31641 L 468.68359 431.49805 L 465.60547 426.15234 L 465.13281 425.29297 L 453.08594 404.40234 L 462.15625 388.68164 z M 468.28516 392.22266 L 494.43164 407.32422 L 470.80273 420.9375 L 461.25781 404.38672 L 468.28516 392.22266 z M 150.3125 393.57812 L 150.31836 399.64648 L 138.5293 406.44727 C 137.89524 406.80745 137.89078 407.71978 138.52148 408.08594 L 150.76758 415.16602 C 150.7803 415.17336 150.79379 415.17496 150.80664 415.18164 L 157.8457 419.22852 C 157.85415 419.23375 157.8605 419.2411 157.86914 419.24609 L 185.44336 435.16406 L 182.83398 439.70117 L 158.82227 425.83398 C 158.81796 425.83151 158.81293 425.83053 158.80859 425.82812 L 151.72266 421.61719 C 151.72221 421.61692 151.72115 421.61746 151.7207 421.61719 C 151.71707 421.61502 151.71461 421.61149 151.71094 421.60938 L 126.73047 407.17773 L 150.3125 393.57812 z M 521.73047 393.69531 L 521.73047 399.77344 L 510.03711 406.52148 C 510.02822 406.52659 510.02231 406.53374 510.01367 406.53906 L 502.91992 410.58789 L 474.37695 427.07812 L 471.78125 422.59375 L 471.71094 422.59766 L 496.79297 408.14453 C 496.79965 408.14069 496.804 408.13482 496.81055 408.13086 L 503.88867 403.99609 A 0.94488189 0.94488189 0 0 0 503.94531 403.95898 A 0.94488189 0.94488189 0 0 0 503.95703 403.95117 L 521.73047 393.69531 z M 321.04492 393.92773 L 327.07031 404.36523 L 318.48438 419.23242 L 297.83789 407.31055 L 321.04492 393.92773 z M 259.42188 395.5 L 264.63281 398.51758 L 264.61914 416.70703 L 264.61914 424.87109 C 264.61914 424.87175 264.61914 424.87239 264.61914 424.87305 L 264.61914 453.50391 L 259.42188 453.51562 L 259.42188 428.98633 C 259.42188 428.98566 259.42187 428.98504 259.42188 428.98438 L 259.42188 420.78906 L 259.42188 395.5 z M 630.88672 395.53125 L 636.06055 398.5332 L 636.07617 416.67969 A 0.94488189 0.94488189 0 0 0 636.07617 416.69336 L 636.07617 424.79883 L 636.07617 424.80469 C 636.07615 424.80741 636.07422 424.80978 636.07422 424.8125 L 636.07422 453.47266 L 630.88672 453.57031 L 630.88672 429.05664 A 0.94488189 0.94488189 0 0 0 630.88672 429.04492 C 630.88672 429.04426 630.88672 429.04363 630.88672 429.04297 L 630.88672 420.77539 L 630.88672 395.53125 z M 266.52344 399.61133 L 279.90625 407.33984 L 266.50781 415.06836 L 266.52344 399.61133 z M 637.95117 399.62695 L 651.31836 407.33984 L 637.96484 415.05469 L 637.95117 399.62695 z M 150.31836 401.83398 L 150.29492 412.71484 L 140.89062 407.26758 L 150.31836 401.83398 z M 521.73047 401.95898 L 521.75195 412.73633 L 512.40039 407.33984 L 521.73047 401.95898 z M 204.32422 406.23438 L 207.3418 411.45312 L 192.05469 437.92969 L 192.05469 437.93164 L 188.51953 444.08789 L 188.52148 444.08984 L 178.97461 460.625 L 159.29883 460.625 L 159.28906 455.40625 L 175.4082 455.40625 C 175.74617 455.40663 176.05952 455.22613 176.22852 454.93359 L 184.00195 441.46875 C 184.00626 441.4613 184.00568 441.45283 184.00977 441.44531 L 187.55078 435.28711 L 187.54688 435.28516 L 204.32422 406.23438 z M 575.75 406.35547 L 578.75586 411.57617 L 563.52539 437.96875 A 0.94488189 0.94488189 0 0 0 563.50391 438.00391 L 563.50391 438.00586 L 559.96875 444.14648 C 559.96849 444.14694 559.96901 444.14798 559.96875 444.14844 A 0.94488189 0.94488189 0 0 0 559.95312 444.17578 L 550.40039 460.70703 L 530.7207 460.69141 L 530.7207 455.43555 L 546.87891 455.43555 C 547.2168 455.43592 547.53024 455.25543 547.69922 454.96289 L 555.44922 441.53906 A 0.94488189 0.94488189 0 0 0 555.45703 441.52734 C 555.45735 441.52678 555.45671 441.52595 555.45703 441.52539 L 555.45898 441.52344 L 558.98047 435.38281 C 558.98393 435.37709 558.99079 435.37497 558.99414 435.36914 L 575.75 406.35547 z M 295.94922 408.39648 L 318.35156 421.34375 C 318.4928 421.42539 318.64455 421.45305 318.79688 421.45703 L 324.1543 424.5332 A 0.94488189 0.94488189 0 0 0 324.20312 424.55859 C 324.2835 424.69765 324.38786 424.82429 324.53711 424.91016 L 345.10938 436.78711 L 345.10938 453.47656 L 339.91406 453.52148 L 339.91406 440.38477 C 339.91444 440.04688 339.73409 439.73344 339.44141 439.56445 L 321.93945 429.45898 C 321.92948 429.45324 321.91835 429.45067 321.9082 429.44531 A 0.94488189 0.94488189 0 0 0 321.55469 429.08008 L 315.39062 425.50781 A 0.94488189 0.94488189 0 0 0 314.93359 425.38086 A 0.94488189 0.94488189 0 0 0 314.93164 425.38086 L 290.75 411.42188 L 295.94922 408.39648 z M 510.50781 408.43164 L 522.20898 415.1875 L 522.21094 415.1875 A 0.94488189 0.94488189 0 0 0 522.22461 415.19531 L 529.31836 419.29102 L 556.88477 435.24414 L 554.28906 439.75977 L 530.28711 425.87695 L 530.27539 425.86914 A 0.94488189 0.94488189 0 0 0 530.26367 425.86133 L 523.16211 421.73438 A 0.94488189 0.94488189 0 0 0 523.13086 421.71875 L 505.28711 411.41016 L 510.50781 408.43164 z M 503.39258 412.50195 L 521.74414 423.10156 L 521.74414 453.5293 L 489.58203 453.50781 L 475.31445 428.76562 L 475.34375 428.75 L 475.32617 428.71875 L 503.39258 412.50195 z M 288.86133 412.51758 L 313.98828 427.02148 L 298.68555 453.5 L 266.51367 453.5 A 0.94488189 0.94488189 0 0 0 266.50781 453.5 L 266.50781 425.41992 L 288.86133 412.51758 z M 208.43555 413.34375 L 223.72266 439.80664 L 210.45117 447.46289 L 194.16602 438.05859 L 208.43555 413.34375 z M 579.84766 413.46875 L 595.07617 439.86719 L 581.83398 447.51367 L 565.60742 438.13281 L 579.84766 413.46875 z M 628.99609 422.41211 L 628.99609 428.5 L 605.67383 441.97461 A 0.94488189 0.94488189 0 0 0 605.61719 442.00586 L 599.45312 445.56445 A 0.94488189 0.94488189 0 0 0 599.39258 445.60352 A 0.94488189 0.94488189 0 0 0 599.38477 445.60742 L 581.88477 455.72461 L 562.07617 444.27539 L 564.66797 439.76758 L 581.36133 449.42578 C 581.65349 449.59473 582.01234 449.59473 582.30469 449.42578 L 596.83398 441.0332 C 596.84275 441.02816 596.84693 441.01895 596.85547 441.01367 L 602.99805 437.42578 C 603.00236 437.42338 603.00743 437.42435 603.01172 437.42188 L 628.99609 422.41211 z M 257.53125 422.42773 L 257.53125 428.43945 L 234.19141 441.91211 C 234.18975 441.91306 234.18915 441.91505 234.1875 441.91602 L 234.18359 441.91016 L 228.05664 445.47461 L 228.05859 445.47852 C 228.05804 445.47884 228.0572 445.47819 228.05664 445.47852 L 210.43555 455.65039 L 190.625 444.21289 L 193.2207 439.68945 L 209.97852 449.36719 C 210.27086 449.53613 210.62952 449.53613 210.92188 449.36719 L 225.48633 440.97266 C 225.4967 440.9666 225.50167 440.95561 225.51172 440.94922 L 231.59961 437.39648 C 231.60392 437.39408 231.609 437.39505 231.61328 437.39258 L 257.53125 422.42773 z M 152.18359 424.08984 L 157.39648 427.1875 L 157.39648 454.45898 L 157.39648 454.46094 L 157.41211 461.57031 L 157.41211 461.57422 L 157.41211 482.1875 L 140.375 492.04102 L 137.77539 487.51758 L 151.7207 479.44922 C 152.01112 479.28141 152.19111 478.97204 152.19336 478.63672 L 152.19336 461.57031 C 152.19336 461.56965 152.19336 461.56902 152.19336 461.56836 L 152.18555 454.32617 L 152.18359 454.32617 L 152.18359 424.08984 z M 523.63477 424.19727 L 528.8457 427.22461 L 528.83008 454.49023 C 528.83008 454.49368 528.83199 454.49656 528.83203 454.5 L 528.83203 461.63477 C 528.83203 461.63543 528.83203 461.63605 528.83203 461.63672 L 528.83203 480.74805 C 528.83199 480.75183 528.83199 480.75989 528.83203 480.76367 L 528.85352 482.26953 L 511.80859 492.08984 L 509.21484 487.58789 L 523.16211 479.53906 C 523.45464 479.37012 523.63514 479.05867 523.63477 478.7207 L 523.63477 461.64648 C 523.63477 461.64436 523.63283 461.64275 523.63281 461.64062 L 523.63477 461.64062 L 523.63477 454.47461 L 523.63477 454.47266 L 523.63477 424.19727 z M 464.00781 427.0332 L 463.9668 427.09766 L 466.57422 431.62305 L 452.82812 439.56445 C 452.53786 439.73226 452.35774 440.04163 452.35547 440.37695 L 452.35547 454.46875 C 452.35547 454.48676 452.36424 454.50177 452.36523 454.51953 L 452.30664 454.51953 L 452.30664 461.66602 L 452.35547 461.66602 L 452.35547 496.57031 L 447.11328 493.55859 L 447.11328 461.60742 C 447.11328 461.60049 447.10952 461.59479 447.10938 461.58789 L 447.10938 454.50586 L 447.10352 454.50586 C 447.1067 454.47432 447.12109 454.44644 447.12109 454.41406 L 447.12109 436.77148 L 464.00781 427.0332 z M 315.68164 427.85742 L 320.25 430.50586 L 306.92188 453.54883 L 306.85938 453.51367 L 302.78125 460.62305 L 302.96484 460.72852 C 302.7997 460.80986 302.65569 460.93295 302.56055 461.09766 L 286.17383 489.44727 L 281.63477 486.81055 L 295.95508 462.04297 C 296.06631 461.85022 296.09272 461.64435 296.06641 461.44922 L 296.25195 461.55469 L 300.33008 454.44336 L 300.32617 454.44141 L 315.68164 427.85742 z M 159.28711 428.29297 L 181.89062 441.33594 L 174.86133 453.51562 L 159.28711 453.51562 L 159.28711 428.29297 z M 530.73633 428.32227 L 553.3457 441.4043 L 546.3418 453.54297 L 530.7207 453.54297 L 530.73633 428.32227 z M 257.53125 430.625 L 257.53125 453.51758 L 241.97852 453.51758 L 235.95508 443.08008 L 257.53125 430.625 z M 628.99609 430.68555 L 628.99609 453.5918 L 613.40625 453.5918 L 607.38281 443.16797 L 628.99609 430.68555 z M 321.81445 431.57031 L 338.02344 440.93164 L 338.02344 453.53125 L 309.10938 453.53125 L 321.81445 431.57031 z M 467.51758 433.26172 L 479.20312 453.54688 L 454.24414 453.52344 L 454.24414 440.92188 L 467.51758 433.26172 z M 234.31445 444.01758 L 240.61328 454.93359 C 240.78226 455.22613 241.09368 455.40663 241.43164 455.40625 L 258.47656 455.40625 C 258.64187 455.40624 258.78866 455.35195 258.92383 455.27734 A 0.94488189 0.94488189 0 0 0 259.40039 455.40625 L 266.51562 455.39062 A 0.94488189 0.94488189 0 0 0 266.55664 455.38867 L 297.60352 455.38867 L 294.61133 460.61719 L 294.625 460.625 L 266.52148 460.625 L 266.50781 460.625 L 265.56445 460.625 L 259.39258 460.625 A 0.94488189 0.94488189 0 0 0 258.92773 460.74609 C 258.79551 460.67569 258.65243 460.62501 258.49219 460.625 L 237.91016 460.625 L 229.81641 446.63477 L 234.31445 444.01758 z M 605.74414 444.10938 L 612.04688 455.00781 C 612.21469 455.29808 612.52406 455.4782 612.85938 455.48047 L 629.94141 455.48047 C 629.94634 455.48047 629.95016 455.47664 629.95508 455.47656 C 629.95707 455.47653 629.95895 455.47661 629.96094 455.47656 L 637.01953 455.34375 L 637.03516 455.34375 L 677.18359 455.34375 L 657.55664 489.35352 L 653.05859 486.86719 L 667.35156 462.10352 C 667.71515 461.47317 667.2611 460.68678 666.5332 460.6875 L 666.5332 460.68555 L 637.11523 460.70117 A 0.94488189 0.94488189 0 0 0 637.11328 460.70117 A 0.94488189 0.94488189 0 0 0 637.02734 460.69727 L 629.94141 460.68945 A 0.94488189 0.94488189 0 0 0 629.90039 460.69141 L 609.26562 460.69141 L 601.2168 446.73047 L 605.74414 444.10938 z M 189.68555 445.84766 L 209.96289 457.5625 C 210.25524 457.73144 210.61585 457.73144 210.9082 457.5625 L 228.18945 447.58203 L 236.54492 462.04297 C 236.7139 462.3355 237.02728 462.516 237.36523 462.51562 L 257.54688 462.51562 L 257.54688 482.73438 C 257.54651 483.07226 257.72688 483.3857 258.01953 483.55469 L 275.5 493.65234 L 265.37109 511.17773 C 265.20234 511.46989 265.20234 511.82875 265.37109 512.12109 L 277.24805 532.70898 L 259.99023 542.68359 C 259.69755 542.85254 259.5172 543.16399 259.51758 543.50195 L 259.51758 560.76172 L 237.32031 560.76172 C 236.98235 560.76134 236.67095 560.94184 236.50195 561.23438 L 226.37305 578.78711 L 208.86328 568.67383 C 208.57093 568.50526 208.21032 568.50526 207.91797 568.67383 L 190.45312 578.74414 L 180.33984 561.21875 C 180.17086 560.92621 179.85749 560.74572 179.51953 560.74609 L 159.28711 560.74609 L 159.27148 540.59375 C 159.27186 540.25586 159.09151 539.94242 158.79883 539.77344 L 141.28906 529.66016 L 151.41797 512.10742 C 151.58672 511.81526 151.58672 511.45446 151.41797 511.16211 L 141.31836 493.68164 L 158.82812 483.55469 C 159.12077 483.38574 159.30114 483.07234 159.30078 482.73438 L 159.30078 462.51562 L 179.51367 462.51562 C 179.85164 462.516 180.16303 462.3355 180.33203 462.04297 L 189.68555 445.84766 z M 561.13477 445.91406 L 581.41211 457.63672 C 581.70427 457.80529 582.06508 457.80529 582.35742 457.63672 L 599.58008 447.67773 L 607.89844 462.10938 C 608.06738 462.40191 608.38078 462.58241 608.71875 462.58203 L 628.99609 462.58203 L 628.99609 482.80859 C 628.99572 483.14648 629.17621 483.45797 629.46875 483.62695 L 646.91211 493.69727 L 636.79883 511.2207 C 636.62988 511.51324 636.62988 511.87367 636.79883 512.16602 L 646.92578 529.70508 L 629.46875 539.78906 C 629.17621 539.95801 628.99572 540.27141 628.99609 540.60938 L 628.97266 560.80469 L 608.7168 560.80469 C 608.37891 560.80431 608.06742 560.98481 607.89844 561.27734 L 597.77734 578.78711 L 580.33398 568.70312 C 580.04183 568.53418 579.68102 568.53418 579.38867 568.70312 L 561.86523 578.82422 L 551.72852 561.27734 C 551.5607 560.98708 551.25329 560.80692 550.91797 560.80469 L 532.76562 560.80469 L 532.76562 543.53125 C 532.76336 543.19601 532.58324 542.88836 532.29297 542.7207 L 511.93359 530.96094 L 522.81445 512.12109 C 522.98302 511.82894 522.98302 511.47008 522.81445 511.17773 L 512.74609 493.72656 L 530.27734 483.62695 C 530.57479 483.45536 530.75571 483.13619 530.75 482.79297 L 530.71875 480.74219 L 530.71875 462.58203 L 550.94531 462.59766 C 551.2832 462.59803 551.59664 462.41754 551.76562 462.125 L 561.13477 445.91406 z M 111.04492 455.26367 L 150.29688 455.27148 L 150.30078 460.625 L 121.70508 460.625 C 120.97729 460.62428 120.52294 461.41262 120.88672 462.04297 L 135.66406 487.64062 L 135.66406 487.64258 C 135.66502 487.64424 135.66701 487.64483 135.66797 487.64648 L 139.20508 493.80273 L 139.20703 493.80469 C 139.20735 493.80525 139.20671 493.80608 139.20703 493.80664 L 149.51367 511.63477 L 139.65039 528.71484 L 135.13672 526.12305 L 143.20898 512.12695 C 143.38008 511.83593 143.38325 511.47535 143.2168 511.18164 L 134.71094 496.43359 L 134.71289 496.43164 L 131.1543 490.12109 L 131.15234 490.12305 C 131.14923 490.11745 131.14972 490.11103 131.14648 490.10547 L 111.04492 455.26367 z M 346.05469 455.35938 L 346.0625 455.35938 L 364.7168 455.35938 L 376.32617 475.48633 L 371.77539 478.14648 L 361.94922 461.09766 C 361.78024 460.80512 361.46687 460.62462 361.12891 460.625 L 346.05469 460.625 L 346.05469 460.62305 L 338.98438 460.62305 L 338.98438 460.625 L 304.95703 460.625 L 307.9375 455.42188 L 338.96875 455.42188 C 338.97569 455.42187 338.98138 455.41812 338.98828 455.41797 L 346.05469 455.35938 z M 423.57227 455.35938 L 445.2207 455.35938 L 445.2207 460.66406 L 427.10938 460.64844 C 426.77149 460.64806 426.45805 460.82856 426.28906 461.12109 L 417.45508 476.43359 L 417.45312 476.43359 L 416.98828 477.24219 L 413.45117 483.37891 L 398.22461 509.75 L 395.2207 504.54102 L 408.94141 480.77344 L 412.94336 473.82617 L 412.92383 473.81445 L 423.57227 455.35938 z M 489.03516 455.39648 L 489.04297 455.39648 L 521.74414 455.41992 L 521.74414 460.70117 L 493.14648 460.68555 L 493.14648 460.68164 L 484.95312 460.68164 L 484.95312 460.68555 L 454.19727 460.66406 L 454.19727 455.41406 L 480.8418 455.4375 C 480.85205 455.43751 480.86095 455.43389 480.87109 455.43359 L 489.03516 455.39648 z M 339.92773 462.51172 L 345.11133 462.51172 L 345.11133 494.09961 L 345.11133 494.10352 L 345.11133 502.26367 C 345.11126 502.26836 345.10937 502.27264 345.10938 502.27734 L 345.12305 523.48242 L 339.92773 520.49609 L 339.92773 506.34766 C 339.92774 506.34699 339.92773 506.34637 339.92773 506.3457 L 339.95117 498.13672 C 339.95118 498.13541 339.95117 498.13412 339.95117 498.13281 L 339.92773 462.51172 z M 259.43555 462.51367 L 264.61914 462.51367 L 264.61914 478.63672 C 264.62139 478.97196 264.80138 479.28156 265.0918 479.44922 L 279.86914 487.97656 C 279.87415 487.97946 279.87973 487.97963 279.88477 487.98242 L 286.03516 491.54492 C 286.04049 491.54813 286.04341 491.55352 286.04883 491.55664 L 317.28125 509.58008 L 312.07617 512.59375 L 283.44141 496.0625 C 283.44088 496.0622 283.43998 496.0628 283.43945 496.0625 L 283.44336 496.05469 L 277.26367 492.48242 L 277.26172 492.48633 L 259.43555 482.1875 L 259.43555 462.51367 z M 123.34375 462.51758 L 150.30273 462.51758 L 150.30273 478.0918 L 136.83008 485.88086 L 123.34375 462.51758 z M 266.50781 462.51758 L 293.49609 462.51758 L 279.99414 485.86523 L 266.50781 478.0918 L 266.50781 462.51758 z M 303.91992 462.51758 L 338.03906 462.51758 L 338.06055 497.58789 L 319.17188 508.49219 L 287.8125 490.39062 L 303.91992 462.51758 z M 347 462.51758 L 360.58398 462.51758 L 370.14258 479.10352 L 347 492.46484 L 347 462.51758 z M 427.6543 462.53906 L 445.22461 462.55469 L 445.22461 492.47266 L 419.0918 477.37695 L 427.6543 462.53906 z M 454.24414 462.55469 L 484.40625 462.57812 L 500.49219 490.4375 L 471.09766 507.39258 L 454.24414 497.66406 L 454.24414 462.55469 z M 486.58984 462.57227 L 492.59766 462.57227 L 507.10547 487.71094 C 507.10715 487.71386 507.10962 487.71586 507.11133 487.71875 L 510.63867 493.8418 C 510.64046 493.84498 510.64075 493.84839 510.64258 493.85156 L 520.91016 511.64844 L 510.30273 530.01758 L 505.8125 527.43555 L 514.64258 512.15625 C 514.81115 511.86409 514.81115 511.50328 514.64258 511.21094 L 506.14648 496.47656 C 506.14602 496.47576 506.145 496.47541 506.14453 496.47461 L 506.1543 496.46875 L 502.60352 490.30469 L 502.60156 490.30469 L 486.58984 462.57227 z M 494.78516 462.57812 L 521.74414 462.58594 L 521.74414 478.17578 L 508.27344 485.95703 L 494.78516 462.57812 z M 664.89453 462.57812 L 651.4082 485.94141 L 637.96484 478.18359 L 637.96484 462.5918 L 664.89453 462.57812 z M 630.88672 462.58008 L 636.07617 462.58398 L 636.07617 478.7207 C 636.07579 479.05859 636.25434 479.37008 636.54688 479.53906 L 651.28125 488.05078 C 651.29106 488.05645 651.30257 488.05527 651.3125 488.06055 L 657.43555 491.44727 C 657.43638 491.44775 657.43667 491.44874 657.4375 491.44922 L 657.45312 491.45703 L 692.28711 511.57227 L 658.26172 531.19141 L 655.68555 526.83789 L 680.46875 512.53906 C 681.0926 512.17434 681.0926 511.27308 680.46875 510.9082 L 654.93164 496.16797 A 0.94488189 0.94488189 0 0 0 654.83984 496.10742 L 648.67773 492.5293 L 648.67578 492.52734 A 0.94488189 0.94488189 0 0 0 648.66211 492.52148 L 630.88672 482.26172 L 630.88672 462.58008 z M 396.11133 466.23242 L 410.39062 474.47656 L 407.77539 479.01562 L 396.58398 472.55859 C 396.44452 472.47847 396.28758 472.43391 396.12695 472.43164 C 395.95612 472.42869 395.78878 472.47355 395.64062 472.55859 L 380.68164 481.20508 L 380.67578 481.19531 L 374.49805 484.74609 L 374.5 484.75 C 374.49926 484.75042 374.49879 484.75153 374.49805 484.75195 L 347 500.63867 L 347 494.64844 L 371.90625 480.26953 C 371.91625 480.26377 371.92193 480.25411 371.93164 480.24805 L 378.09375 476.64062 L 378.0918 476.63672 L 396.11133 466.23242 z M 396.11133 474.46875 L 406.83008 480.64844 L 394.12695 502.6543 L 382.43359 482.36914 L 396.11133 474.46875 z M 418.14844 479.00977 L 445.69531 494.92188 C 445.69792 494.92338 445.70051 494.9243 445.70312 494.92578 L 452.79102 498.99805 C 452.80438 499.00669 452.81425 499.01933 452.82812 499.02734 L 469.20508 508.48242 L 463.97266 511.51172 L 453.74414 505.5957 L 453.75 505.58594 L 446.70703 501.48828 L 415.55664 483.50195 L 418.14844 479.00977 z M 380.79688 483.30469 L 393.30664 505.01562 C 393.3105 505.02235 393.31633 505.02662 393.32031 505.0332 L 397.39648 512.0957 C 397.40016 512.10246 397.40044 512.1105 397.4043 512.11719 L 413.75977 540.47461 L 409.23633 543.08008 L 394.93164 518.29688 L 390.83398 511.18164 L 376.26172 485.91406 L 380.79688 483.30469 z M 414.61133 485.14453 L 445.28906 502.85352 L 445.28906 522.29688 L 415.39258 539.5332 L 399.31641 511.64453 L 414.61133 485.14453 z M 374.62305 486.86328 L 388.92188 511.66016 L 372.85938 539.50391 L 347.01562 524.57812 L 347 502.82422 L 374.62305 486.86328 z M 129.97656 491.875 L 132.61133 496.54688 L 107.79688 510.89258 C 107.17303 511.2573 107.17303 512.15856 107.79688 512.52344 L 133.36914 527.28711 C 133.37714 527.29178 133.38645 527.29052 133.39453 527.29492 L 139.51172 530.81641 C 139.51705 530.81961 139.51997 530.82501 139.52539 530.82812 L 157.38281 541.14062 L 157.39648 560.74414 L 152.20703 560.75586 L 152.20703 544.71094 C 152.20741 544.37305 152.02706 544.06156 151.73438 543.89258 L 136.93555 535.3418 L 136.94141 535.33398 L 130.78516 531.63672 L 130.7832 531.64062 C 130.77785 531.63741 130.77497 531.63203 130.76953 531.62891 L 95.970703 511.53516 L 129.97656 491.875 z M 501.43945 492.07227 L 504.04688 496.59961 L 477.73047 511.76953 L 477.72656 511.76367 L 470.60938 515.87695 L 470.61328 515.88281 C 470.612 515.88354 470.61065 515.88403 470.60938 515.88477 L 454.21484 525.32227 L 454.21484 519.32422 L 464.45312 513.41992 C 464.4715 513.40918 464.48466 513.39446 464.50195 513.38281 L 471.54688 509.3125 C 471.5544 509.30843 471.56288 509.30702 471.57031 509.30273 L 501.43945 492.07227 z M 277.13867 494.5957 L 281.67969 497.22266 L 273.59375 511.2168 C 273.42499 511.50895 273.42499 511.86976 273.59375 512.16211 L 283.88477 529.98828 C 283.8874 529.99287 283.89183 529.99547 283.89453 530 L 287.42188 536.12305 C 287.42494 536.12869 287.42455 536.13502 287.42773 536.14062 L 301.64844 560.78711 L 295.62305 560.78711 L 282.92578 538.7832 C 282.9246 538.78115 282.92307 538.77939 282.92188 538.77734 L 282.92578 538.77539 L 279.35938 532.58398 L 279.35938 532.58203 L 267.27539 511.64844 L 277.13867 494.5957 z M 648.55078 494.64062 L 653.08398 497.26758 L 645.02148 511.24023 C 644.85254 511.53239 644.85254 511.8932 645.02148 512.18555 L 653.5625 526.97852 C 653.56856 526.98889 653.57955 526.99385 653.58594 527.00391 L 657.10547 532.95117 L 657.11328 532.96484 L 677.18359 567.75586 L 637.93555 567.75586 L 637.93555 562.73047 L 666.53125 562.73047 C 667.25904 562.73119 667.71534 561.94285 667.35156 561.3125 L 652.59375 535.7793 A 0.94488189 0.94488189 0 0 0 652.57422 535.74023 L 649.03906 529.58008 L 649.03711 529.57617 A 0.94488189 0.94488189 0 0 0 649.0332 529.57031 L 638.71094 511.69336 L 648.55078 494.64062 z M 283.31641 498.17383 L 310.19336 513.69141 L 285.05078 528.22656 L 275.50586 511.69141 L 283.31641 498.17383 z M 133.53711 498.18945 L 141.30469 511.66211 L 133.49414 525.18555 L 110.15234 511.70508 L 133.53711 498.18945 z M 654.71484 498.2207 L 678.11523 511.7207 L 654.72852 525.21484 L 646.93359 511.70703 L 654.71484 498.2207 z M 504.98828 498.24219 L 512.73047 511.68555 L 504.17578 526.5 L 480.08789 512.59375 L 504.98828 498.24219 z M 338.05664 499.77344 L 338.04102 505.80273 L 325.80273 512.87891 L 325.79883 512.87109 L 318.71289 516.96875 L 318.7168 516.97656 C 318.71552 516.97729 318.71416 516.97778 318.71289 516.97852 L 288.59961 534.38086 L 285.99805 529.86133 L 312.55664 514.50977 C 312.55959 514.50807 312.56153 514.50562 312.56445 514.50391 L 319.64258 510.40234 L 319.65039 510.39844 L 338.05664 499.77344 z M 447.17969 503.94727 L 452.32422 506.94141 L 452.32422 518.7793 C 452.32421 518.78409 452.32611 518.7882 452.32617 518.79297 L 452.32617 526.94531 L 452.32617 526.94922 C 452.32614 526.95257 452.32421 526.95563 452.32422 526.95898 L 452.33984 560.81641 L 447.17969 560.81641 L 447.17969 531.02539 C 447.17969 531.02194 447.17777 531.01907 447.17773 531.01562 L 447.17969 531.01562 L 447.17969 522.84375 L 447.17969 522.83789 L 447.17969 503.94727 z M 338.03906 507.98633 L 338.03906 519.41406 L 328.16211 513.70117 L 338.03906 507.98633 z M 454.21484 508.04492 L 462.09766 512.59961 L 454.21484 517.14844 L 454.21484 508.04492 z M 390.01367 513.54883 L 393.02148 518.77148 L 378.53125 543.86914 L 378.5293 543.86719 L 374.97852 550.01758 L 374.98047 550.01953 C 374.97926 550.02159 374.97775 550.02332 374.97656 550.02539 L 364.67969 567.86133 L 347.02734 567.86133 L 347.01758 562.68555 L 361.11523 562.68555 C 361.4532 562.68592 361.7646 562.50738 361.93359 562.21484 L 370.49023 547.40625 C 370.49452 547.39883 370.49398 547.3903 370.49805 547.38281 L 374.00781 541.27734 C 374.01027 541.27327 374.01517 541.2717 374.01758 541.26758 L 390.01367 513.54883 z M 478.19336 513.67383 L 504.04297 528.60938 C 504.05971 528.61905 504.07864 528.61841 504.0957 528.62695 L 510.14453 532.10352 C 510.15459 532.10991 510.15955 532.12089 510.16992 532.12695 L 530.87695 544.07812 L 530.87695 560.8125 L 525.61914 560.82812 L 525.61914 547.64844 C 525.61952 547.31055 525.43902 546.99906 525.14648 546.83008 L 507.57031 536.67969 C 507.56904 536.67896 507.56768 536.67846 507.56641 536.67773 L 507.57227 536.66992 L 501.44531 533.12695 L 501.44531 533.12891 L 472.96094 516.69531 L 478.19336 513.67383 z M 326.26367 514.78711 L 338.51172 521.86523 C 338.51545 521.86739 338.5197 521.86705 338.52344 521.86914 L 345.56836 525.91992 C 345.57905 525.92668 345.58664 525.937 345.59766 525.94336 L 371.91406 541.13867 L 369.32031 545.63867 L 346.54297 532.49414 C 346.5417 532.49341 346.54034 532.49291 346.53906 532.49219 L 346.54297 532.48438 L 339.4707 528.40234 L 339.4668 528.41016 L 321.06836 517.79297 L 326.26367 514.78711 z M 471.08984 517.78906 L 499.67969 534.29492 L 484.34766 560.82617 L 454.22852 560.82617 L 454.21484 527.50391 L 471.08984 517.78906 z M 319.18555 518.88867 L 338.05273 529.77734 L 338.06836 560.79688 L 303.83789 560.79688 L 289.53906 536.01562 L 319.18555 518.88867 z M 394.11133 520.66797 L 407.59766 544.0332 L 394.14062 551.79883 L 380.63867 544.00195 L 394.11133 520.66797 z M 445.29102 524.47852 L 445.29102 530.47656 L 418.13281 546.14258 C 418.13199 546.14305 418.13168 546.14405 418.13086 546.14453 L 418.125 546.13477 L 411.94727 549.71484 L 411.95117 549.72266 L 394.14062 559.99219 L 377.08594 550.15039 L 379.68945 545.64062 L 393.66797 553.70117 C 393.9605 553.86974 394.32093 553.86974 394.61328 553.70117 L 409.36328 545.18945 L 415.49609 541.65234 C 415.5036 541.64834 415.51209 541.64876 415.51953 541.64453 L 445.29102 524.47852 z M 339.94336 530.85352 L 345.125 533.84375 L 345.125 561.73242 L 345.125 561.74219 L 345.14062 568.80469 L 345.14062 592.3457 L 327.82617 602.33789 L 325.25 597.86523 L 339.48633 589.64453 C 339.77898 589.47559 339.95739 589.16414 339.95703 588.82617 L 339.95703 568.80664 C 339.95703 568.80319 339.95512 568.80032 339.95508 568.79688 L 339.95898 568.79688 L 339.95898 561.73242 L 339.95703 561.73242 L 339.94336 530.85352 z M 647.87109 531.34375 L 650.46875 535.86328 L 636.53906 543.90625 C 636.24653 544.07519 636.06798 544.3886 636.06836 544.72656 L 636.04492 561.76367 A 0.94488189 0.94488189 0 0 0 636.04492 561.77734 L 636.04492 561.78516 L 636.04492 568.70117 L 636.02344 604.40039 L 636.02344 604.4082 L 636.03711 608.91016 L 602.05469 589.30273 L 604.63867 584.9707 L 629.40234 599.27344 C 630.03269 599.63703 630.81908 599.18106 630.81836 598.45312 L 630.85742 568.88086 C 630.85742 568.87739 630.85551 568.87455 630.85547 568.87109 L 630.86328 561.75781 L 630.86328 561.75391 L 630.88672 541.1543 L 647.87109 531.34375 z M 445.28906 532.66406 L 445.28906 560.82617 L 427.68359 560.82617 L 419.88867 547.31055 L 445.28906 532.66406 z M 130.63672 533.75 L 135.17383 536.48242 L 120.88477 561.24023 C 120.52099 561.87058 120.9773 562.65697 121.70508 562.65625 L 151.26172 562.65625 C 151.27559 562.65625 151.28705 562.64903 151.30078 562.64844 L 158.32227 562.63281 C 158.32917 562.63296 158.33486 562.63672 158.3418 562.63672 L 178.97461 562.63672 L 188.81445 579.68945 L 184.30078 582.32422 L 176.22852 568.3457 C 176.05953 568.05317 175.74616 567.87267 175.4082 567.87305 L 158.37109 567.88281 L 158.37109 567.87305 L 151.27734 567.70508 L 151.27734 567.70898 C 151.26913 567.70877 151.26218 567.70508 151.25391 567.70508 L 111.04492 567.68945 L 130.63672 533.75 z M 278.19531 534.34961 L 280.82031 538.9043 L 267.10547 546.83008 C 266.81282 546.99902 266.63245 547.31047 266.63281 547.64844 L 266.63281 561.74023 C 266.63281 561.74368 266.63473 561.74656 266.63477 561.75 L 266.63477 568.83398 C 266.63473 568.83744 266.63281 568.84028 266.63281 568.84375 L 266.64844 602.06836 L 261.42188 599.05469 L 261.40625 568.85156 C 261.40625 568.84811 261.40433 568.84524 261.4043 568.8418 L 261.4082 568.8418 L 261.4082 561.70508 L 261.4082 561.70312 L 261.4082 544.04883 L 278.19531 534.34961 z M 347.01562 534.94531 L 368.37891 547.2793 L 360.56836 560.79688 L 347.01562 560.79688 L 347.01562 534.94531 z M 501.31445 535.23438 L 505.8125 537.83789 L 492.27148 561.30664 L 492.26953 561.30469 L 488.17188 568.41211 L 488.17773 568.41602 C 488.17604 568.41887 488.17354 568.42095 488.17188 568.42383 L 471.10156 598.01758 L 466.57812 595.41016 L 481.61719 569.36914 C 481.62452 569.35645 481.62614 569.34289 481.63281 569.33008 L 485.68945 562.27344 C 485.69624 562.2627 485.7065 562.2552 485.71289 562.24414 L 501.31445 535.23438 z M 136.79297 537.44727 L 150.31641 545.25781 L 150.31641 560.76758 L 123.34375 560.76758 L 136.79297 537.44727 z M 651.40625 537.50586 L 664.89453 560.83984 L 637.93555 560.83984 L 637.95703 545.27148 L 651.40625 537.50586 z M 507.44531 538.79102 L 523.73047 548.19531 L 523.73047 560.83984 L 494.72656 560.83984 L 507.44531 538.79102 z M 281.75977 540.54102 L 293.45117 560.79688 L 268.52344 560.79688 L 268.52344 548.19531 L 281.75977 540.54102 z M 418.25391 548.25 L 426.31836 562.24414 C 426.4873 562.53668 426.80071 562.71717 427.13867 562.7168 L 446.23438 562.7168 C 446.25095 562.7168 446.26489 562.70788 446.28125 562.70703 L 453.23828 562.70703 C 453.25473 562.70788 453.2685 562.7168 453.28516 562.7168 L 483.25391 562.7168 L 480.24414 567.95117 L 453.28516 567.95117 L 453.28516 567.94141 L 446.2207 567.93359 L 446.2207 567.94141 L 423.55859 567.94141 L 413.70898 550.88477 L 418.25391 548.25 z M 376.14453 551.79102 L 393.66797 561.9043 C 393.96013 562.07286 394.32093 562.07286 394.61328 561.9043 L 412.07812 551.83398 L 422.19141 569.35938 C 422.36035 569.65191 422.67375 569.83241 423.01172 569.83203 L 445.27539 569.83203 L 445.27539 592.89258 C 445.27501 593.23047 445.45551 593.54391 445.74805 593.71289 L 460.45898 602.2168 L 451.0918 618.44141 C 450.92285 618.73356 450.92285 619.09437 451.0918 619.38672 L 461.20508 636.91016 L 443.68164 647.02344 C 443.38911 647.19238 443.20861 647.50578 443.20898 647.84375 L 443.20898 668.01172 L 422.99609 668.01172 C 422.6582 668.01134 422.34672 668.18989 422.17773 668.48242 L 412.06445 686.0293 L 394.56836 675.92383 C 394.2762 675.75526 393.91735 675.75526 393.625 675.92383 L 376.12891 686.01562 L 366.01562 668.48242 C 365.84664 668.18989 365.53523 668.01134 365.19727 668.01172 L 344.99219 668.01172 L 344.98438 647.84375 C 344.98475 647.50586 344.80441 647.19242 344.51172 647.02344 L 326.98828 636.91016 L 337.11523 619.37109 C 337.28399 619.07856 337.28399 618.71813 337.11523 618.42578 L 328.76758 603.98047 L 346.55664 593.71289 C 346.84929 593.54395 347.02966 593.23054 347.0293 592.89258 L 347.0293 569.75 L 365.22656 569.75 C 365.56453 569.75038 365.87592 569.56988 366.04492 569.27734 L 376.14453 551.79102 z M 237.86719 562.65039 L 259.51758 562.65039 L 259.51758 567.90625 L 241.40234 567.90625 C 241.06438 567.90587 240.75103 568.08637 240.58203 568.37891 L 232.03906 583.16797 L 232.02734 583.16211 L 228.5 589.12305 L 228.49805 589.12695 C 228.49611 589.13024 228.49214 589.13145 228.49023 589.13477 L 208.41211 623.91016 L 188.79297 589.95312 L 193.29492 587.49219 L 207.59961 612.28125 C 207.96286 612.9136 208.87697 612.9136 209.24023 612.28125 L 223.98828 586.73242 C 223.99334 586.72366 223.9933 586.71393 223.99805 586.70508 L 227.52539 580.56055 C 227.52711 580.55763 227.52956 580.55567 227.53125 580.55273 L 237.86719 562.65039 z M 295.14648 562.67773 L 303.23047 562.67773 C 303.25104 562.67906 303.27022 562.68557 303.29102 562.68555 L 338.06836 562.68555 L 338.06836 567.86133 L 307.38281 567.88281 L 307.38281 567.87305 L 299.1875 567.87305 L 299.1875 567.88281 L 268.52344 567.89844 L 268.52344 562.68555 L 295.08984 562.68555 C 295.10974 562.68544 295.12701 562.679 295.14648 562.67773 z M 531.82031 562.69531 L 550.37109 562.69531 L 560.22656 579.76953 L 555.71875 582.39062 L 547.6543 568.42383 C 547.48535 568.13129 547.1739 567.95079 546.83594 567.95117 L 531.82031 567.95117 L 531.82031 567.94141 L 524.67578 567.94141 L 524.67578 567.95117 C 524.67512 567.95117 524.67449 567.95117 524.67383 567.95117 L 490.62109 567.95117 L 493.63086 562.73047 L 524.67578 562.73047 C 524.69312 562.73047 524.7075 562.72163 524.72461 562.7207 L 531.82031 562.69922 L 531.82031 562.69531 z M 609.25781 562.69531 L 628.97266 562.69531 L 628.96875 567.93555 L 612.85938 567.93555 C 612.52149 567.93517 612.20805 568.11567 612.03906 568.4082 L 603.55859 583.10352 L 603.55273 583.11328 A 0.94488189 0.94488189 0 0 0 603.49805 583.19141 L 599.94336 589.15234 L 599.94141 589.15625 C 599.93944 589.15953 599.93553 589.16075 599.93359 589.16406 L 582.07617 620.06445 L 579.81641 623.97656 L 560.2207 590.01953 L 564.69141 587.55469 L 578.99805 612.33398 C 579.36126 612.9663 580.27347 612.9663 580.63672 612.33398 L 595.41602 586.73438 C 595.42534 586.71824 595.42532 586.70003 595.43359 586.68359 L 598.94141 580.55469 L 598.94531 580.55078 L 598.94531 580.54883 L 609.25781 562.69531 z M 152.19922 569.61719 L 157.39648 569.74219 L 157.41797 598.38477 C 157.41724 599.11255 158.20559 599.56886 158.83594 599.20508 L 184.43555 584.44141 C 184.44797 584.43415 184.45483 584.42179 184.4668 584.41406 L 190.58594 580.85156 L 190.58398 580.84961 L 208.39062 570.58594 L 225.42578 580.42773 L 222.81641 584.96484 L 208.86328 576.90039 C 208.72389 576.82026 208.56506 576.77766 208.4043 576.77539 C 208.23354 576.7724 208.06604 576.81535 207.91797 576.90039 L 193.21289 585.39453 L 193.20703 585.38477 L 187.03516 588.76562 C 187.03009 588.76843 187.02456 588.76858 187.01953 588.77148 L 152.2207 608.86523 L 152.19922 569.61719 z M 338.06836 569.75195 L 338.06836 588.28125 L 324.30078 596.23242 L 309.01953 569.77539 L 338.06836 569.75195 z M 300.81836 569.76367 L 306.83008 569.76367 L 323.13672 597.98438 L 323.13477 597.98438 L 326.65039 604.08594 C 326.65378 604.09212 326.6527 604.09933 326.65625 604.10547 L 335.20312 618.89844 L 325.35352 635.96094 L 320.84766 633.36328 L 328.92188 619.39844 C 329.09063 619.1059 329.09063 618.74742 328.92188 618.45508 L 322.14453 606.72461 C 322.14288 606.72174 322.14035 606.71964 322.13867 606.7168 L 322.14648 606.71094 L 318.60938 600.58984 L 318.60547 600.5918 L 300.81836 569.76367 z M 159.28516 569.77539 L 174.86133 569.77539 L 182.67188 583.27734 L 159.30859 596.74805 L 159.28516 569.77539 z M 298.64062 569.77539 L 316.50586 600.72852 L 290.39648 615.79492 L 268.53711 603.17188 L 268.52344 569.79102 L 298.64062 569.77539 z M 241.94922 569.79883 L 259.51758 569.79883 L 259.53125 597.97461 L 234.13086 583.31445 L 241.94922 569.79883 z M 447.16602 569.82422 L 452.33984 569.82812 L 452.33984 588.82031 C 452.33947 589.1582 452.51996 589.46969 452.8125 589.63867 L 464.80859 596.58594 C 464.82406 596.59488 464.84168 596.59359 464.85742 596.60156 L 470.95508 600.11523 C 470.96122 600.11899 470.96445 600.12528 470.9707 600.12891 L 497.92773 615.72852 L 492.74414 618.7207 L 468.38086 604.62891 C 468.37832 604.62744 468.3756 604.62644 468.37305 604.625 L 468.38086 604.61328 L 462.22461 601.04102 L 462.21875 601.05078 C 462.21792 601.0503 462.21763 601.04931 462.2168 601.04883 L 447.16602 592.3457 L 447.16602 569.82422 z M 613.4043 569.82812 L 628.9668 569.82812 L 628.92773 596.81641 L 605.60156 583.34375 L 613.4043 569.82812 z M 525.61914 569.83008 L 530.875 569.83008 L 530.875 597.2793 C 530.875 597.28409 530.87689 597.2882 530.87695 597.29297 L 530.87695 605.2793 C 530.87689 605.28399 530.87499 605.28827 530.875 605.29297 L 530.875 640.57812 L 501.79297 623.76562 L 506.91992 620.92969 L 524.23242 630.94531 C 524.86277 631.3089 525.64916 630.8529 525.64844 630.125 L 525.64844 609.62109 A 0.94488189 0.94488189 0 0 0 525.65039 609.57422 L 525.64258 601.39062 L 525.64258 601.38086 L 525.61914 569.83008 z M 454.22852 569.84375 L 479.1582 569.84375 L 464.93359 594.47656 L 454.22852 588.27539 L 454.22852 569.84375 z M 489.53711 569.84375 L 523.73047 569.84375 L 523.75195 600.85547 L 499.82812 614.64453 L 472.73633 598.97266 L 489.53711 569.84375 z M 532.76562 569.84375 L 546.28906 569.84375 L 554.08398 583.3457 L 532.76562 595.64258 L 532.76562 569.84375 z M 579.86328 570.61523 L 596.83789 580.42773 L 594.24219 584.96484 L 580.33398 576.92969 C 580.19679 576.8507 580.04294 576.80809 579.88477 576.80469 C 579.71166 576.80091 579.53891 576.84314 579.38867 576.92969 L 564.71484 585.39453 L 564.71289 585.39453 A 0.94488189 0.94488189 0 0 0 564.5957 585.45117 L 558.46289 588.82422 A 0.94488189 0.94488189 0 0 0 558.375 588.87891 L 532.76562 603.6543 L 532.76562 597.82617 L 555.84766 584.50977 C 555.8618 584.50162 555.86925 584.48727 555.88281 584.47852 L 561.98242 580.92969 C 561.98485 580.9283 561.98782 580.92914 561.99023 580.92773 L 579.86328 570.61523 z M 208.39062 578.8125 L 221.87695 586.60742 L 208.41992 609.91992 L 194.94727 586.57227 L 208.39062 578.8125 z M 579.86133 578.84375 L 593.30469 586.60156 L 579.81836 609.97266 L 566.3457 586.63867 L 579.86133 578.84375 z M 233.17383 584.94336 L 260.00391 600.42383 C 260.02417 600.43552 260.04585 600.4392 260.06641 600.44922 L 267.07031 604.49609 C 267.08817 604.50811 267.10229 604.5243 267.12109 604.53516 L 288.49414 616.87891 L 283.29688 619.88086 L 268.07617 611.09375 L 268.08008 611.08789 L 260.96484 606.79883 L 260.96289 606.80078 C 260.95803 606.79785 260.95415 606.79386 260.94922 606.79102 L 230.60938 589.26562 L 233.17383 584.94336 z M 317.45703 602.36133 L 320.04492 606.84375 L 297.01562 620.14844 L 297.00977 620.13867 L 289.92383 624.04297 L 289.92773 624.05078 C 289.92151 624.05419 289.91436 624.05503 289.9082 624.05859 L 261.43555 640.49805 L 261.42188 609.2793 L 266.64844 612.42969 L 266.64844 630.05078 C 266.64774 630.77857 267.43607 631.23487 268.06641 630.87109 L 283.78125 621.79883 C 283.81156 621.78142 283.83392 621.7581 283.86133 621.73828 L 290.8125 617.72852 C 290.83099 617.71941 290.85113 617.71546 290.86914 617.70508 L 317.45703 602.36133 z M 523.75391 603.02734 L 523.75977 609.05078 L 506.625 618.94727 A 0.94488189 0.94488189 0 0 0 506.48633 619.00781 L 499.41406 622.91992 A 0.94488189 0.94488189 0 0 0 499.40625 622.92383 C 499.40368 622.92528 499.401 622.92626 499.39844 622.92773 L 472.54102 638.42773 L 469.96484 634.05859 L 493.22852 620.63867 C 493.25637 620.62267 493.27538 620.60007 493.30078 620.58203 L 500.23242 616.58203 C 500.25474 616.57141 500.27915 616.56716 500.30078 616.55469 L 523.75391 603.02734 z M 462.09375 603.15625 L 466.62305 605.78125 L 459.30078 618.46875 C 459.13184 618.76091 459.13184 619.12172 459.30078 619.41406 L 467.8418 634.19336 C 467.85167 634.2105 467.86815 634.22004 467.87891 634.23633 L 471.38086 640.17578 C 471.38295 640.17951 471.38262 640.18379 471.38477 640.1875 L 491.46289 674.94141 L 452.22852 674.95703 L 452.22852 669.92188 L 480.8125 669.92188 C 481.54029 669.92259 481.99464 669.13426 481.63086 668.50391 L 466.88281 642.97656 L 463.31641 636.77734 L 463.3125 636.7793 L 453.00391 618.91406 L 462.09375 603.15625 z M 468.25586 606.74023 L 490.86523 619.82031 L 469.00781 632.42773 L 461.21289 618.94141 L 468.25586 606.74023 z M 320.98633 608.48828 L 327.00977 618.92773 L 319.19922 632.43555 L 299.35742 620.97852 L 320.98633 608.48828 z M 523.75977 611.22852 L 523.75977 628.48633 L 508.82617 619.8418 L 523.75977 611.22852 z M 268.53711 613.54492 L 281.41992 620.97852 L 268.53711 628.41211 L 268.53711 613.54492 z M 297.43945 622.05469 L 319.07422 634.53906 C 319.09282 634.54982 319.11381 634.54924 319.13281 634.55859 L 325.1875 638.04688 C 325.20111 638.05566 325.20845 638.06995 325.22266 638.07812 L 343.0957 648.39062 L 343.10352 668.00391 L 337.91211 668.01562 L 337.91211 651.96094 C 337.91249 651.62305 337.73409 651.30961 337.44141 651.14062 L 322.625 642.58984 L 322.63281 642.57812 L 316.50586 638.85742 L 316.5 638.86719 C 316.49307 638.86296 316.4895 638.85563 316.48242 638.85156 L 292.29883 624.89258 L 297.43945 622.05469 z M 462.1543 638.54883 L 464.7793 643.11328 L 450.8125 651.17188 C 450.51996 651.34082 450.33947 651.65227 450.33984 651.99023 L 450.33984 668.97656 L 450.33984 675.89062 C 450.33981 675.89408 450.33789 675.89692 450.33789 675.90039 L 450.33789 716.13281 L 416.30664 696.49023 L 418.87891 692.17969 L 443.68164 706.49023 C 444.30916 706.85231 445.09274 706.40441 445.09766 705.67969 L 445.09766 676.10742 C 445.09766 676.10185 445.09385 676.09735 445.09375 676.0918 L 445.09766 676.0918 L 445.09766 668.95508 L 445.09766 668.94727 L 445.09766 648.39062 L 462.1543 638.54883 z M 316.34766 640.97656 L 320.87109 643.72266 L 306.5625 668.50391 C 306.19872 669.13426 306.65308 669.92259 307.38086 669.92188 L 336.96875 669.92188 C 336.99649 669.92187 337.01974 669.90859 337.04688 669.90625 L 344.00781 669.89258 C 344.02154 669.89317 344.033 669.90039 344.04688 669.90039 L 364.65039 669.90039 L 374.49219 686.95508 L 369.97266 689.57812 L 361.93359 675.64844 C 361.76461 675.3559 361.4532 675.17736 361.11523 675.17773 L 344.07812 675.16211 L 344.07812 675.14844 L 336.99023 674.95508 L 336.99023 674.96094 C 336.98206 674.96073 336.97502 674.95703 336.9668 674.95703 L 301.23242 674.94141 L 296.7207 674.94141 L 316.34766 640.97656 z M 322.48438 644.69727 L 336.02344 652.50781 L 336.02344 668.03125 L 309.01953 668.03125 L 322.48438 644.69727 z M 465.71484 644.75586 L 479.17188 668.04492 L 452.22852 668.04492 L 452.22852 652.53711 L 465.71484 644.75586 z M 423.54297 669.90039 L 443.20898 669.90039 L 443.20898 675.16211 L 427.09375 675.16211 C 426.75586 675.16173 426.44242 675.34223 426.27344 675.63477 L 417.74609 690.40234 L 417.74023 690.39844 L 414.19141 696.3418 L 414.19336 696.3418 C 414.19014 696.34715 414.18477 696.35003 414.18164 696.35547 L 394.08789 731.1543 L 374.48438 697.19141 L 378.9707 694.74023 L 393.27734 719.53516 C 393.64056 720.16747 394.55277 720.16747 394.91602 719.53516 L 409.67188 693.94922 C 409.67911 693.93681 409.67894 693.92275 409.68555 693.91016 L 413.20703 687.80469 C 413.2113 687.79775 413.21854 687.7942 413.22266 687.78711 L 423.54297 669.90039 z M 337.91211 676.87109 L 343.10938 677.00586 L 343.125 705.63477 C 343.12427 706.36255 343.91067 706.8169 344.54102 706.45312 L 370.10547 691.70508 C 370.11801 691.69786 370.12464 691.68543 370.13672 691.67773 L 376.21875 688.13086 C 376.23008 688.12491 376.24272 688.1256 376.25391 688.11914 L 394.09766 677.83594 L 411.11523 687.66016 L 408.50781 692.18164 L 394.56836 684.13867 C 394.42889 684.05855 394.27192 684.01594 394.11133 684.01367 C 393.94049 684.01069 393.7732 684.05363 393.625 684.13867 L 378.88086 692.64453 L 378.875 692.63477 L 372.72656 696.00195 L 372.72852 696.00391 C 372.7229 696.007 372.71652 696.00654 372.71094 696.00977 L 337.91992 716.08008 L 337.91211 676.87109 z M 345 677.05078 L 360.56836 677.06641 L 368.34766 690.53906 L 345.01367 703.99609 L 345 677.05078 z M 427.64062 677.05078 L 443.20898 677.05078 L 443.20898 704.03906 L 419.84375 690.55273 L 427.64062 677.05078 z M 394.0957 686.04297 L 407.56836 693.82422 L 394.0957 717.17188 L 380.625 693.82422 L 394.0957 686.04297 z "
     style="color:#000000;font-style:normal;font-variant:normal;font-weight:normal;font-stretch:normal;font-size:medium;line-height:normal;font-family:sans-serif;font-variant-ligatures:normal;font-variant-position:normal;font-variant-caps:normal;font-variant-numeric:normal;font-variant-alternates:normal;font-variant-east-asian:normal;font-feature-settings:normal;font-variation-settings:normal;text-indent:0;text-align:start;text-decoration:none;text-decoration-line:none;text-decoration-style:solid;text-decoration-color:#000000;letter-spacing:normal;word-spacing:normal;text-transform:none;writing-mode:lr-tb;direction:ltr;text-orientation:mixed;dominant-baseline:auto;baseline-shift:baseline;text-anchor:start;white-space:normal;shape-padding:0;shape-margin:0;inline-size:0;clip-rule:nonzero;display:inline;overflow:visible;visibility:visible;isolation:auto;mix-blend-mode:normal;color-interpolation:sRGB;color-interpolation-filters:linearRGB;solid-color:#000000;solid-opacity:1;vector-effect:none;fill:#0000ff;fill-opacity:1;fill-rule:nonzero;stroke:#00ff00;stroke-width:0.377953;stroke-linecap:square;stroke-linejoin:miter;stroke-miterlimit:4;stroke-dasharray:none;stroke-dashoffset:0;stroke-opacity:1;color-rendering:auto;image-rendering:auto;shape-rendering:auto;text-rendering:auto;enable-background:accumulate;stop-color:#000000"
     id="path4835" />
</svg>
