<?xml version="1.0" encoding="UTF-8" standalone="no"?>
<svg
   xmlns:dc="http://purl.org/dc/elements/1.1/"
   xmlns:cc="http://creativecommons.org/ns#"
   xmlns:rdf="http://www.w3.org/1999/02/22-rdf-syntax-ns#"
   xmlns:svg="http://www.w3.org/2000/svg"
   xmlns="http://www.w3.org/2000/svg"
   xmlns:sodipodi="http://sodipodi.sourceforge.net/DTD/sodipodi-0.dtd"
   xmlns:inkscape="http://www.inkscape.org/namespaces/inkscape"
   sodipodi:docname="tre2.svg"
   inkscape:version="1.0beta2 (2b71d25, 2019-12-03)"
   id="svg15211"
   version="1.1"
   viewBox="0 0 38.115116 22.224152"
   height="22.224152mm"
   width="38.115116mm">
  <defs
     id="defs15205" />
  <sodipodi:namedview
     inkscape:window-maximized="1"
     inkscape:window-y="23"
     inkscape:window-x="0"
     inkscape:window-height="855"
     inkscape:window-width="1405"
     showgrid="false"
     inkscape:document-rotation="0"
     inkscape:current-layer="layer1"
     inkscape:document-units="mm"
     inkscape:cy="37.822438"
     inkscape:cx="71.996057"
     inkscape:zoom="5.6"
     inkscape:pageshadow="2"
     inkscape:pageopacity="0.0"
     borderopacity="1.0"
     bordercolor="#666666"
     pagecolor="#ffffff"
     id="base"
     inkscape:snap-intersection-paths="true"
     fit-margin-top="0"
     fit-margin-left="0"
     fit-margin-right="0"
     fit-margin-bottom="0" />
  <metadata
     id="metadata15208">
    <rdf:RDF>
      <cc:Work
         rdf:about="">
        <dc:format>image/svg+xml</dc:format>
        <dc:type
           rdf:resource="http://purl.org/dc/dcmitype/StillImage" />
        <dc:title></dc:title>
      </cc:Work>
    </rdf:RDF>
  </metadata>
  <g
     id="layer1"
     inkscape:groupmode="layer"
     inkscape:label="Layer 1"
     transform="translate(-82.858823,-84.576323)">
    <path
       style="fill:none;stroke:#3465a4;stroke-width:0.26458300000000001px;stroke-linecap:butt;stroke-linejoin:miter;stroke-opacity:1;opacity:0.7"
       d="m 93.378772,90.762492 1.68971,2.92653 5.691608,-5.3e-4 2.84441,-4.92686 -1.69141,-2.92779 -1.6901,2.92726 2.84618,4.92712 5.69092,2.7e-4 1.691,-2.92914 -3.38288,0.002 -2.84441,4.92685 2.84549,4.927908 3.38213,-2.6e-4 -1.69133,-2.927238 h -5.69107 l -2.8451,4.927638 1.69021,2.92829 1.6913,-2.92776 -2.84534,-4.928168 -5.691758,8e-4 -1.69033,2.927218 3.38221,-2.4e-4 2.8451,-4.927648 -2.84603,-4.92738 z"
       id="path1287"
       inkscape:connector-curvature="0" />
    <path
       style="fill:none;stroke:#3465a4;stroke-width:0.26458300000000001px;stroke-linecap:butt;stroke-linejoin:miter;stroke-opacity:1;opacity:0.7"
       d="m 90.450622,97.689562 2.30878,1e-5 2.84603,4.927378 -1.154,1.99987 2.30878,10e-6 1.15462,1.99959 1.15431,-1.99959 h 5.691068 l 1.15462,1.99959 1.15431,-1.99959 2.30964,-1.4e-4 -1.15486,-2.00027 2.8451,-4.927638 2.30964,-1.4e-4 -1.15486,-2.00027 1.15477,-2.00041 -2.3094,2.7e-4 -2.84618,-4.92713 1.15477,-2.0004 -2.3094,2.6e-4 -1.15446,-1.99986 -1.15462,2.00013 -5.690918,-2.6e-4 -1.15446,-1.99986 -1.15462,2.00013 -2.30948,2.6e-4 1.1547,2.00014 -2.8451,4.92765 -2.30948,2.6e-4 1.1547,2.00014 z"
       id="path1289"
       inkscape:connector-curvature="0" />
    <path
       style="fill:none;stroke:#3465a4;stroke-width:0.26458300000000001px;stroke-linecap:butt;stroke-linejoin:miter;stroke-opacity:1;opacity:0.7"
       d="m 93.913822,88.761182 1.99959,-1.15462 1e-5,-2.30878 1.99987,1.154 2.00014,-1.1547 2.6e-4,2.30948 3.999718,2.30893 0.001,4.61833 3.99972,2.30893 5.3e-4,4.619118 2.00013,1.15462 -1.99986,1.15446 2.6e-4,2.3094 -2.00041,-1.15477 -2.00027,1.15486 -1.4e-4,-2.30964 -3.999718,-2.30893 -5.3e-4,-4.619118 -4.00041,-2.30814 -5.3e-4,-4.61912 z"
       id="path1291"
       inkscape:connector-curvature="0" />
    <path
       inkscape:connector-curvature="0"
       id="path1293"
       d="m 103.91354,85.296332 1.99972,1.15439 1.99947,-1.15438 5.4e-4,2.30894 2.00007,1.15482 -1.99994,1.15496 2.7e-4,4.61833 -3.99909,2.31003 2.7e-4,4.618318 -4.000008,2.31002 1.3e-4,2.30948 -1.99972,-1.1547 -1.99987,1.15492 -1.4e-4,-2.30979 -2.00028,-1.15485 2.00014,-1.15495 -2.7e-4,-4.618318 4.00001,-2.31002 -10e-4,-4.61853 4.000008,-2.31001 z"
       style="fill:none;stroke:#3465a4;stroke-width:0.26458300000000001px;stroke-linecap:butt;stroke-linejoin:miter;stroke-opacity:1;opacity:0.7" />
    <path
       style="fill:none;stroke:#3465a4;stroke-width:0.26458300000000001px;stroke-linecap:butt;stroke-linejoin:miter;stroke-opacity:1;opacity:0.7"
       d="m 111.91407,92.224152 1.3e-4,2.309 1.99946,1.1544 -1.99933,1.15494 -7e-5,2.30952 -2.00019,-1.15452 -3.99946,2.309398 -4.00009,-2.308298 -3.999448,2.309398 -4.00054,-2.309098 -2,1.15485 1.4e-4,-2.30916 -2.00013,-1.15448 2.00027,-1.15501 -1e-5,-2.30972 2.00029,1.1547 3.99944,-2.3094 4.000538,2.3091 3.99927,-2.31013 4.00053,2.30911 z"
       id="path1295"
       inkscape:connector-curvature="0" />
    <path
       style="fill:none;stroke:#3465a4;stroke-width:0.26458300000000001px;stroke-linecap:butt;stroke-linejoin:miter;stroke-opacity:1;opacity:0.7"
       d="m 96.223112,95.689162 2.8451,-4.92764 h 5.691068 l 2.84603,4.92738 -2.8451,4.927648 -5.690918,-2.6e-4 z"
       id="path1297"
       inkscape:connector-curvature="0" />
    <path
       style="fill:none;stroke:#3465a4;stroke-width:0.26458300000000001px;stroke-linecap:butt;stroke-linejoin:miter;stroke-opacity:1;opacity:0.7"
       d="m 111.91314,100.22394 3e-5,-1.072078 0.92872,0.53578 z"
       id="path248"
       inkscape:connector-curvature="0" />
    <path
       inkscape:connector-curvature="0"
       id="path250"
       d="m 110.8429,102.07976 -3e-5,1.07207 -0.92872,-0.53578 z"
       style="fill:none;stroke:#3465a4;stroke-width:0.26458300000000001px;stroke-linecap:butt;stroke-linejoin:miter;stroke-opacity:1;opacity:0.7" />
    <path
       style="fill:none;stroke:#3465a4;stroke-width:0.26458300000000001px;stroke-linecap:butt;stroke-linejoin:miter;stroke-opacity:1;opacity:0.7"
       d="m 103.91451,106.08044 -3e-5,1.07207 -0.92872,-0.53578 z"
       id="path300"
       inkscape:connector-curvature="0" />
    <path
       inkscape:connector-curvature="0"
       id="path302"
       d="m 99.914332,106.08033 3e-5,1.07207 0.928718,-0.53578 z"
       style="fill:none;stroke:#3465a4;stroke-width:0.26458300000000001px;stroke-linecap:butt;stroke-linejoin:miter;stroke-opacity:1;opacity:0.7" />
    <path
       inkscape:connector-curvature="0"
       id="path304"
       d="m 103.91451,106.08044 -3e-5,1.07207 -0.92872,-0.53578 z"
       style="fill:none;stroke:#3465a4;stroke-width:0.26458300000000001px;stroke-linecap:butt;stroke-linejoin:miter;stroke-opacity:1;opacity:0.7" />
    <path
       inkscape:connector-curvature="0"
       id="path308"
       d="m 93.378772,90.762492 1.68971,2.92653 5.691608,-5.3e-4 2.84441,-4.92686 -1.69141,-2.92779 -1.6901,2.92726 2.84618,4.92712 5.69092,2.7e-4 1.691,-2.92914 -3.38288,0.002 -2.84441,4.92685 2.84549,4.927908 3.38213,-2.6e-4 -1.69133,-2.927238 h -5.69107 l -2.8451,4.927638 1.69021,2.92829 1.6913,-2.92776 -2.84534,-4.928168 -5.691758,8e-4 -1.69033,2.927218 3.38221,-2.4e-4 2.8451,-4.927648 -2.84603,-4.92738 z"
       style="fill:none;stroke:#3465a4;stroke-width:0.26458300000000001px;stroke-linecap:butt;stroke-linejoin:miter;stroke-opacity:1;opacity:0.7" />
    <path
       inkscape:connector-curvature="0"
       id="path310"
       d="m 90.450622,97.689562 2.30878,1e-5 2.84603,4.927378 -1.154,1.99987 2.30878,10e-6 1.15462,1.99959 1.15431,-1.99959 h 5.691068 l 1.15462,1.99959 1.15431,-1.99959 2.30964,-1.4e-4 -1.15486,-2.00027 2.8451,-4.927638 2.30964,-1.4e-4 -1.15486,-2.00027 1.15477,-2.00041 -2.3094,2.7e-4 -2.84618,-4.92713 1.15477,-2.0004 -2.3094,2.6e-4 -1.15446,-1.99986 -1.15462,2.00013 -5.690918,-2.6e-4 -1.15446,-1.99986 -1.15462,2.00013 -2.30948,2.6e-4 1.1547,2.00014 -2.8451,4.92765 -2.30948,2.6e-4 1.1547,2.00014 z"
       style="fill:none;stroke:#3465a4;stroke-width:0.26458300000000001px;stroke-linecap:butt;stroke-linejoin:miter;stroke-opacity:1;opacity:0.7" />
    <path
       inkscape:connector-curvature="0"
       id="path312"
       d="m 93.913822,88.761182 1.99959,-1.15462 1e-5,-2.30878 1.99987,1.154 2.00014,-1.1547 2.6e-4,2.30948 3.999718,2.30893 0.001,4.61833 3.99972,2.30893 5.3e-4,4.619118 2.00013,1.15462 -1.99986,1.15446 2.6e-4,2.3094 -2.00041,-1.15477 -2.00027,1.15486 -1.4e-4,-2.30964 -3.999718,-2.30893 -5.3e-4,-4.619118 -4.00041,-2.30814 -5.3e-4,-4.61912 z"
       style="fill:none;stroke:#3465a4;stroke-width:0.26458300000000001px;stroke-linecap:butt;stroke-linejoin:miter;stroke-opacity:1;opacity:0.7" />
    <path
       style="fill:none;stroke:#3465a4;stroke-width:0.26458300000000001px;stroke-linecap:butt;stroke-linejoin:miter;stroke-opacity:1;opacity:0.7"
       d="m 103.91354,85.296332 1.99972,1.15439 1.99947,-1.15438 5.4e-4,2.30894 2.00007,1.15482 -1.99994,1.15496 2.7e-4,4.61833 -3.99909,2.31003 2.7e-4,4.618318 -4.000008,2.31002 1.3e-4,2.30948 -1.99972,-1.1547 -1.99987,1.15492 -1.4e-4,-2.30979 -2.00028,-1.15485 2.00014,-1.15495 -2.7e-4,-4.618318 4.00001,-2.31002 -10e-4,-4.61853 4.000008,-2.31001 z"
       id="path314"
       inkscape:connector-curvature="0" />
    <path
       inkscape:connector-curvature="0"
       id="path316"
       d="m 111.91407,92.224152 1.3e-4,2.309 1.99946,1.1544 -1.99933,1.15494 -7e-5,2.30952 -2.00019,-1.15452 -3.99946,2.309398 -4.00009,-2.308298 -3.999448,2.309398 -4.00054,-2.309098 -2,1.15485 1.4e-4,-2.30916 -2.00013,-1.15448 2.00027,-1.15501 -1e-5,-2.30972 2.00029,1.1547 3.99944,-2.3094 4.000538,2.3091 3.99927,-2.31013 4.00053,2.30911 z"
       style="fill:none;stroke:#3465a4;stroke-width:0.26458300000000001px;stroke-linecap:butt;stroke-linejoin:miter;stroke-opacity:1;opacity:0.7" />
    <path
       inkscape:connector-curvature="0"
       id="path318"
       d="m 96.223112,95.689162 2.8451,-4.92764 h 5.691068 l 2.84603,4.92738 -2.8451,4.927648 -5.690918,-2.6e-4 z"
       style="fill:none;stroke:#3465a4;stroke-width:0.26458300000000001px;stroke-linecap:butt;stroke-linejoin:miter;stroke-opacity:1;opacity:0.7" />
    <path
       inkscape:connector-curvature="0"
       id="path320"
       d="m 111.91314,100.22394 3e-5,-1.072078 0.92872,0.53578 z"
       style="fill:none;stroke:#3465a4;stroke-width:0.26458300000000001px;stroke-linecap:butt;stroke-linejoin:miter;stroke-opacity:1;opacity:0.7" />
    <path
       style="fill:none;stroke:#3465a4;stroke-width:0.26458300000000001px;stroke-linecap:butt;stroke-linejoin:miter;stroke-opacity:1;opacity:0.7"
       d="m 110.8429,102.07976 -3e-5,1.07207 -0.92872,-0.53578 z"
       id="path322"
       inkscape:connector-curvature="0" />
    <path
       inkscape:connector-curvature="0"
       id="path324"
       d="m 103.91451,106.08044 -3e-5,1.07207 -0.92872,-0.53578 z"
       style="fill:none;stroke:#3465a4;stroke-width:0.26458300000000001px;stroke-linecap:butt;stroke-linejoin:miter;stroke-opacity:1;opacity:0.7" />
    <path
       style="fill:none;stroke:#3465a4;stroke-width:0.26458300000000001px;stroke-linecap:butt;stroke-linejoin:miter;stroke-opacity:1;opacity:0.7"
       d="m 99.914332,106.08033 3e-5,1.07207 0.928718,-0.53578 z"
       id="path326"
       inkscape:connector-curvature="0" />
    <path
       style="fill:none;stroke:#3465a4;stroke-width:0.26458300000000001px;stroke-linecap:butt;stroke-linejoin:miter;stroke-opacity:1;opacity:0.7"
       d="m 103.91451,106.08044 -3e-5,1.07207 -0.92872,-0.53578 z"
       id="path328"
       inkscape:connector-curvature="0" />
    <path
       inkscape:connector-curvature="0"
       id="path334"
       d="m 107.91397,106.08033 3e-5,1.07207 0.92871,-0.53578 z"
       style="fill:none;stroke:#3465a4;stroke-width:0.26458300000000001px;stroke-linecap:butt;stroke-linejoin:miter;stroke-opacity:1;opacity:0.7" />
    <path
       inkscape:transform-center-y="5.6330525e-05"
       inkscape:transform-center-x="-4.8381235"
       inkscape:connector-curvature="0"
       id="path354"
       d="m 95.933303,106.04887 -3e-5,1.07207 -0.92872,-0.53578 z"
       style="fill:none;stroke:#3465a4;stroke-width:0.26458300000000001px;stroke-linecap:butt;stroke-linejoin:miter;stroke-opacity:1;opacity:0.7" />
    <path
       style="fill:none;stroke:#3465a4;stroke-width:0.26458300000000001px;stroke-linecap:butt;stroke-linejoin:miter;stroke-opacity:1;opacity:0.7"
       d="m 110.84302,110.07913 -3e-5,1.07207 -0.92872,-0.53578 z"
       id="path306"
       inkscape:connector-curvature="0" />
    <path
       inkscape:connector-curvature="0"
       id="path330"
       d="m 112.84303,113.54328 -0.92846,0.53601 -3.6e-4,-1.07219 z"
       style="fill:none;stroke:#3465a4;stroke-width:0.26458300000000001px;stroke-linecap:butt;stroke-linejoin:miter;stroke-opacity:1;opacity:0.7" />
    <path
       style="fill:none;stroke:#3465a4;stroke-width:0.26458300000000001px;stroke-linecap:butt;stroke-linejoin:miter;stroke-opacity:1;opacity:0.7"
       d="m 93.379702,112.61781 1.68971,2.92653 5.691608,-5.3e-4 2.84441,-4.92686 -1.69141,-2.92779 -1.6901,2.92726 2.84618,4.92712 5.69092,2.7e-4 1.691,-2.92914 -3.38288,0.002 -2.84441,4.92685 2.84549,4.92791 3.38213,-2.6e-4 -1.69133,-2.92724 h -5.69107 l -2.8451,4.92764 1.69021,2.92829 1.6913,-2.92776 -2.84534,-4.92817 -5.691758,8e-4 -1.69033,2.92722 3.38221,-2.4e-4 2.8451,-4.92765 -2.84603,-4.92738 z"
       id="path282"
       inkscape:connector-curvature="0" />
    <path
       style="fill:none;stroke:#3465a4;stroke-width:0.26458300000000001px;stroke-linecap:butt;stroke-linejoin:miter;stroke-opacity:1;opacity:0.7"
       d="m 90.451552,119.54488 2.30878,10e-6 2.84603,4.92738 -1.154,1.99987 2.30878,1e-5 1.15462,1.99959 1.15431,-1.99959 h 5.691068 l 1.15462,1.99959 1.15431,-1.99959 2.30964,-1.4e-4 -1.15486,-2.00027 2.8451,-4.92764 2.30964,-1.4e-4 -1.15486,-2.00027 1.15477,-2.00041 -2.3094,2.7e-4 -2.84618,-4.92713 1.15477,-2.0004 -2.3094,2.6e-4 -1.15446,-1.99986 -1.15462,2.00013 -5.690918,-2.6e-4 -1.15446,-1.99986 -1.15462,2.00013 -2.30948,2.6e-4 1.1547,2.00014 -2.8451,4.92765 -2.30948,2.6e-4 1.1547,2.00014 z"
       id="path284"
       inkscape:connector-curvature="0" />
    <path
       style="fill:none;stroke:#3465a4;stroke-width:0.26458300000000001px;stroke-linecap:butt;stroke-linejoin:miter;stroke-opacity:1;opacity:0.7"
       d="m 93.914752,110.6165 1.99959,-1.15462 10e-6,-2.30878 1.99987,1.154 2.00014,-1.1547 2.6e-4,2.30948 3.999718,2.30893 0.001,4.61833 3.99972,2.30893 5.3e-4,4.61912 2.00013,1.15462 -1.99986,1.15446 2.6e-4,2.3094 -2.00041,-1.15477 -2.00027,1.15486 -1.4e-4,-2.30964 -3.999718,-2.30893 -5.3e-4,-4.61912 -4.00041,-2.30814 -5.3e-4,-4.61912 z"
       id="path286"
       inkscape:connector-curvature="0" />
    <path
       inkscape:connector-curvature="0"
       id="path288"
       d="m 103.91447,107.15165 1.99972,1.15439 1.99947,-1.15438 5.4e-4,2.30894 2.00007,1.15482 -1.99994,1.15496 2.7e-4,4.61833 -3.99909,2.31003 2.7e-4,4.61832 -4.000008,2.31002 1.3e-4,2.30948 -1.99972,-1.1547 -1.99987,1.15492 -1.4e-4,-2.30979 -2.00028,-1.15485 2.00014,-1.15495 -2.7e-4,-4.61832 4.00001,-2.31002 -0.001,-4.61853 4.000008,-2.31001 z"
       style="fill:none;stroke:#3465a4;stroke-width:0.26458300000000001px;stroke-linecap:butt;stroke-linejoin:miter;stroke-opacity:1;opacity:0.7" />
    <path
       style="fill:none;stroke:#3465a4;stroke-width:0.26458300000000001px;stroke-linecap:butt;stroke-linejoin:miter;stroke-opacity:1;opacity:0.7"
       d="m 111.915,114.07947 1.3e-4,2.309 1.99946,1.1544 -1.99933,1.15494 -7e-5,2.30952 -2.00019,-1.15452 -3.99946,2.3094 -4.00009,-2.3083 -3.999448,2.3094 -4.00054,-2.3091 -2,1.15485 1.4e-4,-2.30916 -2.00013,-1.15448 2.00027,-1.15501 -10e-6,-2.30972 2.00029,1.1547 3.99944,-2.3094 4.000538,2.3091 3.99927,-2.31013 4.00053,2.30911 z"
       id="path290"
       inkscape:connector-curvature="0" />
    <path
       style="fill:none;stroke:#3465a4;stroke-width:0.26458300000000001px;stroke-linecap:butt;stroke-linejoin:miter;stroke-opacity:1;opacity:0.7"
       d="m 96.224042,117.54448 2.8451,-4.92764 h 5.691068 l 2.84603,4.92738 -2.8451,4.92765 -5.690918,-2.6e-4 z"
       id="path292"
       inkscape:connector-curvature="0" />
    <path
       style="fill:none;stroke:#3465a4;stroke-width:0.26458300000000001px;stroke-linecap:butt;stroke-linejoin:miter;stroke-opacity:1;opacity:0.7"
       d="m 111.91407,122.07926 3e-5,-1.07208 0.92872,0.53578 z"
       id="path294"
       inkscape:connector-curvature="0" />
    <path
       inkscape:connector-curvature="0"
       id="path296"
       d="m 110.84383,123.93508 -3e-5,1.07207 -0.92872,-0.53578 z"
       style="fill:none;stroke:#3465a4;stroke-width:0.26458300000000001px;stroke-linecap:butt;stroke-linejoin:miter;stroke-opacity:1;opacity:0.7" />
    <path
       style="fill:none;stroke:#3465a4;stroke-width:0.26458300000000001px;stroke-linecap:butt;stroke-linejoin:miter;stroke-opacity:1;opacity:0.7"
       d="m 74.469665,101.6601 1.68971,2.92653 5.691608,-5.3e-4 2.84441,-4.926856 -1.69141,-2.92779 -1.6901,2.92726 2.84618,4.927116 5.69092,2.7e-4 1.691,-2.92914 -3.38288,0.002 -2.84441,4.92685 2.84549,4.92791 3.38213,-2.6e-4 -1.69133,-2.92724 h -5.69107 l -2.8451,4.92764 1.69021,2.92829 1.6913,-2.92776 -2.84534,-4.92817 -5.691758,8e-4 -1.69033,2.92722 3.38221,-2.4e-4 2.8451,-4.92765 -2.84603,-4.92738 z"
       id="path336"
       inkscape:connector-curvature="0" />
    <path
       style="fill:none;stroke:#3465a4;stroke-width:0.26458300000000001px;stroke-linecap:butt;stroke-linejoin:miter;stroke-opacity:1;opacity:0.7"
       d="m 71.541515,108.58717 2.30878,1e-5 2.84603,4.92738 -1.154,1.99987 2.30878,10e-6 1.15462,1.99959 1.15431,-1.99959 h 5.691068 l 1.15462,1.99959 1.15431,-1.99959 2.30964,-1.4e-4 -1.15486,-2.00027 2.8451,-4.92764 2.30964,-1.4e-4 -1.15486,-2.00027 1.15477,-2.00041 -2.3094,2.7e-4 -2.84618,-4.927126 1.15477,-2.0004 -2.3094,2.6e-4 -1.15446,-1.99986 -1.15462,2.00013 -5.690918,-2.6e-4 -1.15446,-1.99986 -1.15462,2.00013 -2.30948,2.6e-4 1.1547,2.00014 -2.8451,4.927646 -2.30948,2.6e-4 1.1547,2.00014 z"
       id="path338"
       inkscape:connector-curvature="0" />
    <path
       style="fill:none;stroke:#3465a4;stroke-width:0.26458300000000001px;stroke-linecap:butt;stroke-linejoin:miter;stroke-opacity:1;opacity:0.7"
       d="m 75.004715,99.658794 1.99959,-1.15462 1e-5,-2.30878 1.99987,1.154 2.00014,-1.1547 2.6e-4,2.30948 3.999718,2.308926 0.001,4.61833 3.99972,2.30893 5.3e-4,4.61912 2.00013,1.15462 -1.99986,1.15446 2.6e-4,2.3094 -2.00041,-1.15477 -2.00027,1.15486 -1.4e-4,-2.30964 -3.999718,-2.30893 -5.3e-4,-4.61912 -4.00041,-2.30814 -5.3e-4,-4.61912 z"
       id="path340"
       inkscape:connector-curvature="0" />
    <path
       inkscape:connector-curvature="0"
       id="path342"
       d="m 85.004433,96.193944 1.99972,1.15439 1.99947,-1.15438 5.4e-4,2.30894 2.00007,1.15482 -1.99994,1.154956 2.7e-4,4.61833 -3.99909,2.31003 2.7e-4,4.61832 -4.000008,2.31002 1.3e-4,2.30948 -1.99972,-1.1547 -1.99987,1.15492 -1.4e-4,-2.30979 -2.00028,-1.15485 2.00014,-1.15495 -2.7e-4,-4.61832 4.00001,-2.31002 -0.001,-4.61853 4.000008,-2.310006 z"
       style="fill:none;stroke:#3465a4;stroke-width:0.26458300000000001px;stroke-linecap:butt;stroke-linejoin:miter;stroke-opacity:1;opacity:0.7" />
    <path
       style="fill:none;stroke:#3465a4;stroke-width:0.26458300000000001px;stroke-linecap:butt;stroke-linejoin:miter;stroke-opacity:1;opacity:0.7"
       d="m 93.004963,103.12176 1.3e-4,2.309 1.99946,1.1544 -1.99933,1.15494 -7e-5,2.30952 -2.00019,-1.15452 -3.99946,2.3094 -4.00009,-2.3083 -3.999448,2.3094 -4.00054,-2.3091 -2,1.15485 1.4e-4,-2.30916 -2.00013,-1.15448 2.00027,-1.15501 -1e-5,-2.30972 2.00029,1.1547 3.99944,-2.3094 4.000538,2.3091 3.99927,-2.31013 4.00053,2.30911 z"
       id="path344"
       inkscape:connector-curvature="0" />
    <path
       style="fill:none;stroke:#3465a4;stroke-width:0.26458300000000001px;stroke-linecap:butt;stroke-linejoin:miter;stroke-opacity:1;opacity:0.7"
       d="m 77.314005,106.58677 2.8451,-4.92764 h 5.691068 l 2.84603,4.92738 -2.8451,4.92765 -5.690918,-2.6e-4 z"
       id="path346"
       inkscape:connector-curvature="0" />
    <path
       style="fill:none;stroke:#3465a4;stroke-width:0.26458300000000001px;stroke-linecap:butt;stroke-linejoin:miter;stroke-opacity:1;opacity:0.7"
       d="m 93.004033,111.12155 3e-5,-1.07208 0.92872,0.53578 z"
       id="path348"
       inkscape:connector-curvature="0" />
    <path
       inkscape:connector-curvature="0"
       id="path350"
       d="m 91.933793,112.97737 -3e-5,1.07207 -0.92872,-0.53578 z"
       style="fill:none;stroke:#3465a4;stroke-width:0.26458300000000001px;stroke-linecap:butt;stroke-linejoin:miter;stroke-opacity:1;opacity:0.7" />
    <path
       inkscape:connector-curvature="0"
       id="path358"
       d="m 92.986213,103.15312 3e-5,-1.07208 0.92872,0.53578 z"
       style="fill:none;stroke:#3465a4;stroke-width:0.26458300000000001px;stroke-linecap:butt;stroke-linejoin:miter;stroke-opacity:1;opacity:0.7" />
    <path
       style="fill:none;stroke:#3465a4;stroke-width:0.26458300000000001px;stroke-linecap:butt;stroke-linejoin:miter;stroke-opacity:1;opacity:0.7"
       d="m 91.914533,99.153742 -3e-5,1.072068 -0.92872,-0.535778 z"
       id="path360"
       inkscape:connector-curvature="0" />
    <path
       inkscape:connector-curvature="0"
       id="path420"
       d="m 93.379702,112.61781 1.68971,2.92653 5.691608,-5.3e-4 2.84441,-4.92686 -1.69141,-2.92779 -1.6901,2.92726 2.84618,4.92712 5.69092,2.7e-4 1.691,-2.92914 -3.38288,0.002 -2.84441,4.92685 2.84549,4.92791 3.38213,-2.6e-4 -1.69133,-2.92724 h -5.69107 l -2.8451,4.92764 1.69021,2.92829 1.6913,-2.92776 -2.84534,-4.92817 -5.691758,8e-4 -1.69033,2.92722 3.38221,-2.4e-4 2.8451,-4.92765 -2.84603,-4.92738 z"
       style="fill:none;stroke:#3465a4;stroke-width:0.26458300000000001px;stroke-linecap:butt;stroke-linejoin:miter;stroke-opacity:1;opacity:0.7" />
    <path
       inkscape:connector-curvature="0"
       id="path422"
       d="m 90.451552,119.54488 2.30878,10e-6 2.84603,4.92738 -1.154,1.99987 2.30878,1e-5 1.15462,1.99959 1.15431,-1.99959 h 5.691068 l 1.15462,1.99959 1.15431,-1.99959 2.30964,-1.4e-4 -1.15486,-2.00027 2.8451,-4.92764 2.30964,-1.4e-4 -1.15486,-2.00027 1.15477,-2.00041 -2.3094,2.7e-4 -2.84618,-4.92713 1.15477,-2.0004 -2.3094,2.6e-4 -1.15446,-1.99986 -1.15462,2.00013 -5.690918,-2.6e-4 -1.15446,-1.99986 -1.15462,2.00013 -2.30948,2.6e-4 1.1547,2.00014 -2.8451,4.92765 -2.30948,2.6e-4 1.1547,2.00014 z"
       style="fill:none;stroke:#3465a4;stroke-width:0.26458300000000001px;stroke-linecap:butt;stroke-linejoin:miter;stroke-opacity:1;opacity:0.7" />
    <path
       inkscape:connector-curvature="0"
       id="path424"
       d="m 93.914752,110.6165 1.99959,-1.15462 10e-6,-2.30878 1.99987,1.154 2.00014,-1.1547 2.6e-4,2.30948 3.999718,2.30893 0.001,4.61833 3.99972,2.30893 5.3e-4,4.61912 2.00013,1.15462 -1.99986,1.15446 2.6e-4,2.3094 -2.00041,-1.15477 -2.00027,1.15486 -1.4e-4,-2.30964 -3.999718,-2.30893 -5.3e-4,-4.61912 -4.00041,-2.30814 -5.3e-4,-4.61912 z"
       style="fill:none;stroke:#3465a4;stroke-width:0.26458300000000001px;stroke-linecap:butt;stroke-linejoin:miter;stroke-opacity:1;opacity:0.7" />
    <path
       style="fill:none;stroke:#3465a4;stroke-width:0.26458300000000001px;stroke-linecap:butt;stroke-linejoin:miter;stroke-opacity:1;opacity:0.7"
       d="m 103.91447,107.15165 1.99972,1.15439 1.99947,-1.15438 5.4e-4,2.30894 2.00007,1.15482 -1.99994,1.15496 2.7e-4,4.61833 -3.99909,2.31003 2.7e-4,4.61832 -4.000008,2.31002 1.3e-4,2.30948 -1.99972,-1.1547 -1.99987,1.15492 -1.4e-4,-2.30979 -2.00028,-1.15485 2.00014,-1.15495 -2.7e-4,-4.61832 4.00001,-2.31002 -0.001,-4.61853 4.000008,-2.31001 z"
       id="path426"
       inkscape:connector-curvature="0" />
    <path
       inkscape:connector-curvature="0"
       id="path428"
       d="m 111.915,114.07947 1.3e-4,2.309 1.99946,1.1544 -1.99933,1.15494 -7e-5,2.30952 -2.00019,-1.15452 -3.99946,2.3094 -4.00009,-2.3083 -3.999448,2.3094 -4.00054,-2.3091 -2,1.15485 1.4e-4,-2.30916 -2.00013,-1.15448 2.00027,-1.15501 -10e-6,-2.30972 2.00029,1.1547 3.99944,-2.3094 4.000538,2.3091 3.99927,-2.31013 4.00053,2.30911 z"
       style="fill:none;stroke:#3465a4;stroke-width:0.26458300000000001px;stroke-linecap:butt;stroke-linejoin:miter;stroke-opacity:1;opacity:0.7" />
    <path
       inkscape:connector-curvature="0"
       id="path430"
       d="m 96.224042,117.54448 2.8451,-4.92764 h 5.691068 l 2.84603,4.92738 -2.8451,4.92765 -5.690918,-2.6e-4 z"
       style="fill:none;stroke:#3465a4;stroke-width:0.26458300000000001px;stroke-linecap:butt;stroke-linejoin:miter;stroke-opacity:1;opacity:0.7" />
    <path
       inkscape:connector-curvature="0"
       id="path432"
       d="m 111.91407,122.07926 3e-5,-1.07208 0.92872,0.53578 z"
       style="fill:none;stroke:#3465a4;stroke-width:0.26458300000000001px;stroke-linecap:butt;stroke-linejoin:miter;stroke-opacity:1;opacity:0.7" />
    <path
       style="fill:none;stroke:#3465a4;stroke-width:0.26458300000000001px;stroke-linecap:butt;stroke-linejoin:miter;stroke-opacity:1;opacity:0.7"
       d="m 110.84383,123.93508 -3e-5,1.07207 -0.92872,-0.53578 z"
       id="path434"
       inkscape:connector-curvature="0" />
    <path
       inkscape:connector-curvature="0"
       id="path438"
       d="m 74.469665,101.6601 1.68971,2.92653 5.691608,-5.3e-4 2.84441,-4.926856 -1.69141,-2.92779 -1.6901,2.92726 2.84618,4.927116 5.69092,2.7e-4 1.691,-2.92914 -3.38288,0.002 -2.84441,4.92685 2.84549,4.92791 3.38213,-2.6e-4 -1.69133,-2.92724 h -5.69107 l -2.8451,4.92764 1.69021,2.92829 1.6913,-2.92776 -2.84534,-4.92817 -5.691758,8e-4 -1.69033,2.92722 3.38221,-2.4e-4 2.8451,-4.92765 -2.84603,-4.92738 z"
       style="fill:none;stroke:#3465a4;stroke-width:0.26458300000000001px;stroke-linecap:butt;stroke-linejoin:miter;stroke-opacity:1;opacity:0.7" />
    <path
       inkscape:connector-curvature="0"
       id="path440"
       d="m 71.541515,108.58717 2.30878,1e-5 2.84603,4.92738 -1.154,1.99987 2.30878,10e-6 1.15462,1.99959 1.15431,-1.99959 h 5.691068 l 1.15462,1.99959 1.15431,-1.99959 2.30964,-1.4e-4 -1.15486,-2.00027 2.8451,-4.92764 2.30964,-1.4e-4 -1.15486,-2.00027 1.15477,-2.00041 -2.3094,2.7e-4 -2.84618,-4.927126 1.15477,-2.0004 -2.3094,2.6e-4 -1.15446,-1.99986 -1.15462,2.00013 -5.690918,-2.6e-4 -1.15446,-1.99986 -1.15462,2.00013 -2.30948,2.6e-4 1.1547,2.00014 -2.8451,4.927646 -2.30948,2.6e-4 1.1547,2.00014 z"
       style="fill:none;stroke:#3465a4;stroke-width:0.26458300000000001px;stroke-linecap:butt;stroke-linejoin:miter;stroke-opacity:1;opacity:0.7" />
    <path
       inkscape:connector-curvature="0"
       id="path442"
       d="m 75.004715,99.658794 1.99959,-1.15462 1e-5,-2.30878 1.99987,1.154 2.00014,-1.1547 2.6e-4,2.30948 3.999718,2.308926 0.001,4.61833 3.99972,2.30893 5.3e-4,4.61912 2.00013,1.15462 -1.99986,1.15446 2.6e-4,2.3094 -2.00041,-1.15477 -2.00027,1.15486 -1.4e-4,-2.30964 -3.999718,-2.30893 -5.3e-4,-4.61912 -4.00041,-2.30814 -5.3e-4,-4.61912 z"
       style="fill:none;stroke:#3465a4;stroke-width:0.26458300000000001px;stroke-linecap:butt;stroke-linejoin:miter;stroke-opacity:1;opacity:0.7" />
    <path
       style="fill:none;stroke:#3465a4;stroke-width:0.26458300000000001px;stroke-linecap:butt;stroke-linejoin:miter;stroke-opacity:1;opacity:0.7"
       d="m 85.004433,96.193944 1.99972,1.15439 1.99947,-1.15438 5.4e-4,2.30894 2.00007,1.15482 -1.99994,1.154956 2.7e-4,4.61833 -3.99909,2.31003 2.7e-4,4.61832 -4.000008,2.31002 1.3e-4,2.30948 -1.99972,-1.1547 -1.99987,1.15492 -1.4e-4,-2.30979 -2.00028,-1.15485 2.00014,-1.15495 -2.7e-4,-4.61832 4.00001,-2.31002 -0.001,-4.61853 4.000008,-2.310006 z"
       id="path444"
       inkscape:connector-curvature="0" />
    <path
       inkscape:connector-curvature="0"
       id="path446"
       d="m 93.004963,103.12176 1.3e-4,2.309 1.99946,1.1544 -1.99933,1.15494 -7e-5,2.30952 -2.00019,-1.15452 -3.99946,2.3094 -4.00009,-2.3083 -3.999448,2.3094 -4.00054,-2.3091 -2,1.15485 1.4e-4,-2.30916 -2.00013,-1.15448 2.00027,-1.15501 -1e-5,-2.30972 2.00029,1.1547 3.99944,-2.3094 4.000538,2.3091 3.99927,-2.31013 4.00053,2.30911 z"
       style="fill:none;stroke:#3465a4;stroke-width:0.26458300000000001px;stroke-linecap:butt;stroke-linejoin:miter;stroke-opacity:1;opacity:0.7" />
    <path
       inkscape:connector-curvature="0"
       id="path448"
       d="m 77.314005,106.58677 2.8451,-4.92764 h 5.691068 l 2.84603,4.92738 -2.8451,4.92765 -5.690918,-2.6e-4 z"
       style="fill:none;stroke:#3465a4;stroke-width:0.26458300000000001px;stroke-linecap:butt;stroke-linejoin:miter;stroke-opacity:1;opacity:0.7" />
    <path
       inkscape:connector-curvature="0"
       id="path450"
       d="m 93.004033,111.12155 3e-5,-1.07208 0.92872,0.53578 z"
       style="fill:none;stroke:#3465a4;stroke-width:0.26458300000000001px;stroke-linecap:butt;stroke-linejoin:miter;stroke-opacity:1;opacity:0.7" />
    <path
       style="fill:none;stroke:#3465a4;stroke-width:0.26458300000000001px;stroke-linecap:butt;stroke-linejoin:miter;stroke-opacity:1;opacity:0.7"
       d="m 91.933793,112.97737 -3e-5,1.07207 -0.92872,-0.53578 z"
       id="path452"
       inkscape:connector-curvature="0" />
    <path
       style="fill:none;stroke:#3465a4;stroke-width:0.26458300000000001px;stroke-linecap:butt;stroke-linejoin:miter;stroke-opacity:1;opacity:0.7"
       d="m 92.986213,103.15312 3e-5,-1.07208 0.92872,0.53578 z"
       id="path454"
       inkscape:connector-curvature="0" />
    <path
       inkscape:connector-curvature="0"
       id="path456"
       d="m 91.914533,99.153742 -3e-5,1.072068 -0.92872,-0.535778 z"
       style="fill:none;stroke:#3465a4;stroke-width:0.26458300000000001px;stroke-linecap:butt;stroke-linejoin:miter;stroke-opacity:1;opacity:0.7" />
    <path
       inkscape:connector-curvature="0"
       id="path716"
       d="m 110.84279,81.29758 -3e-5,-1.07207 -0.92872,0.53578 z"
       style="fill:none;stroke:#3465a4;stroke-width:0.26458300000000001px;stroke-linecap:butt;stroke-linejoin:miter;stroke-opacity:1;opacity:0.7" />
    <path
       style="fill:none;stroke:#3465a4;stroke-width:0.26458300000000001px;stroke-linecap:butt;stroke-linejoin:miter;stroke-opacity:1;opacity:0.7"
       d="m 112.8428,77.83343 -0.92846,-0.53601 -3.6e-4,1.07219 z"
       id="path718"
       inkscape:connector-curvature="0" />
    <path
       style="fill:none;stroke:#3465a4;stroke-width:0.26458300000000001px;stroke-linecap:butt;stroke-linejoin:miter;stroke-opacity:1;opacity:0.7"
       d="m 112.30661,89.68776 1.68971,-2.92653 5.69161,5.3e-4 2.84441,4.926858 -1.69141,2.92779 -1.6901,-2.92726 2.84618,-4.927118 5.69092,-2.7e-4 1.691,2.92914 -3.38288,-0.002 -2.84441,-4.92685 2.84549,-4.92791 3.38213,2.6e-4 -1.69133,2.92724 h -5.69107 l -2.8451,-4.92764 1.69021,-2.92829 1.6913,2.92776 -2.84534,4.92817 -5.69176,-8e-4 -1.69033,-2.92722 3.38221,2.4e-4 2.8451,4.92765 -2.84603,4.92738 z"
       id="path720"
       inkscape:connector-curvature="0" />
    <path
       style="fill:none;stroke:#3465a4;stroke-width:0.26458300000000001px;stroke-linecap:butt;stroke-linejoin:miter;stroke-opacity:1;opacity:0.7"
       d="m 109.37846,82.76069 2.30878,-1e-5 2.84603,-4.92738 -1.154,-1.99987 2.30878,-1e-5 1.15462,-1.99959 1.15431,1.99959 h 5.69107 l 1.15462,-1.99959 1.15431,1.99959 2.30964,1.4e-4 -1.15486,2.00027 2.8451,4.92764 2.30964,1.4e-4 -1.15486,2.00027 1.15477,2.00041 -2.3094,-2.7e-4 -2.84618,4.927128 1.15477,2.0004 -2.3094,-2.6e-4 -1.15446,1.99986 -1.15462,-2.00013 -5.69092,2.6e-4 -1.15446,1.99986 -1.15462,-2.00013 -2.30948,-2.6e-4 1.1547,-2.00014 -2.8451,-4.927648 -2.30948,-2.6e-4 1.1547,-2.00014 z"
       id="path722"
       inkscape:connector-curvature="0" />
    <path
       style="fill:none;stroke:#3465a4;stroke-width:0.26458300000000001px;stroke-linecap:butt;stroke-linejoin:miter;stroke-opacity:1;opacity:0.7"
       d="m 112.84166,91.689068 1.99959,1.15462 1e-5,2.30878 1.99987,-1.154 2.00014,1.1547 2.6e-4,-2.30948 3.99972,-2.308928 0.001,-4.61833 3.99972,-2.30893 5.3e-4,-4.61912 2.00013,-1.15462 -1.99986,-1.15446 2.6e-4,-2.3094 -2.00041,1.15477 -2.00027,-1.15486 -1.4e-4,2.30964 -3.99972,2.30893 -5.3e-4,4.61912 -4.00041,2.30814 -5.3e-4,4.61912 z"
       id="path724"
       inkscape:connector-curvature="0" />
    <path
       inkscape:connector-curvature="0"
       id="path726"
       d="m 122.84138,95.153918 1.99972,-1.15439 1.99947,1.15438 5.4e-4,-2.30894 2.00007,-1.15482 -1.99994,-1.154958 2.7e-4,-4.61833 -3.99909,-2.31003 2.7e-4,-4.61832 -4.00001,-2.31002 1.3e-4,-2.30948 -1.99972,1.1547 -1.99987,-1.15492 -1.4e-4,2.30979 -2.00028,1.15485 2.00014,1.15495 -2.7e-4,4.61832 4.00001,2.31002 -0.001,4.61853 4.00001,2.310008 z"
       style="fill:none;stroke:#3465a4;stroke-width:0.26458300000000001px;stroke-linecap:butt;stroke-linejoin:miter;stroke-opacity:1;opacity:0.7" />
    <path
       style="fill:none;stroke:#3465a4;stroke-width:0.26458300000000001px;stroke-linecap:butt;stroke-linejoin:miter;stroke-opacity:1;opacity:0.7"
       d="m 130.84191,88.2261 1.3e-4,-2.309 1.99946,-1.1544 -1.99933,-1.15494 -7e-5,-2.30952 -2.00019,1.15452 -3.99946,-2.3094 -4.00009,2.3083 -3.99945,-2.3094 -4.00054,2.3091 -2,-1.15485 1.4e-4,2.30916 -2.00013,1.15448 2.00027,1.15501 -1e-5,2.30972 2.00029,-1.1547 3.99944,2.3094 4.00054,-2.3091 3.99927,2.31013 4.00053,-2.30911 z"
       id="path728"
       inkscape:connector-curvature="0" />
    <path
       style="fill:none;stroke:#3465a4;stroke-width:0.26458300000000001px;stroke-linecap:butt;stroke-linejoin:miter;stroke-opacity:1;opacity:0.7"
       d="m 115.15095,84.76109 2.8451,4.92764 h 5.69107 l 2.84603,-4.92738 -2.8451,-4.92765 -5.69092,2.6e-4 z"
       id="path730"
       inkscape:connector-curvature="0" />
    <path
       style="fill:none;stroke:#3465a4;stroke-width:0.26458300000000001px;stroke-linecap:butt;stroke-linejoin:miter;stroke-opacity:1;opacity:0.7"
       d="m 122.84138,95.153918 1.99972,-1.15439 1.99947,1.15438 5.4e-4,-2.30894 2.00007,-1.15482 -1.99994,-1.154958 2.7e-4,-4.61833 -3.99909,-2.31003 2.7e-4,-4.61832 -4.00001,-2.31002 1.3e-4,-2.30948 -1.99972,1.1547 -1.99987,-1.15492 -1.4e-4,2.30979 -2.00028,1.15485 2.00014,1.15495 -2.7e-4,4.61832 4.00001,2.31002 -0.001,4.61853 4.00001,2.310008 z"
       id="path732"
       inkscape:connector-curvature="0" />
    <path
       inkscape:connector-curvature="0"
       id="path734"
       d="m 93.379472,78.7589 1.68971,-2.92653 5.691608,5.3e-4 2.84441,4.92686 -1.69141,2.92779 -1.6901,-2.92726 2.84618,-4.92712 5.69092,-2.7e-4 1.691,2.92914 -3.38288,-0.002 -2.84441,-4.92685 2.84549,-4.92791 3.38213,2.6e-4 -1.69133,2.92724 h -5.69107 l -2.8451,-4.92764 1.69021,-2.92829 1.6913,2.92776 -2.84534,4.92817 -5.691758,-8e-4 -1.69033,-2.92722 3.38221,2.4e-4 2.8451,4.92765 -2.84603,4.92738 z"
       style="fill:none;stroke:#3465a4;stroke-width:0.26458300000000001px;stroke-linecap:butt;stroke-linejoin:miter;stroke-opacity:1;opacity:0.7" />
    <path
       inkscape:connector-curvature="0"
       id="path736"
       d="m 90.451322,71.83183 2.30878,-1e-5 2.84603,-4.92738 -1.154,-1.99987 2.30878,-1e-5 1.15462,-1.99959 1.15431,1.99959 h 5.691068 l 1.15462,-1.99959 1.15431,1.99959 2.30964,1.4e-4 -1.15486,2.00027 2.8451,4.92764 2.30964,1.4e-4 -1.15486,2.00027 1.15477,2.00041 -2.3094,-2.7e-4 -2.84618,4.92713 1.15477,2.0004 -2.3094,-2.6e-4 -1.15446,1.99986 -1.15462,-2.00013 -5.690918,2.6e-4 -1.15446,1.99986 -1.15462,-2.00013 -2.30948,-2.6e-4 1.1547,-2.00014 -2.8451,-4.92765 -2.30948,-2.6e-4 1.1547,-2.00014 z"
       style="fill:none;stroke:#3465a4;stroke-width:0.26458300000000001px;stroke-linecap:butt;stroke-linejoin:miter;stroke-opacity:1;opacity:0.7" />
    <path
       inkscape:connector-curvature="0"
       id="path738"
       d="m 93.914522,80.76021 1.99959,1.15462 1e-5,2.30878 1.99987,-1.154 2.00014,1.1547 2.6e-4,-2.30948 3.999718,-2.30893 0.001,-4.61833 3.99972,-2.30893 5.3e-4,-4.61912 2.00013,-1.15462 -1.99986,-1.15446 2.6e-4,-2.3094 -2.00041,1.15477 -2.00027,-1.15486 -1.4e-4,2.30964 -3.999718,2.30893 -5.3e-4,4.61912 -4.00041,2.30814 -5.3e-4,4.61912 z"
       style="fill:none;stroke:#3465a4;stroke-width:0.26458300000000001px;stroke-linecap:butt;stroke-linejoin:miter;stroke-opacity:1;opacity:0.7" />
    <path
       style="fill:none;stroke:#3465a4;stroke-width:0.26458300000000001px;stroke-linecap:butt;stroke-linejoin:miter;stroke-opacity:1;opacity:0.7"
       d="m 103.91424,84.22506 1.99972,-1.15439 1.99947,1.15438 5.4e-4,-2.30894 2.00007,-1.15482 -1.99994,-1.15496 2.7e-4,-4.61833 -3.99909,-2.31003 2.7e-4,-4.61832 -4.000008,-2.31002 1.3e-4,-2.30948 -1.99972,1.1547 -1.99987,-1.15492 -1.4e-4,2.30979 -2.00028,1.15485 2.00014,1.15495 -2.7e-4,4.61832 4.00001,2.31002 -0.001,4.61853 4.000008,2.31001 z"
       id="path740"
       inkscape:connector-curvature="0" />
    <path
       inkscape:connector-curvature="0"
       id="path742"
       d="m 111.91477,77.29724 1.3e-4,-2.309 1.99946,-1.1544 -1.99933,-1.15494 -7e-5,-2.30952 -2.00019,1.15452 -3.99946,-2.3094 -4.00009,2.3083 -3.999448,-2.3094 -4.00054,2.3091 -2,-1.15485 1.4e-4,2.30916 -2.00013,1.15448 2.00027,1.15501 -1e-5,2.30972 2.00029,-1.1547 3.99944,2.3094 4.000538,-2.3091 3.99927,2.31013 4.00053,-2.30911 z"
       style="fill:none;stroke:#3465a4;stroke-width:0.26458300000000001px;stroke-linecap:butt;stroke-linejoin:miter;stroke-opacity:1;opacity:0.7" />
    <path
       inkscape:connector-curvature="0"
       id="path744"
       d="m 96.223812,73.83223 2.8451,4.92764 h 5.691068 l 2.84603,-4.92738 -2.8451,-4.92765 -5.690918,2.6e-4 z"
       style="fill:none;stroke:#3465a4;stroke-width:0.26458300000000001px;stroke-linecap:butt;stroke-linejoin:miter;stroke-opacity:1;opacity:0.7" />
    <path
       inkscape:connector-curvature="0"
       id="path746"
       d="m 111.91384,69.29745 3e-5,1.07208 0.92872,-0.53578 z"
       style="fill:none;stroke:#3465a4;stroke-width:0.26458300000000001px;stroke-linecap:butt;stroke-linejoin:miter;stroke-opacity:1;opacity:0.7" />
    <path
       style="fill:none;stroke:#3465a4;stroke-width:0.26458300000000001px;stroke-linecap:butt;stroke-linejoin:miter;stroke-opacity:1;opacity:0.7"
       d="m 110.8436,67.44163 -3e-5,-1.07207 -0.92872,0.53578 z"
       id="path748"
       inkscape:connector-curvature="0" />
    <path
       inkscape:connector-curvature="0"
       id="path750"
       d="m 74.469435,89.71661 1.68971,-2.92653 5.691608,5.3e-4 2.84441,4.926856 -1.69141,2.92779 -1.6901,-2.92726 2.84618,-4.927116 5.69092,-2.7e-4 1.691,2.92914 -3.38288,-0.002 -2.84441,-4.92685 2.84549,-4.92791 3.38213,2.6e-4 -1.69133,2.92724 h -5.69107 l -2.8451,-4.92764 1.69021,-2.92829 1.6913,2.92776 -2.84534,4.92817 -5.691758,-8e-4 -1.69033,-2.92722 3.38221,2.4e-4 2.8451,4.92765 -2.84603,4.92738 z"
       style="fill:none;stroke:#3465a4;stroke-width:0.26458300000000001px;stroke-linecap:butt;stroke-linejoin:miter;stroke-opacity:1;opacity:0.7" />
    <path
       inkscape:connector-curvature="0"
       id="path752"
       d="m 71.541285,82.78954 2.30878,-1e-5 2.84603,-4.92738 -1.154,-1.99987 2.30878,-1e-5 1.15462,-1.99959 1.15431,1.99959 h 5.691068 l 1.15462,-1.99959 1.15431,1.99959 2.30964,1.4e-4 -1.15486,2.00027 2.8451,4.92764 2.30964,1.4e-4 -1.15486,2.00027 1.15477,2.00041 -2.3094,-2.7e-4 -2.84618,4.927126 1.15477,2.0004 -2.3094,-2.6e-4 -1.15446,1.99986 -1.15462,-2.00013 -5.690918,2.6e-4 -1.15446,1.99986 -1.15462,-2.00013 -2.30948,-2.6e-4 1.1547,-2.00014 -2.8451,-4.927646 -2.30948,-2.6e-4 1.1547,-2.00014 z"
       style="fill:none;stroke:#3465a4;stroke-width:0.26458300000000001px;stroke-linecap:butt;stroke-linejoin:miter;stroke-opacity:1;opacity:0.7" />
    <path
       inkscape:connector-curvature="0"
       id="path754"
       d="m 75.004485,91.717916 1.99959,1.15462 1e-5,2.30878 1.99987,-1.154 2.00014,1.1547 2.6e-4,-2.30948 3.999718,-2.308926 10e-4,-4.61833 3.99972,-2.30893 5.3e-4,-4.61912 2.00013,-1.15462 -1.99986,-1.15446 2.6e-4,-2.3094 -2.00041,1.15477 -2.00027,-1.15486 -1.4e-4,2.30964 -3.999718,2.30893 -5.3e-4,4.61912 -4.00041,2.30814 -5.3e-4,4.61912 z"
       style="fill:none;stroke:#3465a4;stroke-width:0.26458300000000001px;stroke-linecap:butt;stroke-linejoin:miter;stroke-opacity:1;opacity:0.7" />
    <path
       style="fill:none;stroke:#3465a4;stroke-width:0.26458300000000001px;stroke-linecap:butt;stroke-linejoin:miter;stroke-opacity:1;opacity:0.7"
       d="m 85.004203,95.182766 1.99972,-1.15439 1.99947,1.15438 5.4e-4,-2.30894 2.00007,-1.15482 -1.99994,-1.154956 2.7e-4,-4.61833 -3.99909,-2.31003 2.7e-4,-4.61832 -4.000008,-2.31002 1.3e-4,-2.30948 -1.99972,1.1547 -1.99987,-1.15492 -1.4e-4,2.30979 -2.00028,1.15485 2.00014,1.15495 -2.7e-4,4.61832 4.00001,2.31002 -0.001,4.61853 4.000008,2.310006 z"
       id="path756"
       inkscape:connector-curvature="0" />
    <path
       inkscape:connector-curvature="0"
       id="path758"
       d="m 93.004733,88.25495 1.3e-4,-2.309 1.99946,-1.1544 -1.99933,-1.15494 -7e-5,-2.30952 -2.00019,1.15452 -3.99946,-2.3094 -4.00009,2.3083 -3.999448,-2.3094 -4.00054,2.3091 -2,-1.15485 1.4e-4,2.30916 -2.00013,1.15448 2.00027,1.15501 -1e-5,2.30972 2.00029,-1.1547 3.99944,2.3094 4.000538,-2.3091 3.99927,2.31013 4.00053,-2.30911 z"
       style="fill:none;stroke:#3465a4;stroke-width:0.26458300000000001px;stroke-linecap:butt;stroke-linejoin:miter;stroke-opacity:1;opacity:0.7" />
    <path
       inkscape:connector-curvature="0"
       id="path760"
       d="m 77.313775,84.78994 2.8451,4.92764 h 5.691068 l 2.84603,-4.92738 -2.8451,-4.92765 -5.690918,2.6e-4 z"
       style="fill:none;stroke:#3465a4;stroke-width:0.26458300000000001px;stroke-linecap:butt;stroke-linejoin:miter;stroke-opacity:1;opacity:0.7" />
    <path
       inkscape:connector-curvature="0"
       id="path762"
       d="m 93.003803,80.25516 3e-5,1.07208 0.92872,-0.53578 z"
       style="fill:none;stroke:#3465a4;stroke-width:0.26458300000000001px;stroke-linecap:butt;stroke-linejoin:miter;stroke-opacity:1;opacity:0.7" />
    <path
       style="fill:none;stroke:#3465a4;stroke-width:0.26458300000000001px;stroke-linecap:butt;stroke-linejoin:miter;stroke-opacity:1;opacity:0.7"
       d="m 91.933563,78.39934 -3e-5,-1.07207 -0.92872,0.53578 z"
       id="path764"
       inkscape:connector-curvature="0" />
    <path
       style="fill:none;stroke:#3465a4;stroke-width:0.26458300000000001px;stroke-linecap:butt;stroke-linejoin:miter;stroke-opacity:1;opacity:0.7"
       d="m 92.985983,88.22359 3e-5,1.07208 0.92872,-0.53578 z"
       id="path766"
       inkscape:connector-curvature="0" />
    <path
       inkscape:connector-curvature="0"
       id="path768"
       d="m 91.914303,92.222968 -3e-5,-1.072068 -0.92872,0.535778 z"
       style="fill:none;stroke:#3465a4;stroke-width:0.26458300000000001px;stroke-linecap:butt;stroke-linejoin:miter;stroke-opacity:1;opacity:0.7" />
    <path
       inkscape:connector-curvature="0"
       id="path770"
       d="m 112.30661,89.68776 1.68971,-2.92653 5.69161,5.3e-4 2.84441,4.926858 -1.69141,2.92779 -1.6901,-2.92726 2.84618,-4.927118 5.69092,-2.7e-4 1.691,2.92914 -3.38288,-0.002 -2.84441,-4.92685 2.84549,-4.92791 3.38213,2.6e-4 -1.69133,2.92724 h -5.69107 l -2.8451,-4.92764 1.69021,-2.92829 1.6913,2.92776 -2.84534,4.92817 -5.69176,-8e-4 -1.69033,-2.92722 3.38221,2.4e-4 2.8451,4.92765 -2.84603,4.92738 z"
       style="fill:none;stroke:#3465a4;stroke-width:0.26458300000000001px;stroke-linecap:butt;stroke-linejoin:miter;stroke-opacity:1;opacity:0.7" />
    <path
       inkscape:connector-curvature="0"
       id="path772"
       d="m 109.37846,82.76069 2.30878,-1e-5 2.84603,-4.92738 -1.154,-1.99987 2.30878,-1e-5 1.15462,-1.99959 1.15431,1.99959 h 5.69107 l 1.15462,-1.99959 1.15431,1.99959 2.30964,1.4e-4 -1.15486,2.00027 2.8451,4.92764 2.30964,1.4e-4 -1.15486,2.00027 1.15477,2.00041 -2.3094,-2.7e-4 -2.84618,4.927128 1.15477,2.0004 -2.3094,-2.6e-4 -1.15446,1.99986 -1.15462,-2.00013 -5.69092,2.6e-4 -1.15446,1.99986 -1.15462,-2.00013 -2.30948,-2.6e-4 1.1547,-2.00014 -2.8451,-4.927648 -2.30948,-2.6e-4 1.1547,-2.00014 z"
       style="fill:none;stroke:#3465a4;stroke-width:0.26458300000000001px;stroke-linecap:butt;stroke-linejoin:miter;stroke-opacity:1;opacity:0.7" />
    <path
       inkscape:connector-curvature="0"
       id="path774"
       d="m 112.84166,91.689068 1.99959,1.15462 1e-5,2.30878 1.99987,-1.154 2.00014,1.1547 2.6e-4,-2.30948 3.99972,-2.308928 0.001,-4.61833 3.99972,-2.30893 5.3e-4,-4.61912 2.00013,-1.15462 -1.99986,-1.15446 2.6e-4,-2.3094 -2.00041,1.15477 -2.00027,-1.15486 -1.4e-4,2.30964 -3.99972,2.30893 -5.3e-4,4.61912 -4.00041,2.30814 -5.3e-4,4.61912 z"
       style="fill:none;stroke:#3465a4;stroke-width:0.26458300000000001px;stroke-linecap:butt;stroke-linejoin:miter;stroke-opacity:1;opacity:0.7" />
    <path
       style="fill:none;stroke:#3465a4;stroke-width:0.26458300000000001px;stroke-linecap:butt;stroke-linejoin:miter;stroke-opacity:1;opacity:0.7"
       d="m 122.84138,95.153918 1.99972,-1.15439 1.99947,1.15438 5.4e-4,-2.30894 2.00007,-1.15482 -1.99994,-1.154958 2.7e-4,-4.61833 -3.99909,-2.31003 2.7e-4,-4.61832 -4.00001,-2.31002 1.3e-4,-2.30948 -1.99972,1.1547 -1.99987,-1.15492 -1.4e-4,2.30979 -2.00028,1.15485 2.00014,1.15495 -2.7e-4,4.61832 4.00001,2.31002 -0.001,4.61853 4.00001,2.310008 z"
       id="path776"
       inkscape:connector-curvature="0" />
    <path
       inkscape:connector-curvature="0"
       id="path778"
       d="m 130.84191,88.2261 1.3e-4,-2.309 1.99946,-1.1544 -1.99933,-1.15494 -7e-5,-2.30952 -2.00019,1.15452 -3.99946,-2.3094 -4.00009,2.3083 -3.99945,-2.3094 -4.00054,2.3091 -2,-1.15485 1.4e-4,2.30916 -2.00013,1.15448 2.00027,1.15501 -1e-5,2.30972 2.00029,-1.1547 3.99944,2.3094 4.00054,-2.3091 3.99927,2.31013 4.00053,-2.30911 z"
       style="fill:none;stroke:#3465a4;stroke-width:0.26458300000000001px;stroke-linecap:butt;stroke-linejoin:miter;stroke-opacity:1;opacity:0.7" />
    <path
       inkscape:connector-curvature="0"
       id="path780"
       d="m 115.15095,84.76109 2.8451,4.92764 h 5.69107 l 2.84603,-4.92738 -2.8451,-4.92765 -5.69092,2.6e-4 z"
       style="fill:none;stroke:#3465a4;stroke-width:0.26458300000000001px;stroke-linecap:butt;stroke-linejoin:miter;stroke-opacity:1;opacity:0.7" />
    <path
       inkscape:connector-curvature="0"
       id="path782"
       d="m 122.84138,95.153918 1.99972,-1.15439 1.99947,1.15438 5.4e-4,-2.30894 2.00007,-1.15482 -1.99994,-1.154958 2.7e-4,-4.61833 -3.99909,-2.31003 2.7e-4,-4.61832 -4.00001,-2.31002 1.3e-4,-2.30948 -1.99972,1.1547 -1.99987,-1.15492 -1.4e-4,2.30979 -2.00028,1.15485 2.00014,1.15495 -2.7e-4,4.61832 4.00001,2.31002 -0.001,4.61853 4.00001,2.310008 z"
       style="fill:none;stroke:#3465a4;stroke-width:0.26458300000000001px;stroke-linecap:butt;stroke-linejoin:miter;stroke-opacity:1;opacity:0.7" />
    <path
       style="fill:none;stroke:#3465a4;stroke-width:0.26458300000000001px;stroke-linecap:butt;stroke-linejoin:miter;stroke-opacity:1;opacity:0.7"
       d="m 93.379472,78.7589 1.68971,-2.92653 5.691608,5.3e-4 2.84441,4.92686 -1.69141,2.92779 -1.6901,-2.92726 2.84618,-4.92712 5.69092,-2.7e-4 1.691,2.92914 -3.38288,-0.002 -2.84441,-4.92685 2.84549,-4.92791 3.38213,2.6e-4 -1.69133,2.92724 h -5.69107 l -2.8451,-4.92764 1.69021,-2.92829 1.6913,2.92776 -2.84534,4.92817 -5.691758,-8e-4 -1.69033,-2.92722 3.38221,2.4e-4 2.8451,4.92765 -2.84603,4.92738 z"
       id="path784"
       inkscape:connector-curvature="0" />
    <path
       style="fill:none;stroke:#3465a4;stroke-width:0.26458300000000001px;stroke-linecap:butt;stroke-linejoin:miter;stroke-opacity:1;opacity:0.7"
       d="m 90.451322,71.83183 2.30878,-1e-5 2.84603,-4.92738 -1.154,-1.99987 2.30878,-1e-5 1.15462,-1.99959 1.15431,1.99959 h 5.691068 l 1.15462,-1.99959 1.15431,1.99959 2.30964,1.4e-4 -1.15486,2.00027 2.8451,4.92764 2.30964,1.4e-4 -1.15486,2.00027 1.15477,2.00041 -2.3094,-2.7e-4 -2.84618,4.92713 1.15477,2.0004 -2.3094,-2.6e-4 -1.15446,1.99986 -1.15462,-2.00013 -5.690918,2.6e-4 -1.15446,1.99986 -1.15462,-2.00013 -2.30948,-2.6e-4 1.1547,-2.00014 -2.8451,-4.92765 -2.30948,-2.6e-4 1.1547,-2.00014 z"
       id="path786"
       inkscape:connector-curvature="0" />
    <path
       style="fill:none;stroke:#3465a4;stroke-width:0.26458300000000001px;stroke-linecap:butt;stroke-linejoin:miter;stroke-opacity:1;opacity:0.7"
       d="m 93.914522,80.76021 1.99959,1.15462 1e-5,2.30878 1.99987,-1.154 2.00014,1.1547 2.6e-4,-2.30948 3.999718,-2.30893 0.001,-4.61833 3.99972,-2.30893 5.3e-4,-4.61912 2.00013,-1.15462 -1.99986,-1.15446 2.6e-4,-2.3094 -2.00041,1.15477 -2.00027,-1.15486 -1.4e-4,2.30964 -3.999718,2.30893 -5.3e-4,4.61912 -4.00041,2.30814 -5.3e-4,4.61912 z"
       id="path788"
       inkscape:connector-curvature="0" />
    <path
       inkscape:connector-curvature="0"
       id="path790"
       d="m 103.91424,84.22506 1.99972,-1.15439 1.99947,1.15438 5.4e-4,-2.30894 2.00007,-1.15482 -1.99994,-1.15496 2.7e-4,-4.61833 -3.99909,-2.31003 2.7e-4,-4.61832 -4.000008,-2.31002 1.3e-4,-2.30948 -1.99972,1.1547 -1.99987,-1.15492 -1.4e-4,2.30979 -2.00028,1.15485 2.00014,1.15495 -2.7e-4,4.61832 4.00001,2.31002 -0.001,4.61853 4.000008,2.31001 z"
       style="fill:none;stroke:#3465a4;stroke-width:0.26458300000000001px;stroke-linecap:butt;stroke-linejoin:miter;stroke-opacity:1;opacity:0.7" />
    <path
       style="fill:none;stroke:#3465a4;stroke-width:0.26458300000000001px;stroke-linecap:butt;stroke-linejoin:miter;stroke-opacity:1;opacity:0.7"
       d="m 111.91477,77.29724 1.3e-4,-2.309 1.99946,-1.1544 -1.99933,-1.15494 -7e-5,-2.30952 -2.00019,1.15452 -3.99946,-2.3094 -4.00009,2.3083 -3.999448,-2.3094 -4.00054,2.3091 -2,-1.15485 1.4e-4,2.30916 -2.00013,1.15448 2.00027,1.15501 -1e-5,2.30972 2.00029,-1.1547 3.99944,2.3094 4.000538,-2.3091 3.99927,2.31013 4.00053,-2.30911 z"
       id="path792"
       inkscape:connector-curvature="0" />
    <path
       style="fill:none;stroke:#3465a4;stroke-width:0.26458300000000001px;stroke-linecap:butt;stroke-linejoin:miter;stroke-opacity:1;opacity:0.7"
       d="m 96.223812,73.83223 2.8451,4.92764 h 5.691068 l 2.84603,-4.92738 -2.8451,-4.92765 -5.690918,2.6e-4 z"
       id="path794"
       inkscape:connector-curvature="0" />
    <path
       style="fill:none;stroke:#3465a4;stroke-width:0.26458300000000001px;stroke-linecap:butt;stroke-linejoin:miter;stroke-opacity:1;opacity:0.7"
       d="m 111.91384,69.29745 3e-5,1.07208 0.92872,-0.53578 z"
       id="path796"
       inkscape:connector-curvature="0" />
    <path
       inkscape:connector-curvature="0"
       id="path798"
       d="m 110.8436,67.44163 -3e-5,-1.07207 -0.92872,0.53578 z"
       style="fill:none;stroke:#3465a4;stroke-width:0.26458300000000001px;stroke-linecap:butt;stroke-linejoin:miter;stroke-opacity:1;opacity:0.7" />
    <path
       style="fill:none;stroke:#3465a4;stroke-width:0.26458300000000001px;stroke-linecap:butt;stroke-linejoin:miter;stroke-opacity:1;opacity:0.7"
       d="m 74.469435,89.71661 1.68971,-2.92653 5.691608,5.3e-4 2.84441,4.926856 -1.69141,2.92779 -1.6901,-2.92726 2.84618,-4.927116 5.69092,-2.7e-4 1.691,2.92914 -3.38288,-0.002 -2.84441,-4.92685 2.84549,-4.92791 3.38213,2.6e-4 -1.69133,2.92724 h -5.69107 l -2.8451,-4.92764 1.69021,-2.92829 1.6913,2.92776 -2.84534,4.92817 -5.691758,-8e-4 -1.69033,-2.92722 3.38221,2.4e-4 2.8451,4.92765 -2.84603,4.92738 z"
       id="path800"
       inkscape:connector-curvature="0" />
    <path
       style="fill:none;stroke:#3465a4;stroke-width:0.26458300000000001px;stroke-linecap:butt;stroke-linejoin:miter;stroke-opacity:1;opacity:0.7"
       d="m 71.541285,82.78954 2.30878,-1e-5 2.84603,-4.92738 -1.154,-1.99987 2.30878,-1e-5 1.15462,-1.99959 1.15431,1.99959 h 5.691068 l 1.15462,-1.99959 1.15431,1.99959 2.30964,1.4e-4 -1.15486,2.00027 2.8451,4.92764 2.30964,1.4e-4 -1.15486,2.00027 1.15477,2.00041 -2.3094,-2.7e-4 -2.84618,4.927126 1.15477,2.0004 -2.3094,-2.6e-4 -1.15446,1.99986 -1.15462,-2.00013 -5.690918,2.6e-4 -1.15446,1.99986 -1.15462,-2.00013 -2.30948,-2.6e-4 1.1547,-2.00014 -2.8451,-4.927646 -2.30948,-2.6e-4 1.1547,-2.00014 z"
       id="path802"
       inkscape:connector-curvature="0" />
    <path
       style="fill:none;stroke:#3465a4;stroke-width:0.26458300000000001px;stroke-linecap:butt;stroke-linejoin:miter;stroke-opacity:1;opacity:0.7"
       d="m 75.004485,91.717916 1.99959,1.15462 1e-5,2.30878 1.99987,-1.154 2.00014,1.1547 2.6e-4,-2.30948 3.999718,-2.308926 10e-4,-4.61833 3.99972,-2.30893 5.3e-4,-4.61912 2.00013,-1.15462 -1.99986,-1.15446 2.6e-4,-2.3094 -2.00041,1.15477 -2.00027,-1.15486 -1.4e-4,2.30964 -3.999718,2.30893 -5.3e-4,4.61912 -4.00041,2.30814 -5.3e-4,4.61912 z"
       id="path804"
       inkscape:connector-curvature="0" />
    <path
       inkscape:connector-curvature="0"
       id="path806"
       d="m 85.004203,95.182766 1.99972,-1.15439 1.99947,1.15438 5.4e-4,-2.30894 2.00007,-1.15482 -1.99994,-1.154956 2.7e-4,-4.61833 -3.99909,-2.31003 2.7e-4,-4.61832 -4.000008,-2.31002 1.3e-4,-2.30948 -1.99972,1.1547 -1.99987,-1.15492 -1.4e-4,2.30979 -2.00028,1.15485 2.00014,1.15495 -2.7e-4,4.61832 4.00001,2.31002 -0.001,4.61853 4.000008,2.310006 z"
       style="fill:none;stroke:#3465a4;stroke-width:0.26458300000000001px;stroke-linecap:butt;stroke-linejoin:miter;stroke-opacity:1;opacity:0.7" />
    <path
       style="fill:none;stroke:#3465a4;stroke-width:0.26458300000000001px;stroke-linecap:butt;stroke-linejoin:miter;stroke-opacity:1;opacity:0.7"
       d="m 93.004733,88.25495 1.3e-4,-2.309 1.99946,-1.1544 -1.99933,-1.15494 -7e-5,-2.30952 -2.00019,1.15452 -3.99946,-2.3094 -4.00009,2.3083 -3.999448,-2.3094 -4.00054,2.3091 -2,-1.15485 1.4e-4,2.30916 -2.00013,1.15448 2.00027,1.15501 -1e-5,2.30972 2.00029,-1.1547 3.99944,2.3094 4.000538,-2.3091 3.99927,2.31013 4.00053,-2.30911 z"
       id="path808"
       inkscape:connector-curvature="0" />
    <path
       style="fill:none;stroke:#3465a4;stroke-width:0.26458300000000001px;stroke-linecap:butt;stroke-linejoin:miter;stroke-opacity:1;opacity:0.7"
       d="m 77.313775,84.78994 2.8451,4.92764 h 5.691068 l 2.84603,-4.92738 -2.8451,-4.92765 -5.690918,2.6e-4 z"
       id="path810"
       inkscape:connector-curvature="0" />
    <path
       style="fill:none;stroke:#3465a4;stroke-width:0.26458300000000001px;stroke-linecap:butt;stroke-linejoin:miter;stroke-opacity:1;opacity:0.7"
       d="m 93.003803,80.25516 3e-5,1.07208 0.92872,-0.53578 z"
       id="path812"
       inkscape:connector-curvature="0" />
    <path
       inkscape:connector-curvature="0"
       id="path814"
       d="m 91.933563,78.39934 -3e-5,-1.07207 -0.92872,0.53578 z"
       style="fill:none;stroke:#3465a4;stroke-width:0.26458300000000001px;stroke-linecap:butt;stroke-linejoin:miter;stroke-opacity:1;opacity:0.7" />
    <path
       inkscape:connector-curvature="0"
       id="path816"
       d="m 92.985983,88.22359 3e-5,1.07208 0.92872,-0.53578 z"
       style="fill:none;stroke:#3465a4;stroke-width:0.26458300000000001px;stroke-linecap:butt;stroke-linejoin:miter;stroke-opacity:1;opacity:0.7" />
    <path
       style="fill:none;stroke:#3465a4;stroke-width:0.26458300000000001px;stroke-linecap:butt;stroke-linejoin:miter;stroke-opacity:1;opacity:0.7"
       d="m 91.914303,92.222968 -3e-5,-1.072068 -0.92872,0.535778 z"
       id="path818"
       inkscape:connector-curvature="0" />
    <path
       inkscape:connector-curvature="0"
       id="path30034"
       d="m 119.76505,95.683662 -2.92586,1.69478 -4.9309,-2.83147 -0.009,-3.38114 2.93021,1.68264 0.0158,5.69191 -2.92519,1.696698 -0.007,-3.381618 4.91816,-2.85773 z"
       style="fill:#e9b96e;stroke:#000000;stroke-width:0.26458300000000001px;stroke-linecap:butt;stroke-linejoin:miter;stroke-opacity:1;opacity:0.7" />
    <path
       inkscape:connector-curvature="0"
       id="path30123"
       d="m 110.81886,80.217574 -2.92183,1.701693 0.0162,5.686015 2.93242,1.683179 -0.01,-3.378952 -4.93623,-2.834026 -2.92319,1.700164 2.9339,1.681554 4.91917,-2.856006 z"
       style="fill:#00ff00;stroke:#000000;stroke-width:0.26458300000000001px;stroke-linecap:butt;stroke-linejoin:miter;stroke-opacity:1;opacity:0.7" />
    <path
       style="fill:#00ff00;stroke:#000000;stroke-width:0.26458300000000001px;stroke-linecap:butt;stroke-linejoin:miter;stroke-opacity:1;opacity:0.7"
       d="m 110.82596,102.0791 -2.92183,1.70169 0.0162,5.68602 2.93241,1.68318 -0.01,-3.37895 -4.93623,-2.83403 -2.92319,1.70016 2.9339,1.68156 4.91917,-2.85601 z"
       id="path30137"
       inkscape:connector-curvature="0" />
    <path
       style="fill:#e9b96e;stroke:#000000;stroke-width:0.26458300000000001px;stroke-linecap:butt;stroke-linejoin:miter;stroke-opacity:1;opacity:0.7"
       d="m 100.84774,84.755544 -2.925844,1.694775 -4.930906,-2.831465 -0.0091,-3.381136 2.930215,1.682631 0.01582,5.691911 -2.925192,1.696705 -0.0069,-3.38162 4.918159,-2.857735 z"
       id="path30157"
       inkscape:connector-curvature="0" />
    <path
       style="fill:#00ff00;stroke:#000000;stroke-width:0.26458300000000001px;stroke-linecap:butt;stroke-linejoin:miter;stroke-opacity:1;opacity:0.7"
       d="m 84.064998,95.681673 2.92586,1.69478 4.9309,-2.83147 0.009,-3.38114 -2.93021,1.68264 -0.0158,5.69191 2.92519,1.696707 0.007,-3.381627 -4.91816,-2.85773 z"
       id="path35642"
       inkscape:connector-curvature="0" />
    <path
       inkscape:connector-curvature="0"
       id="path35644"
       d="m 93.005482,102.06747 2.92183,1.70169 -0.0162,5.68602 -2.93241,1.68318 0.01,-3.37895 4.93623,-2.83403 2.923188,1.70016 -2.933898,1.68156 -4.91917,-2.85601 z"
       style="opacity:0.7;fill:#e9b96e;stroke:#000000;stroke-width:0.264583px;stroke-linecap:butt;stroke-linejoin:miter;stroke-opacity:1" />
  </g>
</svg>
