<?xml version="1.0" encoding="UTF-8" standalone="no"?>
<svg
   xmlns:dc="http://purl.org/dc/elements/1.1/"
   xmlns:cc="http://creativecommons.org/ns#"
   xmlns:rdf="http://www.w3.org/1999/02/22-rdf-syntax-ns#"
   xmlns:svg="http://www.w3.org/2000/svg"
   xmlns="http://www.w3.org/2000/svg"
   xmlns:sodipodi="http://sodipodi.sourceforge.net/DTD/sodipodi-0.dtd"
   xmlns:inkscape="http://www.inkscape.org/namespaces/inkscape"
   sodipodi:docname="drawing.svg"
   inkscape:version="1.0beta2 (235953b, 2020-02-06)"
   id="svg106751"
   version="1.1"
   viewBox="0 0 210 297"
   height="297mm"
   width="210mm">
  <defs
     id="defs106745" />
  <sodipodi:namedview
     inkscape:window-maximized="1"
     inkscape:window-y="-8"
     inkscape:window-x="-8"
     inkscape:window-height="1057"
     inkscape:window-width="1848"
     showgrid="false"
     inkscape:document-rotation="0"
     inkscape:current-layer="layer1"
     inkscape:document-units="mm"
     inkscape:cy="615.33698"
     inkscape:cx="425.3906"
     inkscape:zoom="1.979899"
     inkscape:pageshadow="2"
     inkscape:pageopacity="0.0"
     borderopacity="1.0"
     bordercolor="#666666"
     pagecolor="#ffffff"
     id="base" />
  <metadata
     id="metadata106748">
    <rdf:RDF>
      <cc:Work
         rdf:about="">
        <dc:format>image/svg+xml</dc:format>
        <dc:type
           rdf:resource="http://purl.org/dc/dcmitype/StillImage" />
        <dc:title />
      </cc:Work>
    </rdf:RDF>
  </metadata>
  <g
     id="layer1"
     inkscape:groupmode="layer"
     inkscape:label="Layer 1">
    <path
       style="fill:#0000ff;stroke:none;stroke-width:0.264583px;stroke-linecap:butt;stroke-linejoin:miter;stroke-opacity:1"
       d="m 132.98368,63.331279 -3.68473,12.749041 -12.88225,-3.184091 9.20796,9.566906 -9.20797,9.562994 12.88168,-3.194764 3.6853,12.759715 3.67759,-12.761777 12.88939,3.196831 -9.20418,-9.56804 9.20419,-9.561864 -12.88548,3.184252 z"
       id="path106536"
       inkscape:connector-curvature="0" />
    <path
       inkscape:connector-curvature="0"
       id="path106540"
       d="m 99.849721,82.461173 3.677579,-12.761781 12.8894,3.196831 9.20797,9.566905 -9.20797,9.562998 -12.88548,3.184252 z"
       style="fill:#888a85;stroke:none;stroke-width:0.264583px;stroke-linecap:butt;stroke-linejoin:miter;stroke-opacity:1" />
    <path
       inkscape:connector-curvature="0"
       id="path106553"
       d="m 149.55065,92.026135 -9.21323,-9.565772 9.21323,-9.564129 12.88917,-3.19088 3.67781,12.755832 -3.68509,12.751277 z"
       style="fill:#888a85;stroke:none;stroke-width:0.264583px;stroke-linecap:butt;stroke-linejoin:miter;stroke-opacity:1" />
    <path
       inkscape:connector-curvature="0"
       id="path106563"
       d="m 66.715744,63.331278 -3.684725,12.74904 -12.882256,-3.184091 9.207966,9.566906 -9.207974,9.562994 12.881687,-3.194764 3.685297,12.759717 3.677592,-12.761779 12.889386,3.196831 -9.204174,-9.56804 9.204182,-9.561864 -12.885476,3.184252 z"
       style="fill:#0000ff;stroke:none;stroke-width:0.264583px;stroke-linecap:butt;stroke-linejoin:miter;stroke-opacity:1" />
    <path
       style="fill:#888a85;stroke:none;stroke-width:0.264583px;stroke-linecap:butt;stroke-linejoin:miter;stroke-opacity:1"
       d="m 83.282724,92.026128 -9.213234,-9.565772 9.213235,-9.564129 12.889166,-3.19088 3.677816,12.755832 -3.685095,12.751277 z"
       id="path106565"
       inkscape:connector-curvature="0" />
    <path
       style="fill:#888a85;stroke:none;stroke-width:0.264583px;stroke-linecap:butt;stroke-linejoin:miter;stroke-opacity:1"
       d="m 132.98368,101.59108 3.67759,-12.761778 12.88939,3.196831 9.20797,9.566907 -9.20797,9.563 -12.88548,3.18425 z"
       id="path106542"
       inkscape:connector-curvature="0" />
    <path
       style="fill:#888a85;stroke:none;stroke-width:0.264583px;stroke-linecap:butt;stroke-linejoin:miter;stroke-opacity:1"
       d="m 116.4167,111.15602 -9.21323,-9.56577 9.21323,-9.564129 12.88917,-3.19088 3.67781,12.755829 -3.68509,12.75128 z"
       id="path106551"
       inkscape:connector-curvature="0" />
    <path
       inkscape:connector-curvature="0"
       id="path106567"
       d="m 99.84935,82.463415 -3.684725,12.749041 -12.882257,-3.184091 9.207967,9.566905 -9.207975,9.563 12.881687,-3.19477 3.685297,12.75972 3.677596,-12.76178 12.88938,3.19683 -9.20417,-9.56804 9.20418,-9.561864 -12.88548,3.184252 z"
       style="fill:#0000ff;stroke:none;stroke-width:0.264583px;stroke-linecap:butt;stroke-linejoin:miter;stroke-opacity:1" />
    <path
       style="fill:#0000ff;stroke:none;stroke-width:0.264583px;stroke-linecap:butt;stroke-linejoin:miter;stroke-opacity:1"
       d="m 166.11764,82.461185 -3.68472,12.749041 -12.88226,-3.184091 9.20797,9.566905 -9.20798,9.563 12.88169,-3.19477 3.6853,12.75972 3.67759,-12.76178 12.88938,3.19683 -9.20417,-9.56804 9.20418,-9.561864 -12.88547,3.184252 z"
       id="path106569"
       inkscape:connector-curvature="0" />
    <path
       inkscape:connector-curvature="0"
       id="path106571"
       d="m 66.715757,101.59108 3.677584,-12.761779 12.889396,3.196831 9.207966,9.566908 -9.207966,9.563 -12.885478,3.18425 z"
       style="fill:#888a85;stroke:none;stroke-width:0.264583px;stroke-linecap:butt;stroke-linejoin:miter;stroke-opacity:1" />
    <path
       inkscape:connector-curvature="0"
       id="path106635"
       d="m 132.98368,101.59109 -3.68472,12.74904 -12.88226,-3.18409 9.20797,9.5669 -9.20798,9.563 12.88169,-3.19477 3.6853,12.75972 3.67759,-12.76178 12.88938,3.19683 -9.20417,-9.56804 9.20418,-9.56186 -12.88547,3.18425 z"
       style="fill:#0000ff;stroke:none;stroke-width:0.264583px;stroke-linecap:butt;stroke-linejoin:miter;stroke-opacity:1" />
    <path
       style="fill:#888a85;stroke:none;stroke-width:0.264583px;stroke-linecap:butt;stroke-linejoin:miter;stroke-opacity:1"
       d="m 99.849727,120.72098 3.677583,-12.76178 12.8894,3.19683 9.20796,9.5669 -9.20796,9.563 -12.88548,3.18425 z"
       id="path106637"
       inkscape:connector-curvature="0" />
    <path
       style="fill:#888a85;stroke:none;stroke-width:0.264583px;stroke-linecap:butt;stroke-linejoin:miter;stroke-opacity:1"
       d="m 149.55066,130.28594 -9.21324,-9.56577 9.21324,-9.56413 12.88916,-3.19088 3.67782,12.75583 -3.6851,12.75128 z"
       id="path106639"
       inkscape:connector-curvature="0" />
    <path
       style="fill:#0000ff;stroke:none;stroke-width:0.264583px;stroke-linecap:butt;stroke-linejoin:miter;stroke-opacity:1"
       d="m 66.71575,101.59108 -3.684725,12.74905 -12.882256,-3.1841 9.207966,9.56691 -9.207974,9.56299 12.881687,-3.19476 3.685297,12.75972 3.677592,-12.76178 12.889386,3.19683 -9.204174,-9.56804 9.204182,-9.56187 -12.885476,3.18426 z"
       id="path106641"
       inkscape:connector-curvature="0" />
    <path
       inkscape:connector-curvature="0"
       id="path106643"
       d="m 83.28273,130.28593 -9.213234,-9.56577 9.213235,-9.56413 12.889166,-3.19088 3.677816,12.75584 -3.685095,12.75127 z"
       style="fill:#888a85;stroke:none;stroke-width:0.264583px;stroke-linecap:butt;stroke-linejoin:miter;stroke-opacity:1" />
    <path
       style="fill:#0000ff;stroke:none;stroke-width:0.264583px;stroke-linecap:butt;stroke-linejoin:miter;stroke-opacity:1"
       d="m 132.98368,139.8509 -3.68472,12.74904 -12.88226,-3.18409 9.20797,9.5669 -9.20798,9.563 12.88169,-3.19477 3.6853,12.75972 3.67759,-12.76178 12.88938,3.19683 -9.20417,-9.56804 9.20418,-9.56186 -12.88547,3.18425 z"
       id="path106647"
       inkscape:connector-curvature="0" />
    <path
       inkscape:connector-curvature="0"
       id="path106649"
       d="m 99.849727,158.98079 3.677583,-12.76178 12.8894,3.19683 9.20796,9.56691 -9.20796,9.56299 -12.88548,3.18425 z"
       style="fill:#888a85;stroke:none;stroke-width:0.264583px;stroke-linecap:butt;stroke-linejoin:miter;stroke-opacity:1" />
    <path
       inkscape:connector-curvature="0"
       id="path106651"
       d="m 149.55066,168.54575 -9.21324,-9.56577 9.21324,-9.56413 12.88916,-3.19088 3.67782,12.75583 -3.6851,12.75128 z"
       style="fill:#888a85;stroke:none;stroke-width:0.264583px;stroke-linecap:butt;stroke-linejoin:miter;stroke-opacity:1" />
    <path
       inkscape:connector-curvature="0"
       id="path106653"
       d="m 66.71575,139.85089 -3.684725,12.74905 -12.882256,-3.1841 9.207966,9.56691 -9.207974,9.56299 12.881687,-3.19476 3.685297,12.75972 3.677592,-12.76178 12.889386,3.19683 -9.204174,-9.56804 9.204182,-9.56187 -12.885476,3.18426 z"
       style="fill:#0000ff;stroke:none;stroke-width:0.264583px;stroke-linecap:butt;stroke-linejoin:miter;stroke-opacity:1" />
    <path
       style="fill:#888a85;stroke:none;stroke-width:0.264583px;stroke-linecap:butt;stroke-linejoin:miter;stroke-opacity:1"
       d="m 83.28273,168.54574 -9.213234,-9.56577 9.213235,-9.56413 12.889166,-3.19088 3.677816,12.75584 -3.685095,12.75127 z"
       id="path106655"
       inkscape:connector-curvature="0" />
    <path
       inkscape:connector-curvature="0"
       id="path106659"
       d="m 132.98367,178.11071 -3.68472,12.74904 -12.88226,-3.18409 9.20797,9.5669 -9.20797,9.563 12.88168,-3.19477 3.6853,12.75972 3.67759,-12.76178 12.88939,3.19683 -9.20418,-9.56804 9.20418,-9.56186 -12.88547,3.18425 z"
       style="fill:#0000ff;stroke:none;stroke-width:0.264583px;stroke-linecap:butt;stroke-linejoin:miter;stroke-opacity:1" />
    <path
       style="fill:#888a85;stroke:none;stroke-width:0.264583px;stroke-linecap:butt;stroke-linejoin:miter;stroke-opacity:1"
       d="m 99.849719,197.2406 3.677581,-12.76178 12.8894,3.19683 9.20797,9.5669 -9.20797,9.563 -12.88548,3.18425 z"
       id="path106661"
       inkscape:connector-curvature="0" />
    <path
       style="fill:#888a85;stroke:none;stroke-width:0.264583px;stroke-linecap:butt;stroke-linejoin:miter;stroke-opacity:1"
       d="m 149.55065,206.80556 -9.21324,-9.56577 9.21324,-9.56413 12.88916,-3.19088 3.67782,12.75583 -3.6851,12.75128 z"
       id="path106663"
       inkscape:connector-curvature="0" />
    <path
       style="fill:#0000ff;stroke:none;stroke-width:0.264583px;stroke-linecap:butt;stroke-linejoin:miter;stroke-opacity:1"
       d="m 66.715742,178.1107 -3.684725,12.74904 -12.882256,-3.18409 9.207966,9.56691 -9.207974,9.56299 12.881687,-3.19476 3.685297,12.75972 3.677592,-12.76178 12.889386,3.19683 -9.204174,-9.56804 9.204182,-9.56187 -12.885476,3.18426 z"
       id="path106665"
       inkscape:connector-curvature="0" />
    <path
       inkscape:connector-curvature="0"
       id="path106667"
       d="m 83.282722,206.80555 -9.213234,-9.56577 9.213235,-9.56413 12.889166,-3.19088 3.677816,12.75584 -3.685095,12.75127 z"
       style="fill:#888a85;stroke:none;stroke-width:0.264583px;stroke-linecap:butt;stroke-linejoin:miter;stroke-opacity:1" />
    <path
       inkscape:connector-curvature="0"
       id="path106671"
       d="m 132.98368,139.85089 3.67759,-12.76178 12.88939,3.19683 9.20797,9.5669 -9.20797,9.563 -12.88548,3.18425 z"
       style="fill:#888a85;stroke:none;stroke-width:0.264583px;stroke-linecap:butt;stroke-linejoin:miter;stroke-opacity:1" />
    <path
       inkscape:connector-curvature="0"
       id="path106673"
       d="m 116.4167,149.41583 -9.21323,-9.56577 9.21323,-9.56413 12.88917,-3.19088 3.67781,12.75583 -3.68509,12.75128 z"
       style="fill:#888a85;stroke:none;stroke-width:0.264583px;stroke-linecap:butt;stroke-linejoin:miter;stroke-opacity:1" />
    <path
       style="fill:#0000ff;stroke:none;stroke-width:0.264583px;stroke-linecap:butt;stroke-linejoin:miter;stroke-opacity:1"
       d="m 99.84973,120.72097 -3.684725,12.74904 -12.882257,-3.18409 9.207967,9.56691 -9.207975,9.56299 12.881687,-3.19476 3.685297,12.75972 3.677596,-12.76178 12.88938,3.19683 -9.20417,-9.56804 9.20418,-9.56187 -12.88548,3.18425 z"
       id="path106675"
       inkscape:connector-curvature="0" />
    <path
       inkscape:connector-curvature="0"
       id="path106677"
       d="m 166.11764,120.72099 -3.68472,12.74904 -12.88226,-3.18409 9.20797,9.56691 -9.20798,9.56299 12.88169,-3.19476 3.6853,12.75972 3.67759,-12.76178 12.88938,3.19683 -9.20417,-9.56804 9.20418,-9.56187 -12.88547,3.18425 z"
       style="fill:#0000ff;stroke:none;stroke-width:0.264583px;stroke-linecap:butt;stroke-linejoin:miter;stroke-opacity:1" />
    <path
       style="fill:#888a85;stroke:none;stroke-width:0.264583px;stroke-linecap:butt;stroke-linejoin:miter;stroke-opacity:1"
       d="m 66.715757,139.85089 3.677584,-12.76178 12.889396,3.19683 9.207966,9.5669 -9.207966,9.563 -12.885478,3.18425 z"
       id="path106679"
       inkscape:connector-curvature="0" />
    <path
       style="fill:#888a85;stroke:none;stroke-width:0.264583px;stroke-linecap:butt;stroke-linejoin:miter;stroke-opacity:1"
       d="m 132.98403,178.10846 3.67759,-12.76178 12.88939,3.19683 9.20797,9.56691 -9.20797,9.56299 -12.88548,3.18425 z"
       id="path106683"
       inkscape:connector-curvature="0" />
    <path
       style="fill:#888a85;stroke:none;stroke-width:0.264583px;stroke-linecap:butt;stroke-linejoin:miter;stroke-opacity:1"
       d="m 116.41705,187.6734 -9.21323,-9.56577 9.21323,-9.56413 12.88917,-3.19088 3.67781,12.75583 -3.68509,12.75128 z"
       id="path106685"
       inkscape:connector-curvature="0" />
    <path
       inkscape:connector-curvature="0"
       id="path106687"
       d="m 99.849699,158.98079 -3.684725,12.74904 -12.882256,-3.18409 9.207966,9.56691 -9.207974,9.56299 12.881687,-3.19476 3.685297,12.75972 3.677596,-12.76178 12.88938,3.19683 -9.20417,-9.56804 9.20418,-9.56187 -12.88548,3.18426 z"
       style="fill:#0000ff;stroke:none;stroke-width:0.264583px;stroke-linecap:butt;stroke-linejoin:miter;stroke-opacity:1" />
    <path
       style="fill:#0000ff;stroke:none;stroke-width:0.264583px;stroke-linecap:butt;stroke-linejoin:miter;stroke-opacity:1"
       d="m 166.11799,158.97856 -3.68472,12.74904 -12.88226,-3.18409 9.20797,9.56691 -9.20798,9.56299 12.88169,-3.19476 3.6853,12.75972 3.67759,-12.76178 12.88939,3.19683 -9.20418,-9.56804 9.20418,-9.56187 -12.88547,3.18426 z"
       id="path106689"
       inkscape:connector-curvature="0" />
    <path
       inkscape:connector-curvature="0"
       id="path106691"
       d="m 66.716107,178.10846 3.677584,-12.76178 12.889396,3.19683 9.207966,9.5669 -9.207966,9.563 -12.885478,3.18425 z"
       style="fill:#888a85;stroke:none;stroke-width:0.264583px;stroke-linecap:butt;stroke-linejoin:miter;stroke-opacity:1" />
  </g>
</svg>
