<?xml version="1.0" encoding="UTF-8" standalone="no"?>
<svg
   xmlns:dc="http://purl.org/dc/elements/1.1/"
   xmlns:cc="http://creativecommons.org/ns#"
   xmlns:rdf="http://www.w3.org/1999/02/22-rdf-syntax-ns#"
   xmlns:svg="http://www.w3.org/2000/svg"
   xmlns="http://www.w3.org/2000/svg"
   xmlns:sodipodi="http://sodipodi.sourceforge.net/DTD/sodipodi-0.dtd"
   xmlns:inkscape="http://www.inkscape.org/namespaces/inkscape"
   sodipodi:docname="drawing.svg"
   inkscape:version="1.0beta2 (235953b, 2020-02-06)"
   id="svg106751"
   version="1.1"
   viewBox="0 0 210 297"
   height="297mm"
   width="210mm">
  <defs
     id="defs106745" />
  <sodipodi:namedview
     inkscape:window-maximized="0"
     inkscape:window-y="0"
     inkscape:window-x="234"
     inkscape:window-height="1041"
     inkscape:window-width="1274"
     showgrid="false"
     inkscape:document-rotation="0"
     inkscape:current-layer="layer1"
     inkscape:document-units="mm"
     inkscape:cy="560"
     inkscape:cx="400"
     inkscape:zoom="0.35"
     inkscape:pageshadow="2"
     inkscape:pageopacity="0.0"
     borderopacity="1.0"
     bordercolor="#666666"
     pagecolor="#ffffff"
     id="base" />
  <metadata
     id="metadata106748">
    <rdf:RDF>
      <cc:Work
         rdf:about="">
        <dc:format>image/svg+xml</dc:format>
        <dc:type
           rdf:resource="http://purl.org/dc/dcmitype/StillImage" />
        <dc:title />
      </cc:Work>
    </rdf:RDF>
  </metadata>
  <g
     id="layer1"
     inkscape:groupmode="layer"
     inkscape:label="Layer 1">
    <path
       style="fill:#729fcf;stroke:none;stroke-width:0.264583px;stroke-linecap:butt;stroke-linejoin:miter;stroke-opacity:1"
       d="m 132.98368,63.331279 -3.68473,12.749041 -12.88225,-3.184091 9.20796,9.566906 -9.20797,9.562994 12.88168,-3.194764 3.6853,12.759715 3.67759,-12.761777 12.88939,3.196831 -9.20418,-9.56804 9.20419,-9.561864 -12.88548,3.184252 z"
       id="path106536"
       inkscape:connector-curvature="0" />
    <path
       inkscape:connector-curvature="0"
       id="path106553"
       d="m 149.55065,92.026135 -9.21323,-9.565772 9.21323,-9.564129 12.88917,-3.19088 3.67781,12.755832 -3.68509,12.751277 z"
       style="fill:#ad7fa8;stroke:none;stroke-width:0.264583px;stroke-linecap:butt;stroke-linejoin:miter;stroke-opacity:1" />
    <path
       inkscape:connector-curvature="0"
       id="path106563"
       d="m 66.715744,63.331278 -3.684725,12.74904 -12.882256,-3.184091 9.207966,9.566906 -9.207974,9.562994 12.881687,-3.194764 3.685297,12.759717 3.677592,-12.761779 12.889386,3.196831 -9.204174,-9.56804 9.204182,-9.561864 -12.885476,3.184252 z"
       style="fill:#729fcf;stroke:none;stroke-width:0.264583px;stroke-linecap:butt;stroke-linejoin:miter;stroke-opacity:1" />
    <path
       style="fill:#ad7fa8;stroke:none;stroke-width:0.264583px;stroke-linecap:butt;stroke-linejoin:miter;stroke-opacity:1"
       d="m 83.282724,92.026128 -9.213234,-9.565772 9.213235,-9.564129 12.889166,-3.19088 3.677816,12.755832 -3.685095,12.751277 z"
       id="path106565"
       inkscape:connector-curvature="0" />
    <path
       style="fill:#ad7fa8;stroke:none;stroke-width:0.264583px;stroke-linecap:butt;stroke-linejoin:miter;stroke-opacity:1"
       d="m 116.4167,111.15602 -9.21323,-9.56577 9.21323,-9.564129 12.88917,-3.19088 3.67781,12.755829 -3.68509,12.75128 z"
       id="path106551"
       inkscape:connector-curvature="0" />
    <path
       inkscape:connector-curvature="0"
       id="path106567"
       d="m 99.84935,82.463415 -3.684725,12.749041 -12.882257,-3.184091 9.207967,9.566905 -9.207975,9.563 12.881687,-3.19477 3.685297,12.75972 3.677596,-12.76178 12.88938,3.19683 -9.20417,-9.56804 9.20418,-9.561864 -12.88548,3.184252 z"
       style="fill:#729fcf;stroke:none;stroke-width:0.264583px;stroke-linecap:butt;stroke-linejoin:miter;stroke-opacity:1" />
    <path
       style="fill:#729fcf;stroke:none;stroke-width:0.264583px;stroke-linecap:butt;stroke-linejoin:miter;stroke-opacity:1"
       d="m 166.11764,82.461185 -3.68472,12.749041 -12.88226,-3.184091 9.20797,9.566905 -9.20798,9.563 12.88169,-3.19477 3.6853,12.75972 3.67759,-12.76178 12.88938,3.19683 -9.20417,-9.56804 9.20418,-9.561864 -12.88547,3.184252 z"
       id="path106569"
       inkscape:connector-curvature="0" />
    <g
       transform="translate(99.849716,101.58845)"
       id="g106645"
       style="stroke:none">
      <path
         style="fill:#729fcf;stroke:none;stroke-width:0.264583px;stroke-linecap:butt;stroke-linejoin:miter;stroke-opacity:1"
         d="M 33.133966,0.00263636 29.449241,12.751677 16.566985,9.5675862 l 9.207966,9.5669058 -9.207974,9.562994 12.881687,-3.194764 3.685297,12.759718 3.677592,-12.76178 12.889386,3.196831 -9.204174,-9.56804 9.204182,-9.5618643 -12.885476,3.1842523 z"
         id="path106635"
         inkscape:connector-curvature="0" />
      <path
         inkscape:connector-curvature="0"
         id="path106637"
         d="M 1.0575419e-5,19.13253 3.6775946,6.3707489 16.566991,9.56758 l 9.207966,9.566905 -9.207966,9.562998 -12.8854784,3.184252 z"
         style="fill:#fcaf3e;stroke:none;stroke-width:0.264583px;stroke-linecap:butt;stroke-linejoin:miter;stroke-opacity:1" />
      <path
         inkscape:connector-curvature="0"
         id="path106639"
         d="M 49.70094,28.697492 40.487706,19.13172 49.700941,9.5675912 62.590106,6.3767112 66.267923,19.132543 62.582827,31.88382 Z"
         style="fill:#ad7fa8;stroke:none;stroke-width:0.264583px;stroke-linecap:butt;stroke-linejoin:miter;stroke-opacity:1" />
      <path
         inkscape:connector-curvature="0"
         id="path106641"
         d="m -33.133966,0.00263452 -3.684725,12.74904048 -12.882256,-3.1840906 9.207966,9.5669056 -9.207974,9.562994 12.881687,-3.194764 3.685297,12.759718 3.677592,-12.76178 12.889386,3.196831 -9.204174,-9.56804 9.204182,-9.5618641 -12.885476,3.1842521 z"
         style="fill:#729fcf;stroke:none;stroke-width:0.264583px;stroke-linecap:butt;stroke-linejoin:miter;stroke-opacity:1" />
      <path
         style="fill:#ad7fa8;stroke:none;stroke-width:0.264583px;stroke-linecap:butt;stroke-linejoin:miter;stroke-opacity:1"
         d="M -16.566986,28.697485 -25.78022,19.131713 -16.566985,9.5675842 -3.6778195,6.3767042 -2.5169558e-6,19.132536 -3.6850985,31.883813 Z"
         id="path106643"
         inkscape:connector-curvature="0" />
    </g>
    <g
       id="g106657"
       transform="translate(99.849716,139.84826)"
       style="stroke:none">
      <path
         inkscape:connector-curvature="0"
         id="path106647"
         d="M 33.133966,0.00263636 29.449241,12.751677 16.566985,9.5675862 l 9.207966,9.5669058 -9.207974,9.562994 12.881687,-3.194764 3.685297,12.759718 3.677592,-12.76178 12.889386,3.196831 -9.204174,-9.56804 9.204182,-9.5618643 -12.885476,3.1842523 z"
         style="fill:#729fcf;stroke:none;stroke-width:0.264583px;stroke-linecap:butt;stroke-linejoin:miter;stroke-opacity:1" />
      <path
         style="fill:#fcaf3e;stroke:none;stroke-width:0.264583px;stroke-linecap:butt;stroke-linejoin:miter;stroke-opacity:1"
         d="M 1.0575419e-5,19.13253 3.6775946,6.3707489 16.566991,9.56758 l 9.207966,9.566905 -9.207966,9.562998 -12.8854784,3.184252 z"
         id="path106649"
         inkscape:connector-curvature="0" />
      <path
         style="fill:#ad7fa8;stroke:none;stroke-width:0.264583px;stroke-linecap:butt;stroke-linejoin:miter;stroke-opacity:1"
         d="M 49.70094,28.697492 40.487706,19.13172 49.700941,9.5675912 62.590106,6.3767112 66.267923,19.132543 62.582827,31.88382 Z"
         id="path106651"
         inkscape:connector-curvature="0" />
      <path
         style="fill:#729fcf;stroke:none;stroke-width:0.264583px;stroke-linecap:butt;stroke-linejoin:miter;stroke-opacity:1"
         d="m -33.133966,0.00263452 -3.684725,12.74904048 -12.882256,-3.1840906 9.207966,9.5669056 -9.207974,9.562994 12.881687,-3.194764 3.685297,12.759718 3.677592,-12.76178 12.889386,3.196831 -9.204174,-9.56804 9.204182,-9.5618641 -12.885476,3.1842521 z"
         id="path106653"
         inkscape:connector-curvature="0" />
      <path
         inkscape:connector-curvature="0"
         id="path106655"
         d="M -16.566986,28.697485 -25.78022,19.131713 -16.566985,9.5675842 -3.6778195,6.3767042 -2.5169558e-6,19.132536 -3.6850985,31.883813 Z"
         style="fill:#ad7fa8;stroke:none;stroke-width:0.264583px;stroke-linecap:butt;stroke-linejoin:miter;stroke-opacity:1" />
    </g>
    <g
       transform="translate(99.849708,178.10807)"
       id="g106669"
       style="stroke:none">
      <path
         style="fill:#729fcf;stroke:none;stroke-width:0.264583px;stroke-linecap:butt;stroke-linejoin:miter;stroke-opacity:1"
         d="M 33.133966,0.00263636 29.449241,12.751677 16.566985,9.5675862 l 9.207966,9.5669058 -9.207974,9.562994 12.881687,-3.194764 3.685297,12.759718 3.677592,-12.76178 12.889386,3.196831 -9.204174,-9.56804 9.204182,-9.5618643 -12.885476,3.1842523 z"
         id="path106659"
         inkscape:connector-curvature="0" />
      <path
         inkscape:connector-curvature="0"
         id="path106661"
         d="M 1.0575419e-5,19.13253 3.6775946,6.3707489 16.566991,9.56758 l 9.207966,9.566905 -9.207966,9.562998 -12.8854784,3.184252 z"
         style="fill:#fcaf3e;stroke:none;stroke-width:0.264583px;stroke-linecap:butt;stroke-linejoin:miter;stroke-opacity:1" />
      <path
         inkscape:connector-curvature="0"
         id="path106663"
         d="M 49.70094,28.697492 40.487706,19.13172 49.700941,9.5675912 62.590106,6.3767112 66.267923,19.132543 62.582827,31.88382 Z"
         style="fill:#ad7fa8;stroke:none;stroke-width:0.264583px;stroke-linecap:butt;stroke-linejoin:miter;stroke-opacity:1" />
      <path
         inkscape:connector-curvature="0"
         id="path106665"
         d="m -33.133966,0.00263452 -3.684725,12.74904048 -12.882256,-3.1840906 9.207966,9.5669056 -9.207974,9.562994 12.881687,-3.194764 3.685297,12.759718 3.677592,-12.76178 12.889386,3.196831 -9.204174,-9.56804 9.204182,-9.5618641 -12.885476,3.1842521 z"
         style="fill:#729fcf;stroke:none;stroke-width:0.264583px;stroke-linecap:butt;stroke-linejoin:miter;stroke-opacity:1" />
      <path
         style="fill:#ad7fa8;stroke:none;stroke-width:0.264583px;stroke-linecap:butt;stroke-linejoin:miter;stroke-opacity:1"
         d="M -16.566986,28.697485 -25.78022,19.131713 -16.566985,9.5675842 -3.6778195,6.3767042 -2.5169558e-6,19.132536 -3.6850985,31.883813 Z"
         id="path106667"
         inkscape:connector-curvature="0" />
    </g>
    <g
       id="g106681"
       transform="translate(99.849723,101.58845)"
       style="stroke:none">
      <path
         style="fill:#fcaf3e;stroke:none;stroke-width:0.264583px;stroke-linecap:butt;stroke-linejoin:miter;stroke-opacity:1"
         d="m 33.13396,38.26244 3.677584,-12.761781 12.889396,3.196831 9.207966,9.566905 -9.207966,9.562998 -12.885478,3.184252 z"
         id="path106671"
         inkscape:connector-curvature="0" />
      <path
         style="fill:#ad7fa8;stroke:none;stroke-width:0.264583px;stroke-linecap:butt;stroke-linejoin:miter;stroke-opacity:1"
         d="m 16.566978,47.827379 -9.213235,-9.565772 9.213235,-9.564129 12.889166,-3.19088 3.677816,12.755831 -3.685096,12.751278 z"
         id="path106673"
         inkscape:connector-curvature="0" />
      <path
         inkscape:connector-curvature="0"
         id="path106675"
         d="m -3.735e-4,19.134772 -3.684725,12.749041 -12.8822565,-3.184091 9.2079665,9.566906 -9.2079745,9.562994 12.8816875,-3.194764 3.685297,12.759718 3.677592,-12.76178 12.8893855,3.196831 -9.2041735,-9.56804 9.2041815,-9.561864 -12.8854755,3.184252 z"
         style="fill:#729fcf;stroke:none;stroke-width:0.264583px;stroke-linecap:butt;stroke-linejoin:miter;stroke-opacity:1" />
      <path
         style="fill:#729fcf;stroke:none;stroke-width:0.264583px;stroke-linecap:butt;stroke-linejoin:miter;stroke-opacity:1"
         d="m 66.26792,19.132542 -3.684725,12.749041 -12.882257,-3.184091 9.207967,9.566906 -9.207975,9.562994 12.881688,-3.194764 3.685297,12.759718 3.677592,-12.76178 12.889385,3.196831 -9.204173,-9.56804 9.204181,-9.561864 -12.885475,3.184252 z"
         id="path106677"
         inkscape:connector-curvature="0" />
      <path
         inkscape:connector-curvature="0"
         id="path106679"
         d="m -33.133966,38.262439 3.677584,-12.761781 12.889396,3.196831 9.2079656,9.566905 -9.2079656,9.562998 -12.885478,3.184252 z"
         style="fill:#fcaf3e;stroke:none;stroke-width:0.264583px;stroke-linecap:butt;stroke-linejoin:miter;stroke-opacity:1" />
    </g>
    <g
       transform="translate(99.850073,139.84602)"
       id="g106693"
       style="stroke:none">
      <path
         inkscape:connector-curvature="0"
         id="path106683"
         d="m 33.13396,38.26244 3.677584,-12.761781 12.889396,3.196831 9.207966,9.566905 -9.207966,9.562998 -12.885478,3.184252 z"
         style="fill:#fcaf3e;stroke:none;stroke-width:0.264583px;stroke-linecap:butt;stroke-linejoin:miter;stroke-opacity:1" />
      <path
         inkscape:connector-curvature="0"
         id="path106685"
         d="m 16.566978,47.827379 -9.213235,-9.565772 9.213235,-9.564129 12.889166,-3.19088 3.677816,12.755831 -3.685096,12.751278 z"
         style="fill:#ad7fa8;stroke:none;stroke-width:0.264583px;stroke-linecap:butt;stroke-linejoin:miter;stroke-opacity:1" />
      <path
         style="fill:#729fcf;stroke:none;stroke-width:0.264583px;stroke-linecap:butt;stroke-linejoin:miter;stroke-opacity:1"
         d="m -3.735e-4,19.134772 -3.684725,12.749041 -12.8822565,-3.184091 9.2079665,9.566906 -9.2079745,9.562994 12.8816875,-3.194764 3.685297,12.759718 3.677592,-12.76178 12.8893855,3.196831 -9.2041735,-9.56804 9.2041815,-9.561864 -12.8854755,3.184252 z"
         id="path106687"
         inkscape:connector-curvature="0" />
      <path
         inkscape:connector-curvature="0"
         id="path106689"
         d="m 66.26792,19.132542 -3.684725,12.749041 -12.882257,-3.184091 9.207967,9.566906 -9.207975,9.562994 12.881688,-3.194764 3.685297,12.759718 3.677592,-12.76178 12.889385,3.196831 -9.204173,-9.56804 9.204181,-9.561864 -12.885475,3.184252 z"
         style="fill:#729fcf;stroke:none;stroke-width:0.264583px;stroke-linecap:butt;stroke-linejoin:miter;stroke-opacity:1" />
      <path
         style="fill:#fcaf3e;stroke:none;stroke-width:0.264583px;stroke-linecap:butt;stroke-linejoin:miter;stroke-opacity:1"
         d="m -33.133966,38.262439 3.677584,-12.761781 12.889396,3.196831 9.2079656,9.566905 -9.2079656,9.562998 -12.885478,3.184252 z"
         id="path106691"
         inkscape:connector-curvature="0" />
    </g>
    <path
       inkscape:connector-curvature="0"
       id="path885"
       d="m 116.41633,92.028364 9.21324,-9.565772 -9.21324,-9.564129 -12.88916,-3.19088 -3.67782,12.755832 3.68509,12.751277 z"
       style="fill:#ad7fa8;stroke:none;stroke-width:0.264583px;stroke-linecap:butt;stroke-linejoin:miter;stroke-opacity:1" />
    <path
       inkscape:connector-curvature="0"
       id="path1465"
       d="m 132.98368,63.331279 -3.68473,12.749041 -12.88225,-3.184091 9.20796,9.566906 -9.20797,9.562994 12.88168,-3.194764 3.6853,12.759715 3.67759,-12.761777 12.88939,3.196831 -9.20418,-9.56804 9.20419,-9.561864 -12.88548,3.184252 z"
       style="fill:#729fcf;stroke:none;stroke-width:0.264583px;stroke-linecap:butt;stroke-linejoin:miter;stroke-opacity:1" />
    <path
       style="fill:#ad7fa8;stroke:none;stroke-width:0.264583px;stroke-linecap:butt;stroke-linejoin:miter;stroke-opacity:1"
       d="m 83.28273,111.15603 9.21324,-9.56577 -9.21324,-9.564127 -12.88916,-3.19088 -3.67782,12.755827 3.68509,12.75128 z"
       id="path1467"
       inkscape:connector-curvature="0" />
    <path
       inkscape:connector-curvature="0"
       id="path1469"
       d="m 149.55065,111.15603 9.21324,-9.56577 -9.21324,-9.564125 -12.88916,-3.19088 -3.67782,12.755825 3.68509,12.75128 z"
       style="fill:#ad7fa8;stroke:none;stroke-width:0.264583px;stroke-linecap:butt;stroke-linejoin:miter;stroke-opacity:1" />
  </g>
</svg>
