<?xml version="1.0" encoding="UTF-8" standalone="no"?>
<!-- Created with Inkscape (http://www.inkscape.org/) -->

<svg
   xmlns:dc="http://purl.org/dc/elements/1.1/"
   xmlns:cc="http://creativecommons.org/ns#"
   xmlns:rdf="http://www.w3.org/1999/02/22-rdf-syntax-ns#"
   xmlns:svg="http://www.w3.org/2000/svg"
   xmlns="http://www.w3.org/2000/svg"
   xmlns:sodipodi="http://sodipodi.sourceforge.net/DTD/sodipodi-0.dtd"
   xmlns:inkscape="http://www.inkscape.org/namespaces/inkscape"
   width="210mm"
   height="297mm"
   viewBox="0 0 210 297"
   version="1.1"
   id="svg6282"
   inkscape:version="0.92.4 (5da689c313, 2019-01-14)"
   sodipodi:docname="experiment.svg">
  <defs
     id="defs6276" />
  <sodipodi:namedview
     id="base"
     pagecolor="#ffffff"
     bordercolor="#666666"
     borderopacity="1.0"
     inkscape:pageopacity="0.0"
     inkscape:pageshadow="2"
     inkscape:zoom="0.35"
     inkscape:cx="-101.42857"
     inkscape:cy="560"
     inkscape:document-units="mm"
     inkscape:current-layer="layer1"
     showgrid="false"
     inkscape:window-width="1848"
     inkscape:window-height="1057"
     inkscape:window-x="-8"
     inkscape:window-y="-8"
     inkscape:window-maximized="1" />
  <metadata
     id="metadata6279">
    <rdf:RDF>
      <cc:Work
         rdf:about="">
        <dc:format>image/svg+xml</dc:format>
        <dc:type
           rdf:resource="http://purl.org/dc/dcmitype/StillImage" />
        <dc:title></dc:title>
      </cc:Work>
    </rdf:RDF>
  </metadata>
  <g
     inkscape:label="Layer 1"
     inkscape:groupmode="layer"
     id="layer1">
    <path
       inkscape:connector-curvature="0"
       id="path6112"
       d="m 121.94741,97.951183 19.84375,20.622227 -19.84375,20.62223 27.78125,-6.87407 7.9375,27.4963 7.9375,-27.4963 27.78125,6.87407 -19.84374,-20.62223 19.84374,-20.622227 -27.78125,6.874067 -7.9375,-27.496296 -7.9375,27.496296 z"
       style="opacity:0.5;fill:#000000;stroke:none;stroke-width:0.26486355px;stroke-linecap:butt;stroke-linejoin:miter;stroke-opacity:1" />
    <path
       style="opacity:0.5;fill:#000000;stroke:none;stroke-width:0.26486352px;stroke-linecap:butt;stroke-linejoin:miter;stroke-opacity:1"
       d="m 141.79116,118.57342 7.9375,-13.74817 h 15.87499 l 7.93751,13.74817 -7.93751,13.74815 h -15.87499 z"
       id="path6114"
       inkscape:connector-curvature="0" />
    <path
       inkscape:connector-curvature="0"
       id="path6179"
       d="m 141.79116,91.077104 7.9375,-13.74816 h 15.87499 l 7.93751,13.74816 -7.93751,13.748146 h -15.87499 z"
       style="opacity:0.5;fill:none;stroke:#2e3436;stroke-width:0.26486352px;stroke-linecap:butt;stroke-linejoin:miter;stroke-opacity:1" />
    <path
       style="opacity:0.5;fill:none;stroke:#2e3436;stroke-width:0.26486352px;stroke-linecap:butt;stroke-linejoin:miter;stroke-opacity:1"
       d="m 141.79116,146.06973 7.9375,-13.74816 h 15.87499 l 7.93751,13.74816 -7.93751,13.74815 h -15.87499 z"
       id="path6181"
       inkscape:connector-curvature="0" />
    <path
       style="opacity:0.5;fill:none;stroke:#2e3436;stroke-width:0.26486352px;stroke-linecap:butt;stroke-linejoin:miter;stroke-opacity:1"
       d="m 165.60367,104.82526 7.9375,-13.748156 h 15.87499 l 7.93751,13.748156 -7.93751,13.74816 h -15.87499 z"
       id="path6183"
       inkscape:connector-curvature="0" />
    <path
       inkscape:connector-curvature="0"
       id="path6185"
       d="m 165.60367,132.32157 7.9375,-13.74816 h 15.87499 l 7.93751,13.74816 -7.93751,13.74815 h -15.87499 z"
       style="opacity:0.5;fill:none;stroke:#2e3436;stroke-width:0.26486352px;stroke-linecap:butt;stroke-linejoin:miter;stroke-opacity:1" />
    <path
       style="opacity:0.5;fill:none;stroke:#2e3436;stroke-width:0.26486352px;stroke-linecap:butt;stroke-linejoin:miter;stroke-opacity:1"
       d="m 117.97867,132.32158 7.9375,-13.74816 h 15.87499 l 7.93751,13.74816 -7.93751,13.74815 h -15.87499 z"
       id="path6187"
       inkscape:connector-curvature="0" />
    <path
       inkscape:connector-curvature="0"
       id="path6189"
       d="m 117.97866,104.82526 7.9375,-13.748156 h 15.87499 l 7.93751,13.748156 -7.93751,13.74816 h -15.87499 z"
       style="opacity:0.5;fill:none;stroke:#2e3436;stroke-width:0.26486352px;stroke-linecap:butt;stroke-linejoin:miter;stroke-opacity:1" />
    <path
       sodipodi:type="star"
       style="opacity:0.5;fill:none;stroke:#000000;stroke-width:0.08727287;stroke-linecap:square"
       id="path6193"
       sodipodi:sides="6"
       sodipodi:cx="157.62838"
       sodipodi:cy="118.59523"
       sodipodi:r1="47.574612"
       sodipodi:r2="47.574612"
       sodipodi:arg1="1.0471976"
       sodipodi:arg2="1.5707963"
       inkscape:flatsided="true"
       inkscape:rounded="0"
       inkscape:randomized="0"
       d="m 181.41569,159.79605 -47.57461,0 -23.7873,-41.20082 23.7873,-41.200823 47.57462,2e-6 23.7873,41.200821 z"
       inkscape:transform-center-y="-4.1252962e-06"
       inkscape:transform-center-x="1.3012752e-06" />
    <circle
       r="47.461926"
       cy="118.59524"
       cx="157.62837"
       id="circle6195"
       style="opacity:0.5;fill:none;stroke:#000000;stroke-width:0.32615209;stroke-linecap:square" />
    <g
       id="g6203"
       transform="translate(-0.37805571,-43.895226)">
      <path
         sodipodi:type="star"
         style="opacity:0.5;fill:#000000;stroke:#babdb6;stroke-width:0.08727286;stroke-linecap:square"
         id="path6106"
         sodipodi:sides="6"
         sodipodi:cx="57.40237"
         sodipodi:cy="162.49046"
         sodipodi:r1="47.574612"
         sodipodi:r2="47.574612"
         sodipodi:arg1="1.0471976"
         sodipodi:arg2="1.5707963"
         inkscape:flatsided="true"
         inkscape:rounded="0"
         inkscape:randomized="0"
         d="m 81.189674,203.69129 -47.574611,-1e-5 -23.7873042,-41.20082 23.7873082,-41.20082 47.574611,0 23.787302,41.20083 z"
         inkscape:transform-center-y="-4.1252962e-06"
         inkscape:transform-center-x="1.3012752e-06" />
      <path
         inkscape:connector-curvature="0"
         id="path6108"
         d="M 21.721412,141.89005 81.189673,203.69128 57.402372,121.28964 33.615063,203.69128 93.083329,141.89005 9.8277586,162.49046 93.083326,183.09087 33.615066,121.28964 57.402367,203.69128 81.189678,121.28964 21.72141,183.09087 104.97698,162.49046 Z"
         style="fill:none;stroke:#ffffff;stroke-width:0.26458332px;stroke-linecap:butt;stroke-linejoin:miter;stroke-opacity:1" />
      <path
         inkscape:connector-curvature="0"
         id="path6110"
         d="m 21.721412,141.89005 19.822753,20.60041 -19.822755,20.60041 27.751855,-6.8668 7.929102,27.46721 7.929102,-27.46721 27.751857,6.8668 -19.822753,-20.60041 19.822753,-20.60041 -27.751855,6.8668 -7.929099,-27.46721 -7.929105,27.46721 z"
         style="opacity:0.5;fill:#000000;stroke:none;stroke-width:0.26458332px;stroke-linecap:butt;stroke-linejoin:miter;stroke-opacity:1" />
      <circle
         r="47.461926"
         cy="162.49046"
         cx="57.40237"
         id="circle6197"
         style="opacity:0.5;fill:none;stroke:#000000;stroke-width:0.32615209;stroke-linecap:square" />
    </g>
    <path
       inkscape:connector-curvature="0"
       id="path6235"
       d="m 173.54116,118.57341 7.9375,-13.74817 h 15.87499 l 7.93751,13.74817 -7.93751,13.74815 h -15.87499 z"
       style="opacity:0.5;fill:#000000;stroke:none;stroke-width:0.26486352px;stroke-linecap:butt;stroke-linejoin:miter;stroke-opacity:1" />
    <path
       style="opacity:0.5;fill:#000000;stroke:none;stroke-width:0.26486352px;stroke-linecap:butt;stroke-linejoin:miter;stroke-opacity:1"
       d="m 110.04116,118.57343 7.9375,-13.74817 h 15.87499 l 7.93751,13.74817 -7.93751,13.74815 h -15.87499 z"
       id="path6237"
       inkscape:connector-curvature="0" />
    <path
       inkscape:connector-curvature="0"
       id="path6239"
       d="m 125.91616,91.077104 7.9375,-13.74816 h 15.87499 l 7.93751,13.74816 -7.93751,13.748156 h -15.87499 z"
       style="opacity:0.5;fill:#000000;stroke:none;stroke-width:0.26486352px;stroke-linecap:butt;stroke-linejoin:miter;stroke-opacity:1" />
    <path
       style="opacity:0.5;fill:#000000;stroke:none;stroke-width:0.26486352px;stroke-linecap:butt;stroke-linejoin:miter;stroke-opacity:1"
       d="m 157.66615,91.077104 7.9375,-13.74816 h 15.87499 l 7.93751,13.74816 -7.93751,13.748156 h -15.87499 z"
       id="path6241"
       inkscape:connector-curvature="0" />
    <path
       inkscape:connector-curvature="0"
       id="path6243"
       d="m 157.66617,146.06972 7.9375,-13.74816 h 15.87499 l 7.93751,13.74816 -7.93751,13.74816 h -15.87499 z"
       style="opacity:0.5;fill:#000000;stroke:none;stroke-width:0.26486352px;stroke-linecap:butt;stroke-linejoin:miter;stroke-opacity:1" />
    <path
       style="opacity:0.5;fill:#000000;stroke:none;stroke-width:0.26486352px;stroke-linecap:butt;stroke-linejoin:miter;stroke-opacity:1"
       d="m 125.91617,146.06972 7.9375,-13.74816 h 15.87499 l 7.93751,13.74816 -7.93751,13.74816 h -15.87499 z"
       id="path6245"
       inkscape:connector-curvature="0" />
  </g>
</svg>
