<?xml version="1.0" encoding="UTF-8" standalone="no"?>
<svg
   xmlns:dc="http://purl.org/dc/elements/1.1/"
   xmlns:cc="http://creativecommons.org/ns#"
   xmlns:rdf="http://www.w3.org/1999/02/22-rdf-syntax-ns#"
   xmlns:svg="http://www.w3.org/2000/svg"
   xmlns="http://www.w3.org/2000/svg"
   xmlns:sodipodi="http://sodipodi.sourceforge.net/DTD/sodipodi-0.dtd"
   xmlns:inkscape="http://www.inkscape.org/namespaces/inkscape"
   width="433.0127"
   height="500"
   viewBox="0 0 114.56794 132.29167"
   version="1.1"
   id="svg1513"
   inkscape:version="1.0beta2 (235953b, 2020-02-06)"
   sodipodi:docname="sandbox.svg">
  <defs
     id="defs1507" />
  <sodipodi:namedview
     inkscape:snap-object-midpoints="true"
     inkscape:snap-midpoints="true"
     id="base"
     pagecolor="#ffffff"
     bordercolor="#666666"
     borderopacity="1.0"
     inkscape:pageopacity="0.0"
     inkscape:pageshadow="2"
     inkscape:zoom="0.35"
     inkscape:cx="9.4632374"
     inkscape:cy="218.37908"
     inkscape:document-units="mm"
     inkscape:current-layer="svg1513"
     inkscape:document-rotation="0"
     showgrid="false"
     units="px"
     fit-margin-top="0"
     fit-margin-left="0"
     fit-margin-right="0"
     fit-margin-bottom="0"
     inkscape:window-width="1274"
     inkscape:window-height="1041"
     inkscape:window-x="479"
     inkscape:window-y="0"
     inkscape:window-maximized="0" />
  <metadata
     id="metadata1510">
    <rdf:RDF>
      <cc:Work
         rdf:about="">
        <dc:format>image/svg+xml</dc:format>
        <dc:type
           rdf:resource="http://purl.org/dc/dcmitype/StillImage" />
        <dc:title></dc:title>
      </cc:Work>
    </rdf:RDF>
  </metadata>
  <path
     inkscape:connector-curvature="0"
     id="path4213"
     d="m -4.02e-4,-99.218744 44.55418,11.024307 12.729801,-44.097223 12.729749,44.097223 44.554202,-11.024287 -31.824432,33.072907 31.824432,33.07293 L 70.013328,-44.097207 57.283559,3.4e-6 44.553778,-44.097207 l -44.55418,11.0243 31.824419,-33.07292 z"
     style="fill:#4e9a06;stroke:#a40000;stroke-width:0.424325px;stroke-linecap:butt;stroke-linejoin:miter;stroke-opacity:1" />
  <g
     inkscape:label="Layer 1"
     inkscape:groupmode="layer"
     id="layer1"
     transform="translate(128.63231,182.32143)" />
  <path
     inkscape:connector-curvature="0"
     id="path1483"
     d="M 0,33.072916 44.554197,44.097222 57.283992,0 70.013741,44.097222 114.56794,33.072932 82.743512,66.145845 114.56794,99.218767 70.013741,88.194455 57.283971,132.29167 44.554197,88.194455 0,99.218753 31.824432,66.145832 Z"
     style="fill:none;stroke:#a40000;stroke-width:0.424325px;stroke-linecap:butt;stroke-linejoin:miter;stroke-opacity:1" />
  <path
     inkscape:connector-curvature="0"
     id="path1497"
     d="M 31.82471,66.145826 0,33.072916 l -44.554602,-11.0243 -12.72987,44.09721 12.72989,44.097224 L 0,99.218746 Z"
     style="fill:#729fcf;stroke:none;stroke-width:0.424328px;stroke-linecap:butt;stroke-linejoin:miter;stroke-opacity:1" />
  <path
     style="fill:none;stroke:#a40000;stroke-width:0.424328px;stroke-linecap:butt;stroke-linejoin:miter;stroke-opacity:1"
     d="m 82.74323,66.145847 31.82471,-33.07291 44.5546,-11.0243 12.72987,44.09721 -12.72989,44.097223 -44.55458,-11.024303 z"
     id="path3468"
     inkscape:connector-curvature="0" />
  <path
     style="fill:none;stroke:#a40000;stroke-width:0.424325px;stroke-linecap:butt;stroke-linejoin:miter;stroke-opacity:1"
     d="m 114.56832,99.218764 44.5542,11.024306 12.72979,-44.097222 12.72975,44.097222 44.5542,-11.02429 -31.82443,33.07291 31.82443,33.07293 -44.5542,-11.02432 -12.72977,44.09722 -12.72977,-44.09722 -44.5542,11.0243 31.82443,-33.07292 z"
     id="path3484"
     inkscape:connector-curvature="0" />
  <path
     style="fill:none;stroke:#a40000;stroke-width:0.424328px;stroke-linecap:butt;stroke-linejoin:miter;stroke-opacity:1"
     d="M 146.39303,132.29167 114.56832,99.218764 70.013718,88.194464 57.283848,132.29167 70.013738,176.3889 114.56832,165.36459 Z"
     id="path3486"
     inkscape:connector-curvature="0" />
  <path
     inkscape:connector-curvature="0"
     id="path3488"
     d="m 197.31155,132.29169 31.82471,-33.072905 44.5546,-11.0243 12.72987,44.097205 -12.72989,44.09723 -44.55458,-11.0243 z"
     style="fill:none;stroke:#a40000;stroke-width:0.424328px;stroke-linecap:butt;stroke-linejoin:miter;stroke-opacity:1" />
  <path
     inkscape:connector-curvature="0"
     id="path3498"
     d="m -114.56832,99.218744 44.554197,11.024306 12.729795,-44.097222 12.729749,44.097222 44.554199,-11.02429 -31.824428,33.07291 31.824428,33.07292 -44.554199,-11.02431 -12.72977,44.09722 -12.729774,-44.09722 -44.554197,11.0243 31.824432,-33.07292 z"
     style="fill:none;stroke:#a40000;stroke-width:0.424325px;stroke-linecap:butt;stroke-linejoin:miter;stroke-opacity:1" />
  <path
     inkscape:connector-curvature="0"
     id="path3500"
     d="m -82.74361,132.29165 -31.82471,-33.072906 -44.5546,-11.0243 -12.72987,44.097206 12.72989,44.09723 44.55458,-11.02431 z"
     style="fill:none;stroke:#a40000;stroke-width:0.424328px;stroke-linecap:butt;stroke-linejoin:miter;stroke-opacity:1" />
  <path
     style="fill:none;stroke:#a40000;stroke-width:0.424328px;stroke-linecap:butt;stroke-linejoin:miter;stroke-opacity:1"
     d="M -31.82509,132.29167 -3.8e-4,99.218765 44.55422,88.194465 57.28409,132.29167 44.5542,176.3889 -3.8e-4,165.36459 Z"
     id="path3502"
     inkscape:connector-curvature="0" />
  <path
     style="fill:none;stroke:#a40000;stroke-width:0.424325px;stroke-linecap:butt;stroke-linejoin:miter;stroke-opacity:1"
     d="m 3.8e-4,165.36459 44.554197,11.0243 12.729795,-44.09722 12.729749,44.09722 L 114.56832,165.3646 82.743892,198.43752 114.56832,231.51044 70.014121,220.48613 57.284351,264.58334 44.554577,220.48613 3.8e-4,231.51042 31.824812,198.4375 Z"
     id="path3512"
     inkscape:connector-curvature="0" />
  <path
     style="fill:none;stroke:#a40000;stroke-width:0.424328px;stroke-linecap:butt;stroke-linejoin:miter;stroke-opacity:1"
     d="M 31.82509,198.4375 3.8e-4,165.36459 l -44.554602,-11.0243 -12.72987,44.09721 12.72989,44.09722 44.554582,-11.0243 z"
     id="path3514"
     inkscape:connector-curvature="0" />
  <path
     inkscape:connector-curvature="0"
     id="path3516"
     d="m 82.74361,198.43752 31.82471,-33.07291 44.5546,-11.0243 12.72987,44.09721 -12.72989,44.09722 -44.55458,-11.0243 z"
     style="fill:none;stroke:#a40000;stroke-width:0.424328px;stroke-linecap:butt;stroke-linejoin:miter;stroke-opacity:1" />
  <circle
     style="fill:#ad7fa8;stroke:none;stroke-width:1.72709;stroke-linecap:square;opacity:0.5"
     id="circle3472"
     cx="57.28397"
     cy="66.145836"
     r="38.188629" />
  <circle
     style="fill:#ad7fa8;stroke:none;stroke-width:1.72709;stroke-linecap:square;opacity:0.5"
     id="circle3474"
     cx="133.66379"
     cy="66.990288"
     r="38.188629" />
  <circle
     style="fill:#ad7fa8;stroke:#000000;stroke-width:1.6889;stroke-linecap:square;opacity:0.5"
     id="circle3490"
     cx="95.475014"
     cy="132.29169"
     r="37.344189" />
  <circle
     r="37.344189"
     cy="132.29169"
     cx="171.85229"
     id="circle3492"
     style="fill:#ad7fa8;stroke:#000000;stroke-width:1.6889;stroke-linecap:square;opacity:0.5" />
  <circle
     r="37.344189"
     cy="132.2917"
     cx="248.22957"
     id="circle3494"
     style="fill:#ad7fa8;stroke:#000000;stroke-width:1.6889;stroke-linecap:square;opacity:0.5" />
  <circle
     r="37.344189"
     cy="132.29166"
     cx="-133.66162"
     id="circle3504"
     style="fill:#ad7fa8;stroke:#000000;stroke-width:1.6889;stroke-linecap:square;opacity:0.5" />
  <circle
     style="fill:#ad7fa8;stroke:#000000;stroke-width:1.6889;stroke-linecap:square;opacity:0.5"
     id="circle3506"
     cx="-57.284351"
     cy="132.29166"
     r="37.344189" />
  <circle
     style="fill:#ad7fa8;stroke:#000000;stroke-width:1.6889;stroke-linecap:square;opacity:0.5"
     id="circle3508"
     cx="19.092936"
     cy="132.29167"
     r="37.344189" />
  <circle
     style="fill:#ad7fa8;stroke:#000000;stroke-width:1.6889;stroke-linecap:square;opacity:0.5"
     id="circle3518"
     cx="-19.092928"
     cy="198.4375"
     r="37.344189" />
  <circle
     r="37.344189"
     cy="198.4375"
     cx="57.284351"
     id="circle3520"
     style="fill:#ad7fa8;stroke:#000000;stroke-width:1.6889;stroke-linecap:square;opacity:0.5" />
  <circle
     r="37.344189"
     cy="198.43752"
     cx="133.66164"
     id="circle3522"
     style="fill:#ad7fa8;stroke:#000000;stroke-width:1.6889;stroke-linecap:square;opacity:0.5" />
  <path
     inkscape:transform-center-x="-5.9901667e-06"
     d="m 95.688168,131.17509 -75.519073,0 -37.759534,-65.401443 37.75954,-65.40143383 75.519074,3.69e-6 37.759535,65.40143814 z"
     inkscape:randomized="0"
     inkscape:rounded="0"
     inkscape:flatsided="true"
     sodipodi:arg2="1.5707963"
     sodipodi:arg1="1.0471976"
     sodipodi:r2="65.401436"
     sodipodi:r1="75.519073"
     sodipodi:cy="65.773652"
     sodipodi:cx="57.928633"
     sodipodi:sides="6"
     id="path3550"
     style="opacity:0.5;fill:none;stroke:#a40000;stroke-width:1.4888;stroke-linecap:square"
     sodipodi:type="star" />
  <path
     sodipodi:type="star"
     style="opacity:0.5;fill:none;stroke:#a40000;stroke-width:1.4888;stroke-linecap:square"
     id="path3552"
     sodipodi:sides="6"
     sodipodi:cx="57.928633"
     sodipodi:cy="65.773652"
     sodipodi:r1="75.519073"
     sodipodi:r2="65.401436"
     sodipodi:arg1="1.0471976"
     sodipodi:arg2="1.5707963"
     inkscape:flatsided="true"
     inkscape:rounded="0"
     inkscape:randomized="0"
     d="m 95.688168,131.17509 -75.519073,0 -37.759534,-65.401443 37.75954,-65.40143383 75.519074,3.69e-6 37.759535,65.40143814 z"
     inkscape:transform-center-x="-5.9901667e-06" />
  <path
     inkscape:transform-center-x="-5.9901667e-06"
     d="m -17.590438,65.773647 -75.519074,-3e-6 -37.759538,-65.4014382 37.759545,-65.4014338 75.519073,3e-6 37.759534,65.40143817 z"
     inkscape:randomized="0"
     inkscape:rounded="0"
     inkscape:flatsided="true"
     sodipodi:arg2="1.5707963"
     sodipodi:arg1="1.0471976"
     sodipodi:r2="65.401436"
     sodipodi:r1="75.519073"
     sodipodi:cy="0.37220949"
     sodipodi:cx="-55.349972"
     sodipodi:sides="6"
     id="path3554"
     style="opacity:0.5;fill:none;stroke:#a40000;stroke-width:1.4888;stroke-linecap:square"
     sodipodi:type="star" />
  <path
     sodipodi:type="star"
     style="opacity:0.5;fill:none;stroke:#a40000;stroke-width:1.4888;stroke-linecap:square"
     id="path3556"
     sodipodi:sides="6"
     sodipodi:cx="-55.349979"
     sodipodi:cy="131.17508"
     sodipodi:r1="75.519073"
     sodipodi:r2="65.401436"
     sodipodi:arg1="1.0471976"
     sodipodi:arg2="1.5707963"
     inkscape:flatsided="true"
     inkscape:rounded="0"
     inkscape:randomized="0"
     d="m -17.590446,196.57652 -75.519073,-10e-6 -37.759531,-65.40143 37.759537,-65.401439 75.519074,4e-6 37.759533,65.401435 z"
     inkscape:transform-center-x="-5.9901667e-06" />
  <rect
     height="4"
     y="0.37221316"
     x="20.169102"
     width="75.519073"
     id="rect3558"
     style="opacity:0.5;fill:none;stroke:#a40000;stroke-width:1;stroke-linecap:square" />
  <path
     inkscape:connector-curvature="0"
     id="path3566"
     d="m -17.590438,65.773646 151.038148,8e-6"
     style="fill:none;stroke:#000000;stroke-width:0.264583px;stroke-linecap:butt;stroke-linejoin:miter;stroke-opacity:1" />
  <path
     inkscape:connector-curvature="0"
     id="path3570"
     d="m 20.169101,0.37221316 75.519072,3.7e-6"
     style="fill:none;stroke:#000000;stroke-width:0.264583px;stroke-linecap:butt;stroke-linejoin:miter;stroke-opacity:1" />
  <path
     sodipodi:type="star"
     style="opacity:0.5;fill:none;stroke:#a40000;stroke-width:1.4888;stroke-linecap:square"
     id="path3572"
     sodipodi:sides="6"
     sodipodi:cx="171.85231"
     sodipodi:cy="0.74441189"
     sodipodi:r1="75.519073"
     sodipodi:r2="65.401436"
     sodipodi:arg1="1.0471976"
     sodipodi:arg2="1.5707963"
     inkscape:flatsided="true"
     inkscape:rounded="0"
     inkscape:randomized="0"
     d="m 209.61184,66.14585 -75.51907,-4e-6 -37.759533,-65.4014378 37.759543,-65.4014342 75.51907,4e-6 37.75953,65.40143757 z"
     inkscape:transform-center-x="-5.9901667e-06" />
  <path
     inkscape:transform-center-x="-5.9901667e-06"
     d="m 209.61183,196.94872 -75.51908,0 -37.759529,-65.40144 37.759539,-65.401431 75.51907,4e-6 37.75954,65.401437 z"
     inkscape:randomized="0"
     inkscape:rounded="0"
     inkscape:flatsided="true"
     sodipodi:arg2="1.5707963"
     sodipodi:arg1="1.0471976"
     sodipodi:r2="65.401436"
     sodipodi:r1="75.519073"
     sodipodi:cy="131.54728"
     sodipodi:cx="171.8523"
     sodipodi:sides="6"
     id="path3574"
     style="opacity:0.5;fill:none;stroke:#a40000;stroke-width:1.4888;stroke-linecap:square"
     sodipodi:type="star" />
  <path
     style="fill:#4e9a06;stroke:#a40000;stroke-width:0.424325px;stroke-linecap:butt;stroke-linejoin:miter;stroke-opacity:1"
     d="m -114.56832,99.218745 44.554191,11.024305 12.7298,-44.097221 12.72975,44.097221 L -3.785075e-4,99.218761 -31.824809,132.29167 -3.785075e-4,165.3646 -44.554579,154.34028 l -12.72977,44.09722 -12.72978,-44.09722 -44.554191,11.0243 31.82443,-33.07292 z"
     id="path3578"
     inkscape:connector-curvature="0" />
  <path
     inkscape:connector-curvature="0"
     id="path3580"
     d="m -114.56834,-33.072923 44.554188,11.024306 12.729801,-44.097222 12.729749,44.097222 44.5542,-11.02429 L -31.824832,6e-6 -4.02e-4,33.072928 -44.554602,22.048616 -57.284371,66.145831 -70.014152,22.048616 -114.56834,33.072914 -82.743913,-7e-6 Z"
     style="fill:#4e9a06;stroke:#a40000;stroke-width:0.424325px;stroke-linecap:butt;stroke-linejoin:miter;stroke-opacity:1" />
  <path
     inkscape:connector-curvature="0"
     id="path3582"
     d="m -57.284349,198.4375 1.289714,-263.838925"
     style="fill:none;stroke:#000000;stroke-width:0.264583px;stroke-linecap:butt;stroke-linejoin:miter;stroke-opacity:1" />
  <path
     inkscape:connector-curvature="0"
     id="path3584"
     d="M 172.49698,-65.029211 171.85279,198.43752"
     style="fill:none;stroke:#000000;stroke-width:0.264583px;stroke-linecap:butt;stroke-linejoin:miter;stroke-opacity:1" />
  <path
     style="fill:#4e9a06;stroke:#a40000;stroke-width:0.424325px;stroke-linecap:butt;stroke-linejoin:miter;stroke-opacity:1"
     d="M 3.6796908e-6,33.072914 44.554192,44.09722 57.283993,-1.5780027e-6 70.013742,44.09722 114.56794,33.07293 82.743512,66.145843 114.56794,99.218765 70.013742,88.194453 57.283973,132.29167 44.554192,88.194453 3.6796908e-6,99.218751 31.824431,66.14583 Z"
     id="path4198"
     inkscape:connector-curvature="0" />
  <path
     inkscape:connector-curvature="0"
     id="path4200"
     d="m 31.824164,-66.145837 50.9188,1.8e-5"
     style="fill:none;stroke:#000000;stroke-width:0.264583px;stroke-linecap:butt;stroke-linejoin:miter;stroke-opacity:1" />
  <path
     style="fill:#4e9a06;stroke:#a40000;stroke-width:0.424325px;stroke-linecap:butt;stroke-linejoin:miter;stroke-opacity:1"
     d="m -113.2786,-164.62018 44.554184,11.02431 12.729801,-44.09722 12.729749,44.09722 44.5542004,-11.02429 -31.8244304,33.07291 31.8244304,33.072935 -44.5542004,-11.024325 -12.729769,44.097215 -12.729781,-44.097215 -44.554184,11.024305 31.824423,-33.072915 z"
     id="path4211"
     inkscape:connector-curvature="0" />
  <path
     style="fill:none;stroke:#000000;stroke-width:0.264583px;stroke-linecap:butt;stroke-linejoin:miter;stroke-opacity:1"
     d="m -43.264866,-109.49864 25.459384,44.096985"
     id="path4215"
     inkscape:connector-curvature="0" />
  <path
     style="fill:none;stroke:#000000;stroke-width:0.264583px;stroke-linecap:butt;stroke-linejoin:miter;stroke-opacity:1"
     d="m -19.094783,-66.145845 50.9188,1.8e-5"
     id="path4217"
     inkscape:connector-curvature="0" />
</svg>
