<?xml version="1.0" encoding="UTF-8" standalone="no"?>
<svg
   xmlns:dc="http://purl.org/dc/elements/1.1/"
   xmlns:cc="http://creativecommons.org/ns#"
   xmlns:rdf="http://www.w3.org/1999/02/22-rdf-syntax-ns#"
   xmlns:svg="http://www.w3.org/2000/svg"
   xmlns="http://www.w3.org/2000/svg"
   xmlns:sodipodi="http://sodipodi.sourceforge.net/DTD/sodipodi-0.dtd"
   xmlns:inkscape="http://www.inkscape.org/namespaces/inkscape"
   sodipodi:docname="7-12star.svg"
   inkscape:version="1.0beta2 (235953b, 2020-02-06)"
   id="svg8"
   version="1.1"
   viewBox="0 0 355.6 279.40001"
   height="11in"
   width="14in">
  <defs
     id="defs2" />
  <sodipodi:namedview
     inkscape:window-maximized="1"
     inkscape:window-y="-8"
     inkscape:window-x="-8"
     inkscape:window-height="1057"
     inkscape:window-width="1848"
     inkscape:snap-midpoints="true"
     inkscape:snap-intersection-paths="true"
     inkscape:snap-bbox="false"
     units="in"
     showgrid="false"
     inkscape:document-rotation="0"
     inkscape:current-layer="layer1"
     inkscape:document-units="mm"
     inkscape:cy="492.177"
     inkscape:cx="709.85398"
     inkscape:zoom="7.1685547"
     inkscape:pageshadow="2"
     inkscape:pageopacity="0.0"
     borderopacity="1.0"
     bordercolor="#666666"
     pagecolor="#ffffff"
     id="base" />
  <metadata
     id="metadata5">
    <rdf:RDF>
      <cc:Work
         rdf:about="">
        <dc:format>image/svg+xml</dc:format>
        <dc:type
           rdf:resource="http://purl.org/dc/dcmitype/StillImage" />
        <dc:title></dc:title>
      </cc:Work>
    </rdf:RDF>
  </metadata>
  <g
     id="layer1"
     inkscape:groupmode="layer"
     inkscape:label="Layer 1">
    <g
       id="g873">
      <circle
         style="fill:#ececec;fill-rule:evenodd;stroke-width:0.1;stroke-miterlimit:4;stroke-dasharray:none;stroke-linecap:round;stroke-linejoin:round"
         id="path10"
         cx="177.8"
         cy="139.7"
         r="4" />
      <path
         id="path12"
         style="fill:#999999;stroke-width:0.1;stroke-miterlimit:4;stroke-dasharray:none;stroke-linecap:round;stroke-linejoin:round"
         inkscape:transform-center-y="3.7123643e-06"
         d="m 179.8,143.1641 h -2 -2 l -1,-1.73205 -1,-1.73205 1,-1.73205 1,-1.73205 h 2 2 l 1,1.73205 1,1.73205 -1,1.73205 z"
         inkscape:connector-curvature="0"
         sodipodi:nodetypes="ccccccccccccc" />
      <path
         sodipodi:nodetypes="ccccccccccccc"
         inkscape:connector-curvature="0"
         d="m 174.3359,141.7 v -2 -2 l 1.73205,-1 1.73205,-1 1.73205,1 1.73205,1 v 2 2 l -1.73205,1 -1.73205,1 -1.73205,-1 z"
         inkscape:transform-center-y="3.7123642e-06"
         style="fill:#999999;stroke-width:0.1;stroke-miterlimit:4;stroke-dasharray:none;stroke-linecap:round;stroke-linejoin:round"
         id="path846" />
      <path
         style="fill:none;stroke:#000000;stroke-width:0.1;stroke-linecap:round;stroke-linejoin:round;stroke-opacity:1;stroke-miterlimit:4;stroke-dasharray:none"
         d="m 174.33613,137.69959 6.92774,1e-5 L 177.8,143.7 Z"
         id="path854"
         inkscape:connector-curvature="0" />
      <path
         style="fill:none;stroke:#000000;stroke-width:0.1;stroke-linecap:round;stroke-linejoin:round;stroke-opacity:1;stroke-miterlimit:4;stroke-dasharray:none"
         d="m 177.8,135.7 -3.46386,6.00041 6.92819,-8e-4 L 177.8,135.7"
         id="path856"
         inkscape:connector-curvature="0" />
      <path
         style="fill:none;stroke:#000000;stroke-width:0.1;stroke-linecap:round;stroke-linejoin:round;stroke-opacity:1;stroke-miterlimit:4;stroke-dasharray:none"
         d="m 175.80039,136.23567 -7.9e-4,6.92819 6.00041,-3.46386 -5.99961,-3.46433"
         id="path858"
         inkscape:connector-curvature="0" />
      <path
         style="fill:none;stroke:#000000;stroke-width:0.1;stroke-linecap:round;stroke-linejoin:round;stroke-opacity:1;stroke-miterlimit:4;stroke-dasharray:none"
         d="m 179.8004,136.23612 v 6.92774 L 173.8,139.7 Z"
         id="path860"
         inkscape:connector-curvature="0" />
    </g>
    <g
       id="g980">
      <g
         id="g885"
         transform="translate(20.774422,-10.75259)">
        <path
           inkscape:connector-curvature="0"
           id="path862"
           d="m 175.01653,140.90537 -1.15477,2.00041 1.15486,2.00027 -2.30964,1.4e-4 -1.15431,1.99959 -1.15462,-1.99959 -2.30878,-1e-5 1.154,-1.99987 -1.1547,-2.00014 2.30948,-2.6e-4 1.15462,-2.00013 1.15446,1.99986 z"
           style="fill:none;stroke:#000000;stroke-width:0.264583px;stroke-linecap:butt;stroke-linejoin:miter;stroke-opacity:1" />
        <path
           style="fill:none;stroke:#000000;stroke-width:0.264583px;stroke-linecap:butt;stroke-linejoin:miter;stroke-opacity:1"
           d="m 173.553,146.36971 -2.00041,-1.15477 -2.00027,1.15486 -1.4e-4,-2.30964 -1.99959,-1.15431 1.99959,-1.15462 1e-5,-2.30878 1.99987,1.154 2.00014,-1.1547 2.6e-4,2.30948 2.00013,1.15462 -1.99986,1.15446 z"
           id="path864"
           inkscape:connector-curvature="0" />
      </g>
      <g
         transform="translate(24.774542,-3.82454)"
         id="g891">
        <path
           style="fill:none;stroke:#000000;stroke-width:0.264583px;stroke-linecap:butt;stroke-linejoin:miter;stroke-opacity:1"
           d="m 175.01653,140.90537 -1.15477,2.00041 1.15486,2.00027 -2.30964,1.4e-4 -1.15431,1.99959 -1.15462,-1.99959 -2.30878,-1e-5 1.154,-1.99987 -1.1547,-2.00014 2.30948,-2.6e-4 1.15462,-2.00013 1.15446,1.99986 z"
           id="path887"
           inkscape:connector-curvature="0" />
        <path
           inkscape:connector-curvature="0"
           id="path889"
           d="m 173.553,146.36971 -2.00041,-1.15477 -2.00027,1.15486 -1.4e-4,-2.30964 -1.99959,-1.15431 1.99959,-1.15462 1e-5,-2.30878 1.99987,1.154 2.00014,-1.1547 2.6e-4,2.30948 2.00013,1.15462 -1.99986,1.15446 z"
           style="fill:none;stroke:#000000;stroke-width:0.264583px;stroke-linecap:butt;stroke-linejoin:miter;stroke-opacity:1" />
      </g>
      <g
         id="g897"
         transform="translate(16.774542,-3.82454)">
        <path
           inkscape:connector-curvature="0"
           id="path893"
           d="m 175.01653,140.90537 -1.15477,2.00041 1.15486,2.00027 -2.30964,1.4e-4 -1.15431,1.99959 -1.15462,-1.99959 -2.30878,-1e-5 1.154,-1.99987 -1.1547,-2.00014 2.30948,-2.6e-4 1.15462,-2.00013 1.15446,1.99986 z"
           style="fill:none;stroke:#000000;stroke-width:0.264583px;stroke-linecap:butt;stroke-linejoin:miter;stroke-opacity:1" />
        <path
           style="fill:none;stroke:#000000;stroke-width:0.264583px;stroke-linecap:butt;stroke-linejoin:miter;stroke-opacity:1"
           d="m 173.553,146.36971 -2.00041,-1.15477 -2.00027,1.15486 -1.4e-4,-2.30964 -1.99959,-1.15431 1.99959,-1.15462 1e-5,-2.30878 1.99987,1.154 2.00014,-1.1547 2.6e-4,2.30948 2.00013,1.15462 -1.99986,1.15446 z"
           id="path895"
           inkscape:connector-curvature="0" />
      </g>
      <g
         id="g903"
         transform="translate(28.774422,-10.75259)">
        <path
           inkscape:connector-curvature="0"
           id="path899"
           d="m 175.01653,140.90537 -1.15477,2.00041 1.15486,2.00027 -2.30964,1.4e-4 -1.15431,1.99959 -1.15462,-1.99959 -2.30878,-1e-5 1.154,-1.99987 -1.1547,-2.00014 2.30948,-2.6e-4 1.15462,-2.00013 1.15446,1.99986 z"
           style="fill:none;stroke:#000000;stroke-width:0.264583px;stroke-linecap:butt;stroke-linejoin:miter;stroke-opacity:1" />
        <path
           style="fill:none;stroke:#000000;stroke-width:0.264583px;stroke-linecap:butt;stroke-linejoin:miter;stroke-opacity:1"
           d="m 173.553,146.36971 -2.00041,-1.15477 -2.00027,1.15486 -1.4e-4,-2.30964 -1.99959,-1.15431 1.99959,-1.15462 1e-5,-2.30878 1.99987,1.154 2.00014,-1.1547 2.6e-4,2.30948 2.00013,1.15462 -1.99986,1.15446 z"
           id="path901"
           inkscape:connector-curvature="0" />
      </g>
      <g
         transform="translate(12.773732,-10.7518)"
         id="g909">
        <path
           style="fill:none;stroke:#000000;stroke-width:0.264583px;stroke-linecap:butt;stroke-linejoin:miter;stroke-opacity:1"
           d="m 175.01653,140.90537 -1.15477,2.00041 1.15486,2.00027 -2.30964,1.4e-4 -1.15431,1.99959 -1.15462,-1.99959 -2.30878,-1e-5 1.154,-1.99987 -1.1547,-2.00014 2.30948,-2.6e-4 1.15462,-2.00013 1.15446,1.99986 z"
           id="path905"
           inkscape:connector-curvature="0" />
        <path
           inkscape:connector-curvature="0"
           id="path907"
           d="m 173.553,146.36971 -2.00041,-1.15477 -2.00027,1.15486 -1.4e-4,-2.30964 -1.99959,-1.15431 1.99959,-1.15462 1e-5,-2.30878 1.99987,1.154 2.00014,-1.1547 2.6e-4,2.30948 2.00013,1.15462 -1.99986,1.15446 z"
           style="fill:none;stroke:#000000;stroke-width:0.264583px;stroke-linecap:butt;stroke-linejoin:miter;stroke-opacity:1" />
      </g>
      <g
         id="g915"
         transform="translate(16.773612,-17.67985)">
        <path
           inkscape:connector-curvature="0"
           id="path911"
           d="m 175.01653,140.90537 -1.15477,2.00041 1.15486,2.00027 -2.30964,1.4e-4 -1.15431,1.99959 -1.15462,-1.99959 -2.30878,-1e-5 1.154,-1.99987 -1.1547,-2.00014 2.30948,-2.6e-4 1.15462,-2.00013 1.15446,1.99986 z"
           style="fill:none;stroke:#000000;stroke-width:0.264583px;stroke-linecap:butt;stroke-linejoin:miter;stroke-opacity:1" />
        <path
           style="fill:none;stroke:#000000;stroke-width:0.264583px;stroke-linecap:butt;stroke-linejoin:miter;stroke-opacity:1"
           d="m 173.553,146.36971 -2.00041,-1.15477 -2.00027,1.15486 -1.4e-4,-2.30964 -1.99959,-1.15431 1.99959,-1.15462 1e-5,-2.30878 1.99987,1.154 2.00014,-1.1547 2.6e-4,2.30948 2.00013,1.15462 -1.99986,1.15446 z"
           id="path913"
           inkscape:connector-curvature="0" />
      </g>
      <g
         transform="translate(24.773612,-17.67985)"
         id="g921">
        <path
           style="fill:none;stroke:#000000;stroke-width:0.264583px;stroke-linecap:butt;stroke-linejoin:miter;stroke-opacity:1"
           d="m 175.01653,140.90537 -1.15477,2.00041 1.15486,2.00027 -2.30964,1.4e-4 -1.15431,1.99959 -1.15462,-1.99959 -2.30878,-1e-5 1.154,-1.99987 -1.1547,-2.00014 2.30948,-2.6e-4 1.15462,-2.00013 1.15446,1.99986 z"
           id="path917"
           inkscape:connector-curvature="0" />
        <path
           inkscape:connector-curvature="0"
           id="path919"
           d="m 173.553,146.36971 -2.00041,-1.15477 -2.00027,1.15486 -1.4e-4,-2.30964 -1.99959,-1.15431 1.99959,-1.15462 1e-5,-2.30878 1.99987,1.154 2.00014,-1.1547 2.6e-4,2.30948 2.00013,1.15462 -1.99986,1.15446 z"
           style="fill:none;stroke:#000000;stroke-width:0.264583px;stroke-linecap:butt;stroke-linejoin:miter;stroke-opacity:1" />
      </g>
      <path
         style="fill:none;stroke:#000000;stroke-width:0.264583px;stroke-linecap:butt;stroke-linejoin:miter;stroke-opacity:1"
         d="m 187.79026,130.15357 0.53602,-0.92764 0.53671,0.92765 z"
         id="path923"
         inkscape:connector-curvature="0" />
      <path
         inkscape:connector-curvature="0"
         id="path925"
         d="m 187.79119,134.1536 0.53602,0.92764 0.53671,-0.92765 z"
         style="fill:none;stroke:#000000;stroke-width:0.264583px;stroke-linecap:butt;stroke-linejoin:miter;stroke-opacity:1" />
      <path
         style="fill:none;stroke:#000000;stroke-width:0.264583px;stroke-linecap:butt;stroke-linejoin:miter;stroke-opacity:1"
         d="m 195.79119,134.1536 0.53602,0.92764 0.53671,-0.92765 z"
         id="path927"
         inkscape:connector-curvature="0" />
      <path
         inkscape:connector-curvature="0"
         id="path929"
         d="m 195.79026,130.15357 0.53602,-0.92764 0.53671,0.92765 z"
         style="fill:none;stroke:#000000;stroke-width:0.264583px;stroke-linecap:butt;stroke-linejoin:miter;stroke-opacity:1" />
      <path
         inkscape:connector-curvature="0"
         id="path931"
         d="m 191.79038,137.08162 0.53602,-0.92764 0.53671,0.92765 z"
         style="fill:none;stroke:#000000;stroke-width:0.264583px;stroke-linecap:butt;stroke-linejoin:miter;stroke-opacity:1" />
      <path
         style="fill:none;stroke:#000000;stroke-width:0.264583px;stroke-linecap:butt;stroke-linejoin:miter;stroke-opacity:1"
         d="m 191.79015,127.22634 0.53602,0.92764 0.53671,-0.92765 z"
         id="path933"
         inkscape:connector-curvature="0" />
      <path
         inkscape:connector-curvature="0"
         id="path935"
         d="m 184.3265,128.15533 -0.53535,-0.92802 1.07173,-9.8e-4 z"
         style="fill:none;stroke:#000000;stroke-width:0.264583px;stroke-linecap:butt;stroke-linejoin:miter;stroke-opacity:1" />
      <path
         style="fill:none;stroke:#000000;stroke-width:0.264583px;stroke-linecap:butt;stroke-linejoin:miter;stroke-opacity:1"
         d="m 200.32709,128.15319 -0.53535,-0.92802 1.07173,-9.8e-4 z"
         id="path937"
         inkscape:connector-curvature="0" />
      <path
         inkscape:connector-curvature="0"
         id="path939"
         d="m 192.32651,142.00953 -0.53535,-0.92802 1.07173,-9.8e-4 z"
         style="fill:none;stroke:#000000;stroke-width:0.264583px;stroke-linecap:butt;stroke-linejoin:miter;stroke-opacity:1" />
      <path
         inkscape:connector-curvature="0"
         id="path941"
         d="m 191.78945,123.22631 0.53602,-0.92764 0.53671,0.92765 z"
         style="fill:none;stroke:#000000;stroke-width:0.264583px;stroke-linecap:butt;stroke-linejoin:miter;stroke-opacity:1" />
      <path
         style="fill:none;stroke:#000000;stroke-width:0.264583px;stroke-linecap:butt;stroke-linejoin:miter;stroke-opacity:1"
         d="m 183.79038,137.08162 0.53602,-0.92764 0.53671,0.92765 z"
         id="path943"
         inkscape:connector-curvature="0" />
      <path
         inkscape:connector-curvature="0"
         id="path945"
         d="m 199.79107,137.08083 0.53602,-0.92764 0.53671,0.92765 z"
         style="fill:none;stroke:#000000;stroke-width:0.264583px;stroke-linecap:butt;stroke-linejoin:miter;stroke-opacity:1" />
    </g>
  </g>
</svg>
