<?xml version="1.0" encoding="UTF-8" standalone="no"?>
<svg
   xmlns:dc="http://purl.org/dc/elements/1.1/"
   xmlns:cc="http://creativecommons.org/ns#"
   xmlns:rdf="http://www.w3.org/1999/02/22-rdf-syntax-ns#"
   xmlns:svg="http://www.w3.org/2000/svg"
   xmlns="http://www.w3.org/2000/svg"
   xmlns:sodipodi="http://sodipodi.sourceforge.net/DTD/sodipodi-0.dtd"
   xmlns:inkscape="http://www.inkscape.org/namespaces/inkscape"
   sodipodi:docname="7rings-tess.svg"
   inkscape:version="1.0beta2 (235953b, 2020-02-06)"
   id="svg4464"
   version="1.1"
   viewBox="0 0 37.850494 21.860559"
   height="21.860559mm"
   width="37.850494mm">
  <defs
     id="defs4458" />
  <sodipodi:namedview
     inkscape:window-maximized="0"
     inkscape:window-y="0"
     inkscape:window-x="26"
     inkscape:window-height="1041"
     inkscape:window-width="1274"
     fit-margin-bottom="0"
     fit-margin-right="0"
     fit-margin-left="0"
     fit-margin-top="0"
     showgrid="false"
     inkscape:document-rotation="0"
     inkscape:current-layer="layer1"
     inkscape:document-units="mm"
     inkscape:cy="41.311293"
     inkscape:cx="71.528493"
     inkscape:zoom="5.2286856"
     inkscape:pageshadow="2"
     inkscape:pageopacity="0.0"
     borderopacity="1.0"
     bordercolor="#666666"
     pagecolor="#ffffff"
     id="base" />
  <metadata
     id="metadata4461">
    <rdf:RDF>
      <cc:Work
         rdf:about="">
        <dc:format>image/svg+xml</dc:format>
        <dc:type
           rdf:resource="http://purl.org/dc/dcmitype/StillImage" />
        <dc:title></dc:title>
      </cc:Work>
    </rdf:RDF>
  </metadata>
  <g
     transform="translate(-51.378323,-101.70662)"
     id="layer1"
     inkscape:groupmode="layer"
     inkscape:label="Layer 1">
    <g
       id="g4075"
       transform="translate(68.908699,-9.4180952)">
      <g
         id="g3979"
         transform="matrix(0,-1,-1,0,131.44484,123.44907)">
        <path
           inkscape:connector-curvature="0"
           id="path3973"
           d="m 3.39387,113.12532 -3.99999,-8e-5 4e-5,-2.0001 3.999745,7e-5 z"
           style="fill:#00ffff;stroke:none;stroke-width:0.264583px;stroke-linecap:butt;stroke-linejoin:miter;stroke-opacity:1"
           sodipodi:nodetypes="ccccc" />
        <path
           inkscape:connector-curvature="0"
           d="m -0.60607961,111.12514 5.2917e-4,0.53795 0.92707512,-0.53537 -0.004651,-0.003 z"
           style="fill:#800080;stroke:none;stroke-width:0.264583px;stroke-linecap:butt;stroke-linejoin:miter;stroke-opacity:1"
           id="path3975" />
        <path
           id="path3977"
           style="fill:#800080;stroke:none;stroke-width:0.264583px;stroke-linecap:butt;stroke-linejoin:miter;stroke-opacity:1"
           d="m 3.3936646,111.12521 -5.292e-4,0.53795 -0.9270751,-0.53537 0.00465,-0.003 z"
           inkscape:connector-curvature="0" />
      </g>
      <g
         style="fill:#ff00ff;stroke:none"
         transform="translate(-39.509599,-0.2180618)"
         id="g3824">
        <path
           style="fill:#ff00ff;stroke:none;stroke-width:0.264583px;stroke-linecap:butt;stroke-linejoin:miter;stroke-opacity:1"
           d="m 27.980541,122.81105 2.92763,-1.69245 -5.03e-4,-3.37942 -2.927644,1.69003 z"
           id="path3803"
           inkscape:connector-curvature="0" />
        <path
           style="fill:#ff00ff;stroke:none;stroke-width:0.264583px;stroke-linecap:butt;stroke-linejoin:miter;stroke-opacity:1"
           d="m 30.907671,118.80988 -2e-5,-1.0707 -0.92757,0.53521 z"
           id="path3805"
           inkscape:connector-curvature="0" />
        <path
           inkscape:connector-curvature="0"
           id="path3807"
           d="m 28.910151,122.27285 -2.92952,-1.68918 -2.9264,1.69016 2.92743,1.69039 z"
           style="fill:#ff00ff;stroke:none;stroke-width:0.264583px;stroke-linecap:butt;stroke-linejoin:miter;stroke-opacity:1" />
        <path
           style="fill:#ff00ff;stroke:none;stroke-width:0.264583px;stroke-linecap:butt;stroke-linejoin:miter;stroke-opacity:1"
           d="m 30.910871,126.80919 -0.002,-3.38163 -2.926915,-1.68926 -2.09e-4,3.38043 z"
           id="path3809"
           inkscape:connector-curvature="0" />
        <path
           inkscape:connector-curvature="0"
           id="path3811"
           d="m 30.908771,125.73818 -2e-5,1.0707 -0.92757,-0.53521 z"
           style="fill:#ff00ff;stroke:none;stroke-width:0.264583px;stroke-linecap:butt;stroke-linejoin:miter;stroke-opacity:1" />
        <path
           inkscape:connector-curvature="0"
           id="path3813"
           d="m 23.982121,121.73911 -0.92724,0.53537 0.92729,0.53569 z"
           style="fill:#ff00ff;stroke:none;stroke-width:0.264583px;stroke-linecap:butt;stroke-linejoin:miter;stroke-opacity:1" />
        <path
           style="fill:#ff00ff;stroke:none;stroke-width:0.264583px;stroke-linecap:butt;stroke-linejoin:miter;stroke-opacity:1"
           d="m 27.982231,121.73981 0.92724,0.53537 -0.92729,0.53569 z"
           id="path3815"
           inkscape:connector-curvature="0" />
      </g>
      <path
         style="fill:#ff00ff;stroke:none;stroke-width:0.264583px;stroke-linecap:butt;stroke-linejoin:miter;stroke-opacity:1"
         d="m 14.318801,122.59186 -2.92763,-1.69245 5.03e-4,-3.37942 2.927644,1.69003 z"
         id="path3848"
         inkscape:connector-curvature="0" />
      <path
         style="fill:#ff00ff;stroke:none;stroke-width:0.264583px;stroke-linecap:butt;stroke-linejoin:miter;stroke-opacity:1"
         d="m 11.391671,118.59069 2e-5,-1.0707 0.92757,0.53521 z"
         id="path3850"
         inkscape:connector-curvature="0" />
      <path
         inkscape:connector-curvature="0"
         id="path3852"
         d="m 13.389191,122.05366 2.92952,-1.68918 2.9264,1.69016 -2.92743,1.69039 z"
         style="fill:#ff00ff;stroke:none;stroke-width:0.264583px;stroke-linecap:butt;stroke-linejoin:miter;stroke-opacity:1" />
      <path
         style="fill:#ff00ff;stroke:none;stroke-width:0.264583px;stroke-linecap:butt;stroke-linejoin:miter;stroke-opacity:1"
         d="m 11.388471,126.59 0.002,-3.38163 2.926915,-1.68926 2.09e-4,3.38043 z"
         id="path3854"
         inkscape:connector-curvature="0" />
      <path
         inkscape:connector-curvature="0"
         id="path3856"
         d="m 11.390571,125.51899 2e-5,1.0707 0.92757,-0.53521 z"
         style="fill:#ff00ff;stroke:none;stroke-width:0.264583px;stroke-linecap:butt;stroke-linejoin:miter;stroke-opacity:1" />
      <path
         style="fill:#ff00ff;stroke:none;stroke-width:0.264583px;stroke-linecap:butt;stroke-linejoin:miter;stroke-opacity:1"
         d="m 14.317111,121.52062 -0.92724,0.53537 0.92729,0.53569 z"
         id="path3860"
         inkscape:connector-curvature="0" />
      <g
         transform="rotate(-90,-2.6024458,126.05265)"
         id="g3887">
        <path
           sodipodi:nodetypes="ccccc"
           style="fill:#00ffff;stroke:none;stroke-width:0.264583px;stroke-linecap:butt;stroke-linejoin:miter;stroke-opacity:1"
           d="m 3.39387,113.12532 -3.99999,-8e-5 4e-5,-2.0001 3.999745,7e-5 z"
           id="path3878"
           inkscape:connector-curvature="0" />
        <path
           id="path3880"
           style="fill:#800080;stroke:none;stroke-width:0.264583px;stroke-linecap:butt;stroke-linejoin:miter;stroke-opacity:1"
           d="m -0.60607961,111.12514 5.2917e-4,0.53795 0.92707512,-0.53537 -0.004651,-0.003 z"
           inkscape:connector-curvature="0" />
        <path
           inkscape:connector-curvature="0"
           d="m 3.3936646,111.12521 -5.292e-4,0.53795 -0.9270751,-0.53537 0.00465,-0.003 z"
           style="fill:#800080;stroke:none;stroke-width:0.264583px;stroke-linecap:butt;stroke-linejoin:miter;stroke-opacity:1"
           id="path3882" />
      </g>
      <g
         transform="translate(0.925442,-0.5351618)"
         id="g3801">
        <path
           inkscape:connector-curvature="0"
           id="path3774"
           d="m -6.26121,116.39534 -2.00006,3.46406 -3.46424,-2.00017 1.99981,-3.46364 z"
           style="fill:#00ff00;stroke:none;stroke-width:0.264583px;stroke-linecap:butt;stroke-linejoin:miter;stroke-opacity:1" />
        <path
           inkscape:connector-curvature="0"
           id="path3776"
           d="m -7.52747,118.58986 -0.53533,-0.92725 1.0709,-2.9e-4 z"
           style="fill:#008080;stroke:none;stroke-width:0.264583px;stroke-linecap:butt;stroke-linejoin:miter;stroke-opacity:1" />
        <path
           style="fill:#008080;stroke:none;stroke-width:0.264583px;stroke-linecap:butt;stroke-linejoin:miter;stroke-opacity:1"
           d="m -9.52737,119.12698 -2e-5,-1.0707 -0.92757,0.53521 z"
           id="path3778"
           inkscape:connector-curvature="0" />
        <path
           style="fill:#008080;stroke:none;stroke-width:0.264583px;stroke-linecap:butt;stroke-linejoin:miter;stroke-opacity:1"
           d="m -10.45767,115.66336 0.53533,0.92725 -1.070898,2.9e-4 z"
           id="path3780"
           inkscape:connector-curvature="0" />
        <path
           inkscape:connector-curvature="0"
           id="path3782"
           d="m -7.52969,115.66178 -0.92726,0.53532 -2.91e-4,-1.0709 z"
           style="fill:#008080;stroke:none;stroke-width:0.264583px;stroke-linecap:butt;stroke-linejoin:miter;stroke-opacity:1" />
      </g>
      <path
         sodipodi:nodetypes="ccccc"
         style="fill:#00ffff;stroke:none;stroke-width:0.264583px;stroke-linecap:butt;stroke-linejoin:miter;stroke-opacity:1"
         d="m 3.39387,113.12532 -3.99999,-8e-5 4e-5,-2.0001 3.999745,7e-5 z"
         id="path3724"
         inkscape:connector-curvature="0" />
      <path
         id="path3697"
         style="fill:#b3b3b3;stroke:none;stroke-width:0.264583px;stroke-linecap:butt;stroke-linejoin:miter;stroke-opacity:1"
         d="m -5.529295,111.12613 -2.000912,1.15652 5.17e-4,3.37913 2.92747,-1.68982 -5.17e-4,-2.30942 0.0016,10e-4 1.99781,1.15342 2.924886,-1.6893 -5.849772,5.1e-4 z"
         inkscape:connector-curvature="0" />
      <path
         style="fill:#800080;stroke:none;stroke-width:0.264583px;stroke-linecap:butt;stroke-linejoin:miter;stroke-opacity:1"
         d="m -6.604248,115.12662 -0.92726,0.53532 -2.91e-4,-1.0709 z"
         id="path3701"
         inkscape:connector-curvature="0" />
      <path
         id="path3720"
         style="fill:#800080;stroke:none;stroke-width:0.264583px;stroke-linecap:butt;stroke-linejoin:miter;stroke-opacity:1"
         d="m -0.60607961,111.12514 5.2917e-4,0.53795 0.92707512,-0.53537 -0.004651,-0.003 z"
         inkscape:connector-curvature="0" />
      <path
         inkscape:connector-curvature="0"
         d="m 8.31688,111.1262 2.000912,1.15652 -5.17e-4,3.37913 -2.92747,-1.68982 5.17e-4,-2.30942 -0.0016,0.001 -1.99781,1.15342 -2.924886,-1.6893 5.849772,5.1e-4 z"
         style="fill:#b3b3b3;stroke:none;stroke-width:0.264583px;stroke-linecap:butt;stroke-linejoin:miter;stroke-opacity:1"
         id="path3732" />
      <path
         inkscape:connector-curvature="0"
         id="path3734"
         d="m 9.391833,115.12669 0.92726,0.53532 2.91e-4,-1.0709 z"
         style="fill:#800080;stroke:none;stroke-width:0.264583px;stroke-linecap:butt;stroke-linejoin:miter;stroke-opacity:1" />
      <path
         inkscape:connector-curvature="0"
         d="m 3.3936646,111.12521 -5.292e-4,0.53795 -0.9270751,-0.53537 0.00465,-0.003 z"
         style="fill:#800080;stroke:none;stroke-width:0.264583px;stroke-linecap:butt;stroke-linejoin:miter;stroke-opacity:1"
         id="path3736" />
      <path
         style="fill:#800080;stroke:none;stroke-width:0.264583px;stroke-linecap:butt;stroke-linejoin:miter;stroke-opacity:1"
         d="m -15.528128,121.5204 -0.92724,0.53537 0.92729,0.53569 z"
         id="path3828"
         inkscape:connector-curvature="0" />
      <g
         id="g3846"
         transform="rotate(30,1.9305584,153.89387)">
        <path
           style="fill:#00ff00;stroke:none;stroke-width:0.264583px;stroke-linecap:butt;stroke-linejoin:miter;stroke-opacity:1"
           d="m -6.26121,116.39534 -2.00006,3.46406 -3.46424,-2.00017 1.99981,-3.46364 z"
           id="path3836"
           inkscape:connector-curvature="0" />
        <path
           style="fill:#008080;stroke:none;stroke-width:0.264583px;stroke-linecap:butt;stroke-linejoin:miter;stroke-opacity:1"
           d="m -7.52747,118.58986 -0.53533,-0.92725 1.0709,-2.9e-4 z"
           id="path3838"
           inkscape:connector-curvature="0" />
        <path
           inkscape:connector-curvature="0"
           id="path3840"
           d="m -9.52737,119.12698 -2e-5,-1.0707 -0.92757,0.53521 z"
           style="fill:#008080;stroke:none;stroke-width:0.264583px;stroke-linecap:butt;stroke-linejoin:miter;stroke-opacity:1" />
        <path
           inkscape:connector-curvature="0"
           id="path3842"
           d="m -10.45767,115.66336 0.53533,0.92725 -1.070898,2.9e-4 z"
           style="fill:#008080;stroke:none;stroke-width:0.264583px;stroke-linecap:butt;stroke-linejoin:miter;stroke-opacity:1" />
        <path
           style="fill:#008080;stroke:none;stroke-width:0.264583px;stroke-linecap:butt;stroke-linejoin:miter;stroke-opacity:1"
           d="m -7.52969,115.66178 -0.92726,0.53532 -2.91e-4,-1.0709 z"
           id="path3844"
           inkscape:connector-curvature="0" />
      </g>
      <g
         transform="matrix(1,0,0,-1,-0.00321516,244.11)"
         id="g3941">
        <g
           transform="translate(0.925442,-0.5351618)"
           id="g3899">
          <path
             inkscape:connector-curvature="0"
             id="path3889"
             d="m -6.26121,116.39534 -2.00006,3.46406 -3.46424,-2.00017 1.99981,-3.46364 z"
             style="fill:#00ff00;stroke:none;stroke-width:0.264583px;stroke-linecap:butt;stroke-linejoin:miter;stroke-opacity:1" />
          <path
             inkscape:connector-curvature="0"
             id="path3891"
             d="m -7.52747,118.58986 -0.53533,-0.92725 1.0709,-2.9e-4 z"
             style="fill:#008080;stroke:none;stroke-width:0.264583px;stroke-linecap:butt;stroke-linejoin:miter;stroke-opacity:1" />
          <path
             style="fill:#008080;stroke:none;stroke-width:0.264583px;stroke-linecap:butt;stroke-linejoin:miter;stroke-opacity:1"
             d="m -9.52737,119.12698 -2e-5,-1.0707 -0.92757,0.53521 z"
             id="path3893"
             inkscape:connector-curvature="0" />
          <path
             style="fill:#008080;stroke:none;stroke-width:0.264583px;stroke-linecap:butt;stroke-linejoin:miter;stroke-opacity:1"
             d="m -10.45767,115.66336 0.53533,0.92725 -1.070898,2.9e-4 z"
             id="path3895"
             inkscape:connector-curvature="0" />
          <path
             inkscape:connector-curvature="0"
             id="path3897"
             d="m -7.52969,115.66178 -0.92726,0.53532 -2.91e-4,-1.0709 z"
             style="fill:#008080;stroke:none;stroke-width:0.264583px;stroke-linecap:butt;stroke-linejoin:miter;stroke-opacity:1" />
        </g>
        <path
           sodipodi:nodetypes="ccccc"
           style="fill:#00ffff;stroke:none;stroke-width:0.264583px;stroke-linecap:butt;stroke-linejoin:miter;stroke-opacity:1"
           d="m 3.39387,113.12532 -3.99999,-8e-5 4e-5,-2.0001 3.999745,7e-5 z"
           id="path3901"
           inkscape:connector-curvature="0" />
        <path
           id="path3904"
           style="fill:#b3b3b3;stroke:none;stroke-width:0.264583px;stroke-linecap:butt;stroke-linejoin:miter;stroke-opacity:1"
           d="m -5.529295,111.12613 -2.000912,1.15652 5.17e-4,3.37913 2.92747,-1.68982 -5.17e-4,-2.30942 0.0016,10e-4 1.99781,1.15342 2.924886,-1.6893 -5.849772,5.1e-4 z"
           inkscape:connector-curvature="0" />
        <path
           id="path3906"
           style="fill:#800080;stroke:none;stroke-width:0.264583px;stroke-linecap:butt;stroke-linejoin:miter;stroke-opacity:1"
           d="m -0.60607961,111.12514 5.2917e-4,0.53795 0.92707512,-0.53537 -0.004651,-0.003 z"
           inkscape:connector-curvature="0" />
        <path
           inkscape:connector-curvature="0"
           d="m 8.31688,111.1262 2.000912,1.15652 -5.17e-4,3.37913 -2.92747,-1.68982 5.17e-4,-2.30942 -0.0016,0.001 -1.99781,1.15342 -2.924886,-1.6893 5.849772,5.1e-4 z"
           style="fill:#b3b3b3;stroke:none;stroke-width:0.264583px;stroke-linecap:butt;stroke-linejoin:miter;stroke-opacity:1"
           id="path3908" />
        <path
           inkscape:connector-curvature="0"
           d="m 3.3936646,111.12521 -5.292e-4,0.53795 -0.9270751,-0.53537 0.00465,-0.003 z"
           style="fill:#800080;stroke:none;stroke-width:0.264583px;stroke-linecap:butt;stroke-linejoin:miter;stroke-opacity:1"
           id="path3910" />
        <g
           id="g3922"
           transform="rotate(30,1.9305584,153.89387)">
          <path
             style="fill:#00ff00;stroke:none;stroke-width:0.264583px;stroke-linecap:butt;stroke-linejoin:miter;stroke-opacity:1"
             d="m -6.26121,116.39534 -2.00006,3.46406 -3.46424,-2.00017 1.99981,-3.46364 z"
             id="path3912"
             inkscape:connector-curvature="0" />
          <path
             style="fill:#008080;stroke:none;stroke-width:0.264583px;stroke-linecap:butt;stroke-linejoin:miter;stroke-opacity:1"
             d="m -7.52747,118.58986 -0.53533,-0.92725 1.0709,-2.9e-4 z"
             id="path3914"
             inkscape:connector-curvature="0" />
          <path
             inkscape:connector-curvature="0"
             id="path3916"
             d="m -9.52737,119.12698 -2e-5,-1.0707 -0.92757,0.53521 z"
             style="fill:#008080;stroke:none;stroke-width:0.264583px;stroke-linecap:butt;stroke-linejoin:miter;stroke-opacity:1" />
          <path
             inkscape:connector-curvature="0"
             id="path3918"
             d="m -10.45767,115.66336 0.53533,0.92725 -1.070898,2.9e-4 z"
             style="fill:#008080;stroke:none;stroke-width:0.264583px;stroke-linecap:butt;stroke-linejoin:miter;stroke-opacity:1" />
          <path
             style="fill:#008080;stroke:none;stroke-width:0.264583px;stroke-linecap:butt;stroke-linejoin:miter;stroke-opacity:1"
             d="m -7.52969,115.66178 -0.92726,0.53532 -2.91e-4,-1.0709 z"
             id="path3920"
             inkscape:connector-curvature="0" />
        </g>
      </g>
      <path
         inkscape:connector-curvature="0"
         id="path3858"
         d="m 18.317221,121.51992 0.92724,0.53537 -0.92729,0.53569 z"
         style="fill:#008080;stroke:none;stroke-width:0.264583px;stroke-linecap:butt;stroke-linejoin:miter;stroke-opacity:1" />
    </g>
    <g
       transform="translate(68.908699,-9.4180952)"
       id="g4324">
      <g
         transform="matrix(0,-1,-1,0,131.44484,123.44907)"
         id="g4208">
        <path
           sodipodi:nodetypes="ccccc"
           style="fill:#00ffff;stroke:none;stroke-width:0.264583px;stroke-linecap:butt;stroke-linejoin:miter;stroke-opacity:1"
           d="m 3.39387,113.12532 -3.99999,-8e-5 4e-5,-2.0001 3.999745,7e-5 z"
           id="path4202"
           inkscape:connector-curvature="0" />
        <path
           id="path4204"
           style="fill:#800080;stroke:none;stroke-width:0.264583px;stroke-linecap:butt;stroke-linejoin:miter;stroke-opacity:1"
           d="m -0.60607961,111.12514 5.2917e-4,0.53795 0.92707512,-0.53537 -0.004651,-0.003 z"
           inkscape:connector-curvature="0" />
        <path
           inkscape:connector-curvature="0"
           d="m 3.3936646,111.12521 -5.292e-4,0.53795 -0.9270751,-0.53537 0.00465,-0.003 z"
           style="fill:#800080;stroke:none;stroke-width:0.264583px;stroke-linecap:butt;stroke-linejoin:miter;stroke-opacity:1"
           id="path4206" />
      </g>
      <g
         id="g4224"
         transform="translate(-39.509599,-0.2180618)"
         style="fill:#ff00ff;stroke:none">
        <path
           inkscape:connector-curvature="0"
           id="path4210"
           d="m 27.980541,122.81105 2.92763,-1.69245 -5.03e-4,-3.37942 -2.927644,1.69003 z"
           style="fill:#ff00ff;stroke:none;stroke-width:0.264583px;stroke-linecap:butt;stroke-linejoin:miter;stroke-opacity:1" />
        <path
           inkscape:connector-curvature="0"
           id="path4212"
           d="m 30.907671,118.80988 -2e-5,-1.0707 -0.92757,0.53521 z"
           style="fill:#ff00ff;stroke:none;stroke-width:0.264583px;stroke-linecap:butt;stroke-linejoin:miter;stroke-opacity:1" />
        <path
           style="fill:#ff00ff;stroke:none;stroke-width:0.264583px;stroke-linecap:butt;stroke-linejoin:miter;stroke-opacity:1"
           d="m 28.910151,122.27285 -2.92952,-1.68918 -2.9264,1.69016 2.92743,1.69039 z"
           id="path4214"
           inkscape:connector-curvature="0" />
        <path
           inkscape:connector-curvature="0"
           id="path4216"
           d="m 30.910871,126.80919 -0.002,-3.38163 -2.926915,-1.68926 -2.09e-4,3.38043 z"
           style="fill:#ff00ff;stroke:none;stroke-width:0.264583px;stroke-linecap:butt;stroke-linejoin:miter;stroke-opacity:1" />
        <path
           style="fill:#ff00ff;stroke:none;stroke-width:0.264583px;stroke-linecap:butt;stroke-linejoin:miter;stroke-opacity:1"
           d="m 30.908771,125.73818 -2e-5,1.0707 -0.92757,-0.53521 z"
           id="path4218"
           inkscape:connector-curvature="0" />
        <path
           style="fill:#ff00ff;stroke:none;stroke-width:0.264583px;stroke-linecap:butt;stroke-linejoin:miter;stroke-opacity:1"
           d="m 23.982121,121.73911 -0.92724,0.53537 0.92729,0.53569 z"
           id="path4220"
           inkscape:connector-curvature="0" />
        <path
           inkscape:connector-curvature="0"
           id="path4222"
           d="m 27.982231,121.73981 0.92724,0.53537 -0.92729,0.53569 z"
           style="fill:#ff00ff;stroke:none;stroke-width:0.264583px;stroke-linecap:butt;stroke-linejoin:miter;stroke-opacity:1" />
      </g>
      <path
         inkscape:connector-curvature="0"
         id="path4226"
         d="m 14.318801,122.59186 -2.92763,-1.69245 5.03e-4,-3.37942 2.927644,1.69003 z"
         style="fill:#ff00ff;stroke:none;stroke-width:0.264583px;stroke-linecap:butt;stroke-linejoin:miter;stroke-opacity:1" />
      <path
         inkscape:connector-curvature="0"
         id="path4228"
         d="m 11.391671,118.59069 2e-5,-1.0707 0.92757,0.53521 z"
         style="fill:#ff00ff;stroke:none;stroke-width:0.264583px;stroke-linecap:butt;stroke-linejoin:miter;stroke-opacity:1" />
      <path
         style="fill:#ff00ff;stroke:none;stroke-width:0.264583px;stroke-linecap:butt;stroke-linejoin:miter;stroke-opacity:1"
         d="m 13.389191,122.05366 2.92952,-1.68918 2.9264,1.69016 -2.92743,1.69039 z"
         id="path4230"
         inkscape:connector-curvature="0" />
      <path
         inkscape:connector-curvature="0"
         id="path4232"
         d="m 11.388471,126.59 0.002,-3.38163 2.926915,-1.68926 2.09e-4,3.38043 z"
         style="fill:#ff00ff;stroke:none;stroke-width:0.264583px;stroke-linecap:butt;stroke-linejoin:miter;stroke-opacity:1" />
      <path
         style="fill:#ff00ff;stroke:none;stroke-width:0.264583px;stroke-linecap:butt;stroke-linejoin:miter;stroke-opacity:1"
         d="m 11.390571,125.51899 2e-5,1.0707 0.92757,-0.53521 z"
         id="path4234"
         inkscape:connector-curvature="0" />
      <path
         inkscape:connector-curvature="0"
         id="path4236"
         d="m 14.317111,121.52062 -0.92724,0.53537 0.92729,0.53569 z"
         style="fill:#ff00ff;stroke:none;stroke-width:0.264583px;stroke-linecap:butt;stroke-linejoin:miter;stroke-opacity:1" />
      <g
         id="g4244"
         transform="rotate(-90,-2.6024458,126.05265)">
        <path
           inkscape:connector-curvature="0"
           id="path4238"
           d="m 3.39387,113.12532 -3.99999,-8e-5 4e-5,-2.0001 3.999745,7e-5 z"
           style="fill:#00ffff;stroke:none;stroke-width:0.264583px;stroke-linecap:butt;stroke-linejoin:miter;stroke-opacity:1"
           sodipodi:nodetypes="ccccc" />
        <path
           inkscape:connector-curvature="0"
           d="m -0.60607961,111.12514 5.2917e-4,0.53795 0.92707512,-0.53537 -0.004651,-0.003 z"
           style="fill:#800080;stroke:none;stroke-width:0.264583px;stroke-linecap:butt;stroke-linejoin:miter;stroke-opacity:1"
           id="path4240" />
        <path
           id="path4242"
           style="fill:#800080;stroke:none;stroke-width:0.264583px;stroke-linecap:butt;stroke-linejoin:miter;stroke-opacity:1"
           d="m 3.3936646,111.12521 -5.292e-4,0.53795 -0.9270751,-0.53537 0.00465,-0.003 z"
           inkscape:connector-curvature="0" />
      </g>
      <g
         id="g4256"
         transform="translate(0.925442,-0.5351618)">
        <path
           style="fill:#00ff00;stroke:none;stroke-width:0.264583px;stroke-linecap:butt;stroke-linejoin:miter;stroke-opacity:1"
           d="m -6.26121,116.39534 -2.00006,3.46406 -3.46424,-2.00017 1.99981,-3.46364 z"
           id="path4246"
           inkscape:connector-curvature="0" />
        <path
           style="fill:#008080;stroke:none;stroke-width:0.264583px;stroke-linecap:butt;stroke-linejoin:miter;stroke-opacity:1"
           d="m -7.52747,118.58986 -0.53533,-0.92725 1.0709,-2.9e-4 z"
           id="path4248"
           inkscape:connector-curvature="0" />
        <path
           inkscape:connector-curvature="0"
           id="path4250"
           d="m -9.52737,119.12698 -2e-5,-1.0707 -0.92757,0.53521 z"
           style="fill:#008080;stroke:none;stroke-width:0.264583px;stroke-linecap:butt;stroke-linejoin:miter;stroke-opacity:1" />
        <path
           inkscape:connector-curvature="0"
           id="path4252"
           d="m -10.45767,115.66336 0.53533,0.92725 -1.070898,2.9e-4 z"
           style="fill:#008080;stroke:none;stroke-width:0.264583px;stroke-linecap:butt;stroke-linejoin:miter;stroke-opacity:1" />
        <path
           style="fill:#008080;stroke:none;stroke-width:0.264583px;stroke-linecap:butt;stroke-linejoin:miter;stroke-opacity:1"
           d="m -7.52969,115.66178 -0.92726,0.53532 -2.91e-4,-1.0709 z"
           id="path4254"
           inkscape:connector-curvature="0" />
      </g>
      <path
         inkscape:connector-curvature="0"
         id="path4258"
         d="m 3.39387,113.12532 -3.99999,-8e-5 4e-5,-2.0001 3.999745,7e-5 z"
         style="fill:#00ffff;stroke:none;stroke-width:0.264583px;stroke-linecap:butt;stroke-linejoin:miter;stroke-opacity:1"
         sodipodi:nodetypes="ccccc" />
      <path
         inkscape:connector-curvature="0"
         d="m -5.529295,111.12613 -2.000912,1.15652 5.17e-4,3.37913 2.92747,-1.68982 -5.17e-4,-2.30942 0.0016,10e-4 1.99781,1.15342 2.924886,-1.6893 -5.849772,5.1e-4 z"
         style="fill:#b3b3b3;stroke:none;stroke-width:0.264583px;stroke-linecap:butt;stroke-linejoin:miter;stroke-opacity:1"
         id="path4260" />
      <path
         inkscape:connector-curvature="0"
         id="path4262"
         d="m -6.604248,115.12662 -0.92726,0.53532 -2.91e-4,-1.0709 z"
         style="fill:#800080;stroke:none;stroke-width:0.264583px;stroke-linecap:butt;stroke-linejoin:miter;stroke-opacity:1" />
      <path
         inkscape:connector-curvature="0"
         d="m -0.60607961,111.12514 5.2917e-4,0.53795 0.92707512,-0.53537 -0.004651,-0.003 z"
         style="fill:#800080;stroke:none;stroke-width:0.264583px;stroke-linecap:butt;stroke-linejoin:miter;stroke-opacity:1"
         id="path4264" />
      <path
         id="path4266"
         style="fill:#b3b3b3;stroke:none;stroke-width:0.264583px;stroke-linecap:butt;stroke-linejoin:miter;stroke-opacity:1"
         d="m 8.31688,111.1262 2.000912,1.15652 -5.17e-4,3.37913 -2.92747,-1.68982 5.17e-4,-2.30942 -0.0016,0.001 -1.99781,1.15342 -2.924886,-1.6893 5.849772,5.1e-4 z"
         inkscape:connector-curvature="0" />
      <path
         style="fill:#800080;stroke:none;stroke-width:0.264583px;stroke-linecap:butt;stroke-linejoin:miter;stroke-opacity:1"
         d="m 9.391833,115.12669 0.92726,0.53532 2.91e-4,-1.0709 z"
         id="path4268"
         inkscape:connector-curvature="0" />
      <path
         id="path4270"
         style="fill:#800080;stroke:none;stroke-width:0.264583px;stroke-linecap:butt;stroke-linejoin:miter;stroke-opacity:1"
         d="m 3.3936646,111.12521 -5.292e-4,0.53795 -0.9270751,-0.53537 0.00465,-0.003 z"
         inkscape:connector-curvature="0" />
      <path
         inkscape:connector-curvature="0"
         id="path4272"
         d="m -15.528128,121.5204 -0.92724,0.53537 0.92729,0.53569 z"
         style="fill:#800080;stroke:none;stroke-width:0.264583px;stroke-linecap:butt;stroke-linejoin:miter;stroke-opacity:1" />
      <g
         transform="rotate(30,1.9305584,153.89387)"
         id="g4284">
        <path
           inkscape:connector-curvature="0"
           id="path4274"
           d="m -6.26121,116.39534 -2.00006,3.46406 -3.46424,-2.00017 1.99981,-3.46364 z"
           style="fill:#00ff00;stroke:none;stroke-width:0.264583px;stroke-linecap:butt;stroke-linejoin:miter;stroke-opacity:1" />
        <path
           inkscape:connector-curvature="0"
           id="path4276"
           d="m -7.52747,118.58986 -0.53533,-0.92725 1.0709,-2.9e-4 z"
           style="fill:#008080;stroke:none;stroke-width:0.264583px;stroke-linecap:butt;stroke-linejoin:miter;stroke-opacity:1" />
        <path
           style="fill:#008080;stroke:none;stroke-width:0.264583px;stroke-linecap:butt;stroke-linejoin:miter;stroke-opacity:1"
           d="m -9.52737,119.12698 -2e-5,-1.0707 -0.92757,0.53521 z"
           id="path4278"
           inkscape:connector-curvature="0" />
        <path
           style="fill:#008080;stroke:none;stroke-width:0.264583px;stroke-linecap:butt;stroke-linejoin:miter;stroke-opacity:1"
           d="m -10.45767,115.66336 0.53533,0.92725 -1.070898,2.9e-4 z"
           id="path4280"
           inkscape:connector-curvature="0" />
        <path
           inkscape:connector-curvature="0"
           id="path4282"
           d="m -7.52969,115.66178 -0.92726,0.53532 -2.91e-4,-1.0709 z"
           style="fill:#008080;stroke:none;stroke-width:0.264583px;stroke-linecap:butt;stroke-linejoin:miter;stroke-opacity:1" />
      </g>
      <g
         id="g4320"
         transform="matrix(1,0,0,-1,-0.00321516,244.11)">
        <g
           id="g4296"
           transform="translate(0.925442,-0.5351618)">
          <path
             style="fill:#00ff00;stroke:none;stroke-width:0.264583px;stroke-linecap:butt;stroke-linejoin:miter;stroke-opacity:1"
             d="m -6.26121,116.39534 -2.00006,3.46406 -3.46424,-2.00017 1.99981,-3.46364 z"
             id="path4286"
             inkscape:connector-curvature="0" />
          <path
             style="fill:#008080;stroke:none;stroke-width:0.264583px;stroke-linecap:butt;stroke-linejoin:miter;stroke-opacity:1"
             d="m -7.52747,118.58986 -0.53533,-0.92725 1.0709,-2.9e-4 z"
             id="path4288"
             inkscape:connector-curvature="0" />
          <path
             inkscape:connector-curvature="0"
             id="path4290"
             d="m -9.52737,119.12698 -2e-5,-1.0707 -0.92757,0.53521 z"
             style="fill:#008080;stroke:none;stroke-width:0.264583px;stroke-linecap:butt;stroke-linejoin:miter;stroke-opacity:1" />
          <path
             inkscape:connector-curvature="0"
             id="path4292"
             d="m -10.45767,115.66336 0.53533,0.92725 -1.070898,2.9e-4 z"
             style="fill:#008080;stroke:none;stroke-width:0.264583px;stroke-linecap:butt;stroke-linejoin:miter;stroke-opacity:1" />
          <path
             style="fill:#008080;stroke:none;stroke-width:0.264583px;stroke-linecap:butt;stroke-linejoin:miter;stroke-opacity:1"
             d="m -7.52969,115.66178 -0.92726,0.53532 -2.91e-4,-1.0709 z"
             id="path4294"
             inkscape:connector-curvature="0" />
        </g>
        <path
           inkscape:connector-curvature="0"
           id="path4298"
           d="m 3.39387,113.12532 -3.99999,-8e-5 4e-5,-2.0001 3.999745,7e-5 z"
           style="fill:#00ffff;stroke:none;stroke-width:0.264583px;stroke-linecap:butt;stroke-linejoin:miter;stroke-opacity:1"
           sodipodi:nodetypes="ccccc" />
        <path
           inkscape:connector-curvature="0"
           d="m -5.529295,111.12613 -2.000912,1.15652 5.17e-4,3.37913 2.92747,-1.68982 -5.17e-4,-2.30942 0.0016,10e-4 1.99781,1.15342 2.924886,-1.6893 -5.849772,5.1e-4 z"
           style="fill:#b3b3b3;stroke:none;stroke-width:0.264583px;stroke-linecap:butt;stroke-linejoin:miter;stroke-opacity:1"
           id="path4300" />
        <path
           inkscape:connector-curvature="0"
           d="m -0.60607961,111.12514 5.2917e-4,0.53795 0.92707512,-0.53537 -0.004651,-0.003 z"
           style="fill:#800080;stroke:none;stroke-width:0.264583px;stroke-linecap:butt;stroke-linejoin:miter;stroke-opacity:1"
           id="path4302" />
        <path
           id="path4304"
           style="fill:#b3b3b3;stroke:none;stroke-width:0.264583px;stroke-linecap:butt;stroke-linejoin:miter;stroke-opacity:1"
           d="m 8.31688,111.1262 2.000912,1.15652 -5.17e-4,3.37913 -2.92747,-1.68982 5.17e-4,-2.30942 -0.0016,0.001 -1.99781,1.15342 -2.924886,-1.6893 5.849772,5.1e-4 z"
           inkscape:connector-curvature="0" />
        <path
           id="path4306"
           style="fill:#800080;stroke:none;stroke-width:0.264583px;stroke-linecap:butt;stroke-linejoin:miter;stroke-opacity:1"
           d="m 3.3936646,111.12521 -5.292e-4,0.53795 -0.9270751,-0.53537 0.00465,-0.003 z"
           inkscape:connector-curvature="0" />
        <g
           transform="rotate(30,1.9305584,153.89387)"
           id="g4318">
          <path
             inkscape:connector-curvature="0"
             id="path4308"
             d="m -6.26121,116.39534 -2.00006,3.46406 -3.46424,-2.00017 1.99981,-3.46364 z"
             style="fill:#00ff00;stroke:none;stroke-width:0.264583px;stroke-linecap:butt;stroke-linejoin:miter;stroke-opacity:1" />
          <path
             inkscape:connector-curvature="0"
             id="path4310"
             d="m -7.52747,118.58986 -0.53533,-0.92725 1.0709,-2.9e-4 z"
             style="fill:#008080;stroke:none;stroke-width:0.264583px;stroke-linecap:butt;stroke-linejoin:miter;stroke-opacity:1" />
          <path
             style="fill:#008080;stroke:none;stroke-width:0.264583px;stroke-linecap:butt;stroke-linejoin:miter;stroke-opacity:1"
             d="m -9.52737,119.12698 -2e-5,-1.0707 -0.92757,0.53521 z"
             id="path4312"
             inkscape:connector-curvature="0" />
          <path
             style="fill:#008080;stroke:none;stroke-width:0.264583px;stroke-linecap:butt;stroke-linejoin:miter;stroke-opacity:1"
             d="m -10.45767,115.66336 0.53533,0.92725 -1.070898,2.9e-4 z"
             id="path4314"
             inkscape:connector-curvature="0" />
          <path
             inkscape:connector-curvature="0"
             id="path4316"
             d="m -7.52969,115.66178 -0.92726,0.53532 -2.91e-4,-1.0709 z"
             style="fill:#008080;stroke:none;stroke-width:0.264583px;stroke-linecap:butt;stroke-linejoin:miter;stroke-opacity:1" />
        </g>
      </g>
      <path
         style="fill:#008080;stroke:none;stroke-width:0.264583px;stroke-linecap:butt;stroke-linejoin:miter;stroke-opacity:1"
         d="m 18.317221,121.51992 0.92724,0.53537 -0.92729,0.53569 z"
         id="path4322"
         inkscape:connector-curvature="0" />
    </g>
  </g>
</svg>
